<?xml version="1.0" standalone="no"?>
<!DOCTYPE svg PUBLIC "-//W3C//DTD SVG 1.1//EN" "http://www.w3.org/Graphics/SVG/1.1/DTD/svg11.dtd" >
<svg xmlns="http://www.w3.org/2000/svg" xmlns:xlink="http://www.w3.org/1999/xlink" version="1.1">
<metadata>
Created by FontForge 20170731 at Fri Oct 29 22:32:11 2021
 By Aleksey,,,
Copyright (c) 2020 Andrea Biggio &#38; The Designers Foundry. All rights reserved.
</metadata>
<defs>
<font id="TelenorEvolutionUI-Bold" horiz-adv-x="2000" >
  <font-face 
    font-family="Telenor Evolution UI"
    font-weight="700"
    font-stretch="normal"
    units-per-em="2048"
    panose-1="0 0 0 0 0 0 0 0 0 0"
    ascent="1638"
    descent="-410"
    x-height="1057"
    cap-height="1434"
    bbox="-112.368 -621 5147.32 1958.65"
    underline-thickness="102"
    underline-position="-644"
    unicode-range="U+0020-F8FF"
  />
<missing-glyph horiz-adv-x="1300" 
 />
    <glyph glyph-name="f_f" unicode="ff" horiz-adv-x="1558" 
d="M250 0q-41 0 -41 41v823q0 13 -12 13h-91q-40 0 -40 41v98q0 41 40 41h91q12 0 12 12v37q0 179 106.5 269.5t282.5 90.5q74 0 162 -16q37 -6 37 -45v-129q0 -43 -45 -37q-70 8 -95 8q-85 0 -124 -38t-39 -122v-18q0 -12 12 -12h368q13 0 13 12v37q0 179 106.5 269.5
t282.5 90.5q74 0 162 -16q37 -6 37 -45v-129q0 -43 -45 -37q-44 8 -95 8q-85 0 -124.5 -38t-39.5 -122v-18q0 -12 13 -12h250q41 0 41 -41v-98q0 -41 -41 -41h-242q-12 0 -12 -13v-823q0 -41 -41 -41h-211q-41 0 -41 41v823q0 13 -13 13h-360q-12 0 -12 -13v-823
q0 -41 -41 -41h-211z" />
    <glyph glyph-name="f_f_i" unicode="ffi" horiz-adv-x="1992" 
d="M250 0q-41 0 -41 41v823q0 13 -12 13h-91q-40 0 -40 41v98q0 41 40 41h91q12 0 12 12v37q0 179 106.5 269.5t282.5 90.5q74 0 162 -16q37 -6 37 -45v-129q0 -43 -45 -37q-70 8 -95 8q-85 0 -124 -38t-39 -122v-18q0 -12 12 -12h368q13 0 13 12v37q0 179 106.5 269.5
t282.5 90.5q74 0 162 -16q37 -6 37 -45v-129q0 -43 -45 -37q-44 8 -95 8q-85 0 -124.5 -38t-39.5 -122v-18q0 -12 13 -12h633q41 0 41 -41v-975q0 -41 -41 -41h-211q-41 0 -41 41v823q0 13 -13 13h-360q-12 0 -12 -13v-823q0 -41 -41 -41h-211q-41 0 -41 41v823q0 13 -13 13
h-360q-12 0 -12 -13v-823q0 -41 -41 -41h-211z" />
    <glyph glyph-name="f_f_l" unicode="ffl" horiz-adv-x="2002" 
d="M250 0q-41 0 -41 41v823q0 13 -12 13h-91q-40 0 -40 41v98q0 41 40 41h91q12 0 12 12v37q0 179 106.5 269.5t282.5 90.5q74 0 162 -16q37 -6 37 -45v-129q0 -43 -45 -37q-70 8 -95 8q-85 0 -124 -38t-39 -122v-18q0 -12 12 -12h371q12 0 12 12v27q0 207 121.5 295
t367.5 88q182 0 453 -39q39 -6 39 -45v-1354q0 -41 -41 -41h-213q-41 0 -41 41v1198q0 11 -12 14q-112 11 -154 11q-128 0 -181.5 -41t-53.5 -140v-14q0 -12 12 -12h250q41 0 41 -41v-98q0 -41 -41 -41h-242q-12 0 -12 -13v-823q0 -41 -41 -41h-211q-41 0 -41 41v823
q0 13 -12 13h-363q-12 0 -12 -13v-823q0 -41 -41 -41h-211z" />
    <glyph glyph-name="f_i" unicode="fi" horiz-adv-x="1314" 
d="M1139 1057q41 0 41 -41v-975q0 -41 -41 -41h-211q-41 0 -41 41v823q0 13 -13 13h-360q-12 0 -12 -13v-823q0 -41 -41 -41h-211q-41 0 -41 41v823q0 13 -12 13h-91q-40 0 -40 41v98q0 41 40 41h91q12 0 12 12v37q0 179 106.5 269.5t282.5 90.5q74 0 162 -16q37 -6 37 -45
v-129q0 -43 -45 -37q-70 8 -95 8q-85 0 -124 -38t-39 -122v-18q0 -12 12 -12h633z" />
    <glyph glyph-name="f_l" unicode="fl" horiz-adv-x="1320" 
d="M209 1096q0 207 121.5 295t367.5 88q183 0 451 -39q39 -6 39 -45v-1354q0 -41 -41 -41h-211q-41 0 -41 41v1198q0 11 -12 14q-112 11 -152 11q-129 0 -183 -41t-54 -140v-14q0 -12 12 -12h250q41 0 41 -41v-98q0 -41 -41 -41h-242q-12 0 -12 -13v-823q0 -41 -41 -41h-211
q-41 0 -41 41v823q0 13 -12 13h-91q-40 0 -40 41v98q0 41 40 41h91q12 0 12 12v27z" />
    <glyph glyph-name="t_t" unicode="tt" horiz-adv-x="1536" 
d="M262 0q-41 0 -41 41v823q0 13 -12 13h-103q-40 0 -40 41v98q0 41 40 41h103q12 0 12 12v223q0 41 41 41h195q19 0 31 -11t12 -30l8 -223q0 -5 4 -8.5t8 -3.5h340q12 0 12 12v223q0 41 41 41h205q41 0 41 -41v-223q0 -12 12 -12h240q41 0 41 -41v-98q0 -41 -41 -41h-233
q-13 0 -13 -13v-499q0 -85 31.5 -120.5t106.5 -35.5q45 0 100 12q45 9 45 -37v-127q0 -36 -33 -45q-92 -28 -188 -28q-188 0 -271.5 79.5t-83.5 260.5v540q0 13 -12 13h-334q-12 0 -12 -13v-823q0 -41 -41 -41h-211z" />
    <glyph glyph-name=".notdef" horiz-adv-x="1300" 
 />
    <glyph glyph-name=".null" horiz-adv-x="0" 
 />
    <glyph glyph-name="nonmarkingreturn" horiz-adv-x="682" 
 />
    <glyph glyph-name="space" unicode=" " horiz-adv-x="497" 
 />
    <glyph glyph-name="space" unicode="&#xa0;" horiz-adv-x="497" 
 />
    <glyph glyph-name="exclam" unicode="!" horiz-adv-x="565" 
d="M127 1391q-3 43 41 43h231q44 0 41 -43l-45 -887q-3 -39 -41 -39h-141q-38 0 -41 39zM96 154q0 75 54.5 128.5t130.5 53.5q78 0 133 -53.5t55 -128.5q0 -78 -55.5 -132.5t-132.5 -54.5q-76 0 -130.5 55t-54.5 132z" />
    <glyph glyph-name="quotedbl" unicode="&#x22;" horiz-adv-x="1021" 
d="M227 764q-40 0 -43 39l-45 588q-3 43 39 43h238q42 0 39 -43l-45 -588q-3 -39 -43 -39h-140zM569 1391q-3 43 39 43h238q42 0 39 -43l-45 -588q-3 -39 -43 -39h-140q-40 0 -43 39z" />
    <glyph glyph-name="numbersign" unicode="#" horiz-adv-x="1505" 
d="M135 338q-41 0 -41 41v151q0 41 41 41h164q8 0 12 11l56 282q1 6 -3 10.5t-10 4.5h-123q-41 0 -41 41v151q0 41 41 41h177q9 0 12 10l51 275q6 37 43 37h172q21 0 31.5 -11.5t7.5 -31.5l-39 -267q-3 -12 10 -12h269q11 0 14 10l49 275q6 37 43 37h174q21 0 31.5 -11.5
t7.5 -31.5l-41 -267q-3 -12 12 -12h115q41 0 41 -41v-151q0 -41 -41 -41h-168q-8 0 -12 -11l-55 -282q-1 -6 2.5 -10.5t9.5 -4.5h127q41 0 41 -41v-151q0 -41 -41 -41h-178q-10 0 -13 -10l-53 -291q-6 -37 -43 -37h-172q-21 0 -31.5 11.5t-7.5 31.5l43 283q3 12 -12 12h-270
q-10 0 -13 -10l-55 -291q-6 -37 -43 -37h-168q-21 0 -31.5 11.5t-7.5 31.5l43 283q3 12 -12 12h-115zM580 586q-1 -6 2.5 -10.5t9.5 -4.5h266q8 0 12 11l56 282q1 6 -3 10.5t-10 4.5h-268q-8 0 -12 -11z" />
    <glyph glyph-name="dollar" unicode="$" horiz-adv-x="1374" 
d="M88 350q-3 20 7.5 31.5t31.5 11.5h235q34 0 46 -35q44 -103 182 -131q14 -3 14 13l2 358q0 9 -8 12q-44 10 -71 16.5t-72.5 19.5t-74.5 25t-68.5 32.5t-65.5 42.5t-54 54t-44 67.5t-26.5 82.5t-10.5 101q0 171 128.5 280t356.5 131q12 0 12 13v167q0 41 41 41h82
q41 0 41 -41v-169q0 -13 12 -13q209 -19 332.5 -121.5t143.5 -271.5q6 -43 -39 -43h-224q-34 0 -43 37q-30 115 -168 143q-14 3 -14 -12v-344q0 -9 10 -12l52 -13q56 -12 91 -21t89 -27t88.5 -37t75 -50.5t63.5 -68t39 -89t16 -114.5q0 -194 -134 -309.5t-380 -135.5
q-12 0 -12 -12v-168q0 -41 -41 -41h-84q-41 0 -41 41v168q0 11 -16 14q-217 17 -347 115.5t-153 261.5zM430 1044q0 -62 42.5 -99.5t121.5 -63.5q14 -3 14 10v303q0 15 -16 12q-77 -15 -119.5 -57t-42.5 -105zM770 233q0 -13 12 -10q95 12 144 58t49 120q0 64 -49 102
t-142 64q-14 3 -14 -10v-324z" />
    <glyph glyph-name="percent" unicode="%" horiz-adv-x="1923" 
d="M535 0q-23 0 -31 13.5t2 35.5l723 1356q16 29 49 29h106q23 0 31.5 -14t-2.5 -36l-723 -1355q-16 -29 -49 -29h-106zM72 1028q0 208 90 320t270 112q181 0 271 -112t90 -320q0 -205 -90.5 -317.5t-270.5 -112.5q-178 0 -269 112.5t-91 317.5zM289 1028
q0 -125 32.5 -189.5t110.5 -64.5q77 0 109 65.5t32 188.5q0 125 -32.5 190.5t-108.5 65.5q-79 0 -111 -65.5t-32 -190.5zM1128 403q0 207 91 320t272 113q179 0 269.5 -113t90.5 -320q0 -205 -90.5 -317.5t-269.5 -112.5q-180 0 -271.5 112.5t-91.5 317.5zM1348 403
q0 -124 32.5 -188.5t110.5 -64.5q141 0 141 253q0 125 -32.5 190.5t-108.5 65.5q-79 0 -111 -65.5t-32 -190.5z" />
    <glyph glyph-name="ampersand" unicode="&#x26;" horiz-adv-x="1425" 
d="M987 86q-15 15 -31 4q-183 -123 -397 -123q-210 0 -346.5 119.5t-136.5 302.5q0 247 266 375q26 13 8 31q-131 131 -131 307q0 164 119 267.5t309 103.5q179 0 299.5 -94t120.5 -257q0 -122 -72.5 -225t-210.5 -158q-30 -12 -8 -37l182 -206q17 -20 31 6q10 20 22.5 72.5
t18.5 101.5q3 39 41 39h180q21 0 31.5 -11.5t7.5 -31.5q-20 -195 -129 -377q-10 -19 2 -31l189 -213q17 -20 10 -35.5t-33 -15.5h-233q-29 0 -52 23zM326 449q0 -94 75.5 -167t202.5 -73q59 0 115.5 14.5t81.5 36.5q22 15 4 33l-313 352q-11 14 -35 2q-57 -27 -94 -81
t-37 -117zM510 1083q0 -47 27.5 -101t111.5 -138q16 -16 33 -4q57 34 96 105t39 140q0 72 -43.5 117t-111.5 45t-110 -45.5t-42 -118.5z" />
    <glyph glyph-name="quotesingle" unicode="'" horiz-adv-x="591" 
d="M227 764q-40 0 -43 39l-45 588q-3 43 39 43h238q42 0 39 -43l-45 -588q-3 -39 -43 -39h-140z" />
    <glyph glyph-name="parenleft" unicode="(" horiz-adv-x="636" 
d="M367 -381q-35 0 -48 31q-113 237 -163 455.5t-50 494.5q0 279 50 499.5t163 452.5q13 31 48 31h184q23 0 31.5 -12.5t-0.5 -34.5q-92 -216 -134 -437t-42 -499q0 -268 42 -487.5t134 -446.5q9 -22 0.5 -34.5t-31.5 -12.5h-184z" />
    <glyph glyph-name="parenright" unicode=")" horiz-adv-x="636" 
d="M86 -381q-23 0 -31.5 12.5t0.5 34.5q92 225 134 448t42 486q0 271 -42 496.5t-134 439.5q-9 22 0.5 34.5t32.5 12.5h182q34 0 47 -31q113 -232 163 -452.5t50 -499.5q0 -272 -50 -493t-163 -457q-13 -31 -47 -31h-184z" />
    <glyph glyph-name="asterisk" unicode="*" horiz-adv-x="907" 
d="M371 743q-21 -73 -84 -71q-54 1 -96 49q-48 54 -25 110q10 23 33 43l196 164q6 5 4.5 10.5t-10.5 4.5l-227 -21q-74 -7 -92 60q-15 57 18 118q33 62 83 59q26 -2 50 -20l185 -141q9 -6 13 -2t1 12l-84 223q-28 74 35 110q53 31 121 15q69 -16 82 -67q7 -26 -5 -58
l-82 -223q-3 -7 1.5 -11t13.5 1l182 141q60 47 111 -5q41 -42 45 -109q4 -73 -46 -96q-21 -10 -51 -7l-225 23q-9 2 -11 -4.5t5 -12.5l195 -164q62 -46 33 -113q-21 -50 -74 -75q-64 -30 -104 11q-18 18 -27 48l-74 250q-3 9 -8.5 9t-8.5 -9z" />
    <glyph glyph-name="plus" unicode="+" horiz-adv-x="1181" 
d="M457 1178q0 41 41 41h186q41 0 41 -41v-312q0 -12 12 -12h310q40 0 40 -41v-166q0 -41 -40 -41h-310q-12 0 -12 -12v-311q0 -41 -41 -41h-186q-41 0 -41 41v311q0 12 -13 12h-309q-41 0 -41 41v166q0 41 41 41h309q13 0 13 12v312z" />
    <glyph glyph-name="comma" unicode="," horiz-adv-x="614" 
d="M213 291q6 37 43 37h213q22 0 31.5 -12.5t3.5 -34.5l-191 -590q-9 -33 -45 -33h-127q-20 0 -30 12.5t-7 32.5z" />
    <glyph glyph-name="hyphen" unicode="-" horiz-adv-x="780" 
d="M129 453q-41 0 -41 41v161q0 41 41 41h524q41 0 41 -41v-161q0 -41 -41 -41h-524z" />
    <glyph glyph-name="period" unicode="." horiz-adv-x="565" 
d="M281 -31q-76 0 -130.5 55t-54.5 132q0 75 54.5 128.5t130.5 53.5q78 0 133 -53.5t55 -128.5q0 -78 -55.5 -132.5t-132.5 -54.5z" />
    <glyph glyph-name="slash" unicode="/" horiz-adv-x="835" 
d="M82 0q-22 0 -31 12.5t-2 34.5l459 1354q11 33 47 33h201q22 0 30.5 -13t1.5 -35l-460 -1353q-11 -33 -47 -33h-199z" />
    <glyph glyph-name="zero" unicode="0" horiz-adv-x="1394" 
d="M700 -31q-154 0 -267.5 53t-183 152.5t-103 234.5t-33.5 308t34 308.5t104.5 235t183.5 152.5t265 53q151 0 263.5 -53.5t181.5 -153.5t103 -235t34 -307q0 -173 -34.5 -309t-104 -235t-181.5 -151.5t-262 -52.5zM440 717q0 -258 62 -383t198 -125q254 0 254 508
q0 510 -254 510q-136 0 -198 -125.5t-62 -384.5z" />
    <glyph glyph-name="one" unicode="1" horiz-adv-x="890" 
d="M401 1067q-72 -108 -262 -117q-43 0 -43 41v201q0 41 41 41q130 6 210.5 47t127.5 125q17 29 49 29h176q41 0 41 -41v-1352q0 -41 -41 -41h-233q-41 0 -41 41v1020q0 14 -9.5 15t-15.5 -9z" />
    <glyph glyph-name="two" unicode="2" horiz-adv-x="1265" 
d="M113 227q0 31 24 52q313 244 372 292q212 175 282 293q49 82 49 160q0 94 -53 147.5t-142 53.5q-170 0 -207 -174q-9 -39 -45 -39h-223q-21 0 -31.5 11.5t-7.5 31.5q28 204 164.5 306.5t349.5 102.5q227 0 366.5 -112.5t139.5 -323.5q0 -62 -17 -122t-44 -110.5
t-73 -104.5t-91 -97t-112 -96.5t-122 -93.5t-134 -97q-34 -24 -52 -37q-7 -5 -9 -11t3 -10t16 -3q154 14 295 14h279q40 0 40 -41v-178q0 -41 -40 -41h-936q-41 0 -41 41v186z" />
    <glyph glyph-name="three" unicode="3" horiz-adv-x="1314" 
d="M680 -33q-249 0 -396 119.5t-169 339.5q-6 43 39 43h229q38 0 41 -41q12 -103 74 -157t166 -54q105 0 165 56t60 151q0 98 -59 152.5t-181 54.5h-53q-41 0 -41 41v137q0 41 41 41h72q200 0 200 186q0 89 -52.5 135t-149.5 46q-176 0 -205 -166q-6 -39 -43 -39h-221
q-21 0 -31.5 11.5t-7.5 31.5q21 199 158.5 304t363.5 105q219 0 354 -105.5t135 -285.5q0 -109 -62 -193.5t-169 -105.5q-15 -3 -15 -13t15 -13q138 -27 208.5 -114.5t70.5 -219.5q0 -201 -148 -324t-389 -123z" />
    <glyph glyph-name="four" unicode="4" horiz-adv-x="1349" 
d="M803 0q-41 0 -41 41v254q0 12 -12 12h-603q-41 0 -41 41v225q0 29 17 52l590 784q17 25 49 25h274q41 0 41 -41v-832q0 -12 13 -12h124q41 0 41 -41v-160q0 -41 -41 -41h-124q-13 0 -13 -12v-254q0 -41 -41 -41h-233zM362 563q-4 -6 -1.5 -10t10.5 -4h389q12 0 12 12v580
q0 15 -11 15.5t-16 -11.5q-43 -114 -155 -266z" />
    <glyph glyph-name="five" unicode="5" horiz-adv-x="1271" 
d="M365 414q36 0 45 -39q18 -86 79 -132t150 -46q113 0 174 70.5t61 193.5q0 126 -63.5 201t-177.5 75q-139 0 -203 -119q-18 -30 -53 -24l-199 43q-39 9 -33 47l109 713q5 37 45 37h760q41 0 41 -41v-158q0 -41 -41 -41h-541q-11 0 -14 -10l-58 -336q-3 -14 8 -18t23 10
q43 53 114.5 83.5t156.5 30.5q86 0 163.5 -33.5t135 -93.5t91 -150t33.5 -196q0 -158 -72.5 -276.5t-193 -178t-270.5 -59.5q-202 0 -346.5 107.5t-171.5 296.5q-3 20 7.5 31.5t31.5 11.5h209z" />
    <glyph glyph-name="six" unicode="6" horiz-adv-x="1310" 
d="M434 776q45 69 131 118.5t207 49.5q192 0 313 -130t121 -351q0 -119 -43 -214.5t-117 -156t-169.5 -93t-202.5 -32.5q-276 0 -418.5 189t-142.5 534q0 241 60 412.5t188 267.5t317 96q85 0 162 -19.5t146.5 -60t120 -111t71.5 -163.5q9 -45 -37 -45h-207q-35 0 -47 35
q-45 133 -209 133q-145 0 -211 -116.5t-66 -338.5q0 -17 12 -17.5t21 13.5zM438 463q0 -114 64 -185t172 -71q107 0 170 71t63 185q0 108 -62.5 182t-170.5 74q-107 0 -171.5 -74t-64.5 -182z" />
    <glyph glyph-name="seven" unicode="7" horiz-adv-x="1114" 
d="M807 1194h-696q-41 0 -41 41v158q0 41 41 41h893q40 0 40 -41v-185q0 -28 -20 -51q-215 -242 -306 -498.5t-102 -617.5q-3 -41 -43 -41h-243q-42 0 -39 41q8 228 68.5 434t176.5 383.5t279 300.5q7 6 9.5 14t-2 14.5t-15.5 6.5z" />
    <glyph glyph-name="eight" unicode="8" horiz-adv-x="1296" 
d="M649 -33q-252 0 -406.5 116.5t-154.5 313.5q0 136 66 226.5t190 121.5q13 3 13.5 14.5t-13.5 16.5q-88 26 -142.5 104.5t-54.5 194.5q0 179 137.5 285t364.5 106t365.5 -106t138.5 -285q0 -111 -57.5 -190t-149.5 -109q-14 -5 -14.5 -15.5t14.5 -15.5q122 -36 193 -122.5
t71 -225.5q0 -197 -153.5 -313.5t-407.5 -116.5zM399 428q0 -106 68 -162.5t182 -56.5q117 0 184.5 56.5t67.5 162.5q0 111 -69.5 166t-182.5 55t-181.5 -55.5t-68.5 -165.5zM428 1047q0 -95 60 -143t161 -48q102 0 161.5 49t59.5 142q0 95 -60 143.5t-161 48.5
q-102 0 -161.5 -49.5t-59.5 -142.5z" />
    <glyph glyph-name="nine" unicode="9" horiz-adv-x="1310" 
d="M879 657q-45 -69 -131 -118.5t-207 -49.5q-192 0 -313.5 130.5t-121.5 351.5q0 119 43 214.5t117.5 156t169.5 92.5t203 32q276 0 418.5 -189t142.5 -534q0 -241 -60 -412.5t-188 -267.5t-317 -96q-85 0 -162 20t-146.5 60.5t-120 111t-71.5 163.5q-9 45 37 45h207
q35 0 47 -35q45 -133 209 -133q145 0 210.5 116t65.5 338q0 17 -11.5 17.5t-20.5 -13.5zM406 971q0 -108 62.5 -182t170.5 -74q107 0 171 74t64 182q0 114 -64 185t-171 71t-170 -71t-63 -185z" />
    <glyph glyph-name="colon" unicode=":" horiz-adv-x="565" 
d="M281 647q-76 0 -130.5 55t-54.5 132q0 75 54.5 128.5t130.5 53.5q78 0 133 -53.5t55 -128.5q0 -78 -55.5 -132.5t-132.5 -54.5zM96 156q0 75 54.5 128.5t130.5 53.5q78 0 133 -53.5t55 -128.5q0 -78 -55.5 -132.5t-132.5 -54.5q-76 0 -130.5 55t-54.5 132z" />
    <glyph glyph-name="semicolon" unicode=";" horiz-adv-x="667" 
d="M383 647q-76 0 -130 55t-54 132q0 75 54 128.5t130 53.5q78 0 133 -53.5t55 -128.5q0 -78 -55.5 -132.5t-132.5 -54.5zM141 -342q-20 0 -30 12.5t-7 32.5l109 588q6 37 43 37h213q22 0 31.5 -12.5t3.5 -34.5l-191 -590q-9 -33 -45 -33h-127z" />
    <glyph glyph-name="less" unicode="&#x3c;" horiz-adv-x="1140" 
d="M352 713q0 -4 10 -11q269 -80 316 -96l336 -112q33 -11 33 -48v-202q0 -23 -13 -32.5t-35 -0.5l-872 344q-33 13 -33 47v217q0 34 33 47l872 346q22 8 35 -0.5t13 -31.5v-203q0 -36 -33 -47l-336 -113q-57 -19 -316 -96q-10 -7 -10 -8z" />
    <glyph glyph-name="equal" unicode="=" horiz-adv-x="1181" 
d="M1047 1044q40 0 40 -40v-154q0 -41 -40 -41h-912q-41 0 -41 41v154q0 40 41 40h912zM135 414q-41 0 -41 41v153q0 41 41 41h912q40 0 40 -41v-153q0 -41 -40 -41h-912z" />
    <glyph glyph-name="greater" unicode="&#x3e;" horiz-adv-x="1140" 
d="M788 713q0 1 -10 8q-249 74 -315 96l-336 113q-33 11 -33 47v203q0 48 47 32l873 -346q33 -13 33 -47v-217q0 -34 -33 -47l-873 -344q-22 -9 -34.5 0.5t-12.5 32.5v202q0 37 33 48l336 112q55 18 315 96q10 7 10 11z" />
    <glyph glyph-name="question" unicode="?" horiz-adv-x="1118" 
d="M446 453q-40 0 -40 43q2 95 18.5 153.5t54 103.5t111.5 99q77 57 111.5 103t35.5 108q3 74 -45 118t-131 44q-102 0 -146.5 -49t-52.5 -158q-3 -41 -43 -41h-213q-40 0 -40 43q12 233 140 341.5t363 108.5q138 0 245.5 -42.5t172 -131t64.5 -211.5q0 -203 -201 -356
q-69 -53 -97 -79t-45.5 -63t-21.5 -93q-3 -41 -43 -41h-197zM373 154q0 75 54 128.5t130 53.5q78 0 133 -53.5t55 -128.5q0 -78 -55.5 -132.5t-132.5 -54.5q-76 0 -130 55t-54 132z" />
    <glyph glyph-name="at" unicode="@" horiz-adv-x="1945" 
d="M995 -244q-269 0 -474 104t-318 298t-113 452q0 192 65.5 354t182.5 274.5t282.5 175.5t360.5 63q181 0 340.5 -54.5t278 -153t187 -247t68.5 -326.5q0 -84 -15 -161t-47.5 -146t-80.5 -119.5t-119 -80t-157 -29.5q-105 0 -196 38t-120 97q-6 12 -14 12.5t-14 -10.5
q-28 -53 -86 -83t-134 -30q-157 0 -251.5 121.5t-94.5 323.5q0 201 94.5 322.5t247.5 121.5q147 0 217 -112q7 -12 16 -10t9 16v49q0 41 41 41h195q40 0 40 -41v-535q0 -127 95 -127q80 0 118.5 90.5t38.5 225.5q0 151 -48.5 268.5t-136.5 191.5t-206 112t-260 38
q-166 0 -296.5 -51t-213 -141.5t-125.5 -212t-43 -265.5q0 -309 187.5 -487t509.5 -178q190 0 348 55q22 7 34.5 -2t12.5 -31v-106q0 -36 -31 -45q-165 -60 -375 -60zM788 629q0 -118 44 -186t126 -68q72 0 112 55.5t40 155.5v84q0 100 -40 156.5t-112 56.5
q-82 0 -126 -68.5t-44 -185.5z" />
    <glyph glyph-name="A" unicode="A" horiz-adv-x="1507" 
d="M379 33q-9 -33 -45 -33h-240q-22 0 -31 12.5t-2 34.5l480 1354q11 33 47 33h317q36 0 47 -33l494 -1354q7 -22 -2 -34.5t-31 -12.5h-252q-34 0 -45 33l-96 295q-2 10 -14 10h-519q-11 0 -14 -10zM559 594q-3 -14 10 -14h355q13 0 10 14l-74 225q-74 229 -100 346
q-3 13 -14.5 13t-14.5 -13q-24 -111 -102 -354z" />
    <glyph glyph-name="B" unicode="B" horiz-adv-x="1392" 
d="M188 0q-41 0 -41 41v1352q0 41 41 41h697q180 0 282.5 -82.5t102.5 -233.5q0 -65 -23.5 -124.5t-60.5 -99.5t-80.5 -66t-85.5 -31q-9 -1 -12 -5.5t0 -9.5t12 -6q52 -6 103.5 -34t94.5 -72.5t70 -111t27 -142.5q0 -200 -129.5 -308t-368.5 -108h-629zM465 260
q0 -12 12 -12h314q95 0 146.5 48.5t51.5 135.5q0 86 -52 132t-146 46h-314q-12 0 -12 -12v-338zM465 844q0 -13 12 -13h289q79 0 129.5 54.5t50.5 134.5q0 73 -47.5 119.5t-122.5 46.5h-299q-12 0 -12 -12v-330z" />
    <glyph glyph-name="C" unicode="C" horiz-adv-x="1509" 
d="M780 -33q-323 0 -506.5 200.5t-183.5 551.5t183.5 549t506.5 198q235 0 396.5 -105t212.5 -292q6 -21 -4.5 -33t-32.5 -12h-248q-33 0 -47 33q-31 77 -101 118.5t-168 41.5q-176 0 -272 -131.5t-96 -366.5t96.5 -368.5t267.5 -133.5q123 0 198.5 56t98.5 163q9 37 43 37
h244q44 0 41 -35q-35 -211 -200.5 -341t-428.5 -130z" />
    <glyph glyph-name="D" unicode="D" horiz-adv-x="1492" 
d="M692 248q172 0 277.5 117.5t105.5 351.5q0 241 -105.5 355t-277.5 114h-215q-12 0 -12 -12v-914q0 -12 12 -12h215zM188 0q-41 0 -41 41v1352q0 41 41 41h514q148 0 273 -43.5t222 -129t151.5 -225t54.5 -319.5q0 -151 -36 -272.5t-99.5 -203.5t-152.5 -137t-192 -79.5
t-221 -24.5h-514z" />
    <glyph glyph-name="E" unicode="E" horiz-adv-x="1288" 
d="M188 0q-41 0 -41 41v1352q0 41 41 41h967q41 0 41 -41v-166q0 -41 -41 -41h-678q-12 0 -12 -12v-304q0 -12 12 -12h602q41 0 41 -41v-158q0 -41 -41 -41h-602q-12 0 -12 -12v-346q0 -12 12 -12h676q41 0 41 -41v-166q0 -41 -41 -41h-965z" />
    <glyph glyph-name="F" unicode="F" horiz-adv-x="1220" 
d="M188 0q-41 0 -41 41v1352q0 41 41 41h924q41 0 41 -41v-166q0 -41 -41 -41h-635q-12 0 -12 -12v-357q0 -12 12 -12h580q41 0 41 -41v-158q0 -41 -41 -41h-580q-12 0 -12 -12v-512q0 -41 -41 -41h-236z" />
    <glyph glyph-name="G" unicode="G" horiz-adv-x="1572" 
d="M694 -33q-128 0 -238.5 52t-191.5 147.5t-127.5 238t-46.5 314.5q0 351 183.5 549t506.5 198q235 0 396.5 -105t212.5 -292q6 -21 -4.5 -33t-32.5 -12h-248q-33 0 -47 33q-31 77 -100 118.5t-166 41.5q-177 0 -275 -131.5t-98 -360.5q0 -230 99.5 -369t283.5 -139
q142 0 239 87t111 224q3 13 -10 13h-324q-41 0 -41 41v139q0 41 41 41h588q41 0 41 -41v-680q0 -41 -41 -41h-184q-38 0 -41 39l-9 141q-1 14 -9.5 16t-14.5 -8q-66 -101 -188.5 -161t-264.5 -60z" />
    <glyph glyph-name="H" unicode="H" horiz-adv-x="1490" 
d="M188 0q-41 0 -41 41v1352q0 41 41 41h236q41 0 41 -41v-539q0 -12 12 -12h537q12 0 12 12v539q0 41 41 41h236q40 0 40 -41v-1352q0 -41 -40 -41h-236q-41 0 -41 41v543q0 12 -12 12h-537q-12 0 -12 -12v-543q0 -41 -41 -41h-236z" />
    <glyph glyph-name="I" unicode="I" horiz-adv-x="612" 
d="M147 1393q0 41 41 41h236q41 0 41 -41v-1352q0 -41 -41 -41h-236q-41 0 -41 41v1352z" />
    <glyph glyph-name="J" unicode="J" horiz-adv-x="1222" 
d="M86 475v39q0 41 41 41h225q41 0 41 -41v-65q0 -234 195 -234q192 0 192 260v918q0 41 41 41h234q41 0 41 -41v-901q0 -115 -27 -206t-73.5 -150t-111.5 -97.5t-137 -55t-155 -16.5q-81 0 -150.5 14t-136.5 50t-114.5 92t-76 146t-28.5 206z" />
    <glyph glyph-name="K" unicode="K" horiz-adv-x="1476" 
d="M188 0q-41 0 -41 41v1352q0 41 41 41h236q41 0 41 -41l-8 -615q0 -9 9 -11t15 7q34 53 117 161.5t139 176.5l248 299q17 23 51 23h281q26 0 32.5 -16t-10.5 -36l-262 -303q-185 -213 -209 -237q-8 -7 -5.5 -15.5t14.5 -9.5q98 -12 161 -66.5t111 -164.5l240 -539
q9 -22 -0.5 -34.5t-32.5 -12.5h-242q-34 0 -47 31l-190 411q-41 88 -85.5 121t-117.5 33q-29 0 -39 -12l-164 -193q-6 -9 -6 -14v-336q0 -41 -41 -41h-236z" />
    <glyph glyph-name="L" unicode="L" horiz-adv-x="1196" 
d="M188 0q-41 0 -41 41v1352q0 41 41 41h236q41 0 41 -41v-1133q0 -12 12 -12h610q41 0 41 -41v-166q0 -41 -41 -41h-899z" />
    <glyph glyph-name="M" unicode="M" horiz-adv-x="1845" 
d="M188 0q-41 0 -41 41v1352q0 41 41 41h385q36 0 45 -35l173 -545q36 -112 116 -401q3 -11 9 -15.5t12.5 0t9.5 15.5q76 275 113 393l174 553q9 35 45 35h387q41 0 41 -41v-1352q0 -41 -41 -41h-227q-41 0 -41 41v594q0 76 3 226t3 226q0 18 -11.5 21t-17.5 -16
q-28 -87 -66.5 -237t-58.5 -216l-184 -604q-9 -35 -45 -35h-183q-37 0 -45 35l-180 606q-62 208 -125 451q-3 12 -10 15.5t-12.5 -2.5t-5.5 -18q0 -75 2 -225t2 -225v-596q0 -41 -41 -41h-226z" />
    <glyph glyph-name="N" unicode="N" horiz-adv-x="1525" 
d="M451 1010q0 -74 1 -223t1 -226v-520q0 -41 -41 -41h-224q-41 0 -41 41v1352q0 41 41 41h273q35 0 49 -29l336 -586q19 -33 73 -125t86.5 -150t49.5 -91q4 -8 8.5 -10t8 1.5t3.5 12.5q0 84 -3 221.5t-3 198.5v516q0 41 41 41h227q41 0 41 -41v-1352q0 -41 -41 -41h-262
q-35 0 -49 29l-313 546q-150 264 -240 441q-6 12 -14 10t-8 -16z" />
    <glyph glyph-name="O" unicode="O" horiz-adv-x="1572" 
d="M784 -31q-321 0 -507.5 201.5t-186.5 548.5q0 346 186.5 546.5t507.5 200.5q323 0 511 -200t188 -547t-187.5 -548.5t-511.5 -201.5zM420 719q0 -246 95 -374t269 -128q177 0 273 128t96 374q0 242 -97 370t-272 128q-173 0 -268.5 -128t-95.5 -370z" />
    <glyph glyph-name="P" unicode="P" horiz-adv-x="1366" 
d="M188 0q-41 0 -41 41v1352q0 41 41 41h584q229 0 367.5 -122t138.5 -349q0 -218 -143.5 -344.5t-376.5 -126.5h-281q-12 0 -12 -13v-438q0 -41 -41 -41h-236zM465 727q0 -12 12 -12h225q115 0 185.5 59.5t70.5 175.5q0 118 -70 177t-186 59h-225q-12 0 -12 -12v-447z" />
    <glyph glyph-name="Q" unicode="Q" horiz-adv-x="1574" 
d="M717 -84q-122 43 -214.5 91.5t-172.5 116.5t-131.5 151.5t-80 195t-28.5 248.5q0 346 186.5 546.5t507.5 200.5q322 0 511.5 -202t189.5 -545q0 -132 -31 -249t-90 -210.5t-153.5 -154.5t-213.5 -74q-9 -1 -12.5 -7t0 -11.5t12.5 -6.5l437 -33q39 -3 39 -41v-233
q0 -22 -13 -31t-35 -2zM420 719q0 -246 95 -374t269 -128q177 0 273 128t96 374q0 242 -97 370t-272 128q-173 0 -268.5 -128t-95.5 -370z" />
    <glyph glyph-name="R" unicode="R" horiz-adv-x="1404" 
d="M188 0q-41 0 -41 41v1352q0 41 41 41h674q202 0 316 -95t114 -260q0 -140 -73.5 -242t-149.5 -116q-13 -3 -13 -13.5t13 -13.5q153 -35 188 -254l64 -397q3 -20 -7.5 -31.5t-31.5 -11.5h-244q-37 0 -43 39l-39 289q-15 113 -63 149.5t-174 36.5h-242q-12 0 -12 -12v-461
q0 -41 -41 -41h-236zM465 750q0 -13 12 -13h279q102 0 165.5 65.5t63.5 170.5q0 98 -61 155.5t-164 57.5h-283q-12 0 -12 -12v-424z" />
    <glyph glyph-name="S" unicode="S" horiz-adv-x="1374" 
d="M690 -31q-262 0 -419 99.5t-183 281.5q-3 20 7.5 31.5t31.5 11.5h235q35 0 46 -33q58 -140 286 -143q138 -1 209.5 46t71.5 138q0 75 -66 115.5t-190 67.5l-121 26q-44 10 -71 16.5t-72.5 19.5t-74.5 25t-68.5 32.5t-65.5 42.5t-54 54t-44 67.5t-26.5 82.5t-10.5 101
q0 188 155 300.5t424 112.5q250 0 399 -104.5t171 -292.5q6 -43 -39 -43h-224q-34 0 -43 37q-41 153 -270 153q-120 0 -187 -45t-67 -125q0 -42 19.5 -73.5t59.5 -53.5t81.5 -35.5t103.5 -27.5l140 -31q56 -12 91 -21t89 -27t88.5 -37t75 -50.5t63.5 -68t39 -89t16 -114.5
q0 -213 -159 -330t-447 -117z" />
    <glyph glyph-name="T" unicode="T" horiz-adv-x="1304" 
d="M109 1186q-41 0 -41 41v166q0 41 41 41h1087q41 0 41 -41v-166q0 -41 -41 -41h-369q-12 0 -12 -12v-1133q0 -41 -41 -41h-233q-41 0 -41 41v1133q0 12 -13 12h-378z" />
    <glyph glyph-name="U" unicode="U" horiz-adv-x="1464" 
d="M127 541v852q0 41 41 41h235q41 0 41 -41v-840q0 -160 71 -247t216 -87q289 0 289 336v838q0 41 41 41h235q41 0 41 -41v-852q0 -144 -45.5 -255t-127.5 -180t-191 -104t-242 -35q-127 0 -235.5 35.5t-191.5 104.5t-130 180t-47 254z" />
    <glyph glyph-name="V" unicode="V" horiz-adv-x="1486" 
d="M571 0q-36 0 -47 33l-463 1353q-7 22 2 35t31 13h254q36 0 45 -35l170 -563q26 -87 78.5 -278t67.5 -239q4 -13 11.5 -18t15.5 0t12 18q15 48 67 239t78 278l170 563q9 35 45 35h254q22 0 31 -13t2 -35l-463 -1353q-11 -33 -47 -33h-314z" />
    <glyph glyph-name="W" unicode="W" horiz-adv-x="2015" 
d="M461 0q-38 0 -47 35l-357 1354q-6 20 3.5 32.5t31.5 12.5h248q35 0 45 -37l139 -617q16 -72 76 -389q3 -16 10.5 -21.5t14.5 1t10 22.5q59 330 72 389l129 615q6 37 45 37h252q39 0 45 -37l129 -613q5 -24 36.5 -191t38.5 -200q3 -15 9.5 -21t13.5 -1t10 20q0 2 12.5 65
t32 159t35.5 167l135 615q10 37 45 37h248q22 0 31.5 -12.5t3.5 -32.5l-356 -1354q-9 -35 -46 -35h-286q-39 0 -45 37l-140 653q-4 18 -28.5 146t-32.5 170q-4 22 -17.5 22t-17.5 -20q-5 -21 -25.5 -142t-33.5 -178l-137 -651q-6 -37 -45 -37h-287z" />
    <glyph glyph-name="X" unicode="X" horiz-adv-x="1409" 
d="M104 0q-25 0 -32.5 14.5t6.5 34.5l440 682q6 9 0 17l-405 636q-13 20 -5 35t33 15h275q34 0 49 -29l27 -47l196 -350q7 -13 17 -13.5t16 11.5q26 52 60 112.5t75.5 132.5t61.5 107l26 47q14 29 49 29h275q25 0 33 -15t-5 -35l-405 -636q-6 -8 0 -17l440 -682
q14 -20 6.5 -34.5t-32.5 -14.5h-267q-34 0 -49 27l-35 57q-9 14 -229 397q-21 37 -41 0q-204 -357 -229 -397l-35 -57q-15 -27 -49 -27h-267z" />
    <glyph glyph-name="Y" unicode="Y" horiz-adv-x="1415" 
d="M74 1384q-12 20 -4 35t32 15h269q33 0 49 -29l90 -168q91 -169 180 -367q8 -17 19 -17t18 17q87 191 182 367l90 168q16 29 50 29h268q25 0 33 -15t-4 -35l-474 -804q-4 -8 -4 -15v-524q0 -41 -41 -41h-235q-41 0 -41 41v524q0 7 -4 15z" />
    <glyph glyph-name="Z" unicode="Z" horiz-adv-x="1312" 
d="M133 0q-41 0 -41 41l-2 182q0 26 19 51l712 879q11 14 8 21t-20 6q-181 -15 -479 -15h-164q-41 0 -41 41v187q0 41 41 41h1008q40 0 40 -41v-185q0 -27 -18 -51l-715 -876q-11 -12 -6.5 -20t21.5 -7q146 14 389 14h297q41 0 41 -41v-186q0 -41 -41 -41h-1049z" />
    <glyph glyph-name="bracketleft" unicode="[" horiz-adv-x="761" 
d="M176 -379q-41 0 -41 41v1880q0 41 41 41h490q41 0 41 -41v-160q0 -41 -41 -41h-240q-12 0 -12 -12v-1454q0 -12 12 -12h240q41 0 41 -41v-160q0 -41 -41 -41h-490z" />
    <glyph glyph-name="backslash" unicode="\" horiz-adv-x="835" 
d="M788 47q7 -22 -1.5 -34.5t-30.5 -12.5h-199q-36 0 -47 33l-461 1353q-7 22 2 35t31 13h201q36 0 47 -33z" />
    <glyph glyph-name="bracketright" unicode="]" horiz-adv-x="761" 
d="M627 -338q0 -41 -41 -41h-490q-41 0 -41 41v160q0 41 41 41h240q12 0 12 12v1454q0 12 -12 12h-240q-41 0 -41 41v160q0 41 41 41h490q41 0 41 -41v-1880z" />
    <glyph glyph-name="asciicircum" unicode="^" horiz-adv-x="937" 
d="M471 1214q-5 0 -8 -10q-9 -25 -105 -235l-49 -99q-15 -30 -47 -30h-174q-23 0 -31 13.5t2 35.5l258 514q15 31 48 31h210q33 0 48 -31l258 -514q10 -22 2 -35.5t-31 -13.5h-174q-33 0 -47 28l-51 99q-87 192 -101 237q-7 10 -8 10z" />
    <glyph glyph-name="underscore" unicode="_" horiz-adv-x="1001" 
d="M68 -356q-41 0 -41 41v135q0 41 41 41h868q41 0 41 -41v-135q0 -41 -41 -41h-868z" />
    <glyph glyph-name="grave" unicode="`" horiz-adv-x="700" 
d="M616 1221q-16 -40 -53 -25l-491 190q-38 15 -23 54l43 104q16 40 53 25l488 -199q37 -15 22 -53z" />
    <glyph glyph-name="a" unicode="a" horiz-adv-x="1200" 
d="M397 -33q-160 0 -256 75.5t-96 219.5q0 139 95.5 221t277.5 82h125q130 0 184.5 37t54.5 107q0 68 -48 114.5t-161 46.5q-161 0 -200 -100q-6 -20 -15.5 -28.5t-27.5 -8.5h-211q-21 0 -31.5 11.5t-7.5 31.5q32 146 160 230t338 84q234 0 362.5 -101.5t128.5 -283.5v-664
q0 -41 -41 -41h-199q-19 0 -30 11t-13 30l-4 98q0 10 -8 11t-12 -7q-124 -176 -365 -176zM340 279q0 -56 40.5 -88.5t111.5 -32.5q124 0 207 88t83 196v43q0 11 -8 12.5t-14 -8.5q-54 -98 -225 -98h-60q-61 0 -98 -29t-37 -83z" />
    <glyph glyph-name="b" unicode="b" horiz-adv-x="1316" 
d="M172 0q-41 0 -41 41v1384q0 41 41 41h211q41 0 41 -41v-489q0 -13 10 -15t17 9q53 73 136.5 116.5t180.5 43.5q91 0 174.5 -40t146.5 -111.5t100.5 -178t37.5 -230.5q0 -125 -37.5 -232t-100.5 -178.5t-146.5 -112t-174.5 -40.5q-97 0 -180.5 43.5t-136.5 116.5
q-7 11 -17 9t-10 -15l-6 -82q-3 -39 -43 -39h-203zM424 465q0 -127 70 -211t184 -84q115 0 184.5 96.5t69.5 261.5q0 166 -69.5 262.5t-184.5 96.5q-114 0 -184 -84.5t-70 -212.5v-125z" />
    <glyph glyph-name="c" unicode="c" horiz-adv-x="1181" 
d="M618 -33q-111 0 -206 36t-167.5 104t-113.5 175.5t-41 243.5q0 134 40 241.5t111.5 177.5t168.5 107.5t213 37.5q177 0 304.5 -83t162.5 -229q4 -21 -6 -33t-31 -12h-209q-33 0 -47 33q-43 100 -176 100q-113 0 -172.5 -85.5t-59.5 -248.5q0 -166 62 -254t172 -88
q67 0 115.5 32.5t68.5 90.5q12 35 45 35h207q21 0 31 -13t6 -34q-38 -162 -169.5 -248t-308.5 -86z" />
    <glyph glyph-name="d" unicode="d" horiz-adv-x="1316" 
d="M549 -33q-91 0 -174.5 40.5t-146.5 112t-100.5 178.5t-37.5 232q0 124 37.5 230.5t100.5 178t146.5 111.5t174.5 40q97 0 180.5 -43.5t136.5 -116.5q8 -11 17.5 -9t9.5 15v489q0 41 41 41h211q41 0 41 -41v-1384q0 -41 -41 -41h-203q-40 0 -43 39l-6 82q0 13 -9.5 15
t-17.5 -9q-53 -73 -136.5 -116.5t-180.5 -43.5zM385 528q0 -165 69.5 -261.5t184.5 -96.5q114 0 184 84t70 211v125q0 128 -70 212.5t-184 84.5q-115 0 -184.5 -96.5t-69.5 -262.5z" />
    <glyph glyph-name="e" unicode="e" horiz-adv-x="1224" 
d="M631 -33q-251 0 -396 147t-145 418q0 253 142.5 405.5t383.5 152.5q221 0 366.5 -150.5t145.5 -382.5q0 -16 -2 -45q0 -43 -41 -43h-704q-12 0 -12 -12q9 -126 80.5 -197.5t183.5 -71.5q155 0 209 97q18 30 49 30h170q22 0 32.5 -10.5t4.5 -28.5q-40 -139 -167 -224
t-300 -85zM373 655q-3 -12 10 -12h446q14 0 11 12q-14 99 -74.5 156t-153.5 57q-97 0 -161.5 -56t-77.5 -157z" />
    <glyph glyph-name="f" unicode="f" horiz-adv-x="878" 
d="M248 0q-41 0 -41 41v823q0 13 -12 13h-89q-40 0 -40 41v98q0 41 40 41h89q12 0 12 12v37q0 178 107 269t282 91q74 0 162 -16q37 -6 37 -45v-129q0 -43 -45 -37q-47 8 -95 8q-84 0 -122.5 -38t-38.5 -122v-18q0 -12 12 -12h248q41 0 41 -41v-98q0 -41 -41 -41h-240
q-12 0 -12 -13v-823q0 -41 -41 -41h-213z" />
    <glyph glyph-name="g" unicode="g" horiz-adv-x="1269" 
d="M614 389q-109 0 -198 25q-9 3 -15 0q-29 -11 -51 -37t-22 -55q0 -35 29.5 -59.5t82.5 -24.5h406q161 0 251.5 -77t90.5 -218q0 -169 -140.5 -253.5t-435.5 -84.5q-508 0 -508 239q0 54 29.5 96t93.5 80q8 5 8.5 11.5t-6.5 11.5q-106 64 -106 193q0 69 39.5 126.5
t111.5 94.5q18 9 0 20q-133 81 -133 266q0 136 90.5 222.5t294.5 128.5l623 129q20 5 32.5 -5t12.5 -32v-129q0 -43 -43 -37l-238 29q-10 2 -13.5 -7t7.5 -16q37 -23 63 -43.5t56 -54.5t45.5 -80.5t15.5 -104.5q0 -164 -126 -259t-347 -95zM301 -68q0 -118 305 -118
q318 0 318 125q0 40 -32.5 62t-90.5 22h-367q-69 0 -101 -28t-32 -63zM410 741q0 -71 53.5 -110t150.5 -39t151 39.5t54 109.5q0 71 -54 110.5t-151 39.5t-150.5 -39.5t-53.5 -110.5z" />
    <glyph glyph-name="h" unicode="h" horiz-adv-x="1308" 
d="M172 0q-41 0 -41 41v1384q0 41 41 41h211q41 0 41 -41v-507q0 -10 10.5 -12t16.5 7q57 84 145.5 130.5t200.5 46.5q162 0 271.5 -109t109.5 -299v-641q0 -41 -41 -41h-211q-41 0 -41 41v557q0 127 -57 194.5t-160 67.5q-115 0 -179.5 -82t-64.5 -225v-512q0 -41 -41 -41
h-211z" />
    <glyph glyph-name="i" unicode="i" horiz-adv-x="606" 
d="M156 1016q0 41 41 41h211q41 0 41 -41v-975q0 -41 -41 -41h-211q-41 0 -41 41v975zM131 1366q0 69 51 120.5t117 51.5q70 0 121 -50.5t51 -121.5q0 -69 -51.5 -118.5t-120.5 -49.5q-67 0 -117.5 50t-50.5 118z" />
    <glyph glyph-name="j" unicode="j" horiz-adv-x="671" 
d="M197 -391q-76 0 -164 18q-35 6 -35 45v129q0 42 45 39q37 -6 68 -6q60 0 85 31.5t25 107.5v1043q0 41 41 41h211q41 0 41 -41v-1077q0 -170 -83.5 -250t-233.5 -80zM197 1366q0 68 51.5 120t120.5 52t118.5 -50t49.5 -122q0 -70 -49.5 -119t-118.5 -49t-120.5 49.5
t-51.5 118.5z" />
    <glyph glyph-name="k" unicode="k" horiz-adv-x="1212" 
d="M172 0q-41 0 -41 41v1384q0 41 41 41h205q41 0 41 -41v-469q0 -126 -8 -348q0 -10 6 -12t14 8q75 108 170 207l213 223q23 23 51 23h234q26 0 32.5 -15.5t-12.5 -35.5l-149 -156q-20 -21 -110.5 -107.5t-117.5 -113.5q-8 -7 -5.5 -14.5t12.5 -8.5q95 -13 156.5 -63.5
t101.5 -147.5l143 -348q9 -22 0.5 -34.5t-31.5 -12.5h-217q-34 0 -47 33l-84 217q-63 164 -188 164h-23q-18 0 -29 -11l-106 -112q-6 -9 -6 -15v-235q0 -41 -41 -41h-205z" />
    <glyph glyph-name="l" unicode="l" horiz-adv-x="557" 
d="M131 1425q0 41 41 41h211q41 0 41 -41v-1384q0 -41 -41 -41h-211q-41 0 -41 41v1384z" />
    <glyph glyph-name="m" unicode="m" horiz-adv-x="1953" 
d="M172 0q-41 0 -41 41v975q0 41 41 41h205q38 0 41 -39l8 -105q1 -10 10 -11.5t15 7.5q57 86 145 133.5t192 47.5q98 0 179 -49.5t127 -129.5q13 -23 26 0q37 66 134 122.5t223 56.5q161 0 253.5 -99t92.5 -268v-682q0 -41 -41 -41h-211q-41 0 -41 41v565q0 118 -52 185
t-143 67q-98 0 -153.5 -82t-55.5 -225v-510q0 -41 -41 -41h-213q-41 0 -41 41v565q0 117 -52 184.5t-144 67.5q-96 0 -152.5 -79.5t-56.5 -223.5v-514q0 -41 -41 -41h-213z" />
    <glyph glyph-name="n" unicode="n" horiz-adv-x="1308" 
d="M172 0q-41 0 -41 41v975q0 41 41 41h205q19 0 30 -11t13 -30l4 -98q0 -10 10.5 -12t16.5 7q56 83 144.5 130t195.5 47q167 0 277 -109t110 -299v-641q0 -41 -41 -41h-211q-41 0 -41 41v557q0 127 -57 194.5t-160 67.5q-115 0 -179.5 -82t-64.5 -225v-512q0 -41 -41 -41
h-211z" />
    <glyph glyph-name="o" unicode="o" horiz-adv-x="1280" 
d="M641 -33q-118 0 -219.5 40.5t-175 113.5t-115 179t-41.5 232q0 248 155.5 403t395.5 155q239 0 394 -155t155 -403q0 -253 -155 -409t-394 -156zM385 532q0 -166 67 -254t189 -88q121 0 187.5 88.5t66.5 253.5q0 161 -67 247.5t-187 86.5q-122 0 -189 -86t-67 -248z" />
    <glyph glyph-name="p" unicode="p" horiz-adv-x="1316" 
d="M172 -410q-41 0 -41 41v1385q0 41 41 41h203q40 0 43 -39l6 -82q0 -13 10 -15t17 9q53 73 136.5 116.5t180.5 43.5q91 0 174.5 -40.5t146.5 -112.5t100.5 -179t37.5 -232q0 -124 -37.5 -230t-100.5 -177.5t-146.5 -111.5t-174.5 -40q-97 0 -180.5 43.5t-136.5 116.5
q-7 11 -17 9t-10 -15v-490q0 -41 -41 -41h-211zM424 467q0 -128 70 -212.5t184 -84.5q115 0 184.5 96t69.5 262q0 165 -69.5 262t-184.5 97q-114 0 -184 -84t-70 -211v-125z" />
    <glyph glyph-name="q" unicode="q" horiz-adv-x="1316" 
d="M893 121q0 13 -9.5 15t-17.5 -9q-53 -73 -136.5 -116.5t-180.5 -43.5q-91 0 -174.5 40t-146.5 111.5t-100.5 177.5t-37.5 230q0 125 37.5 232t100.5 179t146.5 112.5t174.5 40.5q97 0 180.5 -43.5t136.5 -116.5q8 -11 17.5 -9t9.5 15l6 82q3 39 43 39h203q41 0 41 -41
v-1385q0 -41 -41 -41h-211q-41 0 -41 41v490zM385 528q0 -166 69.5 -262t184.5 -96q114 0 184 84.5t70 212.5v125q0 127 -70 211t-184 84q-115 0 -184.5 -97t-69.5 -262z" />
    <glyph glyph-name="r" unicode="r" horiz-adv-x="923" 
d="M172 0q-41 0 -41 41v975q0 41 41 41h203q19 0 31 -11t12 -30l6 -180q0 -11 8 -11.5t12 9.5q18 41 34 70t45 62t65 54t91.5 36.5t125.5 18.5q43 0 43 -41v-166q0 -38 -41 -41q-173 -14 -270 -86q-113 -88 -113 -335v-365q0 -41 -41 -41h-211z" />
    <glyph glyph-name="s" unicode="s" horiz-adv-x="1126" 
d="M569 -33q-429 0 -493 303q-4 21 6 33t31 12h206q34 0 46 -34q47 -111 208 -111q90 0 142.5 32t52.5 87q0 49 -44 71.5t-146 42.5l-117 23q-75 14 -136.5 38t-117 63t-86.5 98.5t-31 134.5q0 151 123 240.5t340 89.5q199 0 323 -79t148 -235q3 -20 -7.5 -31.5t-31.5 -11.5
h-192q-34 0 -43 37q-34 117 -189 117q-85 0 -133.5 -31t-48.5 -86q0 -51 45.5 -79.5t148.5 -49.5l113 -23q38 -8 64 -14t68.5 -19.5t71.5 -28t63.5 -39.5t55.5 -54.5t35.5 -71.5t14.5 -92q0 -157 -130.5 -244.5t-359.5 -87.5z" />
    <glyph glyph-name="t" unicode="t" horiz-adv-x="880" 
d="M106 877q-40 0 -40 41v98q0 41 40 41h101q12 0 12 12v223q0 41 41 41h205q41 0 41 -41v-223q0 -12 12 -12h238q41 0 41 -41v-98q0 -41 -41 -41h-230q-12 0 -12 -13v-499q0 -86 30 -121t105 -35q45 0 103 12q45 9 45 -37v-127q0 -37 -35 -45q-98 -28 -189 -28
q-187 0 -270.5 79t-83.5 261v540q0 13 -12 13h-101z" />
    <glyph glyph-name="u" unicode="u" horiz-adv-x="1308" 
d="M1137 1057q41 0 41 -41v-975q0 -41 -41 -41h-205q-19 0 -30 11t-13 30l-4 98q0 7 -5 10t-11.5 1.5t-10.5 -7.5q-56 -83 -144.5 -129.5t-195.5 -46.5q-167 0 -277 109t-110 299v641q0 41 41 41h211q41 0 41 -41v-557q0 -127 57 -194.5t160 -67.5q115 0 179.5 82t64.5 225
v512q0 41 41 41h211z" />
    <glyph glyph-name="v" unicode="v" horiz-adv-x="1165" 
d="M444 0q-36 0 -47 33l-338 977q-7 22 2 34.5t31 12.5h230q36 0 45 -35l71 -236q69 -229 133 -487q3 -12 11.5 -12t11.5 12q61 243 135 487l72 236q9 35 45 35h229q22 0 31 -12.5t2 -34.5l-338 -977q-11 -33 -47 -33h-279z" />
    <glyph glyph-name="w" unicode="w" horiz-adv-x="1753" 
d="M418 0q-36 0 -45 33l-316 977q-6 22 3.5 34.5t31.5 12.5h230q36 0 45 -35l61 -205q13 -46 59 -225.5t56 -235.5q2 -11 8 -14.5t12 0.5t8 14q4 22 113 461l51 205q9 35 45 35h193q36 0 45 -35l53 -205q76 -292 107 -461q2 -10 8.5 -14.5t13 -0.5t8.5 17q15 99 119 459
l59 205q8 35 48 35h225q22 0 31.5 -12.5t3.5 -34.5l-314 -977q-9 -33 -45 -33h-231q-36 0 -45 35l-168 655q-3 11 -9 15.5t-11.5 0t-8.5 -15.5l-168 -655q-9 -35 -45 -35h-231z" />
    <glyph glyph-name="x" unicode="x" horiz-adv-x="1155" 
d="M102 0q-25 0 -31.5 13.5t7.5 35.5l328 483q6 8 0 17l-312 459q-14 20 -6 34.5t33 14.5h241q34 0 50 -27l22 -35q59 -92 129 -229q6 -12 14.5 -12t14.5 12q75 145 129 229l22 35q16 27 50 27h241q25 0 33 -14.5t-6 -34.5l-311 -459q-6 -9 0 -17l327 -483q14 -22 7.5 -35.5
t-31.5 -13.5h-236q-33 0 -49 27l-37 59q-105 172 -137 236q-6 12 -16.5 12t-16.5 -12q-32 -63 -137 -236l-37 -59q-16 -27 -49 -27h-236z" />
    <glyph glyph-name="y" unicode="y" horiz-adv-x="1161" 
d="M303 -397q-85 0 -182 20q-37 6 -37 45v131q0 43 45 37q47 -8 86 -8q68 0 107.5 28t62.5 95l16 45q4 8 0 16l-342 998q-7 22 2 34.5t31 12.5h230q39 0 47 -35l82 -285q19 -66 60.5 -234.5t57.5 -226.5q3 -11 9 -15.5t12.5 0t9.5 15.5q11 39 50.5 209t64.5 254l86 283
q9 35 45 35h223q22 0 31 -12.5t2 -34.5l-367 -1045q-67 -193 -172.5 -277.5t-259.5 -84.5z" />
    <glyph glyph-name="z" unicode="z" horiz-adv-x="1132" 
d="M137 0q-41 0 -41 41v92q0 26 19 51l520 643q7 10 3.5 17.5t-13.5 5.5q-86 -14 -312 -14h-145q-41 0 -41 41v139q0 41 41 41h805q41 0 41 -41v-113q0 -26 -19 -51l-487 -623q-5 -6 -1.5 -15.5t13.5 -8.5q114 16 289 16h182q41 0 41 -41v-139q0 -41 -41 -41h-854z" />
    <glyph glyph-name="braceleft" unicode="{" horiz-adv-x="796" 
d="M88 686q0 37 39 43q121 15 121 125v406q0 176 85 255.5t249 79.5q66 0 123 -8q38 -3 38 -43v-127q0 -42 -43 -39q-20 2 -49 2q-76 0 -104.5 -33.5t-28.5 -119.5v-436q0 -175 -188 -175q-10 0 -14.5 -6.5t-0.5 -13t15 -6.5q188 0 188 -176v-430q0 -87 28.5 -121.5
t104.5 -34.5q29 0 49 2q43 3 43 -39v-125q0 -39 -38 -45q-86 -8 -123 -8q-164 0 -249 80.5t-85 257.5v401q0 59 -30 88t-91 37q-39 6 -39 43v166z" />
    <glyph glyph-name="bar" unicode="|" horiz-adv-x="532" 
d="M186 -412q-41 0 -41 41v1962q0 41 41 41h160q41 0 41 -41v-1962q0 -41 -41 -41h-160z" />
    <glyph glyph-name="braceright" unicode="}" horiz-adv-x="796" 
d="M711 520q0 -37 -41 -43q-63 -7 -91 -37.5t-28 -87.5v-401q0 -179 -84.5 -258.5t-249.5 -79.5q-51 0 -123 10q-39 3 -39 43v125q0 42 43 39q18 -2 49 -2q77 0 106.5 35t29.5 121v430q0 89 45.5 132.5t140.5 43.5q11 0 15.5 6.5t0 13t-15.5 6.5q-186 0 -186 175v436
q0 84 -29.5 118.5t-106.5 34.5q-31 0 -49 -2q-43 -3 -43 39v127q0 40 39 43q60 8 123 8q165 0 249.5 -79t84.5 -256v-406q0 -109 121 -125q39 -6 39 -43v-166z" />
    <glyph glyph-name="asciitilde" unicode="~" horiz-adv-x="1140" 
d="M760 553q-46 0 -101 18.5t-97 41t-87.5 41t-73.5 18.5q-41 0 -63 -18.5t-33 -59.5q-9 -37 -43 -37h-125q-44 0 -41 43q12 143 83.5 226t199.5 83q54 0 129.5 -29.5t139.5 -59t91 -29.5q74 0 95 77q12 37 45 37h125q43 0 40 -45q-13 -141 -85 -224t-199 -83z" />
    <glyph glyph-name="exclamdown" unicode="&#xa1;" horiz-adv-x="565" 
d="M168 -248q-44 0 -41 43l45 887q3 39 41 39h141q38 0 41 -39l45 -887q3 -43 -41 -43h-231zM96 1032q0 77 54.5 132t130.5 55q77 0 132.5 -54.5t55.5 -132.5q0 -75 -55 -128.5t-133 -53.5q-76 0 -130.5 53.5t-54.5 128.5z" />
    <glyph glyph-name="cent" unicode="&#xa2;" horiz-adv-x="1181" 
d="M584 -238q-41 0 -41 41v156q0 11 -13 14q-197 28 -318.5 170t-121.5 383q0 240 119.5 384t320.5 173q13 3 13 15v147q0 41 41 41h49q41 0 41 -41v-145q0 -13 12 -13q154 -14 263 -95.5t141 -213.5q4 -21 -6 -33t-31 -12h-209q-33 0 -47 33q-29 67 -109 90q-14 4 -14 -10
v-635q0 -13 14 -10q90 26 117 112q12 35 47 35h207q46 0 37 -45q-36 -147 -147 -232.5t-263 -99.5q-12 -3 -12 -14v-154q0 -41 -41 -41h-49zM389 532q0 -253 139 -321q6 -3 10.5 0.5t4.5 9.5v619q0 6 -2.5 9t-5.5 1q-146 -56 -146 -318z" />
    <glyph glyph-name="sterling" unicode="&#xa3;" horiz-adv-x="1185" 
d="M92 0q-41 0 -41 41v164q0 41 41 41h55q13 0 13 12v322q0 12 -13 12h-55q-41 0 -41 41v108q0 41 41 41h55q13 0 13 13v206q0 226 126.5 346.5t358.5 120.5q213 0 335 -101.5t144 -297.5q1 -20 -10 -31.5t-31 -11.5h-215q-37 0 -43 39q-9 73 -53.5 114.5t-118.5 41.5
q-178 0 -178 -220v-206q0 -13 12 -13h424q41 0 41 -41v-108q0 -41 -41 -41h-424q-12 0 -12 -12v-322q0 -12 12 -12h603q40 0 40 -41v-164q0 -41 -40 -41h-998z" />
    <glyph glyph-name="currency" unicode="&#xa4;" horiz-adv-x="1132" 
d="M571 242q-137 0 -252 73q-11 5 -18 -2l-111 -114q-29 -33 -57 -2l-59 61q-26 28 0 57l108 113q8 8 2 16q-84 127 -84 281q0 156 84 283q6 8 -2 16l-108 113q-27 30 0 57l59 59q29 32 57 0l111 -114q7 -7 18 -2q115 73 252 73q138 0 250 -71q11 -6 19 2l108 112
q30 33 58 2l59 -61q27 -27 0 -57l-104 -111q-7 -10 -3 -16q84 -132 84 -285t-86 -283q-6 -8 2 -16l107 -111q27 -30 0 -57l-59 -59q-29 -32 -58 0l-108 112q-8 8 -17 2q-117 -71 -252 -71zM344 725q0 -106 64.5 -174t162.5 -68q99 0 162.5 67.5t63.5 174.5t-63.5 175.5
t-162.5 68.5t-163 -68.5t-64 -175.5z" />
    <glyph glyph-name="yen" unicode="&#xa5;" horiz-adv-x="1415" 
d="M1106 680q41 0 41 -41v-66q0 -41 -41 -41h-225q-13 0 -13 -12v-102q0 -12 13 -12h225q41 0 41 -41v-66q0 -41 -41 -41h-225q-13 0 -13 -12v-205q0 -41 -41 -41h-235q-41 0 -41 41v205q0 12 -12 12h-236q-41 0 -41 41v66q0 41 41 41h236q12 0 12 12v102q0 12 -12 12h-236
q-41 0 -41 41v66q0 41 41 41h168q15 0 8 14l-405 690q-12 20 -4 35t32 15h269q33 0 49 -29l90 -168q91 -169 180 -367q8 -17 19 -17t18 17q87 191 182 367l90 168q16 29 50 29h268q25 0 33 -15t-4 -35l-406 -690q-7 -14 8 -14h158z" />
    <glyph glyph-name="brokenbar" unicode="&#xa6;" horiz-adv-x="532" 
d="M186 815q-41 0 -41 41v735q0 41 41 41h160q41 0 41 -41v-735q0 -41 -41 -41h-160zM186 -418q-41 0 -41 41v735q0 41 41 41h160q41 0 41 -41v-735q0 -41 -41 -41h-160z" />
    <glyph glyph-name="section" unicode="&#xa7;" horiz-adv-x="1232" 
d="M621 -397q-185 0 -299 76t-138 202q-3 20 7.5 31.5t31.5 11.5h193q33 0 45 -35q17 -43 58.5 -66.5t101.5 -23.5q69 0 105 30.5t36 84.5q0 49 -29 84.5t-86 69.5l-268 163q-157 95 -234 186.5t-77 194.5q0 98 63 172t180 90q5 1 13 9q0 3 -7 10q-58 42 -96.5 109.5
t-38.5 150.5q0 100 58 171.5t154.5 106.5t219.5 35q181 0 297 -75.5t140 -202.5q3 -20 -7.5 -31.5t-31.5 -11.5h-195q-33 0 -45 37q-15 41 -56.5 64.5t-101.5 23.5q-70 0 -107.5 -31t-37.5 -86q0 -44 28.5 -80.5t90.5 -73.5l268 -163q77 -48 129.5 -87t96 -84.5t64.5 -94.5
t21 -105q0 -100 -63.5 -178t-183.5 -92q-9 -3 -13 -7q-3 -6 6 -12q58 -42 97 -110t39 -150q0 -142 -117 -227.5t-311 -85.5zM352 629q0 -51 30 -92t97 -82l203 -123q13 -8 39 -25t31 -20q7 -5 16 -2q115 51 115 157q0 94 -129 172l-209 129q-40 23 -62 39q-9 6 -18 0
q-113 -55 -113 -153z" />
    <glyph glyph-name="dieresis" unicode="&#xa8;" horiz-adv-x="714" 
d="M160 1212q-60 0 -104 43.5t-44 104.5t44 105t104 44t101.5 -43t41.5 -106t-41.5 -105.5t-101.5 -42.5zM410 1362q0 60 43 103.5t102 43.5q61 0 104 -42.5t43 -104.5q0 -63 -42.5 -105.5t-104.5 -42.5q-59 0 -102 43.5t-43 104.5z" />
    <glyph glyph-name="copyright" unicode="&#xa9;" horiz-adv-x="1699" 
d="M848 -31q-222 0 -396 95.5t-271 267t-97 389.5t97 390t271 268t396 96q223 0 398 -96t272.5 -268t97.5 -390q0 -217 -97.5 -389t-272.5 -267.5t-398 -95.5zM221 721q0 -274 176.5 -449.5t452.5 -175.5q136 0 253 46.5t199.5 128.5t129.5 198.5t47 251.5q0 275 -177 451
t-452 176q-182 0 -325.5 -80t-223.5 -223t-80 -324zM451 721q0 197 114.5 308.5t298.5 111.5q147 0 247.5 -69t123.5 -173q4 -20 -6 -31.5t-31 -11.5h-129q-33 0 -45 35q-38 90 -158 90q-96 0 -148 -67.5t-52 -188.5q0 -124 54 -192t152 -68q56 0 95 25t57 67q12 35 45 35
h127q21 0 31.5 -11.5t7.5 -31.5q-22 -108 -123 -177t-248 -69q-180 0 -296.5 109.5t-116.5 308.5z" />
    <glyph glyph-name="ordfeminine" unicode="&#xaa;" horiz-adv-x="1116" 
d="M45 993q0 212 115.5 347t277.5 135q85 0 157 -37.5t116 -100.5q7 -9 15.5 -7.5t8.5 13.5v62q0 41 41 41h168q41 0 41 -41v-825q0 -41 -41 -41h-162q-40 0 -43 39l-4 65q0 7 -4 10t-9.5 1.5t-10.5 -7.5q-44 -62 -116.5 -99.5t-156.5 -37.5q-162 0 -277.5 134t-115.5 349z
M299 993q0 -144 59 -226.5t158 -82.5q98 0 158.5 72.5t60.5 183.5v107q0 109 -60.5 181t-158.5 72q-99 0 -158 -83t-59 -224z" />
    <glyph glyph-name="guillemotleft" unicode="&#xab;" horiz-adv-x="1179" 
d="M285 549q-23 -11 0 -23l231 -127q29 -17 29 -49v-182q0 -25 -13.5 -33t-35.5 6l-334 232q-27 18 -27 49v231q0 31 27 49l334 232q22 14 35.5 6t13.5 -33v-184q0 -33 -29 -49zM664 373q-27 18 -27 49v231q0 31 27 49l333 232q22 15 36 6.5t14 -33.5v-184q0 -33 -29 -49
l-232 -125q-23 -11 0 -23l232 -127q29 -17 29 -49v-182q0 -25 -14 -33.5t-36 6.5z" />
    <glyph glyph-name="logicalnot" unicode="&#xac;" horiz-adv-x="1161" 
d="M94 874q0 41 41 41h891q41 0 41 -41v-509q0 -41 -41 -41h-186q-41 0 -41 41v294q0 13 -13 13h-651q-41 0 -41 41v161z" />
    <glyph glyph-name="uni00AD" unicode="&#xad;" horiz-adv-x="780" 
d="M129 453q-41 0 -41 41v161q0 41 41 41h524q41 0 41 -41v-161q0 -41 -41 -41h-524z" />
    <glyph glyph-name="registered" unicode="&#xae;" horiz-adv-x="1212" 
d="M606 442q-223 0 -376.5 148t-153.5 364q0 146 70.5 264.5t192 185t267.5 66.5q227 0 379 -149t152 -367q0 -142 -70 -260t-192 -185t-269 -67zM197 954q0 -169 117.5 -284t291.5 -115t292 113.5t118 285.5q0 175 -118 289.5t-292 114.5t-291.5 -115.5t-117.5 -288.5z
M438 696q-41 0 -41 41v447q0 41 41 41h219q83 0 128.5 -36t45.5 -99q0 -48 -24.5 -82.5t-48.5 -44.5q-8 -3 -8 -7.5t8 -7.5q48 -20 59 -90l19 -117q3 -20 -7 -32.5t-30 -12.5h-51q-41 0 -46 37l-12 78q-6 37 -23.5 49t-58.5 12h-67q-13 0 -13 -12v-123q0 -41 -41 -41h-49z
M528 985q0 -12 13 -12h77q38 0 59 20t21 54q0 32 -21 49.5t-59 17.5h-77q-13 0 -13 -12v-117z" />
    <glyph glyph-name="macron" unicode="&#xaf;" horiz-adv-x="710" 
d="M59 1223q-41 0 -41 41v114q0 41 41 41h592q41 0 41 -41v-114q0 -41 -41 -41h-592z" />
    <glyph glyph-name="degree" unicode="&#xb0;" horiz-adv-x="778" 
d="M389 858q-138 0 -225.5 84.5t-87.5 218.5q0 135 87.5 220t225.5 85t225.5 -85t87.5 -220q0 -134 -87.5 -218.5t-225.5 -84.5zM258 1161q0 -58 37 -95.5t94 -37.5t94 37.5t37 95.5t-37 95.5t-94 37.5t-94 -37.5t-37 -95.5z" />
    <glyph glyph-name="plusminus" unicode="&#xb1;" horiz-adv-x="1181" 
d="M498 381q-41 0 -41 41v242q0 12 -13 12h-309q-41 0 -41 41v166q0 41 41 41h309q13 0 13 12v242q0 41 41 41h186q41 0 41 -41v-242q0 -12 12 -12h310q40 0 40 -41v-166q0 -41 -40 -41h-310q-12 0 -12 -12v-242q0 -41 -41 -41h-186zM135 0q-41 0 -41 41v166q0 41 41 41h912
q40 0 40 -41v-166q0 -41 -40 -41h-912z" />
    <glyph glyph-name="uni00B2" unicode="&#xb2;" horiz-adv-x="786" 
d="M57 1229q0 33 27 51q86 56 131.5 86.5t104.5 73t88 69.5t58.5 60.5t40.5 62.5t11 60q0 51 -32 78.5t-89 27.5q-93 0 -121 -74q-15 -34 -47 -34h-114q-21 0 -32 11.5t-7 31.5q23 112 106 168.5t215 56.5q146 0 235.5 -69.5t88.5 -194.5q0 -39 -12 -76t-28.5 -66.5
t-50.5 -63t-60.5 -56.5t-77 -56.5t-82 -52.5t-91.5 -55q-6 -4 -6 -11t13 -4q66 7 186 7h160q41 0 41 -41v-89q0 -40 -41 -40h-574q-41 0 -41 40v99z" />
    <glyph glyph-name="uni00B3" unicode="&#xb3;" horiz-adv-x="817" 
d="M418 1065q-147 0 -241 66t-116 188q-4 20 6 31.5t31 11.5h121q36 0 45 -39q20 -96 146 -96q63 0 101 29.5t38 82.5q0 109 -143 109h-23q-41 0 -41 41v61q0 41 41 41h29q127 0 127 103q0 46 -32.5 71t-92.5 25q-99 0 -121 -72q-9 -37 -43 -37h-119q-21 0 -31.5 11.5
t-7.5 31.5q20 112 105.5 169t220.5 57q138 2 226.5 -59.5t88.5 -172.5q0 -71 -41 -119.5t-108 -60.5q-13 -3 -13 -4q0 -3 13 -6q83 -9 129.5 -62t46.5 -137q0 -118 -96 -191t-246 -73z" />
    <glyph glyph-name="acute" unicode="&#xb4;" horiz-adv-x="700" 
d="M139 1196q-37 -15 -53 25l-39 96q-15 38 23 53l489 197q39 15 53 -23l43 -104q15 -38 -24 -54z" />
    <glyph glyph-name="uni00B5" unicode="&#xb5;" horiz-adv-x="1396" 
d="M168 -377q-41 0 -41 41v1352q0 41 41 41h209q41 0 41 -41v-539q0 -132 66.5 -206t183.5 -74q111 0 175 74.5t64 205.5v539q0 41 41 41h209q41 0 41 -41v-711q0 -52 21 -75t65 -23h12q45 6 45 -37v-131q0 -39 -34 -45q-65 -12 -123 -12q-118 0 -193.5 50t-81.5 126l-2 18
q0 12 -6 12q-5 0 -8 -10q-21 -90 -96.5 -149.5t-184.5 -59.5q-101 0 -176 72q-9 9 -12 6q-6 -3 -6 -12l-17 -371q-2 -19 -13 -30t-30 -11h-190z" />
    <glyph glyph-name="paragraph" unicode="&#xb6;" horiz-adv-x="1282" 
d="M539 709q0 12 -13 12q-208 5 -326 94t-118 258q0 180 117.5 270.5t345.5 90.5h553q41 0 41 -41v-1352q0 -41 -41 -41h-148q-41 0 -41 41v1167q0 13 -12 13h-117q-12 0 -12 -13v-1167q0 -41 -41 -41h-147q-41 0 -41 41v668z" />
    <glyph glyph-name="periodcentered" unicode="&#xb7;" horiz-adv-x="565" 
d="M281 547q-76 0 -130.5 54.5t-54.5 131.5q0 75 54.5 128.5t130.5 53.5q78 0 133 -53.5t55 -128.5q0 -77 -55.5 -131.5t-132.5 -54.5z" />
    <glyph glyph-name="cedilla" unicode="&#xb8;" horiz-adv-x="815" 
d="M362 -440q-72 0 -139 20q-33 9 -33 45v33q0 45 46 35q52 -10 81 -10q103 0 103 71q0 34 -34 50t-85 16q-43 -3 -43 37v6q0 30 31 49q49 28 49 88q0 41 41 41h57q41 0 41 -41q0 -29 -19 -52t-48 -34q-11 -7 -11 -10q0 -4 13 -4h16q84 0 140.5 -43t56.5 -109
q0 -90 -76.5 -139t-186.5 -49z" />
    <glyph glyph-name="uni00B9" unicode="&#xb9;" horiz-adv-x="555" 
d="M262 1706q-5 0 -10 -8q-49 -57 -148 -66q-43 -3 -43 39v105q0 40 41 43q130 9 185 88q17 28 49 28h96q41 0 41 -41v-764q0 -40 -41 -40h-125q-41 0 -41 40v564q0 12 -4 12z" />
    <glyph glyph-name="ordmasculine" unicode="&#xba;" horiz-adv-x="1126" 
d="M563 510q-207 0 -340 134t-133 353q0 213 133.5 346.5t339.5 133.5t339.5 -133.5t133.5 -346.5q0 -219 -133 -353t-340 -134zM344 997q0 -144 57 -219.5t162 -75.5q103 0 161 76.5t58 218.5q0 138 -58 212.5t-161 74.5q-105 0 -162 -74t-57 -213z" />
    <glyph glyph-name="guillemotright" unicode="&#xbb;" horiz-adv-x="1155" 
d="M885 549l-232 125q-28 16 -28 49v184q0 25 13.5 33t35.5 -6l334 -232q26 -17 26 -49v-231q0 -32 -26 -49l-334 -232q-22 -14 -35.5 -6t-13.5 33v182q0 32 28 49l232 127q23 12 0 23zM184 141q-22 -14 -35.5 -6t-13.5 33v182q0 32 29 49l231 127q23 12 0 23l-231 125
q-29 16 -29 49v184q0 25 13.5 33t35.5 -6l334 -232q27 -18 27 -49v-231q0 -31 -27 -49z" />
    <glyph glyph-name="onequarter" unicode="&#xbc;" horiz-adv-x="1562" 
d="M262 1204q-5 0 -10 -8q-49 -57 -148 -66q-43 -3 -43 39v105q0 40 41 43q130 9 185 88q17 29 49 29h96q41 0 41 -41v-764q0 -41 -41 -41h-125q-41 0 -41 41v563q0 12 -4 12zM317 0q-23 0 -31 13.5t3 35.5l723 1356q16 29 49 29h98q23 0 31.5 -14t-2.5 -36l-723 -1355
q-16 -29 -49 -29h-99zM815 182q-41 0 -41 41v125q0 26 19 51l354 426q17 23 51 23h154q41 0 41 -41v-455q0 -12 12 -12h59q41 0 41 -41v-76q0 -41 -41 -41h-59q-12 0 -12 -12v-127q0 -41 -41 -41h-125q-41 0 -41 41v127q0 12 -12 12h-359zM950 354q-4 -6 -2 -10t10 -4h224
q12 0 12 12v305q0 13 -4 13q-7 0 -10 -11q-5 -11 -12 -23t-13.5 -22.5t-17 -25.5t-17 -24t-21 -27t-20.5 -26t-22.5 -28.5t-22.5 -27.5z" />
    <glyph glyph-name="onehalf" unicode="&#xbd;" horiz-adv-x="1644" 
d="M262 1204q-5 0 -10 -8q-49 -57 -148 -66q-43 -3 -43 39v105q0 40 41 43q130 9 185 88q17 29 49 29h96q41 0 41 -41v-764q0 -41 -41 -41h-125q-41 0 -41 41v563q0 12 -4 12zM328 0q-23 0 -31 13.5t2 35.5l723 1356q16 29 49 29h98q23 0 31.5 -14t-2.5 -36l-723 -1355
q-16 -29 -49 -29h-98zM958 0q-40 0 -40 41v98q0 34 26 51q86 56 131.5 86.5t104.5 73t88 69.5t58.5 60.5t40.5 62.5t11 60q0 51 -32 79t-89 28q-92 0 -120 -74q-15 -35 -47 -35h-115q-21 0 -32 11.5t-7 31.5q23 112 106 168.5t215 56.5q146 0 235.5 -69.5t88.5 -194.5
q0 -39 -12 -76t-28.5 -66.5t-50 -63t-60.5 -56.5t-76.5 -56t-81.5 -53t-92 -55q-6 -4 -6 -10q0 -7 12 -4q57 6 186 6h160q41 0 41 -41v-88q0 -41 -41 -41h-574z" />
    <glyph glyph-name="threequarters" unicode="&#xbe;" horiz-adv-x="1792" 
d="M418 571q-147 0 -241 66t-116 188q-4 20 6 31.5t31 11.5h121q36 0 45 -39q20 -96 146 -96q63 0 101 30t38 83q0 108 -143 108h-23q-41 0 -41 41v62q0 41 41 41h29q127 0 127 102q0 46 -32.5 71t-92.5 25q-100 0 -121 -71q-9 -37 -43 -37h-119q-21 0 -31.5 11.5t-7.5 31.5
q20 112 105.5 168.5t220.5 56.5q138 2 226.5 -59t88.5 -172q0 -71 -41 -120t-108 -61q-13 -3 -13 -4q0 -3 13 -6q83 -9 129.5 -61.5t46.5 -136.5q0 -118 -96 -191.5t-246 -73.5zM532 0q-23 0 -31 13.5t3 35.5l723 1356q16 29 49 29h98q23 0 31.5 -14t-2.5 -36l-723 -1355
q-16 -29 -49 -29h-99zM1044 182q-40 0 -40 41v125q0 27 18 51l354 426q17 23 51 23h154q41 0 41 -41v-455q0 -12 12 -12h60q41 0 41 -41v-76q0 -41 -41 -41h-60q-12 0 -12 -12v-127q0 -41 -41 -41h-125q-41 0 -41 41v127q0 12 -12 12h-359zM1180 354q-4 -6 -2 -10t10 -4h223
q12 0 12 12v305q0 13 -4 13q-7 0 -10 -11q-25 -55 -132 -188q-9 -11 -13 -16z" />
    <glyph glyph-name="questiondown" unicode="&#xbf;" horiz-adv-x="1122" 
d="M727 727q41 0 41 -43q-2 -95 -18.5 -153.5t-54 -103.5t-111.5 -99q-77 -58 -112 -103.5t-36 -107.5q-3 -74 45 -118t131 -44q102 0 146.5 49t52.5 158q3 41 43 41h213q41 0 41 -43q-23 -451 -504 -451q-212 0 -346.5 100.5t-134.5 284.5q0 204 201 357q69 52 97 79
t45 63.5t21 92.5q3 41 43 41h197zM428 1026q0 77 55.5 131.5t132.5 54.5q76 0 130.5 -54.5t54.5 -131.5q0 -75 -54.5 -128.5t-130.5 -53.5q-78 0 -133 53.5t-55 128.5z" />
    <glyph glyph-name="Agrave" unicode="&#xc0;" horiz-adv-x="1507" 
d="M379 33q-9 -33 -45 -33h-240q-22 0 -31 12.5t-2 34.5l480 1354q11 33 47 33h317q36 0 47 -33l494 -1354q7 -22 -2 -34.5t-31 -12.5h-252q-34 0 -45 33l-96 295q-2 10 -14 10h-519q-11 0 -14 -10zM463 1741q-38 15 -23 53l43 104q16 40 54 25l487 -199q37 -15 23 -51
l-39 -98q-16 -40 -54 -25zM559 594q-3 -14 10 -14h355q13 0 10 14l-74 225q-74 229 -100 346q-3 13 -14.5 13t-14.5 -13q-24 -111 -102 -354z" />
    <glyph glyph-name="Aacute" unicode="&#xc1;" horiz-adv-x="1507" 
d="M379 33q-9 -33 -45 -33h-240q-22 0 -31 12.5t-2 34.5l480 1354q11 33 47 33h317q36 0 47 -33l494 -1354q7 -22 -2 -34.5t-31 -12.5h-252q-34 0 -45 33l-96 295q-2 10 -14 10h-519q-11 0 -14 -10zM512 1671q-15 38 23 53l487 197q39 16 55 -23l43 -104q15 -37 -24 -53
l-492 -191q-37 -15 -53 25zM559 594q-3 -14 10 -14h355q13 0 10 14l-74 225q-74 229 -100 346q-3 13 -14.5 13t-14.5 -13q-24 -111 -102 -354z" />
    <glyph glyph-name="Acircumflex" unicode="&#xc2;" horiz-adv-x="1507" 
d="M379 33q-9 -33 -45 -33h-240q-22 0 -31 12.5t-2 34.5l480 1354q11 33 47 33h317q36 0 47 -33l494 -1354q7 -22 -2 -34.5t-31 -12.5h-252q-34 0 -45 33l-96 295q-2 10 -14 10h-519q-11 0 -14 -10zM446 1536q-26 0 -32.5 14.5t8.5 34.5l170 221q19 25 49 25h225
q30 0 49 -25l170 -221q15 -20 8.5 -34.5t-32.5 -14.5h-143q-31 0 -50 25l-106 129q-3 4 -8.5 4t-8.5 -4l-106 -129q-19 -25 -51 -25h-142zM559 594q-3 -14 10 -14h355q13 0 10 14l-74 225q-74 229 -100 346q-3 13 -14.5 13t-14.5 -13q-24 -111 -102 -354z" />
    <glyph glyph-name="Atilde" unicode="&#xc3;" horiz-adv-x="1507" 
d="M379 33q-9 -33 -45 -33h-240q-22 0 -31 12.5t-2 34.5l480 1354q11 33 47 33h317q36 0 47 -33l494 -1354q7 -22 -2 -34.5t-31 -12.5h-252q-34 0 -45 33l-96 295q-2 10 -14 10h-519q-11 0 -14 -10zM430 1536q-40 0 -43 39q-6 105 53 169t158 64q65 0 156 -39
q58 -27 81.5 -33.5t47.5 -6.5q44 0 53 38q5 22 13 31.5t26 9.5h102q40 0 43 -39q6 -105 -52 -169t-157 -64q-59 0 -157 39q-94 41 -129 41q-48 0 -54 -39q-5 -22 -13.5 -31.5t-27.5 -9.5h-100zM559 594q-3 -14 10 -14h355q13 0 10 14l-74 225q-74 229 -100 346
q-3 13 -14.5 13t-14.5 -13q-24 -111 -102 -354z" />
    <glyph glyph-name="Adieresis" unicode="&#xc4;" horiz-adv-x="1507" 
d="M379 33q-9 -33 -45 -33h-240q-22 0 -31 12.5t-2 34.5l480 1354q11 33 47 33h317q36 0 47 -33l494 -1354q7 -22 -2 -34.5t-31 -12.5h-252q-34 0 -45 33l-96 295q-2 10 -14 10h-519q-11 0 -14 -10zM410 1681q0 62 43 106t104 44q59 0 101 -43.5t42 -106.5q0 -61 -42 -104
t-101 -43q-61 0 -104 43.5t-43 103.5zM559 594q-3 -14 10 -14h355q13 0 10 14l-74 225q-74 229 -100 346q-3 13 -14.5 13t-14.5 -13q-24 -111 -102 -354zM807 1683q0 61 43 105.5t102 44.5q61 0 103.5 -43.5t42.5 -106.5t-42 -105t-104 -42q-59 0 -102 43t-43 104z" />
    <glyph glyph-name="Aring" unicode="&#xc5;" horiz-adv-x="1507" 
d="M379 33q-9 -33 -45 -33h-240q-22 0 -31 12.5t-2 34.5l459 1299q3 11 -2 18q-59 69 -59 170q0 121 81.5 194.5t213.5 73.5t213.5 -73.5t81.5 -194.5q0 -109 -70 -182q-5 -5 -2 -17l469 -1288q7 -22 -2 -34.5t-31 -12.5h-252q-34 0 -45 33l-96 295q-2 10 -14 10h-519
q-11 0 -14 -10zM559 594q-3 -14 10 -14h355q13 0 10 14l-74 225q-74 229 -100 346q-3 13 -14.5 13t-14.5 -13q-24 -111 -102 -354zM639 1534q0 -44 32 -72t83 -28q52 0 85 28t33 72q0 45 -32.5 72.5t-85.5 27.5q-51 0 -83 -27.5t-32 -72.5z" />
    <glyph glyph-name="AE" unicode="&#xc6;" horiz-adv-x="2115" 
d="M1161 0q-34 0 -45 33l-96 295q-2 10 -14 10h-519q-11 0 -14 -10l-94 -295q-9 -33 -45 -33h-240q-22 0 -31 12.5t-2 34.5l480 1354q11 33 47 33h1075q41 0 41 -41v-166q0 -41 -41 -41h-619q-14 0 -10 -15l111 -303q3 -10 14 -10h647q41 0 41 -41v-158q0 -41 -41 -41h-555
q-11 0 -8 -14l125 -346q2 -10 14 -10h643q41 0 41 -41v-166q0 -41 -41 -41h-864zM559 594q-3 -14 10 -14h355q13 0 10 14l-74 225q-74 229 -100 346q-3 13 -14.5 13t-14.5 -13q-24 -111 -102 -354z" />
    <glyph glyph-name="Ccedilla" unicode="&#xc7;" horiz-adv-x="1509" 
d="M725 -440q-72 0 -139 20q-33 9 -33 45v33q0 44 45 35q52 -10 82 -10q102 0 102 71q0 34 -33.5 50t-84.5 16q-43 -3 -43 37v6q0 31 30 49q25 17 41 45q3 13 -10 16q-280 29 -436 226t-156 520q0 351 183.5 549t506.5 198q235 0 396.5 -105t212.5 -292q6 -21 -4.5 -33
t-32.5 -12h-248q-33 0 -47 33q-31 77 -101 118.5t-168 41.5q-176 0 -272 -131.5t-96 -366.5t96.5 -368.5t267.5 -133.5q123 0 198.5 56t98.5 163q9 37 43 37h244q21 0 31.5 -11.5t7.5 -31.5q-34 -195 -182 -319.5t-381 -141.5q-10 0 -15 -8q-17 -33 -57 -47q-10 -7 -10 -10
q0 -4 12 -4h17q84 0 140 -43t56 -109q0 -90 -76 -139t-186 -49z" />
    <glyph glyph-name="Egrave" unicode="&#xc8;" horiz-adv-x="1288" 
d="M188 0q-41 0 -41 41v1352q0 41 41 41h967q41 0 41 -41v-166q0 -41 -41 -41h-678q-12 0 -12 -12v-304q0 -12 12 -12h602q41 0 41 -41v-158q0 -41 -41 -41h-602q-12 0 -12 -12v-346q0 -12 12 -12h676q41 0 41 -41v-166q0 -41 -41 -41h-965zM381 1741q-38 15 -23 53l43 104
q16 40 54 25l487 -199q37 -15 23 -51l-39 -98q-16 -40 -54 -25z" />
    <glyph glyph-name="Eacute" unicode="&#xc9;" horiz-adv-x="1288" 
d="M188 0q-41 0 -41 41v1352q0 41 41 41h967q41 0 41 -41v-166q0 -41 -41 -41h-678q-12 0 -12 -12v-304q0 -12 12 -12h602q41 0 41 -41v-158q0 -41 -41 -41h-602q-12 0 -12 -12v-346q0 -12 12 -12h676q41 0 41 -41v-166q0 -41 -41 -41h-965zM430 1671q-15 38 23 53l487 197
q39 16 55 -23l43 -104q15 -37 -24 -53l-492 -191q-37 -15 -53 25z" />
    <glyph glyph-name="Ecircumflex" unicode="&#xca;" horiz-adv-x="1288" 
d="M188 0q-41 0 -41 41v1352q0 41 41 41h967q41 0 41 -41v-166q0 -41 -41 -41h-678q-12 0 -12 -12v-304q0 -12 12 -12h602q41 0 41 -41v-158q0 -41 -41 -41h-602q-12 0 -12 -12v-346q0 -12 12 -12h676q41 0 41 -41v-166q0 -41 -41 -41h-965zM365 1536q-26 0 -33 14.5t8 34.5
l170 221q19 25 49 25h225q31 0 50 -25l170 -221q15 -20 8 -34.5t-33 -14.5h-143q-31 0 -50 25l-106 129q-3 4 -8 4t-8 -4l-107 -129q-19 -25 -51 -25h-141z" />
    <glyph glyph-name="Edieresis" unicode="&#xcb;" horiz-adv-x="1288" 
d="M188 0q-41 0 -41 41v1352q0 41 41 41h967q41 0 41 -41v-166q0 -41 -41 -41h-678q-12 0 -12 -12v-304q0 -12 12 -12h602q41 0 41 -41v-158q0 -41 -41 -41h-602q-12 0 -12 -12v-346q0 -12 12 -12h676q41 0 41 -41v-166q0 -41 -41 -41h-965zM328 1681q0 62 43 106t104 44
q59 0 101 -43.5t42 -106.5q0 -61 -42 -104t-101 -43q-61 0 -104 43.5t-43 103.5zM725 1683q0 61 43 105.5t102 44.5q61 0 103.5 -43.5t42.5 -106.5t-42 -105t-104 -42q-59 0 -102 43t-43 104z" />
    <glyph glyph-name="Igrave" unicode="&#xcc;" horiz-adv-x="612" 
d="M147 1393q0 41 41 41h236q41 0 41 -41v-1352q0 -41 -41 -41h-236q-41 0 -41 41v1352zM14 1741q-37 15 -22 53l43 104q16 40 53 25l487 -199q37 -15 23 -51l-39 -98q-16 -40 -53 -25z" />
    <glyph glyph-name="Iacute" unicode="&#xcd;" horiz-adv-x="612" 
d="M147 1393q0 41 41 41h236q41 0 41 -41v-1352q0 -41 -41 -41h-236q-41 0 -41 41v1352zM63 1671q-15 38 23 53l487 197q40 16 56 -23l43 -104q15 -37 -25 -53l-491 -191q-38 -15 -54 25z" />
    <glyph glyph-name="Icircumflex" unicode="&#xce;" horiz-adv-x="612" 
d="M147 1393q0 41 41 41h236q41 0 41 -41v-1352q0 -41 -41 -41h-236q-41 0 -41 41v1352zM-2 1536q-26 0 -33 14.5t8 34.5l170 221q19 25 50 25h225q30 0 49 -25l170 -221q15 -20 8 -34.5t-33 -14.5h-143q-30 0 -49 25l-107 129q-3 4 -8 4t-8 -4l-107 -129q-19 -25 -51 -25
h-141z" />
    <glyph glyph-name="Idieresis" unicode="&#xcf;" horiz-adv-x="612" 
d="M147 1393q0 41 41 41h236q41 0 41 -41v-1352q0 -41 -41 -41h-236q-41 0 -41 41v1352zM-39 1681q0 62 43.5 106t104.5 44q59 0 101 -43.5t42 -106.5q0 -61 -42 -104t-101 -43q-61 0 -104.5 43.5t-43.5 103.5zM358 1683q0 61 43.5 105.5t102.5 44.5q61 0 103 -43.5
t42 -106.5t-41.5 -105t-103.5 -42q-59 0 -102.5 43t-43.5 104z" />
    <glyph glyph-name="Eth" unicode="&#xd0;" horiz-adv-x="1536" 
d="M35 788q0 41 41 41h102q12 0 12 13v551q0 41 41 41h514q148 0 273 -43.5t222 -129t151.5 -225t54.5 -319.5q0 -151 -36 -272.5t-99.5 -203.5t-152.5 -137t-192 -79.5t-221 -24.5h-514q-41 0 -41 41v616q0 13 -12 13h-102q-41 0 -41 41v77zM508 260q0 -12 12 -12h215
q172 0 277.5 117.5t105.5 351.5q0 241 -105.5 355t-277.5 114h-215q-12 0 -12 -12v-332q0 -13 12 -13h277q41 0 41 -41v-77q0 -41 -41 -41h-277q-12 0 -12 -13v-397z" />
    <glyph glyph-name="Ntilde" unicode="&#xd1;" horiz-adv-x="1525" 
d="M451 1010q0 -74 1 -223t1 -226v-520q0 -41 -41 -41h-224q-41 0 -41 41v1352q0 41 41 41h273q35 0 49 -29l336 -586q19 -33 73 -125t86.5 -150t49.5 -91q4 -8 8.5 -10t8 1.5t3.5 12.5q0 84 -3 221.5t-3 198.5v516q0 41 41 41h227q41 0 41 -41v-1352q0 -41 -41 -41h-262
q-35 0 -49 29l-313 546q-150 264 -240 441q-6 12 -14 10t-8 -16zM467 1536q-40 0 -43 39q-6 105 53 169t158 64q65 0 156 -39q58 -27 81.5 -33.5t47.5 -6.5q44 0 53 38q5 22 13 31.5t26 9.5h102q40 0 43 -39q6 -105 -52 -169t-157 -64q-59 0 -157 39q-94 41 -129 41
q-48 0 -54 -39q-5 -22 -13.5 -31.5t-27.5 -9.5h-100z" />
    <glyph glyph-name="Ograve" unicode="&#xd2;" horiz-adv-x="1572" 
d="M784 -31q-321 0 -507.5 201.5t-186.5 548.5q0 346 186.5 546.5t507.5 200.5q323 0 511 -200t188 -547t-187.5 -548.5t-511.5 -201.5zM420 719q0 -246 95 -374t269 -128q177 0 273 128t96 374q0 242 -97 370t-272 128q-173 0 -268.5 -128t-95.5 -370zM500 1741
q-38 15 -23 53l43 104q16 40 53 25l488 -199q37 -15 22 -51l-39 -98q-16 -40 -53 -25z" />
    <glyph glyph-name="Oacute" unicode="&#xd3;" horiz-adv-x="1572" 
d="M784 -31q-321 0 -507.5 201.5t-186.5 548.5q0 346 186.5 546.5t507.5 200.5q323 0 511 -200t188 -547t-187.5 -548.5t-511.5 -201.5zM420 719q0 -246 95 -374t269 -128q177 0 273 128t96 374q0 242 -97 370t-272 128q-173 0 -268.5 -128t-95.5 -370zM549 1671
q-15 38 22 53l488 197q39 16 55 -23l43 -104q15 -37 -24 -53l-492 -191q-37 -15 -53 25z" />
    <glyph glyph-name="Ocircumflex" unicode="&#xd4;" horiz-adv-x="1572" 
d="M784 -31q-321 0 -507.5 201.5t-186.5 548.5q0 346 186.5 546.5t507.5 200.5q323 0 511 -200t188 -547t-187.5 -548.5t-511.5 -201.5zM420 719q0 -246 95 -374t269 -128q177 0 273 128t96 374q0 242 -97 370t-272 128q-173 0 -268.5 -128t-95.5 -370zM483 1536
q-26 0 -32.5 14.5t8.5 34.5l170 221q19 25 49 25h225q30 0 49 -25l170 -221q15 -20 8.5 -34.5t-32.5 -14.5h-144q-30 0 -49 25l-106 129q-3 4 -8.5 4t-8.5 -4l-106 -129q-19 -25 -51 -25h-142z" />
    <glyph glyph-name="Odieresis" unicode="&#xd6;" horiz-adv-x="1572" 
d="M784 -31q-321 0 -507.5 201.5t-186.5 548.5q0 346 186.5 546.5t507.5 200.5q323 0 511 -200t188 -547t-187.5 -548.5t-511.5 -201.5zM420 719q0 -246 95 -374t269 -128q177 0 273 128t96 374q0 242 -97 370t-272 128q-173 0 -268.5 -128t-95.5 -370zM446 1681
q0 62 43.5 106t104.5 44q59 0 101 -43.5t42 -106.5q0 -61 -42 -104t-101 -43q-61 0 -104.5 43.5t-43.5 103.5zM844 1683q0 61 43 105.5t102 44.5q61 0 103.5 -43.5t42.5 -106.5t-42 -105t-104 -42q-59 0 -102 43t-43 104z" />
    <glyph glyph-name="multiply" unicode="&#xd7;" horiz-adv-x="1140" 
d="M993 1036q29 -28 0 -57l-239 -240q-8 -8 0 -16l239 -240q29 -29 0 -57l-116 -117q-29 -29 -58 0l-239 240q-3 3 -8.5 3t-8.5 -3l-241 -240q-29 -29 -58 0l-117 117q-29 28 0 57l240 240q8 8 0 16l-240 240q-29 29 0 57l117 117q29 29 58 0l241 -240q3 -3 8.5 -3t8.5 3
l239 240q29 29 58 0z" />
    <glyph glyph-name="Oslash" unicode="&#xd8;" horiz-adv-x="1632" 
d="M121 23q-31 31 -2 59l131 141q7 10 2 17q-133 193 -133 481q0 346 186.5 546.5t507.5 200.5q273 0 453 -145q3 -5 8 -5t8 5l113 121q28 31 59 4l57 -53q31 -31 2 -60l-122 -133q-6 -10 -2 -16q122 -185 122 -465q0 -347 -187 -548.5t-511 -201.5q-256 0 -434 133
q-7 10 -17 0l-124 -133q-13 -15 -30 -15.5t-30 13.5zM449 721q0 -139 30 -234q1 -7 7 -8t10 4l571 613q8 8 0 16q-93 107 -254 107q-173 0 -268.5 -128t-95.5 -370zM573 330q-9 -8 0 -17q94 -94 240 -94q177 0 273 128t96 374q0 118 -25 213q-2 6 -6.5 8t-9.5 -4z" />
    <glyph glyph-name="Ugrave" unicode="&#xd9;" horiz-adv-x="1464" 
d="M127 541v852q0 41 41 41h235q41 0 41 -41v-840q0 -160 71 -247t216 -87q289 0 289 336v838q0 41 41 41h235q41 0 41 -41v-852q0 -144 -45.5 -255t-127.5 -180t-191 -104t-242 -35q-127 0 -235.5 35.5t-191.5 104.5t-130 180t-47 254zM446 1741q-37 15 -22 53l43 104
q16 40 53 25l488 -199q37 -15 22 -51l-39 -98q-16 -40 -53 -25z" />
    <glyph glyph-name="Uacute" unicode="&#xda;" horiz-adv-x="1464" 
d="M127 541v852q0 41 41 41h235q41 0 41 -41v-840q0 -160 71 -247t216 -87q289 0 289 336v838q0 41 41 41h235q41 0 41 -41v-852q0 -144 -45.5 -255t-127.5 -180t-191 -104t-242 -35q-127 0 -235.5 35.5t-191.5 104.5t-130 180t-47 254zM496 1671q-15 38 22 53l488 197
q39 16 55 -23l43 -104q15 -37 -25 -53l-491 -191q-37 -15 -53 25z" />
    <glyph glyph-name="Ucircumflex" unicode="&#xdb;" horiz-adv-x="1464" 
d="M127 541v852q0 41 41 41h235q41 0 41 -41v-840q0 -160 71 -247t216 -87q289 0 289 336v838q0 41 41 41h235q41 0 41 -41v-852q0 -144 -45.5 -255t-127.5 -180t-191 -104t-242 -35q-127 0 -235.5 35.5t-191.5 104.5t-130 180t-47 254zM430 1536q-26 0 -32.5 14.5t8.5 34.5
l169 221q19 25 50 25h225q30 0 49 -25l170 -221q15 -20 8 -34.5t-33 -14.5h-143q-30 0 -49 25l-107 129q-3 4 -8 4t-8 -4l-106 -129q-19 -25 -52 -25h-141z" />
    <glyph glyph-name="Udieresis" unicode="&#xdc;" horiz-adv-x="1464" 
d="M127 541v852q0 41 41 41h235q41 0 41 -41v-840q0 -160 71 -247t216 -87q289 0 289 336v838q0 41 41 41h235q41 0 41 -41v-852q0 -144 -45.5 -255t-127.5 -180t-191 -104t-242 -35q-127 0 -235.5 35.5t-191.5 104.5t-130 180t-47 254zM393 1681q0 62 43.5 106t104.5 44
q59 0 101 -43.5t42 -106.5q0 -61 -42 -104t-101 -43q-61 0 -104.5 43.5t-43.5 103.5zM791 1683q0 61 43 105.5t102 44.5q61 0 103 -43.5t42 -106.5t-41.5 -105t-103.5 -42q-59 0 -102 43t-43 104z" />
    <glyph glyph-name="Yacute" unicode="&#xdd;" horiz-adv-x="1415" 
d="M74 1384q-12 20 -4 35t32 15h269q33 0 49 -29l90 -168q91 -169 180 -367q8 -17 19 -17t18 17q87 191 182 367l90 168q16 29 50 29h268q25 0 33 -15t-4 -35l-474 -804q-4 -8 -4 -15v-524q0 -41 -41 -41h-235q-41 0 -41 41v524q0 7 -4 15zM475 1671q-15 38 23 53l487 197
q39 16 55 -23l43 -104q15 -37 -24 -53l-492 -191q-37 -15 -53 25z" />
    <glyph glyph-name="Thorn" unicode="&#xde;" horiz-adv-x="1368" 
d="M188 0q-41 0 -41 41v1352q0 41 41 41h234q41 0 41 -41v-201q0 -12 12 -12h285q89 0 164.5 -14.5t142 -48.5t113 -85.5t73.5 -129.5t27 -177q0 -123 -40.5 -216t-112.5 -148t-164 -81.5t-203 -25.5l-285 2q-12 0 -12 -12v-203q0 -41 -41 -41h-234zM463 502q0 -13 12 -13
h227q259 0 259 230q0 120 -67.5 172.5t-191.5 52.5h-227q-12 0 -12 -12v-430z" />
    <glyph glyph-name="germandbls" unicode="&#xdf;" horiz-adv-x="1249" 
d="M870 770q131 -24 214 -116.5t83 -254.5q0 -190 -116 -304.5t-312 -114.5q-54 0 -147 14q-37 6 -37 43v145q0 41 45 35q18 -2 47 -2q103 0 161 56t58 151q0 99 -59.5 155t-159.5 56h-49q-41 0 -41 41v112q0 41 41 41h20q83 0 138 54.5t55 152.5q0 89 -51 142t-137 53
q-91 0 -145 -59.5t-54 -157.5v-971q0 -41 -41 -41h-211q-41 0 -41 41v973q0 218 126 338.5t357 120.5q211 0 336 -100t125 -277q0 -115 -54 -198t-151 -110q-7 -2 -9.5 -6t0 -7.5t9.5 -4.5z" />
    <glyph glyph-name="agrave" unicode="&#xe0;" horiz-adv-x="1200" 
d="M397 -33q-160 0 -256 75.5t-96 219.5q0 139 95.5 221t277.5 82h125q130 0 184.5 37t54.5 107q0 68 -48 114.5t-161 46.5q-161 0 -200 -100q-6 -20 -15.5 -28.5t-27.5 -8.5h-211q-21 0 -31.5 11.5t-7.5 31.5q32 146 160 230t338 84q234 0 362.5 -101.5t128.5 -283.5v-664
q0 -41 -41 -41h-199q-19 0 -30 11t-13 30l-4 98q0 10 -8 11t-12 -7q-124 -176 -365 -176zM262 1386q-38 15 -22 54l43 104q16 40 53 25l487 -199q37 -15 23 -51l-39 -98q-16 -40 -53 -25zM340 279q0 -56 40.5 -88.5t111.5 -32.5q124 0 207 88t83 196v43q0 11 -8 12.5
t-14 -8.5q-54 -98 -225 -98h-60q-61 0 -98 -29t-37 -83z" />
    <glyph glyph-name="aacute" unicode="&#xe1;" horiz-adv-x="1200" 
d="M397 -33q-160 0 -256 75.5t-96 219.5q0 139 95.5 221t277.5 82h125q130 0 184.5 37t54.5 107q0 68 -48 114.5t-161 46.5q-161 0 -200 -100q-6 -20 -15.5 -28.5t-27.5 -8.5h-211q-21 0 -31.5 11.5t-7.5 31.5q32 146 160 230t338 84q234 0 362.5 -101.5t128.5 -283.5v-664
q0 -41 -41 -41h-199q-19 0 -30 11t-13 30l-4 98q0 10 -8 11t-12 -7q-124 -176 -365 -176zM342 1317q-15 38 23 53l489 197q39 15 53 -23l43 -104q15 -38 -24 -54l-492 -190q-37 -15 -53 25zM340 279q0 -56 40.5 -88.5t111.5 -32.5q124 0 207 88t83 196v43q0 11 -8 12.5
t-14 -8.5q-54 -98 -225 -98h-60q-61 0 -98 -29t-37 -83z" />
    <glyph glyph-name="acircumflex" unicode="&#xe2;" horiz-adv-x="1200" 
d="M397 -33q-160 0 -256 75.5t-96 219.5q0 139 95.5 221t277.5 82h125q130 0 184.5 37t54.5 107q0 68 -48 114.5t-161 46.5q-161 0 -200 -100q-6 -20 -15.5 -28.5t-27.5 -8.5h-211q-21 0 -31.5 11.5t-7.5 31.5q32 146 160 230t338 84q234 0 362.5 -101.5t128.5 -283.5v-664
q0 -41 -41 -41h-199q-19 0 -30 11t-13 30l-4 98q0 10 -8 11t-12 -7q-124 -176 -365 -176zM283 1182q-26 0 -33 14.5t8 34.5l170 221q19 25 49 25h225q31 0 50 -25l170 -221q15 -20 8 -34.5t-33 -14.5h-141q-33 0 -51 24l-107 129q-3 5 -8 5t-8 -5l-107 -129q-18 -24 -49 -24
h-143zM340 279q0 -56 40.5 -88.5t111.5 -32.5q124 0 207 88t83 196v43q0 11 -8 12.5t-14 -8.5q-54 -98 -225 -98h-60q-61 0 -98 -29t-37 -83z" />
    <glyph glyph-name="atilde" unicode="&#xe3;" horiz-adv-x="1200" 
d="M397 -33q-160 0 -256 75.5t-96 219.5q0 139 95.5 221t277.5 82h125q130 0 184.5 37t54.5 107q0 68 -48 114.5t-161 46.5q-161 0 -200 -100q-6 -20 -15.5 -28.5t-27.5 -8.5h-211q-21 0 -31.5 11.5t-7.5 31.5q32 146 160 230t338 84q234 0 362.5 -101.5t128.5 -283.5v-664
q0 -41 -41 -41h-199q-19 0 -30 11t-13 30l-4 98q0 10 -8 11t-12 -7q-124 -176 -365 -176zM262 1182q-40 0 -43 39q-3 105 55.5 169t157.5 64q65 0 156 -39q88 -41 129 -41q44 0 53 39q5 22 13 31.5t26 9.5h102q40 0 43 -39q6 -105 -52.5 -169t-156.5 -64q-59 0 -157 39
q-94 41 -131 41q-45 0 -51 -39q-5 -22 -13.5 -31.5t-27.5 -9.5h-103zM340 279q0 -56 40.5 -88.5t111.5 -32.5q124 0 207 88t83 196v43q0 11 -8 12.5t-14 -8.5q-54 -98 -225 -98h-60q-61 0 -98 -29t-37 -83z" />
    <glyph glyph-name="adieresis" unicode="&#xe4;" horiz-adv-x="1200" 
d="M397 -33q-160 0 -256 75.5t-96 219.5q0 139 95.5 221t277.5 82h125q130 0 184.5 37t54.5 107q0 68 -48 114.5t-161 46.5q-161 0 -200 -100q-6 -20 -15.5 -28.5t-27.5 -8.5h-211q-21 0 -31.5 11.5t-7.5 31.5q32 146 160 230t338 84q234 0 362.5 -101.5t128.5 -283.5v-664
q0 -41 -41 -41h-199q-19 0 -30 11t-13 30l-4 98q0 10 -8 11t-12 -7q-124 -176 -365 -176zM244 1360q0 61 43.5 105t103.5 44t102 -43t42 -106t-42 -105.5t-102 -42.5t-103.5 43.5t-43.5 104.5zM340 279q0 -56 40.5 -88.5t111.5 -32.5q124 0 207 88t83 196v43q0 11 -8 12.5
t-14 -8.5q-54 -98 -225 -98h-60q-61 0 -98 -29t-37 -83zM641 1362q0 60 43 103.5t102 43.5q62 0 105 -43t43 -104q0 -63 -43 -105.5t-105 -42.5q-59 0 -102 43.5t-43 104.5z" />
    <glyph glyph-name="aring" unicode="&#xe5;" horiz-adv-x="1200" 
d="M397 -33q-160 0 -256 75.5t-96 219.5q0 139 95.5 221t277.5 82h125q130 0 184.5 37t54.5 107q0 68 -48 114.5t-161 46.5q-161 0 -200 -100q-6 -20 -15.5 -28.5t-27.5 -8.5h-211q-21 0 -31.5 11.5t-7.5 31.5q32 146 160 230t338 84q234 0 362.5 -101.5t128.5 -283.5v-664
q0 -41 -41 -41h-199q-19 0 -30 11t-13 30l-4 98q0 10 -8 11t-12 -7q-124 -176 -365 -176zM297 1452q0 120 81.5 194t213.5 74t213.5 -74t81.5 -194q0 -121 -81.5 -195.5t-213.5 -74.5t-213.5 74.5t-81.5 195.5zM340 279q0 -56 40.5 -88.5t111.5 -32.5q124 0 207 88t83 196
v43q0 11 -8 12.5t-14 -8.5q-54 -98 -225 -98h-60q-61 0 -98 -29t-37 -83zM477 1452q0 -46 32 -74t83 -28q53 0 86 28t33 74q0 44 -33 72t-86 28q-51 0 -83 -28t-32 -72z" />
    <glyph glyph-name="ae" unicode="&#xe6;" horiz-adv-x="1918" 
d="M397 -33q-160 0 -256 75.5t-96 219.5q0 139 95.5 221t277.5 82h125q130 0 184.5 37.5t54.5 110.5q0 65 -48 111t-161 46q-161 0 -200 -100q-6 -20 -15.5 -28.5t-27.5 -8.5h-211q-21 0 -31.5 11.5t-7.5 31.5q32 146 160 230t338 84q115 0 207.5 -37t146.5 -109
q9 -12 15.5 -12t15.5 12q54 71 144.5 107t197.5 36q226 0 372 -148.5t146 -381.5q0 -33 -2 -49q-3 -39 -43 -39h-705q-12 0 -12 -12q9 -127 82 -198t182 -71q155 0 209 97q18 30 49 30h170q22 0 32 -12.5t3 -32.5q-42 -136 -167.5 -219.5t-295.5 -83.5q-179 0 -304 70.5
t-185 175.5q-9 15 -19 14t-16 -16q-44 -104 -151 -174t-253 -70zM340 279q0 -56 40.5 -88.5t111.5 -32.5q124 0 207 88t83 196v43q0 11 -8 12.5t-14 -8.5q-54 -98 -225 -98h-60q-61 0 -98 -29t-37 -83zM1063 639q-3 -12 10 -12h449q12 0 12 12q-7 108 -69.5 168.5
t-161.5 60.5q-94 0 -162 -58.5t-78 -170.5z" />
    <glyph glyph-name="ccedilla" unicode="&#xe7;" horiz-adv-x="1181" 
d="M565 -440q-72 0 -139 20q-33 9 -33 45v33q0 44 45 35q52 -10 82 -10q103 0 103 71q0 34 -34 50t-85 16q-43 -3 -43 37v6q0 30 31 49q29 19 40 47q5 11 -10 14q-193 29 -312.5 172t-119.5 381q0 134 40 241.5t111.5 177.5t168.5 107.5t213 37.5q177 0 304.5 -83
t162.5 -229q4 -21 -6 -33t-31 -12h-209q-33 0 -47 33q-43 100 -176 100q-113 0 -172.5 -85.5t-59.5 -248.5q0 -166 62 -254t172 -88q67 0 115.5 32.5t68.5 90.5q12 35 45 35h207q46 0 37 -45q-36 -147 -146.5 -232.5t-265.5 -101.5q-9 0 -14 -8q-17 -33 -58 -47
q-10 -7 -10 -10q0 -4 12 -4h17q84 0 140 -43t56 -109q0 -90 -76 -139t-186 -49z" />
    <glyph glyph-name="egrave" unicode="&#xe8;" horiz-adv-x="1224" 
d="M631 -33q-251 0 -396 147t-145 418q0 253 142.5 405.5t383.5 152.5q221 0 366.5 -150.5t145.5 -382.5q0 -16 -2 -45q0 -43 -41 -43h-704q-12 0 -12 -12q9 -126 80.5 -197.5t183.5 -71.5q155 0 209 97q18 30 49 30h170q22 0 32.5 -10.5t4.5 -28.5q-40 -139 -167 -224
t-300 -85zM283 1386q-38 15 -23 54l43 104q16 40 53 25l488 -199q37 -15 22 -51l-39 -98q-16 -40 -53 -25zM373 655q-3 -12 10 -12h446q14 0 11 12q-14 99 -74.5 156t-153.5 57q-97 0 -161.5 -56t-77.5 -157z" />
    <glyph glyph-name="eacute" unicode="&#xe9;" horiz-adv-x="1224" 
d="M631 -33q-251 0 -396 147t-145 418q0 253 142.5 405.5t383.5 152.5q221 0 366.5 -150.5t145.5 -382.5q0 -16 -2 -45q0 -43 -41 -43h-704q-12 0 -12 -12q9 -126 80.5 -197.5t183.5 -71.5q155 0 209 97q18 30 49 30h170q22 0 32.5 -10.5t4.5 -28.5q-40 -139 -167 -224
t-300 -85zM362 1317q-15 38 23 53l489 197q40 16 54 -23l43 -104q15 -38 -25 -54l-491 -190q-38 -15 -54 25zM373 655q-3 -12 10 -12h446q14 0 11 12q-14 99 -74.5 156t-153.5 57q-97 0 -161.5 -56t-77.5 -157z" />
    <glyph glyph-name="ecircumflex" unicode="&#xea;" horiz-adv-x="1224" 
d="M631 -33q-251 0 -396 147t-145 418q0 253 142.5 405.5t383.5 152.5q221 0 366.5 -150.5t145.5 -382.5q0 -16 -2 -45q0 -43 -41 -43h-704q-12 0 -12 -12q9 -126 80.5 -197.5t183.5 -71.5q155 0 209 97q18 30 49 30h170q22 0 32.5 -10.5t4.5 -28.5q-40 -139 -167 -224
t-300 -85zM303 1182q-26 0 -32.5 14.5t8.5 34.5l170 221q19 25 49 25h225q30 0 49 -25l170 -221q15 -20 8.5 -34.5t-32.5 -14.5h-142q-33 0 -51 24l-107 129q-3 5 -8 5t-8 -5l-106 -129q-18 -24 -50 -24h-143zM373 655q-3 -12 10 -12h446q14 0 11 12q-14 99 -74.5 156
t-153.5 57q-97 0 -161.5 -56t-77.5 -157z" />
    <glyph glyph-name="edieresis" unicode="&#xeb;" horiz-adv-x="1224" 
d="M631 -33q-251 0 -396 147t-145 418q0 253 142.5 405.5t383.5 152.5q221 0 366.5 -150.5t145.5 -382.5q0 -16 -2 -45q0 -43 -41 -43h-704q-12 0 -12 -12q9 -126 80.5 -197.5t183.5 -71.5q155 0 209 97q18 30 49 30h170q22 0 32.5 -10.5t4.5 -28.5q-40 -139 -167 -224
t-300 -85zM264 1360q0 61 44 105t104 44t101.5 -43t41.5 -106t-41.5 -105.5t-101.5 -42.5t-104 43.5t-44 104.5zM373 655q-3 -12 10 -12h446q14 0 11 12q-14 99 -74.5 156t-153.5 57q-97 0 -161.5 -56t-77.5 -157zM662 1362q0 60 43 103.5t102 43.5q61 0 104 -42.5
t43 -104.5q0 -63 -42.5 -105.5t-104.5 -42.5q-59 0 -102 43.5t-43 104.5z" />
    <glyph glyph-name="igrave" unicode="&#xec;" horiz-adv-x="561" 
d="M133 1016q0 41 41 41h211q41 0 41 -41v-975q0 -41 -41 -41h-211q-41 0 -41 41v975zM-51 1386q-38 15 -23 54l43 104q16 40 54 25l487 -199q37 -15 22 -51l-38 -98q-16 -40 -54 -25z" />
    <glyph glyph-name="iacute" unicode="&#xed;" horiz-adv-x="561" 
d="M133 1016q0 41 41 41h211q41 0 41 -41v-975q0 -41 -41 -41h-211q-41 0 -41 41v975zM29 1317q-15 38 22 53l490 197q39 15 53 -23l43 -104q15 -38 -25 -54l-491 -190q-37 -15 -53 25z" />
    <glyph glyph-name="icircumflex" unicode="&#xee;" horiz-adv-x="561" 
d="M133 1016q0 41 41 41h211q41 0 41 -41v-975q0 -41 -41 -41h-211q-41 0 -41 41v975zM-31 1182q-26 0 -32.5 14.5t8.5 34.5l170 221q19 25 49 25h225q30 0 49 -25l170 -221q15 -20 8.5 -34.5t-32.5 -14.5h-142q-33 0 -51 24l-106 129q-3 5 -8.5 5t-8.5 -5l-106 -129
q-18 -24 -49 -24h-144z" />
    <glyph glyph-name="idieresis" unicode="&#xef;" horiz-adv-x="561" 
d="M133 1016q0 41 41 41h211q41 0 41 -41v-975q0 -41 -41 -41h-211q-41 0 -41 41v975zM-70 1360q0 61 44 105t104 44t101.5 -43t41.5 -106t-41.5 -105.5t-101.5 -42.5t-104 43.5t-44 104.5zM328 1362q0 60 43 103.5t102 43.5q62 0 105 -43t43 -104q0 -63 -43 -105.5
t-105 -42.5q-59 0 -102 43.5t-43 104.5z" />
    <glyph glyph-name="eth" unicode="&#xf0;" horiz-adv-x="1263" 
d="M625 -33q-167 0 -292 74.5t-188 198t-63 276.5q0 141 53 256.5t155.5 184.5t235.5 69q168 0 277 -127q7 -9 16 -5t4 15q-22 65 -112 174q-38 48 -76 86q-7 10 -17 7l-262 -78q-21 -6 -34 2.5t-13 29.5v62q0 36 35 45l158 47q16 4 4 16q-53 53 -86 82q-20 20 -15 36t33 16
h260q34 0 52 -21l34 -35q9 -9 17 -6l217 66q20 6 33.5 -3.5t13.5 -31.5v-60q0 -36 -35 -45l-125 -36q-14 -4 -4 -17l2 -2q279 -336 279 -698q0 -147 -46 -260.5t-125 -181.5t-176.5 -102t-209.5 -34zM375 518q0 -156 69 -243t191 -87q120 0 186 85t66 243q0 160 -66.5 244
t-185.5 84q-122 0 -191 -85.5t-69 -240.5z" />
    <glyph glyph-name="ntilde" unicode="&#xf1;" horiz-adv-x="1308" 
d="M172 0q-41 0 -41 41v975q0 41 41 41h205q19 0 30 -11t13 -30l4 -98q0 -10 10.5 -12t16.5 7q56 83 144.5 130t195.5 47q167 0 277 -109t110 -299v-641q0 -41 -41 -41h-211q-41 0 -41 41v557q0 127 -57 194.5t-160 67.5q-115 0 -179.5 -82t-64.5 -225v-512q0 -41 -41 -41
h-211zM332 1182q-40 0 -43 39q-3 105 55.5 169t157.5 64q64 0 155 -39q88 -41 129 -41q45 0 54 39q5 22 13 31.5t26 9.5h102q40 0 43 -39q6 -105 -52.5 -169t-156.5 -64q-60 0 -158 39q-94 41 -131 41q-45 0 -51 -39q-5 -22 -13.5 -31.5t-27.5 -9.5h-102z" />
    <glyph glyph-name="ograve" unicode="&#xf2;" horiz-adv-x="1280" 
d="M641 -33q-118 0 -219.5 40.5t-175 113.5t-115 179t-41.5 232q0 248 155.5 403t395.5 155q239 0 394 -155t155 -403q0 -253 -155 -409t-394 -156zM311 1386q-38 15 -22 54l43 104q16 40 53 25l487 -199q37 -15 23 -51l-39 -98q-16 -40 -53 -25zM385 532q0 -166 67 -254
t189 -88q121 0 187.5 88.5t66.5 253.5q0 161 -67 247.5t-187 86.5q-122 0 -189 -86t-67 -248z" />
    <glyph glyph-name="oacute" unicode="&#xf3;" horiz-adv-x="1280" 
d="M641 -33q-118 0 -219.5 40.5t-175 113.5t-115 179t-41.5 232q0 248 155.5 403t395.5 155q239 0 394 -155t155 -403q0 -253 -155 -409t-394 -156zM391 1317q-15 38 23 53l489 197q39 15 53 -23l43 -104q15 -38 -24 -54l-492 -190q-37 -15 -53 25zM385 532q0 -166 67 -254
t189 -88q121 0 187.5 88.5t66.5 253.5q0 161 -67 247.5t-187 86.5q-122 0 -189 -86t-67 -248z" />
    <glyph glyph-name="ocircumflex" unicode="&#xf4;" horiz-adv-x="1280" 
d="M641 -33q-118 0 -219.5 40.5t-175 113.5t-115 179t-41.5 232q0 248 155.5 403t395.5 155q239 0 394 -155t155 -403q0 -253 -155 -409t-394 -156zM332 1182q-26 0 -33 14.5t8 34.5l170 221q19 25 49 25h226q30 0 49 -25l170 -221q15 -20 8 -34.5t-33 -14.5h-141
q-33 0 -51 24l-107 129q-3 5 -8 5t-8 -5l-107 -129q-18 -24 -49 -24h-143zM385 532q0 -166 67 -254t189 -88q121 0 187.5 88.5t66.5 253.5q0 161 -67 247.5t-187 86.5q-122 0 -189 -86t-67 -248z" />
    <glyph glyph-name="otilde" unicode="&#xf5;" horiz-adv-x="1280" 
d="M641 -33q-118 0 -219.5 40.5t-175 113.5t-115 179t-41.5 232q0 248 155.5 403t395.5 155q239 0 394 -155t155 -403q0 -253 -155 -409t-394 -156zM311 1182q-40 0 -43 39q-3 105 55.5 169t157.5 64q65 0 156 -39q88 -41 129 -41q44 0 53 39q5 22 13 31.5t26 9.5h103
q40 0 43 -39q6 -105 -52.5 -169t-156.5 -64q-60 0 -158 39q-94 41 -131 41q-45 0 -51 -39q-5 -22 -13.5 -31.5t-27.5 -9.5h-103zM385 532q0 -166 67 -254t189 -88q121 0 187.5 88.5t66.5 253.5q0 161 -67 247.5t-187 86.5q-122 0 -189 -86t-67 -248z" />
    <glyph glyph-name="odieresis" unicode="&#xf6;" horiz-adv-x="1280" 
d="M641 -33q-118 0 -219.5 40.5t-175 113.5t-115 179t-41.5 232q0 248 155.5 403t395.5 155q239 0 394 -155t155 -403q0 -253 -155 -409t-394 -156zM293 1360q0 61 43.5 105t103.5 44t102 -43t42 -106t-42 -105.5t-102 -42.5t-103.5 43.5t-43.5 104.5zM385 532
q0 -166 67 -254t189 -88q121 0 187.5 88.5t66.5 253.5q0 161 -67 247.5t-187 86.5q-122 0 -189 -86t-67 -248zM690 1362q0 60 43.5 103.5t102.5 43.5q62 0 104.5 -42.5t42.5 -104.5q0 -63 -42.5 -105.5t-104.5 -42.5q-59 0 -102.5 43.5t-43.5 104.5z" />
    <glyph glyph-name="divide" unicode="&#xf7;" horiz-adv-x="1181" 
d="M590 985q-63 0 -104.5 38.5t-41.5 96.5t41.5 95.5t104.5 37.5q65 0 107 -37.5t42 -95.5t-42 -96.5t-107 -38.5zM135 608q-41 0 -41 41v162q0 41 41 41h912q40 0 40 -41v-162q0 -41 -40 -41h-912zM444 340q0 60 41.5 97.5t104.5 37.5q65 0 107 -37.5t42 -97.5
q0 -57 -42.5 -95t-106.5 -38q-63 0 -104.5 38t-41.5 95z" />
    <glyph glyph-name="oslash" unicode="&#xf8;" horiz-adv-x="1290" 
d="M127 12q-29 29 -2 60l78 82q8 8 2 16q-115 150 -115 362q0 248 155.5 403t395.5 155q194 0 336 -107q10 -6 18 2l76 82q27 30 59 2l39 -37q28 -28 2 -57l-81 -86q-9 -9 -3 -17q103 -144 103 -340q0 -253 -155 -409t-394 -156q-182 0 -322 94q-10 6 -18 -2l-78 -82
q-27 -30 -57 0zM385 532q0 -85 18 -147q1 -7 7 -8t10 4l387 407q7 10 0 17q-64 61 -166 61q-122 0 -189 -86t-67 -248zM487 256q-6 -8 2 -16q59 -50 152 -50q121 0 187.5 88.5t66.5 253.5q0 59 -10 117q-2 8 -7 10t-10 -4z" />
    <glyph glyph-name="ugrave" unicode="&#xf9;" horiz-adv-x="1308" 
d="M1137 1057q41 0 41 -41v-975q0 -41 -41 -41h-205q-19 0 -30 11t-13 30l-4 98q0 7 -5 10t-11.5 1.5t-10.5 -7.5q-56 -83 -144.5 -129.5t-195.5 -46.5q-167 0 -277 109t-110 299v641q0 41 41 41h211q41 0 41 -41v-557q0 -127 57 -194.5t160 -67.5q115 0 179.5 82t64.5 225
v512q0 41 41 41h211zM324 1386q-38 15 -23 54l43 104q16 40 53 25l488 -199q37 -15 22 -51l-39 -98q-16 -40 -53 -25z" />
    <glyph glyph-name="uacute" unicode="&#xfa;" horiz-adv-x="1308" 
d="M1137 1057q41 0 41 -41v-975q0 -41 -41 -41h-205q-19 0 -30 11t-13 30l-4 98q0 7 -5 10t-11.5 1.5t-10.5 -7.5q-56 -83 -144.5 -129.5t-195.5 -46.5q-167 0 -277 109t-110 299v641q0 41 41 41h211q41 0 41 -41v-557q0 -127 57 -194.5t160 -67.5q115 0 179.5 82t64.5 225
v512q0 41 41 41h211zM403 1317q-15 38 23 53l489 197q40 16 54 -23l43 -104q15 -38 -25 -54l-491 -190q-38 -15 -54 25z" />
    <glyph glyph-name="ucircumflex" unicode="&#xfb;" horiz-adv-x="1308" 
d="M1137 1057q41 0 41 -41v-975q0 -41 -41 -41h-205q-19 0 -30 11t-13 30l-4 98q0 7 -5 10t-11.5 1.5t-10.5 -7.5q-56 -83 -144.5 -129.5t-195.5 -46.5q-167 0 -277 109t-110 299v641q0 41 41 41h211q41 0 41 -41v-557q0 -127 57 -194.5t160 -67.5q115 0 179.5 82t64.5 225
v512q0 41 41 41h211zM344 1182q-26 0 -33 14.5t8 34.5l170 221q19 25 50 25h225q30 0 49 -25l170 -221q15 -20 8 -34.5t-33 -14.5h-141q-33 0 -51 24l-107 129q-3 5 -8 5t-8 -5l-106 -129q-18 -24 -50 -24h-143z" />
    <glyph glyph-name="udieresis" unicode="&#xfc;" horiz-adv-x="1308" 
d="M1137 1057q41 0 41 -41v-975q0 -41 -41 -41h-205q-19 0 -30 11t-13 30l-4 98q0 7 -5 10t-11.5 1.5t-10.5 -7.5q-56 -83 -144.5 -129.5t-195.5 -46.5q-167 0 -277 109t-110 299v641q0 41 41 41h211q41 0 41 -41v-557q0 -127 57 -194.5t160 -67.5q115 0 179.5 82t64.5 225
v512q0 41 41 41h211zM305 1360q0 61 44 105t104 44t101.5 -43t41.5 -106t-41.5 -105.5t-101.5 -42.5t-104 43.5t-44 104.5zM702 1362q0 60 43.5 103.5t102.5 43.5q62 0 104.5 -42.5t42.5 -104.5q0 -63 -42.5 -105.5t-104.5 -42.5q-59 0 -102.5 43.5t-43.5 104.5z" />
    <glyph glyph-name="yacute" unicode="&#xfd;" horiz-adv-x="1161" 
d="M303 -397q-85 0 -182 20q-37 6 -37 45v131q0 43 45 37q47 -8 86 -8q68 0 107.5 28t62.5 95l16 45q4 8 0 16l-342 998q-7 22 2 34.5t31 12.5h230q39 0 47 -35l82 -285q19 -66 60.5 -234.5t57.5 -226.5q3 -11 9 -15.5t12.5 0t9.5 15.5q11 39 50.5 209t64.5 254l86 283
q9 35 45 35h223q22 0 31 -12.5t2 -34.5l-367 -1045q-67 -193 -172.5 -277.5t-259.5 -84.5zM332 1317q-15 38 22 53l490 197q39 15 53 -23l43 -104q15 -38 -25 -54l-491 -190q-37 -15 -53 25z" />
    <glyph glyph-name="thorn" unicode="&#xfe;" horiz-adv-x="1316" 
d="M172 -410q-41 0 -41 41v1794q0 41 41 41h211q41 0 41 -41v-489q0 -13 10 -15t17 9q53 73 136.5 116.5t180.5 43.5q91 0 174.5 -40.5t146.5 -112.5t100.5 -179t37.5 -232q0 -124 -37.5 -230t-100.5 -177.5t-146.5 -111.5t-174.5 -40q-97 0 -180.5 43.5t-136.5 116.5
q-7 11 -17 9t-10 -15v-490q0 -41 -41 -41h-211zM424 467q0 -128 70 -212.5t184 -84.5q115 0 184.5 96t69.5 262q0 165 -69.5 262t-184.5 97q-114 0 -184 -84t-70 -211v-125z" />
    <glyph glyph-name="ydieresis" unicode="&#xff;" horiz-adv-x="1161" 
d="M303 -397q-85 0 -182 20q-37 6 -37 45v131q0 43 45 37q47 -8 86 -8q68 0 107.5 28t62.5 95l16 45q4 8 0 16l-342 998q-7 22 2 34.5t31 12.5h230q39 0 47 -35l82 -285q19 -66 60.5 -234.5t57.5 -226.5q3 -11 9 -15.5t12.5 0t9.5 15.5q11 39 50.5 209t64.5 254l86 283
q9 35 45 35h223q22 0 31 -12.5t2 -34.5l-367 -1045q-67 -193 -172.5 -277.5t-259.5 -84.5zM233 1360q0 61 44 105t104 44t101.5 -43t41.5 -106t-41.5 -105.5t-101.5 -42.5t-104 43.5t-44 104.5zM631 1362q0 60 43 103.5t102 43.5q62 0 105 -43t43 -104q0 -63 -43 -105.5
t-105 -42.5q-59 0 -102 43.5t-43 104.5z" />
    <glyph glyph-name="Amacron" unicode="&#x100;" horiz-adv-x="1507" 
d="M379 33q-9 -33 -45 -33h-240q-22 0 -31 12.5t-2 34.5l480 1354q11 33 47 33h317q36 0 47 -33l494 -1354q7 -22 -2 -34.5t-31 -12.5h-252q-34 0 -45 33l-96 295q-2 10 -14 10h-519q-11 0 -14 -10zM459 1577q-41 0 -41 41v115q0 41 41 41h592q41 0 41 -41v-115
q0 -41 -41 -41h-592zM559 594q-3 -14 10 -14h355q13 0 10 14l-74 225q-74 229 -100 346q-3 13 -14.5 13t-14.5 -13q-24 -111 -102 -354z" />
    <glyph glyph-name="amacron" unicode="&#x101;" horiz-adv-x="1200" 
d="M397 -33q-160 0 -256 75.5t-96 219.5q0 139 95.5 221t277.5 82h125q130 0 184.5 37t54.5 107q0 68 -48 114.5t-161 46.5q-161 0 -200 -100q-6 -20 -15.5 -28.5t-27.5 -8.5h-211q-21 0 -31.5 11.5t-7.5 31.5q32 146 160 230t338 84q234 0 362.5 -101.5t128.5 -283.5v-664
q0 -41 -41 -41h-199q-19 0 -30 11t-13 30l-4 98q0 10 -8 11t-12 -7q-124 -176 -365 -176zM295 1223q-41 0 -41 41v114q0 41 41 41h592q41 0 41 -41v-114q0 -41 -41 -41h-592zM340 279q0 -56 40.5 -88.5t111.5 -32.5q124 0 207 88t83 196v43q0 11 -8 12.5t-14 -8.5
q-54 -98 -225 -98h-60q-61 0 -98 -29t-37 -83z" />
    <glyph glyph-name="Abreve" unicode="&#x102;" horiz-adv-x="1507" 
d="M379 33q-9 -33 -45 -33h-240q-22 0 -31 12.5t-2 34.5l480 1354q11 33 47 33h317q36 0 47 -33l494 -1354q7 -22 -2 -34.5t-31 -12.5h-252q-34 0 -45 33l-96 295q-2 10 -14 10h-519q-11 0 -14 -10zM416 1810q-3 20 7.5 31.5t31.5 11.5h133q34 0 43 -36q12 -47 44.5 -72
t78.5 -25t78.5 25t44.5 72q9 36 43 36h133q21 0 31.5 -11.5t7.5 -31.5q-22 -127 -113 -200.5t-225 -73.5q-135 0 -226.5 73.5t-111.5 200.5zM559 594q-3 -14 10 -14h355q13 0 10 14l-74 225q-74 229 -100 346q-3 13 -14.5 13t-14.5 -13q-24 -111 -102 -354z" />
    <glyph glyph-name="abreve" unicode="&#x103;" horiz-adv-x="1200" 
d="M397 -33q-160 0 -256 75.5t-96 219.5q0 139 95.5 221t277.5 82h125q130 0 184.5 37t54.5 107q0 68 -48 114.5t-161 46.5q-161 0 -200 -100q-6 -20 -15.5 -28.5t-27.5 -8.5h-211q-21 0 -31.5 11.5t-7.5 31.5q32 146 160 230t338 84q234 0 362.5 -101.5t128.5 -283.5v-664
q0 -41 -41 -41h-199q-19 0 -30 11t-13 30l-4 98q0 10 -8 11t-12 -7q-124 -176 -365 -176zM254 1444q-4 20 6 31.5t31 11.5h133q33 0 45 -37q27 -90 123 -90q93 0 121 90q12 37 45 37h133q21 0 31.5 -11.5t7.5 -31.5q-22 -119 -114 -190.5t-224 -71.5t-224 71.5t-114 190.5z
M340 279q0 -56 40.5 -88.5t111.5 -32.5q124 0 207 88t83 196v43q0 11 -8 12.5t-14 -8.5q-54 -98 -225 -98h-60q-61 0 -98 -29t-37 -83z" />
    <glyph glyph-name="Aogonek" unicode="&#x104;" horiz-adv-x="1507" 
d="M379 33q-9 -33 -45 -33h-240q-22 0 -31 12.5t-2 34.5l480 1354q11 33 47 33h317q36 0 47 -33l498 -1364q13 -36 -23 -55q-118 -65 -118 -140q0 -35 23.5 -52t58.5 -17q20 0 28 2q45 9 45 -33v-72q0 -38 -30 -47q-46 -18 -103 -18q-103 0 -164 51t-61 129q0 72 54 121.5
t153 66.5q12 2 16.5 8.5t0 12.5t-16.5 6h-152q-34 0 -45 33l-96 295q-2 10 -14 10h-519q-11 0 -14 -10zM559 594q-3 -14 10 -14h355q13 0 10 14l-74 225q-74 229 -100 346q-3 13 -14.5 13t-14.5 -13q-24 -111 -102 -354z" />
    <glyph glyph-name="aogonek" unicode="&#x105;" horiz-adv-x="1245" 
d="M975 -395q-107 0 -171.5 51t-64.5 129q0 75 60 128.5t168 68.5q7 1 9.5 5.5t0 8.5t-9.5 4h-93q-19 0 -30 11t-13 30l-4 98q0 10 -7.5 11t-12.5 -7q-124 -176 -377 -176q-149 0 -244.5 76t-95.5 219q0 139 95.5 221t277.5 82h125q130 0 184.5 37t54.5 107q0 68 -48 114.5
t-161 46.5q-161 0 -200 -100q-6 -20 -15.5 -28.5t-27.5 -8.5h-211q-21 0 -31.5 11.5t-7.5 31.5q32 146 160 230t338 84q234 0 362.5 -101.5t128.5 -283.5v-672q0 -31 -31 -47q-137 -68 -137 -144q0 -34 25.5 -51.5t62.5 -17.5q5 0 14 1t13 1q10 0 16 2q37 3 37 -35v-72
q0 -39 -31 -47q-53 -18 -108 -18zM385 285q0 -61 40 -94t112 -33q124 0 207 88t83 196v43q0 11 -8 12.5t-14 -8.5q-54 -98 -225 -98h-60q-62 0 -98.5 -30.5t-36.5 -75.5z" />
    <glyph glyph-name="Cacute" unicode="&#x106;" horiz-adv-x="1509" 
d="M780 -33q-323 0 -506.5 200.5t-183.5 551.5t183.5 549t506.5 198q235 0 396.5 -105t212.5 -292q6 -21 -4.5 -33t-32.5 -12h-248q-33 0 -47 33q-31 77 -101 118.5t-168 41.5q-176 0 -272 -131.5t-96 -366.5t96.5 -368.5t267.5 -133.5q123 0 198.5 56t98.5 163q9 37 43 37
h244q44 0 41 -35q-35 -211 -200.5 -341t-428.5 -130zM530 1671q-15 38 23 53l487 197q40 16 56 -23l43 -104q15 -37 -25 -53l-491 -191q-38 -15 -54 25z" />
    <glyph glyph-name="cacute" unicode="&#x107;" horiz-adv-x="1181" 
d="M618 -33q-111 0 -206 36t-167.5 104t-113.5 175.5t-41 243.5q0 134 40 241.5t111.5 177.5t168.5 107.5t213 37.5q177 0 304.5 -83t162.5 -229q4 -21 -6 -33t-31 -12h-209q-33 0 -47 33q-43 100 -176 100q-113 0 -172.5 -85.5t-59.5 -248.5q0 -166 62 -254t172 -88
q67 0 115.5 32.5t68.5 90.5q12 35 45 35h207q21 0 31 -13t6 -34q-38 -162 -169.5 -248t-308.5 -86zM365 1317q-15 38 22 53l490 197q39 15 53 -23l43 -104q15 -38 -25 -54l-491 -190q-38 -15 -54 25z" />
    <glyph glyph-name="Cdotaccent" unicode="&#x10a;" horiz-adv-x="1509" 
d="M780 -33q-323 0 -506.5 200.5t-183.5 551.5t183.5 549t506.5 198q235 0 396.5 -105t212.5 -292q6 -21 -4.5 -33t-32.5 -12h-248q-33 0 -47 33q-31 77 -101 118.5t-168 41.5q-176 0 -272 -131.5t-96 -366.5t96.5 -368.5t267.5 -133.5q123 0 198.5 56t98.5 163q9 37 43 37
h244q44 0 41 -35q-35 -211 -200.5 -341t-428.5 -130zM602 1704q0 69 50.5 120.5t119.5 51.5q70 0 120 -50t50 -122q0 -70 -50 -119t-120 -49q-69 0 -119.5 49.5t-50.5 118.5z" />
    <glyph glyph-name="cdotaccent" unicode="&#x10b;" horiz-adv-x="1181" 
d="M618 -33q-111 0 -206 36t-167.5 104t-113.5 175.5t-41 243.5q0 134 40 241.5t111.5 177.5t168.5 107.5t213 37.5q177 0 304.5 -83t162.5 -229q4 -21 -6 -33t-31 -12h-209q-33 0 -47 33q-43 100 -176 100q-113 0 -172.5 -85.5t-59.5 -248.5q0 -166 62 -254t172 -88
q67 0 115.5 32.5t68.5 90.5q12 35 45 35h207q21 0 31 -13t6 -34q-38 -162 -169.5 -248t-308.5 -86zM446 1370q0 69 49.5 119.5t118.5 50.5q70 0 120 -49.5t50 -120.5q0 -70 -50 -119t-120 -49q-69 0 -118.5 49.5t-49.5 118.5z" />
    <glyph glyph-name="Ccaron" unicode="&#x10c;" horiz-adv-x="1509" 
d="M780 -33q-323 0 -506.5 200.5t-183.5 551.5t183.5 549t506.5 198q235 0 396.5 -105t212.5 -292q6 -21 -4.5 -33t-32.5 -12h-248q-33 0 -47 33q-31 77 -101 118.5t-168 41.5q-176 0 -272 -131.5t-96 -366.5t96.5 -368.5t267.5 -133.5q123 0 198.5 56t98.5 163q9 37 43 37
h244q44 0 41 -35q-35 -211 -200.5 -341t-428.5 -130zM438 1782q-15 20 -8 34.5t33 14.5h143q30 0 49 -25l107 -129q3 -5 8 -5t8 5l107 129q19 25 49 25h143q26 0 33 -14.5t-8 -34.5l-170 -221q-19 -25 -49 -25h-226q-30 0 -49 25z" />
    <glyph glyph-name="ccaron" unicode="&#x10d;" horiz-adv-x="1181" 
d="M618 -33q-111 0 -206 36t-167.5 104t-113.5 175.5t-41 243.5q0 134 40 241.5t111.5 177.5t168.5 107.5t213 37.5q177 0 304.5 -83t162.5 -229q4 -21 -6 -33t-31 -12h-209q-33 0 -47 33q-43 100 -176 100q-113 0 -172.5 -85.5t-59.5 -248.5q0 -166 62 -254t172 -88
q67 0 115.5 32.5t68.5 90.5q12 35 45 35h207q21 0 31 -13t6 -34q-38 -162 -169.5 -248t-308.5 -86zM281 1427q-15 20 -8.5 35t32.5 15h144q30 0 49 -25l106 -129q3 -5 8.5 -5t8.5 5l106 129q19 25 49 25h144q26 0 32.5 -15t-8.5 -35l-170 -221q-18 -24 -49 -24h-225
q-31 0 -49 24z" />
    <glyph glyph-name="Dcaron" unicode="&#x10e;" horiz-adv-x="1492" 
d="M692 248q172 0 277.5 117.5t105.5 351.5q0 241 -105.5 355t-277.5 114h-215q-12 0 -12 -12v-914q0 -12 12 -12h215zM188 0q-41 0 -41 41v1352q0 41 41 41h514q148 0 273 -43.5t222 -129t151.5 -225t54.5 -319.5q0 -151 -36 -272.5t-99.5 -203.5t-152.5 -137t-192 -79.5
t-221 -24.5h-514zM432 1782q-15 20 -8 34.5t33 14.5h143q30 0 49 -25l107 -129q3 -5 8 -5t8 5l107 129q19 25 49 25h143q26 0 33 -14.5t-8 -34.5l-170 -221q-19 -25 -49 -25h-226q-30 0 -49 25z" />
    <glyph glyph-name="dcaron" unicode="&#x10f;" horiz-adv-x="1669" 
d="M549 -33q-91 0 -174.5 40.5t-146.5 112t-100.5 178.5t-37.5 232q0 124 37.5 230.5t100.5 178t146.5 111.5t174.5 40q97 0 180.5 -43.5t136.5 -116.5q8 -11 17.5 -9t9.5 15v489q0 41 41 41h211q41 0 41 -41v-1384q0 -41 -41 -41h-203q-40 0 -43 39l-6 82q0 13 -9.5 15
t-17.5 -9q-53 -73 -136.5 -116.5t-180.5 -43.5zM385 528q0 -165 69.5 -261.5t184.5 -96.5q114 0 184 84t70 211v125q0 128 -70 212.5t-184 84.5q-115 0 -184.5 -96.5t-69.5 -262.5zM1386 868q-41 0 -38 43l53 484q3 39 43 39h168q22 0 31.5 -12.5t3.5 -32.5l-134 -486
q-8 -35 -47 -35h-80z" />
    <glyph glyph-name="Dcroat" unicode="&#x110;" horiz-adv-x="1536" 
d="M35 788q0 41 41 41h102q12 0 12 13v551q0 41 41 41h514q148 0 273 -43.5t222 -129t151.5 -225t54.5 -319.5q0 -151 -36 -272.5t-99.5 -203.5t-152.5 -137t-192 -79.5t-221 -24.5h-514q-41 0 -41 41v616q0 13 -12 13h-102q-41 0 -41 41v77zM508 260q0 -12 12 -12h215
q172 0 277.5 117.5t105.5 351.5q0 241 -105.5 355t-277.5 114h-215q-12 0 -12 -12v-332q0 -13 12 -13h277q41 0 41 -41v-77q0 -41 -41 -41h-277q-12 0 -12 -13v-397z" />
    <glyph glyph-name="dcroat" unicode="&#x111;" horiz-adv-x="1413" 
d="M629 1264q0 41 41 41h211q12 0 12 12v108q0 41 41 41h211q41 0 41 -41v-108q0 -12 12 -12h143q41 0 41 -41v-54q0 -41 -41 -41h-143q-12 0 -12 -12v-1116q0 -41 -41 -41h-203q-40 0 -43 39l-6 82q0 13 -9.5 15t-17.5 -9q-53 -73 -136.5 -116.5t-180.5 -43.5
q-91 0 -174.5 40.5t-146.5 112t-100.5 178.5t-37.5 232q0 124 37.5 230.5t100.5 178t146.5 111.5t174.5 40q97 0 180.5 -43.5t136.5 -116.5q8 -11 17.5 -9t9.5 15v221q0 12 -12 12h-211q-41 0 -41 41v54zM385 528q0 -165 69.5 -261.5t184.5 -96.5q114 0 184 84t70 211v125
q0 128 -70 212.5t-184 84.5q-115 0 -184.5 -96.5t-69.5 -262.5z" />
    <glyph glyph-name="Emacron" unicode="&#x112;" horiz-adv-x="1288" 
d="M188 0q-41 0 -41 41v1352q0 41 41 41h967q41 0 41 -41v-166q0 -41 -41 -41h-678q-12 0 -12 -12v-304q0 -12 12 -12h602q41 0 41 -41v-158q0 -41 -41 -41h-602q-12 0 -12 -12v-346q0 -12 12 -12h676q41 0 41 -41v-166q0 -41 -41 -41h-965zM377 1577q-41 0 -41 41v115
q0 41 41 41h592q41 0 41 -41v-115q0 -41 -41 -41h-592z" />
    <glyph glyph-name="emacron" unicode="&#x113;" horiz-adv-x="1224" 
d="M631 -33q-251 0 -396 147t-145 418q0 253 142.5 405.5t383.5 152.5q221 0 366.5 -150.5t145.5 -382.5q0 -16 -2 -45q0 -43 -41 -43h-704q-12 0 -12 -12q9 -126 80.5 -197.5t183.5 -71.5q155 0 209 97q18 30 49 30h170q22 0 32.5 -10.5t4.5 -28.5q-40 -139 -167 -224
t-300 -85zM315 1223q-41 0 -41 41v114q0 41 41 41h592q41 0 41 -41v-114q0 -41 -41 -41h-592zM373 655q-3 -12 10 -12h446q14 0 11 12q-14 99 -74.5 156t-153.5 57q-97 0 -161.5 -56t-77.5 -157z" />
    <glyph glyph-name="Ebreve" unicode="&#x114;" horiz-adv-x="1288" 
d="M188 0q-41 0 -41 41v1352q0 41 41 41h967q41 0 41 -41v-166q0 -41 -41 -41h-678q-12 0 -12 -12v-304q0 -12 12 -12h602q41 0 41 -41v-158q0 -41 -41 -41h-602q-12 0 -12 -12v-346q0 -12 12 -12h676q41 0 41 -41v-166q0 -41 -41 -41h-965zM334 1810q-3 20 7.5 31.5
t31.5 11.5h133q34 0 43 -36q12 -47 44.5 -72t78.5 -25t78.5 25t44.5 72q9 36 43 36h133q21 0 31.5 -11.5t7.5 -31.5q-22 -127 -113 -200.5t-225 -73.5q-135 0 -226.5 73.5t-111.5 200.5z" />
    <glyph glyph-name="ebreve" unicode="&#x115;" horiz-adv-x="1224" 
d="M631 -33q-251 0 -396 147t-145 418q0 253 142.5 405.5t383.5 152.5q221 0 366.5 -150.5t145.5 -382.5q0 -16 -2 -45q0 -43 -41 -43h-704q-12 0 -12 -12q9 -126 80.5 -197.5t183.5 -71.5q155 0 209 97q18 30 49 30h170q22 0 32.5 -10.5t4.5 -28.5q-40 -139 -167 -224
t-300 -85zM274 1444q-4 20 6 31.5t31 11.5h133q33 0 45 -37q27 -90 123 -90q93 0 121 90q12 37 45 37h133q21 0 31.5 -11.5t7.5 -31.5q-22 -119 -114 -190.5t-224 -71.5t-224 71.5t-114 190.5zM373 655q-3 -12 10 -12h446q14 0 11 12q-14 99 -74.5 156t-153.5 57
q-97 0 -161.5 -56t-77.5 -157z" />
    <glyph glyph-name="Edotaccent" unicode="&#x116;" horiz-adv-x="1288" 
d="M188 0q-41 0 -41 41v1352q0 41 41 41h967q41 0 41 -41v-166q0 -41 -41 -41h-678q-12 0 -12 -12v-304q0 -12 12 -12h602q41 0 41 -41v-158q0 -41 -41 -41h-602q-12 0 -12 -12v-346q0 -12 12 -12h676q41 0 41 -41v-166q0 -41 -41 -41h-965zM502 1704q0 69 50.5 120.5
t119.5 51.5q70 0 120 -50t50 -122q0 -70 -50 -119t-120 -49q-69 0 -119.5 49.5t-50.5 118.5z" />
    <glyph glyph-name="edotaccent" unicode="&#x117;" horiz-adv-x="1224" 
d="M631 -33q-251 0 -396 147t-145 418q0 253 142.5 405.5t383.5 152.5q221 0 366.5 -150.5t145.5 -382.5q0 -16 -2 -45q0 -43 -41 -43h-704q-12 0 -12 -12q9 -126 80.5 -197.5t183.5 -71.5q155 0 209 97q18 30 49 30h170q22 0 32.5 -10.5t4.5 -28.5q-40 -139 -167 -224
t-300 -85zM373 655q-3 -12 10 -12h446q14 0 11 12q-14 99 -74.5 156t-153.5 57q-97 0 -161.5 -56t-77.5 -157zM444 1370q0 69 49.5 119.5t118.5 50.5q70 0 120 -49.5t50 -120.5q0 -70 -50 -119t-120 -49q-69 0 -118.5 49.5t-49.5 118.5z" />
    <glyph glyph-name="Eogonek" unicode="&#x118;" horiz-adv-x="1288" 
d="M188 0q-41 0 -41 41v1352q0 41 41 41h967q41 0 41 -41v-166q0 -41 -41 -41h-678q-12 0 -12 -12v-304q0 -12 12 -12h602q41 0 41 -41v-158q0 -41 -41 -41h-602q-12 0 -12 -12v-346q0 -12 12 -12h676q41 0 41 -41v-174q0 -30 -31 -49q-125 -66 -125 -142q0 -34 24 -51.5
t58 -17.5q21 0 29 2q45 9 45 -33v-72q0 -38 -31 -47q-46 -18 -100 -18q-104 0 -165.5 51t-61.5 129q0 72 53.5 121.5t152.5 66.5q12 2 16.5 8.5t0 12.5t-16.5 6h-854z" />
    <glyph glyph-name="eogonek" unicode="&#x119;" horiz-adv-x="1224" 
d="M627 -33q-249 0 -393 147t-144 418q0 253 142.5 405.5t383.5 152.5q221 0 366.5 -150.5t145.5 -382.5q0 -16 -2 -45q0 -43 -41 -43h-704q-12 0 -12 -12q9 -128 81.5 -198.5t180.5 -70.5q157 0 211 97q18 30 49 30h170q22 0 32.5 -12.5t4.5 -32.5q-59 -186 -281 -270
q-153 -75 -153 -158q0 -35 23 -52t58 -17q21 0 29 2q45 9 45 -33v-72q0 -36 -33 -47q-59 -18 -118 -18q-89 0 -148 43.5t-59 124.5q0 59 44.5 97.5t131.5 70.5q12 5 10.5 15.5t-16.5 10.5h-4zM375 655q-3 -12 10 -12h442q14 0 11 12q-9 95 -70 154t-156 59
q-98 0 -162.5 -56.5t-74.5 -156.5z" />
    <glyph glyph-name="Ecaron" unicode="&#x11a;" horiz-adv-x="1288" 
d="M188 0q-41 0 -41 41v1352q0 41 41 41h967q41 0 41 -41v-166q0 -41 -41 -41h-678q-12 0 -12 -12v-304q0 -12 12 -12h602q41 0 41 -41v-158q0 -41 -41 -41h-602q-12 0 -12 -12v-346q0 -12 12 -12h676q41 0 41 -41v-166q0 -41 -41 -41h-965zM338 1782q-15 20 -8.5 34.5
t32.5 14.5h144q30 0 49 -25l107 -129q3 -5 8 -5t8 5l106 129q19 25 50 25h143q26 0 32.5 -14.5t-8.5 -34.5l-170 -221q-19 -25 -49 -25h-225q-30 0 -49 25z" />
    <glyph glyph-name="ecaron" unicode="&#x11b;" horiz-adv-x="1224" 
d="M631 -33q-251 0 -396 147t-145 418q0 253 142.5 405.5t383.5 152.5q221 0 366.5 -150.5t145.5 -382.5q0 -16 -2 -45q0 -43 -41 -43h-704q-12 0 -12 -12q9 -126 80.5 -197.5t183.5 -71.5q155 0 209 97q18 30 49 30h170q22 0 32.5 -10.5t4.5 -28.5q-40 -139 -167 -224
t-300 -85zM279 1427q-15 20 -8.5 35t32.5 15h143q31 0 50 -25l106 -129q3 -5 8 -5t8 5l107 129q19 25 49 25h144q26 0 32.5 -15t-8.5 -35l-170 -221q-18 -24 -49 -24h-225q-31 0 -49 24zM373 655q-3 -12 10 -12h446q14 0 11 12q-14 99 -74.5 156t-153.5 57q-97 0 -161.5 -56
t-77.5 -157z" />
    <glyph glyph-name="Gbreve" unicode="&#x11e;" horiz-adv-x="1572" 
d="M694 -33q-128 0 -238.5 52t-191.5 147.5t-127.5 238t-46.5 314.5q0 351 183.5 549t506.5 198q235 0 396.5 -105t212.5 -292q6 -21 -4.5 -33t-32.5 -12h-248q-33 0 -47 33q-31 77 -100 118.5t-166 41.5q-177 0 -275 -131.5t-98 -360.5q0 -230 99.5 -369t283.5 -139
q142 0 239 87t111 224q3 13 -10 13h-324q-41 0 -41 41v139q0 41 41 41h588q41 0 41 -41v-680q0 -41 -41 -41h-184q-38 0 -41 39l-9 141q-1 14 -9.5 16t-14.5 -8q-66 -101 -188.5 -161t-264.5 -60zM451 1810q-3 20 7.5 31.5t30.5 11.5h134q34 0 43 -36q12 -47 44 -72t78 -25
t78.5 25t44.5 72q9 36 43 36h133q21 0 31.5 -11.5t7.5 -31.5q-22 -127 -113 -200.5t-225 -73.5q-135 0 -226 73.5t-111 200.5z" />
    <glyph glyph-name="gbreve" unicode="&#x11f;" horiz-adv-x="1269" 
d="M614 389q-109 0 -198 25q-9 3 -15 0q-29 -11 -51 -37t-22 -55q0 -35 29.5 -59.5t82.5 -24.5h406q161 0 251.5 -77t90.5 -218q0 -169 -140.5 -253.5t-435.5 -84.5q-508 0 -508 239q0 54 29.5 96t93.5 80q8 5 8.5 11.5t-6.5 11.5q-106 64 -106 193q0 69 39.5 126.5
t111.5 94.5q18 9 0 20q-133 81 -133 266q0 136 90.5 222.5t294.5 128.5l623 129q20 5 32.5 -5t12.5 -32v-129q0 -43 -43 -37l-238 29q-10 2 -13.5 -7t7.5 -16q37 -23 63 -43.5t56 -54.5t45.5 -80.5t15.5 -104.5q0 -164 -126 -259t-347 -95zM266 1444q-4 20 6 31.5t31 11.5
h133q33 0 45 -37q27 -90 123 -90q93 0 121 90q12 37 45 37h133q21 0 31.5 -11.5t7.5 -31.5q-22 -119 -114 -190.5t-224 -71.5t-224 71.5t-114 190.5zM301 -68q0 -118 305 -118q318 0 318 125q0 40 -32.5 62t-90.5 22h-367q-69 0 -101 -28t-32 -63zM410 741q0 -71 53.5 -110
t150.5 -39t151 39.5t54 109.5q0 71 -54 110.5t-151 39.5t-150.5 -39.5t-53.5 -110.5z" />
    <glyph glyph-name="Gdotaccent" unicode="&#x120;" horiz-adv-x="1572" 
d="M694 -33q-128 0 -238.5 52t-191.5 147.5t-127.5 238t-46.5 314.5q0 351 183.5 549t506.5 198q235 0 396.5 -105t212.5 -292q6 -21 -4.5 -33t-32.5 -12h-248q-33 0 -47 33q-31 77 -100 118.5t-166 41.5q-177 0 -275 -131.5t-98 -360.5q0 -230 99.5 -369t283.5 -139
q142 0 239 87t111 224q3 13 -10 13h-324q-41 0 -41 41v139q0 41 41 41h588q41 0 41 -41v-680q0 -41 -41 -41h-184q-38 0 -41 39l-9 141q-1 14 -9.5 16t-14.5 -8q-66 -101 -188.5 -161t-264.5 -60zM618 1704q0 69 50.5 120.5t119.5 51.5q70 0 120 -50t50 -122q0 -70 -50 -119
t-120 -49q-69 0 -119.5 49.5t-50.5 118.5z" />
    <glyph glyph-name="gdotaccent" unicode="&#x121;" horiz-adv-x="1269" 
d="M614 389q-109 0 -198 25q-9 3 -15 0q-29 -11 -51 -37t-22 -55q0 -35 29.5 -59.5t82.5 -24.5h406q161 0 251.5 -77t90.5 -218q0 -169 -140.5 -253.5t-435.5 -84.5q-508 0 -508 239q0 54 29.5 96t93.5 80q8 5 8.5 11.5t-6.5 11.5q-106 64 -106 193q0 69 39.5 126.5
t111.5 94.5q18 9 0 20q-133 81 -133 266q0 136 90.5 222.5t294.5 128.5l623 129q20 5 32.5 -5t12.5 -32v-129q0 -43 -43 -37l-238 29q-10 2 -13.5 -7t7.5 -16q37 -23 63 -43.5t56 -54.5t45.5 -80.5t15.5 -104.5q0 -164 -126 -259t-347 -95zM301 -68q0 -118 305 -118
q318 0 318 125q0 40 -32.5 62t-90.5 22h-367q-69 0 -101 -28t-32 -63zM410 741q0 -71 53.5 -110t150.5 -39t151 39.5t54 109.5q0 71 -54 110.5t-151 39.5t-150.5 -39.5t-53.5 -110.5zM436 1370q0 69 49.5 119.5t118.5 50.5q70 0 120 -49.5t50 -120.5q0 -70 -50 -119
t-120 -49q-69 0 -118.5 49.5t-49.5 118.5z" />
    <glyph glyph-name="uni0122" unicode="&#x122;" horiz-adv-x="1572" 
d="M694 -33q-128 0 -238.5 52t-191.5 147.5t-127.5 238t-46.5 314.5q0 351 183.5 549t506.5 198q235 0 396.5 -105t212.5 -292q6 -21 -4.5 -33t-32.5 -12h-248q-33 0 -47 33q-31 77 -100 118.5t-166 41.5q-177 0 -275 -131.5t-98 -360.5q0 -230 99.5 -369t283.5 -139
q142 0 239 87t111 224q3 13 -10 13h-324q-41 0 -41 41v139q0 41 41 41h588q41 0 41 -41v-680q0 -41 -41 -41h-184q-38 0 -41 39l-9 141q-1 14 -9.5 16t-14.5 -8q-66 -101 -188.5 -161t-264.5 -60zM627 -504q-22 0 -32 12.5t-5 32.5l72 299q9 35 45 35h174q23 0 31 -12.5
t-1 -34.5l-127 -301q-11 -31 -49 -31h-108z" />
    <glyph glyph-name="uni0123" unicode="&#x123;" horiz-adv-x="1269" 
d="M614 389q-109 0 -198 25q-9 3 -15 0q-29 -11 -51 -37t-22 -55q0 -35 29.5 -59.5t82.5 -24.5h406q161 0 251.5 -77t90.5 -218q0 -169 -140.5 -253.5t-435.5 -84.5q-508 0 -508 239q0 54 29.5 96t93.5 80q8 5 8.5 11.5t-6.5 11.5q-106 64 -106 193q0 69 39.5 126.5
t111.5 94.5q18 9 0 20q-133 81 -133 266q0 136 90.5 222.5t294.5 128.5l623 129q20 5 32.5 -5t12.5 -32v-129q0 -43 -43 -37l-238 29q-10 2 -13.5 -7t7.5 -16q37 -23 63 -43.5t56 -54.5t45.5 -80.5t15.5 -104.5q0 -164 -126 -259t-347 -95zM301 -68q0 -118 305 -118
q318 0 318 125q0 40 -32.5 62t-90.5 22h-367q-69 0 -101 -28t-32 -63zM410 741q0 -71 53.5 -110t150.5 -39t151 39.5t54 109.5q0 71 -54 110.5t-151 39.5t-150.5 -39.5t-53.5 -110.5zM510 1182q-22 0 -32 12.5t-5 32.5l72 299q9 35 45 35h174q23 0 31.5 -13t-0.5 -35
l-127 -301q-10 -30 -50 -30h-108z" />
    <glyph glyph-name="Hbar" unicode="&#x126;" horiz-adv-x="1597" 
d="M35 1214q0 41 41 41h114q13 0 13 13v125q0 41 41 41h235q41 0 41 -41v-125q0 -13 12 -13h537q12 0 12 13v125q0 41 41 41h236q41 0 41 -41v-125q0 -13 12 -13h117q41 0 41 -41v-77q0 -41 -41 -41h-117q-12 0 -12 -13v-1042q0 -41 -41 -41h-236q-41 0 -41 41v543
q0 12 -12 12h-537q-12 0 -12 -12v-543q0 -41 -41 -41h-235q-41 0 -41 41v1042q0 13 -13 13h-114q-41 0 -41 41v77zM520 854q0 -12 12 -12h537q12 0 12 12v229q0 13 -12 13h-537q-12 0 -12 -13v-229z" />
    <glyph glyph-name="hbar" unicode="&#x127;" horiz-adv-x="1368" 
d="M84 1169q-41 0 -41 41v54q0 41 41 41h94q12 0 12 12v108q0 41 41 41h211q41 0 41 -41v-108q0 -12 13 -12h260q41 0 41 -41v-54q0 -41 -41 -41h-260q-13 0 -13 -12v-239q0 -10 10.5 -12t16.5 7q57 84 145.5 130.5t200.5 46.5q162 0 271.5 -109t109.5 -299v-641
q0 -41 -41 -41h-211q-41 0 -41 41v557q0 127 -57 194.5t-160 67.5q-115 0 -179.5 -82t-64.5 -225v-512q0 -41 -41 -41h-211q-41 0 -41 41v1116q0 12 -12 12h-94z" />
    <glyph glyph-name="Itilde" unicode="&#x128;" horiz-adv-x="612" 
d="M147 1393q0 41 41 41h236q41 0 41 -41v-1352q0 -41 -41 -41h-236q-41 0 -41 41v1352zM-18 1536q-40 0 -43 39q-6 105 53 169t158 64q64 0 155 -39q58 -27 81.5 -33.5t47.5 -6.5q44 0 53 38q5 22 13 31.5t26 9.5h103q40 0 43 -39q6 -105 -52 -169t-157 -64q-60 0 -158 39
q-94 41 -129 41q-47 0 -53 -39q-5 -22 -13.5 -31.5t-27.5 -9.5h-100z" />
    <glyph glyph-name="itilde" unicode="&#x129;" horiz-adv-x="561" 
d="M133 1016q0 41 41 41h211q41 0 41 -41v-975q0 -41 -41 -41h-211q-41 0 -41 41v975zM-51 1182q-40 0 -43 39q-3 105 55.5 169t157.5 64q64 0 155 -39q88 -41 129 -41q45 0 54 39q5 22 13 31.5t26 9.5h102q40 0 43 -39q6 -105 -52.5 -169t-156.5 -64q-60 0 -158 39
q-94 41 -131 41q-45 0 -51 -39q-5 -22 -13.5 -31.5t-27.5 -9.5h-102z" />
    <glyph glyph-name="Imacron" unicode="&#x12a;" horiz-adv-x="612" 
d="M147 1393q0 41 41 41h236q41 0 41 -41v-1352q0 -41 -41 -41h-236q-41 0 -41 41v1352zM10 1577q-41 0 -41 41v115q0 41 41 41h592q41 0 41 -41v-115q0 -41 -41 -41h-592z" />
    <glyph glyph-name="imacron" unicode="&#x12b;" horiz-adv-x="561" 
d="M133 1016q0 41 41 41h211q41 0 41 -41v-975q0 -41 -41 -41h-211q-41 0 -41 41v975zM-18 1223q-41 0 -41 41v114q0 41 41 41h591q41 0 41 -41v-114q0 -41 -41 -41h-591z" />
    <glyph glyph-name="Iogonek" unicode="&#x12e;" horiz-adv-x="612" 
d="M147 1393q0 41 41 41h236q41 0 41 -41v-1360q0 -31 -29 -51q-106 -67 -106 -144q0 -37 23.5 -55.5t58.5 -18.5q8 0 20 3q43 3 43 -35v-68q0 -38 -33 -47q-44 -12 -86 -12q-104 0 -162.5 51t-58.5 129q0 68 50.5 119.5t142.5 68.5q17 3 17 15t-19 12h-138q-41 0 -41 41
v1352z" />
    <glyph glyph-name="iogonek" unicode="&#x12f;" horiz-adv-x="561" 
d="M133 1016q0 41 41 41h211q41 0 41 -41v-983q0 -32 -29 -49q-106 -69 -106 -146q0 -38 23 -56t59 -18q9 0 18 3q45 3 45 -35v-68q0 -36 -33 -47q-44 -12 -86 -12q-104 0 -162.5 51t-58.5 129q0 69 49.5 120.5t143.5 69.5q11 2 15 8t0.5 11.5t-13.5 5.5h-117q-41 0 -41 41
v975zM111 1370q0 69 50 119.5t118 50.5q70 0 121 -49.5t51 -120.5q0 -70 -51 -119t-121 -49q-68 0 -118 49.5t-50 118.5z" />
    <glyph glyph-name="Idotaccent" unicode="&#x130;" horiz-adv-x="612" 
d="M147 1393q0 41 41 41h236q41 0 41 -41v-1352q0 -41 -41 -41h-236q-41 0 -41 41v1352zM135 1704q0 69 50.5 120.5t119.5 51.5t119.5 -50t50.5 -122q0 -70 -50 -119t-120 -49q-69 0 -119.5 49.5t-50.5 118.5z" />
    <glyph glyph-name="dotlessi" unicode="&#x131;" horiz-adv-x="561" 
d="M133 1016q0 41 41 41h211q41 0 41 -41v-975q0 -41 -41 -41h-211q-41 0 -41 41v975z" />
    <glyph glyph-name="IJ" unicode="&#x132;" horiz-adv-x="1835" 
d="M147 1393q0 41 41 41h236q41 0 41 -41v-1352q0 -41 -41 -41h-236q-41 0 -41 41v1352zM698 475v39q0 41 41 41h226q41 0 41 -41v-65q0 -234 194 -234q193 0 193 260v918q0 41 41 41h233q41 0 41 -41v-901q0 -115 -27 -206t-73.5 -150t-111.5 -97.5t-137 -55t-155 -16.5
q-81 0 -150.5 14t-136.5 50t-114.5 92t-76 146t-28.5 206z" />
    <glyph glyph-name="ij" unicode="&#x133;" horiz-adv-x="1210" 
d="M156 1016q0 41 41 41h211q41 0 41 -41v-975q0 -41 -41 -41h-211q-41 0 -41 41v975zM131 1366q0 69 51 120.5t117 51.5q70 0 121 -50.5t51 -121.5q0 -69 -51.5 -118.5t-120.5 -49.5q-67 0 -117.5 50t-50.5 118zM571 -373q-34 6 -34 45v129q0 42 45 39q38 -6 67 -6
q60 0 85.5 31.5t25.5 107.5v1043q0 41 41 41h211q41 0 41 -41v-1077q0 -170 -84 -250t-234 -80q-75 0 -164 18zM735 1366q0 68 51.5 120t120.5 52t118.5 -50t49.5 -122q0 -70 -49.5 -119t-118.5 -49t-120.5 49.5t-51.5 118.5z" />
    <glyph glyph-name="uni0136" unicode="&#x136;" horiz-adv-x="1476" 
d="M188 0q-41 0 -41 41v1352q0 41 41 41h236q41 0 41 -41l-8 -615q0 -9 9 -11t15 7q34 53 117 161.5t139 176.5l248 299q17 23 51 23h281q26 0 32.5 -16t-10.5 -36l-262 -303q-185 -213 -209 -237q-8 -7 -5.5 -15.5t14.5 -9.5q98 -12 161 -66.5t111 -164.5l240 -539
q9 -22 -0.5 -34.5t-32.5 -12.5h-242q-34 0 -47 31l-190 411q-41 88 -85.5 121t-117.5 33q-29 0 -39 -12l-164 -193q-6 -9 -6 -14v-336q0 -41 -41 -41h-236zM567 -504q-22 0 -32 12.5t-5 32.5l72 299q9 35 45 35h174q23 0 31.5 -12.5t-0.5 -34.5l-127 -301q-11 -31 -49 -31
h-109z" />
    <glyph glyph-name="uni0137" unicode="&#x137;" horiz-adv-x="1212" 
d="M172 0q-41 0 -41 41v1384q0 41 41 41h205q41 0 41 -41v-469q0 -126 -8 -348q0 -10 6 -12t14 8q75 108 170 207l213 223q23 23 51 23h234q26 0 32.5 -15.5t-12.5 -35.5l-149 -156q-20 -21 -110.5 -107.5t-117.5 -113.5q-8 -7 -5.5 -14.5t12.5 -8.5q95 -13 156.5 -63.5
t101.5 -147.5l143 -348q9 -22 0.5 -34.5t-31.5 -12.5h-217q-34 0 -47 33l-84 217q-63 164 -188 164h-23q-18 0 -29 -11l-106 -112q-6 -9 -6 -15v-235q0 -41 -41 -41h-205zM438 -504q-22 0 -32 12.5t-5 32.5l72 299q9 35 45 35h174q23 0 31.5 -12.5t-0.5 -34.5l-127 -301
q-11 -31 -49 -31h-109z" />
    <glyph glyph-name="Lacute" unicode="&#x139;" horiz-adv-x="1196" 
d="M188 0q-41 0 -41 41v1352q0 41 41 41h236q41 0 41 -41v-1133q0 -12 12 -12h610q41 0 41 -41v-166q0 -41 -41 -41h-899zM94 1671q-15 38 23 53l487 197q39 16 55 -23l43 -104q15 -37 -24 -53l-492 -191q-37 -15 -53 25z" />
    <glyph glyph-name="lacute" unicode="&#x13a;" horiz-adv-x="557" 
d="M131 1425q0 41 41 41h211q41 0 41 -41v-1384q0 -41 -41 -41h-211q-41 0 -41 41v1384zM37 1704q-15 38 22 53l488 197q39 16 55 -23l43 -104q15 -37 -24 -53l-492 -191q-37 -15 -53 25z" />
    <glyph glyph-name="uni013B" unicode="&#x13b;" horiz-adv-x="1196" 
d="M188 0q-41 0 -41 41v1352q0 41 41 41h236q41 0 41 -41v-1133q0 -12 12 -12h610q41 0 41 -41v-166q0 -41 -41 -41h-899zM494 -504q-22 0 -32 12.5t-5 32.5l71 299q9 35 45 35h175q23 0 31 -12.5t-1 -34.5l-127 -301q-11 -31 -49 -31h-108z" />
    <glyph glyph-name="uni013C" unicode="&#x13c;" horiz-adv-x="557" 
d="M131 1425q0 41 41 41h211q41 0 41 -41v-1384q0 -41 -41 -41h-211q-41 0 -41 41v1384zM102 -504q-22 0 -31.5 12t-4.5 33l71 299q9 35 45 35h174q23 0 31.5 -12.5t-0.5 -34.5l-127 -301q-11 -31 -49 -31h-109z" />
    <glyph glyph-name="Lcaron" unicode="&#x13d;" horiz-adv-x="1196" 
d="M188 0q-41 0 -41 41v1352q0 41 41 41h236q41 0 41 -41v-1133q0 -12 12 -12h610q41 0 41 -41v-166q0 -41 -41 -41h-899zM618 868q-41 0 -38 43l53 484q3 39 43 39h168q22 0 31.5 -12.5t3.5 -32.5l-134 -486q-8 -35 -47 -35h-80z" />
    <glyph glyph-name="lcaron" unicode="&#x13e;" horiz-adv-x="856" 
d="M131 1425q0 41 41 41h211q41 0 41 -41v-1384q0 -41 -41 -41h-211q-41 0 -41 41v1384zM573 868q-41 0 -38 43l53 484q3 39 43 39h168q22 0 31.5 -12.5t3.5 -32.5l-134 -486q-8 -35 -47 -35h-80z" />
    <glyph glyph-name="Ldot" unicode="&#x13f;" horiz-adv-x="1232" 
d="M188 0q-41 0 -41 41v1352q0 41 41 41h236q41 0 41 -41v-1133q0 -12 12 -12h610q41 0 41 -41v-166q0 -41 -41 -41h-899zM684 717q0 69 50.5 120.5t119.5 51.5q70 0 120 -50.5t50 -121.5q0 -70 -50 -119t-120 -49q-69 0 -119.5 49.5t-50.5 118.5z" />
    <glyph glyph-name="ldot" unicode="&#x140;" horiz-adv-x="1007" 
d="M131 1425q0 41 41 41h211q41 0 41 -41v-1384q0 -41 -41 -41h-211q-41 0 -41 41v1384zM535 778q0 69 50.5 120.5t119.5 51.5t119 -50t50 -122q0 -70 -50 -119t-119 -49t-119.5 49.5t-50.5 118.5z" />
    <glyph glyph-name="Lslash" unicode="&#x141;" horiz-adv-x="1226" 
d="M82 588q-22 -9 -34.5 -1t-12.5 31v89q0 36 31 49l102 43q10 3 10 14v580q0 41 41 41h236q41 0 41 -41v-437q0 -6 4 -9.5t10 -0.5l268 115q22 9 34.5 0.5t12.5 -31.5v-90q0 -36 -30 -49l-289 -123q-10 -3 -10 -14v-494q0 -12 12 -12h610q41 0 41 -41v-166q0 -41 -41 -41
h-899q-41 0 -41 41v571q0 6 -4 10t-10 1z" />
    <glyph glyph-name="lslash" unicode="&#x142;" horiz-adv-x="669" 
d="M80 512q-22 -10 -35.5 -1t-13.5 32v61q0 33 28 47l121 62q8 3 8 14v698q0 41 41 41h211q41 0 41 -41v-544q0 -6 4.5 -9t10.5 0l96 50q22 10 35.5 1t13.5 -32v-62q0 -33 -29 -47l-123 -63q-8 -3 -8 -14v-664q0 -41 -41 -41h-211q-41 0 -41 41v510q0 15 -14 8z" />
    <glyph glyph-name="Nacute" unicode="&#x143;" horiz-adv-x="1525" 
d="M451 1010q0 -74 1 -223t1 -226v-520q0 -41 -41 -41h-224q-41 0 -41 41v1352q0 41 41 41h273q35 0 49 -29l336 -586q19 -33 73 -125t86.5 -150t49.5 -91q4 -8 8.5 -10t8 1.5t3.5 12.5q0 84 -3 221.5t-3 198.5v516q0 41 41 41h227q41 0 41 -41v-1352q0 -41 -41 -41h-262
q-35 0 -49 29l-313 546q-150 264 -240 441q-6 12 -14 10t-8 -16zM549 1671q-15 38 22 53l488 197q39 16 55 -23l43 -104q15 -37 -24 -53l-492 -191q-37 -15 -53 25z" />
    <glyph glyph-name="nacute" unicode="&#x144;" horiz-adv-x="1308" 
d="M172 0q-41 0 -41 41v975q0 41 41 41h205q19 0 30 -11t13 -30l4 -98q0 -10 10.5 -12t16.5 7q56 83 144.5 130t195.5 47q167 0 277 -109t110 -299v-641q0 -41 -41 -41h-211q-41 0 -41 41v557q0 127 -57 194.5t-160 67.5q-115 0 -179.5 -82t-64.5 -225v-512q0 -41 -41 -41
h-211zM412 1317q-15 38 22 53l490 197q39 15 53 -23l43 -104q15 -38 -25 -54l-491 -190q-37 -15 -53 25z" />
    <glyph glyph-name="uni0145" unicode="&#x145;" horiz-adv-x="1525" 
d="M451 1010q0 -74 1 -223t1 -226v-520q0 -41 -41 -41h-224q-41 0 -41 41v1352q0 41 41 41h273q35 0 49 -29l336 -586q19 -33 73 -125t86.5 -150t49.5 -91q4 -8 8.5 -10t8 1.5t3.5 12.5q0 84 -3 221.5t-3 198.5v516q0 41 41 41h227q41 0 41 -41v-1352q0 -41 -41 -41h-262
q-35 0 -49 29l-313 546q-150 264 -240 441q-6 12 -14 10t-8 -16zM590 -504q-22 0 -32 12.5t-5 32.5l72 299q9 35 45 35h174q23 0 31 -12.5t-1 -34.5l-126 -301q-11 -31 -50 -31h-108z" />
    <glyph glyph-name="uni0146" unicode="&#x146;" horiz-adv-x="1308" 
d="M172 0q-41 0 -41 41v975q0 41 41 41h205q19 0 30 -11t13 -30l4 -98q0 -10 10.5 -12t16.5 7q56 83 144.5 130t195.5 47q167 0 277 -109t110 -299v-641q0 -41 -41 -41h-211q-41 0 -41 41v557q0 127 -57 194.5t-160 67.5q-115 0 -179.5 -82t-64.5 -225v-512q0 -41 -41 -41
h-211zM500 -504q-22 0 -32 12.5t-5 32.5l72 299q9 35 45 35h174q23 0 31 -12.5t-1 -34.5l-127 -301q-11 -31 -49 -31h-108z" />
    <glyph glyph-name="Ncaron" unicode="&#x147;" horiz-adv-x="1525" 
d="M451 1010q0 -74 1 -223t1 -226v-520q0 -41 -41 -41h-224q-41 0 -41 41v1352q0 41 41 41h273q35 0 49 -29l336 -586q19 -33 73 -125t86.5 -150t49.5 -91q4 -8 8.5 -10t8 1.5t3.5 12.5q0 84 -3 221.5t-3 198.5v516q0 41 41 41h227q41 0 41 -41v-1352q0 -41 -41 -41h-262
q-35 0 -49 29l-313 546q-150 264 -240 441q-6 12 -14 10t-8 -16zM457 1782q-15 20 -8.5 34.5t32.5 14.5h144q30 0 49 -25l106 -129q3 -5 8.5 -5t8.5 5l106 129q19 25 49 25h144q26 0 32.5 -14.5t-8.5 -34.5l-170 -221q-19 -25 -49 -25h-225q-30 0 -49 25z" />
    <glyph glyph-name="ncaron" unicode="&#x148;" horiz-adv-x="1308" 
d="M172 0q-41 0 -41 41v975q0 41 41 41h205q19 0 30 -11t13 -30l4 -98q0 -10 10.5 -12t16.5 7q56 83 144.5 130t195.5 47q167 0 277 -109t110 -299v-641q0 -41 -41 -41h-211q-41 0 -41 41v557q0 127 -57 194.5t-160 67.5q-115 0 -179.5 -82t-64.5 -225v-512q0 -41 -41 -41
h-211zM328 1427q-15 20 -8.5 35t32.5 15h144q30 0 49 -25l106 -129q3 -5 8.5 -5t8.5 5l106 129q19 25 49 25h144q26 0 32.5 -15t-8.5 -35l-170 -221q-18 -24 -49 -24h-225q-31 0 -49 24z" />
    <glyph glyph-name="Eng" unicode="&#x14a;" horiz-adv-x="1525" 
d="M1378 0q0 -403 -389 -403q-91 0 -207 22q-37 9 -37 45v133q0 43 46 37q75 -10 112 -10q72 0 108.5 38t39.5 126q0 12 -4 12h-5l-329 575q-150 264 -240 441q-6 12 -14 10t-8 -16q0 -74 1 -223t1 -226v-520q0 -41 -41 -41h-224q-41 0 -41 41v1352q0 41 41 41h273
q35 0 49 -29l336 -586q19 -33 73 -125t86.5 -150t49.5 -91q4 -8 8.5 -10t8 1.5t3.5 12.5q0 84 -3 221.5t-3 198.5v516q0 41 41 41h227q41 0 41 -41v-1393z" />
    <glyph glyph-name="eng" unicode="&#x14b;" horiz-adv-x="1308" 
d="M844 -393q-89 0 -174 14q-37 9 -37 45v129q0 43 45 37q50 -6 84 -6q67 0 95 25t28 86v661q0 129 -56.5 195.5t-166.5 66.5q-106 0 -172 -82t-66 -225v-512q0 -41 -41 -41h-211q-41 0 -41 41v975q0 41 41 41h205q19 0 31 -11t12 -30l4 -199q0 -11 9.5 -11.5t12.5 9.5
q38 133 132 204t229 71q155 0 263 -109.5t108 -298.5v-752q0 -159 -89 -241t-245 -82z" />
    <glyph glyph-name="Omacron" unicode="&#x14c;" horiz-adv-x="1572" 
d="M784 -31q-321 0 -507.5 201.5t-186.5 548.5q0 346 186.5 546.5t507.5 200.5q323 0 511 -200t188 -547t-187.5 -548.5t-511.5 -201.5zM420 719q0 -246 95 -374t269 -128q177 0 273 128t96 374q0 242 -97 370t-272 128q-173 0 -268.5 -128t-95.5 -370zM496 1577
q-41 0 -41 41v115q0 41 41 41h591q41 0 41 -41v-115q0 -41 -41 -41h-591z" />
    <glyph glyph-name="omacron" unicode="&#x14d;" horiz-adv-x="1280" 
d="M641 -33q-118 0 -219.5 40.5t-175 113.5t-115 179t-41.5 232q0 248 155.5 403t395.5 155q239 0 394 -155t155 -403q0 -253 -155 -409t-394 -156zM344 1223q-41 0 -41 41v114q0 41 41 41h592q41 0 41 -41v-114q0 -41 -41 -41h-592zM385 532q0 -166 67 -254t189 -88
q121 0 187.5 88.5t66.5 253.5q0 161 -67 247.5t-187 86.5q-122 0 -189 -86t-67 -248z" />
    <glyph glyph-name="Ohungarumlaut" unicode="&#x150;" horiz-adv-x="1572" 
d="M784 -31q-321 0 -507.5 201.5t-186.5 548.5q0 346 186.5 546.5t507.5 200.5q323 0 511 -200t188 -547t-187.5 -548.5t-511.5 -201.5zM420 719q0 -246 95 -374t269 -128q177 0 273 128t96 374q0 242 -97 370t-272 128q-173 0 -268.5 -128t-95.5 -370zM532 1610
q-32 22 -14 57l152 268q18 35 55 13l129 -88q17 -10 18.5 -26.5t-10.5 -31.5l-194 -235q-27 -30 -58 -8zM911 1610q-32 22 -14 57l152 268q18 35 55 13l131 -88q17 -10 18.5 -26.5t-10.5 -31.5l-196 -235q-27 -30 -58 -8z" />
    <glyph glyph-name="ohungarumlaut" unicode="&#x151;" horiz-adv-x="1280" 
d="M641 -33q-118 0 -219.5 40.5t-175 113.5t-115 179t-41.5 232q0 248 155.5 403t395.5 155q239 0 394 -155t155 -403q0 -253 -155 -409t-394 -156zM383 1255q-32 23 -14 58l151 268q18 35 55 12l130 -88q17 -10 18.5 -26t-10.5 -31l-195 -236q-26 -30 -57 -8zM385 532
q0 -166 67 -254t189 -88q121 0 187.5 88.5t66.5 253.5q0 161 -67 247.5t-187 86.5q-122 0 -189 -86t-67 -248zM762 1255q-32 23 -14 58l151 268q18 35 55 12l131 -88q17 -10 19 -26t-10 -31l-197 -236q-26 -30 -57 -8z" />
    <glyph glyph-name="OE" unicode="&#x152;" horiz-adv-x="2322" 
d="M758 -31q-308 3 -488 205t-180 545q0 345 183 546t487 201q90 0 177.5 -24.5t152.5 -67.5q40 -30 75 -78q8 -11 13 -6q4 4 4 13v90q0 41 41 41h966q41 0 41 -41v-166q0 -41 -41 -41h-678q-12 0 -12 -12v-304q0 -12 12 -12h603q40 0 40 -41v-158q0 -41 -40 -41h-603
q-12 0 -12 -12v-346q0 -12 12 -12h678q41 0 41 -41v-166q0 -41 -41 -41h-966q-41 0 -41 41v92q0 8 -4 12q-7 3 -13 -6q-37 -48 -47 -55q-142 -118 -360 -115zM420 719q0 -246 97 -374t269 -128q173 0 271 128.5t98 373.5q0 240 -98.5 369t-270.5 129t-269 -128t-97 -370z
" />
    <glyph glyph-name="oe" unicode="&#x153;" horiz-adv-x="2031" 
d="M641 -33q-153 0 -277.5 67t-199 197.5t-74.5 300.5q0 167 74.5 295.5t199 195.5t277.5 67q240 0 383 -172q14 -16 27 0q142 172 370 172q226 0 370 -151.5t144 -381.5q0 -33 -2 -49q0 -39 -41 -39h-706q-12 0 -12 -12q10 -130 84 -199.5t182 -69.5q155 0 209 97
q18 30 49 30h170q22 0 32 -12.5t3 -32.5q-42 -136 -167.5 -219.5t-295.5 -83.5q-246 0 -391 174q-15 17 -27 0q-124 -174 -381 -174zM385 532q0 -167 67.5 -254.5t188.5 -87.5q120 0 188 88t68 254q0 162 -68 248t-188 86q-121 0 -188.5 -85.5t-67.5 -248.5zM1180 657
q-3 -14 12 -14h444q14 0 11 14q-17 102 -77 156.5t-151 54.5q-95 0 -158 -53t-81 -158z" />
    <glyph glyph-name="Racute" unicode="&#x154;" horiz-adv-x="1404" 
d="M188 0q-41 0 -41 41v1352q0 41 41 41h674q202 0 316 -95t114 -260q0 -140 -73.5 -242t-149.5 -116q-13 -3 -13 -13.5t13 -13.5q153 -35 188 -254l64 -397q3 -20 -7.5 -31.5t-31.5 -11.5h-244q-37 0 -43 39l-39 289q-15 113 -63 149.5t-174 36.5h-242q-12 0 -12 -12v-461
q0 -41 -41 -41h-236zM440 1671q-15 38 23 53l487 197q40 16 56 -23l43 -104q15 -37 -25 -53l-492 -191q-37 -15 -53 25zM465 750q0 -13 12 -13h279q102 0 165.5 65.5t63.5 170.5q0 98 -61 155.5t-164 57.5h-283q-12 0 -12 -12v-424z" />
    <glyph glyph-name="racute" unicode="&#x155;" horiz-adv-x="923" 
d="M172 0q-41 0 -41 41v975q0 41 41 41h203q19 0 31 -11t12 -30l6 -180q0 -11 8 -11.5t12 9.5q18 41 34 70t45 62t65 54t91.5 36.5t125.5 18.5q43 0 43 -41v-166q0 -38 -41 -41q-173 -14 -270 -86q-113 -88 -113 -335v-365q0 -41 -41 -41h-211zM223 1317q-15 38 23 53
l489 197q39 15 53 -23l43 -104q15 -38 -24 -54l-492 -190q-37 -15 -53 25z" />
    <glyph glyph-name="uni0156" unicode="&#x156;" horiz-adv-x="1404" 
d="M188 0q-41 0 -41 41v1352q0 41 41 41h674q202 0 316 -95t114 -260q0 -140 -73.5 -242t-149.5 -116q-13 -3 -13 -13.5t13 -13.5q153 -35 188 -254l64 -397q3 -20 -7.5 -31.5t-31.5 -11.5h-244q-37 0 -43 39l-39 289q-15 113 -63 149.5t-174 36.5h-242q-12 0 -12 -12v-461
q0 -41 -41 -41h-236zM465 750q0 -13 12 -13h279q102 0 165.5 65.5t63.5 170.5q0 98 -61 155.5t-164 57.5h-283q-12 0 -12 -12v-424zM575 -504q-21 0 -31 12t-5 33l71 299q9 35 45 35h174q23 0 31.5 -12.5t-0.5 -34.5l-127 -301q-11 -31 -49 -31h-109z" />
    <glyph glyph-name="uni0157" unicode="&#x157;" horiz-adv-x="923" 
d="M172 0q-41 0 -41 41v975q0 41 41 41h203q19 0 31 -11t12 -30l6 -180q0 -11 8 -11.5t12 9.5q18 41 34 70t45 62t65 54t91.5 36.5t125.5 18.5q43 0 43 -41v-166q0 -38 -41 -41q-173 -14 -270 -86q-113 -88 -113 -335v-365q0 -41 -41 -41h-211zM109 -504q-22 0 -32 12.5
t-5 32.5l71 299q9 35 45 35h174q23 0 31.5 -12.5t-0.5 -34.5l-127 -301q-11 -31 -49 -31h-108z" />
    <glyph glyph-name="Rcaron" unicode="&#x158;" horiz-adv-x="1404" 
d="M188 0q-41 0 -41 41v1352q0 41 41 41h674q202 0 316 -95t114 -260q0 -140 -73.5 -242t-149.5 -116q-13 -3 -13 -13.5t13 -13.5q153 -35 188 -254l64 -397q3 -20 -7.5 -31.5t-31.5 -11.5h-244q-37 0 -43 39l-39 289q-15 113 -63 149.5t-174 36.5h-242q-12 0 -12 -12v-461
q0 -41 -41 -41h-236zM348 1782q-15 20 -8 34.5t33 14.5h143q30 0 49 -25l107 -129q3 -5 8 -5t8 5l107 129q19 25 49 25h143q26 0 33 -14.5t-8 -34.5l-170 -221q-19 -25 -49 -25h-226q-30 0 -49 25zM465 750q0 -13 12 -13h279q102 0 165.5 65.5t63.5 170.5q0 98 -61 155.5
t-164 57.5h-283q-12 0 -12 -12v-424z" />
    <glyph glyph-name="rcaron" unicode="&#x159;" horiz-adv-x="923" 
d="M172 0q-41 0 -41 41v975q0 41 41 41h203q19 0 31 -11t12 -30l6 -180q0 -11 8 -11.5t12 9.5q18 41 34 70t45 62t65 54t91.5 36.5t125.5 18.5q43 0 43 -41v-166q0 -38 -41 -41q-173 -14 -270 -86q-113 -88 -113 -335v-365q0 -41 -41 -41h-211zM139 1427q-15 20 -8 35t33 15
h143q30 0 49 -25l107 -129q3 -5 8 -5t8 5l107 129q19 25 49 25h143q26 0 33 -15t-8 -35l-170 -221q-18 -24 -49 -24h-226q-31 0 -49 24z" />
    <glyph glyph-name="Sacute" unicode="&#x15a;" horiz-adv-x="1374" 
d="M690 -31q-262 0 -419 99.5t-183 281.5q-3 20 7.5 31.5t31.5 11.5h235q35 0 46 -33q58 -140 286 -143q138 -1 209.5 46t71.5 138q0 75 -66 115.5t-190 67.5l-121 26q-44 10 -71 16.5t-72.5 19.5t-74.5 25t-68.5 32.5t-65.5 42.5t-54 54t-44 67.5t-26.5 82.5t-10.5 101
q0 188 155 300.5t424 112.5q250 0 399 -104.5t171 -292.5q6 -43 -39 -43h-224q-34 0 -43 37q-41 153 -270 153q-120 0 -187 -45t-67 -125q0 -42 19.5 -73.5t59.5 -53.5t81.5 -35.5t103.5 -27.5l140 -31q56 -12 91 -21t89 -27t88.5 -37t75 -50.5t63.5 -68t39 -89t16 -114.5
q0 -213 -159 -330t-447 -117zM444 1671q-15 38 23 53l487 197q40 16 56 -23l43 -104q15 -37 -25 -53l-491 -191q-38 -15 -54 25z" />
    <glyph glyph-name="sacute" unicode="&#x15b;" horiz-adv-x="1126" 
d="M569 -33q-429 0 -493 303q-4 21 6 33t31 12h206q34 0 46 -34q47 -111 208 -111q90 0 142.5 32t52.5 87q0 49 -44 71.5t-146 42.5l-117 23q-75 14 -136.5 38t-117 63t-86.5 98.5t-31 134.5q0 151 123 240.5t340 89.5q199 0 323 -79t148 -235q3 -20 -7.5 -31.5t-31.5 -11.5
h-192q-34 0 -43 37q-34 117 -189 117q-85 0 -133.5 -31t-48.5 -86q0 -51 45.5 -79.5t148.5 -49.5l113 -23q38 -8 64 -14t68.5 -19.5t71.5 -28t63.5 -39.5t55.5 -54.5t35.5 -71.5t14.5 -92q0 -157 -130.5 -244.5t-359.5 -87.5zM297 1317q-15 38 22 53l490 197q39 15 53 -23
l43 -104q15 -38 -24 -54l-492 -190q-37 -15 -53 25z" />
    <glyph glyph-name="Scedilla" unicode="&#x15e;" horiz-adv-x="1374" 
d="M641 -440q-72 0 -139 20q-33 9 -33 45v33q0 44 45 35q52 -10 82 -10q102 0 102 71q0 34 -33.5 50t-84.5 16q-43 -3 -43 37v6q0 31 30 49q30 20 41 45q3 6 -0.5 10t-9.5 4q-222 17 -354.5 115.5t-155.5 263.5q-3 20 7.5 31.5t31.5 11.5h235q35 0 46 -33q58 -140 286 -143
q138 -1 209.5 46t71.5 138q0 75 -66 115.5t-190 67.5l-121 26q-44 10 -71 16.5t-72.5 19.5t-74.5 25t-68.5 32.5t-65.5 42.5t-54 54t-44 67.5t-26.5 82.5t-10.5 101q0 188 155 300.5t424 112.5q250 0 399 -104.5t171 -292.5q6 -43 -39 -43h-224q-34 0 -43 37
q-41 153 -270 153q-120 0 -187 -45t-67 -125q0 -42 19.5 -73.5t59.5 -53.5t81.5 -35.5t103.5 -27.5l140 -31q56 -12 91 -21t89 -27t88.5 -37t75 -50.5t63.5 -68t39 -89t16 -114.5q0 -200 -140 -315t-396 -130q-10 0 -15 -10q-14 -32 -57 -47q-10 -7 -10 -10q0 -4 12 -4h17
q84 0 140 -43t56 -109q0 -90 -76 -139t-186 -49z" />
    <glyph glyph-name="scedilla" unicode="&#x15f;" horiz-adv-x="1126" 
d="M530 -440q-72 0 -139 20q-33 9 -33 45v33q0 44 45 35q52 -10 82 -10q103 0 103 71q0 34 -34 50t-85 16q-43 -3 -43 37v6q0 30 31 49q29 20 41 43q1 6 -2 10t-9 4q-350 27 -411 301q-4 21 6 33t31 12h206q34 0 46 -34q47 -111 208 -111q90 0 142.5 32t52.5 87
q0 49 -44 71.5t-146 42.5l-117 23q-75 14 -136.5 38t-117 63t-86.5 98.5t-31 134.5q0 151 123 240.5t340 89.5q199 0 323 -79t148 -235q3 -20 -7.5 -31.5t-31.5 -11.5h-192q-34 0 -43 37q-34 117 -189 117q-85 0 -133.5 -31t-48.5 -86q0 -51 45.5 -79.5t148.5 -49.5l113 -23
q38 -8 64 -14t68.5 -19.5t71.5 -28t63.5 -39.5t55.5 -54.5t35.5 -71.5t14.5 -92q0 -143 -108 -229t-302 -101q-9 0 -14 -8q-17 -33 -57 -47q-11 -7 -11 -10q0 -4 13 -4h16q84 0 140.5 -43t56.5 -109q0 -90 -76.5 -139t-186.5 -49z" />
    <glyph glyph-name="Scaron" unicode="&#x160;" horiz-adv-x="1374" 
d="M690 -31q-262 0 -419 99.5t-183 281.5q-3 20 7.5 31.5t31.5 11.5h235q35 0 46 -33q58 -140 286 -143q138 -1 209.5 46t71.5 138q0 75 -66 115.5t-190 67.5l-121 26q-44 10 -71 16.5t-72.5 19.5t-74.5 25t-68.5 32.5t-65.5 42.5t-54 54t-44 67.5t-26.5 82.5t-10.5 101
q0 188 155 300.5t424 112.5q250 0 399 -104.5t171 -292.5q6 -43 -39 -43h-224q-34 0 -43 37q-41 153 -270 153q-120 0 -187 -45t-67 -125q0 -42 19.5 -73.5t59.5 -53.5t81.5 -35.5t103.5 -27.5l140 -31q56 -12 91 -21t89 -27t88.5 -37t75 -50.5t63.5 -68t39 -89t16 -114.5
q0 -213 -159 -330t-447 -117zM352 1782q-15 20 -8 34.5t33 14.5h143q30 0 49 -25l107 -129q3 -5 8 -5t8 5l107 129q19 25 49 25h143q26 0 33 -14.5t-8 -34.5l-170 -221q-19 -25 -49 -25h-226q-30 0 -49 25z" />
    <glyph glyph-name="scaron" unicode="&#x161;" horiz-adv-x="1126" 
d="M569 -33q-429 0 -493 303q-4 21 6 33t31 12h206q34 0 46 -34q47 -111 208 -111q90 0 142.5 32t52.5 87q0 49 -44 71.5t-146 42.5l-117 23q-75 14 -136.5 38t-117 63t-86.5 98.5t-31 134.5q0 151 123 240.5t340 89.5q199 0 323 -79t148 -235q3 -20 -7.5 -31.5t-31.5 -11.5
h-192q-34 0 -43 37q-34 117 -189 117q-85 0 -133.5 -31t-48.5 -86q0 -51 45.5 -79.5t148.5 -49.5l113 -23q38 -8 64 -14t68.5 -19.5t71.5 -28t63.5 -39.5t55.5 -54.5t35.5 -71.5t14.5 -92q0 -157 -130.5 -244.5t-359.5 -87.5zM213 1427q-15 20 -8 35t33 15h143q30 0 49 -25
l107 -129q3 -5 8 -5t8 5l106 129q19 25 50 25h143q26 0 33 -15t-8 -35l-170 -221q-18 -24 -50 -24h-225q-31 0 -49 24z" />
    <glyph glyph-name="uni0162" unicode="&#x162;" horiz-adv-x="1304" 
d="M109 1186q-41 0 -41 41v166q0 41 41 41h1087q41 0 41 -41v-166q0 -41 -41 -41h-369q-12 0 -12 -12v-1133q0 -41 -41 -41h-37q-12 0 -12 -12q-4 -25 -23 -45t-45 -29q-10 -7 -10 -10q0 -4 12 -4h17q84 0 140 -43t56 -109q0 -90 -76 -139t-186 -49q-72 0 -139 20
q-33 9 -33 45v33q0 44 45 35q52 -10 82 -10q103 0 103 71q0 34 -34 50t-85 16q-43 -3 -43 37v6q0 30 31 49q43 26 49 76q0 12 -13 12h-32q-41 0 -41 41v1133q0 12 -13 12h-378z" />
    <glyph glyph-name="uni0163" unicode="&#x163;" horiz-adv-x="880" 
d="M106 877q-40 0 -40 41v98q0 41 40 41h101q12 0 12 12v223q0 41 41 41h205q41 0 41 -41v-223q0 -12 12 -12h238q41 0 41 -41v-98q0 -41 -41 -41h-230q-12 0 -12 -13v-499q0 -86 30 -121t105 -35q45 0 103 12q45 9 45 -37v-127q0 -37 -35 -45q-61 -17 -148 -28
q-8 0 -12 -11q-6 -20 -23.5 -35.5t-39.5 -23.5q-11 -7 -11 -10q0 -4 13 -4h16q84 0 140.5 -43t56.5 -109q0 -90 -76 -139t-186 -49q-73 0 -140 20q-33 9 -33 45v33q0 45 46 35q52 -10 81 -10q103 0 103 71q0 34 -34 50t-85 16q-43 -3 -43 37v8q0 28 31 47q39 25 47 68
q3 11 -10 14q-123 22 -179.5 100.5t-56.5 229.5v540q0 13 -12 13h-101z" />
    <glyph glyph-name="Tcaron" unicode="&#x164;" horiz-adv-x="1304" 
d="M109 1186q-41 0 -41 41v166q0 41 41 41h1087q41 0 41 -41v-166q0 -41 -41 -41h-369q-12 0 -12 -12v-1133q0 -41 -41 -41h-233q-41 0 -41 41v1133q0 12 -13 12h-378zM322 1782q-15 20 -8.5 34.5t32.5 14.5h143q31 0 50 -25l106 -129q3 -5 8.5 -5t8.5 5l106 129
q19 25 49 25h144q26 0 32.5 -14.5t-8.5 -34.5l-170 -221q-19 -25 -49 -25h-225q-30 0 -49 25z" />
    <glyph glyph-name="tcaron" unicode="&#x165;" horiz-adv-x="880" 
d="M106 877q-40 0 -40 41v98q0 41 40 41h101q12 0 12 12v223q0 41 41 41h205q41 0 41 -41v-223q0 -12 12 -12h238q41 0 41 -41v-98q0 -41 -41 -41h-230q-12 0 -12 -13v-499q0 -86 30 -121t105 -35q45 0 103 12q45 9 45 -37v-127q0 -37 -35 -45q-98 -28 -189 -28
q-187 0 -270.5 79t-83.5 261v540q0 13 -12 13h-101zM635 1135q-21 0 -31.5 11.5t-7.5 31.5l49 342q5 36 45 36h166q22 0 31 -12.5t2 -34.5l-115 -342q-11 -32 -47 -32h-92z" />
    <glyph glyph-name="Tbar" unicode="&#x166;" horiz-adv-x="1304" 
d="M274 647q-41 0 -41 41v78q0 41 41 41h213q13 0 13 12v355q0 12 -13 12h-378q-41 0 -41 41v166q0 41 41 41h1087q41 0 41 -41v-166q0 -41 -41 -41h-369q-12 0 -12 -12v-355q0 -12 12 -12h201q41 0 41 -41v-78q0 -41 -41 -41h-201q-12 0 -12 -12v-594q0 -41 -41 -41h-233
q-41 0 -41 41v594q0 12 -13 12h-213z" />
    <glyph glyph-name="tbar" unicode="&#x167;" horiz-adv-x="880" 
d="M106 494q-40 0 -40 41v53q0 41 40 41h101q12 0 12 12v223q0 13 -12 13h-101q-40 0 -40 41v98q0 41 40 41h101q12 0 12 12v223q0 41 41 41h205q41 0 41 -41v-223q0 -12 12 -12h238q41 0 41 -41v-98q0 -41 -41 -41h-230q-12 0 -12 -13v-223q0 -12 12 -12h230q41 0 41 -41
v-53q0 -41 -41 -41h-230q-12 0 -12 -13v-116q0 -86 30 -121t105 -35q45 0 103 12q45 9 45 -37v-127q0 -37 -35 -45q-98 -28 -189 -28q-187 0 -270.5 79t-83.5 261v157q0 13 -12 13h-101z" />
    <glyph glyph-name="utilde" unicode="&#x169;" horiz-adv-x="1308" 
d="M1137 1057q41 0 41 -41v-975q0 -41 -41 -41h-205q-19 0 -30 11t-13 30l-4 98q0 7 -5 10t-11.5 1.5t-10.5 -7.5q-56 -83 -144.5 -129.5t-195.5 -46.5q-167 0 -277 109t-110 299v641q0 41 41 41h211q41 0 41 -41v-557q0 -127 57 -194.5t160 -67.5q115 0 179.5 82t64.5 225
v512q0 41 41 41h211zM324 1182q-40 0 -43 39q-3 105 55.5 169t157.5 64q64 0 155 -39q88 -41 129 -41q44 0 53 39q5 22 13 31.5t26 9.5h103q40 0 43 -39q6 -105 -52.5 -169t-156.5 -64q-60 0 -158 39q-94 41 -131 41q-45 0 -51 -39q-5 -22 -13.5 -31.5t-27.5 -9.5h-102z" />
    <glyph glyph-name="Umacron" unicode="&#x16a;" horiz-adv-x="1464" 
d="M127 541v852q0 41 41 41h235q41 0 41 -41v-840q0 -160 71 -247t216 -87q289 0 289 336v838q0 41 41 41h235q41 0 41 -41v-852q0 -144 -45.5 -255t-127.5 -180t-191 -104t-242 -35q-127 0 -235.5 35.5t-191.5 104.5t-130 180t-47 254zM442 1577q-41 0 -41 41v115
q0 41 41 41h592q41 0 41 -41v-115q0 -41 -41 -41h-592z" />
    <glyph glyph-name="umacron" unicode="&#x16b;" horiz-adv-x="1308" 
d="M1137 1057q41 0 41 -41v-975q0 -41 -41 -41h-205q-19 0 -30 11t-13 30l-4 98q0 7 -5 10t-11.5 1.5t-10.5 -7.5q-56 -83 -144.5 -129.5t-195.5 -46.5q-167 0 -277 109t-110 299v641q0 41 41 41h211q41 0 41 -41v-557q0 -127 57 -194.5t160 -67.5q115 0 179.5 82t64.5 225
v512q0 41 41 41h211zM356 1223q-41 0 -41 41v114q0 41 41 41h592q41 0 41 -41v-114q0 -41 -41 -41h-592z" />
    <glyph glyph-name="Uring" unicode="&#x16e;" horiz-adv-x="1464" 
d="M127 541v852q0 41 41 41h235q41 0 41 -41v-840q0 -160 71 -247t216 -87q289 0 289 336v838q0 41 41 41h235q41 0 41 -41v-852q0 -144 -45.5 -255t-127.5 -180t-191 -104t-242 -35q-127 0 -235.5 35.5t-191.5 104.5t-130 180t-47 254zM442 1534q0 121 81.5 194.5
t213.5 73.5t213.5 -73.5t81.5 -194.5q0 -120 -81.5 -194t-213.5 -74t-213.5 74t-81.5 194zM623 1534q0 -44 31.5 -72t82.5 -28q53 0 86 28t33 72q0 45 -33 72.5t-86 27.5q-51 0 -82.5 -27t-31.5 -73z" />
    <glyph glyph-name="uring" unicode="&#x16f;" horiz-adv-x="1308" 
d="M1137 1057q41 0 41 -41v-975q0 -41 -41 -41h-205q-19 0 -30 11t-13 30l-4 98q0 7 -5 10t-11.5 1.5t-10.5 -7.5q-56 -83 -144.5 -129.5t-195.5 -46.5q-167 0 -277 109t-110 299v641q0 41 41 41h211q41 0 41 -41v-557q0 -127 57 -194.5t160 -67.5q115 0 179.5 82t64.5 225
v512q0 41 41 41h211zM358 1452q0 120 81.5 194t213.5 74t213.5 -74t81.5 -194q0 -121 -81.5 -195.5t-213.5 -74.5t-213.5 74.5t-81.5 195.5zM539 1452q0 -46 31.5 -74t82.5 -28q53 0 86 28t33 74q0 44 -33 72t-86 28q-51 0 -82.5 -28t-31.5 -72z" />
    <glyph glyph-name="Uhungarumlaut" unicode="&#x170;" horiz-adv-x="1464" 
d="M127 541v852q0 41 41 41h235q41 0 41 -41v-840q0 -160 71 -247t216 -87q289 0 289 336v838q0 41 41 41h235q41 0 41 -41v-852q0 -144 -45.5 -255t-127.5 -180t-191 -104t-242 -35q-127 0 -235.5 35.5t-191.5 104.5t-130 180t-47 254zM479 1610q-32 22 -14 57l151 268
q19 36 56 13l129 -88q17 -10 18.5 -26.5t-10.5 -31.5l-195 -235q-26 -30 -57 -8zM858 1610q-32 22 -14 57l151 268q19 36 56 13l131 -88q17 -10 18.5 -26.5t-10.5 -31.5l-197 -235q-26 -30 -57 -8z" />
    <glyph glyph-name="uhungarumlaut" unicode="&#x171;" horiz-adv-x="1308" 
d="M1137 1057q41 0 41 -41v-975q0 -41 -41 -41h-205q-19 0 -30 11t-13 30l-4 98q0 7 -5 10t-11.5 1.5t-10.5 -7.5q-56 -83 -144.5 -129.5t-195.5 -46.5q-167 0 -277 109t-110 299v641q0 41 41 41h211q41 0 41 -41v-557q0 -127 57 -194.5t160 -67.5q115 0 179.5 82t64.5 225
v512q0 41 41 41h211zM395 1255q-32 23 -14 58l151 268q18 35 56 12l129 -88q17 -10 18.5 -26t-10.5 -31l-195 -236q-26 -30 -57 -8zM774 1255q-32 23 -14 58l151 268q18 35 56 12l131 -88q17 -10 18.5 -26t-10.5 -31l-197 -236q-26 -30 -57 -8z" />
    <glyph glyph-name="Uogonek" unicode="&#x172;" horiz-adv-x="1464" 
d="M127 541v852q0 41 41 41h235q41 0 41 -41v-840q0 -160 71 -247t216 -87q289 0 289 336v838q0 41 41 41h235q41 0 41 -41v-852q0 -214 -97.5 -351t-268.5 -190q-156 -75 -156 -158q0 -34 24 -51.5t58 -17.5q21 0 29 2q45 9 45 -33v-72q0 -36 -33 -47q-58 -18 -117 -18
q-90 0 -149.5 43.5t-59.5 124.5q0 120 168 168q11 3 15 10t-1 12.5t-16 5.5q-8 0 -23.5 -1t-23.5 -1q-127 0 -235.5 35.5t-191.5 104.5t-130 180t-47 254z" />
    <glyph glyph-name="uogonek" unicode="&#x173;" horiz-adv-x="1308" 
d="M1047 -395q-103 0 -164.5 51t-61.5 129q0 73 54.5 123t154.5 67q12 2 16 8t-1.5 11.5t-16.5 5.5h-96q-19 0 -30 11t-13 30l-4 98q0 7 -5 10t-11.5 1.5t-10.5 -7.5q-57 -83 -145.5 -129.5t-200.5 -46.5q-162 0 -271.5 109t-109.5 299v641q0 41 41 41h211q41 0 41 -41v-557
q0 -127 57 -194.5t160 -67.5q115 0 179.5 82t64.5 225v512q0 41 41 41h211q41 0 41 -41v-983q0 -30 -31 -49q-123 -66 -123 -142q0 -35 23.5 -52t58.5 -17q21 0 29 2q45 9 45 -33v-72q0 -35 -29 -47q-47 -18 -104 -18z" />
    <glyph glyph-name="Wcircumflex" unicode="&#x174;" horiz-adv-x="2015" 
d="M461 0q-38 0 -47 35l-357 1354q-6 20 3.5 32.5t31.5 12.5h248q35 0 45 -37l139 -617q16 -72 76 -389q3 -16 10.5 -21.5t14.5 1t10 22.5q59 330 72 389l129 615q6 37 45 37h252q39 0 45 -37l129 -613q5 -24 36.5 -191t38.5 -200q3 -15 9.5 -21t13.5 -1t10 20q0 2 12.5 65
t32 159t35.5 167l135 615q10 37 45 37h248q22 0 31.5 -12.5t3.5 -32.5l-356 -1354q-9 -35 -46 -35h-286q-39 0 -45 37l-140 653q-4 18 -28.5 146t-32.5 170q-4 22 -17.5 22t-17.5 -20q-5 -21 -25.5 -142t-33.5 -178l-137 -651q-6 -37 -45 -37h-287zM700 1536
q-26 0 -32.5 14.5t8.5 34.5l170 221q19 25 49 25h225q30 0 49 -25l170 -221q15 -20 8.5 -34.5t-32.5 -14.5h-144q-30 0 -49 25l-106 129q-3 4 -8.5 4t-8.5 -4l-106 -129q-19 -25 -51 -25h-142z" />
    <glyph glyph-name="wcircumflex" unicode="&#x175;" horiz-adv-x="1753" 
d="M418 0q-36 0 -45 33l-316 977q-6 22 3.5 34.5t31.5 12.5h230q36 0 45 -35l61 -205q13 -46 59 -225.5t56 -235.5q2 -11 8 -14.5t12 0.5t8 14q4 22 113 461l51 205q9 35 45 35h193q36 0 45 -35l53 -205q76 -292 107 -461q2 -10 8.5 -14.5t13 -0.5t8.5 17q15 99 119 459
l59 205q8 35 48 35h225q22 0 31.5 -12.5t3.5 -34.5l-314 -977q-9 -33 -45 -33h-231q-36 0 -45 35l-168 655q-3 11 -9 15.5t-11.5 0t-8.5 -15.5l-168 -655q-9 -35 -45 -35h-231zM567 1182q-26 0 -32.5 14.5t8.5 34.5l170 221q19 25 49 25h225q30 0 49 -25l170 -221
q15 -20 8.5 -34.5t-32.5 -14.5h-142q-33 0 -51 24l-106 129q-3 5 -8.5 5t-8.5 -5l-106 -129q-18 -24 -49 -24h-144z" />
    <glyph glyph-name="Ycircumflex" unicode="&#x176;" horiz-adv-x="1415" 
d="M74 1384q-12 20 -4 35t32 15h269q33 0 49 -29l90 -168q91 -169 180 -367q8 -17 19 -17t18 17q87 191 182 367l90 168q16 29 50 29h268q25 0 33 -15t-4 -35l-474 -804q-4 -8 -4 -15v-524q0 -41 -41 -41h-235q-41 0 -41 41v524q0 7 -4 15zM410 1536q-26 0 -33 14.5t8 34.5
l170 221q19 25 49 25h225q31 0 50 -25l170 -221q15 -20 8 -34.5t-33 -14.5h-143q-31 0 -50 25l-106 129q-3 4 -8 4t-8 -4l-107 -129q-19 -25 -51 -25h-141z" />
    <glyph glyph-name="ycircumflex" unicode="&#x177;" horiz-adv-x="1161" 
d="M303 -397q-85 0 -182 20q-37 6 -37 45v131q0 43 45 37q47 -8 86 -8q68 0 107.5 28t62.5 95l16 45q4 8 0 16l-342 998q-7 22 2 34.5t31 12.5h230q39 0 47 -35l82 -285q19 -66 60.5 -234.5t57.5 -226.5q3 -11 9 -15.5t12.5 0t9.5 15.5q11 39 50.5 209t64.5 254l86 283
q9 35 45 35h223q22 0 31 -12.5t2 -34.5l-367 -1045q-67 -193 -172.5 -277.5t-259.5 -84.5zM272 1182q-26 0 -32.5 14.5t8.5 34.5l170 221q19 25 49 25h225q30 0 49 -25l170 -221q15 -20 8.5 -34.5t-32.5 -14.5h-142q-33 0 -51 24l-106 129q-3 5 -8.5 5t-8.5 -5l-106 -129
q-18 -24 -49 -24h-144z" />
    <glyph glyph-name="Ydieresis" unicode="&#x178;" horiz-adv-x="1415" 
d="M74 1384q-12 20 -4 35t32 15h269q33 0 49 -29l90 -168q91 -169 180 -367q8 -17 19 -17t18 17q87 191 182 367l90 168q16 29 50 29h268q25 0 33 -15t-4 -35l-474 -804q-4 -8 -4 -15v-524q0 -41 -41 -41h-235q-41 0 -41 41v524q0 7 -4 15zM373 1681q0 62 43 106t104 44
q59 0 101.5 -43.5t42.5 -106.5q0 -61 -42.5 -104t-101.5 -43q-61 0 -104 43.5t-43 103.5zM770 1683q0 61 43 105.5t102 44.5q61 0 103.5 -43.5t42.5 -106.5t-42 -105t-104 -42q-59 0 -102 43t-43 104z" />
    <glyph glyph-name="Zacute" unicode="&#x179;" horiz-adv-x="1312" 
d="M133 0q-41 0 -41 41l-2 182q0 26 19 51l712 879q11 14 8 21t-20 6q-181 -15 -479 -15h-164q-41 0 -41 41v187q0 41 41 41h1008q40 0 40 -41v-185q0 -27 -18 -51l-715 -876q-11 -12 -6.5 -20t21.5 -7q146 14 389 14h297q41 0 41 -41v-186q0 -41 -41 -41h-1049zM457 1671
q-15 38 22 53l488 197q39 16 55 -23l43 -104q15 -37 -25 -53l-491 -191q-37 -15 -53 25z" />
    <glyph glyph-name="zacute" unicode="&#x17a;" horiz-adv-x="1132" 
d="M137 0q-41 0 -41 41v92q0 26 19 51l520 643q7 10 3.5 17.5t-13.5 5.5q-86 -14 -312 -14h-145q-41 0 -41 41v139q0 41 41 41h805q41 0 41 -41v-113q0 -26 -19 -51l-487 -623q-5 -6 -1.5 -15.5t13.5 -8.5q114 16 289 16h182q41 0 41 -41v-139q0 -41 -41 -41h-854zM315 1317
q-15 38 23 53l489 197q40 16 54 -23l43 -104q15 -38 -25 -54l-491 -190q-38 -15 -54 25z" />
    <glyph glyph-name="Zdotaccent" unicode="&#x17b;" horiz-adv-x="1312" 
d="M133 0q-41 0 -41 41l-2 182q0 26 19 51l712 879q11 14 8 21t-20 6q-181 -15 -479 -15h-164q-41 0 -41 41v187q0 41 41 41h1008q40 0 40 -41v-185q0 -27 -18 -51l-715 -876q-11 -12 -6.5 -20t21.5 -7q146 14 389 14h297q41 0 41 -41v-186q0 -41 -41 -41h-1049zM528 1704
q0 69 50.5 120.5t119.5 51.5q70 0 120 -50t50 -122q0 -70 -50 -119t-120 -49q-69 0 -119.5 49.5t-50.5 118.5z" />
    <glyph glyph-name="zdotaccent" unicode="&#x17c;" horiz-adv-x="1132" 
d="M137 0q-41 0 -41 41v92q0 26 19 51l520 643q7 10 3.5 17.5t-13.5 5.5q-86 -14 -312 -14h-145q-41 0 -41 41v139q0 41 41 41h805q41 0 41 -41v-113q0 -26 -19 -51l-487 -623q-5 -6 -1.5 -15.5t13.5 -8.5q114 16 289 16h182q41 0 41 -41v-139q0 -41 -41 -41h-854zM397 1370
q0 69 49.5 119.5t118.5 50.5q70 0 120 -49.5t50 -120.5q0 -70 -50 -119t-120 -49q-69 0 -118.5 49.5t-49.5 118.5z" />
    <glyph glyph-name="Zcaron" unicode="&#x17d;" horiz-adv-x="1312" 
d="M133 0q-41 0 -41 41l-2 182q0 26 19 51l712 879q11 14 8 21t-20 6q-181 -15 -479 -15h-164q-41 0 -41 41v187q0 41 41 41h1008q40 0 40 -41v-185q0 -27 -18 -51l-715 -876q-11 -12 -6.5 -20t21.5 -7q146 14 389 14h297q41 0 41 -41v-186q0 -41 -41 -41h-1049zM365 1782
q-15 20 -8.5 34.5t32.5 14.5h143q31 0 50 -25l106 -129q3 -5 8.5 -5t8.5 5l106 129q19 25 49 25h144q26 0 32.5 -14.5t-8.5 -34.5l-170 -221q-19 -25 -49 -25h-225q-30 0 -49 25z" />
    <glyph glyph-name="zcaron" unicode="&#x17e;" horiz-adv-x="1132" 
d="M137 0q-41 0 -41 41v92q0 26 19 51l520 643q7 10 3.5 17.5t-13.5 5.5q-86 -14 -312 -14h-145q-41 0 -41 41v139q0 41 41 41h805q41 0 41 -41v-113q0 -26 -19 -51l-487 -623q-5 -6 -1.5 -15.5t13.5 -8.5q114 16 289 16h182q41 0 41 -41v-139q0 -41 -41 -41h-854zM231 1427
q-15 20 -8 35t33 15h143q31 0 50 -25l106 -129q3 -5 8 -5t8 5l107 129q19 25 49 25h143q26 0 33 -15t-8 -35l-170 -221q-18 -24 -49 -24h-225q-32 0 -50 24z" />
    <glyph glyph-name="florin" unicode="&#x192;" horiz-adv-x="1212" 
d="M76 -207q0 43 45 37q41 -6 76 -6q83 0 127.5 39.5t56.5 126.5l88 649q0 12 -10 12h-183q-40 0 -40 41v99q0 40 40 40h207q5 0 10 4.5t5 8.5l34 254q25 185 138.5 277.5t285.5 92.5q66 0 148 -16q35 -6 35 -45v-125q0 -43 -45 -37q-44 6 -76 6q-84 0 -129.5 -39.5
t-57.5 -126.5l-32 -241q-3 -13 10 -13h227q41 0 41 -40v-99q0 -41 -41 -41h-252q-5 0 -9.5 -4t-4.5 -8l-90 -662q-25 -185 -138 -277.5t-286 -92.5q-63 0 -145 16q-35 6 -35 45v125z" />
    <glyph glyph-name="uni01CD" unicode="&#x1cd;" horiz-adv-x="1507" 
d="M379 33q-9 -33 -45 -33h-240q-22 0 -31 12.5t-2 34.5l480 1354q11 33 47 33h317q36 0 47 -33l494 -1354q7 -22 -2 -34.5t-31 -12.5h-252q-34 0 -45 33l-96 295q-2 10 -14 10h-519q-11 0 -14 -10zM420 1782q-15 20 -8.5 34.5t32.5 14.5h144q30 0 49 -25l106 -129
q3 -5 8.5 -5t8.5 5l106 129q19 25 49 25h144q26 0 32.5 -14.5t-8.5 -34.5l-170 -221q-19 -25 -49 -25h-225q-30 0 -49 25zM559 594q-3 -14 10 -14h355q13 0 10 14l-74 225q-74 229 -100 346q-3 13 -14.5 13t-14.5 -13q-24 -111 -102 -354z" />
    <glyph glyph-name="uni01CE" unicode="&#x1ce;" horiz-adv-x="1200" 
d="M397 -33q-160 0 -256 75.5t-96 219.5q0 139 95.5 221t277.5 82h125q130 0 184.5 37t54.5 107q0 68 -48 114.5t-161 46.5q-161 0 -200 -100q-6 -20 -15.5 -28.5t-27.5 -8.5h-211q-21 0 -31.5 11.5t-7.5 31.5q32 146 160 230t338 84q234 0 362.5 -101.5t128.5 -283.5v-664
q0 -41 -41 -41h-199q-19 0 -30 11t-13 30l-4 98q0 10 -8 11t-12 -7q-124 -176 -365 -176zM258 1405q-15 20 -8 34.5t33 14.5h143q31 0 49 -24l107 -130q3 -4 8 -4t8 4l107 130q18 24 49 24h143q26 0 33 -14.5t-8 -34.5l-170 -221q-19 -25 -50 -25h-225q-30 0 -49 25z
M340 279q0 -56 40.5 -88.5t111.5 -32.5q124 0 207 88t83 196v43q0 11 -8 12.5t-14 -8.5q-54 -98 -225 -98h-60q-61 0 -98 -29t-37 -83z" />
    <glyph glyph-name="uni01E2" unicode="&#x1e2;" horiz-adv-x="2115" 
d="M1161 0q-34 0 -45 33l-96 295q-2 10 -14 10h-519q-11 0 -14 -10l-94 -295q-9 -33 -45 -33h-240q-22 0 -31 12.5t-2 34.5l480 1354q11 33 47 33h1075q41 0 41 -41v-166q0 -41 -41 -41h-619q-14 0 -10 -15l111 -303q3 -10 14 -10h647q41 0 41 -41v-158q0 -41 -41 -41h-555
q-11 0 -8 -14l125 -346q2 -10 14 -10h643q41 0 41 -41v-166q0 -41 -41 -41h-864zM559 594q-3 -14 10 -14h355q13 0 10 14l-74 225q-74 229 -100 346q-3 13 -14.5 13t-14.5 -13q-24 -111 -102 -354zM762 1577q-41 0 -41 41v115q0 41 41 41h592q41 0 41 -41v-115
q0 -41 -41 -41h-592z" />
    <glyph glyph-name="uni01E3" unicode="&#x1e3;" horiz-adv-x="1918" 
d="M397 -33q-160 0 -256 75.5t-96 219.5q0 139 95.5 221t277.5 82h125q130 0 184.5 37.5t54.5 110.5q0 65 -48 111t-161 46q-161 0 -200 -100q-6 -20 -15.5 -28.5t-27.5 -8.5h-211q-21 0 -31.5 11.5t-7.5 31.5q32 146 160 230t338 84q115 0 207.5 -37t146.5 -109
q9 -12 15.5 -12t15.5 12q54 71 144.5 107t197.5 36q226 0 372 -148.5t146 -381.5q0 -33 -2 -49q-3 -39 -43 -39h-705q-12 0 -12 -12q9 -127 82 -198t182 -71q155 0 209 97q18 30 49 30h170q22 0 32 -12.5t3 -32.5q-42 -136 -167.5 -219.5t-295.5 -83.5q-179 0 -304 70.5
t-185 175.5q-9 15 -19 14t-16 -16q-44 -104 -151 -174t-253 -70zM340 279q0 -56 40.5 -88.5t111.5 -32.5q124 0 207 88t83 196v43q0 11 -8 12.5t-14 -8.5q-54 -98 -225 -98h-60q-61 0 -98 -29t-37 -83zM647 1223q-41 0 -41 41v114q0 41 41 41h592q41 0 41 -41v-114
q0 -41 -41 -41h-592zM1063 639q-3 -12 10 -12h449q12 0 12 12q-7 108 -69.5 168.5t-161.5 60.5q-94 0 -162 -58.5t-78 -170.5z" />
    <glyph glyph-name="AEacute" unicode="&#x1fc;" horiz-adv-x="2115" 
d="M1161 0q-34 0 -45 33l-96 295q-2 10 -14 10h-519q-11 0 -14 -10l-94 -295q-9 -33 -45 -33h-240q-22 0 -31 12.5t-2 34.5l480 1354q11 33 47 33h1075q41 0 41 -41v-166q0 -41 -41 -41h-619q-14 0 -10 -15l111 -303q3 -10 14 -10h647q41 0 41 -41v-158q0 -41 -41 -41h-555
q-11 0 -8 -14l125 -346q2 -10 14 -10h643q41 0 41 -41v-166q0 -41 -41 -41h-864zM559 594q-3 -14 10 -14h355q13 0 10 14l-74 225q-74 229 -100 346q-3 13 -14.5 13t-14.5 -13q-24 -111 -102 -354zM815 1671q-15 38 23 53l487 197q39 16 55 -23l43 -104q15 -37 -24 -53
l-492 -191q-37 -15 -53 25z" />
    <glyph glyph-name="aeacute" unicode="&#x1fd;" horiz-adv-x="1918" 
d="M397 -33q-160 0 -256 75.5t-96 219.5q0 139 95.5 221t277.5 82h125q130 0 184.5 37.5t54.5 110.5q0 65 -48 111t-161 46q-161 0 -200 -100q-6 -20 -15.5 -28.5t-27.5 -8.5h-211q-21 0 -31.5 11.5t-7.5 31.5q32 146 160 230t338 84q115 0 207.5 -37t146.5 -109
q9 -12 15.5 -12t15.5 12q54 71 144.5 107t197.5 36q226 0 372 -148.5t146 -381.5q0 -33 -2 -49q-3 -39 -43 -39h-705q-12 0 -12 -12q9 -127 82 -198t182 -71q155 0 209 97q18 30 49 30h170q22 0 32 -12.5t3 -32.5q-42 -136 -167.5 -219.5t-295.5 -83.5q-179 0 -304 70.5
t-185 175.5q-9 15 -19 14t-16 -16q-44 -104 -151 -174t-253 -70zM340 279q0 -56 40.5 -88.5t111.5 -32.5q124 0 207 88t83 196v43q0 11 -8 12.5t-14 -8.5q-54 -98 -225 -98h-60q-61 0 -98 -29t-37 -83zM694 1317q-15 38 23 53l489 197q40 16 54 -23l43 -104q15 -38 -25 -54
l-492 -190q-37 -15 -53 25zM1063 639q-3 -12 10 -12h449q12 0 12 12q-7 108 -69.5 168.5t-161.5 60.5q-94 0 -162 -58.5t-78 -170.5z" />
    <glyph glyph-name="uni0218" unicode="&#x218;" horiz-adv-x="1374" 
d="M690 -31q-262 0 -419 99.5t-183 281.5q-3 20 7.5 31.5t31.5 11.5h235q35 0 46 -33q58 -140 286 -143q138 -1 209.5 46t71.5 138q0 75 -66 115.5t-190 67.5l-121 26q-44 10 -71 16.5t-72.5 19.5t-74.5 25t-68.5 32.5t-65.5 42.5t-54 54t-44 67.5t-26.5 82.5t-10.5 101
q0 188 155 300.5t424 112.5q250 0 399 -104.5t171 -292.5q6 -43 -39 -43h-224q-34 0 -43 37q-41 153 -270 153q-120 0 -187 -45t-67 -125q0 -42 19.5 -73.5t59.5 -53.5t81.5 -35.5t103.5 -27.5l140 -31q56 -12 91 -21t89 -27t88.5 -37t75 -50.5t63.5 -68t39 -89t16 -114.5
q0 -213 -159 -330t-447 -117zM516 -504q-22 0 -32 12.5t-5 32.5l72 299q9 35 45 35h174q23 0 31.5 -12.5t-0.5 -34.5l-127 -301q-11 -31 -49 -31h-109z" />
    <glyph glyph-name="uni0219" unicode="&#x219;" horiz-adv-x="1126" 
d="M569 -33q-429 0 -493 303q-4 21 6 33t31 12h206q34 0 46 -34q47 -111 208 -111q90 0 142.5 32t52.5 87q0 49 -44 71.5t-146 42.5l-117 23q-75 14 -136.5 38t-117 63t-86.5 98.5t-31 134.5q0 151 123 240.5t340 89.5q199 0 323 -79t148 -235q3 -20 -7.5 -31.5t-31.5 -11.5
h-192q-34 0 -43 37q-34 117 -189 117q-85 0 -133.5 -31t-48.5 -86q0 -51 45.5 -79.5t148.5 -49.5l113 -23q38 -8 64 -14t68.5 -19.5t71.5 -28t63.5 -39.5t55.5 -54.5t35.5 -71.5t14.5 -92q0 -157 -130.5 -244.5t-359.5 -87.5zM406 -504q-22 0 -32 12.5t-5 32.5l71 299
q9 35 45 35h174q23 0 31.5 -12.5t-0.5 -34.5l-127 -301q-11 -31 -49 -31h-108z" />
    <glyph glyph-name="uni021A" unicode="&#x21a;" horiz-adv-x="1304" 
d="M109 1186q-41 0 -41 41v166q0 41 41 41h1087q41 0 41 -41v-166q0 -41 -41 -41h-369q-12 0 -12 -12v-1133q0 -41 -41 -41h-233q-41 0 -41 41v1133q0 12 -13 12h-378zM485 -504q-21 0 -31 12t-5 33l71 299q9 35 45 35h174q23 0 31.5 -12.5t-0.5 -34.5l-127 -301
q-11 -31 -49 -31h-109z" />
    <glyph glyph-name="uni021B" unicode="&#x21b;" horiz-adv-x="880" 
d="M106 877q-40 0 -40 41v98q0 41 40 41h101q12 0 12 12v223q0 41 41 41h205q41 0 41 -41v-223q0 -12 12 -12h238q41 0 41 -41v-98q0 -41 -41 -41h-230q-12 0 -12 -13v-499q0 -86 30 -121t105 -35q45 0 103 12q45 9 45 -37v-127q0 -37 -35 -45q-98 -28 -189 -28
q-187 0 -270.5 79t-83.5 261v540q0 13 -12 13h-101zM367 -504q-22 0 -32 12.5t-5 32.5l71 299q9 35 45 35h175q23 0 31 -12.5t-1 -34.5l-127 -301q-11 -31 -49 -31h-108z" />
    <glyph glyph-name="circumflex" unicode="&#x2c6;" horiz-adv-x="735" 
d="M59 1182q-26 0 -32.5 14.5t8.5 34.5l170 221q19 25 49 25h225q30 0 49 -25l170 -221q15 -20 8.5 -34.5t-32.5 -14.5h-142q-33 0 -51 24l-106 129q-3 5 -8.5 5t-8.5 -5l-106 -129q-18 -24 -49 -24h-144z" />
    <glyph glyph-name="caron" unicode="&#x2c7;" horiz-adv-x="735" 
d="M256 1182q-31 0 -49 24l-170 221q-15 20 -8.5 35t32.5 15h144q30 0 49 -25l106 -129q3 -5 8.5 -5t8.5 5l106 129q19 25 49 25h144q26 0 32.5 -15t-8.5 -35l-170 -221q-18 -24 -49 -24h-225z" />
    <glyph glyph-name="breve" unicode="&#x2d8;" horiz-adv-x="755" 
d="M379 1182q-132 0 -224 71.5t-114 190.5q-4 20 6 31.5t31 11.5h133q33 0 45 -37q27 -90 123 -90q93 0 121 90q12 37 45 37h133q45 0 39 -41q-22 -120 -113.5 -192t-224.5 -72z" />
    <glyph glyph-name="dotaccent" unicode="&#x2d9;" horiz-adv-x="374" 
d="M186 1202q-69 0 -118.5 49.5t-49.5 118.5t49.5 119.5t118.5 50.5q70 0 120 -49.5t50 -120.5q0 -70 -50 -119t-120 -49z" />
    <glyph glyph-name="ring" unicode="&#x2da;" horiz-adv-x="661" 
d="M334 1182q-132 0 -213.5 74.5t-81.5 195.5q0 120 81.5 194t213.5 74t213.5 -74t81.5 -194q0 -121 -81.5 -195.5t-213.5 -74.5zM219 1452q0 -46 32 -74t83 -28q53 0 86 28t33 74q0 44 -33 72t-86 28q-51 0 -83 -28t-32 -72z" />
    <glyph glyph-name="ogonek" unicode="&#x2db;" horiz-adv-x="444" 
d="M231 -395q-103 0 -164 51t-61 129q0 76 57.5 132t159.5 71q3 1 7.5 4t7.5 4q12 4 34 4h9q29 0 31 -12t-23 -29q-80 -56 -80 -117q0 -35 23.5 -52t58.5 -17q20 0 28 2q46 10 46 -33v-72q0 -35 -29 -47q-46 -18 -105 -18z" />
    <glyph glyph-name="tilde" unicode="&#x2dc;" horiz-adv-x="772" 
d="M61 1182q-40 0 -43 39q-3 105 55.5 169t157.5 64q65 0 156 -39q88 -41 129 -41q44 0 53 39q5 22 13 31.5t26 9.5h103q40 0 43 -39q6 -105 -52.5 -169t-156.5 -64q-60 0 -158 39q-94 41 -131 41q-45 0 -51 -39q-5 -22 -13.5 -31.5t-27.5 -9.5h-103z" />
    <glyph glyph-name="hungarumlaut" unicode="&#x2dd;" horiz-adv-x="870" 
d="M186 1212q-26 -30 -57 -8l-78 51q-32 23 -14 58l151 268q18 35 56 12l129 -88q17 -10 18.5 -26t-10.5 -31zM430 1255q-32 23 -14 58l151 268q18 35 56 12l131 -88q17 -10 18.5 -26t-10.5 -31l-197 -236q-26 -30 -57 -8z" />
    <glyph glyph-name="uni02F3" unicode="&#x2f3;" horiz-adv-x="770" 
d="M385 -621q-132 0 -213.5 75t-81.5 196q0 120 81.5 194t213.5 74t213.5 -74t81.5 -194q0 -121 -81.5 -196t-213.5 -75zM270 -350q0 -46 32 -74.5t83 -28.5q53 0 86 28.5t33 74.5q0 44 -33 72t-86 28q-51 0 -83 -28t-32 -72z" />
    <glyph glyph-name="gravecomb" unicode="&#x300;" horiz-adv-x="0" 
d="M616 1575q-16 -40 -53 -25l-491 191q-38 15 -23 53l43 104q16 40 53 25l488 -199q37 -15 22 -53z" />
    <glyph glyph-name="acutecomb" unicode="&#x301;" horiz-adv-x="0" 
d="M201 1550q-38 -15 -54 25l-38 96q-15 38 22 53l487 197q40 16 56 -23l43 -104q15 -37 -25 -53z" />
    <glyph glyph-name="uni0302" unicode="&#x302;" horiz-adv-x="0" 
d="M82 1536q-26 0 -33 14.5t8 34.5l170 221q19 25 49 25h226q30 0 49 -25l170 -221q15 -20 8 -34.5t-33 -14.5h-143q-30 0 -49 25l-107 129q-3 4 -8 4t-8 -4l-107 -129q-19 -25 -51 -25h-141z" />
    <glyph glyph-name="tildecomb" unicode="&#x303;" horiz-adv-x="0" 
d="M57 1536q-40 0 -43 39q-6 105 53 169t158 64q65 0 156 -39q58 -27 81.5 -33.5t47.5 -6.5q44 0 53 38q5 22 13 31.5t26 9.5h103q40 0 43 -39q6 -105 -52 -169t-157 -64q-60 0 -158 39q-94 41 -129 41q-47 0 -53 -39q-5 -22 -13.5 -31.5t-27.5 -9.5h-101z" />
    <glyph glyph-name="uni0304" unicode="&#x304;" horiz-adv-x="0" 
d="M59 1577q-41 0 -41 41v115q0 41 41 41h592q41 0 41 -41v-115q0 -41 -41 -41h-592z" />
    <glyph glyph-name="uni0306" unicode="&#x306;" horiz-adv-x="0" 
d="M360 1536q-135 0 -226 73.5t-111 200.5q-3 20 7.5 31.5t30.5 11.5h134q34 0 43 -36q12 -47 44 -72t78 -25t78.5 25t44.5 72q9 36 43 36h133q21 0 31.5 -11.5t7.5 -31.5q-22 -127 -113 -200.5t-225 -73.5z" />
    <glyph glyph-name="uni0307" unicode="&#x307;" horiz-adv-x="0" 
d="M160 1536q-69 0 -119.5 49.5t-50.5 118.5t50.5 120.5t119.5 51.5q70 0 120 -50t50 -122q0 -70 -50 -119t-120 -49z" />
    <glyph glyph-name="uni0308" unicode="&#x308;" horiz-adv-x="0" 
d="M164 1534q-61 0 -104.5 43.5t-43.5 103.5q0 62 43.5 106t104.5 44q59 0 101 -43.5t42 -106.5q0 -61 -42 -104t-101 -43zM414 1683q0 61 43 105.5t102 44.5q61 0 103.5 -43.5t42.5 -106.5t-42 -105t-104 -42q-59 0 -102 43t-43 104z" />
    <glyph glyph-name="hookabovecomb" unicode="&#x309;" horiz-adv-x="0" 
d="M160 1577q-5 29 33 49q40 21 40 66q0 40 -34 58.5t-86 18.5q-21 0 -31 -2q-45 -6 -45 37v66q0 39 35 47q66 16 121 16q106 0 170.5 -51.5t64.5 -142.5q0 -75 -59.5 -134.5t-163.5 -66.5q-39 -6 -45 37v2z" />
    <glyph glyph-name="uni030A" unicode="&#x30a;" horiz-adv-x="0" 
d="M313 1266q-132 0 -213.5 74t-81.5 194q0 121 81.5 194.5t213.5 73.5t213.5 -73.5t81.5 -194.5q0 -120 -81.5 -194t-213.5 -74zM199 1534q0 -44 31.5 -72t82.5 -28q53 0 86 28t33 72q0 45 -33 72.5t-86 27.5q-51 0 -82.5 -27t-31.5 -73z" />
    <glyph glyph-name="uni030B" unicode="&#x30b;" horiz-adv-x="0" 
d="M186 1567q-26 -30 -57 -8l-78 51q-32 22 -14 57l151 268q19 36 56 13l129 -88q17 -10 18.5 -26.5t-10.5 -31.5zM430 1610q-32 22 -14 57l151 268q19 36 56 13l131 -88q17 -10 18.5 -26.5t-10.5 -31.5l-197 -235q-26 -30 -57 -8z" />
    <glyph glyph-name="uni030C" unicode="&#x30c;" horiz-adv-x="0" 
d="M274 1536q-30 0 -49 25l-170 221q-15 20 -8 34.5t33 14.5h143q30 0 49 -25l107 -129q3 -5 8 -5t8 5l107 129q19 25 49 25h143q26 0 33 -14.5t-8 -34.5l-170 -221q-19 -25 -49 -25h-226z" />
    <glyph glyph-name="uni0312" unicode="&#x312;" horiz-adv-x="0" 
d="M90 1556q-22 0 -32 13t-5 33l72 299q9 34 45 34h174q23 0 31.5 -12.5t-0.5 -34.5l-127 -301q-11 -31 -49 -31h-109z" />
    <glyph glyph-name="dotbelowcomb" unicode="&#x323;" horiz-adv-x="0" 
d="M207 -471q-69 0 -118.5 49.5t-49.5 118.5t49.5 119.5t118.5 50.5q70 0 120 -49.5t50 -120.5q0 -70 -50 -119t-120 -49z" />
    <glyph glyph-name="uni0326" unicode="&#x326;" horiz-adv-x="0" 
d="M90 -504q-22 0 -32 12.5t-5 32.5l72 299q9 35 45 35h174q23 0 31.5 -12.5t-0.5 -34.5l-127 -301q-11 -31 -49 -31h-109z" />
    <glyph glyph-name="uni0327" unicode="&#x327;" horiz-adv-x="0" 
d="M238 -440q-73 0 -140 20q-32 8 -32 45v33q0 44 45 35q52 -10 82 -10q102 0 102 71q0 34 -34 50t-85 16q-43 -3 -43 37v6q0 30 31 49q49 28 49 88q0 41 41 41h57q41 0 41 -41q0 -29 -19 -52t-48 -34q-11 -7 -11 -10q0 -4 13 -4h16q84 0 140.5 -43t56.5 -109
q0 -90 -76 -139t-186 -49z" />
    <glyph glyph-name="uni0328" unicode="&#x328;" horiz-adv-x="0" 
d="M268 -395q-103 0 -164 51t-61 129q0 76 57.5 132t159.5 71q3 1 7 4t7 4q12 4 35 4h8q29 0 31.5 -12t-22.5 -29q-80 -56 -80 -117q0 -35 23.5 -52t58.5 -17q20 0 28 2q45 9 45 -33v-72q0 -36 -28 -47q-47 -18 -105 -18z" />
    <glyph glyph-name="uni0394" unicode="&#x394;" horiz-adv-x="1409" 
d="M125 0q-41 0 -41 41v197q0 30 8 51l395 1112q11 33 48 33h329q36 0 47 -33l408 -1112q8 -21 8 -51v-197q0 -41 -41 -41h-1161zM391 272q-3 -8 0 -14q3 -8 15 -8h587q12 0 15 6q1 4 -2 14q-50 109 -115 303l-88 269q-41 124 -96 334q-3 10 -9 10q-7 0 -10 -10
q-7 -22 -44 -153t-56 -192l-84 -274q-40 -125 -113 -285z" />
    <glyph glyph-name="uni03A9" unicode="&#x3a9;" horiz-adv-x="1599" 
d="M125 0q-41 0 -41 41v168q0 41 41 41h301q14 0 14 8t-10 10q-116 54 -194 149t-110 197.5t-32 212.5q0 292 192 470t509 178q321 0 515.5 -178.5t194.5 -471.5q0 -81 -19 -160t-57.5 -154.5t-104 -139t-150.5 -103.5q-9 -3 -9 -10q0 -8 13 -8h299q41 0 41 -41v-168
q0 -41 -41 -41h-551q-41 0 -41 41v145q0 33 28 50q130 80 200.5 229t70.5 317q0 205 -101.5 324t-279.5 119q-179 0 -283 -120t-104 -323q0 -168 72 -316.5t202 -229.5q29 -17 29 -50v-145q0 -41 -41 -41h-553z" />
    <glyph glyph-name="uni03BC" unicode="&#x3bc;" horiz-adv-x="1396" 
d="M168 -377q-41 0 -41 41v1352q0 41 41 41h209q41 0 41 -41v-539q0 -132 66.5 -206t183.5 -74q111 0 175 74.5t64 205.5v539q0 41 41 41h209q41 0 41 -41v-711q0 -52 21 -75t65 -23h12q45 6 45 -37v-131q0 -39 -34 -45q-65 -12 -123 -12q-118 0 -193.5 50t-81.5 126l-2 18
q0 12 -6 12q-5 0 -8 -10q-21 -90 -96.5 -149.5t-184.5 -59.5q-101 0 -176 72q-9 9 -12 6q-6 -3 -6 -12l-17 -371q-2 -19 -13 -30t-30 -11h-190z" />
    <glyph glyph-name="pi" unicode="&#x3c0;" horiz-adv-x="1310" 
d="M1235 881q0 -41 -41 -41h-98q-13 0 -13 -13v-516q0 -55 20.5 -79.5t65.5 -24.5q15 0 21 2q45 3 45 -39v-131q0 -36 -37 -45q-64 -12 -125 -12q-130 0 -205 66t-75 208v571q0 13 -13 13h-270q-12 0 -12 -13v-786q0 -41 -41 -41h-211q-41 0 -41 41v786q0 13 -12 13h-95
q-41 0 -41 41v135q0 41 41 41h1096q41 0 41 -41v-135z" />
    <glyph glyph-name="Wgrave" unicode="&#x1e80;" horiz-adv-x="2015" 
d="M461 0q-38 0 -47 35l-357 1354q-6 20 3.5 32.5t31.5 12.5h248q35 0 45 -37l139 -617q16 -72 76 -389q3 -16 10.5 -21.5t14.5 1t10 22.5q59 330 72 389l129 615q6 37 45 37h252q39 0 45 -37l129 -613q5 -24 36.5 -191t38.5 -200q3 -15 9.5 -21t13.5 -1t10 20q0 2 12.5 65
t32 159t35.5 167l135 615q10 37 45 37h248q22 0 31.5 -12.5t3.5 -32.5l-356 -1354q-9 -35 -46 -35h-286q-39 0 -45 37l-140 653q-4 18 -28.5 146t-32.5 170q-4 22 -17.5 22t-17.5 -20q-5 -21 -25.5 -142t-33.5 -178l-137 -651q-6 -37 -45 -37h-287zM717 1741q-38 15 -23 53
l43 104q16 40 54 25l487 -199q37 -15 22 -51l-38 -98q-16 -40 -54 -25z" />
    <glyph glyph-name="wgrave" unicode="&#x1e81;" horiz-adv-x="1753" 
d="M418 0q-36 0 -45 33l-316 977q-6 22 3.5 34.5t31.5 12.5h230q36 0 45 -35l61 -205q13 -46 59 -225.5t56 -235.5q2 -11 8 -14.5t12 0.5t8 14q4 22 113 461l51 205q9 35 45 35h193q36 0 45 -35l53 -205q76 -292 107 -461q2 -10 8.5 -14.5t13 -0.5t8.5 17q15 99 119 459
l59 205q8 35 48 35h225q22 0 31.5 -12.5t3.5 -34.5l-314 -977q-9 -33 -45 -33h-231q-36 0 -45 35l-168 655q-3 11 -9 15.5t-11.5 0t-8.5 -15.5l-168 -655q-9 -35 -45 -35h-231zM547 1386q-38 15 -23 54l43 104q16 40 54 25l487 -199q37 -15 22 -51l-38 -98q-16 -40 -54 -25z
" />
    <glyph glyph-name="Wacute" unicode="&#x1e82;" horiz-adv-x="2015" 
d="M461 0q-38 0 -47 35l-357 1354q-6 20 3.5 32.5t31.5 12.5h248q35 0 45 -37l139 -617q16 -72 76 -389q3 -16 10.5 -21.5t14.5 1t10 22.5q59 330 72 389l129 615q6 37 45 37h252q39 0 45 -37l129 -613q5 -24 36.5 -191t38.5 -200q3 -15 9.5 -21t13.5 -1t10 20q0 2 12.5 65
t32 159t35.5 167l135 615q10 37 45 37h248q22 0 31.5 -12.5t3.5 -32.5l-356 -1354q-9 -35 -46 -35h-286q-39 0 -45 37l-140 653q-4 18 -28.5 146t-32.5 170q-4 22 -17.5 22t-17.5 -20q-5 -21 -25.5 -142t-33.5 -178l-137 -651q-6 -37 -45 -37h-287zM766 1671q-15 38 22 53
l488 197q39 16 55 -23l43 -104q15 -37 -24 -53l-492 -191q-37 -15 -53 25z" />
    <glyph glyph-name="wacute" unicode="&#x1e83;" horiz-adv-x="1753" 
d="M418 0q-36 0 -45 33l-316 977q-6 22 3.5 34.5t31.5 12.5h230q36 0 45 -35l61 -205q13 -46 59 -225.5t56 -235.5q2 -11 8 -14.5t12 0.5t8 14q4 22 113 461l51 205q9 35 45 35h193q36 0 45 -35l53 -205q76 -292 107 -461q2 -10 8.5 -14.5t13 -0.5t8.5 17q15 99 119 459
l59 205q8 35 48 35h225q22 0 31.5 -12.5t3.5 -34.5l-314 -977q-9 -33 -45 -33h-231q-36 0 -45 35l-168 655q-3 11 -9 15.5t-11.5 0t-8.5 -15.5l-168 -655q-9 -35 -45 -35h-231zM627 1317q-15 38 22 53l490 197q39 15 53 -23l43 -104q15 -38 -25 -54l-491 -190
q-37 -15 -53 25z" />
    <glyph glyph-name="Wdieresis" unicode="&#x1e84;" horiz-adv-x="2015" 
d="M461 0q-38 0 -47 35l-357 1354q-6 20 3.5 32.5t31.5 12.5h248q35 0 45 -37l139 -617q16 -72 76 -389q3 -16 10.5 -21.5t14.5 1t10 22.5q59 330 72 389l129 615q6 37 45 37h252q39 0 45 -37l129 -613q5 -24 36.5 -191t38.5 -200q3 -15 9.5 -21t13.5 -1t10 20q0 2 12.5 65
t32 159t35.5 167l135 615q10 37 45 37h248q22 0 31.5 -12.5t3.5 -32.5l-356 -1354q-9 -35 -46 -35h-286q-39 0 -45 37l-140 653q-4 18 -28.5 146t-32.5 170q-4 22 -17.5 22t-17.5 -20q-5 -21 -25.5 -142t-33.5 -178l-137 -651q-6 -37 -45 -37h-287zM664 1681q0 62 43 106
t104 44q59 0 101 -43.5t42 -106.5q0 -61 -42 -104t-101 -43q-61 0 -104 43.5t-43 103.5zM1061 1683q0 61 43 105.5t102 44.5q61 0 103.5 -43.5t42.5 -106.5t-42 -105t-104 -42q-59 0 -102 43t-43 104z" />
    <glyph glyph-name="wdieresis" unicode="&#x1e85;" horiz-adv-x="1753" 
d="M418 0q-36 0 -45 33l-316 977q-6 22 3.5 34.5t31.5 12.5h230q36 0 45 -35l61 -205q13 -46 59 -225.5t56 -235.5q2 -11 8 -14.5t12 0.5t8 14q4 22 113 461l51 205q9 35 45 35h193q36 0 45 -35l53 -205q76 -292 107 -461q2 -10 8.5 -14.5t13 -0.5t8.5 17q15 99 119 459
l59 205q8 35 48 35h225q22 0 31.5 -12.5t3.5 -34.5l-314 -977q-9 -33 -45 -33h-231q-36 0 -45 35l-168 655q-3 11 -9 15.5t-11.5 0t-8.5 -15.5l-168 -655q-9 -35 -45 -35h-231zM528 1360q0 61 44 105t104 44t101.5 -43t41.5 -106t-41.5 -105.5t-101.5 -42.5t-104 43.5
t-44 104.5zM926 1362q0 60 43 103.5t102 43.5q62 0 105 -43t43 -104q0 -63 -43 -105.5t-105 -42.5q-59 0 -102 43.5t-43 104.5z" />
    <glyph glyph-name="uni1E9E" unicode="&#x1e9e;" horiz-adv-x="1392" 
d="M821 -29q-74 0 -190 21q-37 9 -37 45v164q0 46 45 37q67 -13 117 -13q113 0 174 53.5t61 151.5q0 86 -54 133t-155 47h-143q-41 0 -41 41v140q0 40 41 40h115q91 0 142.5 54t51.5 135q0 75 -47.5 120.5t-122.5 45.5h-303q-12 0 -12 -12v-1133q0 -41 -41 -41h-234
q-41 0 -41 41v1352q0 41 41 41h697q181 0 283 -85.5t102 -236.5q0 -124 -80 -213.5t-170 -101.5q-9 -1 -12 -5.5t0 -9.5t12 -6q52 -6 103.5 -33.5t94.5 -72t70 -112t27 -146.5q0 -144 -67 -245.5t-176.5 -148.5t-250.5 -47z" />
    <glyph glyph-name="uni1EBC" unicode="&#x1ebc;" horiz-adv-x="1288" 
d="M188 0q-41 0 -41 41v1352q0 41 41 41h967q41 0 41 -41v-166q0 -41 -41 -41h-678q-12 0 -12 -12v-304q0 -12 12 -12h602q41 0 41 -41v-158q0 -41 -41 -41h-602q-12 0 -12 -12v-346q0 -12 12 -12h676q41 0 41 -41v-166q0 -41 -41 -41h-965zM348 1536q-40 0 -43 39
q-6 105 53 169t158 64q65 0 156 -39q58 -27 81.5 -33.5t47.5 -6.5q44 0 53 38q5 22 13 31.5t26 9.5h102q40 0 43 -39q6 -105 -52 -169t-157 -64q-59 0 -157 39q-94 41 -129 41q-48 0 -54 -39q-5 -22 -13 -31.5t-27 -9.5h-101z" />
    <glyph glyph-name="uni1EBD" unicode="&#x1ebd;" horiz-adv-x="1224" 
d="M631 -33q-251 0 -396 147t-145 418q0 253 142.5 405.5t383.5 152.5q221 0 366.5 -150.5t145.5 -382.5q0 -16 -2 -45q0 -43 -41 -43h-704q-12 0 -12 -12q9 -126 80.5 -197.5t183.5 -71.5q155 0 209 97q18 30 49 30h170q22 0 32.5 -10.5t4.5 -28.5q-40 -139 -167 -224
t-300 -85zM283 1182q-40 0 -43 39q-3 105 55.5 169t157.5 64q64 0 155 -39q88 -41 129 -41q45 0 54 39q5 22 12.5 31.5t25.5 9.5h103q40 0 43 -39q6 -105 -52.5 -169t-156.5 -64q-60 0 -158 39q-94 41 -131 41q-45 0 -51 -39q-5 -22 -13.5 -31.5t-27.5 -9.5h-102zM373 655
q-3 -12 10 -12h446q14 0 11 12q-14 99 -74.5 156t-153.5 57q-97 0 -161.5 -56t-77.5 -157z" />
    <glyph glyph-name="Ygrave" unicode="&#x1ef2;" horiz-adv-x="1415" 
d="M74 1384q-12 20 -4 35t32 15h269q33 0 49 -29l90 -168q91 -169 180 -367q8 -17 19 -17t18 17q87 191 182 367l90 168q16 29 50 29h268q25 0 33 -15t-4 -35l-474 -804q-4 -8 -4 -15v-524q0 -41 -41 -41h-235q-41 0 -41 41v524q0 7 -4 15zM426 1741q-38 15 -23 53l43 104
q16 40 54 25l487 -199q37 -15 23 -51l-39 -98q-16 -40 -53 -25z" />
    <glyph glyph-name="ygrave" unicode="&#x1ef3;" horiz-adv-x="1161" 
d="M303 -397q-85 0 -182 20q-37 6 -37 45v131q0 43 45 37q47 -8 86 -8q68 0 107.5 28t62.5 95l16 45q4 8 0 16l-342 998q-7 22 2 34.5t31 12.5h230q39 0 47 -35l82 -285q19 -66 60.5 -234.5t57.5 -226.5q3 -11 9 -15.5t12.5 0t9.5 15.5q11 39 50.5 209t64.5 254l86 283
q9 35 45 35h223q22 0 31 -12.5t2 -34.5l-367 -1045q-67 -193 -172.5 -277.5t-259.5 -84.5zM252 1386q-38 15 -23 54l43 104q16 40 54 25l487 -199q37 -15 23 -51l-39 -98q-16 -40 -54 -25z" />
    <glyph glyph-name="uni1EF8" unicode="&#x1ef8;" horiz-adv-x="1415" 
d="M74 1384q-12 20 -4 35t32 15h269q33 0 49 -29l90 -168q91 -169 180 -367q8 -17 19 -17t18 17q87 191 182 367l90 168q16 29 50 29h268q25 0 33 -15t-4 -35l-474 -804q-4 -8 -4 -15v-524q0 -41 -41 -41h-235q-41 0 -41 41v524q0 7 -4 15zM393 1536q-40 0 -43 39
q-6 105 53 169t158 64q65 0 156 -39q58 -27 81.5 -33.5t47.5 -6.5q44 0 53 38q5 22 13 31.5t26 9.5h102q40 0 43 -39q6 -105 -52 -169t-157 -64q-59 0 -157 39q-94 41 -129 41q-47 0 -53 -39q-5 -22 -13.5 -31.5t-27.5 -9.5h-101z" />
    <glyph glyph-name="uni1EF9" unicode="&#x1ef9;" horiz-adv-x="1161" 
d="M303 -397q-85 0 -182 20q-37 6 -37 45v131q0 43 45 37q47 -8 86 -8q68 0 107.5 28t62.5 95l16 45q4 8 0 16l-342 998q-7 22 2 34.5t31 12.5h230q39 0 47 -35l82 -285q19 -66 60.5 -234.5t57.5 -226.5q3 -11 9 -15.5t12.5 0t9.5 15.5q11 39 50.5 209t64.5 254l86 283
q9 35 45 35h223q22 0 31 -12.5t2 -34.5l-367 -1045q-67 -193 -172.5 -277.5t-259.5 -84.5zM252 1182q-40 0 -43 39q-3 105 55.5 169t157.5 64q65 0 156 -39q88 -41 129 -41q44 0 53 39q5 22 13 31.5t26 9.5h102q40 0 43 -39q6 -105 -52.5 -169t-156.5 -64q-59 0 -157 39
q-94 41 -132 41q-45 0 -51 -39q-5 -22 -13.5 -31.5t-27.5 -9.5h-102z" />
    <glyph glyph-name="endash" unicode="&#x2013;" horiz-adv-x="1097" 
d="M129 453q-41 0 -41 41v161q0 41 41 41h842q41 0 41 -41v-161q0 -41 -41 -41h-842z" />
    <glyph glyph-name="emdash" unicode="&#x2014;" horiz-adv-x="1937" 
d="M129 453q-41 0 -41 41v161q0 41 41 41h1681q41 0 41 -41v-161q0 -41 -41 -41h-1681z" />
    <glyph glyph-name="quoteleft" unicode="&#x2018;" horiz-adv-x="614" 
d="M401 801q-6 -37 -43 -37h-213q-22 0 -31 12.5t-3 34.5l190 590q9 33 45 33h127q20 0 30 -12.5t7 -32.5z" />
    <glyph glyph-name="quoteright" unicode="&#x2019;" horiz-adv-x="614" 
d="M213 1399q6 37 43 37h213q22 0 31.5 -12.5t3.5 -34.5l-191 -590q-9 -33 -45 -33h-127q-20 0 -30 12.5t-7 32.5z" />
    <glyph glyph-name="quotesinglbase" unicode="&#x201a;" horiz-adv-x="614" 
d="M213 291q6 37 43 37h213q22 0 31.5 -12.5t3.5 -34.5l-191 -590q-9 -33 -45 -33h-127q-20 0 -30 12.5t-7 32.5z" />
    <glyph glyph-name="quotedblleft" unicode="&#x201c;" horiz-adv-x="1036" 
d="M823 801q-6 -37 -43 -37h-213q-22 0 -31.5 12.5t-3.5 34.5l191 590q9 33 45 33h127q20 0 30 -12.5t7 -32.5zM145 764q-22 0 -31 12.5t-3 34.5l190 590q9 33 45 33h127q20 0 30 -12.5t7 -32.5l-109 -588q-6 -37 -43 -37h-213z" />
    <glyph glyph-name="quotedblright" unicode="&#x201d;" horiz-adv-x="1036" 
d="M213 1399q6 37 43 37h213q22 0 31.5 -12.5t3.5 -34.5l-191 -590q-9 -33 -45 -33h-127q-20 0 -30 12.5t-7 32.5zM563 766q-20 0 -30 12.5t-7 32.5l109 588q6 37 43 37h213q22 0 31.5 -12.5t3.5 -34.5l-191 -590q-9 -33 -45 -33h-127z" />
    <glyph glyph-name="quotedblbase" unicode="&#x201e;" horiz-adv-x="1036" 
d="M213 291q6 37 43 37h213q22 0 31.5 -12.5t3.5 -34.5l-191 -590q-9 -33 -45 -33h-127q-20 0 -30 12.5t-7 32.5zM563 -342q-20 0 -30 12.5t-7 32.5l109 588q6 37 43 37h213q22 0 31.5 -12.5t3.5 -34.5l-191 -590q-9 -33 -45 -33h-127z" />
    <glyph glyph-name="dagger" unicode="&#x2020;" horiz-adv-x="1290" 
d="M1190 1020q41 0 41 -41v-164q0 -41 -41 -41h-375q-12 0 -12 -12v-1045q0 -41 -41 -41h-236q-41 0 -41 41v1045q0 12 -12 12h-373q-41 0 -41 41v164q0 41 41 41h373q12 0 12 12v361q0 41 41 41h236q41 0 41 -41v-361q0 -12 12 -12h375z" />
    <glyph glyph-name="daggerdbl" unicode="&#x2021;" horiz-adv-x="1290" 
d="M1231 815q0 -41 -41 -41h-375q-12 0 -12 -12v-416q0 -12 12 -12h375q41 0 41 -41v-164q0 -41 -41 -41h-375q-12 0 -12 -12v-359q0 -41 -41 -41h-236q-41 0 -41 41v359q0 12 -12 12h-373q-41 0 -41 41v164q0 41 41 41h373q12 0 12 12v416q0 12 -12 12h-373q-41 0 -41 41
v164q0 41 41 41h373q12 0 12 12v361q0 41 41 41h236q41 0 41 -41v-361q0 -12 12 -12h375q41 0 41 -41v-164z" />
    <glyph glyph-name="bullet" unicode="&#x2022;" horiz-adv-x="870" 
d="M426 285q-124 0 -210.5 88t-86.5 213q0 122 86.5 207.5t210.5 85.5q126 0 214.5 -85.5t88.5 -207.5q0 -127 -89 -214t-214 -87z" />
    <glyph glyph-name="ellipsis" unicode="&#x2026;" horiz-adv-x="1583" 
d="M281 -31q-76 0 -130.5 55t-54.5 132q0 75 54.5 128.5t130.5 53.5q78 0 133 -53.5t55 -128.5q0 -78 -55.5 -132.5t-132.5 -54.5zM627 156q0 75 54 128.5t130 53.5q78 0 133 -53.5t55 -128.5q0 -78 -55.5 -132.5t-132.5 -54.5q-76 0 -130 55t-54 132zM1153 156
q0 75 54 128.5t130 53.5q78 0 133.5 -53.5t55.5 -128.5q0 -77 -56 -132t-133 -55q-76 0 -130 55t-54 132z" />
    <glyph glyph-name="perthousand" unicode="&#x2030;" horiz-adv-x="2725" 
d="M535 0q-23 0 -31 13.5t2 35.5l723 1356q16 29 49 29h106q23 0 31.5 -14t-2.5 -36l-723 -1355q-16 -29 -49 -29h-106zM72 1028q0 208 90 320t270 112q181 0 271 -112t90 -320q0 -205 -90.5 -317.5t-270.5 -112.5q-178 0 -269 112.5t-91 317.5zM289 1028
q0 -125 32.5 -189.5t110.5 -64.5q77 0 109 65.5t32 188.5q0 125 -32.5 190.5t-108.5 65.5q-79 0 -111 -65.5t-32 -190.5zM1128 403q0 207 91 320t272 113q179 0 269.5 -113t90.5 -320q0 -205 -90.5 -317.5t-269.5 -112.5q-180 0 -271.5 112.5t-91.5 317.5zM1348 403
q0 -124 32.5 -188.5t110.5 -64.5q141 0 141 253q0 125 -32.5 190.5t-108.5 65.5q-79 0 -111 -65.5t-32 -190.5zM1933 410q0 208 90.5 320t270.5 112q181 0 271.5 -112t90.5 -320q0 -206 -90.5 -318t-271.5 -112q-178 0 -269.5 112.5t-91.5 317.5zM2150 410q0 -254 144 -254
q78 0 110.5 66t32.5 188q0 125 -33.5 190.5t-109.5 65.5q-78 0 -111 -66t-33 -190z" />
    <glyph glyph-name="guilsinglleft" unicode="&#x2039;" horiz-adv-x="677" 
d="M285 549q-23 -11 0 -23l231 -127q29 -17 29 -49v-182q0 -25 -13.5 -33t-35.5 6l-334 232q-27 18 -27 49v231q0 31 27 49l334 232q22 14 35.5 6t13.5 -33v-184q0 -33 -29 -49z" />
    <glyph glyph-name="guilsinglright" unicode="&#x203a;" horiz-adv-x="665" 
d="M395 549l-231 125q-29 16 -29 49v184q0 25 13.5 33t35.5 -6l334 -232q27 -18 27 -49v-231q0 -31 -27 -49l-334 -232q-22 -14 -35.5 -6t-13.5 33v182q0 32 29 49l231 127q23 12 0 23z" />
    <glyph glyph-name="uni203D" unicode="&#x203d;" horiz-adv-x="1118" 
d="M446 453q-40 0 -40 41q-3 97 8 186l55 387q5 37 45 37h66q38 0 41 -39l16 -211q0 -10 4 -10q3 -3 10 8q25 45 49 80q15 23 20.5 33t11 34t5.5 58q0 81 -46 124.5t-130 43.5q-102 0 -147.5 -50t-51.5 -157q-3 -41 -43 -41h-213q-40 0 -40 43q12 233 140 341.5t363 108.5
q138 0 245.5 -42.5t172 -131t64.5 -211.5q0 -203 -201 -356q-69 -53 -97 -79t-45.5 -63t-21.5 -93q-3 -41 -43 -41h-197zM373 154q0 75 54 128.5t130 53.5q78 0 133 -53.5t55 -128.5q0 -78 -55.5 -132.5t-132.5 -54.5q-76 0 -130 55t-54 132z" />
    <glyph glyph-name="fraction" unicode="&#x2044;" horiz-adv-x="686" 
d="M-78 0q-23 0 -31 13.5t3 35.5l722 1356q16 29 50 29h98q23 0 31.5 -14t-2.5 -36l-723 -1355q-16 -29 -50 -29h-98z" />
    <glyph glyph-name="uni2070" unicode="&#x2070;" horiz-adv-x="880" 
d="M440 1063q-184 0 -276 117t-92 323q0 208 92.5 325.5t275.5 117.5t276 -117.5t93 -325.5q0 -207 -93.5 -323.5t-275.5 -116.5zM285 1503q0 -141 35.5 -211.5t119.5 -70.5q82 0 119 71.5t37 210.5q0 140 -37 212.5t-119 72.5q-84 0 -119.5 -71.5t-35.5 -213.5z" />
    <glyph glyph-name="uni2074" unicode="&#x2074;" horiz-adv-x="866" 
d="M526 1090q-41 0 -41 40v127q0 13 -12 13h-358q-41 0 -41 41v125q0 27 18 51l354 426q16 22 52 22h153q41 0 41 -41v-454q0 -13 13 -13h59q41 0 41 -41v-75q0 -41 -41 -41h-59q-13 0 -13 -13v-127q0 -40 -41 -40h-125zM250 1442q-4 -6 -2 -10.5t10 -4.5h223q13 0 13 13
v305q0 12 -5 12q-7 0 -10 -10q-26 -57 -145 -205z" />
    <glyph glyph-name="uni2075" unicode="&#x2075;" horiz-adv-x="794" 
d="M217 1325q32 0 47 -35q28 -78 139 -78q67 0 103.5 39.5t36.5 110.5q0 67 -38 108t-102 41q-86 0 -127 -55q-17 -33 -51 -24l-108 24q-39 9 -33 47l68 387q6 37 43 37h448q41 0 41 -41v-74q0 -40 -41 -40h-317q-9 0 -13 -11l-37 -194q-1 -4 0 -8.5t3 -4.5q4 5 10 13
q25 38 72 62t108 24q110 0 188 -76.5t78 -208.5q0 -138 -95 -220.5t-232 -82.5q-131 0 -222.5 56t-115.5 161q-4 20 7 31.5t32 11.5h108z" />
    <glyph glyph-name="uni2076" unicode="&#x2076;" horiz-adv-x="821" 
d="M262 1513q5 0 8 9q51 127 213 127q121 0 200 -78.5t79 -208.5q0 -143 -97.5 -221t-238.5 -78q-173 0 -264.5 111t-91.5 315q0 216 91 337.5t269 121.5q107 0 192 -46.5t117 -144.5q6 -20 -4.5 -32.5t-32.5 -12.5h-106q-33 0 -47 33q-32 53 -119 53q-91 0 -132.5 -67.5
t-39.5 -204.5q0 -13 4 -13zM283 1354q0 -58 37.5 -96.5t105.5 -38.5q68 -1 105.5 37.5t37.5 97.5q0 63 -38 104t-103 41t-105 -41t-40 -104z" />
    <glyph glyph-name="uni2077" unicode="&#x2077;" horiz-adv-x="737" 
d="M549 1776q0 2 -12 2h-435q-41 0 -41 41v75q0 41 41 41h535q41 0 41 -41v-100q0 -28 -21 -49q-128 -131 -183 -265.5t-62 -349.5q-3 -40 -43 -40h-131q-42 0 -39 40q9 211 101.5 377t240.5 260q8 3 8 9z" />
    <glyph glyph-name="uni2078" unicode="&#x2078;" horiz-adv-x="833" 
d="M420 1065q-163 0 -258.5 68t-95.5 184q0 80 41 133t114 74q10 3 10 6t-10 6q-56 15 -86.5 62.5t-30.5 117.5q0 106 85.5 170t230.5 64q144 0 228.5 -63t84.5 -169q0 -70 -33 -118.5t-90 -63.5q-10 -3 -10 -6t10 -6q76 -21 119 -74t43 -133q0 -115 -96 -183.5t-256 -68.5z
M266 1341q0 -59 42 -89.5t112 -30.5q72 0 113 31.5t40 88.5q-1 61 -42.5 91t-110.5 30q-71 0 -112.5 -31t-41.5 -90zM285 1700q0 -53 37 -82t98 -29q60 0 96.5 29t36.5 82q0 54 -36 81t-97 27q-63 0 -99 -27.5t-36 -80.5z" />
    <glyph glyph-name="uni2079" unicode="&#x2079;" horiz-adv-x="821" 
d="M559 1497q-1 0 -8 -10q-51 -125 -215 -125q-120 0 -198.5 78t-78.5 207q0 143 97 221t237 78q175 0 267 -111t92 -315q0 -215 -92 -337t-269 -122q-107 0 -193 46.5t-116 143.5q-6 20 4.5 32.5t32.5 12.5h104q31 0 49 -30q32 -56 119 -56q89 0 130.5 68t41.5 207
q0 12 -4 12zM250 1655q0 -63 39 -103.5t104 -40.5t105.5 41t40.5 103q0 58 -39 96.5t-107 38.5q-68 1 -105.5 -37.5t-37.5 -97.5z" />
    <glyph glyph-name="uni2080" unicode="&#x2080;" horiz-adv-x="880" 
d="M440 -426q-184 0 -276 117t-92 323q0 208 92.5 325.5t275.5 117.5t276 -117.5t93 -325.5q0 -207 -93.5 -323.5t-275.5 -116.5zM285 14q0 -140 35.5 -211t119.5 -71q82 0 119 71.5t37 210.5q0 140 -37 212.5t-119 72.5q-84 0 -119.5 -71.5t-35.5 -213.5z" />
    <glyph glyph-name="uni2081" unicode="&#x2081;" horiz-adv-x="555" 
d="M262 207q-5 0 -10 -8q-49 -57 -148 -66q-43 -3 -43 39v104q0 40 41 43q129 9 185 89q17 28 49 28h96q41 0 41 -41v-764q0 -41 -41 -41h-125q-41 0 -41 41v564q0 12 -4 12z" />
    <glyph glyph-name="uni2082" unicode="&#x2082;" horiz-adv-x="786" 
d="M57 -270q0 33 27 51q86 56 131.5 86.5t104.5 73t88 69.5t58.5 60.5t40.5 62.5t11 60q0 51 -32 78.5t-89 27.5q-93 0 -121 -74q-15 -35 -47 -35h-114q-21 0 -32 11.5t-7 31.5q23 112 106.5 169t214.5 57q146 0 235.5 -69.5t88.5 -194.5q0 -39 -12 -76t-28.5 -66.5
t-50.5 -63t-60.5 -56.5t-77 -56.5t-82 -52.5t-91.5 -55q-6 -4 -6 -13q0 -5 13 -2q57 6 186 6h160q41 0 41 -41v-88q0 -41 -41 -41h-574q-41 0 -41 41v99z" />
    <glyph glyph-name="uni2083" unicode="&#x2083;" horiz-adv-x="817" 
d="M418 -426q-147 0 -241 66t-116 188q-4 20 6 31.5t31 11.5h121q36 0 45 -39q20 -96 146 -96q63 0 101 29.5t38 82.5q0 109 -143 109h-23q-41 0 -41 41v61q0 41 41 41h29q127 0 127 103q0 46 -32.5 71t-92.5 25q-99 0 -121 -72q-9 -37 -43 -37h-119q-21 0 -31.5 11.5
t-7.5 31.5q20 112 105.5 169t220.5 57q138 2 226.5 -59.5t88.5 -172.5q0 -71 -41 -119.5t-108 -60.5q-13 -3 -13 -4q0 -3 13 -6q83 -9 129.5 -62t46.5 -137q0 -118 -96 -191t-246 -73z" />
    <glyph glyph-name="uni2084" unicode="&#x2084;" horiz-adv-x="866" 
d="M526 -408q-41 0 -41 41v127q0 13 -12 13h-358q-41 0 -41 41v125q0 27 18 51l354 426q16 22 52 22h153q41 0 41 -41v-454q0 -13 13 -13h59q41 0 41 -41v-75q0 -41 -41 -41h-59q-13 0 -13 -13v-127q0 -41 -41 -41h-125zM250 -55q-4 -6 -2 -10.5t10 -4.5h223q13 0 13 13v305
q0 12 -5 12q-7 0 -10 -10q-26 -57 -145 -205z" />
    <glyph glyph-name="uni2085" unicode="&#x2085;" horiz-adv-x="794" 
d="M217 -156q32 0 47 -34q28 -78 139 -78q67 0 103.5 39t36.5 110q0 67 -38 108.5t-102 41.5q-85 0 -127 -56q-17 -33 -51 -24l-108 24q-39 9 -33 48l68 387q6 36 43 36h448q41 0 41 -40v-74q0 -41 -41 -41h-317q-10 0 -13 -10l-37 -195q-1 -4 0 -8t3 -4q4 4 10 12
q25 38 72 62t108 24q110 0 188 -76.5t78 -208.5q0 -138 -95 -220.5t-232 -82.5q-131 0 -222.5 56t-115.5 161q-4 20 7 31.5t32 11.5h108z" />
    <glyph glyph-name="uni2086" unicode="&#x2086;" horiz-adv-x="821" 
d="M262 23q5 0 8 8q51 127 213 127q121 0 200 -78.5t79 -208.5q0 -143 -97.5 -221t-238.5 -78q-173 0 -264.5 111t-91.5 315q0 216 91 337.5t269 121.5q107 0 192 -46.5t117 -144.5q6 -20 -4.5 -32.5t-32.5 -12.5h-106q-33 0 -47 33q-32 53 -119 53q-91 0 -132.5 -67.5
t-39.5 -204.5q0 -12 4 -12zM283 -137q0 -58 37.5 -96.5t105.5 -38.5q68 -1 105.5 37.5t37.5 97.5q0 63 -38 104t-103 41t-105 -41t-40 -104z" />
    <glyph glyph-name="uni2087" unicode="&#x2087;" horiz-adv-x="737" 
d="M549 276q0 3 -12 3h-435q-41 0 -41 40v76q0 41 41 41h535q41 0 41 -41v-100q0 -28 -21 -49q-128 -131 -183 -265.5t-62 -349.5q-3 -41 -43 -41h-131q-42 0 -39 41q9 211 101.5 377t240.5 260q8 3 8 8z" />
    <glyph glyph-name="uni2088" unicode="&#x2088;" horiz-adv-x="833" 
d="M420 -426q-163 0 -258.5 68t-95.5 184q0 80 41 133t114 74q10 3 10 6t-10 6q-56 15 -86.5 62.5t-30.5 117.5q0 106 85.5 170t230.5 64q144 0 228.5 -63t84.5 -169q0 -70 -33 -118.5t-90 -63.5q-10 -3 -10 -6t10 -6q76 -21 119 -74t43 -133q0 -115 -96 -183.5t-256 -68.5z
M266 -150q0 -59 42 -89.5t112 -30.5q72 0 113 31.5t40 88.5q-1 61 -42.5 91t-110.5 30q-71 0 -112.5 -31t-41.5 -90zM285 209q0 -53 37 -82t98 -29q60 0 96.5 29t36.5 82q0 54 -36 81t-97 27q-63 0 -99 -27.5t-36 -80.5z" />
    <glyph glyph-name="uni2089" unicode="&#x2089;" horiz-adv-x="821" 
d="M559 14q-1 0 -8 -10q-51 -125 -215 -125q-120 0 -198.5 78t-78.5 207q0 143 97 221t237 78q175 0 267 -111t92 -315q0 -215 -92 -337t-269 -122q-107 0 -193 47t-116 144q-6 20 4.5 32.5t32.5 12.5h104q30 0 49 -31q31 -55 119 -55q89 0 130.5 67.5t41.5 206.5
q0 12 -4 12zM250 172q0 -63 39 -103t104 -40t105.5 40.5t40.5 102.5q0 58 -39 96.5t-107 38.5q-68 1 -105.5 -37.5t-37.5 -97.5z" />
    <glyph glyph-name="uni208D" unicode="&#x208d;" horiz-adv-x="407" 
d="M223 -555q-36 0 -47 33q-104 270 -104 545q0 276 104 540q11 33 47 33h109q22 0 31 -12.5t2 -34.5q-95 -274 -95 -524q0 -256 95 -533q7 -22 -2 -34.5t-31 -12.5h-109z" />
    <glyph glyph-name="uni208E" unicode="&#x208e;" horiz-adv-x="407" 
d="M78 -555q-22 0 -31 12.5t-2 34.5q96 283 96 531q0 246 -96 526q-7 22 2 34.5t31 12.5h106q36 0 47 -33q107 -262 107 -540q0 -273 -107 -545q-11 -33 -47 -33h-106z" />
    <glyph glyph-name="franc" unicode="&#x20a3;" horiz-adv-x="1107" 
d="M59 229q-41 0 -41 41v78q0 41 41 41h78q13 0 13 12v992q0 41 40 41h809q41 0 41 -41v-164q0 -41 -41 -41h-522q-12 0 -12 -12v-306q0 -12 12 -12h463q41 0 41 -41v-158q0 -41 -41 -41h-463q-12 0 -12 -12v-205q0 -12 12 -12h197q41 0 41 -41v-78q0 -41 -41 -41h-197
q-12 0 -12 -12v-176q0 -41 -41 -41h-234q-40 0 -40 41v176q0 12 -13 12h-78z" />
    <glyph glyph-name="uni20A6" unicode="&#x20a6;" horiz-adv-x="1794" 
d="M188 653q-41 0 -41 41v78q0 41 41 41h86q13 0 13 12v568q0 41 41 41h272q34 0 49 -29l336 -584q3 -8 14 -8h197q12 0 12 12v52v516q0 41 41 41h228q41 0 41 -41v-568q0 -12 12 -12h76q41 0 41 -41v-78q0 -41 -41 -41h-76q-12 0 -12 -12v-600q0 -41 -41 -41h-263
q-34 0 -49 29l-313 546l-41 70q-3 8 -14 8h-193q-12 0 -12 -12v-80v-520q0 -41 -41 -41h-223q-41 0 -41 41v600q0 12 -13 12h-86zM590 1010v-185q0 -12 12 -12h100q6 0 9 4t0 10q-49 90 -99 189q-6 12 -14 10t-8 -16zM1098 653q-15 0 -8 -14q75 -127 104 -186q4 -8 8.5 -10
t8 1.5t3.5 12.5q0 34 -1 95.5t-1 88.5q0 12 -12 12h-102z" />
    <glyph glyph-name="peseta" unicode="&#x20a7;" horiz-adv-x="1492" 
d="M59 877q-41 0 -41 41v65q0 41 41 41h105q12 0 12 12v357q0 41 41 41h584q208 0 343.5 -103t158.5 -295q3 -12 14 -12h51q41 0 41 -41v-65q0 -41 -41 -41h-55q-11 0 -15 -11q-32 -177 -169.5 -275.5t-342.5 -98.5h-280q-12 0 -12 -13v-438q0 -41 -41 -41h-236
q-41 0 -41 41v823q0 13 -12 13h-105zM494 727q0 -12 12 -12h225q90 0 155 37.5t89 109.5q4 15 -10 15h-459q-12 0 -12 -13v-137zM494 1036q0 -12 12 -12h459q13 0 10 14q-24 74 -88.5 111t-155.5 37h-225q-12 0 -12 -12v-138z" />
    <glyph glyph-name="uni20A8" unicode="&#x20a8;" horiz-adv-x="2531" 
d="M188 0q-41 0 -41 41v1352q0 41 41 41h674q202 0 316 -95t114 -260q0 -140 -73.5 -242t-149.5 -116q-13 -3 -13 -13.5t13 -13.5q153 -35 188 -254l64 -397q3 -20 -7.5 -31.5t-31.5 -11.5h-244q-37 0 -43 39l-39 289q-15 113 -63 149.5t-174 36.5h-242q-12 0 -12 -12v-461
q0 -41 -41 -41h-236zM465 750q0 -13 12 -13h279q102 0 165.5 65.5t63.5 170.5q0 98 -61 155.5t-164 57.5h-283q-12 0 -12 -12v-424zM1481 270q-4 21 6 33t31 12h206q33 0 45 -34q47 -111 209 -111q90 0 142.5 32t52.5 87q0 49 -44.5 71.5t-146.5 42.5l-116 23
q-75 14 -136.5 38t-117 63t-86.5 98.5t-31 134.5q0 151 123 240.5t340 89.5q199 0 323 -79t148 -235q3 -20 -7.5 -31.5t-31.5 -11.5h-192q-35 0 -44 37q-34 117 -188 117q-85 0 -133.5 -31t-48.5 -86q0 -51 45.5 -79.5t148.5 -49.5l113 -23q38 -8 64 -14t68.5 -19.5
t71.5 -28t63.5 -39.5t55.5 -54.5t35.5 -71.5t14.5 -92q0 -157 -130.5 -244.5t-359.5 -87.5q-429 0 -493 303z" />
    <glyph glyph-name="uni20A9" unicode="&#x20a9;" horiz-adv-x="2011" 
d="M90 627q-41 0 -41 41v77q0 41 41 41h115q13 0 10 15l-156 588q-6 20 3.5 32.5t31.5 12.5h248q35 0 45 -37l135 -600q4 -11 13 -11h163q9 0 13 11l127 600q6 37 45 37h252q39 0 45 -37l127 -600q4 -11 12 -11h168q8 0 12 11l133 600q10 37 45 37h248q22 0 31.5 -12.5
t3.5 -32.5l-154 -588q-3 -15 11 -15h98q41 0 41 -41v-77q0 -41 -41 -41h-146q-9 0 -12 -11l-153 -581q-9 -35 -45 -35h-287q-39 0 -45 37l-123 579q-4 11 -12 11h-162q-8 0 -12 -11l-123 -579q-6 -37 -45 -37h-287q-38 0 -47 35l-154 581q-3 11 -12 11h-160zM571 627
q-12 0 -12 -15q19 -91 43 -221q3 -16 10.5 -21.5t14.5 1t10 22.5l39 221q3 13 -12 13h-93zM952 801q-3 -15 13 -15h90q6 0 9.5 4.5t2.5 10.5l-41 205q-4 22 -17.5 22t-17.5 -20q-4 -16 -9.5 -48t-14.5 -79.5t-15 -79.5zM1354 627q-16 0 -13 -15q42 -216 43 -219
q3 -15 9.5 -21t13.5 -1t10 20l45 221q3 15 -12 15h-96z" />
    <glyph glyph-name="Euro" unicode="&#x20ac;" horiz-adv-x="1462" 
d="M825 -29q-258 0 -422 147t-213 394q-3 10 -12 10h-119q-41 0 -41 41v66q0 41 41 41h101q13 0 10 12v39q0 41 2 61q0 13 -12 13h-101q-41 0 -41 41v65q0 41 41 41h123q10 0 13 10q54 235 215 372.5t413 137.5q220 0 367.5 -104.5t195.5 -288.5q6 -21 -4 -33t-32 -12h-228
q-33 0 -45 35q-24 74 -88 114.5t-166 40.5q-244 0 -309 -258q-4 -14 10 -14h297q41 0 41 -41v-65q0 -41 -41 -41h-319q-13 0 -13 -13q-2 -20 -2 -65v-35q0 -12 13 -12h321q41 0 41 -41v-66q0 -41 -41 -41h-303q-15 0 -12 -14q58 -291 315 -291q115 0 185.5 58.5t91.5 160.5
q9 37 45 37h221q45 0 39 -41q-36 -214 -187.5 -337.5t-390.5 -123.5z" />
    <glyph glyph-name="uni20AD" unicode="&#x20ad;" horiz-adv-x="1507" 
d="M59 627q-41 0 -41 41v77q0 41 41 41h99q12 0 12 13v594q0 41 41 41h233q41 0 41 -41l-6 -594q0 -13 13 -13h12q10 0 16 9q102 146 275 342l243 274q23 23 52 23h288q27 0 34 -16t-11 -36l-488 -512q-7 -10 -2 -18l37 -57q9 -9 17 -9h397q41 0 41 -41v-77q0 -41 -41 -41
h-285q-6 0 -8.5 -4.5t0.5 -10.5l363 -563q14 -20 6 -34.5t-33 -14.5h-285q-33 0 -49 27l-373 591q-9 9 -14 9h-14q-11 0 -15 -6l-163 -175q-7 -10 -7 -14v-391q0 -41 -41 -41h-233q-41 0 -41 41v573q0 13 -12 13h-99z" />
    <glyph glyph-name="uni20AE" unicode="&#x20ae;" horiz-adv-x="1304" 
d="M297 535q-22 -9 -34.5 -1t-12.5 31v70q0 33 31 49l208 94q11 7 11 15v381q0 12 -13 12h-378q-41 0 -41 41v166q0 41 41 41h1087q41 0 41 -41v-166q0 -41 -41 -41h-369q-12 0 -12 -12v-234q0 -6 4 -9.5t10 -0.5l168 76q22 9 34.5 -0.5t12.5 -32.5v-70q0 -34 -30 -49
l-189 -84q-10 -7 -10 -14v-127q0 -6 4 -10t10 -1l168 76q22 10 34.5 2t12.5 -32v-72q0 -34 -30 -49l-189 -84q-10 -7 -10 -15v-403q0 -41 -41 -41h-233q-41 0 -41 41v256q0 6 -4.5 9.5t-10.5 0.5l-188 -84q-22 -9 -34.5 -0.5t-12.5 31.5v70q0 34 31 49l208 94q11 7 11 14
v127q0 6 -4.5 9.5t-10.5 0.5z" />
    <glyph glyph-name="uni20B1" unicode="&#x20b1;" horiz-adv-x="1513" 
d="M59 805q-41 0 -41 41v28q0 41 41 41h103q12 0 12 13v47q0 12 -12 12h-103q-41 0 -41 41v29q0 41 41 41h103q12 0 12 12v283q0 41 41 41h584q188 0 317.5 -83.5t171.5 -242.5q3 -10 12 -10h66q41 0 41 -41v-29q0 -41 -41 -41h-49q-12 0 -12 -12v-12v-35q-3 -13 10 -13h51
q41 0 41 -41v-28q0 -41 -41 -41h-74q-7 0 -14 -10q-49 -144 -180 -223.5t-314 -79.5h-280q-12 0 -12 -13v-438q0 -41 -41 -41h-236q-41 0 -41 41v752q0 12 -12 12h-103zM492 727q0 -12 12 -12h225q134 0 201 76q5 5 2 9.5t-10 4.5h-418q-12 0 -12 -12v-66zM492 928
q0 -13 12 -13h467q11 0 14 13v22v25q-3 12 -14 12h-467q-12 0 -12 -12v-47zM492 1110q0 -12 12 -12h418q7 0 10 5t-2 9q-71 74 -201 74h-225q-12 0 -12 -12v-64z" />
    <glyph glyph-name="uni20B2" unicode="&#x20b2;" horiz-adv-x="1572" 
d="M694 -33q-128 0 -238.5 52t-191.5 147.5t-127.5 238t-46.5 314.5q0 324 157.5 518.5t438.5 222.5q12 3 12 15v167q0 41 41 41h82q41 0 41 -41v-167q0 -12 12 -15q198 -19 333.5 -121.5t181.5 -269.5q6 -21 -4.5 -33t-32.5 -12h-248q-33 0 -47 33q-47 116 -174 147
q-6 3 -10.5 -0.5t-4.5 -9.5v-956q0 -16 15 -13q111 23 183.5 105t84.5 198q3 13 -10 13h-133q-41 0 -41 41v139q0 41 41 41h397q41 0 41 -41v-680q0 -41 -41 -41h-182q-19 0 -30 11t-13 30l-9 182q0 14 -9.5 16t-14.5 -8q-35 -70 -103.5 -136t-171.5 -99q-10 -7 -10 -14
v-191q0 -41 -41 -41h-82q-41 0 -41 41v164q0 12 -4 12zM418 725q0 -191 70.5 -322t201.5 -170q6 -2 10.5 1.5t4.5 9.5v950q0 6 -3.5 9.5t-7.5 2.5q-133 -34 -204.5 -159.5t-71.5 -321.5z" />
    <glyph glyph-name="uni20B3" unicode="&#x20b3;" horiz-adv-x="1509" 
d="M379 33q-9 -33 -45 -33h-240q-22 0 -31 12.5t-2 34.5l80 223q4 15 -10 15h-29q-41 0 -41 41v65q0 41 41 41h86q12 0 15 10l39 113q1 6 -2 10t-9 4h-129q-41 0 -41 41v66q0 41 41 41h187q11 0 14 10l238 674q11 33 47 33h317q36 0 47 -33l246 -674q2 -10 14 -10h199
q41 0 41 -41v-66q0 -41 -41 -41h-141q-12 0 -8 -14l41 -113q3 -10 14 -10h94q41 0 41 -41v-65q0 -41 -41 -41h-37q-12 0 -8 -15l82 -223q7 -22 -2 -34.5t-31 -12.5h-250q-34 0 -45 33l-80 241q-3 11 -14 11h-555q-11 0 -14 -11zM512 446q-3 -14 10 -14h453q13 0 10 14
l-39 113q-2 10 -14 10h-369q-11 0 -14 -10zM604 731q-3 -14 10 -14h267q13 0 10 14l-31 90q-49 146 -104 348q-4 11 -8 11q-7 0 -11 -11q-55 -198 -104 -350z" />
    <glyph glyph-name="uni20B4" unicode="&#x20b4;" horiz-adv-x="1439" 
d="M59 760q-41 0 -41 41v53q0 41 41 41h801q11 0 17 2q54 24 79 57t25 84q0 87 -73 130.5t-183 43.5q-117 0 -192 -39t-97 -112q-9 -37 -43 -37h-221q-21 0 -31.5 11.5t-7.5 31.5q30 188 189 292.5t401 104.5q260 0 418.5 -109t158.5 -298q0 -86 -43 -148q-4 -6 -1.5 -10
t10.5 -4h114q41 0 41 -41v-53q0 -41 -41 -41h-1321zM59 549q-41 0 -41 41v53q0 41 41 41h1321q41 0 41 -41v-53q0 -41 -41 -41h-794q-11 0 -17 -2q-65 -26 -96 -61t-31 -91q0 -87 73 -130.5t185 -43.5q120 0 196 40.5t97 121.5q9 37 43 37h221q21 0 31.5 -11.5t7.5 -31.5
q-30 -193 -190 -301.5t-404 -106.5q-260 0 -418.5 109.5t-158.5 298.5q0 91 47 158q10 14 -6 14h-107z" />
    <glyph glyph-name="uni20B5" unicode="&#x20b5;" horiz-adv-x="1509" 
d="M680 1642q0 41 41 41h82q41 0 41 -41v-165q0 -13 12 -13q206 -17 346.5 -121t186.5 -274q6 -21 -4.5 -33t-32.5 -12h-248q-33 0 -47 33q-55 132 -201 153q-12 3 -12 -10v-967q0 -13 12 -10q184 30 225 213q9 37 43 37h244q21 0 31.5 -11.5t7.5 -31.5q-35 -193 -179 -318
t-372 -143q-12 0 -12 -12v-166q0 -41 -41 -41h-82q-41 0 -41 41v170q0 11 -12 14q-272 34 -425 229.5t-153 514.5q0 320 152.5 513.5t425.5 225.5q12 3 12 15v169zM420 719q0 -190 63.5 -315t182.5 -168q14 -4 14 10v942q0 13 -10 10q-121 -40 -185.5 -163.5t-64.5 -315.5z
" />
    <glyph glyph-name="uni20B8" unicode="&#x20b8;" horiz-adv-x="1263" 
d="M514 0q-41 0 -41 41v692q0 12 -12 12h-375q-41 0 -41 41v164q0 41 41 41h1092q41 0 41 -41v-164q0 -41 -41 -41h-375q-12 0 -12 -12v-692q0 -41 -41 -41h-236zM86 1188q-41 0 -41 41v164q0 41 41 41h1092q41 0 41 -41v-164q0 -41 -41 -41h-1092z" />
    <glyph glyph-name="uni20B9" unicode="&#x20b9;" horiz-adv-x="1269" 
d="M709 340q-15 105 -62.5 139.5t-175.5 34.5h-305q-41 0 -41 41v141q0 41 41 41h336q82 0 137 39t78 105q3 14 -10 14h-541q-41 0 -41 41v65q0 41 41 41h539q14 0 10 15q-45 131 -213 131h-336q-41 0 -41 41v164q0 41 41 41h997q41 0 41 -41v-66q0 -41 -41 -41h-202
q-13 0 -13 -6q-4 -8 6 -14q82 -73 82 -201v-10q0 -13 13 -13h114q41 0 41 -41v-65q0 -41 -41 -41h-159q-12 0 -15 -8q-40 -71 -106.5 -118t-149.5 -54q-12 0 -12 -6q0 -9 12 -9q123 -8 185.5 -69t85.5 -199l63 -387q3 -20 -8 -32.5t-31 -12.5h-235q-37 0 -43 39z" />
    <glyph glyph-name="uni20BA" unicode="&#x20ba;" horiz-adv-x="1288" 
d="M1186 762q41 0 41 -41q-9 -223 -103 -386.5t-258.5 -249t-380.5 -85.5h-274q-41 0 -41 41v528q0 6 -4 10t-10 1l-90 -41q-22 -9 -35 0t-13 32v74q0 33 31 49l111 49q10 7 10 15v123q0 6 -4 9.5t-10 0.5l-90 -41q-22 -9 -35 0.5t-13 32.5v73q0 34 31 50l111 49q10 7 10 14
v324q0 41 41 41h233q41 0 41 -41v-176q0 -6 4.5 -10t10.5 -1l266 119q22 9 34.5 0.5t12.5 -31.5v-73q0 -35 -31 -50l-286 -129q-11 -7 -11 -14v-121q0 -6 4.5 -9.5t10.5 -0.5l266 119q22 9 34.5 0.5t12.5 -31.5v-74q0 -33 -31 -49l-286 -129q-11 -7 -11 -14v-455
q0 -12 13 -12q185 4 289.5 126.5t115.5 342.5q0 41 41 41h242z" />
    <glyph glyph-name="uni20BC" unicode="&#x20bc;" horiz-adv-x="1556" 
d="M924 141q0 -41 -41 -41h-211q-41 0 -41 41v686q0 13 -13 13q-100 -4 -152 -77t-52 -202v-520q0 -41 -41 -41h-226q-41 0 -41 41v512q0 258 127 391t385 143q13 0 13 13v293q0 41 41 41h211q41 0 41 -41v-293q0 -13 12 -13q268 -12 391 -143.5t123 -390.5v-512
q0 -41 -41 -41h-223q-41 0 -41 41v520q0 131 -54.5 202.5t-154.5 76.5q-12 0 -12 -13v-686z" />
    <glyph glyph-name="uni20BF" unicode="&#x20bf;" horiz-adv-x="1392" 
d="M756 -244q-41 0 -41 41v191q0 12 -13 12h-131q-12 0 -12 -12v-191q0 -41 -41 -41h-82q-41 0 -41 41v191q0 12 -12 12h-195q-41 0 -41 41v1352q0 41 41 41h195q12 0 12 12v196q0 41 41 41h82q41 0 41 -41v-196q0 -12 12 -12h131q13 0 13 12v196q0 41 41 41h82q41 0 41 -41
v-196q0 -12 6 -12q180 0 282.5 -82.5t102.5 -233.5q0 -65 -23.5 -124.5t-60.5 -99.5t-80.5 -66t-85.5 -31q-9 -1 -12 -5.5t0 -9.5t12 -6q52 -6 103.5 -34t94.5 -72.5t70 -111t27 -142.5q0 -183 -110 -290t-314 -124q-12 0 -12 -12v-193q0 -41 -41 -41h-82zM465 260
q0 -12 12 -12h314q95 0 146.5 48.5t51.5 135.5q0 86 -52 132t-146 46h-314q-12 0 -12 -12v-338zM465 844q0 -13 12 -13h289q79 0 129.5 54.5t50.5 134.5q0 73 -47.5 119.5t-122.5 46.5h-299q-12 0 -12 -12v-330z" />
    <glyph glyph-name="uni2116" unicode="&#x2116;" horiz-adv-x="2496" 
d="M1999 618q-188 0 -301 115t-113 305q0 191 113.5 306.5t300.5 115.5q189 0 300 -116.5t111 -305.5q0 -190 -113 -305t-298 -115zM188 0q-41 0 -41 41v1352q0 41 41 41h273q35 0 49 -29l336 -586q19 -33 73 -125t86.5 -150t49.5 -91q4 -8 8.5 -10t8 1.5t3.5 12.5
q0 84 -3 221.5t-3 198.5v516q0 41 41 41h227q41 0 41 -41v-1352q0 -41 -41 -41h-262q-35 0 -49 29l-313 546q-150 264 -240 441q-6 12 -14 10t-8 -16q0 -74 1 -223t1 -226v-520q0 -41 -41 -41h-224zM1626 381q-41 0 -41 41v74q0 41 41 41h744q40 0 40 -41v-74q0 -41 -40 -41
h-744zM1831 1038q0 -99 43.5 -154t124.5 -55q82 0 124 56t42 153q0 100 -43.5 156.5t-122.5 56.5q-81 0 -124.5 -56.5t-43.5 -156.5z" />
    <glyph glyph-name="trademark" unicode="&#x2122;" horiz-adv-x="1251" 
d="M629 907q-41 0 -41 41v445q0 41 41 41h100q36 0 47 -33l58 -172q35 -99 45 -139l4 -11h2q32 107 49 156l55 166q11 33 45 33h103q41 0 41 -41v-445q0 -41 -41 -41h-43q-41 0 -41 41v166q0 40 4 162q0 12 -2 12q-3 0 -6 -10q-35 -119 -45 -148l-60 -188q-9 -35 -45 -35
h-29q-34 0 -45 33l-57 174q-8 28 -25 80t-26 82q-3 10 -4 10q-4 0 -4 -12q4 -61 4 -170v-156q0 -41 -41 -41h-43zM117 1333q-41 0 -41 41v19q0 41 41 41h366q41 0 41 -41v-19q0 -41 -41 -41h-106q-12 0 -12 -12v-373q0 -41 -41 -41h-45q-41 0 -41 41v373q0 12 -13 12h-108z
" />
    <glyph glyph-name="estimated" unicode="&#x212e;" horiz-adv-x="1916" 
d="M358 1257q222 216 603 216q374 0 600 -226q208 -205 223 -502q0 -40 -41 -40h-1276q-29 0 -29 -27v-359q0 -68 33 -94q196 -196 490 -196q149 0 288 65q128 62 203 146q19 22 51 22h53q27 0 35 -15.5t-10 -35.5q-85 -91 -221 -156q-171 -82 -399 -82q-371 0 -601 213
q-227 208 -227 539q0 320 225 532zM438 778q0 -26 29 -26h979q29 0 29 26v348q0 62 -33 91q-210 198 -481 198q-283 0 -490 -198q-33 -29 -33 -91v-348z" />
    <glyph glyph-name="uni2150" unicode="&#x2150;" horiz-adv-x="1796" 
d="M262 1204q-5 0 -10 -8q-49 -57 -148 -66q-43 -3 -43 39v105q0 40 41 43q130 9 185 88q17 29 49 29h96q41 0 41 -41v-764q0 -41 -41 -41h-125q-41 0 -41 41v563q0 12 -4 12zM379 0q-23 0 -31 13.5t2 35.5l723 1356q16 29 49 29h99q23 0 31 -14t-3 -36l-723 -1355
q-16 -29 -49 -29h-98zM1161 688q-41 0 -41 41v76q0 41 41 41h535q41 0 41 -41v-100q0 -29 -21 -50q-129 -132 -184 -266t-62 -348q-3 -41 -43 -41h-131q-42 0 -39 41q9 211 101.5 377t240.5 260q9 3 9 8q-7 2 -15 2h-432z" />
    <glyph glyph-name="uni2151" unicode="&#x2151;" horiz-adv-x="1796" 
d="M262 1204q-5 0 -10 -8q-49 -57 -148 -66q-43 -3 -43 39v105q0 40 41 43q130 9 185 88q17 29 49 29h96q41 0 41 -41v-764q0 -41 -41 -41h-125q-41 0 -41 41v563q0 12 -4 12zM379 0q-23 0 -31 13.5t2 35.5l723 1356q16 29 49 29h99q23 0 31 -14t-3 -36l-723 -1355
q-16 -29 -49 -29h-98zM1034 561q0 143 97 221t237 78q175 0 266.5 -110.5t91.5 -315.5q0 -215 -92 -337t-268 -122q-107 0 -193 47t-116 144q-6 20 4.5 32.5t32.5 12.5h104q30 0 49 -31q31 -55 119 -55q89 0 130.5 67.5t41.5 206.5q0 13 -4 13q-1 0 -8 -11
q-51 -125 -215 -125q-120 0 -198.5 78t-78.5 207zM1225 569q0 -63 39 -103t104 -40t105 40.5t40 102.5q0 58 -38.5 97t-106.5 39q-67 1 -105 -38t-38 -98z" />
    <glyph glyph-name="uni2152" unicode="&#x2152;" horiz-adv-x="2426" 
d="M262 1204q-5 0 -10 -8q-49 -57 -148 -66q-43 -3 -43 39v105q0 40 41 43q130 9 185 88q17 29 49 29h96q41 0 41 -41v-764q0 -41 -41 -41h-125q-41 0 -41 41v563q0 12 -4 12zM379 0q-23 0 -31 13.5t2 35.5l723 1356q16 29 49 29h99q23 0 31 -14t-3 -36l-723 -1355
q-16 -29 -49 -29h-98zM1096 543q-43 -3 -43 39v104q0 40 41 43q129 9 184 88q17 29 49 29h96q41 0 41 -41v-764q0 -41 -41 -41h-125q-41 0 -41 41v563q0 12 -4 12q-5 0 -8 -6q-50 -59 -149 -67zM1618 416q0 208 93 325t276 117t275.5 -117t92.5 -325t-93 -324.5t-275 -116.5
q-184 0 -276.5 117.5t-92.5 323.5zM1831 416q0 -140 36 -211.5t120 -71.5q82 0 118.5 72t36.5 211q0 140 -36.5 212t-118.5 72q-84 0 -120 -71t-36 -213z" />
    <glyph glyph-name="uni2153" unicode="&#x2153;" horiz-adv-x="1783" 
d="M262 1204q-5 0 -10 -8q-49 -57 -148 -66q-43 -3 -43 39v105q0 40 41 43q130 9 185 88q17 29 49 29h96q41 0 41 -41v-764q0 -41 -41 -41h-125q-41 0 -41 41v563q0 12 -4 12zM379 0q-23 0 -31 13.5t2 35.5l723 1356q16 29 49 29h99q23 0 31 -14t-3 -36l-723 -1355
q-16 -29 -49 -29h-98zM1028 227q-4 20 6 31.5t31 11.5h121q36 0 45 -39q20 -96 145 -96q63 0 101.5 30t38.5 83q0 108 -144 108h-22q-41 0 -41 41v62q0 41 41 41h28q127 0 127 102q0 46 -32.5 71t-92.5 25q-99 0 -120 -71q-9 -37 -43 -37h-119q-21 0 -31.5 11.5t-7.5 31.5
q20 112 105 168.5t220 56.5q138 2 227 -59t89 -172q0 -71 -41.5 -120t-108.5 -61q-12 -3 -12 -4q0 -3 12 -6q83 -9 129.5 -61.5t46.5 -136.5q0 -118 -96 -191.5t-246 -73.5q-147 0 -240.5 66t-115.5 188z" />
    <glyph glyph-name="uni2154" unicode="&#x2154;" horiz-adv-x="2037" 
d="M57 727q0 33 27 51q86 56 131.5 86.5t104.5 73t88 69.5t58.5 60.5t40.5 62.5t11 60q0 51 -32 78.5t-89 27.5q-93 0 -121 -73q-15 -35 -47 -35h-114q-21 0 -32 11.5t-7 31.5q23 112 106 168.5t215 56.5q146 0 235.5 -69.5t88.5 -194.5q0 -39 -12 -76t-28.5 -66.5
t-50.5 -63t-60.5 -56.5t-77 -56.5t-82 -52.5t-91.5 -55q-6 -4 -6 -10q0 -7 13 -4q57 6 186 6h160q41 0 41 -41v-88q0 -41 -41 -41h-574q-41 0 -41 41v98zM631 0q-23 0 -31 13.5t2 35.5l723 1356q16 29 49 29h99q23 0 31 -14t-3 -36l-723 -1355q-16 -29 -49 -29h-98z
M1282 227q-4 20 6 31.5t31 11.5h121q36 0 45 -39q20 -96 145 -96q63 0 101 30t38 83q0 108 -143 108h-22q-41 0 -41 41v62q0 41 41 41h28q127 0 127 102q0 46 -32.5 71t-92.5 25q-100 0 -121 -71q-9 -37 -43 -37h-118q-21 0 -31.5 11.5t-7.5 31.5q20 112 105 168.5t220 56.5
q138 2 227 -59t89 -172q0 -71 -41.5 -120t-108.5 -61q-12 -3 -12 -4q0 -3 12 -6q83 -9 129.5 -61.5t46.5 -136.5q0 -118 -96 -191.5t-246 -73.5q-147 0 -240.5 66t-115.5 188z" />
    <glyph glyph-name="uni2155" unicode="&#x2155;" horiz-adv-x="1763" 
d="M262 1204q-5 0 -10 -8q-49 -57 -148 -66q-43 -3 -43 39v105q0 40 41 43q130 9 185 88q17 29 49 29h96q41 0 41 -41v-764q0 -41 -41 -41h-125q-41 0 -41 41v563q0 12 -4 12zM379 0q-23 0 -31 13.5t2 35.5l723 1356q16 29 49 29h99q23 0 31 -14t-3 -36l-723 -1355
q-16 -29 -49 -29h-98zM1038 197q-4 20 7 31.5t32 11.5h109q32 0 47 -35q28 -78 139 -78q67 0 103 39t36 110q0 67 -37.5 108.5t-101.5 41.5q-86 0 -127 -55q-18 -34 -51 -25l-109 25q-38 9 -32 47l67 387q6 37 43 37h449q41 0 41 -41v-74q0 -41 -41 -41h-318q-9 0 -12 -10
l-37 -195q-4 -12 2 -12q4 4 10 12q25 38 72.5 62t108.5 24q110 0 188 -76t78 -208q0 -138 -95.5 -220.5t-232.5 -82.5q-131 0 -222.5 56t-115.5 161z" />
    <glyph glyph-name="uni2156" unicode="&#x2156;" horiz-adv-x="2017" 
d="M57 727q0 33 27 51q86 56 131.5 86.5t104.5 73t88 69.5t58.5 60.5t40.5 62.5t11 60q0 51 -32 78.5t-89 27.5q-93 0 -121 -73q-15 -35 -47 -35h-114q-21 0 -32 11.5t-7 31.5q23 112 106 168.5t215 56.5q146 0 235.5 -69.5t88.5 -194.5q0 -39 -12 -76t-28.5 -66.5
t-50.5 -63t-60.5 -56.5t-77 -56.5t-82 -52.5t-91.5 -55q-6 -4 -6 -10q0 -7 13 -4q57 6 186 6h160q41 0 41 -41v-88q0 -41 -41 -41h-574q-41 0 -41 41v98zM631 0q-23 0 -31 13.5t2 35.5l723 1356q16 29 49 29h99q23 0 31 -14t-3 -36l-723 -1355q-16 -29 -49 -29h-98z
M1292 197q-4 20 7 31.5t32 11.5h109q32 0 47 -35q28 -78 139 -78q67 0 103 39t36 110q0 67 -37.5 108.5t-101.5 41.5q-86 0 -127 -55q-18 -34 -51 -25l-109 25q-38 9 -32 47l67 387q6 37 43 37h449q41 0 41 -41v-74q0 -41 -41 -41h-318q-9 0 -12 -10l-37 -195q-4 -12 2 -12
q4 4 10 12q25 38 72.5 62t108.5 24q110 0 188 -76t78 -208q0 -138 -95.5 -220.5t-232.5 -82.5q-131 0 -222.5 56t-115.5 161z" />
    <glyph glyph-name="uni2157" unicode="&#x2157;" horiz-adv-x="1970" 
d="M418 571q-147 0 -241 66t-116 188q-4 20 6 31.5t31 11.5h121q36 0 45 -39q20 -96 146 -96q63 0 101 30t38 83q0 108 -143 108h-23q-41 0 -41 41v62q0 41 41 41h29q127 0 127 102q0 46 -32.5 71t-92.5 25q-100 0 -121 -71q-9 -37 -43 -37h-119q-21 0 -31.5 11.5t-7.5 31.5
q20 112 105.5 168.5t220.5 56.5q138 2 226.5 -59t88.5 -172q0 -71 -41 -120t-108 -61q-13 -3 -13 -4q0 -3 13 -6q83 -9 129.5 -61.5t46.5 -136.5q0 -118 -96 -191.5t-246 -73.5zM586 0q-23 0 -31 13.5t2 35.5l723 1356q16 29 49 29h98q23 0 31.5 -14t-2.5 -36l-723 -1355
q-16 -29 -49 -29h-98zM1245 197q-4 20 7 31.5t32 11.5h109q32 0 47 -35q28 -78 139 -78q67 0 103 39t36 110q0 67 -37.5 108.5t-101.5 41.5q-86 0 -127 -55q-18 -34 -51 -25l-109 25q-38 9 -32 47l67 387q6 37 43 37h449q41 0 41 -41v-74q0 -41 -41 -41h-318q-9 0 -12 -10
l-37 -195q-4 -12 2 -12q4 4 10 12q25 38 72.5 62t108.5 24q110 0 188 -76t78 -208q0 -138 -95.5 -220.5t-232.5 -82.5q-131 0 -222.5 56t-115.5 161z" />
    <glyph glyph-name="uni2158" unicode="&#x2158;" horiz-adv-x="2009" 
d="M526 588q-41 0 -41 41v127q0 12 -12 12h-358q-41 0 -41 41v125q0 27 18 51l354 426q17 23 52 23h153q41 0 41 -41v-455q0 -12 13 -12h59q41 0 41 -41v-76q0 -41 -41 -41h-59q-13 0 -13 -12v-127q0 -41 -41 -41h-125zM250 940q-4 -6 -2 -10t10 -4h223q13 0 13 12v305
q0 12 -5 12q-7 0 -10 -10q-26 -57 -145 -205zM625 0q-23 0 -31 13.5t2 35.5l723 1356q16 29 49 29h98q23 0 31.5 -14t-2.5 -36l-723 -1355q-16 -29 -49 -29h-98zM1284 197q-4 20 7 31.5t32 11.5h109q32 0 47 -35q28 -78 139 -78q67 0 103 39t36 110q0 67 -37.5 108.5
t-101.5 41.5q-86 0 -127 -55q-18 -34 -51 -25l-109 25q-39 9 -33 47l68 387q6 37 43 37h449q40 0 40 -41v-74q0 -41 -40 -41h-318q-9 0 -12 -10l-37 -195q-4 -12 2 -12q4 4 10 12q25 38 72 62t108 24q111 0 189 -76t78 -208q0 -138 -95.5 -220.5t-232.5 -82.5
q-131 0 -222.5 56t-115.5 161z" />
    <glyph glyph-name="uni2159" unicode="&#x2159;" horiz-adv-x="1759" 
d="M262 1204q-5 0 -10 -8q-49 -57 -148 -66q-43 -3 -43 39v105q0 40 41 43q130 9 185 88q17 29 49 29h96q41 0 41 -41v-764q0 -41 -41 -41h-125q-41 0 -41 41v563q0 12 -4 12zM379 0q-23 0 -31 13.5t2 35.5l723 1356q16 29 49 29h99q23 0 31 -14t-3 -36l-723 -1355
q-16 -29 -49 -29h-98zM1008 395q0 216 91 337.5t269 121.5q107 0 192 -46.5t117 -143.5q6 -20 -4.5 -33t-32.5 -13h-106q-33 0 -47 33q-33 54 -119 54q-91 0 -132.5 -68t-39.5 -207q0 -10 4 -10q1 -1 2.5 0t3 3.5t2.5 6.5q51 125 213 125q121 0 200 -78.5t79 -208.5
q0 -143 -97.5 -221t-238.5 -78q-173 0 -264.5 111t-91.5 315zM1221 260q0 -58 37.5 -96.5t105.5 -38.5q68 -1 105.5 37.5t37.5 97.5q0 63 -38.5 104.5t-102.5 41.5q-65 0 -105 -41.5t-40 -104.5z" />
    <glyph glyph-name="uni215A" unicode="&#x215a;" horiz-adv-x="1933" 
d="M217 831q32 0 47 -34q28 -78 139 -78q67 0 103.5 39t36.5 110q0 67 -38 108.5t-102 41.5q-86 0 -127 -55q-18 -34 -51 -25l-108 25q-39 9 -33 47l68 387q6 37 43 37h448q41 0 41 -41v-74q0 -41 -41 -41h-317q-10 0 -13 -10l-37 -195q-1 -4 0 -8t3 -4q4 4 10 12
q25 38 72 62t108 24q110 0 188 -76.5t78 -208.5q0 -138 -95 -220.5t-232 -82.5q-131 0 -222.5 56t-115.5 161q-4 20 7 31.5t32 11.5h108zM553 0q-23 0 -31 13.5t2 35.5l723 1356q16 29 49 29h99q23 0 31 -14t-3 -36l-723 -1355q-16 -29 -49 -29h-98zM1182 395
q0 216 91 337.5t269 121.5q107 0 192 -46.5t117 -143.5q6 -20 -4 -33t-32 -13h-107q-33 0 -47 33q-33 54 -119 54q-91 0 -132.5 -68t-39.5 -207q0 -10 4 -10q1 -1 2.5 0t3 3.5t2.5 6.5q51 125 213 125q121 0 200 -78.5t79 -208.5q0 -143 -97.5 -221t-238.5 -78
q-173 0 -264.5 111t-91.5 315zM1395 260q0 -58 37.5 -96.5t105.5 -38.5q68 -1 105.5 37.5t37.5 97.5q0 63 -38.5 104.5t-102.5 41.5q-65 0 -105 -41.5t-40 -104.5z" />
    <glyph glyph-name="oneeighth" unicode="&#x215b;" horiz-adv-x="1693" 
d="M262 1204q-5 0 -10 -8q-49 -57 -148 -66q-43 -3 -43 39v105q0 40 41 43q130 9 185 88q17 29 49 29h96q41 0 41 -41v-764q0 -41 -41 -41h-125q-41 0 -41 41v563q0 12 -4 12zM317 0q-23 0 -31 13.5t3 35.5l723 1356q16 29 49 29h98q23 0 31.5 -14t-2.5 -36l-723 -1355
q-16 -29 -49 -29h-99zM905 225q0 80 41 133t115 74q10 3 10 6t-10 6q-55 15 -86 62.5t-31 118.5q0 106 85 169.5t231 63.5q144 0 228.5 -62.5t84.5 -168.5q0 -70 -33 -119t-90 -64q-10 -3 -10 -6t10 -6q76 -21 119 -74t43 -133q0 -115 -96 -183.5t-256 -68.5q-163 0 -259 68
t-96 184zM1106 250q0 -60 42 -90.5t112 -30.5q72 0 113 31.5t40 89.5q-1 61 -42.5 91t-110.5 30q-71 0 -112.5 -31t-41.5 -90zM1124 608q0 -53 37 -81.5t99 -28.5q60 0 96.5 28.5t36.5 81.5q0 54 -36 81.5t-97 27.5q-63 0 -99.5 -28t-36.5 -81z" />
    <glyph glyph-name="threeeighths" unicode="&#x215c;" horiz-adv-x="1878" 
d="M418 571q-147 0 -241 66t-116 188q-4 20 6 31.5t31 11.5h121q36 0 45 -39q20 -96 146 -96q63 0 101 30t38 83q0 108 -143 108h-23q-41 0 -41 41v62q0 41 41 41h29q127 0 127 102q0 46 -32.5 71t-92.5 25q-100 0 -121 -71q-9 -37 -43 -37h-119q-21 0 -31.5 11.5t-7.5 31.5
q20 112 105.5 168.5t220.5 56.5q138 2 226.5 -59t88.5 -172q0 -71 -41 -120t-108 -61q-13 -3 -13 -4q0 -3 13 -6q83 -9 129.5 -61.5t46.5 -136.5q0 -118 -96 -191.5t-246 -73.5zM530 0q-23 0 -31 13.5t3 35.5l723 1356q16 29 49 29h98q23 0 31.5 -14t-2.5 -36l-723 -1355
q-16 -29 -49 -29h-99zM1114 225q0 80 41 133t115 74q10 3 10 6t-10 6q-55 15 -86 62.5t-31 118.5q0 106 85 169.5t230 63.5t229.5 -62.5t84.5 -168.5q0 -70 -33 -119t-90 -64q-10 -3 -10 -6t10 -6q76 -21 119 -74t43 -133q0 -115 -96.5 -183.5t-256.5 -68.5
q-163 0 -258.5 68t-95.5 184zM1315 250q0 -60 41.5 -90.5t111.5 -30.5q72 0 113.5 31.5t40.5 89.5q-1 61 -43 91t-111 30q-71 0 -112 -31t-41 -90zM1333 608q0 -53 36.5 -81.5t98.5 -28.5q60 0 97 28.5t37 81.5q0 54 -36.5 81.5t-97.5 27.5q-63 0 -99 -28t-36 -81z" />
    <glyph glyph-name="fiveeighths" unicode="&#x215d;" horiz-adv-x="1861" 
d="M217 831q32 0 47 -34q28 -78 139 -78q67 0 103.5 39t36.5 110q0 67 -38 108.5t-102 41.5q-86 0 -127 -55q-18 -34 -51 -25l-108 25q-39 9 -33 47l68 387q6 37 43 37h448q41 0 41 -41v-74q0 -41 -41 -41h-317q-10 0 -13 -10l-37 -195q-1 -4 0 -8t3 -4q4 4 10 12
q25 38 72 62t108 24q110 0 188 -76.5t78 -208.5q0 -138 -95 -220.5t-232 -82.5q-131 0 -222.5 56t-115.5 161q-4 20 7 31.5t32 11.5h108zM514 0q-23 0 -31 13.5t2 35.5l723 1356q16 29 49 29h99q23 0 31 -14t-3 -36l-722 -1355q-16 -29 -50 -29h-98zM1096 225q0 80 41 133
t114 74q11 4 11 6t-11 6q-55 15 -85.5 62.5t-30.5 118.5q0 106 85 169.5t230 63.5q144 0 228.5 -62.5t84.5 -168.5q0 -70 -33 -119t-90 -64q-10 -3 -10 -6t10 -6q76 -21 119 -74t43 -133q0 -115 -96 -183.5t-256 -68.5q-163 0 -258.5 68t-95.5 184zM1296 250q0 -60 42 -90.5
t112 -30.5q72 0 113.5 31.5t40.5 89.5q-1 61 -43 91t-111 30q-71 0 -112.5 -31t-41.5 -90zM1315 608q0 -53 36.5 -81.5t98.5 -28.5q60 0 96.5 28.5t36.5 81.5q0 54 -36 81.5t-97 27.5q-63 0 -99 -28t-36 -81z" />
    <glyph glyph-name="seveneighths" unicode="&#x215e;" horiz-adv-x="1705" 
d="M549 1274q0 2 -12 2h-435q-41 0 -41 41v76q0 41 41 41h535q41 0 41 -41v-101q0 -28 -21 -49q-128 -131 -183 -265t-62 -349q-3 -41 -43 -41h-131q-42 0 -39 41q9 211 101.5 377t240.5 260q8 3 8 8zM336 0q-23 0 -31 13.5t2 35.5l723 1356q16 29 49 29h99q23 0 31 -14
t-3 -36l-723 -1355q-16 -29 -49 -29h-98zM940 225q0 80 41 133t115 74q10 3 10 6t-10 6q-55 15 -86 62.5t-31 118.5q0 106 85 169.5t230 63.5t229.5 -62.5t84.5 -168.5q0 -70 -33 -119t-90 -64q-10 -3 -10 -6t10 -6q76 -21 119 -74t43 -133q0 -115 -96.5 -183.5
t-256.5 -68.5q-163 0 -258.5 68t-95.5 184zM1141 250q0 -60 41.5 -90.5t111.5 -30.5q72 0 113.5 31.5t40.5 89.5q-1 61 -43 91t-111 30q-71 0 -112 -31t-41 -90zM1159 608q0 -53 36.5 -81.5t98.5 -28.5q60 0 96.5 28.5t36.5 81.5q0 54 -36 81.5t-97 27.5q-63 0 -99 -28
t-36 -81z" />
    </font>
</defs>
</svg>
