<?xml version="1.0" standalone="no"?>
<!DOCTYPE svg PUBLIC "-//W3C//DTD SVG 1.1//EN" "http://www.w3.org/Graphics/SVG/1.1/DTD/svg11.dtd" >
<svg xmlns="http://www.w3.org/2000/svg" xmlns:xlink="http://www.w3.org/1999/xlink" version="1.1">
<metadata>
Created by FontForge 20170731 at Fri Oct 29 22:32:10 2021
 By Aleksey,,,
Copyright (c) 2020 Andrea Biggio &#38; The Designers Foundry. All rights reserved.
</metadata>
<defs>
<font id="TelenorEvolutionUI-Light" horiz-adv-x="2076" >
  <font-face 
    font-family="Telenor Evolution UI Light"
    font-weight="300"
    font-stretch="normal"
    units-per-em="2048"
    panose-1="0 0 0 0 0 0 0 0 0 0"
    ascent="1638"
    descent="-410"
    x-height="1057"
    cap-height="1434"
    bbox="-119.571 -618 5212.08 1956"
    underline-thickness="102"
    underline-position="-644"
    unicode-range="U+0020-F8FF"
  />
<missing-glyph horiz-adv-x="1300" 
 />
    <glyph glyph-name="f_f" unicode="ff" horiz-adv-x="1288" 
d="M225 0q-28 0 -28 29v893q0 12 -13 12h-96q-29 0 -29 29v65q0 29 29 29h96q13 0 13 12v80q0 156 86 235.5t237 79.5q64 0 115 -10q27 -3 27 -31v-73q0 -14 -9 -22t-22 -5q-47 8 -92 8q-90 0 -136.5 -47.5t-46.5 -155.5v-59q0 -12 13 -12h364q12 0 12 12v80
q0 156 86.5 235.5t237.5 79.5q66 0 115 -10q26 -3 26 -31v-73q0 -14 -8.5 -22t-21.5 -5q-44 8 -93 8q-90 0 -136 -47t-46 -156v-59q0 -12 13 -12h264q28 0 28 -29v-65q0 -29 -28 -29h-260q-13 0 -13 -12v-893q0 -29 -28 -29h-107q-29 0 -29 29v893q0 12 -12 12h-360
q-13 0 -13 -12v-893q0 -29 -28 -29h-107z" />
    <glyph glyph-name="f_f_i" unicode="ffi" horiz-adv-x="1597" 
d="M225 0q-28 0 -28 29v893q0 12 -13 12h-96q-29 0 -29 29v65q0 29 29 29h96q13 0 13 12v80q0 156 86 235.5t237 79.5q64 0 115 -10q27 -3 27 -31v-73q0 -14 -9 -22t-22 -5q-47 8 -92 8q-90 0 -136.5 -47.5t-46.5 -155.5v-59q0 -12 13 -12h364q12 0 12 12v80
q0 156 86.5 235.5t237.5 79.5q66 0 115 -10q26 -3 26 -31v-73q0 -14 -8.5 -22t-21.5 -5q-44 8 -93 8q-90 0 -136 -47t-46 -156v-59q0 -12 13 -12h509q29 0 29 -29v-999q0 -29 -29 -29h-106q-29 0 -29 29v893q0 12 -12 12h-358q-13 0 -13 -12v-893q0 -29 -28 -29h-107
q-29 0 -29 29v893q0 12 -12 12h-360q-13 0 -13 -12v-893q0 -29 -28 -29h-107z" />
    <glyph glyph-name="f_f_l" unicode="ffl" horiz-adv-x="1652" 
d="M225 0q-28 0 -28 29v893q0 12 -13 12h-96q-29 0 -29 29v65q0 29 29 29h96q13 0 13 12v80q0 156 86 235.5t237 79.5q64 0 115 -10q27 -3 27 -31v-73q0 -14 -9 -22t-22 -5q-47 8 -92 8q-90 0 -136.5 -47.5t-46.5 -155.5v-59q0 -12 13 -12h364q12 0 12 12v53q0 184 105 263
t315 79q147 0 322 -26q26 -3 26 -31v-1378q0 -29 -28 -29h-109q-28 0 -28 29v1278q0 11 -13 14q-132 12 -176 12q-134 0 -194 -47.5t-60 -163.5v-53q0 -12 13 -12h264q28 0 28 -29v-65q0 -29 -28 -29h-260q-13 0 -13 -12v-893q0 -29 -28 -29h-107q-29 0 -29 29v893
q0 12 -12 12h-360q-13 0 -13 -12v-893q0 -29 -28 -29h-107z" />
    <glyph glyph-name="f_i" unicode="fi" horiz-adv-x="1048" 
d="M879 1057q28 0 28 -29v-999q0 -29 -28 -29h-107q-29 0 -29 29v893q0 12 -12 12h-358q-13 0 -13 -12v-893q0 -29 -28 -29h-107q-28 0 -28 29v893q0 12 -13 12h-96q-29 0 -29 29v65q0 29 29 29h96q13 0 13 12v80q0 156 86 235.5t237 79.5q64 0 115 -10q27 -3 27 -31v-73
q0 -14 -9 -22t-22 -5q-47 8 -92 8q-90 0 -136.5 -47.5t-46.5 -155.5v-59q0 -12 13 -12h510z" />
    <glyph glyph-name="f_l" unicode="fl" horiz-adv-x="1101" 
d="M197 1122q0 184 104.5 263t312.5 79q150 0 322 -26q27 -3 27 -31v-1378q0 -29 -29 -29h-107q-28 0 -28 29v1278q0 11 -13 14q-136 12 -176 12q-134 0 -194 -47.5t-60 -163.5v-53q0 -12 13 -12h264q29 0 29 -29v-65q0 -29 -29 -29h-260q-13 0 -13 -12v-893q0 -29 -28 -29
h-107q-28 0 -28 29v893q0 12 -13 12h-96q-29 0 -29 29v65q0 29 29 29h96q13 0 13 12v53z" />
    <glyph glyph-name="t_t" unicode="tt" horiz-adv-x="1269" 
d="M266 0q-28 0 -28 29v893q0 12 -13 12h-137q-29 0 -29 29v65q0 29 29 29h137q13 0 13 12v236q0 28 28 28h101q28 0 28 -28l6 -236q0 -4 4 -8t9 -4h323q13 0 13 12v236q0 28 28 28h107q28 0 28 -28v-236q0 -12 13 -12h237q29 0 29 -29v-65q0 -29 -29 -29h-237
q-13 0 -13 -12v-639q0 -85 34 -122.5t110 -37.5q38 0 100 10q15 3 24 -3.5t9 -20.5v-72q0 -27 -25 -33q-72 -14 -125 -14q-157 0 -223.5 62t-66.5 216v654q0 12 -13 12h-323q-13 0 -13 -12v-893q0 -29 -28 -29h-107z" />
    <glyph glyph-name=".notdef" horiz-adv-x="1300" 
 />
    <glyph glyph-name=".null" horiz-adv-x="0" 
 />
    <glyph glyph-name="nonmarkingreturn" horiz-adv-x="682" 
 />
    <glyph glyph-name="space" unicode=" " horiz-adv-x="466" 
 />
    <glyph glyph-name="space" unicode="&#xa0;" horiz-adv-x="466" 
 />
    <glyph glyph-name="exclam" unicode="!" horiz-adv-x="464" 
d="M145 1405q0 29 29 29h119q29 0 29 -29l-21 -1002q0 -28 -29 -28h-77q-29 0 -29 28zM113 88q0 49 33.5 83t80.5 34q54 0 89.5 -33.5t35.5 -83.5q0 -53 -36 -87t-89 -34q-48 0 -81 34.5t-33 86.5z" />
    <glyph glyph-name="quotedbl" unicode="&#x22;" horiz-adv-x="864" 
d="M213 883q-28 0 -31 28l-28 494q-3 29 26 29h135q30 0 27 -29l-29 -494q-3 -28 -30 -28h-70zM522 1405q-3 29 27 29h135q30 0 27 -29l-29 -494q-3 -28 -31 -28h-69q-28 0 -31 28z" />
    <glyph glyph-name="numbersign" unicode="#" horiz-adv-x="1372" 
d="M133 406q-29 0 -29 28v82q0 29 29 29h176q10 0 13 10l63 319q1 6 -2.5 10.5t-9.5 4.5h-154q-29 0 -29 29v81q0 29 29 29h187q9 0 12 10l71 369q6 27 31 27h94q30 0 27 -31l-57 -363q-3 -12 12 -12h307q9 0 12 10l70 369q1 12 10 19.5t21 7.5h98q14 0 21 -9t4 -22
l-60 -363q-1 -6 3 -9t10 -3h147q29 0 29 -29v-81q0 -29 -29 -29h-180q-9 0 -12 -10l-64 -320q-3 -14 12 -14h158q29 0 29 -29v-82q0 -28 -29 -28h-190q-9 0 -13 -11l-69 -368q-1 -12 -10 -19.5t-21 -7.5h-96q-13 0 -21 8.5t-6 22.5l59 362q3 13 -12 13h-309q-8 0 -12 -11
l-72 -368q-6 -27 -31 -27h-92q-13 0 -21 8.5t-6 22.5l60 362q3 13 -12 13h-146zM487 559q-1 -6 3 -10t10 -4h307q9 0 12 10l64 319q1 6 -3 10.5t-10 4.5h-309q-9 0 -12 -10z" />
    <glyph glyph-name="dollar" unicode="$" horiz-adv-x="1312" 
d="M98 336q-2 14 6 22.5t21 8.5h129q25 0 31 -25q28 -86 107 -140.5t198 -66.5q12 -3 12 10l2 508q0 10 -8 13q-54 12 -91 21.5t-90 28t-89 38t-76 51.5t-63.5 70t-39.5 90.5t-16 115.5q0 162 121.5 263t333.5 120q12 0 12 13v176q0 28 29 28h69q29 0 29 -28v-176
q0 -13 12 -13q189 -15 309.5 -110t143.5 -254q3 -14 -5 -22.5t-22 -8.5h-121q-24 0 -30 27q-20 86 -92.5 140.5t-182.5 66.5q-12 3 -12 -11v-473q0 -9 10 -12l41 -10q56 -13 98 -24t92.5 -29.5t86.5 -38.5t72.5 -50.5t59 -66.5t36.5 -84.5t14 -106.5q0 -182 -132.5 -296.5
t-359.5 -129.5q-12 0 -12 -12v-182q0 -29 -29 -29h-71q-29 0 -29 29v182q0 11 -14 14q-200 17 -329 113t-161 250zM309 1075q0 -89 71.5 -144.5t203.5 -90.5q14 -4 14 10v442q0 14 -18 11q-126 -15 -198.5 -75.5t-72.5 -152.5zM731 143q0 -12 12 -12q150 14 232 80t82 178
q0 99 -79.5 154.5t-232.5 89.5q-14 3 -14 -10v-480z" />
    <glyph glyph-name="percent" unicode="%" horiz-adv-x="1878" 
d="M510 0q-17 0 -23 11t2 24l738 1378q9 21 33 21h96q17 0 22.5 -11t-2.5 -24l-737 -1379q-9 -20 -33 -20h-96zM70 1028q0 198 85.5 315t258.5 117q174 0 259 -116.5t85 -315.5q0 -95 -20.5 -172t-61.5 -135.5t-107.5 -90.5t-154.5 -32q-169 0 -256.5 118t-87.5 312z
M227 1028q0 -301 187 -301q186 0 186 301q0 303 -186 303q-187 0 -187 -303zM1120 406q0 198 85.5 315t258.5 117q174 0 259 -116.5t85 -315.5q0 -128 -35 -222.5t-114 -151.5t-195 -57q-169 0 -256.5 118.5t-87.5 312.5zM1278 406q0 -302 186 -302q187 0 187 302
q0 303 -187 303q-186 0 -186 -303z" />
    <glyph glyph-name="ampersand" unicode="&#x26;" horiz-adv-x="1300" 
d="M950 135q-9 11 -20 0q-168 -168 -402 -168q-190 0 -312 100.5t-122 274.5q0 136 79 247t226 173q19 8 7 20q-90 90 -131.5 173t-41.5 173q0 151 101 249t262 98q158 0 260 -94t102 -242q0 -122 -75 -230.5t-205 -158.5q-20 -8 -6 -25l243 -293q4 -6 10 -5.5t9 7.5
q42 104 45 242q0 29 29 29h106q30 0 27 -29q-11 -200 -99 -381q-6 -11 2 -21l201 -239q11 -13 6.5 -24t-22.5 -11h-146q-21 0 -34 16zM262 383q0 -111 79 -185.5t210 -74.5q91 0 167 36t116 95q9 11 0 20l-340 406q-10 10 -23 4q-209 -127 -209 -301zM403 1124
q0 -58 36.5 -124.5t144.5 -174.5q9 -9 22 -2q90 48 137.5 133t47.5 168q0 89 -54 146t-143 57q-90 0 -140.5 -58t-50.5 -145z" />
    <glyph glyph-name="quotesingle" unicode="'" horiz-adv-x="495" 
d="M213 883q-28 0 -31 28l-28 494q-3 29 26 29h135q30 0 27 -29l-29 -494q-3 -28 -30 -28h-70z" />
    <glyph glyph-name="parenleft" unicode="(" horiz-adv-x="591" 
d="M416 -381q-22 0 -35 19q-258 390 -258 962q0 575 258 969q12 18 35 18h92q17 0 22.5 -10t-2.5 -25q-123 -223 -176 -446t-53 -506q0 -282 53 -502t176 -444q8 -15 2.5 -25t-22.5 -10h-92z" />
    <glyph glyph-name="parenright" unicode=")" horiz-adv-x="591" 
d="M84 -381q-17 0 -23 10t2 25q123 222 177.5 446t54.5 500t-54 502t-178 450q-8 15 -2 25t23 10h94q23 0 35 -18q256 -395 256 -969q0 -572 -256 -962q-13 -19 -35 -19h-94z" />
    <glyph glyph-name="asterisk" unicode="*" horiz-adv-x="962" 
d="M367 733q-20 -56 -74 -48q-45 7 -72 48q-34 51 6 97l4 4l209 217q6 6 5.5 11t-9.5 5h-266q-56 0 -67 53q-9 49 22 93q35 49 85 28l11 -6l223 -133q6 -3 10 0t3 10l-66 258q-16 63 38 89q46 22 94 2q54 -24 46 -81l-2 -10l-63 -258q-2 -6 0 -9t12 1l223 131q52 30 93 -17
q34 -40 28 -90q-6 -53 -58 -58l-11 -1h-269q-9 0 -10.5 -5t4.5 -11l215 -217q44 -45 12 -98q-25 -42 -70 -52q-55 -12 -79 43l-2 6l-105 289q-3 8 -8 8t-8 -8z" />
    <glyph glyph-name="plus" unicode="+" horiz-adv-x="1181" 
d="M512 1174q0 28 29 28h102q29 0 29 -28v-359q0 -12 12 -12h358q29 0 29 -29v-90q0 -29 -29 -29h-358q-12 0 -12 -12v-358q0 -29 -29 -29h-102q-29 0 -29 29v358q0 12 -12 12h-361q-28 0 -28 29v90q0 29 28 29h361q12 0 12 12v359z" />
    <glyph glyph-name="comma" unicode="," horiz-adv-x="542" 
d="M229 184q6 25 33 25h133q15 0 22.5 -9.5t2.5 -23.5l-168 -495q-10 -23 -33 -23h-74q-14 0 -21.5 9t-4.5 22z" />
    <glyph glyph-name="hyphen" unicode="-" horiz-adv-x="794" 
d="M133 504q-29 0 -29 28v91q0 28 29 28h529q28 0 28 -28v-91q0 -28 -28 -28h-529z" />
    <glyph glyph-name="period" unicode="." horiz-adv-x="464" 
d="M227 -31q-48 0 -81 34.5t-33 86.5q0 49 33.5 83t80.5 34q54 0 89.5 -33.5t35.5 -83.5q0 -53 -36 -87t-89 -34z" />
    <glyph glyph-name="slash" unicode="/" horiz-adv-x="759" 
d="M90 0q-15 0 -22 9.5t-2 23.5l469 1378q10 23 32 23h103q15 0 22 -9.5t2 -23.5l-469 -1378q-10 -23 -32 -23h-103z" />
    <glyph glyph-name="zero" unicode="0" horiz-adv-x="1261" 
d="M631 -31q-251 0 -382.5 187.5t-131.5 560.5q0 371 131.5 560t382.5 189t382.5 -188.5t131.5 -560.5q0 -371 -131.5 -559.5t-382.5 -188.5zM299 717q0 -298 80 -445t252 -147q171 0 251.5 148t80.5 444q0 298 -80.5 446t-251.5 148q-172 0 -252 -147.5t-80 -446.5z" />
    <glyph glyph-name="one" unicode="1" horiz-adv-x="768" 
d="M430 1186q-82 -125 -293 -135q-28 0 -28 28v111q0 29 28 29q109 8 198 59t134 135q12 21 33 21h90q29 0 29 -29v-1376q0 -29 -29 -29h-117q-29 0 -29 29v1153q0 9 -5 11t-11 -7z" />
    <glyph glyph-name="two" unicode="2" horiz-adv-x="1107" 
d="M111 123q0 22 16 35q61 60 144 141.5t131.5 129t112.5 111.5t100 104t79.5 90.5t66.5 87t44.5 78t30 79t8.5 74.5q0 124 -73 192t-196 68q-114 0 -187 -60.5t-87 -185.5q-3 -29 -29 -29h-114q-14 0 -22 8t-7 23q20 194 140 295.5t306 101.5q198 0 320.5 -112.5
t122.5 -300.5q0 -59 -19.5 -122t-48 -118t-79 -120.5t-92 -113.5t-109.5 -114.5t-110.5 -104.5t-114.5 -103t-103 -93q-6 -6 -3.5 -13.5t11.5 -7.5q158 11 320 11h325q29 0 29 -29v-96q0 -29 -29 -29h-854q-28 0 -28 29z" />
    <glyph glyph-name="three" unicode="3" horiz-adv-x="1167" 
d="M592 -33q-215 0 -344.5 116t-138.5 320q0 29 28 29h115q28 0 31 -29q9 -137 91.5 -209.5t219.5 -72.5q141 0 221 75.5t80 209.5q0 135 -84.5 208.5t-239.5 73.5h-57q-29 0 -29 29v84q0 28 29 28h68q133 0 204.5 63.5t71.5 180.5q0 116 -72.5 178t-195.5 62
q-121 0 -197 -62.5t-88 -183.5q-1 -13 -10 -21t-21 -8h-114q-30 0 -27 29q12 193 138.5 296t320.5 103t316 -100.5t122 -275.5q0 -119 -52.5 -203.5t-143.5 -110.5q-7 -2 -10 -6.5t-1 -8.5t8 -5q66 -11 115.5 -45t77 -83.5t40.5 -104t13 -115.5q0 -202 -133 -321.5
t-352 -119.5z" />
    <glyph glyph-name="four" unicode="4" horiz-adv-x="1165" 
d="M780 0q-28 0 -28 29v317q0 12 -13 12h-637q-28 0 -28 29v111q0 22 12 37l641 880q13 19 35 19h133q29 0 29 -29v-879q0 -12 12 -12h139q29 0 29 -29v-98q0 -29 -29 -29h-139q-12 0 -12 -12v-317q0 -29 -29 -29h-115zM256 528q-4 -6 -2 -10t10 -4h475q13 0 13 12v701
q0 7 -4.5 10t-9.5 1t-7 -7q-43 -103 -162 -270z" />
    <glyph glyph-name="five" unicode="5" horiz-adv-x="1157" 
d="M258 399q24 0 31 -26q17 -118 98 -185t195 -67q131 0 216 92t85 238q0 143 -85 237t-225 94q-175 0 -256 -153q-11 -25 -34 -19l-101 19q-25 6 -22 33l100 745q1 12 10 19.5t21 7.5h680q28 0 28 -29v-94q0 -29 -28 -29h-555q-5 0 -10 -4t-5 -8l-59 -428q-1 -11 5.5 -13
t14.5 5q126 100 271 100q186 0 306 -133t120 -344q0 -219 -132.5 -354.5t-342.5 -135.5q-188 0 -315.5 109t-149.5 293q-3 30 28 30h111z" />
    <glyph glyph-name="six" unicode="6" horiz-adv-x="1204" 
d="M319 762q56 78 143.5 125t196.5 47q195 0 316 -134t121 -349q0 -224 -132.5 -354t-347.5 -130q-108 0 -193 36t-142 100t-94.5 157t-53.5 202t-16 240q0 171 28.5 308t88 240.5t157.5 159.5t230 56q173 0 292 -93.5t160 -260.5q3 -13 -4.5 -22t-21.5 -9h-115
q-27 0 -33 27q-23 97 -94 150t-178 53q-167 0 -249 -133.5t-87 -407.5q0 -11 5 -15.5t11.5 -2t11.5 9.5zM324 449q0 -147 84.5 -236.5t214.5 -89.5q133 0 214 92.5t81 235.5t-82 237t-215 94q-134 0 -215.5 -94.5t-81.5 -238.5z" />
    <glyph glyph-name="seven" unicode="7" horiz-adv-x="1015" 
d="M762 1278h-672q-29 0 -29 29v98q0 29 29 29h836q28 0 28 -29v-86q0 -20 -12 -35q-218 -255 -341 -575.5t-138 -679.5q0 -29 -29 -29h-121q-29 0 -26 29q15 368 147 696.5t336 525.5q9 7 6.5 17t-14.5 10z" />
    <glyph glyph-name="eight" unicode="8" horiz-adv-x="1179" 
d="M590 -33q-223 0 -361.5 118t-138.5 321q0 134 71.5 226.5t200.5 129.5q10 3 10 11t-10 11q-90 25 -153.5 110t-63.5 191q0 175 125.5 278t319.5 103t319 -103t125 -278q0 -109 -64.5 -199t-154.5 -102q-7 -1 -9.5 -5.5t0 -9.5t9.5 -7q117 -33 196 -122.5t79 -233.5
q0 -203 -138.5 -321t-361.5 -118zM270 406q0 -136 88.5 -210.5t231.5 -74.5q142 0 230.5 74.5t88.5 210.5q0 140 -87 212t-232 72t-232.5 -72t-87.5 -212zM313 1073q0 -116 76 -177.5t201 -61.5q123 0 198.5 61.5t75.5 177.5q0 115 -76 176.5t-198 61.5t-199.5 -62
t-77.5 -176z" />
    <glyph glyph-name="nine" unicode="9" horiz-adv-x="1216" 
d="M897 672q-56 -78 -143.5 -125t-196.5 -47q-195 0 -315.5 134t-120.5 349q0 224 132 353.5t347 129.5q108 0 193.5 -36t142.5 -100t94 -157t53.5 -202t16.5 -240q0 -171 -28.5 -308t-88 -240.5t-157.5 -159.5t-230 -56q-173 0 -292.5 93.5t-160.5 261.5q-3 13 5 21.5
t22 8.5h115q26 0 32 -26q23 -97 94.5 -150t178.5 -53q167 0 249 133.5t87 407.5q0 11 -5 15.5t-12 2t-12 -9.5zM299 983q0 -143 82 -237.5t215 -94.5q134 0 215.5 95t81.5 239q0 147 -84.5 236.5t-214.5 89.5q-133 0 -214 -92.5t-81 -235.5z" />
    <glyph glyph-name="colon" unicode=":" horiz-adv-x="464" 
d="M227 774q-48 0 -81 34.5t-33 86.5q0 49 33.5 83t80.5 34q54 0 89.5 -33.5t35.5 -83.5q0 -53 -36 -87t-89 -34zM113 90q0 49 33.5 83t80.5 34q54 0 89.5 -33.5t35.5 -83.5q0 -53 -36 -87t-89 -34q-48 0 -81 34.5t-33 86.5z" />
    <glyph glyph-name="semicolon" unicode=";" horiz-adv-x="593" 
d="M356 774q-48 0 -81 34.5t-33 86.5q0 49 33.5 83t80.5 34q54 0 89.5 -33.5t35.5 -83.5q0 -53 -36 -87t-89 -34zM145 -342q-14 0 -21.5 9t-4.5 22l110 495q6 25 33 25h133q15 0 22.5 -9.5t2.5 -23.5l-168 -495q-10 -23 -33 -23h-74z" />
    <glyph glyph-name="less" unicode="&#x3c;" horiz-adv-x="1140" 
d="M260 711q0 -6 10 -9q201 -71 367 -137l371 -151q22 -9 22 -33v-115q0 -15 -10 -21.5t-23 -0.5l-864 370q-22 9 -22 35v121q0 26 22 35l864 371q13 6 23 -1t10 -22v-115q0 -23 -22 -32l-371 -152q-116 -46 -367 -135q-10 -3 -10 -8z" />
    <glyph glyph-name="equal" unicode="=" horiz-adv-x="1181" 
d="M1042 979q29 0 29 -29v-90q0 -29 -29 -29h-903q-28 0 -28 29v90q0 29 28 29h903zM139 479q-28 0 -28 29v90q0 29 28 29h903q29 0 29 -29v-90q0 -29 -29 -29h-903z" />
    <glyph glyph-name="greater" unicode="&#x3e;" horiz-adv-x="1140" 
d="M881 711q0 4 -11 8q-241 86 -366 135l-371 152q-22 9 -22 32v115q0 15 9.5 22t22.5 1l865 -371q22 -9 22 -35v-121q0 -26 -22 -35l-865 -370q-13 -6 -22.5 0.5t-9.5 21.5v115q0 24 22 33l371 151q175 69 366 137q11 4 11 9z" />
    <glyph glyph-name="question" unicode="?" horiz-adv-x="1052" 
d="M469 375q-29 0 -29 28q2 106 21 173.5t56 117t114 121.5q83 76 124.5 139.5t41.5 130.5q0 112 -69 171t-189 59q-138 0 -209.5 -70t-83.5 -229q-3 -29 -31 -29h-111q-28 0 -28 29q10 230 131.5 341t327.5 111q194 0 314 -100t120 -281q0 -103 -48.5 -186.5t-152.5 -175.5
q-104 -90 -133 -147.5t-35 -174.5q-3 -28 -31 -28h-100zM416 88q0 49 33.5 83t80.5 34q54 0 89.5 -33.5t35.5 -83.5q0 -53 -36 -87t-89 -34q-48 0 -81 34.5t-33 86.5z" />
    <glyph glyph-name="at" unicode="@" horiz-adv-x="1929" 
d="M977 -246q-257 0 -457 106t-312 300t-112 446q0 248 107 445.5t309 311.5t465 114q177 0 333 -54t272.5 -152.5t183.5 -247t67 -327.5q0 -77 -12 -150t-40.5 -142t-70 -120.5t-105 -82.5t-141.5 -31q-93 0 -173.5 40t-104.5 109q-8 19 -21 3q-57 -70 -116.5 -106
t-137.5 -36q-152 0 -252 124t-100 321q0 198 101 323t253 125q140 0 246 -141q5 -6 13 -5.5t8 9.5v92q0 29 28 29h105q28 0 28 -29v-536q0 -183 132 -183q59 0 101.5 37.5t63.5 98.5t30 121t9 122q0 152 -54 275.5t-148 204.5t-221 125t-273 44q-166 0 -303.5 -55.5
t-230.5 -153t-144 -231.5t-51 -289q0 -322 204 -518t539 -196q176 0 328 55q15 5 24 -1.5t9 -21.5v-80q0 -23 -21 -32q-171 -60 -358 -60zM723 627q0 -140 63 -226t166 -86q100 0 164 77.5t64 189.5v90q0 110 -64.5 188t-163.5 78q-103 0 -166 -85.5t-63 -225.5z" />
    <glyph glyph-name="A" unicode="A" horiz-adv-x="1435" 
d="M246 23q-10 -23 -33 -23h-121q-15 0 -21.5 9.5t-0.5 23.5l532 1378q10 23 33 23h153q24 0 33 -23l545 -1378q6 -13 -1 -23t-22 -10h-122q-23 0 -33 23l-148 380q-3 11 -14 11h-623q-11 0 -14 -11zM459 584q-4 -15 8 -15h496q12 0 8 15l-103 270q-17 42 -74.5 200
t-74.5 199q-3 7 -8.5 7t-8.5 -7q-16 -37 -67.5 -187.5t-77.5 -219.5z" />
    <glyph glyph-name="B" unicode="B" horiz-adv-x="1288" 
d="M182 0q-28 0 -28 29v1376q0 29 28 29h596q179 0 288.5 -85.5t109.5 -238.5q0 -116 -59.5 -211t-153.5 -121q-7 -2 -9.5 -5t0 -6t9.5 -5q112 -33 180.5 -132t68.5 -235q0 -179 -119 -287t-321 -108h-590zM328 168q0 -12 12 -12h405q291 0 291 252q0 243 -291 243h-405
q-12 0 -12 -12v-471zM328 819q0 -12 12 -12h387q122 0 196 72t74 182q0 98 -64.5 157.5t-170.5 59.5h-422q-12 0 -12 -12v-447z" />
    <glyph glyph-name="C" unicode="C" horiz-adv-x="1437" 
d="M758 -33q-299 0 -480.5 205t-181.5 551q0 345 179.5 544t482.5 199q216 0 362.5 -100t188.5 -264q3 -13 -5 -22t-22 -9h-133q-25 0 -31 25q-28 92 -122.5 151.5t-235.5 59.5q-224 0 -355 -156t-131 -428t134 -434t354 -162q148 0 246.5 74t130.5 198q6 25 32 25h127
q14 0 22 -7.5t7 -19.5q-41 -192 -191 -311t-378 -119z" />
    <glyph glyph-name="D" unicode="D" horiz-adv-x="1382" 
d="M608 156q243 0 371.5 140.5t128.5 420.5t-129 420.5t-371 140.5h-268q-12 0 -12 -12v-1098q0 -12 12 -12h268zM182 0q-28 0 -28 29v1376q0 29 28 29h426q317 0 497.5 -185t180.5 -532q0 -351 -180.5 -534t-497.5 -183h-426z" />
    <glyph glyph-name="E" unicode="E" horiz-adv-x="1191" 
d="M182 0q-28 0 -28 29v1376q0 29 28 29h903q29 0 29 -29v-98q0 -29 -29 -29h-745q-12 0 -12 -12v-435q0 -12 12 -12h666q28 0 28 -28v-99q0 -28 -28 -28h-666q-12 0 -12 -13v-483q0 -12 12 -12h735q29 0 29 -29v-98q0 -29 -29 -29h-893z" />
    <glyph glyph-name="F" unicode="F" horiz-adv-x="1138" 
d="M182 0q-28 0 -28 29v1376q0 29 28 29h860q29 0 29 -29v-98q0 -29 -29 -29h-702q-12 0 -12 -12v-475q0 -13 12 -13h627q28 0 28 -28v-99q0 -28 -28 -28h-627q-12 0 -12 -13v-581q0 -29 -29 -29h-117z" />
    <glyph glyph-name="G" unicode="G" horiz-adv-x="1513" 
d="M725 -33q-152 0 -273 59.5t-198 163t-117.5 239.5t-40.5 294q0 345 181.5 544t492.5 199q222 0 369.5 -100t189.5 -264q3 -13 -4.5 -22t-21.5 -9h-134q-24 0 -30 25q-29 93 -125 152t-242 59q-232 0 -366 -156t-134 -426q0 -123 29.5 -229.5t85.5 -189.5t147.5 -131
t206.5 -48q196 0 328 125.5t141 316.5q0 13 -12 13h-436q-29 0 -29 28v99q0 28 29 28h590q28 0 28 -28v-680q0 -29 -28 -29h-107q-12 0 -21 7.5t-10 19.5l-12 182q0 9 -7.5 10.5t-10.5 -4.5q-161 -248 -459 -248z" />
    <glyph glyph-name="H" unicode="H" horiz-adv-x="1406" 
d="M182 0q-28 0 -28 29v1376q0 29 28 29h117q29 0 29 -29v-592q0 -12 12 -12h727q12 0 12 12v592q0 29 29 29h117q28 0 28 -29v-1376q0 -29 -28 -29h-117q-29 0 -29 29v604q0 12 -12 12h-727q-12 0 -12 -12v-604q0 -29 -29 -29h-117z" />
    <glyph glyph-name="I" unicode="I" horiz-adv-x="481" 
d="M154 1405q0 29 28 29h117q29 0 29 -29v-1376q0 -29 -29 -29h-117q-28 0 -28 29v1376z" />
    <glyph glyph-name="J" unicode="J" horiz-adv-x="1110" 
d="M86 434v41q0 29 29 29h118q29 0 29 -29v-47q0 -164 68 -233.5t211 -69.5q144 0 205 92t61 279v909q0 29 29 29h112q29 0 29 -29v-930q0 -262 -115 -386t-323 -124q-68 0 -129.5 13t-122 46.5t-104 85t-70.5 134.5t-27 190z" />
    <glyph glyph-name="K" unicode="K" horiz-adv-x="1341" 
d="M182 0q-28 0 -28 29v1376q0 29 28 29h117q29 0 29 -29l-9 -737q0 -10 7.5 -12t13.5 6q26 35 168.5 202t187.5 217l299 336q14 17 35 17h146q18 0 22 -11t-8 -24l-287 -320q-168 -189 -227 -248q-17 -17 6 -20q88 -12 142.5 -54t101.5 -128l329 -594q8 -15 2.5 -25
t-22.5 -10h-127q-20 0 -33 20l-274 500q-52 95 -108 130.5t-130 35.5q-25 0 -35 -12l-194 -219q-6 -9 -6 -15v-411q0 -29 -29 -29h-117z" />
    <glyph glyph-name="L" unicode="L" horiz-adv-x="1103" 
d="M182 0q-28 0 -28 29v1376q0 29 28 29h117q29 0 29 -29v-1237q0 -12 12 -12h668q28 0 28 -29v-98q0 -29 -28 -29h-826z" />
    <glyph glyph-name="M" unicode="M" horiz-adv-x="1689" 
d="M182 0q-28 0 -28 29v1376q0 29 28 29h176q23 0 33 -23l283 -725q25 -62 87.5 -232.5t69.5 -187.5q5 -12 13 -12t12 12q59 164 152 404l290 741q10 23 33 23h176q29 0 29 -29v-1376q0 -29 -29 -29h-112q-29 0 -29 29v639q0 81 2 241t2 242q0 12 -7 14t-11 -10
q-12 -30 -83 -227.5t-93 -253.5l-252 -651q-10 -23 -33 -23h-94q-23 0 -33 23l-250 655q-152 403 -174 477q-2 7 -6.5 9.5t-8 -0.5t-3.5 -11q0 -82 1 -244t1 -243v-637q0 -29 -29 -29h-113z" />
    <glyph glyph-name="N" unicode="N" horiz-adv-x="1425" 
d="M326 1176v-1147q0 -29 -29 -29h-115q-28 0 -28 29v1376q0 29 28 29h154q24 0 35 -19l483 -772q23 -37 118.5 -195.5t119.5 -195.5q3 -5 8.5 -4.5t5.5 10.5q0 62 -3 224.5t-3 222.5v700q0 29 28 29h115q29 0 29 -29v-1376q0 -29 -29 -29h-156q-24 0 -34 18l-416 662
q-64 102 -162.5 268.5t-132.5 233.5q-3 7 -9.5 6t-6.5 -12z" />
    <glyph glyph-name="O" unicode="O" horiz-adv-x="1525" 
d="M762 -33q-302 0 -484 206t-182 550q0 338 182 540.5t484 202.5q304 0 486 -202.5t182 -540.5q0 -344 -182 -550t-486 -206zM274 723q0 -272 132.5 -434t355.5 -162t356 162.5t133 433.5q0 266 -133 425t-356 159t-355.5 -159t-132.5 -425z" />
    <glyph glyph-name="P" unicode="P" horiz-adv-x="1259" 
d="M182 0q-28 0 -28 29v1376q0 29 28 29h506q477 0 477 -439q0 -108 -37.5 -193t-103.5 -138t-151.5 -80t-186.5 -27h-346q-12 0 -12 -12v-516q0 -29 -29 -29h-117zM328 725q0 -12 12 -12h315q336 0 336 282q0 81 -26 138.5t-74 88t-105 43.5t-131 13h-315q-12 0 -12 -12
v-541z" />
    <glyph glyph-name="Q" unicode="Q" horiz-adv-x="1525" 
d="M614 -18q-246 65 -382 250.5t-136 490.5q0 338 182 540.5t484 202.5q304 0 486 -202.5t182 -540.5q0 -268 -118.5 -454t-326.5 -238q-12 -3 -12 -13t12 -10l408 -24q28 -4 28 -31v-152q0 -15 -9 -21t-23 -3zM274 723q0 -272 132.5 -434t355.5 -162t356 162.5t133 433.5
q0 266 -133 425t-356 159t-355.5 -159t-132.5 -425z" />
    <glyph glyph-name="R" unicode="R" horiz-adv-x="1300" 
d="M182 0q-28 0 -28 29v1376q0 29 28 29h580q197 0 313.5 -100t116.5 -271q0 -118 -53.5 -213t-143.5 -133q-7 -3 -9.5 -7t0 -8t9.5 -6q51 -17 83.5 -66t49.5 -138l89 -461q3 -13 -5 -22t-22 -9h-119q-12 0 -21 7.5t-10 19.5l-61 356q-20 115 -75.5 156t-176.5 41h-387
q-12 0 -12 -13v-538q0 -29 -29 -29h-117zM328 748q0 -13 12 -13h385q131 0 212 79t81 210q0 122 -75 188t-212 66h-391q-12 0 -12 -12v-518z" />
    <glyph glyph-name="S" unicode="S" horiz-adv-x="1312" 
d="M674 -33q-236 0 -389 98.5t-187 268.5q-2 14 6 22.5t21 8.5h129q25 0 31 -25q31 -100 133 -156.5t256 -56.5q183 0 283 67.5t100 192.5q0 99 -79.5 154.5t-232.5 89.5l-149 33q-54 12 -91 21.5t-90 28t-89 38t-76 51.5t-63.5 70t-39.5 90.5t-16 115.5q0 177 144.5 280
t390.5 105q218 2 359 -94.5t165 -271.5q3 -14 -5 -22.5t-22 -8.5h-121q-24 0 -30 27q-23 100 -116 155.5t-232 55.5q-163 0 -259 -63t-96 -169q0 -97 83.5 -154.5t236.5 -91.5l147 -32q56 -13 98 -24t92.5 -29.5t86.5 -38.5t72.5 -50.5t59 -66.5t36.5 -84.5t14 -106.5
q0 -196 -152.5 -312t-408.5 -116z" />
    <glyph glyph-name="T" unicode="T" horiz-adv-x="1236" 
d="M96 1278q-28 0 -28 29v98q0 29 28 29h1045q28 0 28 -29v-98q0 -29 -28 -29h-422q-12 0 -12 -12v-1237q0 -29 -29 -29h-115q-28 0 -28 29v1237q0 12 -13 12h-426z" />
    <glyph glyph-name="U" unicode="U" horiz-adv-x="1372" 
d="M133 551v854q0 29 29 29h114q29 0 29 -29v-854q0 -200 96.5 -314t284.5 -114t284.5 113.5t96.5 314.5v854q0 29 29 29h114q29 0 29 -29v-854q0 -271 -145 -427.5t-408 -156.5q-261 0 -407 157t-146 427z" />
    <glyph glyph-name="V" unicode="V" horiz-adv-x="1351" 
d="M596 0q-23 0 -33 23l-493 1378q-10 33 22 33h123q23 0 33 -23l215 -618q186 -547 201 -588q4 -12 12 -12t12 12q13 35 201 588l215 618q10 23 33 23h123q32 0 22 -33l-494 -1378q-10 -23 -32 -23h-160z" />
    <glyph glyph-name="W" unicode="W" horiz-adv-x="1957" 
d="M481 0q-24 0 -30 25l-385 1376q-5 14 2 23.5t22 9.5h127q25 0 31 -25l207 -778q16 -62 51 -203.5t45 -177.5q5 -15 12 -15t12 15q9 34 45.5 179.5t51.5 201.5l205 778q6 25 30 25h142q24 0 30 -25l205 -774q11 -42 34.5 -134.5t42 -163.5t23.5 -87q3 -9 7 -13t8.5 -1
t7.5 14q20 75 54.5 210t43.5 171l205 778q6 25 31 25h127q15 0 22 -9.5t2 -23.5l-383 -1376q-6 -25 -30 -25h-158q-25 0 -31 25l-219 819q-11 42 -41 158.5t-39 150.5q-3 11 -7.5 15t-9 0t-7.5 -15q-9 -31 -82 -311l-215 -817q-6 -25 -31 -25h-158z" />
    <glyph glyph-name="X" unicode="X" horiz-adv-x="1290" 
d="M98 0q-17 0 -22 10t4 25l465 692q5 8 0 16l-439 656q-9 15 -3.5 25t22.5 10h145q24 0 35 -19l60 -92q53 -81 158.5 -257.5t109.5 -182.5q8 -12 12.5 -12t11.5 12q2 3 109.5 181t159.5 259l59 92q11 19 35 19h145q17 0 22.5 -10t-3.5 -25l-439 -656q-5 -8 0 -16l465 -692
q9 -15 4 -25t-22 -10h-135q-25 0 -35 18l-82 129q-112 174 -278 443q-16 26 -33 0q-137 -222 -279 -443l-82 -129q-10 -18 -35 -18h-135z" />
    <glyph glyph-name="Y" unicode="Y" horiz-adv-x="1323" 
d="M78 1399q-9 13 -3 24t23 11h133q21 0 35 -21l219 -385q151 -268 162 -285q8 -12 14 -12.5t15 12.5q13 21 41 70.5t66.5 117.5t58.5 103l215 379q14 21 35 21h133q17 0 23 -11t-3 -24l-493 -811q-4 -8 -4 -15v-544q0 -29 -29 -29h-115q-29 0 -29 29v544q0 7 -4 15z" />
    <glyph glyph-name="Z" unicode="Z" horiz-adv-x="1236" 
d="M106 0q-28 0 -28 29v106q0 22 12 37l832 1098q6 8 3.5 13t-10.5 5q-7 0 -95 -2.5t-208.5 -5t-205.5 -2.5h-269q-28 0 -28 29v98q0 29 28 29h983q29 0 29 -29v-102q0 -22 -12 -37l-838 -1102q-6 -8 -3.5 -13.5t11.5 -5.5q18 0 157.5 5.5t203.5 5.5h462q29 0 29 -29v-98
q0 -29 -29 -29h-1024z" />
    <glyph glyph-name="bracketleft" unicode="[" horiz-adv-x="675" 
d="M180 -377q-28 0 -28 29v1904q0 29 28 29h402q28 0 28 -29v-86q0 -28 -28 -28h-252q-13 0 -13 -12v-1651q0 -12 13 -12h252q28 0 28 -29v-86q0 -29 -28 -29h-402z" />
    <glyph glyph-name="backslash" unicode="\" horiz-adv-x="759" 
d="M694 33q5 -14 -2 -23.5t-22 -9.5h-103q-22 0 -32 23l-469 1378q-5 14 2 23.5t22 9.5h103q22 0 32 -23z" />
    <glyph glyph-name="bracketright" unicode="]" horiz-adv-x="675" 
d="M524 -348q0 -29 -28 -29h-402q-28 0 -28 29v86q0 29 28 29h252q12 0 12 12v1651q0 12 -12 12h-252q-28 0 -28 28v86q0 29 28 29h402q28 0 28 -29v-1904z" />
    <glyph glyph-name="asciicircum" unicode="^" horiz-adv-x="948" 
d="M475 1300q-5 0 -8 -10q-8 -19 -24 -49t-49 -90.5t-60 -110.5l-111 -204q-9 -21 -33 -21h-112q-17 0 -23 10t2 25l318 563q14 21 33 21h133q18 0 32 -21l318 -563q8 -15 2 -25t-23 -10h-112q-19 0 -33 21l-113 204q-18 34 -40.5 75.5t-34 63t-23.5 45t-19 38.5t-12 28
q-3 10 -8 10z" />
    <glyph glyph-name="underscore" unicode="_" horiz-adv-x="876" 
d="M53 -354q-28 0 -28 28v86q0 29 28 29h770q29 0 29 -29v-86q0 -28 -29 -28h-770z" />
    <glyph glyph-name="grave" unicode="`" horiz-adv-x="630" 
d="M578 1206q-10 -26 -37 -16l-496 186q-26 10 -16 37l28 78q10 28 37 16l492 -194q25 -9 16 -37z" />
    <glyph glyph-name="a" unicode="a" horiz-adv-x="1134" 
d="M410 -33q-155 0 -251 79t-96 222q0 139 95.5 218t269.5 79h119q147 0 213.5 31.5t66.5 128.5q0 95 -66.5 158t-213.5 63q-111 0 -187 -40t-98 -126q-9 -26 -33 -26h-112q-14 0 -21 8.5t-4 21.5q31 152 155 229t308 77q209 0 322.5 -96t113.5 -269v-696q0 -29 -28 -29h-99
q-30 0 -30 29l-7 143q0 12 -7 14t-13 -10q-42 -83 -147 -146t-250 -63zM238 274q0 -77 52.5 -122.5t155.5 -45.5q86 0 159.5 32.5t121 85t74 116.5t26.5 129v47q0 8 -5.5 9.5t-10.5 -5.5q-55 -82 -264 -82h-119q-89 0 -139.5 -43.5t-50.5 -120.5z" />
    <glyph glyph-name="b" unicode="b" horiz-adv-x="1230" 
d="M172 0q-29 0 -29 29v1409q0 28 29 28h107q28 0 28 -28v-523q0 -13 9.5 -14.5t13.5 6.5q54 88 140.5 135.5t193.5 47.5q203 0 337 -158t134 -406t-134 -405.5t-337 -157.5q-107 0 -193.5 47t-140.5 135q-4 8 -13.5 6.5t-9.5 -14.5l-6 -108q-3 -29 -31 -29h-98zM307 473
q0 -150 93 -256t239 -106q149 0 239.5 115t90.5 300t-90.5 300.5t-239.5 115.5q-146 0 -239 -106t-93 -256v-107z" />
    <glyph glyph-name="c" unicode="c" horiz-adv-x="1130" 
d="M598 -33q-222 0 -362 156t-140 407q0 252 141 406t367 154q162 0 275.5 -82t152.5 -222q4 -15 -2.5 -23.5t-21.5 -8.5h-111q-24 0 -33 24q-27 75 -95.5 119.5t-164.5 44.5q-154 0 -247 -110.5t-93 -292.5q0 -185 93 -304.5t241 -119.5q100 0 175.5 54.5t100.5 143.5
q6 25 33 25h111q29 0 26 -31q-32 -155 -154.5 -247.5t-291.5 -92.5z" />
    <glyph glyph-name="d" unicode="d" horiz-adv-x="1230" 
d="M567 -37q-203 0 -337 157.5t-134 405.5t134 406t337 158q107 0 193.5 -47.5t140.5 -135.5q5 -8 14 -6.5t9 14.5v523q0 28 28 28h107q28 0 28 -28v-1409q0 -29 -28 -29h-98q-28 0 -31 29l-6 108q0 13 -9 14.5t-14 -6.5q-54 -88 -140.5 -135t-193.5 -47zM262 526
q0 -185 90.5 -300t239.5 -115q146 0 239 106t93 256v107q0 150 -93 256t-239 106q-149 0 -239.5 -115.5t-90.5 -300.5z" />
    <glyph glyph-name="e" unicode="e" horiz-adv-x="1165" 
d="M596 -33q-110 0 -201 35t-158 104t-104 177.5t-37 248.5q0 261 136.5 409.5t361.5 148.5q203 0 339 -145t136 -367q0 -19 -2 -48q-3 -28 -29 -28h-766q-12 0 -12 -13q4 -180 97.5 -279t238.5 -99q210 0 276 163q10 23 33 23h105q15 0 22 -8.5t2 -22.5
q-47 -145 -160.5 -222t-277.5 -77zM264 641q-3 -12 10 -12h613q13 0 10 12q-14 141 -95.5 223t-215.5 82q-132 0 -219.5 -79t-102.5 -226z" />
    <glyph glyph-name="f" unicode="f" horiz-adv-x="737" 
d="M223 0q-28 0 -28 29v893q0 12 -13 12h-94q-29 0 -29 29v65q0 29 29 29h94q13 0 13 12v80q0 155 86.5 235t236.5 80q66 0 115 -10q26 -3 26 -31v-73q0 -14 -8.5 -22t-21.5 -5q-47 8 -92 8q-89 0 -135 -47.5t-46 -155.5v-59q0 -12 13 -12h262q28 0 28 -29v-65
q0 -29 -28 -29h-258q-13 0 -13 -12v-893q0 -29 -28 -29h-109z" />
    <glyph glyph-name="g" unicode="g" horiz-adv-x="1206" 
d="M590 389q-38 0 -71 5t-48 9t-57 17q-10 3 -17 0q-102 -48 -102 -121q0 -46 39.5 -81.5t109.5 -35.5h369q142 0 222.5 -68t80.5 -188q0 -154 -136 -235.5t-402 -81.5q-240 0 -361 65t-121 179q0 71 43 122t97 74q16 7 0 23q-95 85 -95 176q0 70 43 126t117 81q9 3 9.5 9.5
t-7.5 12.5q-123 101 -123 266q0 137 88.5 228.5t255.5 118.5l576 96q13 3 21.5 -5t8.5 -22v-98q0 -29 -28 -29l-232 8q-11 0 -11.5 -7t9.5 -13q68 -37 108 -112t40 -165q0 -158 -113.5 -256t-312.5 -98zM252 -96q0 -152 330 -152q184 0 276 43.5t92 122.5q0 57 -45 89
t-125 32h-325q-88 0 -145.5 -33t-57.5 -102zM344 745q0 -99 68 -156t186 -57t186 57t68 156q0 97 -68 154t-186 57t-186 -57t-68 -154z" />
    <glyph glyph-name="h" unicode="h" horiz-adv-x="1183" 
d="M172 0q-29 0 -29 29v1409q0 28 29 28h109q28 0 28 -28v-529q0 -9 8.5 -10.5t12.5 6.5q54 89 140.5 137t193.5 48q167 0 271.5 -107.5t104.5 -280.5v-673q0 -29 -28 -29h-107q-28 0 -28 29v635q0 132 -66 203t-184 71q-147 0 -232.5 -108t-85.5 -285v-516q0 -29 -28 -29
h-109z" />
    <glyph glyph-name="i" unicode="i" horiz-adv-x="499" 
d="M166 1028q0 29 29 29h106q29 0 29 -29v-999q0 -29 -29 -29h-106q-29 0 -29 29v999zM139 1341q0 45 33 78t76 33t76.5 -33t33.5 -78t-33.5 -77.5t-76.5 -32.5t-76 32.5t-33 77.5z" />
    <glyph glyph-name="j" unicode="j" horiz-adv-x="534" 
d="M133 -391q-61 0 -121 14q-24 6 -24 31v78q0 14 8.5 21.5t23.5 4.5q39 -8 74 -8q57 0 82 33t25 111v1134q0 29 28 29h107q29 0 29 -29v-1159q0 -133 -61.5 -196.5t-170.5 -63.5zM174 1341q0 44 33.5 77.5t77.5 33.5t76 -32.5t32 -78.5t-32 -78t-76 -32t-77.5 33t-33.5 77z
" />
    <glyph glyph-name="k" unicode="k" horiz-adv-x="1083" 
d="M172 0q-29 0 -29 29v1409q0 28 29 28h107q28 0 28 -28v-549q0 -63 -2 -183.5t-2 -175.5q0 -9 5 -10.5t11 6.5q26 32 113 123t135 139l260 254q15 15 35 15h133q19 0 23.5 -10.5t-8.5 -24.5l-168 -166q-19 -18 -114.5 -107.5t-125.5 -119.5q-16 -16 6 -19
q163 -23 246 -200l176 -377q6 -13 0.5 -23t-20.5 -10h-115q-26 0 -35 23l-139 315q-35 79 -83.5 114t-119.5 35h-47q-8 0 -14 -6l-144 -141q-6 -6 -6 -14v-297q0 -29 -28 -29h-107z" />
    <glyph glyph-name="l" unicode="l" horiz-adv-x="442" 
d="M139 1438q0 28 29 28h106q29 0 29 -28v-1409q0 -29 -29 -29h-106q-29 0 -29 29v1409z" />
    <glyph glyph-name="m" unicode="m" horiz-adv-x="1835" 
d="M174 0q-29 0 -29 29l-2 999q0 29 29 29h100q26 0 29 -27l8 -110q0 -9 6.5 -10t12.5 8q55 81 136.5 126.5t182.5 45.5q203 0 316 -166q6 -9 16 -9t16 9q52 79 147 122.5t195 43.5q158 0 256.5 -108t98.5 -280v-673q0 -29 -29 -29h-107q-28 0 -28 29v620q0 133 -65.5 211
t-174.5 78q-131 0 -207.5 -108t-76.5 -285v-516q0 -29 -29 -29h-109q-28 0 -28 29v620q0 130 -68 209.5t-180 79.5q-120 0 -199.5 -102t-79.5 -281v-526q0 -29 -28 -29h-109z" />
    <glyph glyph-name="n" unicode="n" horiz-adv-x="1183" 
d="M172 0q-29 0 -29 29v999q0 29 29 29h100q14 0 22.5 -8t8.5 -21l6 -119q0 -9 8.5 -10.5t12.5 6.5q54 89 140.5 137t193.5 48q167 0 271.5 -107.5t104.5 -280.5v-673q0 -29 -28 -29h-107q-28 0 -28 29v635q0 132 -66 203t-184 71q-147 0 -232.5 -108t-85.5 -285v-516
q0 -29 -28 -29h-109z" />
    <glyph glyph-name="o" unicode="o" horiz-adv-x="1241" 
d="M621 -33q-150 0 -270 72.5t-187.5 201.5t-67.5 291q0 242 149 400t376 158t375.5 -158t148.5 -400q0 -246 -148.5 -405.5t-375.5 -159.5zM264 532q0 -190 97 -303.5t260 -113.5t259.5 113t96.5 304q0 186 -97 298t-259 112q-163 0 -260 -112t-97 -298z" />
    <glyph glyph-name="p" unicode="p" horiz-adv-x="1230" 
d="M172 -410q-29 0 -29 29v1409q0 29 29 29h98q28 0 31 -29l6 -108q0 -13 9.5 -15t13.5 6q54 88 140.5 135.5t193.5 47.5q203 0 337 -158t134 -406t-134 -405.5t-337 -157.5q-107 0 -193.5 47.5t-140.5 135.5q-4 8 -13.5 6t-9.5 -15v-522q0 -29 -28 -29h-107zM307 477
q0 -150 93 -256t239 -106q149 0 239.5 115t90.5 300t-90.5 300.5t-239.5 115.5q-146 0 -239 -106t-93 -256v-107z" />
    <glyph glyph-name="q" unicode="q" horiz-adv-x="1230" 
d="M924 141q0 13 -9 15t-14 -6q-54 -88 -140.5 -135.5t-193.5 -47.5q-203 0 -337 157.5t-134 405.5t134 406t337 158q107 0 193.5 -47.5t140.5 -135.5q5 -8 14 -6t9 15l6 108q3 29 31 29h98q28 0 28 -29v-1409q0 -29 -28 -29h-107q-28 0 -28 29v522zM262 530
q0 -185 90.5 -300t239.5 -115q146 0 239 106t93 256v107q0 150 -93 256t-239 106q-149 0 -239.5 -115.5t-90.5 -300.5z" />
    <glyph glyph-name="r" unicode="r" horiz-adv-x="790" 
d="M172 0q-29 0 -29 29v999q0 29 29 29h100q29 0 29 -29l6 -174q0 -7 4 -9.5t9 -0.5t8 8q22 45 50.5 80t72 67.5t107.5 51.5t144 22q31 0 31 -29v-90q0 -27 -28 -30q-183 -11 -281 -115q-117 -123 -117 -432v-348q0 -29 -28 -29h-107z" />
    <glyph glyph-name="s" unicode="s" horiz-adv-x="1026" 
d="M530 -33q-201 0 -315.5 75.5t-134.5 223.5q-3 15 4.5 23t21.5 8h113q25 0 31 -27q38 -159 282 -159q115 0 187 46.5t72 125.5q0 61 -54.5 104.5t-163.5 63.5l-122 22q-50 9 -84 17.5t-79.5 24t-75.5 37t-58 51.5t-42 73.5t-14 97.5q0 146 108.5 231t297.5 85
q176 0 287.5 -75t136.5 -231q3 -13 -5 -21.5t-22 -8.5h-113q-24 0 -30 26q-35 166 -258 166q-111 0 -174.5 -43t-63.5 -119q0 -120 230 -166l112 -22q45 -9 71 -15.5t68.5 -19.5t68 -27t56.5 -37.5t48.5 -51.5t29.5 -68t12 -88q0 -147 -117.5 -234.5t-310.5 -87.5z" />
    <glyph glyph-name="t" unicode="t" horiz-adv-x="755" 
d="M88 934q-29 0 -29 29v65q0 29 29 29h135q13 0 13 12v236q0 28 28 28h107q28 0 28 -28v-236q0 -12 13 -12h237q29 0 29 -29v-65q0 -29 -29 -29h-235q-13 0 -13 -12v-639q0 -86 33.5 -123t108.5 -37q45 0 104 12q13 3 22 -4.5t9 -21.5v-72q0 -27 -25 -33q-75 -14 -127 -14
q-156 0 -223 62.5t-67 215.5v654q0 12 -13 12h-135z" />
    <glyph glyph-name="u" unicode="u" horiz-adv-x="1183" 
d="M1012 1057q28 0 28 -29v-999q0 -29 -28 -29h-101q-30 0 -30 29l-7 118q0 9 -8 11t-12 -6q-54 -89 -140.5 -137t-193.5 -48q-168 0 -272.5 107t-104.5 280v674q0 29 29 29h107q28 0 28 -29v-635q0 -132 66 -203t184 -71q147 0 232 108t85 285v516q0 29 29 29h109z" />
    <glyph glyph-name="v" unicode="v" horiz-adv-x="1064" 
d="M469 0q-23 0 -33 23l-387 1001q-6 13 1 23t22 10h114q23 0 33 -23l129 -354q0 -1 37 -103.5t80 -219t57 -148.5q4 -11 11 -11t12 11q15 33 58.5 151t78 214t37.5 106l129 354q10 23 33 23h114q15 0 22 -10t1 -23l-387 -1001q-10 -23 -33 -23h-129z" />
    <glyph glyph-name="w" unicode="w" horiz-adv-x="1630" 
d="M430 0q-23 0 -33 23l-348 1001q-5 15 1.5 24t21.5 9h114q26 0 33 -23l119 -354q121 -366 143 -451q3 -12 12.5 -12t12.5 12q10 39 127 453l100 350q6 25 31 25h104q25 0 31 -25l98 -350q123 -437 127 -453q3 -12 11.5 -12t13.5 12q16 42 67 209.5t76 241.5l119 354
q7 23 33 23h115q32 0 22 -33l-348 -1001q-10 -23 -33 -23h-110q-25 0 -31 25l-232 815q-5 13 -12 12t-10 -12l-234 -815q-6 -25 -30 -25h-111z" />
    <glyph glyph-name="x" unicode="x" horiz-adv-x="1050" 
d="M80 0q-17 0 -22.5 11t3.5 24l353 497q6 8 0 17l-332 473q-9 14 -4 24.5t22 10.5h127q24 0 35 -19l68 -100q43 -64 84 -128t65 -101t33 -50q14 -20 29 0q6 8 30 45.5t66.5 103t85.5 130.5l68 100q11 19 34 19h127q17 0 22.5 -10.5t-3.5 -24.5l-332 -473q-6 -9 0 -17
l352 -497q9 -13 4 -24t-22 -11h-125q-25 0 -35 18l-98 144q-33 48 -97 146t-77 116q-8 10 -16 9t-13 -9q-15 -21 -78.5 -118t-95.5 -144l-98 -144q-10 -18 -35 -18h-125z" />
    <glyph glyph-name="y" unicode="y" horiz-adv-x="1044" 
d="M225 -395q-59 0 -133 18q-24 6 -24 31v82q0 30 32 24q55 -10 88 -10q74 0 116 35t79 127l33 84q5 10 2 16l-369 1012q-5 14 1.5 23.5t21.5 9.5h123q25 0 32 -23l148 -446q117 -359 123 -383q5 -18 14.5 -18t15.5 18q20 59 64 181.5t70 197.5l157 450q10 23 33 23h121
q15 0 21.5 -9.5t0.5 -23.5l-411 -1061q-72 -185 -154.5 -271.5t-204.5 -86.5z" />
    <glyph glyph-name="z" unicode="z" horiz-adv-x="1044" 
d="M125 0q-29 0 -29 29v73q0 21 13 37l628 764q7 6 4.5 14t-12.5 7q-76 -11 -350 -11h-227q-29 0 -29 29v86q0 29 29 29h766q28 0 28 -29v-76q0 -22 -12 -37l-621 -763q-6 -8 -3.5 -15t12.5 -6q88 12 340 12h247q29 0 29 -28v-86q0 -29 -29 -29h-784z" />
    <glyph glyph-name="braceleft" unicode="{" horiz-adv-x="731" 
d="M104 649q0 12 8 21t21 10q66 8 98.5 38t32.5 89v530q0 260 277 260q43 0 98 -6q27 -3 27 -30v-80q0 -29 -31 -29q-54 4 -66 4q-80 0 -110.5 -32t-30.5 -109v-533q0 -82 -33.5 -118.5t-109.5 -45.5q-11 -2 -11.5 -12t11.5 -12q77 -9 110 -44t33 -120v-534
q0 -77 30.5 -109.5t110.5 -32.5q12 0 66 4q31 0 31 -28v-80q0 -28 -27 -31q-55 -6 -98 -6q-277 0 -277 260v533q0 62 -32.5 91t-98.5 35q-13 1 -21 10t-8 21v86z" />
    <glyph glyph-name="bar" unicode="|" horiz-adv-x="471" 
d="M190 -401q-28 0 -28 28v1977q0 28 28 28h91q28 0 28 -28v-1977q0 -28 -28 -28h-91z" />
    <glyph glyph-name="braceright" unicode="}" horiz-adv-x="731" 
d="M627 563q0 -12 -8 -21t-21 -10q-69 -7 -100 -37t-31 -89v-533q0 -260 -277 -260q-42 0 -98 6q-26 3 -26 31v80q0 28 30 28q58 -4 66 -4q81 0 112 33t31 109v534q0 84 32.5 119.5t108.5 44.5q12 2 12 12t-12 12q-75 9 -108 45.5t-33 118.5v533q0 76 -31 108.5t-112 32.5
q-8 0 -66 -4q-30 0 -30 29v80q0 27 26 30q56 6 98 6q277 0 277 -260v-530q0 -114 131 -127q29 -3 29 -29v-88z" />
    <glyph glyph-name="asciitilde" unicode="~" horiz-adv-x="1140" 
d="M768 588q-45 0 -103 22.5t-103.5 49t-98.5 49t-90 22.5q-91 0 -115 -106q-6 -27 -31 -27h-86q-14 0 -21.5 8t-4.5 23q14 119 80.5 187.5t177.5 68.5q50 0 130 -36t154.5 -72t110.5 -36q89 0 113 107q9 26 32 26h86q14 0 22 -8.5t5 -23.5q-15 -118 -81 -186t-177 -68z" />
    <glyph glyph-name="exclamdown" unicode="&#xa1;" horiz-adv-x="464" 
d="M174 -248q-29 0 -29 29l21 1001q0 29 29 29h77q29 0 29 -29l21 -1001q0 -29 -29 -29h-119zM113 1098q0 52 33 86.5t81 34.5q53 0 89 -34t36 -87q0 -50 -35.5 -83.5t-89.5 -33.5q-47 0 -80.5 34t-33.5 83z" />
    <glyph glyph-name="cent" unicode="&#xa2;" horiz-adv-x="1130" 
d="M551 -238q-29 0 -29 29v170q0 11 -12 14q-186 30 -300 180t-114 375q0 223 113.5 371.5t300.5 179.5q12 3 12 15v161q0 29 29 29h49q29 0 29 -29v-155q0 -12 12 -12q148 -10 252 -91.5t139 -212.5q4 -15 -2.5 -23.5t-21.5 -8.5h-111q-24 0 -33 24q-24 68 -82 111.5
t-141 50.5q-12 3 -12 -10v-801q0 -13 12 -10q86 12 148.5 63.5t84.5 130.5q6 25 33 25h111q13 0 20 -8.5t4 -22.5q-29 -145 -137.5 -236.5t-263.5 -103.5q-12 0 -12 -12v-164q0 -29 -29 -29h-49zM264 539q0 -153 66.5 -264.5t177.5 -145.5q14 -3 14 10v779q0 6 -3 9.5
t-7 2.5q-115 -31 -181.5 -135.5t-66.5 -255.5z" />
    <glyph glyph-name="sterling" unicode="&#xa3;" horiz-adv-x="1163" 
d="M102 0q-28 0 -28 29v98q0 29 28 29h80q13 0 13 12v434q0 12 -13 12h-80q-28 0 -28 29v94q0 29 28 29h80q13 0 13 12v244q0 218 117 331t337 113q196 0 312.5 -97.5t130.5 -268.5q3 -29 -27 -29h-123q-26 0 -29 27q-14 95 -83 154t-181 59q-136 0 -208 -72.5t-72 -216.5
v-244q0 -12 12 -12h516q29 0 29 -29v-94q0 -29 -29 -29h-516q-12 0 -12 -12v-434q0 -12 12 -12h688q29 0 29 -29v-98q0 -29 -29 -29h-967z" />
    <glyph glyph-name="currency" unicode="&#xa4;" horiz-adv-x="1136" 
d="M569 264q-130 0 -243 76q-11 6 -19 -2l-117 -121q-20 -23 -40 0l-50 51q-20 20 0 41l115 119q8 8 2 16q-86 127 -86 277q0 149 86 276q6 9 -2 17l-115 119q-20 21 0 41l50 51q20 23 40 0l117 -121q8 -8 19 -2q113 76 243 76q140 0 250 -80q11 -6 19 2l120 125
q9 11 20.5 11t20.5 -11l50 -51q9 -9 9 -20.5t-9 -20.5l-119 -125q-8 -8 -2 -17q80 -124 80 -270t-80 -270q-6 -9 2 -17l119 -125q9 -9 9 -20.5t-9 -20.5l-50 -51q-9 -11 -20.5 -11t-20.5 11l-120 125q-8 8 -17 2q-116 -80 -252 -80zM299 721q0 -126 75.5 -206.5t194.5 -80.5
q117 0 193 80.5t76 206.5t-76 206.5t-193 80.5q-119 0 -194.5 -80.5t-75.5 -206.5z" />
    <glyph glyph-name="yen" unicode="&#xa5;" horiz-adv-x="1323" 
d="M1049 684q28 0 28 -29v-65q0 -29 -28 -29h-289q-12 0 -12 -12v-111q0 -12 12 -12h289q28 0 28 -29v-65q0 -29 -28 -29h-289q-12 0 -12 -12v-262q0 -29 -29 -29h-115q-29 0 -29 29v262q0 12 -12 12h-305q-29 0 -29 29v65q0 29 29 29h305q12 0 12 12v111q0 12 -12 12h-305
q-29 0 -29 29v65q0 29 29 29h240q15 0 8 14l-428 701q-9 13 -3 24t23 11h133q21 0 35 -21l219 -385q151 -268 162 -285q8 -12 14 -12.5t15 12.5q13 21 41 70.5t66.5 117.5t58.5 103l215 379q14 21 35 21h133q17 0 23 -11t-3 -24l-428 -701q-7 -14 8 -14h224z" />
    <glyph glyph-name="brokenbar" unicode="&#xa6;" horiz-adv-x="471" 
d="M190 815q-28 0 -28 29v760q0 28 28 28h91q28 0 28 -28v-760q0 -29 -28 -29h-91zM190 -418q-28 0 -28 29v760q0 28 28 28h91q28 0 28 -28v-760q0 -29 -28 -29h-91z" />
    <glyph glyph-name="section" unicode="&#xa7;" horiz-adv-x="1161" 
d="M588 -397q-163 0 -260 80t-111 198q-1 13 7 21t22 8h108q26 0 29 -27q12 -65 66 -102t139 -37q101 0 154 38.5t53 113.5q0 66 -42 111.5t-139 107.5l-239 149q-90 56 -149 107.5t-89 100t-41.5 90.5t-11.5 93q0 91 61 168t156 111q3 1 10 8q0 6 -6 10q-38 35 -67 96.5
t-29 122.5q0 140 95.5 219.5t279.5 79.5q158 0 257 -74.5t113 -203.5q3 -29 -26 -29h-113q-25 0 -31 27q-15 65 -68 102t-134 37q-102 0 -155.5 -38t-53.5 -113q0 -63 42 -111.5t140 -108.5l240 -149q118 -74 184 -142.5t86 -123.5t20 -125q0 -92 -60.5 -170t-154.5 -111
q-10 -5 -10 -8q-3 -6 6 -12q38 -35 65 -98t27 -117q0 -141 -93 -220t-277 -79zM246 674q0 -146 211 -279l217 -137q55 -34 90 -61q7 -5 16 -2q144 61 144 204q0 146 -211 279l-217 137q-81 53 -93 62q-7 5 -18 2q-139 -62 -139 -205z" />
    <glyph glyph-name="dieresis" unicode="&#xa8;" horiz-adv-x="593" 
d="M125 1231q-45 0 -77 32.5t-32 77.5q0 46 32.5 78.5t76.5 32.5q43 0 74.5 -32.5t31.5 -78.5q0 -45 -31.5 -77.5t-74.5 -32.5zM362 1341q0 45 32 78t75 33q44 0 76.5 -32.5t32.5 -78.5q0 -45 -32 -77.5t-77 -32.5q-43 0 -75 32.5t-32 77.5z" />
    <glyph glyph-name="copyright" unicode="&#xa9;" horiz-adv-x="1714" 
d="M856 -23q-218 0 -390.5 95.5t-269 267.5t-96.5 389q0 218 96.5 390.5t269 268t390.5 95.5q219 0 392 -95.5t269.5 -268t96.5 -390.5q0 -217 -96.5 -389t-269.5 -267.5t-392 -95.5zM213 729q0 -188 81.5 -336t228.5 -230.5t333 -82.5q283 0 464 182t181 467
q0 188 -82 336.5t-229.5 231.5t-333.5 83t-333 -83t-228.5 -231.5t-81.5 -336.5zM442 735q0 206 118 331.5t314 125.5q144 0 244.5 -68t134.5 -186q4 -15 -2.5 -24t-21.5 -9h-80q-24 0 -33 25q-26 66 -89 103.5t-148 37.5q-138 0 -218.5 -90.5t-80.5 -241.5q0 -154 82 -252
t217 -98q83 0 145 37.5t90 105.5q10 23 33 23h82q15 0 21.5 -9t2.5 -24q-40 -119 -138.5 -186.5t-237.5 -67.5q-194 0 -314.5 128.5t-120.5 338.5z" />
    <glyph glyph-name="ordfeminine" unicode="&#xaa;" horiz-adv-x="1058" 
d="M63 991q0 213 115.5 348.5t290.5 135.5q93 0 168 -40.5t119 -115.5q3 -5 7.5 -6.5t7.5 1.5t3 11v92q0 29 29 29h84q28 0 28 -29v-850q0 -28 -28 -28h-76q-28 0 -31 26l-6 92q0 10 -7 12t-11 -5q-46 -75 -120.5 -115.5t-166.5 -40.5q-175 0 -290.5 135t-115.5 348z
M207 991q0 -159 77.5 -258.5t204.5 -99.5q126 0 205.5 91.5t79.5 219.5v92q0 130 -79.5 221t-205.5 91q-127 0 -204.5 -99t-77.5 -258z" />
    <glyph glyph-name="guillemotleft" unicode="&#xab;" horiz-adv-x="1114" 
d="M260 539q-14 -11 0 -21l246 -168q18 -12 18 -35v-122q0 -17 -11 -23t-24 4l-321 246q-16 11 -16 35v145q0 24 16 35l321 246q13 10 24 4t11 -23v-123q0 -22 -18 -34zM606 420q-16 11 -16 35v145q0 24 16 35l322 246q14 10 24.5 4t10.5 -23v-123q0 -21 -19 -34l-246 -166
q-14 -11 0 -21l246 -168q19 -13 19 -35v-122q0 -17 -10.5 -23t-24.5 4z" />
    <glyph glyph-name="logicalnot" unicode="&#xac;" horiz-adv-x="1161" 
d="M111 836q0 28 28 28h883q29 0 29 -28v-469q0 -29 -29 -29h-102q-29 0 -29 29v338q0 12 -12 12h-740q-28 0 -28 28v91z" />
    <glyph glyph-name="uni00AD" unicode="&#xad;" horiz-adv-x="794" 
d="M133 504q-29 0 -29 28v91q0 28 29 28h529q28 0 28 -28v-91q0 -28 -28 -28h-529z" />
    <glyph glyph-name="registered" unicode="&#xae;" horiz-adv-x="1222" 
d="M612 496q-213 0 -357 141t-144 344q0 204 144.5 344.5t356.5 140.5q213 0 356.5 -140t143.5 -345q0 -135 -65.5 -246.5t-180.5 -175t-254 -63.5zM213 981q0 -163 114 -277t285 -114q170 0 285 112.5t115 278.5q0 165 -114.5 278t-285.5 113q-170 0 -284.5 -113
t-114.5 -278zM446 727q-28 0 -28 29v463q0 28 28 28h203q77 0 124.5 -37t47.5 -98q0 -39 -20.5 -70t-48.5 -49q-3 -2 -7 -4t-6.5 -3t-4 -3t-1.5 -4q0 -4 4 -6q45 -17 56 -78l28 -137q3 -13 -4.5 -22t-21.5 -9h-35q-25 0 -31 27l-20 98q-9 43 -29 57.5t-70 14.5h-90
q-12 0 -12 -13v-155q0 -29 -29 -29h-33zM508 1014q0 -13 12 -13h115q43 0 68.5 24t25.5 62q0 35 -25.5 56.5t-68.5 21.5h-115q-12 0 -12 -12v-139z" />
    <glyph glyph-name="macron" unicode="&#xaf;" horiz-adv-x="604" 
d="M45 1223q-29 0 -29 28v80q0 29 29 29h514q29 0 29 -29v-80q0 -28 -29 -28h-514z" />
    <glyph glyph-name="degree" unicode="&#xb0;" horiz-adv-x="745" 
d="M373 958q-116 0 -189 71t-73 183t73 183t189 71t189 -71t73 -183t-73 -183t-189 -71zM242 1212q0 -57 37 -94t94 -37t94 37t37 94t-37 94t-94 37t-94 -37t-37 -94z" />
    <glyph glyph-name="plusminus" unicode="&#xb1;" horiz-adv-x="1181" 
d="M541 317q-29 0 -29 29v328q0 12 -12 12h-361q-28 0 -28 29v90q0 29 28 29h361q12 0 12 12v328q0 28 29 28h102q29 0 29 -28v-328q0 -12 12 -12h358q29 0 29 -29v-90q0 -29 -29 -29h-358q-12 0 -12 -12v-328q0 -29 -29 -29h-102zM139 0q-28 0 -28 29v90q0 28 28 28h903
q29 0 29 -28v-90q0 -29 -29 -29h-903z" />
    <glyph glyph-name="uni00B2" unicode="&#xb2;" horiz-adv-x="739" 
d="M49 1200q0 21 19 37q259 196 325 254q105 93 123 164q6 22 6 45q0 60 -41 92.5t-116 32.5q-122 0 -150 -94q-9 -25 -33 -25h-90q-14 0 -21.5 9t-4.5 22q20 103 99 161t200 58q141 0 223 -71t82 -193q0 -60 -24 -113t-82.5 -111t-124 -108.5t-181.5 -130.5q-6 -4 -6 -8
t12 -4q72 4 197 4h190q29 0 29 -29v-74q0 -28 -29 -28h-573q-29 0 -29 28v82z" />
    <glyph glyph-name="uni00B3" unicode="&#xb3;" horiz-adv-x="768" 
d="M381 1067q-131 0 -223 65t-109 179q-3 30 29 30h90q25 0 31 -26q22 -123 186 -123q70 0 118 36.5t48 104.5q0 137 -172 137h-35q-29 0 -29 29v57q0 29 29 29h29q162 0 162 125q0 57 -39.5 88t-114.5 31q-62 0 -101.5 -22.5t-50.5 -80.5q-7 -26 -30 -26h-95q-14 0 -21.5 8
t-4.5 23q18 112 99 166.5t202 54.5q83 0 148.5 -21t110 -74.5t44.5 -134.5q0 -71 -43.5 -118.5t-118.5 -65.5q-10 -3 -10 -4q0 -3 12 -6q88 -10 134 -64t46 -141q0 -115 -93.5 -185.5t-227.5 -70.5z" />
    <glyph glyph-name="acute" unicode="&#xb4;" horiz-adv-x="630" 
d="M92 1190q-28 -11 -37 16l-26 70q-9 28 16 37l494 194q26 11 36 -16l27 -78q10 -27 -16 -37z" />
    <glyph glyph-name="uni00B5" unicode="&#xb5;" horiz-adv-x="1247" 
d="M178 -377q-28 0 -28 29v1376q0 29 28 29h109q28 0 28 -29v-571q0 -162 75.5 -250t213.5 -88q134 0 207.5 88t73.5 250v571q0 29 28 29h107q29 0 29 -29v-803q0 -100 86 -100q3 0 10 1t10 1h16q10 1 16.5 -6t6.5 -19v-82q0 -27 -27 -30q-39 -8 -80 -8q-97 0 -149.5 47
t-52.5 135q-2 2 -4 2q-6 0 -9 -10q-25 -78 -112 -134.5t-189 -56.5q-135 0 -241 103q-10 10 -13 6q-4 -4 -4 -13l-14 -409q0 -29 -29 -29h-92z" />
    <glyph glyph-name="paragraph" unicode="&#xb6;" horiz-adv-x="1210" 
d="M567 711q0 12 -12 12q-457 9 -457 352q0 359 463 359h459q29 0 29 -29v-1376q0 -29 -29 -29h-102q-29 0 -29 29v1237q0 12 -12 12h-138q-12 0 -12 -12v-1237q0 -29 -29 -29h-102q-29 0 -29 29v682z" />
    <glyph glyph-name="periodcentered" unicode="&#xb7;" horiz-adv-x="464" 
d="M227 612q-48 0 -81 34.5t-33 86.5q0 49 33.5 83t80.5 34q54 0 89.5 -33.5t35.5 -83.5q0 -53 -36 -87t-89 -34z" />
    <glyph glyph-name="cedilla" unicode="&#xb8;" horiz-adv-x="813" 
d="M365 -440q-53 0 -127 18q-25 9 -25 33v37q0 15 9 21.5t24 2.5q43 -12 82 -12q54 0 87.5 22t33.5 66q0 40 -40.5 58.5t-101.5 15.5q-31 -3 -31 26v23q0 22 23 35q59 30 59 94v12q0 29 29 29h72q28 0 28 -29v-12q0 -29 -19 -53t-50 -35q-10 -7 -10 -8q6 -2 16 -2
q78 0 128 -44t50 -106q0 -95 -67.5 -143.5t-169.5 -48.5z" />
    <glyph glyph-name="uni00B9" unicode="&#xb9;" horiz-adv-x="505" 
d="M268 1747q-5 0 -10 -8q-60 -69 -170 -78q-29 0 -29 29v90q0 27 29 30q61 6 112 34t79 71q11 20 32 20h86q29 0 29 -28v-789q0 -28 -29 -28h-98q-29 0 -29 28v615q0 14 -2 14z" />
    <glyph glyph-name="ordmasculine" unicode="&#xba;" horiz-adv-x="1095" 
d="M549 510q-197 0 -325 137.5t-128 349.5q0 207 128.5 343.5t324.5 136.5q195 0 322.5 -136.5t127.5 -343.5q0 -212 -127.5 -349.5t-322.5 -137.5zM242 997q0 -165 83 -262.5t224 -97.5q139 0 222 98t83 262q0 160 -83 256.5t-222 96.5q-141 0 -224 -96.5t-83 -256.5z" />
    <glyph glyph-name="guillemotright" unicode="&#xbb;" horiz-adv-x="1077" 
d="M854 539l-246 166q-18 12 -18 34v123q0 17 11 23t24 -4l321 -246q17 -11 17 -35v-145q0 -24 -17 -35l-321 -246q-13 -10 -24 -4t-11 23v122q0 23 18 35l246 168q16 10 0 21zM186 174q-14 -10 -24 -4t-10 23v122q0 23 18 35l246 168q16 10 0 21l-246 166q-18 12 -18 34
v123q0 17 10 23t24 -4l322 -246q16 -11 16 -35v-145q0 -24 -16 -35z" />
    <glyph glyph-name="onequarter" unicode="&#xbc;" horiz-adv-x="1560" 
d="M268 1245q-5 0 -10 -8q-60 -69 -170 -78q-29 0 -29 29v90q0 28 29 31q62 6 112.5 33.5t78.5 70.5q12 21 32 21h86q29 0 29 -29v-789q0 -28 -29 -28h-98q-29 0 -29 28v615q0 14 -2 14zM324 0q-17 0 -23 11t2 24l737 1378q9 21 33 21h92q17 0 23 -11t-2 -24l-737 -1379
q-9 -20 -33 -20h-92zM836 211q-29 0 -29 29v94q0 20 12 35l395 460q17 17 35 17h111q29 0 29 -29v-465q0 -12 12 -12h72q28 0 28 -29v-71q0 -29 -28 -29h-72q-12 0 -12 -12v-170q0 -29 -29 -29h-98q-29 0 -29 29v170q0 12 -12 12h-385zM963 354q-4 -6 -2 -10t10 -4h256
q12 0 12 12v328q0 12 -2 12q-5 0 -8 -8q-41 -71 -166 -215z" />
    <glyph glyph-name="onehalf" unicode="&#xbd;" horiz-adv-x="1636" 
d="M268 1245q-5 0 -10 -8q-60 -69 -170 -78q-29 0 -29 29v90q0 28 29 31q62 6 112.5 33.5t78.5 70.5q12 21 32 21h86q29 0 29 -29v-789q0 -28 -29 -28h-98q-29 0 -29 28v615q0 14 -2 14zM324 0q-17 0 -23 11t2 24l737 1378q9 21 33 21h92q17 0 23 -11t-2 -24l-737 -1379
q-9 -20 -33 -20h-92zM975 0q-29 0 -29 29v82q0 20 19 36q259 196 325 254q105 93 123 164q6 22 6 45q0 60 -41 92.5t-116 32.5q-122 0 -150 -94q-9 -25 -33 -25h-90q-14 0 -21.5 9t-4.5 22q20 103 99 161t200 58q141 0 223 -71t82 -193q0 -60 -24 -113t-82.5 -111
t-124 -108.5t-181.5 -130.5q-6 -4 -6 -8t12 -4q72 4 197 4h190q29 0 29 -29v-73q0 -29 -29 -29h-573z" />
    <glyph glyph-name="threequarters" unicode="&#xbe;" horiz-adv-x="1746" 
d="M381 571q-131 0 -223 65t-109 179q-1 15 7 23t22 8h90q25 0 31 -27q22 -123 186 -123q69 0 117.5 37t48.5 105q0 137 -172 137h-35q-29 0 -29 29v57q0 29 29 29h29q162 0 162 124q0 57 -39.5 88t-114.5 31q-133 0 -152 -102q-7 -27 -30 -27h-95q-14 0 -21.5 8t-4.5 23
q18 112 99 166.5t202 54.5q61 0 113.5 -12.5t96 -38t68.5 -71.5t25 -107q0 -71 -43.5 -119t-118.5 -66q-10 -3 -10 -4q0 -3 12 -6q88 -10 134 -64t46 -141q0 -115 -93.5 -185.5t-227.5 -70.5zM508 0q-17 0 -23 11t2 24l738 1378q9 21 32 21h93q17 0 22.5 -11t-2.5 -24
l-737 -1379q-9 -20 -33 -20h-92zM1022 211q-29 0 -29 29v94q0 19 13 35l395 460q17 17 35 17h110q29 0 29 -29v-465q0 -12 12 -12h72q29 0 29 -29v-71q0 -29 -29 -29h-72q-12 0 -12 -12v-170q0 -29 -29 -29h-98q-29 0 -29 29v170q0 12 -12 12h-385zM1149 354q-4 -6 -2 -10
t10 -4h256q12 0 12 12v328q0 12 -2 12q-5 0 -8 -8q-41 -71 -166 -215z" />
    <glyph glyph-name="questiondown" unicode="&#xbf;" horiz-adv-x="1062" 
d="M645 805q29 0 29 -29q-2 -106 -21.5 -173.5t-56 -116.5t-113.5 -121q-82 -76 -124 -139.5t-42 -131.5q0 -112 69 -170.5t189 -58.5q138 0 209.5 70t83.5 229q3 29 31 29h111q28 0 28 -29q-10 -230 -131 -341.5t-327 -111.5q-194 0 -314.5 100t-120.5 281
q0 104 48.5 187.5t152.5 175.5q104 91 133 148t35 173q3 29 31 29h100zM459 1092q0 53 36 86.5t89 33.5q48 0 81 -34t33 -86q0 -49 -33.5 -83t-80.5 -34q-54 0 -89.5 33.5t-35.5 83.5z" />
    <glyph glyph-name="Agrave" unicode="&#xc0;" horiz-adv-x="1435" 
d="M246 23q-10 -23 -33 -23h-121q-15 0 -21.5 9.5t-0.5 23.5l532 1378q10 23 33 23h153q24 0 33 -23l545 -1378q6 -13 -1 -23t-22 -10h-122q-23 0 -33 23l-148 380q-3 11 -14 11h-623q-11 0 -14 -11zM420 1731q-27 10 -17 36l29 78q11 29 37 17l492 -195q25 -9 16 -37
l-25 -69q-10 -27 -37 -17zM459 584q-4 -15 8 -15h496q12 0 8 15l-103 270q-17 42 -74.5 200t-74.5 199q-3 7 -8.5 7t-8.5 -7q-16 -37 -67.5 -187.5t-77.5 -219.5z" />
    <glyph glyph-name="Aacute" unicode="&#xc1;" horiz-adv-x="1435" 
d="M246 23q-10 -23 -33 -23h-121q-15 0 -21.5 9.5t-0.5 23.5l532 1378q10 23 33 23h153q24 0 33 -23l545 -1378q6 -13 -1 -23t-22 -10h-122q-23 0 -33 23l-148 380q-3 11 -14 11h-623q-11 0 -14 -11zM459 584q-4 -15 8 -15h496q12 0 8 15l-103 270q-17 42 -74.5 200
t-74.5 199q-3 7 -8.5 7t-8.5 -7q-16 -37 -67.5 -187.5t-77.5 -219.5zM522 1630q-9 27 17 37l491 195q26 12 37 -17l29 -78q10 -26 -17 -36l-495 -187q-27 -10 -37 17z" />
    <glyph glyph-name="Acircumflex" unicode="&#xc2;" horiz-adv-x="1435" 
d="M246 23q-10 -23 -33 -23h-121q-15 0 -21.5 9.5t-0.5 23.5l532 1378q10 23 33 23h153q24 0 33 -23l545 -1378q6 -13 -1 -23t-22 -10h-122q-23 0 -33 23l-148 380q-3 11 -14 11h-623q-11 0 -14 -11zM408 1536q-19 0 -24 11t7 24l213 244q16 16 35 16h160q19 0 35 -16
l213 -244q12 -13 7 -24t-24 -11h-110q-22 0 -35 16l-158 189q-3 5 -8 5t-8 -5l-158 -189q-13 -16 -35 -16h-110zM459 584q-4 -15 8 -15h496q12 0 8 15l-103 270q-17 42 -74.5 200t-74.5 199q-3 7 -8.5 7t-8.5 -7q-16 -37 -67.5 -187.5t-77.5 -219.5z" />
    <glyph glyph-name="Atilde" unicode="&#xc3;" horiz-adv-x="1435" 
d="M246 23q-10 -23 -33 -23h-121q-15 0 -21.5 9.5t-0.5 23.5l532 1378q10 23 33 23h153q24 0 33 -23l545 -1378q6 -13 -1 -23t-22 -10h-122q-23 0 -33 23l-148 380q-3 11 -14 11h-623q-11 0 -14 -11zM416 1536q-27 0 -33 27q-14 92 37.5 153.5t142.5 61.5q39 0 70.5 -10
t85.5 -39q74 -40 94.5 -48t44.5 -8q31 0 46.5 20t13.5 52q-3 31 24 31h78q27 0 33 -27q15 -96 -37.5 -156.5t-143.5 -60.5q-35 0 -67.5 11.5t-85.5 39.5q-103 55 -139 55q-32 0 -48 -20t-14 -51q3 -31 -24 -31h-78zM459 584q-4 -15 8 -15h496q12 0 8 15l-103 270
q-17 42 -74.5 200t-74.5 199q-3 7 -8.5 7t-8.5 -7q-16 -37 -67.5 -187.5t-77.5 -219.5z" />
    <glyph glyph-name="Adieresis" unicode="&#xc4;" horiz-adv-x="1435" 
d="M246 23q-10 -23 -33 -23h-121q-15 0 -21.5 9.5t-0.5 23.5l532 1378q10 23 33 23h153q24 0 33 -23l545 -1378q6 -13 -1 -23t-22 -10h-122q-23 0 -33 23l-148 380q-3 11 -14 11h-623q-11 0 -14 -11zM438 1647q0 45 32 77.5t77 32.5q43 0 74.5 -32.5t31.5 -77.5
q0 -46 -31.5 -78.5t-74.5 -32.5q-44 0 -76.5 32.5t-32.5 78.5zM459 584q-4 -15 8 -15h496q12 0 8 15l-103 270q-17 42 -74.5 200t-74.5 199q-3 7 -8.5 7t-8.5 -7q-16 -37 -67.5 -187.5t-77.5 -219.5zM784 1647q0 45 32 77.5t75 32.5q44 0 76 -32t32 -78t-32 -78.5t-76 -32.5
q-43 0 -75 33t-32 78z" />
    <glyph glyph-name="Aring" unicode="&#xc5;" horiz-adv-x="1435" 
d="M246 23q-10 -23 -33 -23h-121q-15 0 -21.5 9.5t-0.5 23.5l503 1306q3 11 -6 17q-98 63 -98 188q0 103 69 166.5t181 63.5t181 -63.5t69 -166.5q0 -135 -111 -194q-9 -6 -6 -17l514 -1300q6 -13 -1 -23t-22 -10h-122q-23 0 -33 23l-148 380q-3 11 -14 11h-623
q-11 0 -14 -11zM459 584q-4 -15 8 -15h496q12 0 8 15l-103 270q-17 42 -74.5 200t-74.5 199q-3 7 -8.5 7t-8.5 -7q-16 -37 -67.5 -187.5t-77.5 -219.5zM594 1544q0 -49 34.5 -79.5t90.5 -30.5q57 0 92 30.5t35 79.5q0 50 -35 80.5t-92 30.5q-56 0 -90.5 -31t-34.5 -80z" />
    <glyph glyph-name="AE" unicode="&#xc6;" 
d="M1221 0q-23 0 -33 23l-148 380q-3 11 -14 11h-623q-11 0 -14 -11l-143 -380q-10 -23 -33 -23h-121q-15 0 -21.5 9.5t-0.5 23.5l532 1378q10 23 33 23h946q29 0 29 -29v-98q0 -29 -29 -29h-692q-11 0 -8 -14l170 -435q3 -10 14 -10h690q29 0 29 -28v-99q0 -28 -29 -28
h-625q-14 0 -8 -15l191 -483q3 -10 14 -10h694q29 0 29 -29v-98q0 -29 -29 -29h-800zM459 584q-4 -15 8 -15h496q12 0 8 15l-103 270q-17 42 -74.5 200t-74.5 199q-3 7 -8.5 7t-8.5 -7q-16 -37 -67.5 -187.5t-77.5 -219.5z" />
    <glyph glyph-name="Ccedilla" unicode="&#xc7;" horiz-adv-x="1437" 
d="M682 -440q-53 0 -127 18q-25 9 -25 33v37q0 15 9 21.5t24 2.5q43 -12 82 -12q54 0 87.5 22t33.5 66q0 41 -40 59t-101 15q-31 -3 -31 26v23q0 22 22 35q40 18 52 53q5 11 -11 14q-257 36 -409 236t-152 514q0 345 179.5 544t482.5 199q216 0 362.5 -100t188.5 -264
q3 -13 -5 -22t-22 -9h-133q-25 0 -31 25q-28 92 -122.5 151.5t-235.5 59.5q-224 0 -355 -156t-131 -428t134 -434t354 -162q148 0 246.5 74t130.5 198q6 25 32 25h127q14 0 22 -9t5 -22q-39 -181 -174.5 -296t-341.5 -128q-11 0 -14 -8q-19 -37 -60 -49q-10 -7 -10 -8
q6 -2 16 -2q78 0 128.5 -44t50.5 -106q0 -95 -68 -143.5t-170 -48.5z" />
    <glyph glyph-name="Egrave" unicode="&#xc8;" horiz-adv-x="1191" 
d="M182 0q-28 0 -28 29v1376q0 29 28 29h903q29 0 29 -29v-98q0 -29 -29 -29h-745q-12 0 -12 -12v-435q0 -12 12 -12h666q28 0 28 -28v-99q0 -28 -28 -28h-666q-12 0 -12 -13v-483q0 -12 12 -12h735q29 0 29 -29v-98q0 -29 -29 -29h-893zM336 1731q-27 10 -17 36l29 78
q11 29 37 17l492 -195q25 -9 16 -37l-25 -69q-10 -27 -37 -17z" />
    <glyph glyph-name="Eacute" unicode="&#xc9;" horiz-adv-x="1191" 
d="M182 0q-28 0 -28 29v1376q0 29 28 29h903q29 0 29 -29v-98q0 -29 -29 -29h-745q-12 0 -12 -12v-435q0 -12 12 -12h666q28 0 28 -28v-99q0 -28 -28 -28h-666q-12 0 -12 -13v-483q0 -12 12 -12h735q29 0 29 -29v-98q0 -29 -29 -29h-893zM438 1630q-9 27 17 37l491 195
q26 12 37 -17l29 -78q10 -26 -17 -36l-495 -187q-27 -10 -37 17z" />
    <glyph glyph-name="Ecircumflex" unicode="&#xca;" horiz-adv-x="1191" 
d="M182 0q-28 0 -28 29v1376q0 29 28 29h903q29 0 29 -29v-98q0 -29 -29 -29h-745q-12 0 -12 -12v-435q0 -12 12 -12h666q28 0 28 -28v-99q0 -28 -28 -28h-666q-12 0 -12 -13v-483q0 -12 12 -12h735q29 0 29 -29v-98q0 -29 -29 -29h-893zM324 1536q-19 0 -24 11t7 24
l213 244q16 16 35 16h160q19 0 35 -16l213 -244q12 -13 7 -24t-24 -11h-110q-22 0 -35 16l-158 189q-3 5 -8 5t-8 -5l-158 -189q-13 -16 -35 -16h-110z" />
    <glyph glyph-name="Edieresis" unicode="&#xcb;" horiz-adv-x="1191" 
d="M182 0q-28 0 -28 29v1376q0 29 28 29h903q29 0 29 -29v-98q0 -29 -29 -29h-745q-12 0 -12 -12v-435q0 -12 12 -12h666q28 0 28 -28v-99q0 -28 -28 -28h-666q-12 0 -12 -13v-483q0 -12 12 -12h735q29 0 29 -29v-98q0 -29 -29 -29h-893zM354 1647q0 45 32 77.5t77 32.5
q43 0 74.5 -32.5t31.5 -77.5q0 -46 -31.5 -78.5t-74.5 -32.5q-44 0 -76.5 32.5t-32.5 78.5zM700 1647q0 45 32 77.5t75 32.5q44 0 76 -32t32 -78t-32 -78.5t-76 -32.5q-43 0 -75 33t-32 78z" />
    <glyph glyph-name="Igrave" unicode="&#xcc;" horiz-adv-x="481" 
d="M154 1405q0 29 28 29h117q29 0 29 -29v-1376q0 -29 -29 -29h-117q-28 0 -28 29v1376zM-59 1731q-27 10 -17 36l29 78q11 29 37 17l491 -195q26 -10 17 -37l-25 -69q-10 -27 -37 -17z" />
    <glyph glyph-name="Iacute" unicode="&#xcd;" horiz-adv-x="481" 
d="M154 1405q0 29 28 29h117q29 0 29 -29v-1376q0 -29 -29 -29h-117q-28 0 -28 29v1376zM43 1630q-9 28 16 37l492 195q26 12 37 -17l28 -78q10 -26 -16 -36l-496 -187q-26 -10 -36 17z" />
    <glyph glyph-name="Icircumflex" unicode="&#xce;" horiz-adv-x="481" 
d="M154 1405q0 29 28 29h117q29 0 29 -29v-1376q0 -29 -29 -29h-117q-28 0 -28 29v1376zM-72 1536q-19 0 -23.5 11t7.5 24l213 244q16 16 35 16h159q19 0 35 -16l213 -244q12 -13 7.5 -24t-23.5 -11h-111q-21 0 -34 16l-158 189q-3 5 -8.5 5t-8.5 -5l-157 -189
q-13 -16 -35 -16h-111z" />
    <glyph glyph-name="Idieresis" unicode="&#xcf;" horiz-adv-x="481" 
d="M154 1405q0 29 28 29h117q29 0 29 -29v-1376q0 -29 -29 -29h-117q-28 0 -28 29v1376zM-41 1647q0 45 32.5 77.5t76.5 32.5q43 0 74.5 -32.5t31.5 -77.5q0 -46 -31.5 -78.5t-74.5 -32.5q-44 0 -76.5 32.5t-32.5 78.5zM305 1647q0 45 32 77.5t75 32.5q44 0 76 -32t32 -78
t-32 -78.5t-76 -32.5q-43 0 -75 33t-32 78z" />
    <glyph glyph-name="Eth" unicode="&#xd0;" horiz-adv-x="1429" 
d="M41 784q0 29 29 29h118q13 0 13 12v580q0 29 28 29h426q317 0 497.5 -185t180.5 -532q0 -351 -180.5 -534t-497.5 -183h-426q-28 0 -28 29v649q0 12 -13 12h-118q-29 0 -29 29v65zM375 168q0 -12 12 -12h268q243 0 371.5 140.5t128.5 420.5t-129 420.5t-371 140.5h-268
q-12 0 -12 -12v-441q0 -12 12 -12h387q29 0 29 -29v-65q0 -29 -29 -29h-387q-12 0 -12 -12v-510z" />
    <glyph glyph-name="Ntilde" unicode="&#xd1;" horiz-adv-x="1425" 
d="M326 1176v-1147q0 -29 -29 -29h-115q-28 0 -28 29v1376q0 29 28 29h154q24 0 35 -19l483 -772q23 -37 118.5 -195.5t119.5 -195.5q3 -5 8.5 -4.5t5.5 10.5q0 62 -3 224.5t-3 222.5v700q0 29 28 29h115q29 0 29 -29v-1376q0 -29 -29 -29h-156q-24 0 -34 18l-416 662
q-64 102 -162.5 268.5t-132.5 233.5q-3 7 -9.5 6t-6.5 -12zM449 1536q-27 0 -33 27q-14 92 37.5 153.5t142.5 61.5q39 0 70.5 -10t85.5 -39q74 -40 94.5 -48t44.5 -8q31 0 46 20t13 52q-3 31 25 31h78q26 0 32 -27q15 -97 -37 -157t-143 -60q-35 0 -67.5 11.5t-85.5 39.5
q-103 55 -140 55q-32 0 -47.5 -20t-13.5 -51q3 -31 -25 -31h-77z" />
    <glyph glyph-name="Ograve" unicode="&#xd2;" horiz-adv-x="1525" 
d="M762 -33q-302 0 -484 206t-182 550q0 338 182 540.5t484 202.5q304 0 486 -202.5t182 -540.5q0 -344 -182 -550t-486 -206zM274 723q0 -272 132.5 -434t355.5 -162t356 162.5t133 433.5q0 266 -133 425t-356 159t-355.5 -159t-132.5 -425zM465 1731q-26 10 -16 36l28 78
q11 29 37 17l492 -195q25 -9 16 -37l-25 -69q-10 -27 -36 -17z" />
    <glyph glyph-name="Oacute" unicode="&#xd3;" horiz-adv-x="1525" 
d="M762 -33q-302 0 -484 206t-182 550q0 338 182 540.5t484 202.5q304 0 486 -202.5t182 -540.5q0 -344 -182 -550t-486 -206zM274 723q0 -272 132.5 -434t355.5 -162t356 162.5t133 433.5q0 266 -133 425t-356 159t-355.5 -159t-132.5 -425zM567 1630q-9 27 17 37l491 195
q26 12 37 -17l29 -78q10 -26 -17 -36l-495 -187q-27 -10 -37 17z" />
    <glyph glyph-name="Ocircumflex" unicode="&#xd4;" horiz-adv-x="1525" 
d="M762 -33q-302 0 -484 206t-182 550q0 338 182 540.5t484 202.5q304 0 486 -202.5t182 -540.5q0 -344 -182 -550t-486 -206zM274 723q0 -272 132.5 -434t355.5 -162t356 162.5t133 433.5q0 266 -133 425t-356 159t-355.5 -159t-132.5 -425zM453 1536q-19 0 -24 11t7 24
l213 244q16 16 35 16h160q19 0 35 -16l213 -244q12 -13 7 -24t-24 -11h-110q-22 0 -35 16l-158 189q-3 5 -8 5t-8 -5l-158 -189q-13 -16 -35 -16h-110z" />
    <glyph glyph-name="Odieresis" unicode="&#xd6;" horiz-adv-x="1525" 
d="M762 -33q-302 0 -484 206t-182 550q0 338 182 540.5t484 202.5q304 0 486 -202.5t182 -540.5q0 -344 -182 -550t-486 -206zM274 723q0 -272 132.5 -434t355.5 -162t356 162.5t133 433.5q0 266 -133 425t-356 159t-355.5 -159t-132.5 -425zM483 1647q0 45 32.5 77.5
t76.5 32.5q43 0 74.5 -32.5t31.5 -77.5q0 -46 -31.5 -78.5t-74.5 -32.5q-44 0 -76.5 32.5t-32.5 78.5zM829 1647q0 45 32 77.5t75 32.5q44 0 76 -32t32 -78t-32 -78.5t-76 -32.5q-43 0 -75 33t-32 78z" />
    <glyph glyph-name="multiply" unicode="&#xd7;" horiz-adv-x="1140" 
d="M963 1057q9 -9 9 -20.5t-9 -20.5l-279 -279q-8 -8 0 -16l279 -279q9 -9 9 -20.5t-9 -20.5l-64 -63q-21 -20 -41 0l-278 278q-8 8 -17 0l-280 -278q-21 -20 -41 0l-64 63q-20 21 0 41l279 279q8 8 0 16l-279 279q-20 20 0 41l64 63q20 20 41 0l280 -278q9 -8 17 0l278 278
q20 20 41 0z" />
    <glyph glyph-name="Oslash" unicode="&#xd8;" horiz-adv-x="1576" 
d="M117 14q-21 20 -2 39l143 160q6 9 2 16q-139 196 -139 496q0 338 181.5 540.5t483.5 202.5q270 0 443 -159q7 -11 16 2l125 137q20 20 39 2l49 -45q23 -20 4 -39l-135 -152q-6 -10 -2 -16q129 -197 129 -473q0 -344 -182 -550t-486 -206q-251 0 -430 152q-3 5 -8 5t-8 -5
l-135 -150q-19 -22 -39 -2zM299 725q0 -209 80 -356q10 -13 18 -2l717 796q7 10 0 17q-129 129 -328 129q-222 0 -354.5 -159t-132.5 -425zM471 264q-6 -10 0 -16q128 -119 315 -119q223 0 356.5 162.5t133.5 433.5q0 189 -74 334q-8 12 -16 2z" />
    <glyph glyph-name="Ugrave" unicode="&#xd9;" horiz-adv-x="1372" 
d="M133 551v854q0 29 29 29h114q29 0 29 -29v-854q0 -200 96.5 -314t284.5 -114t284.5 113.5t96.5 314.5v854q0 29 29 29h114q29 0 29 -29v-854q0 -271 -145 -427.5t-408 -156.5q-261 0 -407 157t-146 427zM389 1731q-26 10 -16 36l28 78q11 29 37 17l492 -195q25 -9 16 -37
l-24 -69q-10 -27 -37 -17z" />
    <glyph glyph-name="Uacute" unicode="&#xda;" horiz-adv-x="1372" 
d="M133 551v854q0 29 29 29h114q29 0 29 -29v-854q0 -200 96.5 -314t284.5 -114t284.5 113.5t96.5 314.5v854q0 29 29 29h114q29 0 29 -29v-854q0 -271 -145 -427.5t-408 -156.5q-261 0 -407 157t-146 427zM492 1630q-9 28 16 37l491 195q26 12 37 -17l29 -78
q10 -26 -16 -36l-496 -187q-27 -10 -37 17z" />
    <glyph glyph-name="Ucircumflex" unicode="&#xdb;" horiz-adv-x="1372" 
d="M133 551v854q0 29 29 29h114q29 0 29 -29v-854q0 -200 96.5 -314t284.5 -114t284.5 113.5t96.5 314.5v854q0 29 29 29h114q29 0 29 -29v-854q0 -271 -145 -427.5t-408 -156.5q-261 0 -407 157t-146 427zM377 1536q-19 0 -24 11t7 24l213 244q16 16 35 16h160q19 0 35 -16
l213 -244q12 -13 7 -24t-24 -11h-110q-22 0 -35 16l-158 189q-3 5 -8 5t-8 -5l-158 -189q-13 -16 -35 -16h-110z" />
    <glyph glyph-name="Udieresis" unicode="&#xdc;" horiz-adv-x="1372" 
d="M133 551v854q0 29 29 29h114q29 0 29 -29v-854q0 -200 96.5 -314t284.5 -114t284.5 113.5t96.5 314.5v854q0 29 29 29h114q29 0 29 -29v-854q0 -271 -145 -427.5t-408 -156.5q-261 0 -407 157t-146 427zM408 1647q0 46 32 78t76 32q43 0 75 -32.5t32 -77.5t-32 -78
t-75 -33q-44 0 -76 32.5t-32 78.5zM754 1647q0 45 31.5 77.5t74.5 32.5q44 0 76.5 -32.5t32.5 -77.5q0 -46 -32.5 -78.5t-76.5 -32.5q-43 0 -74.5 32.5t-31.5 78.5z" />
    <glyph glyph-name="Yacute" unicode="&#xdd;" horiz-adv-x="1323" 
d="M78 1399q-9 13 -3 24t23 11h133q21 0 35 -21l219 -385q151 -268 162 -285q8 -12 14 -12.5t15 12.5q13 21 41 70.5t66.5 117.5t58.5 103l215 379q14 21 35 21h133q17 0 23 -11t-3 -24l-493 -811q-4 -8 -4 -15v-544q0 -29 -29 -29h-115q-29 0 -29 29v544q0 7 -4 15z
M467 1630q-9 28 16 37l492 195q26 12 37 -17l28 -78q10 -26 -16 -36l-496 -187q-26 -10 -36 17z" />
    <glyph glyph-name="Thorn" unicode="&#xde;" horiz-adv-x="1261" 
d="M182 0q-28 0 -28 29v1376q0 29 28 29h115q29 0 29 -29v-227q0 -13 12 -13h350q479 0 479 -448q0 -108 -38 -195t-103.5 -142t-152 -84t-185.5 -28l-350 2q-12 0 -12 -12v-229q0 -29 -29 -29h-115zM326 436q0 -12 12 -12h319q336 0 336 293q0 86 -25.5 145t-73.5 90.5
t-105 44.5t-132 13h-319q-12 0 -12 -13v-561z" />
    <glyph glyph-name="germandbls" unicode="&#xdf;" horiz-adv-x="1177" 
d="M815 776q46 -11 89.5 -39.5t82 -73.5t61.5 -113.5t23 -150.5q0 -189 -115.5 -304t-310.5 -115q-66 0 -151 16q-27 3 -27 31v90q0 31 33 24q63 -14 123 -14q133 0 204.5 70.5t71.5 197.5q0 134 -80 201.5t-231 67.5h-80q-29 0 -29 28v92q0 29 29 29h74q109 0 177 71
t68 191t-69 187t-187 67q-124 0 -194 -72t-70 -196v-1032q0 -29 -28 -29h-107q-29 0 -29 29v1032q0 190 115 301t315 111q190 0 304 -99.5t114 -267.5q0 -115 -51.5 -197t-126.5 -118q-5 -1 -4.5 -7.5t6.5 -7.5z" />
    <glyph glyph-name="agrave" unicode="&#xe0;" horiz-adv-x="1134" 
d="M410 -33q-155 0 -251 79t-96 222q0 139 95.5 218t269.5 79h119q147 0 213.5 31.5t66.5 128.5q0 95 -66.5 158t-213.5 63q-111 0 -187 -40t-98 -126q-9 -26 -33 -26h-112q-14 0 -21 8.5t-4 21.5q31 152 155 229t308 77q209 0 322.5 -96t113.5 -269v-696q0 -29 -28 -29h-99
q-30 0 -30 29l-7 143q0 12 -7 14t-13 -10q-42 -83 -147 -146t-250 -63zM250 1376q-27 10 -17 37l29 78q10 28 37 16l492 -194q25 -9 16 -37l-25 -70q-10 -26 -37 -16zM238 274q0 -77 52.5 -122.5t155.5 -45.5q86 0 159.5 32.5t121 85t74 116.5t26.5 129v47q0 8 -5.5 9.5
t-10.5 -5.5q-55 -82 -264 -82h-119q-89 0 -139.5 -43.5t-50.5 -120.5z" />
    <glyph glyph-name="aacute" unicode="&#xe1;" horiz-adv-x="1134" 
d="M410 -33q-155 0 -251 79t-96 222q0 139 95.5 218t269.5 79h119q147 0 213.5 31.5t66.5 128.5q0 95 -66.5 158t-213.5 63q-111 0 -187 -40t-98 -126q-9 -26 -33 -26h-112q-14 0 -21 8.5t-4 21.5q31 152 155 229t308 77q209 0 322.5 -96t113.5 -269v-696q0 -29 -28 -29h-99
q-30 0 -30 29l-7 143q0 12 -7 14t-13 -10q-42 -83 -147 -146t-250 -63zM238 274q0 -77 52.5 -122.5t155.5 -45.5q86 0 159.5 32.5t121 85t74 116.5t26.5 129v47q0 8 -5.5 9.5t-10.5 -5.5q-55 -82 -264 -82h-119q-89 0 -139.5 -43.5t-50.5 -120.5zM315 1276q-9 27 17 37
l493 194q27 12 37 -16l27 -78q10 -27 -17 -37l-493 -186q-28 -11 -37 16z" />
    <glyph glyph-name="acircumflex" unicode="&#xe2;" horiz-adv-x="1134" 
d="M410 -33q-155 0 -251 79t-96 222q0 139 95.5 218t269.5 79h119q147 0 213.5 31.5t66.5 128.5q0 95 -66.5 158t-213.5 63q-111 0 -187 -40t-98 -126q-9 -26 -33 -26h-112q-14 0 -21 8.5t-4 21.5q31 152 155 229t308 77q209 0 322.5 -96t113.5 -269v-696q0 -29 -28 -29h-99
q-30 0 -30 29l-7 143q0 12 -7 14t-13 -10q-42 -83 -147 -146t-250 -63zM248 1182q-19 0 -24 11t7 24l213 243q17 17 35 17h160q18 0 35 -17l213 -243q12 -13 7 -24t-24 -11h-110q-22 0 -35 16l-158 188q-3 4 -8 4t-8 -4l-158 -188q-13 -16 -35 -16h-110zM238 274
q0 -77 52.5 -122.5t155.5 -45.5q86 0 159.5 32.5t121 85t74 116.5t26.5 129v47q0 8 -5.5 9.5t-10.5 -5.5q-55 -82 -264 -82h-119q-89 0 -139.5 -43.5t-50.5 -120.5z" />
    <glyph glyph-name="atilde" unicode="&#xe3;" horiz-adv-x="1134" 
d="M410 -33q-155 0 -251 79t-96 222q0 139 95.5 218t269.5 79h119q147 0 213.5 31.5t66.5 128.5q0 95 -66.5 158t-213.5 63q-111 0 -187 -40t-98 -126q-9 -26 -33 -26h-112q-14 0 -21 8.5t-4 21.5q31 152 155 229t308 77q209 0 322.5 -96t113.5 -269v-696q0 -29 -28 -29h-99
q-30 0 -30 29l-7 143q0 12 -7 14t-13 -10q-42 -83 -147 -146t-250 -63zM250 1182q-27 0 -33 26q-14 92 37.5 153.5t142.5 61.5q39 0 70.5 -10t85.5 -39q73 -39 93.5 -47t45.5 -8q31 0 46.5 20t13.5 52q-3 30 24 30h78q27 0 33 -26q15 -96 -37.5 -156.5t-142.5 -60.5
q-58 0 -154 51q-103 55 -139 55q-32 0 -48 -20.5t-14 -51.5q3 -30 -24 -30h-78zM238 274q0 -77 52.5 -122.5t155.5 -45.5q86 0 159.5 32.5t121 85t74 116.5t26.5 129v47q0 8 -5.5 9.5t-10.5 -5.5q-55 -82 -264 -82h-119q-89 0 -139.5 -43.5t-50.5 -120.5z" />
    <glyph glyph-name="adieresis" unicode="&#xe4;" horiz-adv-x="1134" 
d="M410 -33q-155 0 -251 79t-96 222q0 139 95.5 218t269.5 79h119q147 0 213.5 31.5t66.5 128.5q0 95 -66.5 158t-213.5 63q-111 0 -187 -40t-98 -126q-9 -26 -33 -26h-112q-14 0 -21 8.5t-4 21.5q31 152 155 229t308 77q209 0 322.5 -96t113.5 -269v-696q0 -29 -28 -29h-99
q-30 0 -30 29l-7 143q0 12 -7 14t-13 -10q-42 -83 -147 -146t-250 -63zM238 274q0 -77 52.5 -122.5t155.5 -45.5q86 0 159.5 32.5t121 85t74 116.5t26.5 129v47q0 8 -5.5 9.5t-10.5 -5.5q-55 -82 -264 -82h-119q-89 0 -139.5 -43.5t-50.5 -120.5zM276 1341q0 46 32.5 78.5
t76.5 32.5q43 0 75 -33t32 -78t-32 -77.5t-75 -32.5q-45 0 -77 32.5t-32 77.5zM623 1341q0 46 31.5 78.5t74.5 32.5q44 0 76.5 -32.5t32.5 -78.5q0 -45 -32 -77.5t-77 -32.5q-43 0 -74.5 32.5t-31.5 77.5z" />
    <glyph glyph-name="aring" unicode="&#xe5;" horiz-adv-x="1134" 
d="M410 -33q-155 0 -251 79t-96 222q0 139 95.5 218t269.5 79h119q147 0 213.5 31.5t66.5 128.5q0 95 -66.5 158t-213.5 63q-111 0 -187 -40t-98 -126q-9 -26 -33 -26h-112q-14 0 -21 8.5t-4 21.5q31 152 155 229t308 77q209 0 322.5 -96t113.5 -269v-696q0 -29 -28 -29h-99
q-30 0 -30 29l-7 143q0 12 -7 14t-13 -10q-42 -83 -147 -146t-250 -63zM238 274q0 -77 52.5 -122.5t155.5 -45.5q86 0 159.5 32.5t121 85t74 116.5t26.5 129v47q0 8 -5.5 9.5t-10.5 -5.5q-55 -82 -264 -82h-119q-89 0 -139.5 -43.5t-50.5 -120.5zM307 1413q0 103 69 166
t181 63t181 -63t69 -166t-69 -166t-181 -63t-181 63t-69 166zM432 1413q0 -49 34.5 -79.5t90.5 -30.5q57 0 92 30.5t35 79.5q0 50 -35 80.5t-92 30.5q-56 0 -90.5 -31t-34.5 -80z" />
    <glyph glyph-name="ae" unicode="&#xe6;" horiz-adv-x="1900" 
d="M410 -33q-155 0 -251 79t-96 222q0 139 95.5 218t269.5 79h121q145 0 211.5 31.5t66.5 128.5q0 96 -66 158.5t-214 62.5q-111 0 -187 -40t-98 -126q-9 -26 -33 -26h-112q-14 0 -21 8.5t-4 21.5q31 152 155 229t308 77q253 0 360 -170q7 -12 12.5 -12.5t12.5 10.5
q60 84 163 128t224 44q205 0 341 -144.5t136 -367.5q0 -34 -2 -50q-3 -26 -28 -26h-768q-13 0 -13 -13q6 -180 99.5 -279t238.5 -99q211 0 277 163q10 23 32 23h105q15 0 21.5 -9t2.5 -24q-47 -144 -160.5 -220.5t-277.5 -76.5q-173 0 -304.5 86.5t-164.5 208.5
q-1 5 -3.5 6.5t-5.5 0t-5 -6.5q-43 -126 -158.5 -210.5t-279.5 -84.5zM238 274q0 -77 52.5 -122.5t155.5 -45.5q86 0 159.5 32.5t121 85t74 116.5t26.5 129v47q0 8 -5.5 9.5t-10.5 -5.5q-55 -82 -264 -82h-119q-89 0 -139.5 -43.5t-50.5 -120.5zM999 641q0 -12 13 -12h610
q12 0 12 12q-13 143 -98 224t-215 81q-131 0 -219.5 -77.5t-102.5 -227.5z" />
    <glyph glyph-name="ccedilla" unicode="&#xe7;" horiz-adv-x="1130" 
d="M530 -440q-53 0 -127 18q-24 9 -24 33v37q0 15 9 21.5t24 2.5q43 -12 82 -12q54 0 87 22t33 66q0 41 -40 59t-101 15q-31 -3 -31 26v23q0 22 23 35q38 17 51 55q5 11 -8 14q-186 31 -299 181.5t-113 373.5q0 252 141 406t367 154q162 0 275.5 -82t152.5 -222
q4 -15 -2.5 -23.5t-21.5 -8.5h-111q-24 0 -33 24q-27 75 -95.5 119.5t-164.5 44.5q-154 0 -247 -110.5t-93 -292.5q0 -185 93 -304.5t241 -119.5q100 0 175.5 54.5t100.5 143.5q6 25 33 25h111q13 0 20 -8.5t4 -22.5q-29 -140 -133 -230.5t-252 -107.5q-9 0 -14 -8
q-19 -37 -59 -49q-11 -7 -11 -8q7 -2 17 -2q78 0 128 -44t50 -106q0 -95 -68 -143.5t-170 -48.5z" />
    <glyph glyph-name="egrave" unicode="&#xe8;" horiz-adv-x="1165" 
d="M596 -33q-110 0 -201 35t-158 104t-104 177.5t-37 248.5q0 261 136.5 409.5t361.5 148.5q203 0 339 -145t136 -367q0 -19 -2 -48q-3 -28 -29 -28h-766q-12 0 -12 -13q4 -180 97.5 -279t238.5 -99q210 0 276 163q10 23 33 23h105q15 0 22 -8.5t2 -22.5
q-47 -145 -160.5 -222t-277.5 -77zM283 1376q-27 10 -17 37l29 78q10 28 37 16l491 -194q26 -10 17 -37l-25 -70q-10 -26 -37 -16zM264 641q-3 -12 10 -12h613q13 0 10 12q-14 141 -95.5 223t-215.5 82q-132 0 -219.5 -79t-102.5 -226z" />
    <glyph glyph-name="eacute" unicode="&#xe9;" horiz-adv-x="1165" 
d="M596 -33q-110 0 -201 35t-158 104t-104 177.5t-37 248.5q0 261 136.5 409.5t361.5 148.5q203 0 339 -145t136 -367q0 -19 -2 -48q-3 -28 -29 -28h-766q-12 0 -12 -13q4 -180 97.5 -279t238.5 -99q210 0 276 163q10 23 33 23h105q15 0 22 -8.5t2 -22.5
q-47 -145 -160.5 -222t-277.5 -77zM264 641q-3 -12 10 -12h613q13 0 10 12q-14 141 -95.5 223t-215.5 82q-132 0 -219.5 -79t-102.5 -226zM348 1276q-9 27 17 37l493 194q27 12 37 -16l27 -78q10 -27 -17 -37l-493 -186q-28 -11 -37 16z" />
    <glyph glyph-name="ecircumflex" unicode="&#xea;" horiz-adv-x="1165" 
d="M596 -33q-110 0 -201 35t-158 104t-104 177.5t-37 248.5q0 261 136.5 409.5t361.5 148.5q203 0 339 -145t136 -367q0 -19 -2 -48q-3 -28 -29 -28h-766q-12 0 -12 -13q4 -180 97.5 -279t238.5 -99q210 0 276 163q10 23 33 23h105q15 0 22 -8.5t2 -22.5
q-47 -145 -160.5 -222t-277.5 -77zM281 1182q-19 0 -24 11t7 24l213 243q17 17 35 17h160q18 0 35 -17l213 -243q12 -13 7 -24t-24 -11h-110q-22 0 -35 16l-158 188q-3 4 -8 4t-8 -4l-158 -188q-13 -16 -35 -16h-110zM264 641q-3 -12 10 -12h613q13 0 10 12
q-14 141 -95.5 223t-215.5 82q-132 0 -219.5 -79t-102.5 -226z" />
    <glyph glyph-name="edieresis" unicode="&#xeb;" horiz-adv-x="1165" 
d="M596 -33q-110 0 -201 35t-158 104t-104 177.5t-37 248.5q0 261 136.5 409.5t361.5 148.5q203 0 339 -145t136 -367q0 -19 -2 -48q-3 -28 -29 -28h-766q-12 0 -12 -13q4 -180 97.5 -279t238.5 -99q210 0 276 163q10 23 33 23h105q15 0 22 -8.5t2 -22.5
q-47 -145 -160.5 -222t-277.5 -77zM264 641q-3 -12 10 -12h613q13 0 10 12q-14 141 -95.5 223t-215.5 82q-132 0 -219.5 -79t-102.5 -226zM309 1341q0 46 32.5 78.5t76.5 32.5q43 0 74.5 -32.5t31.5 -78.5q0 -45 -31.5 -77.5t-74.5 -32.5q-44 0 -76.5 32.5t-32.5 77.5z
M655 1341q0 45 32 78t75 33q44 0 76 -32.5t32 -78.5t-32 -78t-76 -32q-43 0 -75 32.5t-32 77.5z" />
    <glyph glyph-name="igrave" unicode="&#xec;" horiz-adv-x="485" 
d="M160 1028q0 29 28 29h107q29 0 29 -29v-999q0 -29 -29 -29h-107q-28 0 -28 29v999zM-68 1376q-26 10 -16 37l29 78q10 28 37 16l491 -194q25 -9 16 -37l-24 -70q-10 -26 -37 -16z" />
    <glyph glyph-name="iacute" unicode="&#xed;" horiz-adv-x="485" 
d="M160 1028q0 29 28 29h107q29 0 29 -29v-999q0 -29 -29 -29h-107q-28 0 -28 29v999zM-2 1276q-9 28 16 37l494 194q27 12 37 -16l26 -78q10 -27 -16 -37l-494 -186q-27 -10 -36 16z" />
    <glyph glyph-name="icircumflex" unicode="&#xee;" horiz-adv-x="485" 
d="M160 1028q0 29 28 29h107q29 0 29 -29v-999q0 -29 -29 -29h-107q-28 0 -28 29v999zM-70 1182q-19 0 -23.5 11t7.5 24l213 243q17 17 35 17h160q17 0 34 -17l213 -243q12 -13 7.5 -24t-23.5 -11h-111q-21 0 -34 16l-158 188q-3 4 -8.5 4t-8.5 -4l-157 -188
q-13 -16 -35 -16h-111z" />
    <glyph glyph-name="idieresis" unicode="&#xef;" horiz-adv-x="485" 
d="M160 1028q0 29 28 29h107q29 0 29 -29v-999q0 -29 -29 -29h-107q-28 0 -28 29v999zM-41 1341q0 46 32.5 78.5t76.5 32.5q43 0 74.5 -32.5t31.5 -78.5q0 -45 -31.5 -77.5t-74.5 -32.5q-44 0 -76.5 32.5t-32.5 77.5zM305 1341q0 45 32 78t75 33q44 0 76 -32.5t32 -78.5
t-32 -78t-76 -32q-43 0 -75 32.5t-32 77.5z" />
    <glyph glyph-name="eth" unicode="&#xf0;" horiz-adv-x="1206" 
d="M604 -33q-226 0 -362 146.5t-136 384.5q0 234 129 381t322 147q94 0 167.5 -34t113.5 -77q6 -6 12.5 -2.5t3.5 11.5q-23 72 -111 194q-13 17 -36 49t-35 47q-6 9 -17 5l-262 -86q-14 -5 -23.5 2t-9.5 22v57q0 26 25 33l190 62q13 5 5 16q-60 65 -68 74q-12 13 -8 24
t22 11h148q21 0 35 -17l34 -43q7 -7 17 -4l207 68q13 4 22.5 -3t9.5 -22v-57q0 -26 -24 -33l-139 -45q-13 -3 -7 -16l5 -7q266 -371 266 -733q0 -260 -135.5 -407.5t-360.5 -147.5zM272 498q0 -177 91 -281t247 -104q153 0 239.5 100t86.5 287q0 189 -87 286t-237 97
q-159 0 -249.5 -103.5t-90.5 -281.5z" />
    <glyph glyph-name="ntilde" unicode="&#xf1;" horiz-adv-x="1183" 
d="M172 0q-29 0 -29 29v999q0 29 29 29h100q14 0 22.5 -8t8.5 -21l6 -119q0 -9 8.5 -10.5t12.5 6.5q54 89 140.5 137t193.5 48q167 0 271.5 -107.5t104.5 -280.5v-673q0 -29 -28 -29h-107q-28 0 -28 29v635q0 132 -66 203t-184 71q-147 0 -232.5 -108t-85.5 -285v-516
q0 -29 -28 -29h-109zM285 1182q-27 0 -33 26q-14 92 37.5 153.5t142.5 61.5q39 0 70.5 -10t85.5 -39q73 -39 93.5 -47t45.5 -8q31 0 46 20t13 52q-3 30 25 30h78q27 0 33 -26q15 -96 -38 -156.5t-143 -60.5q-35 0 -67.5 11.5t-85.5 39.5q-103 55 -139 55q-32 0 -48 -20.5
t-14 -51.5q3 -30 -25 -30h-77z" />
    <glyph glyph-name="ograve" unicode="&#xf2;" horiz-adv-x="1241" 
d="M621 -33q-150 0 -270 72.5t-187.5 201.5t-67.5 291q0 242 149 400t376 158t375.5 -158t148.5 -400q0 -246 -148.5 -405.5t-375.5 -159.5zM264 532q0 -190 97 -303.5t260 -113.5t259.5 113t96.5 304q0 186 -97 298t-259 112q-163 0 -260 -112t-97 -298zM313 1376
q-26 10 -16 37l29 78q10 27 36 16l492 -194q25 -9 16 -37l-24 -70q-10 -26 -37 -16z" />
    <glyph glyph-name="oacute" unicode="&#xf3;" horiz-adv-x="1241" 
d="M621 -33q-150 0 -270 72.5t-187.5 201.5t-67.5 291q0 242 149 400t376 158t375.5 -158t148.5 -400q0 -246 -148.5 -405.5t-375.5 -159.5zM264 532q0 -190 97 -303.5t260 -113.5t259.5 113t96.5 304q0 186 -97 298t-259 112q-163 0 -260 -112t-97 -298zM379 1276
q-9 28 16 37l494 194q27 12 37 -16l26 -78q10 -27 -16 -37l-494 -186q-27 -10 -36 16z" />
    <glyph glyph-name="ocircumflex" unicode="&#xf4;" horiz-adv-x="1241" 
d="M621 -33q-150 0 -270 72.5t-187.5 201.5t-67.5 291q0 242 149 400t376 158t375.5 -158t148.5 -400q0 -246 -148.5 -405.5t-375.5 -159.5zM264 532q0 -190 97 -303.5t260 -113.5t259.5 113t96.5 304q0 186 -97 298t-259 112q-163 0 -260 -112t-97 -298zM311 1182
q-19 0 -23.5 11t7.5 24l213 243q17 17 35 17h159q18 0 35 -17l213 -243q12 -13 7.5 -24t-23.5 -11h-111q-22 0 -35 16l-157 188q-3 4 -8.5 4t-8.5 -4l-157 -188q-13 -16 -35 -16h-111z" />
    <glyph glyph-name="otilde" unicode="&#xf5;" horiz-adv-x="1241" 
d="M621 -33q-150 0 -270 72.5t-187.5 201.5t-67.5 291q0 242 149 400t376 158t375.5 -158t148.5 -400q0 -246 -148.5 -405.5t-375.5 -159.5zM264 532q0 -190 97 -303.5t260 -113.5t259.5 113t96.5 304q0 186 -97 298t-259 112q-163 0 -260 -112t-97 -298zM313 1182
q-26 0 -32 26q-14 92 37.5 153.5t142.5 61.5q39 0 70 -10t85 -39q73 -39 94 -47t46 -8q31 0 46 20t13 52q-3 30 25 30h78q26 0 32 -26q15 -96 -37.5 -156.5t-142.5 -60.5q-58 0 -154 51q-103 55 -139 55q-32 0 -47.5 -20.5t-13.5 -51.5q3 -30 -25 -30h-78z" />
    <glyph glyph-name="odieresis" unicode="&#xf6;" horiz-adv-x="1241" 
d="M621 -33q-150 0 -270 72.5t-187.5 201.5t-67.5 291q0 242 149 400t376 158t375.5 -158t148.5 -400q0 -246 -148.5 -405.5t-375.5 -159.5zM264 532q0 -190 97 -303.5t260 -113.5t259.5 113t96.5 304q0 186 -97 298t-259 112q-163 0 -260 -112t-97 -298zM340 1341
q0 46 32.5 78.5t76.5 32.5q43 0 74.5 -32.5t31.5 -78.5q0 -45 -31.5 -77.5t-74.5 -32.5q-45 0 -77 32.5t-32 77.5zM686 1341q0 45 32 78t75 33q44 0 76 -32.5t32 -78.5t-32 -78t-76 -32q-43 0 -75 32.5t-32 77.5z" />
    <glyph glyph-name="divide" unicode="&#xf7;" horiz-adv-x="1181" 
d="M590 979q-46 0 -76.5 29t-30.5 73t30.5 72.5t76.5 28.5q47 0 78.5 -28.5t31.5 -72.5t-31.5 -73t-78.5 -29zM139 655q-28 0 -28 29v90q0 29 28 29h903q29 0 29 -29v-90q0 -29 -29 -29h-903zM483 379q0 44 30.5 72t76.5 28q48 0 79 -28t31 -72t-31.5 -73.5t-78.5 -29.5
q-46 0 -76.5 29.5t-30.5 73.5z" />
    <glyph glyph-name="oslash" unicode="&#xf8;" horiz-adv-x="1292" 
d="M117 16q-19 19 0 41l106 111q8 8 2 16q-102 148 -102 348q0 242 148.5 400t375.5 158q192 0 334 -117q8 -8 16 0l97 100q22 21 41 2l41 -37q19 -19 0 -41l-103 -108q-8 -8 -2 -17q100 -146 100 -340q0 -246 -148.5 -405.5t-375.5 -159.5q-193 0 -334 119q-8 8 -16 0
l-100 -106q-19 -22 -41 0zM291 532q0 -131 47 -227q6 -12 16 -2l520 543q5 8 0 16q-93 80 -227 80q-162 0 -259 -112t-97 -298zM420 211q-5 -8 0 -16q93 -80 227 -80q163 0 260 113.5t97 303.5q0 124 -46 218q-7 13 -16 4z" />
    <glyph glyph-name="ugrave" unicode="&#xf9;" horiz-adv-x="1183" 
d="M1012 1057q28 0 28 -29v-999q0 -29 -28 -29h-101q-30 0 -30 29l-7 118q0 9 -8 11t-12 -6q-54 -89 -140.5 -137t-193.5 -48q-168 0 -272.5 107t-104.5 280v674q0 29 29 29h107q28 0 28 -29v-635q0 -132 66 -203t184 -71q147 0 232 108t85 285v516q0 29 29 29h109z
M287 1376q-27 10 -17 37l29 78q10 28 37 16l491 -194q26 -10 17 -37l-25 -70q-10 -26 -37 -16z" />
    <glyph glyph-name="uacute" unicode="&#xfa;" horiz-adv-x="1183" 
d="M1012 1057q28 0 28 -29v-999q0 -29 -28 -29h-101q-30 0 -30 29l-7 118q0 9 -8 11t-12 -6q-54 -89 -140.5 -137t-193.5 -48q-168 0 -272.5 107t-104.5 280v674q0 29 29 29h107q28 0 28 -29v-635q0 -132 66 -203t184 -71q147 0 232 108t85 285v516q0 29 29 29h109z
M352 1276q-9 27 17 37l493 194q27 12 37 -16l27 -78q10 -27 -17 -37l-493 -186q-28 -11 -37 16z" />
    <glyph glyph-name="ucircumflex" unicode="&#xfb;" horiz-adv-x="1183" 
d="M1012 1057q28 0 28 -29v-999q0 -29 -28 -29h-101q-30 0 -30 29l-7 118q0 9 -8 11t-12 -6q-54 -89 -140.5 -137t-193.5 -48q-168 0 -272.5 107t-104.5 280v674q0 29 29 29h107q28 0 28 -29v-635q0 -132 66 -203t184 -71q147 0 232 108t85 285v516q0 29 29 29h109z
M285 1182q-19 0 -24 11t7 24l213 243q17 17 35 17h160q18 0 35 -17l213 -243q12 -13 7 -24t-24 -11h-110q-22 0 -35 16l-158 188q-3 4 -8 4t-8 -4l-158 -188q-13 -16 -35 -16h-110z" />
    <glyph glyph-name="udieresis" unicode="&#xfc;" horiz-adv-x="1183" 
d="M1012 1057q28 0 28 -29v-999q0 -29 -28 -29h-101q-30 0 -30 29l-7 118q0 9 -8 11t-12 -6q-54 -89 -140.5 -137t-193.5 -48q-168 0 -272.5 107t-104.5 280v674q0 29 29 29h107q28 0 28 -29v-635q0 -132 66 -203t184 -71q147 0 232 108t85 285v516q0 29 29 29h109z
M313 1341q0 46 32.5 78.5t76.5 32.5q43 0 74.5 -32.5t31.5 -78.5q0 -45 -31.5 -77.5t-74.5 -32.5q-44 0 -76.5 32.5t-32.5 77.5zM659 1341q0 45 32 78t75 33q44 0 76 -32.5t32 -78.5t-32 -78t-76 -32q-43 0 -75 32.5t-32 77.5z" />
    <glyph glyph-name="yacute" unicode="&#xfd;" horiz-adv-x="1044" 
d="M225 -395q-59 0 -133 18q-24 6 -24 31v82q0 30 32 24q55 -10 88 -10q74 0 116 35t79 127l33 84q5 10 2 16l-369 1012q-5 14 1.5 23.5t21.5 9.5h123q25 0 32 -23l148 -446q117 -359 123 -383q5 -18 14.5 -18t15.5 18q20 59 64 181.5t70 197.5l157 450q10 23 33 23h121
q15 0 21.5 -9.5t0.5 -23.5l-411 -1061q-72 -185 -154.5 -271.5t-204.5 -86.5zM287 1276q-9 28 16 37l494 194q27 12 37 -16l26 -78q10 -27 -16 -37l-494 -186q-28 -11 -37 16z" />
    <glyph glyph-name="thorn" unicode="&#xfe;" horiz-adv-x="1230" 
d="M172 -410q-29 0 -29 29v1819q0 28 29 28h109q28 0 28 -28l-2 -518q0 -13 9.5 -15t13.5 6q54 88 140.5 135.5t193.5 47.5q203 0 337 -158t134 -406t-134 -405.5t-337 -157.5q-107 0 -193.5 47.5t-140.5 135.5q-4 8 -13.5 6t-9.5 -15v-522q0 -29 -28 -29h-107zM307 477
q0 -150 93 -256t239 -106q149 0 239.5 115t90.5 300t-90.5 300.5t-239.5 115.5q-146 0 -239 -106t-93 -256v-107z" />
    <glyph glyph-name="ydieresis" unicode="&#xff;" horiz-adv-x="1044" 
d="M225 -395q-59 0 -133 18q-24 6 -24 31v82q0 30 32 24q55 -10 88 -10q74 0 116 35t79 127l33 84q5 10 2 16l-369 1012q-5 14 1.5 23.5t21.5 9.5h123q25 0 32 -23l148 -446q117 -359 123 -383q5 -18 14.5 -18t15.5 18q20 59 64 181.5t70 197.5l157 450q10 23 33 23h121
q15 0 21.5 -9.5t0.5 -23.5l-411 -1061q-72 -185 -154.5 -271.5t-204.5 -86.5zM248 1341q0 46 32 78.5t76 32.5q43 0 75 -33t32 -78t-32 -77.5t-75 -32.5q-44 0 -76 32t-32 78zM594 1341q0 46 31.5 78.5t74.5 32.5q44 0 76.5 -32.5t32.5 -78.5q0 -45 -32.5 -77.5t-76.5 -32.5
q-43 0 -74.5 32.5t-31.5 77.5z" />
    <glyph glyph-name="Amacron" unicode="&#x100;" horiz-adv-x="1435" 
d="M246 23q-10 -23 -33 -23h-121q-15 0 -21.5 9.5t-0.5 23.5l532 1378q10 23 33 23h153q24 0 33 -23l545 -1378q6 -13 -1 -23t-22 -10h-122q-23 0 -33 23l-148 380q-3 11 -14 11h-623q-11 0 -14 -11zM463 1577q-29 0 -29 29v80q0 28 29 28h514q29 0 29 -28v-80
q0 -29 -29 -29h-514zM459 584q-4 -15 8 -15h496q12 0 8 15l-103 270q-17 42 -74.5 200t-74.5 199q-3 7 -8.5 7t-8.5 -7q-16 -37 -67.5 -187.5t-77.5 -219.5z" />
    <glyph glyph-name="amacron" unicode="&#x101;" horiz-adv-x="1134" 
d="M410 -33q-155 0 -251 79t-96 222q0 139 95.5 218t269.5 79h119q147 0 213.5 31.5t66.5 128.5q0 95 -66.5 158t-213.5 63q-111 0 -187 -40t-98 -126q-9 -26 -33 -26h-112q-14 0 -21 8.5t-4 21.5q31 152 155 229t308 77q209 0 322.5 -96t113.5 -269v-696q0 -29 -28 -29h-99
q-30 0 -30 29l-7 143q0 12 -7 14t-13 -10q-42 -83 -147 -146t-250 -63zM238 274q0 -77 52.5 -122.5t155.5 -45.5q86 0 159.5 32.5t121 85t74 116.5t26.5 129v47q0 8 -5.5 9.5t-10.5 -5.5q-55 -82 -264 -82h-119q-89 0 -139.5 -43.5t-50.5 -120.5zM299 1223q-29 0 -29 28v80
q0 29 29 29h514q29 0 29 -29v-80q0 -28 -29 -28h-514z" />
    <glyph glyph-name="Abreve" unicode="&#x102;" horiz-adv-x="1435" 
d="M246 23q-10 -23 -33 -23h-121q-15 0 -21.5 9.5t-0.5 23.5l532 1378q10 23 33 23h153q24 0 33 -23l545 -1378q6 -13 -1 -23t-22 -10h-122q-23 0 -33 23l-148 380q-3 11 -14 11h-623q-11 0 -14 -11zM418 1810q-3 31 28 31h82q24 0 31 -26q10 -71 53 -108.5t107 -37.5
t106 37.5t52 108.5q7 26 30 26h82q14 0 22 -8.5t5 -22.5q-17 -125 -97.5 -199.5t-199.5 -74.5q-124 0 -205 74.5t-96 199.5zM459 584q-4 -15 8 -15h496q12 0 8 15l-103 270q-17 42 -74.5 200t-74.5 199q-3 7 -8.5 7t-8.5 -7q-16 -37 -67.5 -187.5t-77.5 -219.5z" />
    <glyph glyph-name="abreve" unicode="&#x103;" horiz-adv-x="1134" 
d="M410 -33q-155 0 -251 79t-96 222q0 139 95.5 218t269.5 79h119q147 0 213.5 31.5t66.5 128.5q0 95 -66.5 158t-213.5 63q-111 0 -187 -40t-98 -126q-9 -26 -33 -26h-112q-14 0 -21 8.5t-4 21.5q31 152 155 229t308 77q209 0 322.5 -96t113.5 -269v-696q0 -29 -28 -29h-99
q-30 0 -30 29l-7 143q0 12 -7 14t-13 -10q-42 -83 -147 -146t-250 -63zM238 274q0 -77 52.5 -122.5t155.5 -45.5q86 0 159.5 32.5t121 85t74 116.5t26.5 129v47q0 8 -5.5 9.5t-10.5 -5.5q-55 -82 -264 -82h-119q-89 0 -139.5 -43.5t-50.5 -120.5zM256 1456q-1 15 7 23t22 8
h82q23 0 30 -27q10 -71 53 -108t107 -37q66 0 106.5 38t51.5 107q7 27 30 27h82q14 0 22 -8.5t5 -22.5q-17 -125 -97.5 -199.5t-199.5 -74.5q-123 0 -204.5 74.5t-96.5 199.5z" />
    <glyph glyph-name="Aogonek" unicode="&#x104;" horiz-adv-x="1435" 
d="M246 23q-10 -23 -33 -23h-121q-15 0 -21.5 9.5t-0.5 23.5l532 1378q10 23 33 23h153q24 0 33 -23l547 -1384q9 -27 -14 -39q-77 -38 -116.5 -74t-39.5 -82q0 -42 25.5 -62t64.5 -20q22 0 58 8q32 10 32 -20v-76q0 -24 -20 -33q-55 -20 -111 -20q-84 0 -142 44.5
t-58 127.5q0 78 54 124t159 72q8 2 10.5 7.5t-1 10.5t-12.5 5h-36q-23 0 -33 23l-148 380q-3 11 -14 11h-623q-11 0 -14 -11zM459 584q-4 -15 8 -15h496q12 0 8 15l-103 270q-17 42 -74.5 200t-74.5 199q-3 7 -8.5 7t-8.5 -7q-16 -37 -67.5 -187.5t-77.5 -219.5z" />
    <glyph glyph-name="aogonek" unicode="&#x105;" horiz-adv-x="1167" 
d="M885 -391q-88 0 -148.5 44.5t-60.5 127.5q0 81 60 133.5t167 67.5q7 1 9 5.5t-0.5 8.5t-8.5 4h-6q-14 0 -22.5 8t-8.5 21l-6 145q0 11 -7 12.5t-13 -10.5q-42 -84 -148 -146.5t-256 -62.5t-245 79.5t-95 221.5q0 139 95.5 218t269.5 79h119q147 0 213.5 31.5t66.5 128.5
q0 95 -66.5 158t-213.5 63q-111 0 -187 -40t-98 -126q-9 -26 -33 -26h-112q-14 0 -21 8.5t-4 21.5q31 152 155 229t308 77q209 0 322.5 -96t113.5 -269v-700q0 -23 -23 -35q-83 -39 -126.5 -75t-43.5 -83q0 -42 27.5 -62t69.5 -20q30 0 63 10t33 -22v-74q0 -26 -23 -35
q-53 -20 -116 -20zM270 283q0 -84 52 -130.5t155 -46.5q114 0 204 56t134.5 138t44.5 169v47q0 8 -6 9.5t-10 -5.5q-55 -82 -264 -82h-119q-89 0 -140 -42t-51 -113z" />
    <glyph glyph-name="Cacute" unicode="&#x106;" horiz-adv-x="1437" 
d="M758 -33q-299 0 -480.5 205t-181.5 551q0 345 179.5 544t482.5 199q216 0 362.5 -100t188.5 -264q3 -13 -5 -22t-22 -9h-133q-25 0 -31 25q-28 92 -122.5 151.5t-235.5 59.5q-224 0 -355 -156t-131 -428t134 -434t354 -162q148 0 246.5 74t130.5 198q6 25 32 25h127
q14 0 22 -7.5t7 -19.5q-41 -192 -191 -311t-378 -119zM543 1630q-9 28 16 37l492 195q25 11 36 -17l29 -78q10 -26 -16 -36l-496 -187q-27 -10 -37 17z" />
    <glyph glyph-name="cacute" unicode="&#x107;" horiz-adv-x="1130" 
d="M598 -33q-222 0 -362 156t-140 407q0 252 141 406t367 154q162 0 275.5 -82t152.5 -222q4 -15 -2.5 -23.5t-21.5 -8.5h-111q-24 0 -33 24q-27 75 -95.5 119.5t-164.5 44.5q-154 0 -247 -110.5t-93 -292.5q0 -185 93 -304.5t241 -119.5q100 0 175.5 54.5t100.5 143.5
q6 25 33 25h111q29 0 26 -31q-32 -155 -154.5 -247.5t-291.5 -92.5zM346 1276q-9 28 16 37l494 194q27 12 37 -16l27 -78q10 -27 -17 -37l-493 -186q-28 -11 -37 16z" />
    <glyph glyph-name="Cdotaccent" unicode="&#x10a;" horiz-adv-x="1437" 
d="M758 -33q-299 0 -480.5 205t-181.5 551q0 345 179.5 544t482.5 199q216 0 362.5 -100t188.5 -264q3 -13 -5 -22t-22 -9h-133q-25 0 -31 25q-28 92 -122.5 151.5t-235.5 59.5q-224 0 -355 -156t-131 -428t134 -434t354 -162q148 0 246.5 74t130.5 198q6 25 32 25h127
q14 0 22 -7.5t7 -19.5q-41 -192 -191 -311t-378 -119zM631 1647q0 46 32 78t76 32q45 0 78 -32.5t33 -77.5t-33 -78t-78 -33q-44 0 -76 32.5t-32 78.5z" />
    <glyph glyph-name="cdotaccent" unicode="&#x10b;" horiz-adv-x="1130" 
d="M598 -33q-222 0 -362 156t-140 407q0 252 141 406t367 154q162 0 275.5 -82t152.5 -222q4 -15 -2.5 -23.5t-21.5 -8.5h-111q-24 0 -33 24q-27 75 -95.5 119.5t-164.5 44.5q-154 0 -247 -110.5t-93 -292.5q0 -185 93 -304.5t241 -119.5q100 0 175.5 54.5t100.5 143.5
q6 25 33 25h111q29 0 26 -31q-32 -155 -154.5 -247.5t-291.5 -92.5zM479 1341q0 46 32.5 78.5t76.5 32.5t77 -33t33 -78t-32.5 -77.5t-77.5 -32.5q-44 0 -76.5 32.5t-32.5 77.5z" />
    <glyph glyph-name="Ccaron" unicode="&#x10c;" horiz-adv-x="1437" 
d="M758 -33q-299 0 -480.5 205t-181.5 551q0 345 179.5 544t482.5 199q216 0 362.5 -100t188.5 -264q3 -13 -5 -22t-22 -9h-133q-25 0 -31 25q-28 92 -122.5 151.5t-235.5 59.5q-224 0 -355 -156t-131 -428t134 -434t354 -162q148 0 246.5 74t130.5 198q6 25 32 25h127
q14 0 22 -7.5t7 -19.5q-41 -192 -191 -311t-378 -119zM412 1796q-12 14 -7.5 24.5t23.5 10.5h111q21 0 34 -16l158 -189q3 -4 8.5 -4t8.5 4l157 189q13 16 35 16h111q19 0 23.5 -10.5t-7.5 -24.5l-213 -244q-16 -16 -35 -16h-160q-18 0 -34 16z" />
    <glyph glyph-name="ccaron" unicode="&#x10d;" horiz-adv-x="1130" 
d="M598 -33q-222 0 -362 156t-140 407q0 252 141 406t367 154q162 0 275.5 -82t152.5 -222q4 -15 -2.5 -23.5t-21.5 -8.5h-111q-24 0 -33 24q-27 75 -95.5 119.5t-164.5 44.5q-154 0 -247 -110.5t-93 -292.5q0 -185 93 -304.5t241 -119.5q100 0 175.5 54.5t100.5 143.5
q6 25 33 25h111q29 0 26 -31q-32 -155 -154.5 -247.5t-291.5 -92.5zM260 1442q-12 14 -7.5 24.5t23.5 10.5h111q21 0 35 -17l158 -188q3 -4 8 -4t8 4l158 188q14 17 34 17h111q19 0 23.5 -10.5t-7.5 -24.5l-213 -244q-16 -16 -34 -16h-160q-19 0 -35 16z" />
    <glyph glyph-name="Dcaron" unicode="&#x10e;" horiz-adv-x="1382" 
d="M608 156q243 0 371.5 140.5t128.5 420.5t-129 420.5t-371 140.5h-268q-12 0 -12 -12v-1098q0 -12 12 -12h268zM182 0q-28 0 -28 29v1376q0 29 28 29h426q317 0 497.5 -185t180.5 -532q0 -351 -180.5 -534t-497.5 -183h-426zM393 1796q-12 14 -7 24.5t24 10.5h110
q22 0 35 -16l158 -189q3 -4 8 -4t8 4l158 189q13 16 35 16h110q19 0 24 -10.5t-7 -24.5l-213 -244q-16 -16 -35 -16h-160q-19 0 -35 16z" />
    <glyph glyph-name="dcaron" unicode="&#x10f;" horiz-adv-x="1517" 
d="M567 -37q-203 0 -337 157.5t-134 405.5t134 406t337 158q107 0 193.5 -47.5t140.5 -135.5q5 -8 14 -6.5t9 14.5v523q0 28 28 28h107q28 0 28 -28v-1409q0 -29 -28 -29h-98q-28 0 -31 29l-6 108q0 13 -9 14.5t-14 -6.5q-54 -88 -140.5 -135t-193.5 -47zM262 526
q0 -185 90.5 -300t239.5 -115q146 0 239 106t93 256v107q0 150 -93 256t-239 106q-149 0 -239.5 -115.5t-90.5 -300.5zM1274 868q-30 0 -27 31l66 508q2 12 10 19.5t20 7.5h117q15 0 21.5 -9.5t3.5 -23.5l-123 -508q-6 -25 -33 -25h-55z" />
    <glyph glyph-name="Dcroat" unicode="&#x110;" horiz-adv-x="1429" 
d="M41 784q0 29 29 29h118q13 0 13 12v580q0 29 28 29h426q317 0 497.5 -185t180.5 -532q0 -351 -180.5 -534t-497.5 -183h-426q-28 0 -28 29v649q0 12 -13 12h-118q-29 0 -29 29v65zM375 168q0 -12 12 -12h268q243 0 371.5 140.5t128.5 420.5t-129 420.5t-371 140.5h-268
q-12 0 -12 -12v-441q0 -12 12 -12h387q29 0 29 -29v-65q0 -29 -29 -29h-387q-12 0 -12 -12v-510z" />
    <glyph glyph-name="dcroat" unicode="&#x111;" horiz-adv-x="1314" 
d="M659 1260q0 28 29 28h223q13 0 13 12v138q0 28 28 28h107q28 0 28 -28v-138q0 -12 13 -12h170q28 0 28 -28v-54q0 -28 -28 -28h-170q-13 0 -13 -13v-1136q0 -29 -28 -29h-98q-28 0 -31 29l-6 108q0 13 -9 14.5t-14 -6.5q-54 -88 -140.5 -135t-193.5 -47
q-203 0 -337 157.5t-134 405.5t134 406t337 158q107 0 193.5 -47.5t140.5 -135.5q5 -8 14 -6.5t9 14.5v250q0 13 -13 13h-223q-29 0 -29 28v54zM262 526q0 -185 90.5 -300t239.5 -115q146 0 239 106t93 256v107q0 150 -93 256t-239 106q-149 0 -239.5 -115.5t-90.5 -300.5z
" />
    <glyph glyph-name="Emacron" unicode="&#x112;" horiz-adv-x="1191" 
d="M182 0q-28 0 -28 29v1376q0 29 28 29h903q29 0 29 -29v-98q0 -29 -29 -29h-745q-12 0 -12 -12v-435q0 -12 12 -12h666q28 0 28 -28v-99q0 -28 -28 -28h-666q-12 0 -12 -13v-483q0 -12 12 -12h735q29 0 29 -29v-98q0 -29 -29 -29h-893zM379 1577q-29 0 -29 29v80
q0 28 29 28h514q29 0 29 -28v-80q0 -29 -29 -29h-514z" />
    <glyph glyph-name="emacron" unicode="&#x113;" horiz-adv-x="1165" 
d="M596 -33q-110 0 -201 35t-158 104t-104 177.5t-37 248.5q0 261 136.5 409.5t361.5 148.5q203 0 339 -145t136 -367q0 -19 -2 -48q-3 -28 -29 -28h-766q-12 0 -12 -13q4 -180 97.5 -279t238.5 -99q210 0 276 163q10 23 33 23h105q15 0 22 -8.5t2 -22.5
q-47 -145 -160.5 -222t-277.5 -77zM264 641q-3 -12 10 -12h613q13 0 10 12q-14 141 -95.5 223t-215.5 82q-132 0 -219.5 -79t-102.5 -226zM332 1223q-29 0 -29 28v80q0 29 29 29h514q28 0 28 -29v-80q0 -28 -28 -28h-514z" />
    <glyph glyph-name="Ebreve" unicode="&#x114;" horiz-adv-x="1191" 
d="M182 0q-28 0 -28 29v1376q0 29 28 29h903q29 0 29 -29v-98q0 -29 -29 -29h-745q-12 0 -12 -12v-435q0 -12 12 -12h666q28 0 28 -28v-99q0 -28 -28 -28h-666q-12 0 -12 -13v-483q0 -12 12 -12h735q29 0 29 -29v-98q0 -29 -29 -29h-893zM334 1810q-3 31 28 31h82
q24 0 31 -26q10 -71 53 -108.5t107 -37.5t106 37.5t52 108.5q7 26 30 26h82q14 0 22 -8.5t5 -22.5q-17 -125 -97.5 -199.5t-199.5 -74.5q-124 0 -205 74.5t-96 199.5z" />
    <glyph glyph-name="ebreve" unicode="&#x115;" horiz-adv-x="1165" 
d="M596 -33q-110 0 -201 35t-158 104t-104 177.5t-37 248.5q0 261 136.5 409.5t361.5 148.5q203 0 339 -145t136 -367q0 -19 -2 -48q-3 -28 -29 -28h-766q-12 0 -12 -13q4 -180 97.5 -279t238.5 -99q210 0 276 163q10 23 33 23h105q15 0 22 -8.5t2 -22.5
q-47 -145 -160.5 -222t-277.5 -77zM264 641q-3 -12 10 -12h613q13 0 10 12q-14 141 -95.5 223t-215.5 82q-132 0 -219.5 -79t-102.5 -226zM289 1456q-3 31 28 31h82q24 0 31 -27q10 -71 53 -108t107 -37q66 0 106.5 38t51.5 107q7 27 30 27h82q14 0 22 -8.5t5 -22.5
q-17 -125 -97.5 -199.5t-199.5 -74.5q-123 0 -204.5 74.5t-96.5 199.5z" />
    <glyph glyph-name="Edotaccent" unicode="&#x116;" horiz-adv-x="1191" 
d="M182 0q-28 0 -28 29v1376q0 29 28 29h903q29 0 29 -29v-98q0 -29 -29 -29h-745q-12 0 -12 -12v-435q0 -12 12 -12h666q28 0 28 -28v-99q0 -28 -28 -28h-666q-12 0 -12 -13v-483q0 -12 12 -12h735q29 0 29 -29v-98q0 -29 -29 -29h-893zM526 1647q0 45 32 77.5t77 32.5
t77.5 -32.5t32.5 -77.5t-32.5 -78t-77.5 -33q-44 0 -76.5 32.5t-32.5 78.5z" />
    <glyph glyph-name="edotaccent" unicode="&#x117;" horiz-adv-x="1165" 
d="M596 -33q-110 0 -201 35t-158 104t-104 177.5t-37 248.5q0 261 136.5 409.5t361.5 148.5q203 0 339 -145t136 -367q0 -19 -2 -48q-3 -28 -29 -28h-766q-12 0 -12 -13q4 -180 97.5 -279t238.5 -99q210 0 276 163q10 23 33 23h105q15 0 22 -8.5t2 -22.5
q-47 -145 -160.5 -222t-277.5 -77zM264 641q-3 -12 10 -12h613q13 0 10 12q-14 141 -95.5 223t-215.5 82q-132 0 -219.5 -79t-102.5 -226zM481 1341q0 46 32.5 78.5t76.5 32.5t77 -33t33 -78t-32.5 -77.5t-77.5 -32.5q-44 0 -76.5 32.5t-32.5 77.5z" />
    <glyph glyph-name="Eogonek" unicode="&#x118;" horiz-adv-x="1191" 
d="M182 0q-28 0 -28 29v1376q0 29 28 29h903q29 0 29 -29v-98q0 -29 -29 -29h-745q-12 0 -12 -12v-435q0 -12 12 -12h666q28 0 28 -28v-99q0 -28 -28 -28h-666q-12 0 -12 -13v-483q0 -12 12 -12h735q29 0 29 -29v-104q0 -24 -21 -33q-78 -38 -118.5 -74.5t-40.5 -83.5
q0 -42 25.5 -62t64.5 -20q21 0 57 8q33 10 33 -20v-76q0 -24 -21 -33q-55 -20 -110 -20q-84 0 -142.5 44.5t-58.5 127.5q0 81 57 132.5t156 63.5q8 1 11 6.5t-1 11t-12 5.5h-801z" />
    <glyph glyph-name="eogonek" unicode="&#x119;" horiz-adv-x="1165" 
d="M596 -33q-110 0 -201 35t-158 104t-104 177.5t-37 248.5q0 261 136.5 409.5t361.5 148.5q203 0 339 -145t136 -367q0 -19 -2 -48q-3 -28 -29 -28h-766q-12 0 -12 -13q4 -176 95.5 -277t240.5 -101q210 0 276 163q10 23 33 23h105q15 0 21.5 -9t2.5 -24
q-68 -191 -256 -264q-89 -43 -134.5 -80.5t-45.5 -87.5q0 -42 25.5 -62t64.5 -20q21 0 57 8q33 10 33 -20v-74q0 -27 -22 -35q-50 -20 -111 -20q-83 0 -141 44.5t-58 127.5q0 59 43.5 100t122.5 62q8 2 11 8t-0.5 11t-12.5 5h-14zM262 641q0 -12 12 -12h613q12 0 12 12
q-12 138 -95.5 221.5t-217.5 83.5q-136 0 -223.5 -81.5t-100.5 -223.5z" />
    <glyph glyph-name="Ecaron" unicode="&#x11a;" horiz-adv-x="1191" 
d="M182 0q-28 0 -28 29v1376q0 29 28 29h903q29 0 29 -29v-98q0 -29 -29 -29h-745q-12 0 -12 -12v-435q0 -12 12 -12h666q28 0 28 -28v-99q0 -28 -28 -28h-666q-12 0 -12 -13v-483q0 -12 12 -12h735q29 0 29 -29v-98q0 -29 -29 -29h-893zM307 1796q-12 14 -7 24.5t24 10.5
h110q22 0 35 -16l158 -189q3 -4 8 -4t8 4l158 189q13 16 35 16h110q19 0 24 -10.5t-7 -24.5l-213 -244q-16 -16 -35 -16h-160q-19 0 -35 16z" />
    <glyph glyph-name="ecaron" unicode="&#x11b;" horiz-adv-x="1165" 
d="M596 -33q-110 0 -201 35t-158 104t-104 177.5t-37 248.5q0 261 136.5 409.5t361.5 148.5q203 0 339 -145t136 -367q0 -19 -2 -48q-3 -28 -29 -28h-766q-12 0 -12 -13q4 -180 97.5 -279t238.5 -99q210 0 276 163q10 23 33 23h105q15 0 22 -8.5t2 -22.5
q-47 -145 -160.5 -222t-277.5 -77zM262 1442q-12 14 -7 24.5t24 10.5h110q21 0 35 -17l158 -188q3 -4 8 -4t8 4l158 188q14 17 35 17h110q19 0 24 -10.5t-7 -24.5l-213 -244q-16 -16 -35 -16h-160q-19 0 -35 16zM264 641q-3 -12 10 -12h613q13 0 10 12q-14 141 -95.5 223
t-215.5 82q-132 0 -219.5 -79t-102.5 -226z" />
    <glyph glyph-name="Gbreve" unicode="&#x11e;" horiz-adv-x="1513" 
d="M725 -33q-152 0 -273 59.5t-198 163t-117.5 239.5t-40.5 294q0 345 181.5 544t492.5 199q222 0 369.5 -100t189.5 -264q3 -13 -4.5 -22t-21.5 -9h-134q-24 0 -30 25q-29 93 -125 152t-242 59q-232 0 -366 -156t-134 -426q0 -123 29.5 -229.5t85.5 -189.5t147.5 -131
t206.5 -48q196 0 328 125.5t141 316.5q0 13 -12 13h-436q-29 0 -29 28v99q0 28 29 28h590q28 0 28 -28v-680q0 -29 -28 -29h-107q-12 0 -21 7.5t-10 19.5l-12 182q0 9 -7.5 10.5t-10.5 -4.5q-161 -248 -459 -248zM467 1810q-1 15 7 23t22 8h82q24 0 30 -26q10 -71 53 -108.5
t107 -37.5t106 37.5t52 108.5q6 26 30 26h82q14 0 22 -8.5t5 -22.5q-17 -125 -97.5 -199.5t-199.5 -74.5q-124 0 -205 74.5t-96 199.5z" />
    <glyph glyph-name="gbreve" unicode="&#x11f;" horiz-adv-x="1206" 
d="M590 389q-38 0 -71 5t-48 9t-57 17q-10 3 -17 0q-102 -48 -102 -121q0 -46 39.5 -81.5t109.5 -35.5h369q142 0 222.5 -68t80.5 -188q0 -154 -136 -235.5t-402 -81.5q-240 0 -361 65t-121 179q0 71 43 122t97 74q16 7 0 23q-95 85 -95 176q0 70 43 126t117 81q9 3 9.5 9.5
t-7.5 12.5q-123 101 -123 266q0 137 88.5 228.5t255.5 118.5l576 96q13 3 21.5 -5t8.5 -22v-98q0 -29 -28 -29l-232 8q-11 0 -11.5 -7t9.5 -13q68 -37 108 -112t40 -165q0 -158 -113.5 -256t-312.5 -98zM252 -96q0 -152 330 -152q184 0 276 43.5t92 122.5q0 57 -45 89
t-125 32h-325q-88 0 -145.5 -33t-57.5 -102zM297 1456q-1 15 7 23t22 8h82q23 0 30 -27q10 -71 53 -108t107 -37q66 0 106.5 38t51.5 107q7 27 30 27h82q14 0 22 -8.5t5 -22.5q-17 -125 -97.5 -199.5t-199.5 -74.5q-123 0 -204.5 74.5t-96.5 199.5zM344 745q0 -99 68 -156
t186 -57t186 57t68 156q0 97 -68 154t-186 57t-186 -57t-68 -154z" />
    <glyph glyph-name="Gdotaccent" unicode="&#x120;" horiz-adv-x="1513" 
d="M725 -33q-152 0 -273 59.5t-198 163t-117.5 239.5t-40.5 294q0 345 181.5 544t492.5 199q222 0 369.5 -100t189.5 -264q3 -13 -4.5 -22t-21.5 -9h-134q-24 0 -30 25q-29 93 -125 152t-242 59q-232 0 -366 -156t-134 -426q0 -123 29.5 -229.5t85.5 -189.5t147.5 -131
t206.5 -48q196 0 328 125.5t141 316.5q0 13 -12 13h-436q-29 0 -29 28v99q0 28 29 28h590q28 0 28 -28v-680q0 -29 -28 -29h-107q-12 0 -21 7.5t-10 19.5l-12 182q0 9 -7.5 10.5t-10.5 -4.5q-161 -248 -459 -248zM659 1647q0 45 32.5 77.5t76.5 32.5q45 0 78 -32.5t33 -77.5
t-33 -78t-78 -33q-44 0 -76.5 32.5t-32.5 78.5z" />
    <glyph glyph-name="gdotaccent" unicode="&#x121;" horiz-adv-x="1206" 
d="M590 389q-38 0 -71 5t-48 9t-57 17q-10 3 -17 0q-102 -48 -102 -121q0 -46 39.5 -81.5t109.5 -35.5h369q142 0 222.5 -68t80.5 -188q0 -154 -136 -235.5t-402 -81.5q-240 0 -361 65t-121 179q0 71 43 122t97 74q16 7 0 23q-95 85 -95 176q0 70 43 126t117 81q9 3 9.5 9.5
t-7.5 12.5q-123 101 -123 266q0 137 88.5 228.5t255.5 118.5l576 96q13 3 21.5 -5t8.5 -22v-98q0 -29 -28 -29l-232 8q-11 0 -11.5 -7t9.5 -13q68 -37 108 -112t40 -165q0 -158 -113.5 -256t-312.5 -98zM252 -96q0 -152 330 -152q184 0 276 43.5t92 122.5q0 57 -45 89
t-125 32h-325q-88 0 -145.5 -33t-57.5 -102zM344 745q0 -99 68 -156t186 -57t186 57t68 156q0 97 -68 154t-186 57t-186 -57t-68 -154zM489 1341q0 46 32.5 78.5t76.5 32.5q45 0 78 -33t33 -78t-33 -77.5t-78 -32.5q-44 0 -76.5 32.5t-32.5 77.5z" />
    <glyph glyph-name="uni0122" unicode="&#x122;" horiz-adv-x="1513" 
d="M725 -33q-152 0 -273 59.5t-198 163t-117.5 239.5t-40.5 294q0 345 181.5 544t492.5 199q222 0 369.5 -100t189.5 -264q3 -13 -4.5 -22t-21.5 -9h-134q-24 0 -30 25q-29 93 -125 152t-242 59q-232 0 -366 -156t-134 -426q0 -123 29.5 -229.5t85.5 -189.5t147.5 -131
t206.5 -48q196 0 328 125.5t141 316.5q0 13 -12 13h-436q-29 0 -29 28v99q0 28 29 28h590q28 0 28 -28v-680q0 -29 -28 -29h-107q-12 0 -21 7.5t-10 19.5l-12 182q0 9 -7.5 10.5t-10.5 -4.5q-161 -248 -459 -248zM614 -465q-15 0 -21 9.5t-1 23.5l84 282q6 25 31 25h110
q15 0 22 -10t1 -23l-125 -284q-9 -23 -35 -23h-66z" />
    <glyph glyph-name="uni0123" unicode="&#x123;" horiz-adv-x="1206" 
d="M590 389q-38 0 -71 5t-48 9t-57 17q-10 3 -17 0q-102 -48 -102 -121q0 -46 39.5 -81.5t109.5 -35.5h369q142 0 222.5 -68t80.5 -188q0 -154 -136 -235.5t-402 -81.5q-240 0 -361 65t-121 179q0 71 43 122t97 74q16 7 0 23q-95 85 -95 176q0 70 43 126t117 81q9 3 9.5 9.5
t-7.5 12.5q-123 101 -123 266q0 137 88.5 228.5t255.5 118.5l576 96q13 3 21.5 -5t8.5 -22v-98q0 -29 -28 -29l-232 8q-11 0 -11.5 -7t9.5 -13q68 -37 108 -112t40 -165q0 -158 -113.5 -256t-312.5 -98zM252 -96q0 -152 330 -152q184 0 276 43.5t92 122.5q0 57 -45 89
t-125 32h-325q-88 0 -145.5 -33t-57.5 -102zM344 745q0 -99 68 -156t186 -57t186 57t68 156q0 97 -68 154t-186 57t-186 -57t-68 -154zM592 1182q-15 0 -21.5 9t-1.5 23l84 283q6 25 31 25h111q15 0 21.5 -10t0.5 -23l-125 -285q-8 -22 -35 -22h-65z" />
    <glyph glyph-name="Hbar" unicode="&#x126;" horiz-adv-x="1558" 
d="M41 1186q0 28 29 28h159q13 0 13 13v178q0 29 28 29h117q29 0 29 -29v-178q0 -13 12 -13h727q12 0 12 13v178q0 29 29 29h117q28 0 28 -29v-178q0 -13 13 -13h159q29 0 29 -28v-66q0 -28 -29 -28h-159q-13 0 -13 -13v-1050q0 -29 -28 -29h-117q-29 0 -29 29v604
q0 12 -12 12h-727q-12 0 -12 -12v-604q0 -29 -29 -29h-117q-28 0 -28 29v1050q0 13 -13 13h-159q-29 0 -29 28v66zM416 813q0 -12 12 -12h727q12 0 12 12v266q0 13 -12 13h-727q-12 0 -12 -13v-266z" />
    <glyph glyph-name="hbar" unicode="&#x127;" horiz-adv-x="1226" 
d="M90 1178q-29 0 -29 28v54q0 28 29 28h84q12 0 12 12v138q0 28 29 28h109q28 0 28 -28v-138q0 -12 13 -12h307q28 0 28 -28v-54q0 -28 -28 -28h-307q-13 0 -13 -13v-256q0 -9 8 -10.5t13 6.5q54 89 140.5 137t193.5 48q167 0 271.5 -107.5t104.5 -280.5v-673
q0 -29 -28 -29h-107q-28 0 -28 29v635q0 132 -66 203t-184 71q-147 0 -232.5 -108t-85.5 -285v-516q0 -29 -28 -29h-109q-29 0 -29 29v1136q0 13 -12 13h-84z" />
    <glyph glyph-name="Itilde" unicode="&#x128;" horiz-adv-x="481" 
d="M154 1405q0 29 28 29h117q29 0 29 -29v-1376q0 -29 -29 -29h-117q-28 0 -28 29v1376zM-63 1536q-27 0 -33 27q-14 92 37.5 153.5t142.5 61.5q39 0 70.5 -10t85.5 -39q74 -40 94.5 -48t44.5 -8q31 0 46 20t13 52q-3 31 25 31h78q26 0 32 -27q15 -97 -37 -157t-143 -60
q-35 0 -67.5 11.5t-85.5 39.5q-103 55 -140 55q-32 0 -47.5 -20t-13.5 -51q3 -31 -25 -31h-77z" />
    <glyph glyph-name="itilde" unicode="&#x129;" horiz-adv-x="485" 
d="M160 1028q0 29 28 29h107q29 0 29 -29v-999q0 -29 -29 -29h-107q-28 0 -28 29v999zM-68 1182q-26 0 -32 26q-14 92 37.5 153.5t142.5 61.5q39 0 70.5 -10t85.5 -39q73 -39 93.5 -47t45.5 -8q31 0 46 20t13 52q-3 30 25 30h78q26 0 32 -26q15 -96 -37.5 -156.5
t-142.5 -60.5q-35 0 -67.5 11.5t-85.5 39.5q-103 55 -140 55q-32 0 -47.5 -20.5t-13.5 -51.5q3 -30 -25 -30h-78z" />
    <glyph glyph-name="Imacron" unicode="&#x12a;" horiz-adv-x="481" 
d="M154 1405q0 29 28 29h117q29 0 29 -29v-1376q0 -29 -29 -29h-117q-28 0 -28 29v1376zM-16 1577q-29 0 -29 29v80q0 28 29 28h514q28 0 28 -28v-80q0 -29 -28 -29h-514z" />
    <glyph glyph-name="imacron" unicode="&#x12b;" horiz-adv-x="485" 
d="M160 1028q0 29 28 29h107q29 0 29 -29v-999q0 -29 -29 -29h-107q-28 0 -28 29v999zM-18 1223q-29 0 -29 28v80q0 29 29 29h514q28 0 28 -29v-80q0 -28 -28 -28h-514z" />
    <glyph glyph-name="Iogonek" unicode="&#x12e;" horiz-adv-x="481" 
d="M154 1405q0 29 28 29h117q29 0 29 -29v-1382q0 -21 -19 -37q-102 -78 -102 -164q0 -47 25 -69.5t65 -22.5q19 0 29 2q30 7 30 -23v-59q0 -25 -24 -31q-38 -10 -68 -10q-81 0 -132.5 45t-51.5 127q0 66 42 117.5t122 78.5q9 3 11.5 8.5t-1.5 10t-12 4.5h-60q-28 0 -28 29
v1376z" />
    <glyph glyph-name="iogonek" unicode="&#x12f;" horiz-adv-x="485" 
d="M160 1028q0 29 28 29h107q29 0 29 -29v-1005q0 -21 -19 -37q-102 -78 -102 -164q0 -47 25 -69.5t65 -22.5q19 0 29 2q30 7 30 -23v-59q0 -25 -24 -31q-38 -10 -68 -10q-81 0 -132.5 45t-51.5 127q0 66 42 117.5t122 78.5q9 3 11.5 8.5t-1.5 10t-12 4.5h-50q-28 0 -28 29
v999zM131 1341q0 46 32.5 78.5t76.5 32.5t77 -33t33 -78t-32.5 -77.5t-77.5 -32.5q-44 0 -76.5 32.5t-32.5 77.5z" />
    <glyph glyph-name="Idotaccent" unicode="&#x130;" horiz-adv-x="481" 
d="M154 1405q0 29 28 29h117q29 0 29 -29v-1376q0 -29 -29 -29h-117q-28 0 -28 29v1376zM131 1647q0 45 32.5 77.5t76.5 32.5q45 0 77.5 -32.5t32.5 -77.5t-33 -78t-77 -33t-76.5 32.5t-32.5 78.5z" />
    <glyph glyph-name="dotlessi" unicode="&#x131;" horiz-adv-x="485" 
d="M160 1028q0 29 28 29h107q29 0 29 -29v-999q0 -29 -29 -29h-107q-28 0 -28 29v999z" />
    <glyph glyph-name="IJ" unicode="&#x132;" horiz-adv-x="1591" 
d="M154 1405q0 29 28 29h117q29 0 29 -29v-1376q0 -29 -29 -29h-117q-28 0 -28 29v1376zM567 434v41q0 29 29 29h119q28 0 28 -29v-47q0 -164 68 -233.5t211 -69.5q144 0 205 92t61 279v909q0 29 29 29h113q28 0 28 -29v-930q0 -262 -115 -386t-323 -124q-68 0 -129.5 13
t-122 46.5t-104 85t-70.5 134.5t-27 190z" />
    <glyph glyph-name="ij" unicode="&#x133;" horiz-adv-x="976" 
d="M166 1028q0 29 29 29h106q29 0 29 -29v-999q0 -29 -29 -29h-106q-29 0 -29 29v999zM139 1341q0 45 33 78t76 33t76.5 -33t33.5 -78t-33.5 -77.5t-76.5 -32.5t-76 32.5t-33 77.5zM455 -377q-25 6 -25 31v78q0 14 9 21.5t24 4.5q39 -8 74 -8q57 0 81.5 33t24.5 111v1134
q0 29 29 29h106q29 0 29 -29v-1159q0 -133 -61.5 -196.5t-170.5 -63.5q-60 0 -120 14zM616 1341q0 44 33.5 77.5t77.5 33.5t76.5 -32.5t32.5 -78.5q0 -45 -32 -77.5t-77 -32.5q-44 0 -77.5 33t-33.5 77z" />
    <glyph glyph-name="uni0136" unicode="&#x136;" horiz-adv-x="1341" 
d="M182 0q-28 0 -28 29v1376q0 29 28 29h117q29 0 29 -29l-9 -737q0 -10 7.5 -12t13.5 6q26 35 168.5 202t187.5 217l299 336q14 17 35 17h146q18 0 22 -11t-8 -24l-287 -320q-168 -189 -227 -248q-17 -17 6 -20q88 -12 142.5 -54t101.5 -128l329 -594q8 -15 2.5 -25
t-22.5 -10h-127q-20 0 -33 20l-274 500q-52 95 -108 130.5t-130 35.5q-25 0 -35 -12l-194 -219q-6 -9 -6 -15v-411q0 -29 -29 -29h-117zM518 -465q-15 0 -21 9.5t-1 23.5l84 282q6 25 30 25h111q15 0 21.5 -9.5t0.5 -23.5l-125 -284q-9 -23 -34 -23h-66z" />
    <glyph glyph-name="uni0137" unicode="&#x137;" horiz-adv-x="1083" 
d="M172 0q-29 0 -29 29v1409q0 28 29 28h107q28 0 28 -28v-549q0 -63 -2 -183.5t-2 -175.5q0 -9 5 -10.5t11 6.5q26 32 113 123t135 139l260 254q15 15 35 15h133q19 0 23.5 -10.5t-8.5 -24.5l-168 -166q-19 -18 -114.5 -107.5t-125.5 -119.5q-16 -16 6 -19
q163 -23 246 -200l176 -377q6 -13 0.5 -23t-20.5 -10h-115q-26 0 -35 23l-139 315q-35 79 -83.5 114t-119.5 35h-47q-8 0 -14 -6l-144 -141q-6 -6 -6 -14v-297q0 -29 -28 -29h-107zM389 -465q-15 0 -21 9.5t-1 23.5l84 282q6 25 30 25h111q15 0 21.5 -9.5t0.5 -23.5
l-125 -284q-9 -23 -34 -23h-66z" />
    <glyph glyph-name="Lacute" unicode="&#x139;" horiz-adv-x="1103" 
d="M182 0q-28 0 -28 29v1376q0 29 28 29h117q29 0 29 -29v-1237q0 -12 12 -12h668q28 0 28 -29v-98q0 -29 -28 -29h-826zM135 1630q-9 27 17 37l491 195q26 12 37 -17l29 -78q10 -26 -17 -36l-495 -187q-27 -10 -37 17z" />
    <glyph glyph-name="lacute" unicode="&#x13a;" horiz-adv-x="442" 
d="M139 1438q0 28 29 28h106q29 0 29 -28v-1409q0 -29 -29 -29h-106q-29 0 -29 29v1409zM25 1663q-9 28 16 37l491 194q27 12 37 -16l29 -78q10 -27 -16 -37l-496 -186q-27 -10 -37 16z" />
    <glyph glyph-name="uni013B" unicode="&#x13b;" horiz-adv-x="1103" 
d="M182 0q-28 0 -28 29v1376q0 29 28 29h117q29 0 29 -29v-1237q0 -12 12 -12h668q28 0 28 -29v-98q0 -29 -28 -29h-826zM471 -465q-15 0 -21 9.5t-1 23.5l83 282q6 25 31 25h111q15 0 21.5 -9.5t0.5 -23.5l-125 -284q-9 -23 -34 -23h-66z" />
    <glyph glyph-name="uni013C" unicode="&#x13c;" horiz-adv-x="442" 
d="M139 1438q0 28 29 28h106q29 0 29 -28v-1409q0 -29 -29 -29h-106q-29 0 -29 29v1409zM53 -465q-15 0 -21 9.5t-1 23.5l84 282q6 25 30 25h111q15 0 22 -10t1 -23l-125 -284q-9 -23 -35 -23h-66z" />
    <glyph glyph-name="Lcaron" unicode="&#x13d;" horiz-adv-x="1103" 
d="M182 0q-28 0 -28 29v1376q0 29 28 29h117q29 0 29 -29v-1237q0 -12 12 -12h668q28 0 28 -29v-98q0 -29 -28 -29h-826zM502 864q-30 0 -27 31l66 508q2 12 10 19.5t20 7.5h117q15 0 21.5 -9.5t3.5 -23.5l-123 -508q-6 -25 -33 -25h-55z" />
    <glyph glyph-name="lcaron" unicode="&#x13e;" horiz-adv-x="690" 
d="M139 1438q0 28 29 28h106q29 0 29 -28v-1409q0 -29 -29 -29h-106q-29 0 -29 29v1409zM446 868q-29 0 -26 31l65 508q1 12 10 19.5t21 7.5h117q15 0 21 -9.5t3 -23.5l-122 -508q-6 -25 -33 -25h-56z" />
    <glyph glyph-name="Ldot" unicode="&#x13f;" horiz-adv-x="1179" 
d="M182 0q-28 0 -28 29v1376q0 29 28 29h117q29 0 29 -29v-1237q0 -12 12 -12h668q28 0 28 -29v-98q0 -29 -28 -29h-826zM625 709q0 46 32 78t76 32q45 0 78 -32.5t33 -77.5t-33 -78t-78 -33q-44 0 -76 32.5t-32 78.5z" />
    <glyph glyph-name="ldot" unicode="&#x140;" horiz-adv-x="825" 
d="M139 1438q0 28 29 28h106q29 0 29 -28v-1409q0 -29 -29 -29h-106q-29 0 -29 29v1409zM467 778q0 46 32 78.5t76 32.5q45 0 78 -33t33 -78t-33 -77.5t-78 -32.5q-44 0 -76 32t-32 78z" />
    <glyph glyph-name="Lslash" unicode="&#x141;" horiz-adv-x="1138" 
d="M74 637q-13 -6 -23 0.5t-10 21.5v74q0 26 22 35l115 51q10 7 10 15v571q0 29 29 29h117q28 0 28 -29v-485q0 -6 4.5 -10t10.5 -1l358 162q15 7 24 0.5t9 -22.5v-74q0 -25 -23 -35l-372 -168q-11 -7 -11 -14v-590q0 -12 13 -12h667q29 0 29 -29v-98q0 -29 -29 -29h-825
q-29 0 -29 29v643q0 6 -4 9.5t-10 0.5z" />
    <glyph glyph-name="lslash" unicode="&#x142;" horiz-adv-x="555" 
d="M63 528q-15 -9 -24.5 -2.5t-9.5 23.5v67q0 20 20 33l144 82q8 3 8 14v693q0 28 28 28h107q29 0 29 -28v-594q0 -6 4 -9t10 1l125 71q15 9 25 3t10 -23v-68q0 -19 -21 -33l-145 -84q-8 -3 -8 -14v-659q0 -29 -29 -29h-107q-28 0 -28 29v561q0 6 -4.5 9t-10.5 -1z" />
    <glyph glyph-name="Nacute" unicode="&#x143;" horiz-adv-x="1425" 
d="M326 1176v-1147q0 -29 -29 -29h-115q-28 0 -28 29v1376q0 29 28 29h154q24 0 35 -19l483 -772q23 -37 118.5 -195.5t119.5 -195.5q3 -5 8.5 -4.5t5.5 10.5q0 62 -3 224.5t-3 222.5v700q0 29 28 29h115q29 0 29 -29v-1376q0 -29 -29 -29h-156q-24 0 -34 18l-416 662
q-64 102 -162.5 268.5t-132.5 233.5q-3 7 -9.5 6t-6.5 -12zM555 1630q-9 28 16 37l492 195q26 12 37 -17l28 -78q10 -26 -16 -36l-496 -187q-26 -10 -36 17z" />
    <glyph glyph-name="nacute" unicode="&#x144;" horiz-adv-x="1183" 
d="M172 0q-29 0 -29 29v999q0 29 29 29h100q14 0 22.5 -8t8.5 -21l6 -119q0 -9 8.5 -10.5t12.5 6.5q54 89 140.5 137t193.5 48q167 0 271.5 -107.5t104.5 -280.5v-673q0 -29 -28 -29h-107q-28 0 -28 29v635q0 132 -66 203t-184 71q-147 0 -232.5 -108t-85.5 -285v-516
q0 -29 -28 -29h-109zM350 1276q-9 27 17 37l493 194q27 12 37 -16l27 -78q10 -27 -17 -37l-493 -186q-28 -11 -37 16z" />
    <glyph glyph-name="uni0145" unicode="&#x145;" horiz-adv-x="1425" 
d="M326 1176v-1147q0 -29 -29 -29h-115q-28 0 -28 29v1376q0 29 28 29h154q24 0 35 -19l483 -772q23 -37 118.5 -195.5t119.5 -195.5q3 -5 8.5 -4.5t5.5 10.5q0 62 -3 224.5t-3 222.5v700q0 29 28 29h115q29 0 29 -29v-1376q0 -29 -29 -29h-156q-24 0 -34 18l-416 662
q-64 102 -162.5 268.5t-132.5 233.5q-3 7 -9.5 6t-6.5 -12zM537 -465q-15 0 -21.5 9.5t-1.5 23.5l84 282q6 25 31 25h110q15 0 22 -10t1 -23l-125 -284q-9 -23 -35 -23h-65z" />
    <glyph glyph-name="uni0146" unicode="&#x146;" horiz-adv-x="1183" 
d="M172 0q-29 0 -29 29v999q0 29 29 29h100q14 0 22.5 -8t8.5 -21l6 -119q0 -9 8.5 -10.5t12.5 6.5q54 89 140.5 137t193.5 48q167 0 271.5 -107.5t104.5 -280.5v-673q0 -29 -28 -29h-107q-28 0 -28 29v635q0 132 -66 203t-184 71q-147 0 -232.5 -108t-85.5 -285v-516
q0 -29 -28 -29h-109zM475 -465q-15 0 -21 9.5t-1 23.5l84 282q6 25 30 25h111q15 0 21.5 -9.5t0.5 -23.5l-125 -284q-9 -23 -34 -23h-66z" />
    <glyph glyph-name="Ncaron" unicode="&#x147;" horiz-adv-x="1425" 
d="M326 1176v-1147q0 -29 -29 -29h-115q-28 0 -28 29v1376q0 29 28 29h154q24 0 35 -19l483 -772q23 -37 118.5 -195.5t119.5 -195.5q3 -5 8.5 -4.5t5.5 10.5q0 62 -3 224.5t-3 222.5v700q0 29 28 29h115q29 0 29 -29v-1376q0 -29 -29 -29h-156q-24 0 -34 18l-416 662
q-64 102 -162.5 268.5t-132.5 233.5q-3 7 -9.5 6t-6.5 -12zM424 1796q-12 14 -7.5 24.5t23.5 10.5h111q22 0 35 -16l157 -189q3 -4 8.5 -4t8.5 4l158 189q13 16 34 16h111q19 0 23.5 -10.5t-7.5 -24.5l-213 -244q-16 -16 -35 -16h-159q-19 0 -35 16z" />
    <glyph glyph-name="ncaron" unicode="&#x148;" horiz-adv-x="1183" 
d="M172 0q-29 0 -29 29v999q0 29 29 29h100q14 0 22.5 -8t8.5 -21l6 -119q0 -9 8.5 -10.5t12.5 6.5q54 89 140.5 137t193.5 48q167 0 271.5 -107.5t104.5 -280.5v-673q0 -29 -28 -29h-107q-28 0 -28 29v635q0 132 -66 203t-184 71q-147 0 -232.5 -108t-85.5 -285v-516
q0 -29 -28 -29h-109zM264 1442q-12 14 -7 24.5t24 10.5h110q21 0 35 -17l158 -188q3 -4 8 -4t8 4l158 188q14 17 35 17h110q19 0 24 -10.5t-7 -24.5l-213 -244q-16 -16 -35 -16h-160q-19 0 -35 16z" />
    <glyph glyph-name="Eng" unicode="&#x14a;" horiz-adv-x="1425" 
d="M1272 0q0 -199 -98 -297t-275 -98q-74 0 -143 14q-27 3 -27 31v102q0 14 9 22t22 5q71 -12 123 -12q100 0 152 51.5t55 169.5v12h-3q-24 0 -34 18l-416 662q-64 102 -162.5 268.5t-132.5 233.5q-3 7 -9.5 6t-6.5 -12v-1147q0 -29 -29 -29h-115q-28 0 -28 29v1376
q0 29 28 29h154q24 0 35 -19l483 -772q23 -37 118.5 -195.5t119.5 -195.5q3 -5 8.5 -4.5t5.5 10.5q0 62 -3 224.5t-3 222.5v700q0 29 28 29h115q29 0 29 -29v-1405z" />
    <glyph glyph-name="eng" unicode="&#x14b;" horiz-adv-x="1183" 
d="M811 -393q-52 0 -113 12q-24 6 -24 33v84q0 14 9 21.5t24 4.5q39 -8 73 -8q97 0 97 84v819q0 281 -265 281q-134 0 -218.5 -108.5t-84.5 -284.5v-516q0 -29 -28 -29h-109q-29 0 -29 29v999q0 29 29 29h100q29 0 29 -29l8 -221q0 -9 7 -10t10 8q46 138 136 211.5t216 73.5
q162 0 262 -108t100 -280v-880q0 -104 -60 -159.5t-169 -55.5z" />
    <glyph glyph-name="Omacron" unicode="&#x14c;" horiz-adv-x="1525" 
d="M762 -33q-302 0 -484 206t-182 550q0 338 182 540.5t484 202.5q304 0 486 -202.5t182 -540.5q0 -344 -182 -550t-486 -206zM274 723q0 -272 132.5 -434t355.5 -162t356 162.5t133 433.5q0 266 -133 425t-356 159t-355.5 -159t-132.5 -425zM508 1577q-29 0 -29 29v80
q0 28 29 28h514q29 0 29 -28v-80q0 -29 -29 -29h-514z" />
    <glyph glyph-name="omacron" unicode="&#x14d;" horiz-adv-x="1241" 
d="M621 -33q-150 0 -270 72.5t-187.5 201.5t-67.5 291q0 242 149 400t376 158t375.5 -158t148.5 -400q0 -246 -148.5 -405.5t-375.5 -159.5zM264 532q0 -190 97 -303.5t260 -113.5t259.5 113t96.5 304q0 186 -97 298t-259 112q-163 0 -260 -112t-97 -298zM362 1223
q-28 0 -28 28v80q0 29 28 29h515q28 0 28 -29v-80q0 -28 -28 -28h-515z" />
    <glyph glyph-name="Ohungarumlaut" unicode="&#x150;" horiz-adv-x="1525" 
d="M762 -33q-302 0 -484 206t-182 550q0 338 182 540.5t484 202.5q304 0 486 -202.5t182 -540.5q0 -344 -182 -550t-486 -206zM274 723q0 -272 132.5 -434t355.5 -162t356 162.5t133 433.5q0 266 -133 425t-356 159t-355.5 -159t-132.5 -425zM584 1589q-22 16 -9 41l162 277
q17 27 39 10l96 -70q23 -17 7 -39l-203 -249q-17 -24 -41 -7zM895 1589q-21 15 -8 41l162 277q16 26 38 10l99 -70q23 -17 6 -39l-205 -249q-17 -24 -41 -7z" />
    <glyph glyph-name="ohungarumlaut" unicode="&#x151;" horiz-adv-x="1241" 
d="M621 -33q-150 0 -270 72.5t-187.5 201.5t-67.5 291q0 242 149 400t376 158t375.5 -158t148.5 -400q0 -246 -148.5 -405.5t-375.5 -159.5zM264 532q0 -190 97 -303.5t260 -113.5t259.5 113t96.5 304q0 186 -97 298t-259 112q-163 0 -260 -112t-97 -298zM440 1235
q-21 15 -8 41l162 276q17 27 39 11l96 -70q23 -17 6 -39l-203 -250q-16 -23 -40 -6zM752 1235q-22 16 -9 41l162 276q17 27 39 11l98 -70q23 -17 7 -39l-205 -250q-17 -23 -41 -6z" />
    <glyph glyph-name="OE" unicode="&#x152;" horiz-adv-x="2297" 
d="M762 -33q-302 0 -484 206t-182 550q0 338 182 540.5t484 202.5q190 0 344 -96q75 -47 137 -141q8 -12 12 -8q5 5 5 12v172q0 29 28 29h903q29 0 29 -29v-98q0 -29 -29 -29h-747q-12 0 -12 -12v-435q0 -12 12 -12h667q29 0 29 -28v-99q0 -28 -29 -28h-667q-12 0 -12 -13
v-483q0 -12 12 -12h739q29 0 29 -29v-98q0 -29 -29 -29h-895q-28 0 -28 29v172q0 7 -5 12q-6 3 -12 -6q-61 -87 -96 -113q-164 -127 -385 -127zM274 723q0 -270 137.5 -433t352.5 -163q214 0 351.5 163t137.5 433q0 265 -137.5 424.5t-351.5 159.5q-215 0 -352.5 -159.5
t-137.5 -424.5z" />
    <glyph glyph-name="oe" unicode="&#x153;" horiz-adv-x="2048" 
d="M621 -33q-103 0 -197.5 40t-167.5 111.5t-116.5 179t-43.5 234.5q0 124 43.5 230t116 177t167.5 111t198 40q130 0 241.5 -61.5t179.5 -176.5q11 -17 21 0q68 115 173 176.5t239 61.5q206 0 341.5 -144.5t135.5 -367.5q0 -34 -2 -50q-3 -26 -29 -26h-768q-12 0 -12 -13
q6 -180 100 -279t238 -99q210 0 276 163q10 23 33 23h104q15 0 22 -9t3 -24q-47 -144 -160.5 -220.5t-277.5 -76.5q-141 0 -251 58t-169 178q-10 19 -21 0q-67 -114 -178 -175t-239 -61zM264 532q0 -192 99 -304.5t258 -112.5q160 0 259 112.5t99 304.5q0 188 -99 299
t-259 111q-159 0 -258 -111t-99 -299zM1147 641q-3 -12 10 -12h612q13 0 13 12q-12 138 -95.5 221.5t-218.5 83.5q-132 0 -220 -80t-101 -225z" />
    <glyph glyph-name="Racute" unicode="&#x154;" horiz-adv-x="1300" 
d="M182 0q-28 0 -28 29v1376q0 29 28 29h580q197 0 313.5 -100t116.5 -271q0 -118 -53.5 -213t-143.5 -133q-7 -3 -9.5 -7t0 -8t9.5 -6q51 -17 83.5 -66t49.5 -138l89 -461q3 -13 -5 -22t-22 -9h-119q-12 0 -21 7.5t-10 19.5l-61 356q-20 115 -75.5 156t-176.5 41h-387
q-12 0 -12 -13v-538q0 -29 -29 -29h-117zM328 748q0 -13 12 -13h385q131 0 212 79t81 210q0 122 -75 188t-212 66h-391q-12 0 -12 -12v-518zM451 1630q-9 28 16 37l491 195q26 12 37 -17l29 -78q10 -26 -16 -36l-496 -187q-27 -10 -37 17z" />
    <glyph glyph-name="racute" unicode="&#x155;" horiz-adv-x="790" 
d="M172 0q-29 0 -29 29v999q0 29 29 29h100q29 0 29 -29l6 -174q0 -7 4 -9.5t9 -0.5t8 8q22 45 50.5 80t72 67.5t107.5 51.5t144 22q31 0 31 -29v-90q0 -27 -28 -30q-183 -11 -281 -115q-117 -123 -117 -432v-348q0 -29 -28 -29h-107zM162 1276q-9 28 16 37l494 194
q27 12 37 -16l26 -78q10 -27 -16 -37l-494 -186q-28 -11 -37 16z" />
    <glyph glyph-name="uni0156" unicode="&#x156;" horiz-adv-x="1300" 
d="M182 0q-28 0 -28 29v1376q0 29 28 29h580q197 0 313.5 -100t116.5 -271q0 -118 -53.5 -213t-143.5 -133q-7 -3 -9.5 -7t0 -8t9.5 -6q51 -17 83.5 -66t49.5 -138l89 -461q3 -13 -5 -22t-22 -9h-119q-12 0 -21 7.5t-10 19.5l-61 356q-20 115 -75.5 156t-176.5 41h-387
q-12 0 -12 -13v-538q0 -29 -29 -29h-117zM328 748q0 -13 12 -13h385q131 0 212 79t81 210q0 122 -75 188t-212 66h-391q-12 0 -12 -12v-518zM541 -465q-15 0 -21.5 9.5t-1.5 23.5l84 282q6 25 31 25h110q15 0 22 -10t1 -23l-125 -284q-9 -23 -35 -23h-65z" />
    <glyph glyph-name="uni0157" unicode="&#x157;" horiz-adv-x="790" 
d="M172 0q-29 0 -29 29v999q0 29 29 29h100q29 0 29 -29l6 -174q0 -7 4 -9.5t9 -0.5t8 8q22 45 50.5 80t72 67.5t107.5 51.5t144 22q31 0 31 -29v-90q0 -27 -28 -30q-183 -11 -281 -115q-117 -123 -117 -432v-348q0 -29 -28 -29h-107zM72 -465q-15 0 -21.5 9.5t-1.5 23.5
l84 282q6 25 31 25h110q15 0 22 -10t1 -23l-125 -284q-9 -23 -35 -23h-65z" />
    <glyph glyph-name="Rcaron" unicode="&#x158;" horiz-adv-x="1300" 
d="M182 0q-28 0 -28 29v1376q0 29 28 29h580q197 0 313.5 -100t116.5 -271q0 -118 -53.5 -213t-143.5 -133q-7 -3 -9.5 -7t0 -8t9.5 -6q51 -17 83.5 -66t49.5 -138l89 -461q3 -13 -5 -22t-22 -9h-119q-12 0 -21 7.5t-10 19.5l-61 356q-20 115 -75.5 156t-176.5 41h-387
q-12 0 -12 -13v-538q0 -29 -29 -29h-117zM319 1796q-12 14 -7 24.5t24 10.5h110q22 0 35 -16l158 -189q3 -4 8 -4t8 4l158 189q13 16 35 16h110q19 0 24 -10.5t-7 -24.5l-213 -244q-16 -16 -35 -16h-160q-19 0 -35 16zM328 748q0 -13 12 -13h385q131 0 212 79t81 210
q0 122 -75 188t-212 66h-391q-12 0 -12 -12v-518z" />
    <glyph glyph-name="rcaron" unicode="&#x159;" horiz-adv-x="790" 
d="M172 0q-29 0 -29 29v999q0 29 29 29h100q29 0 29 -29l6 -174q0 -7 4 -9.5t9 -0.5t8 8q22 45 50.5 80t72 67.5t107.5 51.5t144 22q31 0 31 -29v-90q0 -27 -28 -30q-183 -11 -281 -115q-117 -123 -117 -432v-348q0 -29 -28 -29h-107zM76 1442q-12 14 -7.5 24.5t23.5 10.5
h111q21 0 35 -17l157 -188q3 -4 8.5 -4t8.5 4l157 188q14 17 35 17h111q19 0 23.5 -10.5t-7.5 -24.5l-213 -244q-16 -16 -35 -16h-159q-19 0 -35 16z" />
    <glyph glyph-name="Sacute" unicode="&#x15a;" horiz-adv-x="1312" 
d="M674 -33q-236 0 -389 98.5t-187 268.5q-2 14 6 22.5t21 8.5h129q25 0 31 -25q31 -100 133 -156.5t256 -56.5q183 0 283 67.5t100 192.5q0 99 -79.5 154.5t-232.5 89.5l-149 33q-54 12 -91 21.5t-90 28t-89 38t-76 51.5t-63.5 70t-39.5 90.5t-16 115.5q0 177 144.5 280
t390.5 105q218 2 359 -94.5t165 -271.5q3 -14 -5 -22.5t-22 -8.5h-121q-24 0 -30 27q-23 100 -116 155.5t-232 55.5q-163 0 -259 -63t-96 -169q0 -97 83.5 -154.5t236.5 -91.5l147 -32q56 -13 98 -24t92.5 -29.5t86.5 -38.5t72.5 -50.5t59 -66.5t36.5 -84.5t14 -106.5
q0 -196 -152.5 -312t-408.5 -116zM459 1630q-9 28 16 37l492 195q26 12 37 -17l28 -78q10 -26 -16 -36l-496 -187q-27 -10 -37 17z" />
    <glyph glyph-name="sacute" unicode="&#x15b;" horiz-adv-x="1026" 
d="M530 -33q-201 0 -315.5 75.5t-134.5 223.5q-3 15 4.5 23t21.5 8h113q25 0 31 -27q38 -159 282 -159q115 0 187 46.5t72 125.5q0 61 -54.5 104.5t-163.5 63.5l-122 22q-50 9 -84 17.5t-79.5 24t-75.5 37t-58 51.5t-42 73.5t-14 97.5q0 146 108.5 231t297.5 85
q176 0 287.5 -75t136.5 -231q3 -13 -5 -21.5t-22 -8.5h-113q-24 0 -30 26q-35 166 -258 166q-111 0 -174.5 -43t-63.5 -119q0 -120 230 -166l112 -22q45 -9 71 -15.5t68.5 -19.5t68 -27t56.5 -37.5t48.5 -51.5t29.5 -68t12 -88q0 -147 -117.5 -234.5t-310.5 -87.5zM264 1276
q-9 27 17 37l493 194q27 12 37 -16l27 -78q10 -27 -17 -37l-493 -186q-28 -11 -37 16z" />
    <glyph glyph-name="Scedilla" unicode="&#x15e;" horiz-adv-x="1312" 
d="M598 -440q-53 0 -127 18q-25 9 -25 33v37q0 15 9 21.5t24 2.5q43 -12 82 -12q54 0 87.5 22t33.5 66q0 41 -40 59t-101 15q-31 -3 -31 26v23q0 22 22 35q35 17 52 51q3 12 -11 16q-194 19 -318.5 114t-156.5 247q-2 14 6 22.5t21 8.5h129q25 0 31 -25q31 -100 133 -156.5
t256 -56.5q183 0 283 67.5t100 192.5q0 99 -79.5 154.5t-232.5 89.5l-149 33q-54 12 -91 21.5t-90 28t-89 38t-76 51.5t-63.5 70t-39.5 90.5t-16 115.5q0 177 144.5 280t390.5 105q218 2 359 -94.5t165 -271.5q3 -14 -5 -22.5t-22 -8.5h-121q-24 0 -30 27
q-23 100 -116 155.5t-232 55.5q-163 0 -259 -63t-96 -169q0 -97 83.5 -154.5t236.5 -91.5l147 -32q56 -13 98 -24t92.5 -29.5t86.5 -38.5t72.5 -50.5t59 -66.5t36.5 -84.5t14 -106.5q0 -186 -137.5 -300t-372.5 -128q-11 0 -14 -8q-18 -35 -60 -47q-10 -7 -10 -8q6 -2 16 -2
q78 0 128.5 -44t50.5 -106q0 -95 -68 -143.5t-170 -48.5z" />
    <glyph glyph-name="scedilla" unicode="&#x15f;" horiz-adv-x="1026" 
d="M459 -440q-53 0 -127 18q-25 9 -25 33v37q0 15 9 21.5t24 2.5q44 -12 82 -12q54 0 87.5 22t33.5 66q0 40 -40.5 58.5t-101.5 15.5q-30 -3 -30 26v23q0 22 22 35q34 16 51 51q3 13 -10 16q-155 15 -245 89.5t-109 203.5q-3 15 4.5 23t21.5 8h113q25 0 31 -27
q38 -159 282 -159q115 0 187 46.5t72 125.5q0 61 -54.5 104.5t-163.5 63.5l-122 22q-50 9 -84 17.5t-79.5 24t-75.5 37t-58 51.5t-42 73.5t-14 97.5q0 146 108.5 231t297.5 85q176 0 287.5 -75t136.5 -231q3 -13 -5 -21.5t-22 -8.5h-113q-24 0 -30 26q-35 166 -258 166
q-111 0 -174.5 -43t-63.5 -119q0 -120 230 -166l112 -22q45 -9 71 -15.5t68.5 -19.5t68 -27t56.5 -37.5t48.5 -51.5t29.5 -68t12 -88q0 -136 -101 -222t-271 -98q-12 0 -15 -8q-19 -37 -59 -49q-10 -7 -10 -8q6 -2 16 -2q78 0 128 -44t50 -106q0 -95 -67.5 -143.5
t-169.5 -48.5z" />
    <glyph glyph-name="Scaron" unicode="&#x160;" horiz-adv-x="1312" 
d="M674 -33q-236 0 -389 98.5t-187 268.5q-2 14 6 22.5t21 8.5h129q25 0 31 -25q31 -100 133 -156.5t256 -56.5q183 0 283 67.5t100 192.5q0 99 -79.5 154.5t-232.5 89.5l-149 33q-54 12 -91 21.5t-90 28t-89 38t-76 51.5t-63.5 70t-39.5 90.5t-16 115.5q0 177 144.5 280
t390.5 105q218 2 359 -94.5t165 -271.5q3 -14 -5 -22.5t-22 -8.5h-121q-24 0 -30 27q-23 100 -116 155.5t-232 55.5q-163 0 -259 -63t-96 -169q0 -97 83.5 -154.5t236.5 -91.5l147 -32q56 -13 98 -24t92.5 -29.5t86.5 -38.5t72.5 -50.5t59 -66.5t36.5 -84.5t14 -106.5
q0 -196 -152.5 -312t-408.5 -116zM328 1796q-12 14 -7.5 24.5t23.5 10.5h111q21 0 34 -16l158 -189q3 -4 8.5 -4t8.5 4l157 189q13 16 35 16h111q19 0 23.5 -10.5t-7.5 -24.5l-213 -244q-16 -16 -35 -16h-160q-18 0 -34 16z" />
    <glyph glyph-name="scaron" unicode="&#x161;" horiz-adv-x="1026" 
d="M530 -33q-201 0 -315.5 75.5t-134.5 223.5q-3 15 4.5 23t21.5 8h113q25 0 31 -27q38 -159 282 -159q115 0 187 46.5t72 125.5q0 61 -54.5 104.5t-163.5 63.5l-122 22q-50 9 -84 17.5t-79.5 24t-75.5 37t-58 51.5t-42 73.5t-14 97.5q0 146 108.5 231t297.5 85
q176 0 287.5 -75t136.5 -231q3 -13 -5 -21.5t-22 -8.5h-113q-24 0 -30 26q-35 166 -258 166q-111 0 -174.5 -43t-63.5 -119q0 -120 230 -166l112 -22q45 -9 71 -15.5t68.5 -19.5t68 -27t56.5 -37.5t48.5 -51.5t29.5 -68t12 -88q0 -147 -117.5 -234.5t-310.5 -87.5zM178 1442
q-12 14 -7 24.5t24 10.5h110q21 0 35 -17l158 -188q3 -4 8 -4t8 4l158 188q14 17 35 17h110q19 0 24 -10.5t-7 -24.5l-213 -244q-16 -16 -35 -16h-160q-19 0 -35 16z" />
    <glyph glyph-name="uni0162" unicode="&#x162;" horiz-adv-x="1236" 
d="M96 1278q-28 0 -28 29v98q0 29 28 29h1045q28 0 28 -29v-98q0 -29 -28 -29h-422q-12 0 -12 -12v-1237q0 -29 -11 -29q-10 0 -10 -12q-4 -26 -23 -46.5t-47 -31.5q-10 -3 -10 -6q7 -2 17 -2q78 0 128 -44t50 -106q0 -95 -68 -143.5t-170 -48.5q-53 0 -127 18q-24 9 -24 33
v37q0 15 8.5 21.5t23.5 2.5q44 -12 82 -12q54 0 87.5 22t33.5 66q0 41 -40 59t-101 15q-31 -3 -31 26v23q0 22 23 35q53 27 59 84q0 9 -10 12q-12 6 -12 27v1237q0 12 -13 12h-426z" />
    <glyph glyph-name="uni0163" unicode="&#x163;" horiz-adv-x="755" 
d="M88 934q-29 0 -29 29v65q0 29 29 29h135q13 0 13 12v236q0 28 28 28h107q28 0 28 -28v-236q0 -12 13 -12h237q29 0 29 -29v-65q0 -29 -29 -29h-235q-13 0 -13 -12v-639q0 -86 33.5 -123t108.5 -37q45 0 104 12q13 3 22 -4.5t9 -21.5v-72q0 -27 -25 -33q-50 -11 -112 -14
q-10 0 -13 -10q-16 -49 -67 -68q-10 -7 -10 -8q6 -2 16 -2q78 0 128 -44t50 -106q0 -95 -67.5 -143.5t-169.5 -48.5q-53 0 -127 18q-25 9 -25 33v37q0 15 9 21.5t24 2.5q43 -12 82 -12q54 0 87.5 22t33.5 66q0 40 -40.5 58.5t-101.5 15.5q-31 -3 -31 26v23q0 22 23 35
q59 30 59 94q-4 2 -10 4q-82 25 -118.5 87t-36.5 177v654q0 12 -13 12h-135z" />
    <glyph glyph-name="Tcaron" unicode="&#x164;" horiz-adv-x="1236" 
d="M96 1278q-28 0 -28 29v98q0 29 28 29h1045q28 0 28 -29v-98q0 -29 -28 -29h-422q-12 0 -12 -12v-1237q0 -29 -29 -29h-115q-28 0 -28 29v1237q0 12 -13 12h-426zM293 1796q-12 14 -7.5 24.5t23.5 10.5h111q22 0 35 -16l157 -189q3 -4 8.5 -4t8.5 4l157 189q13 16 35 16
h111q19 0 23.5 -10.5t-7.5 -24.5l-213 -244q-16 -16 -35 -16h-159q-19 0 -35 16z" />
    <glyph glyph-name="tcaron" unicode="&#x165;" horiz-adv-x="755" 
d="M88 934q-29 0 -29 29v65q0 29 29 29h135q13 0 13 12v236q0 28 28 28h107q28 0 28 -28v-236q0 -12 13 -12h237q29 0 29 -29v-65q0 -29 -29 -29h-235q-13 0 -13 -12v-639q0 -86 33.5 -123t108.5 -37q45 0 104 12q13 3 22 -4.5t9 -21.5v-72q0 -27 -25 -33q-75 -14 -127 -14
q-156 0 -223 62.5t-67 215.5v654q0 12 -13 12h-135zM516 1135q-14 0 -20.5 8.5t-3.5 21.5l63 365q3 26 31 26h114q15 0 22 -9.5t3 -22.5l-119 -367q-6 -22 -33 -22h-57z" />
    <glyph glyph-name="Tbar" unicode="&#x166;" horiz-adv-x="1236" 
d="M248 666q-29 0 -29 28v66q0 28 29 28h274q13 0 13 13v465q0 12 -13 12h-426q-28 0 -28 29v98q0 29 28 29h1045q28 0 28 -29v-98q0 -29 -28 -29h-422q-12 0 -12 -12v-465q0 -13 12 -13h270q29 0 29 -28v-66q0 -28 -29 -28h-270q-12 0 -12 -13v-624q0 -29 -29 -29h-115
q-28 0 -28 29v624q0 13 -13 13h-274z" />
    <glyph glyph-name="tbar" unicode="&#x167;" horiz-adv-x="755" 
d="M88 504q-29 0 -29 28v54q0 28 29 28h135q13 0 13 13v295q0 12 -13 12h-135q-29 0 -29 29v65q0 29 29 29h135q13 0 13 12v236q0 28 28 28h107q28 0 28 -28v-236q0 -12 13 -12h237q29 0 29 -29v-65q0 -29 -29 -29h-235q-13 0 -13 -12v-295q0 -13 13 -13h235q29 0 29 -28
v-54q0 -28 -29 -28h-235q-13 0 -13 -12v-209q0 -86 33.5 -123t108.5 -37q45 0 104 12q13 3 22 -4.5t9 -21.5v-72q0 -27 -25 -33q-75 -14 -127 -14q-156 0 -223 62.5t-67 215.5v224q0 12 -13 12h-135z" />
    <glyph glyph-name="utilde" unicode="&#x169;" horiz-adv-x="1183" 
d="M1012 1057q28 0 28 -29v-999q0 -29 -28 -29h-101q-30 0 -30 29l-7 118q0 9 -8 11t-12 -6q-54 -89 -140.5 -137t-193.5 -48q-168 0 -272.5 107t-104.5 280v674q0 29 29 29h107q28 0 28 -29v-635q0 -132 66 -203t184 -71q147 0 232 108t85 285v516q0 29 29 29h109z
M287 1182q-27 0 -33 26q-14 92 37.5 153.5t142.5 61.5q39 0 70.5 -10t85.5 -39q73 -39 93.5 -47t45.5 -8q31 0 46 20t13 52q-3 30 25 30h78q27 0 33 -26q15 -96 -38 -156.5t-143 -60.5q-35 0 -67.5 11.5t-85.5 39.5q-103 55 -139 55q-32 0 -48 -20.5t-14 -51.5
q3 -30 -24 -30h-78z" />
    <glyph glyph-name="Umacron" unicode="&#x16a;" horiz-adv-x="1372" 
d="M133 551v854q0 29 29 29h114q29 0 29 -29v-854q0 -200 96.5 -314t284.5 -114t284.5 113.5t96.5 314.5v854q0 29 29 29h114q29 0 29 -29v-854q0 -271 -145 -427.5t-408 -156.5q-261 0 -407 157t-146 427zM432 1577q-29 0 -29 29v80q0 28 29 28h514q29 0 29 -28v-80
q0 -29 -29 -29h-514z" />
    <glyph glyph-name="umacron" unicode="&#x16b;" horiz-adv-x="1183" 
d="M1012 1057q28 0 28 -29v-999q0 -29 -28 -29h-101q-30 0 -30 29l-7 118q0 9 -8 11t-12 -6q-54 -89 -140.5 -137t-193.5 -48q-168 0 -272.5 107t-104.5 280v674q0 29 29 29h107q28 0 28 -29v-635q0 -132 66 -203t184 -71q147 0 232 108t85 285v516q0 29 29 29h109z
M336 1223q-29 0 -29 28v80q0 29 29 29h514q29 0 29 -29v-80q0 -28 -29 -28h-514z" />
    <glyph glyph-name="Uring" unicode="&#x16e;" horiz-adv-x="1372" 
d="M133 551v854q0 29 29 29h114q29 0 29 -29v-854q0 -200 96.5 -314t284.5 -114t284.5 113.5t96.5 314.5v854q0 29 29 29h114q29 0 29 -29v-854q0 -271 -145 -427.5t-408 -156.5q-261 0 -407 157t-146 427zM438 1544q0 103 69 166.5t181 63.5t181 -63.5t69 -166.5t-69 -166
t-181 -63t-181 63t-69 166zM563 1544q0 -49 34.5 -79.5t90.5 -30.5q57 0 92 30.5t35 79.5q0 50 -35 80.5t-92 30.5q-56 0 -90.5 -31t-34.5 -80z" />
    <glyph glyph-name="uring" unicode="&#x16f;" horiz-adv-x="1183" 
d="M1012 1057q28 0 28 -29v-999q0 -29 -28 -29h-101q-30 0 -30 29l-7 118q0 9 -8 11t-12 -6q-54 -89 -140.5 -137t-193.5 -48q-168 0 -272.5 107t-104.5 280v674q0 29 29 29h107q28 0 28 -29v-635q0 -132 66 -203t184 -71q147 0 232 108t85 285v516q0 29 29 29h109z
M344 1413q0 103 69 166t181 63t181 -63t69 -166t-69 -166t-181 -63t-181 63t-69 166zM469 1413q0 -49 34.5 -79.5t90.5 -30.5q57 0 92 30.5t35 79.5q0 50 -35 80.5t-92 30.5q-56 0 -90.5 -31t-34.5 -80z" />
    <glyph glyph-name="Uhungarumlaut" unicode="&#x170;" horiz-adv-x="1372" 
d="M133 551v854q0 29 29 29h114q29 0 29 -29v-854q0 -200 96.5 -314t284.5 -114t284.5 113.5t96.5 314.5v854q0 29 29 29h114q29 0 29 -29v-854q0 -271 -145 -427.5t-408 -156.5q-261 0 -407 157t-146 427zM508 1589q-21 15 -8 41l162 277q16 26 38 10l97 -70q23 -17 6 -39
l-203 -249q-17 -24 -41 -7zM819 1589q-21 15 -8 41l162 277q17 27 39 10l98 -70q23 -17 6 -39l-205 -249q-17 -24 -41 -7z" />
    <glyph glyph-name="uhungarumlaut" unicode="&#x171;" horiz-adv-x="1183" 
d="M1012 1057q28 0 28 -29v-999q0 -29 -28 -29h-101q-30 0 -30 29l-7 118q0 9 -8 11t-12 -6q-54 -89 -140.5 -137t-193.5 -48q-168 0 -272.5 107t-104.5 280v674q0 29 29 29h107q28 0 28 -29v-635q0 -132 66 -203t184 -71q147 0 232 108t85 285v516q0 29 29 29h109z
M414 1235q-21 15 -8 41l161 276q17 27 39 11l96 -70q23 -17 7 -39l-203 -250q-17 -23 -41 -6zM725 1235q-21 15 -8 41l162 276q17 27 39 11l98 -70q23 -17 6 -39l-205 -250q-17 -23 -41 -6z" />
    <glyph glyph-name="Uogonek" unicode="&#x172;" horiz-adv-x="1372" 
d="M133 551v854q0 29 29 29h114q29 0 29 -29v-854q0 -200 96.5 -314t284.5 -114t284.5 113.5t96.5 314.5v854q0 29 29 29h114q29 0 29 -29v-854q0 -211 -88 -353.5t-254 -197.5q-94 -45 -136 -84t-42 -84q0 -42 25.5 -62t64.5 -20q21 0 57 8q33 10 33 -20v-74q0 -27 -22 -35
q-50 -20 -111 -20q-83 0 -141 44.5t-58 127.5q0 59 43.5 101t122.5 63q8 2 11 8t-0.5 11t-12.5 5q-8 0 -23 -1t-22 -1q-261 0 -407 157t-146 427z" />
    <glyph glyph-name="uogonek" unicode="&#x173;" horiz-adv-x="1183" 
d="M909 -391q-84 0 -142 44.5t-58 127.5q0 78 54 124t159 72q8 2 11 7.5t-0.5 10.5t-12.5 5h-9q-30 0 -30 29l-7 118q0 9 -8 11t-12 -6q-54 -89 -140.5 -137t-193.5 -48q-168 0 -272.5 107t-104.5 280v674q0 29 29 29h107q28 0 28 -29v-635q0 -134 66 -204t196 -70
q135 0 220 109t85 284v516q0 29 29 29h109q28 0 28 -29v-1005q0 -24 -20 -33q-79 -38 -119.5 -74.5t-40.5 -83.5q0 -42 25.5 -62t64.5 -20q22 0 58 8q32 10 32 -20v-76q0 -25 -18 -31q-52 -22 -113 -22z" />
    <glyph glyph-name="Wcircumflex" unicode="&#x174;" horiz-adv-x="1957" 
d="M481 0q-24 0 -30 25l-385 1376q-5 14 2 23.5t22 9.5h127q25 0 31 -25l207 -778q16 -62 51 -203.5t45 -177.5q5 -15 12 -15t12 15q9 34 45.5 179.5t51.5 201.5l205 778q6 25 30 25h142q24 0 30 -25l205 -774q11 -42 34.5 -134.5t42 -163.5t23.5 -87q3 -9 7 -13t8.5 -1
t7.5 14q20 75 54.5 210t43.5 171l205 778q6 25 31 25h127q15 0 22 -9.5t2 -23.5l-383 -1376q-6 -25 -30 -25h-158q-25 0 -31 25l-219 819q-11 42 -41 158.5t-39 150.5q-3 11 -7.5 15t-9 0t-7.5 -15q-9 -31 -82 -311l-215 -817q-6 -25 -31 -25h-158zM668 1536q-19 0 -24 11
t7 24l213 244q16 16 35 16h160q19 0 35 -16l213 -244q12 -13 7 -24t-24 -11h-110q-22 0 -35 16l-158 189q-3 5 -8 5t-8 -5l-158 -189q-13 -16 -35 -16h-110z" />
    <glyph glyph-name="wcircumflex" unicode="&#x175;" horiz-adv-x="1630" 
d="M430 0q-23 0 -33 23l-348 1001q-5 15 1.5 24t21.5 9h114q26 0 33 -23l119 -354q121 -366 143 -451q3 -12 12.5 -12t12.5 12q10 39 127 453l100 350q6 25 31 25h104q25 0 31 -25l98 -350q123 -437 127 -453q3 -12 11.5 -12t13.5 12q16 42 67 209.5t76 241.5l119 354
q7 23 33 23h115q32 0 22 -33l-348 -1001q-10 -23 -33 -23h-110q-25 0 -31 25l-232 815q-5 13 -12 12t-10 -12l-234 -815q-6 -25 -30 -25h-111zM508 1182q-19 0 -23.5 11t7.5 24l213 243q17 17 34 17h160q18 0 35 -17l213 -243q12 -13 7 -24t-24 -11h-110q-22 0 -35 16
l-158 188q-3 4 -8 4t-8 -4l-158 -188q-13 -16 -35 -16h-110z" />
    <glyph glyph-name="Ycircumflex" unicode="&#x176;" horiz-adv-x="1323" 
d="M78 1399q-9 13 -3 24t23 11h133q21 0 35 -21l219 -385q151 -268 162 -285q8 -12 14 -12.5t15 12.5q13 21 41 70.5t66.5 117.5t58.5 103l215 379q14 21 35 21h133q17 0 23 -11t-3 -24l-493 -811q-4 -8 -4 -15v-544q0 -29 -29 -29h-115q-29 0 -29 29v544q0 7 -4 15z
M352 1536q-19 0 -23.5 11t7.5 24l213 244q16 16 35 16h159q19 0 35 -16l213 -244q12 -13 7.5 -24t-23.5 -11h-111q-22 0 -35 16l-157 189q-3 5 -8.5 5t-8.5 -5l-157 -189q-13 -16 -35 -16h-111z" />
    <glyph glyph-name="ycircumflex" unicode="&#x177;" horiz-adv-x="1044" 
d="M225 -395q-59 0 -133 18q-24 6 -24 31v82q0 30 32 24q55 -10 88 -10q74 0 116 35t79 127l33 84q5 10 2 16l-369 1012q-5 14 1.5 23.5t21.5 9.5h123q25 0 32 -23l148 -446q117 -359 123 -383q5 -18 14.5 -18t15.5 18q20 59 64 181.5t70 197.5l157 450q10 23 33 23h121
q15 0 21.5 -9.5t0.5 -23.5l-411 -1061q-72 -185 -154.5 -271.5t-204.5 -86.5zM219 1182q-19 0 -23.5 11t7.5 24l213 243q17 17 35 17h159q18 0 35 -17l213 -243q12 -13 7.5 -24t-23.5 -11h-111q-22 0 -35 16l-157 188q-3 4 -8.5 4t-8.5 -4l-157 -188q-13 -16 -35 -16h-111z
" />
    <glyph glyph-name="Ydieresis" unicode="&#x178;" horiz-adv-x="1323" 
d="M78 1399q-9 13 -3 24t23 11h133q21 0 35 -21l219 -385q151 -268 162 -285q8 -12 14 -12.5t15 12.5q13 21 41 70.5t66.5 117.5t58.5 103l215 379q14 21 35 21h133q17 0 23 -11t-3 -24l-493 -811q-4 -8 -4 -15v-544q0 -29 -29 -29h-115q-29 0 -29 29v544q0 7 -4 15z
M383 1647q0 45 32.5 77.5t76.5 32.5q43 0 74.5 -32.5t31.5 -77.5q0 -46 -31.5 -78.5t-74.5 -32.5q-44 0 -76.5 32.5t-32.5 78.5zM729 1647q0 45 32 77.5t75 32.5q44 0 76 -32t32 -78t-32 -78.5t-76 -32.5q-43 0 -75 33t-32 78z" />
    <glyph glyph-name="Zacute" unicode="&#x179;" horiz-adv-x="1236" 
d="M106 0q-28 0 -28 29v106q0 22 12 37l832 1098q6 8 3.5 13t-10.5 5q-7 0 -95 -2.5t-208.5 -5t-205.5 -2.5h-269q-28 0 -28 29v98q0 29 28 29h983q29 0 29 -29v-102q0 -22 -12 -37l-838 -1102q-6 -8 -3.5 -13.5t11.5 -5.5q18 0 157.5 5.5t203.5 5.5h462q29 0 29 -29v-98
q0 -29 -29 -29h-1024zM442 1630q-9 27 17 37l491 195q26 12 37 -17l29 -78q10 -26 -17 -36l-495 -187q-27 -10 -37 17z" />
    <glyph glyph-name="zacute" unicode="&#x17a;" horiz-adv-x="1044" 
d="M125 0q-29 0 -29 29v73q0 21 13 37l628 764q7 6 4.5 14t-12.5 7q-76 -11 -350 -11h-227q-29 0 -29 29v86q0 29 29 29h766q28 0 28 -29v-76q0 -22 -12 -37l-621 -763q-6 -8 -3.5 -15t12.5 -6q88 12 340 12h247q29 0 29 -28v-86q0 -29 -29 -29h-784zM283 1276q-9 28 16 37
l494 194q26 11 36 -16l27 -78q10 -27 -16 -37l-494 -186q-28 -11 -37 16z" />
    <glyph glyph-name="Zdotaccent" unicode="&#x17b;" horiz-adv-x="1236" 
d="M106 0q-28 0 -28 29v106q0 22 12 37l832 1098q6 8 3.5 13t-10.5 5q-7 0 -95 -2.5t-208.5 -5t-205.5 -2.5h-269q-28 0 -28 29v98q0 29 28 29h983q29 0 29 -29v-102q0 -22 -12 -37l-838 -1102q-6 -8 -3.5 -13.5t11.5 -5.5q18 0 157.5 5.5t203.5 5.5h462q29 0 29 -29v-98
q0 -29 -29 -29h-1024zM530 1647q0 45 32 77.5t77 32.5t78 -32.5t33 -77.5t-33 -78t-78 -33q-44 0 -76.5 32.5t-32.5 78.5z" />
    <glyph glyph-name="zdotaccent" unicode="&#x17c;" horiz-adv-x="1044" 
d="M125 0q-29 0 -29 29v73q0 21 13 37l628 764q7 6 4.5 14t-12.5 7q-76 -11 -350 -11h-227q-29 0 -29 29v86q0 29 29 29h766q28 0 28 -29v-76q0 -22 -12 -37l-621 -763q-6 -8 -3.5 -15t12.5 -6q88 12 340 12h247q29 0 29 -28v-86q0 -29 -29 -29h-784zM416 1341q0 46 32 78.5
t76 32.5q45 0 78 -33t33 -78t-33 -77.5t-78 -32.5q-44 0 -76 32t-32 78z" />
    <glyph glyph-name="Zcaron" unicode="&#x17d;" horiz-adv-x="1236" 
d="M106 0q-28 0 -28 29v106q0 22 12 37l832 1098q6 8 3.5 13t-10.5 5q-7 0 -95 -2.5t-208.5 -5t-205.5 -2.5h-269q-28 0 -28 29v98q0 29 28 29h983q29 0 29 -29v-102q0 -22 -12 -37l-838 -1102q-6 -8 -3.5 -13.5t11.5 -5.5q18 0 157.5 5.5t203.5 5.5h462q29 0 29 -29v-98
q0 -29 -29 -29h-1024zM311 1796q-12 14 -7 24.5t24 10.5h110q22 0 35 -16l158 -189q3 -4 8 -4t8 4l158 189q13 16 35 16h110q19 0 24 -10.5t-7 -24.5l-213 -244q-16 -16 -35 -16h-160q-19 0 -35 16z" />
    <glyph glyph-name="zcaron" unicode="&#x17e;" horiz-adv-x="1044" 
d="M125 0q-29 0 -29 29v73q0 21 13 37l628 764q7 6 4.5 14t-12.5 7q-76 -11 -350 -11h-227q-29 0 -29 29v86q0 29 29 29h766q28 0 28 -29v-76q0 -22 -12 -37l-621 -763q-6 -8 -3.5 -15t12.5 -6q88 12 340 12h247q29 0 29 -28v-86q0 -29 -29 -29h-784zM197 1442
q-12 14 -7.5 24.5t23.5 10.5h111q20 0 34 -17l158 -188q3 -4 8 -4t8 4l158 188q14 17 35 17h111q19 0 23.5 -10.5t-7.5 -24.5l-213 -244q-16 -16 -35 -16h-160q-18 0 -34 16z" />
    <glyph glyph-name="florin" unicode="&#x192;" horiz-adv-x="1048" 
d="M78 -283q0 30 31 27q16 -2 49 -2q86 0 134.5 39.5t61.5 132.5l105 743q3 13 -10 13h-203q-29 0 -29 28v66q0 29 29 29h221q5 0 9.5 4t4.5 8l49 356q21 152 109 227.5t229 75.5q24 0 74 -4q27 -3 27 -30v-72q0 -30 -31 -27q-16 2 -49 2q-86 0 -135 -39.5t-62 -132.5
l-49 -356q-3 -12 10 -12h221q29 0 29 -29v-66q0 -28 -29 -28h-239q-5 0 -9.5 -4.5t-4.5 -8.5l-105 -743q-21 -152 -109 -227.5t-229 -75.5q-24 0 -74 4q-26 3 -26 31v71z" />
    <glyph glyph-name="uni01CD" unicode="&#x1cd;" horiz-adv-x="1435" 
d="M246 23q-10 -23 -33 -23h-121q-15 0 -21.5 9.5t-0.5 23.5l532 1378q10 23 33 23h153q24 0 33 -23l545 -1378q6 -13 -1 -23t-22 -10h-122q-23 0 -33 23l-148 380q-3 11 -14 11h-623q-11 0 -14 -11zM391 1796q-12 14 -7 24.5t24 10.5h110q22 0 35 -16l158 -189q3 -4 8 -4
t8 4l158 189q13 16 35 16h110q19 0 24 -10.5t-7 -24.5l-213 -244q-16 -16 -35 -16h-160q-19 0 -35 16zM459 584q-4 -15 8 -15h496q12 0 8 15l-103 270q-17 42 -74.5 200t-74.5 199q-3 7 -8.5 7t-8.5 -7q-16 -37 -67.5 -187.5t-77.5 -219.5z" />
    <glyph glyph-name="uni01CE" unicode="&#x1ce;" horiz-adv-x="1134" 
d="M410 -33q-155 0 -251 79t-96 222q0 139 95.5 218t269.5 79h119q147 0 213.5 31.5t66.5 128.5q0 95 -66.5 158t-213.5 63q-111 0 -187 -40t-98 -126q-9 -26 -33 -26h-112q-14 0 -21 8.5t-4 21.5q31 152 155 229t308 77q209 0 322.5 -96t113.5 -269v-696q0 -29 -28 -29h-99
q-30 0 -30 29l-7 143q0 12 -7 14t-13 -10q-42 -83 -147 -146t-250 -63zM229 1419q-12 13 -7 24t24 11h110q22 0 35 -16l158 -189q3 -5 8 -5t8 5l158 189q13 16 35 16h110q19 0 24 -11t-7 -24l-213 -243q-17 -17 -35 -17h-160q-18 0 -35 17zM238 274q0 -77 52.5 -122.5
t155.5 -45.5q86 0 159.5 32.5t121 85t74 116.5t26.5 129v47q0 8 -5.5 9.5t-10.5 -5.5q-55 -82 -264 -82h-119q-89 0 -139.5 -43.5t-50.5 -120.5z" />
    <glyph glyph-name="uni01E2" unicode="&#x1e2;" 
d="M1221 0q-23 0 -33 23l-148 380q-3 11 -14 11h-623q-11 0 -14 -11l-143 -380q-10 -23 -33 -23h-121q-15 0 -21.5 9.5t-0.5 23.5l532 1378q10 23 33 23h946q29 0 29 -29v-98q0 -29 -29 -29h-692q-11 0 -8 -14l170 -435q3 -10 14 -10h690q29 0 29 -28v-99q0 -28 -29 -28
h-625q-14 0 -8 -15l191 -483q3 -10 14 -10h694q29 0 29 -29v-98q0 -29 -29 -29h-800zM459 584q-4 -15 8 -15h496q12 0 8 15l-103 270q-17 42 -74.5 200t-74.5 199q-3 7 -8.5 7t-8.5 -7q-16 -37 -67.5 -187.5t-77.5 -219.5zM795 1577q-29 0 -29 29v80q0 28 29 28h514
q28 0 28 -28v-80q0 -29 -28 -29h-514z" />
    <glyph glyph-name="uni01E3" unicode="&#x1e3;" horiz-adv-x="1900" 
d="M410 -33q-155 0 -251 79t-96 222q0 139 95.5 218t269.5 79h121q145 0 211.5 31.5t66.5 128.5q0 96 -66 158.5t-214 62.5q-111 0 -187 -40t-98 -126q-9 -26 -33 -26h-112q-14 0 -21 8.5t-4 21.5q31 152 155 229t308 77q253 0 360 -170q7 -12 12.5 -12.5t12.5 10.5
q60 84 163 128t224 44q205 0 341 -144.5t136 -367.5q0 -34 -2 -50q-3 -26 -28 -26h-768q-13 0 -13 -13q6 -180 99.5 -279t238.5 -99q211 0 277 163q10 23 32 23h105q15 0 21.5 -9t2.5 -24q-47 -144 -160.5 -220.5t-277.5 -76.5q-173 0 -304.5 86.5t-164.5 208.5
q-1 5 -3.5 6.5t-5.5 0t-5 -6.5q-43 -126 -158.5 -210.5t-279.5 -84.5zM238 274q0 -77 52.5 -122.5t155.5 -45.5q86 0 159.5 32.5t121 85t74 116.5t26.5 129v47q0 8 -5.5 9.5t-10.5 -5.5q-55 -82 -264 -82h-119q-89 0 -139.5 -43.5t-50.5 -120.5zM690 1223q-28 0 -28 28v80
q0 29 28 29h514q29 0 29 -29v-80q0 -28 -29 -28h-514zM999 641q0 -12 13 -12h610q12 0 12 12q-13 143 -98 224t-215 81q-131 0 -219.5 -77.5t-102.5 -227.5z" />
    <glyph glyph-name="AEacute" unicode="&#x1fc;" 
d="M1221 0q-23 0 -33 23l-148 380q-3 11 -14 11h-623q-11 0 -14 -11l-143 -380q-10 -23 -33 -23h-121q-15 0 -21.5 9.5t-0.5 23.5l532 1378q10 23 33 23h946q29 0 29 -29v-98q0 -29 -29 -29h-692q-11 0 -8 -14l170 -435q3 -10 14 -10h690q29 0 29 -28v-99q0 -28 -29 -28
h-625q-14 0 -8 -15l191 -483q3 -10 14 -10h694q29 0 29 -29v-98q0 -29 -29 -29h-800zM459 584q-4 -15 8 -15h496q12 0 8 15l-103 270q-17 42 -74.5 200t-74.5 199q-3 7 -8.5 7t-8.5 -7q-16 -37 -67.5 -187.5t-77.5 -219.5zM854 1630q-9 28 16 37l492 195q26 12 37 -17
l28 -78q10 -26 -16 -36l-496 -187q-26 -10 -36 17z" />
    <glyph glyph-name="aeacute" unicode="&#x1fd;" horiz-adv-x="1900" 
d="M410 -33q-155 0 -251 79t-96 222q0 139 95.5 218t269.5 79h121q145 0 211.5 31.5t66.5 128.5q0 96 -66 158.5t-214 62.5q-111 0 -187 -40t-98 -126q-9 -26 -33 -26h-112q-14 0 -21 8.5t-4 21.5q31 152 155 229t308 77q253 0 360 -170q7 -12 12.5 -12.5t12.5 10.5
q60 84 163 128t224 44q205 0 341 -144.5t136 -367.5q0 -34 -2 -50q-3 -26 -28 -26h-768q-13 0 -13 -13q6 -180 99.5 -279t238.5 -99q211 0 277 163q10 23 32 23h105q15 0 21.5 -9t2.5 -24q-47 -144 -160.5 -220.5t-277.5 -76.5q-173 0 -304.5 86.5t-164.5 208.5
q-1 5 -3.5 6.5t-5.5 0t-5 -6.5q-43 -126 -158.5 -210.5t-279.5 -84.5zM238 274q0 -77 52.5 -122.5t155.5 -45.5q86 0 159.5 32.5t121 85t74 116.5t26.5 129v47q0 8 -5.5 9.5t-10.5 -5.5q-55 -82 -264 -82h-119q-89 0 -139.5 -43.5t-50.5 -120.5zM707 1276q-9 28 16 37
l494 194q26 11 36 -16l27 -78q10 -27 -16 -37l-494 -186q-28 -11 -37 16zM999 641q0 -12 13 -12h610q12 0 12 12q-13 143 -98 224t-215 81q-131 0 -219.5 -77.5t-102.5 -227.5z" />
    <glyph glyph-name="uni0218" unicode="&#x218;" horiz-adv-x="1312" 
d="M674 -33q-236 0 -389 98.5t-187 268.5q-2 14 6 22.5t21 8.5h129q25 0 31 -25q31 -100 133 -156.5t256 -56.5q183 0 283 67.5t100 192.5q0 99 -79.5 154.5t-232.5 89.5l-149 33q-54 12 -91 21.5t-90 28t-89 38t-76 51.5t-63.5 70t-39.5 90.5t-16 115.5q0 177 144.5 280
t390.5 105q218 2 359 -94.5t165 -271.5q3 -14 -5 -22.5t-22 -8.5h-121q-24 0 -30 27q-23 100 -116 155.5t-232 55.5q-163 0 -259 -63t-96 -169q0 -97 83.5 -154.5t236.5 -91.5l147 -32q56 -13 98 -24t92.5 -29.5t86.5 -38.5t72.5 -50.5t59 -66.5t36.5 -84.5t14 -106.5
q0 -196 -152.5 -312t-408.5 -116zM502 -465q-15 0 -21.5 9.5t-1.5 23.5l84 282q6 25 31 25h111q15 0 21.5 -9.5t0.5 -23.5l-125 -284q-9 -23 -35 -23h-65z" />
    <glyph glyph-name="uni0219" unicode="&#x219;" horiz-adv-x="1026" 
d="M530 -33q-201 0 -315.5 75.5t-134.5 223.5q-3 15 4.5 23t21.5 8h113q25 0 31 -27q38 -159 282 -159q115 0 187 46.5t72 125.5q0 61 -54.5 104.5t-163.5 63.5l-122 22q-50 9 -84 17.5t-79.5 24t-75.5 37t-58 51.5t-42 73.5t-14 97.5q0 146 108.5 231t297.5 85
q176 0 287.5 -75t136.5 -231q3 -13 -5 -21.5t-22 -8.5h-113q-24 0 -30 26q-35 166 -258 166q-111 0 -174.5 -43t-63.5 -119q0 -120 230 -166l112 -22q45 -9 71 -15.5t68.5 -19.5t68 -27t56.5 -37.5t48.5 -51.5t29.5 -68t12 -88q0 -147 -117.5 -234.5t-310.5 -87.5zM362 -465
q-15 0 -21 9.5t-1 23.5l84 282q6 25 31 25h110q15 0 22 -10t1 -23l-125 -284q-9 -23 -35 -23h-66z" />
    <glyph glyph-name="uni021A" unicode="&#x21a;" horiz-adv-x="1236" 
d="M96 1278q-28 0 -28 29v98q0 29 28 29h1045q28 0 28 -29v-98q0 -29 -28 -29h-422q-12 0 -12 -12v-1237q0 -29 -29 -29h-115q-28 0 -28 29v1237q0 12 -13 12h-426zM467 -465q-15 0 -21.5 9.5t-1.5 23.5l84 282q6 25 31 25h111q15 0 21.5 -9.5t0.5 -23.5l-125 -284
q-9 -23 -35 -23h-65z" />
    <glyph glyph-name="uni021B" unicode="&#x21b;" horiz-adv-x="755" 
d="M88 934q-29 0 -29 29v65q0 29 29 29h135q13 0 13 12v236q0 28 28 28h107q28 0 28 -28v-236q0 -12 13 -12h237q29 0 29 -29v-65q0 -29 -29 -29h-235q-13 0 -13 -12v-639q0 -86 33.5 -123t108.5 -37q45 0 104 12q13 3 22 -4.5t9 -21.5v-72q0 -27 -25 -33q-75 -14 -127 -14
q-156 0 -223 62.5t-67 215.5v654q0 12 -13 12h-135zM311 -465q-15 0 -21 9.5t-1 23.5l84 282q6 25 30 25h111q15 0 22 -10t1 -23l-125 -284q-9 -23 -35 -23h-66z" />
    <glyph glyph-name="circumflex" unicode="&#x2c6;" horiz-adv-x="749" 
d="M63 1182q-19 0 -23.5 11t7.5 24l213 243q17 17 35 17h160q17 0 34 -17l213 -243q12 -13 7.5 -24t-23.5 -11h-111q-21 0 -34 16l-158 188q-3 4 -8 4t-8 -4l-158 -188q-13 -16 -35 -16h-111z" />
    <glyph glyph-name="caron" unicode="&#x2c7;" horiz-adv-x="749" 
d="M295 1182q-19 0 -35 16l-213 244q-12 14 -7.5 24.5t23.5 10.5h111q21 0 35 -17l158 -188q3 -4 8 -4t8 4l158 188q14 17 34 17h111q19 0 23.5 -10.5t-7.5 -24.5l-213 -244q-16 -16 -34 -16h-160z" />
    <glyph glyph-name="breve" unicode="&#x2d8;" horiz-adv-x="641" 
d="M322 1182q-123 0 -205 74.5t-97 199.5q-1 15 7 23t22 8h82q24 0 31 -27q10 -71 53 -108t107 -37q66 0 106 38t51 107q7 27 31 27h82q14 0 21.5 -9t4.5 -24q-17 -124 -97 -198t-199 -74z" />
    <glyph glyph-name="dotaccent" unicode="&#x2d9;" horiz-adv-x="251" 
d="M125 1231q-45 0 -77 32.5t-32 77.5q0 46 32.5 78.5t76.5 32.5q45 0 78 -33t33 -78t-33 -77.5t-78 -32.5z" />
    <glyph glyph-name="ring" unicode="&#x2da;" horiz-adv-x="555" 
d="M287 1184q-112 0 -181 63t-69 166t69 166t181 63t181 -63t69 -166t-69 -166t-181 -63zM162 1413q0 -49 34.5 -79.5t90.5 -30.5q57 0 92 30.5t35 79.5q0 50 -35 80.5t-92 30.5q-56 0 -90.5 -31t-34.5 -80z" />
    <glyph glyph-name="ogonek" unicode="&#x2db;" horiz-adv-x="387" 
d="M242 -391q-84 0 -142.5 44.5t-58.5 127.5q0 82 57 136t160 73q3 1 7 3t7 3q8 4 23 4h8q22 0 23.5 -11t-17.5 -22q-116 -65 -116 -135q0 -42 25.5 -62t64.5 -20q21 0 57 8q33 10 33 -20v-76q0 -25 -19 -31q-52 -22 -112 -22z" />
    <glyph glyph-name="tilde" unicode="&#x2dc;" horiz-adv-x="706" 
d="M51 1182q-27 0 -33 26q-13 92 38.5 153.5t142.5 61.5q39 0 70 -10t85 -39q73 -39 94 -47t46 -8q31 0 46 20t13 52q-3 30 25 30h77q27 0 33 -26q15 -96 -37.5 -156.5t-142.5 -60.5q-58 0 -154 51q-103 55 -139 55q-32 0 -47.5 -20.5t-13.5 -51.5q3 -30 -25 -30h-78z" />
    <glyph glyph-name="hungarumlaut" unicode="&#x2dd;" horiz-adv-x="686" 
d="M131 1204q-17 -23 -41 -6l-51 37q-21 15 -8 41l162 276q17 27 38 11l97 -70q23 -17 6 -39zM350 1235q-21 15 -8 41l162 276q17 27 39 11l98 -70q23 -17 6 -39l-205 -250q-17 -23 -41 -6z" />
    <glyph glyph-name="uni02F3" unicode="&#x2f3;" horiz-adv-x="692" 
d="M346 -618q-112 0 -181 63t-69 166t69 166t181 63t181 -63t69 -166t-69 -166t-181 -63zM221 -389q0 -49 34.5 -80t90.5 -31q57 0 92 30.5t35 80.5q0 49 -35 79.5t-92 30.5q-56 0 -90.5 -30.5t-34.5 -79.5z" />
    <glyph glyph-name="gravecomb" unicode="&#x300;" horiz-adv-x="0" 
d="M578 1561q-10 -27 -37 -17l-496 187q-26 10 -16 36l28 78q11 29 37 17l492 -195q25 -9 16 -37z" />
    <glyph glyph-name="acutecomb" unicode="&#x301;" horiz-adv-x="0" 
d="M133 1544q-27 -10 -37 17l-24 69q-9 28 16 37l492 195q25 11 36 -17l29 -78q10 -26 -16 -36z" />
    <glyph glyph-name="uni0302" unicode="&#x302;" horiz-adv-x="0" 
d="M63 1536q-19 0 -23.5 11t7.5 24l213 244q16 16 35 16h160q18 0 34 -16l213 -244q12 -13 7.5 -24t-23.5 -11h-111q-21 0 -34 16l-158 189q-3 5 -8 5t-8 -5l-158 -189q-13 -16 -35 -16h-111z" />
    <glyph glyph-name="tildecomb" unicode="&#x303;" horiz-adv-x="0" 
d="M43 1536q-27 0 -33 27q-14 92 37.5 153.5t142.5 61.5q39 0 70.5 -10t85.5 -39q74 -40 94.5 -48t44.5 -8q31 0 46.5 20t13.5 52q-3 31 24 31h78q27 0 33 -27q15 -97 -37 -157t-143 -60q-58 0 -154 51q-103 55 -139 55q-32 0 -48 -20t-14 -51q3 -31 -24 -31h-78z" />
    <glyph glyph-name="uni0304" unicode="&#x304;" horiz-adv-x="0" 
d="M45 1577q-29 0 -29 29v80q0 28 29 28h514q29 0 29 -28v-80q0 -29 -29 -29h-514z" />
    <glyph glyph-name="uni0306" unicode="&#x306;" horiz-adv-x="0" 
d="M319 1536q-124 0 -205 74.5t-96 199.5q-1 15 7 23t22 8h82q25 0 31 -26q10 -71 52.5 -108.5t106.5 -37.5t106 37.5t52 108.5q7 26 31 26h82q14 0 21.5 -9t4.5 -24q-17 -124 -97.5 -198t-199.5 -74z" />
    <glyph glyph-name="uni0307" unicode="&#x307;" horiz-adv-x="0" 
d="M125 1536q-44 0 -76.5 32.5t-32.5 78.5q0 45 32 77.5t77 32.5t78 -32.5t33 -77.5t-33 -78t-78 -33z" />
    <glyph glyph-name="uni0308" unicode="&#x308;" horiz-adv-x="0" 
d="M125 1536q-44 0 -76.5 32.5t-32.5 78.5q0 45 32 77.5t77 32.5q43 0 74.5 -32.5t31.5 -77.5q0 -46 -31.5 -78.5t-74.5 -32.5zM362 1647q0 45 32 77.5t75 32.5q45 0 77 -32.5t32 -77.5q0 -46 -32.5 -78.5t-76.5 -32.5q-43 0 -75 33t-32 78z" />
    <glyph glyph-name="hookabovecomb" unicode="&#x309;" horiz-adv-x="0" 
d="M166 1573q-5 21 22 35q43 19 43 75q0 40 -30.5 59t-77.5 19q-26 0 -53 -6q-15 -5 -24 1.5t-9 21.5v61q0 27 22 33q50 20 109 20q86 0 141.5 -47.5t55.5 -122.5q0 -72 -46.5 -123.5t-117.5 -60.5q-27 -3 -33 25z" />
    <glyph glyph-name="uni030A" unicode="&#x30a;" horiz-adv-x="0" 
d="M266 1315q-112 0 -181 63t-69 166t69 166.5t181 63.5t181 -63.5t69 -166.5t-69 -166t-181 -63zM141 1544q0 -49 34.5 -79.5t90.5 -30.5q57 0 92 30.5t35 79.5q0 50 -35 80.5t-92 30.5q-56 0 -90.5 -31t-34.5 -80z" />
    <glyph glyph-name="uni030B" unicode="&#x30b;" horiz-adv-x="0" 
d="M131 1559q-17 -24 -41 -7l-51 37q-21 15 -8 41l162 277q16 26 38 10l97 -70q23 -17 6 -39zM350 1589q-21 15 -8 41l162 277q17 27 39 10l98 -70q23 -17 6 -39l-205 -249q-17 -24 -41 -7z" />
    <glyph glyph-name="uni030C" unicode="&#x30c;" horiz-adv-x="0" 
d="M295 1536q-19 0 -35 16l-213 244q-12 14 -7.5 24.5t23.5 10.5h111q22 0 35 -16l158 -189q3 -4 8 -4t8 4l158 189q13 16 34 16h111q19 0 23.5 -10.5t-7.5 -24.5l-213 -244q-16 -16 -34 -16h-160z" />
    <glyph glyph-name="uni0312" unicode="&#x312;" horiz-adv-x="0" 
d="M74 1559q-15 0 -21.5 9t-1.5 23l84 283q6 24 31 24h110q15 0 22 -9.5t1 -22.5l-125 -285q-8 -22 -35 -22h-65z" />
    <glyph glyph-name="dotbelowcomb" unicode="&#x323;" horiz-adv-x="0" 
d="M145 -375q-44 0 -76 32.5t-32 78.5t32 78t76 32q45 0 78 -32.5t33 -77.5t-33 -78t-78 -33z" />
    <glyph glyph-name="uni0326" unicode="&#x326;" horiz-adv-x="0" 
d="M74 -465q-15 0 -21.5 9.5t-1.5 23.5l84 282q6 25 31 25h110q15 0 22 -10t1 -23l-125 -284q-9 -23 -35 -23h-65z" />
    <glyph glyph-name="uni0327" unicode="&#x327;" horiz-adv-x="0" 
d="M309 -440q-53 0 -127 18q-24 9 -24 33v37q0 15 8.5 21.5t23.5 2.5q43 -12 82 -12q54 0 87.5 22t33.5 66q0 41 -40 59t-101 15q-31 -3 -31 26v23q0 22 23 35q59 30 59 94v12q0 29 29 29h71q29 0 29 -29v-12q0 -29 -19.5 -53t-50.5 -35q-10 -7 -10 -8q7 -2 17 -2
q78 0 128 -44t50 -106q0 -95 -68 -143.5t-170 -48.5z" />
    <glyph glyph-name="uni0328" unicode="&#x328;" horiz-adv-x="0" 
d="M242 -391q-84 0 -142.5 44.5t-58.5 127.5q0 82 57 136t160 73q3 1 7 3t7 3q8 4 23 4h8q22 0 23.5 -11t-17.5 -22q-116 -65 -116 -135q0 -42 25.5 -62t64.5 -20q21 0 57 8q33 10 33 -20v-76q0 -25 -19 -31q-52 -22 -112 -22z" />
    <glyph glyph-name="uni0394" unicode="&#x394;" horiz-adv-x="1345" 
d="M111 0q-29 0 -29 29v108q0 17 6 35l475 1239q10 23 33 23h147q23 0 33 -23l481 -1239q7 -21 7 -35v-108q0 -29 -29 -29h-1124zM252 176q-3 -8 0 -14t12 -6h817q9 0 15 6q1 2 -2 12q-73 150 -152 348l-125 328q-70 179 -139 407q-4 11 -10 11q-4 0 -11 -11
q-40 -134 -141 -417l-125 -342q-62 -163 -139 -322z" />
    <glyph glyph-name="uni03A9" unicode="&#x3a9;" horiz-adv-x="1552" 
d="M129 0q-29 0 -29 29v96q0 29 29 29h336q14 0 14 6q0 7 -8 10q-121 70 -203.5 173.5t-119.5 215.5t-37 234q0 197 84.5 352.5t237 242.5t345.5 87q190 0 341 -87t235 -243t84 -354q0 -188 -90 -353t-265 -266q-6 -4 -6 -12q0 -6 13 -6h333q29 0 29 -29v-96q0 -29 -29 -29
h-514q-28 0 -28 29v86q0 24 20 35q173 103 267 279.5t94 365.5q0 232 -135 379t-349 147q-217 0 -355 -147t-138 -377q0 -187 95.5 -364t272.5 -283q21 -12 21 -35v-86q0 -29 -29 -29h-516z" />
    <glyph glyph-name="uni03BC" unicode="&#x3bc;" horiz-adv-x="1247" 
d="M178 -377q-28 0 -28 29v1376q0 29 28 29h109q28 0 28 -29v-571q0 -162 75.5 -250t213.5 -88q134 0 207.5 88t73.5 250v571q0 29 28 29h107q29 0 29 -29v-803q0 -100 86 -100q3 0 10 1t10 1h16q10 1 16.5 -6t6.5 -19v-82q0 -27 -27 -30q-39 -8 -80 -8q-97 0 -149.5 47
t-52.5 135q-2 2 -4 2q-6 0 -9 -10q-25 -78 -112 -134.5t-189 -56.5q-135 0 -241 103q-10 10 -13 6q-4 -4 -4 -13l-14 -409q0 -29 -29 -29h-92z" />
    <glyph glyph-name="pi" unicode="&#x3c0;" horiz-adv-x="1171" 
d="M1090 942q0 -29 -29 -29h-125q-12 0 -12 -12v-663q0 -58 20 -85.5t66 -27.5q15 0 47 4q15 3 24 -4t9 -21v-79q0 -28 -27 -31q-46 -10 -98 -10q-103 0 -154 53.5t-51 165.5v698q0 12 -12 12h-347q-12 0 -12 -12v-872q0 -29 -29 -29h-106q-29 0 -29 29v872q0 12 -12 12
h-123q-29 0 -29 29v86q0 29 29 29h971q29 0 29 -29v-86z" />
    <glyph glyph-name="Wgrave" unicode="&#x1e80;" horiz-adv-x="1957" 
d="M481 0q-24 0 -30 25l-385 1376q-5 14 2 23.5t22 9.5h127q25 0 31 -25l207 -778q16 -62 51 -203.5t45 -177.5q5 -15 12 -15t12 15q9 34 45.5 179.5t51.5 201.5l205 778q6 25 30 25h142q24 0 30 -25l205 -774q11 -42 34.5 -134.5t42 -163.5t23.5 -87q3 -9 7 -13t8.5 -1
t7.5 14q20 75 54.5 210t43.5 171l205 778q6 25 31 25h127q15 0 22 -9.5t2 -23.5l-383 -1376q-6 -25 -30 -25h-158q-25 0 -31 25l-219 819q-11 42 -41 158.5t-39 150.5q-3 11 -7.5 15t-9 0t-7.5 -15q-9 -31 -82 -311l-215 -817q-6 -25 -31 -25h-158zM680 1731q-26 10 -16 36
l28 78q11 29 37 17l492 -195q25 -9 16 -37l-25 -69q-10 -27 -36 -17z" />
    <glyph glyph-name="wgrave" unicode="&#x1e81;" horiz-adv-x="1630" 
d="M430 0q-23 0 -33 23l-348 1001q-5 15 1.5 24t21.5 9h114q26 0 33 -23l119 -354q121 -366 143 -451q3 -12 12.5 -12t12.5 12q10 39 127 453l100 350q6 25 31 25h104q25 0 31 -25l98 -350q123 -437 127 -453q3 -12 11.5 -12t13.5 12q16 42 67 209.5t76 241.5l119 354
q7 23 33 23h115q32 0 22 -33l-348 -1001q-10 -23 -33 -23h-110q-25 0 -31 25l-232 815q-5 13 -12 12t-10 -12l-234 -815q-6 -25 -30 -25h-111zM510 1376q-26 10 -16 37l28 78q10 28 37 16l492 -194q25 -9 16 -37l-25 -70q-10 -26 -36 -16z" />
    <glyph glyph-name="Wacute" unicode="&#x1e82;" horiz-adv-x="1957" 
d="M481 0q-24 0 -30 25l-385 1376q-5 14 2 23.5t22 9.5h127q25 0 31 -25l207 -778q16 -62 51 -203.5t45 -177.5q5 -15 12 -15t12 15q9 34 45.5 179.5t51.5 201.5l205 778q6 25 30 25h142q24 0 30 -25l205 -774q11 -42 34.5 -134.5t42 -163.5t23.5 -87q3 -9 7 -13t8.5 -1
t7.5 14q20 75 54.5 210t43.5 171l205 778q6 25 31 25h127q15 0 22 -9.5t2 -23.5l-383 -1376q-6 -25 -30 -25h-158q-25 0 -31 25l-219 819q-11 42 -41 158.5t-39 150.5q-3 11 -7.5 15t-9 0t-7.5 -15q-9 -31 -82 -311l-215 -817q-6 -25 -31 -25h-158zM782 1630q-9 27 17 37
l491 195q26 12 37 -17l29 -78q10 -26 -17 -36l-495 -187q-27 -10 -37 17z" />
    <glyph glyph-name="wacute" unicode="&#x1e83;" horiz-adv-x="1630" 
d="M430 0q-23 0 -33 23l-348 1001q-5 15 1.5 24t21.5 9h114q26 0 33 -23l119 -354q121 -366 143 -451q3 -12 12.5 -12t12.5 12q10 39 127 453l100 350q6 25 31 25h104q25 0 31 -25l98 -350q123 -437 127 -453q3 -12 11.5 -12t13.5 12q16 42 67 209.5t76 241.5l119 354
q7 23 33 23h115q32 0 22 -33l-348 -1001q-10 -23 -33 -23h-110q-25 0 -31 25l-232 815q-5 13 -12 12t-10 -12l-234 -815q-6 -25 -30 -25h-111zM575 1276q-9 27 17 37l493 194q27 12 37 -16l27 -78q10 -27 -16 -37l-494 -186q-28 -11 -37 16z" />
    <glyph glyph-name="Wdieresis" unicode="&#x1e84;" horiz-adv-x="1957" 
d="M481 0q-24 0 -30 25l-385 1376q-5 14 2 23.5t22 9.5h127q25 0 31 -25l207 -778q16 -62 51 -203.5t45 -177.5q5 -15 12 -15t12 15q9 34 45.5 179.5t51.5 201.5l205 778q6 25 30 25h142q24 0 30 -25l205 -774q11 -42 34.5 -134.5t42 -163.5t23.5 -87q3 -9 7 -13t8.5 -1
t7.5 14q20 75 54.5 210t43.5 171l205 778q6 25 31 25h127q15 0 22 -9.5t2 -23.5l-383 -1376q-6 -25 -30 -25h-158q-25 0 -31 25l-219 819q-11 42 -41 158.5t-39 150.5q-3 11 -7.5 15t-9 0t-7.5 -15q-9 -31 -82 -311l-215 -817q-6 -25 -31 -25h-158zM698 1647q0 45 32 77.5
t77 32.5q43 0 74.5 -32.5t31.5 -77.5q0 -46 -31.5 -78.5t-74.5 -32.5q-44 0 -76.5 32.5t-32.5 78.5zM1044 1647q0 45 32 77.5t75 32.5q45 0 77 -32.5t32 -77.5q0 -46 -32.5 -78.5t-76.5 -32.5q-43 0 -75 33t-32 78z" />
    <glyph glyph-name="wdieresis" unicode="&#x1e85;" horiz-adv-x="1630" 
d="M430 0q-23 0 -33 23l-348 1001q-5 15 1.5 24t21.5 9h114q26 0 33 -23l119 -354q121 -366 143 -451q3 -12 12.5 -12t12.5 12q10 39 127 453l100 350q6 25 31 25h104q25 0 31 -25l98 -350q123 -437 127 -453q3 -12 11.5 -12t13.5 12q16 42 67 209.5t76 241.5l119 354
q7 23 33 23h115q32 0 22 -33l-348 -1001q-10 -23 -33 -23h-110q-25 0 -31 25l-232 815q-5 13 -12 12t-10 -12l-234 -815q-6 -25 -30 -25h-111zM537 1341q0 46 32 78.5t76 32.5q43 0 75 -33t32 -78t-32 -77.5t-75 -32.5q-44 0 -76 32t-32 78zM883 1341q0 46 31.5 78.5
t74.5 32.5q44 0 76.5 -32.5t32.5 -78.5q0 -45 -32 -77.5t-77 -32.5q-43 0 -74.5 32.5t-31.5 77.5z" />
    <glyph glyph-name="uni1E9E" unicode="&#x1e9e;" horiz-adv-x="1288" 
d="M707 -33q-103 0 -211 27q-25 6 -25 31v98q0 32 33 22q99 -24 188 -24q165 0 255.5 74.5t90.5 207.5q0 123 -79.5 185.5t-227.5 62.5h-223q-29 0 -29 29v98q0 29 29 29h180q151 0 231 73.5t80 182.5q0 99 -65 157t-172 58h-424q-12 0 -12 -12v-1237q0 -29 -29 -29h-115
q-28 0 -28 29v1376q0 29 28 29h594q179 0 289.5 -93t110.5 -245q0 -117 -68.5 -204t-149.5 -114q-9 -3 -9 -8.5t9 -7.5q96 -15 175 -116t79 -253q0 -134 -68 -232t-181 -146t-256 -48z" />
    <glyph glyph-name="uni1EBC" unicode="&#x1ebc;" horiz-adv-x="1191" 
d="M182 0q-28 0 -28 29v1376q0 29 28 29h903q29 0 29 -29v-98q0 -29 -29 -29h-745q-12 0 -12 -12v-435q0 -12 12 -12h666q28 0 28 -28v-99q0 -28 -28 -28h-666q-12 0 -12 -13v-483q0 -12 12 -12h735q29 0 29 -29v-98q0 -29 -29 -29h-893zM332 1536q-27 0 -33 27
q-14 92 37.5 153.5t142.5 61.5q39 0 70.5 -10t85.5 -39q74 -40 94.5 -48t44.5 -8q31 0 46.5 20t13.5 52q-3 31 24 31h78q27 0 33 -27q15 -96 -37.5 -156.5t-143.5 -60.5q-35 0 -67.5 11.5t-85.5 39.5q-103 55 -139 55q-32 0 -48 -20t-14 -51q3 -31 -24 -31h-78z" />
    <glyph glyph-name="uni1EBD" unicode="&#x1ebd;" horiz-adv-x="1165" 
d="M596 -33q-110 0 -201 35t-158 104t-104 177.5t-37 248.5q0 261 136.5 409.5t361.5 148.5q203 0 339 -145t136 -367q0 -19 -2 -48q-3 -28 -29 -28h-766q-12 0 -12 -13q4 -180 97.5 -279t238.5 -99q210 0 276 163q10 23 33 23h105q15 0 22 -8.5t2 -22.5
q-47 -145 -160.5 -222t-277.5 -77zM283 1182q-27 0 -33 26q-14 92 37.5 153.5t142.5 61.5q39 0 70.5 -10t85.5 -39q73 -39 93.5 -47t45.5 -8q31 0 46 20t13 52q-3 30 25 30h78q27 0 33 -26q15 -96 -38 -156.5t-143 -60.5q-35 0 -67.5 11.5t-85.5 39.5q-103 55 -140 55
q-32 0 -47.5 -20.5t-13.5 -51.5q3 -30 -25 -30h-77zM264 641q-3 -12 10 -12h613q13 0 10 12q-14 141 -95.5 223t-215.5 82q-132 0 -219.5 -79t-102.5 -226z" />
    <glyph glyph-name="Ygrave" unicode="&#x1ef2;" horiz-adv-x="1323" 
d="M78 1399q-9 13 -3 24t23 11h133q21 0 35 -21l219 -385q151 -268 162 -285q8 -12 14 -12.5t15 12.5q13 21 41 70.5t66.5 117.5t58.5 103l215 379q14 21 35 21h133q17 0 23 -11t-3 -24l-493 -811q-4 -8 -4 -15v-544q0 -29 -29 -29h-115q-29 0 -29 29v544q0 7 -4 15z
M365 1731q-27 10 -17 36l29 78q11 29 37 17l491 -195q26 -10 17 -37l-25 -69q-10 -27 -37 -17z" />
    <glyph glyph-name="ygrave" unicode="&#x1ef3;" horiz-adv-x="1044" 
d="M225 -395q-59 0 -133 18q-24 6 -24 31v82q0 30 32 24q55 -10 88 -10q74 0 116 35t79 127l33 84q5 10 2 16l-369 1012q-5 14 1.5 23.5t21.5 9.5h123q25 0 32 -23l148 -446q117 -359 123 -383q5 -18 14.5 -18t15.5 18q20 59 64 181.5t70 197.5l157 450q10 23 33 23h121
q15 0 21.5 -9.5t0.5 -23.5l-411 -1061q-72 -185 -154.5 -271.5t-204.5 -86.5zM221 1376q-26 10 -16 37l28 78q10 28 37 16l492 -194q25 -9 16 -37l-24 -70q-10 -26 -37 -16z" />
    <glyph glyph-name="uni1EF8" unicode="&#x1ef8;" horiz-adv-x="1323" 
d="M78 1399q-9 13 -3 24t23 11h133q21 0 35 -21l219 -385q151 -268 162 -285q8 -12 14 -12.5t15 12.5q13 21 41 70.5t66.5 117.5t58.5 103l215 379q14 21 35 21h133q17 0 23 -11t-3 -24l-493 -811q-4 -8 -4 -15v-544q0 -29 -29 -29h-115q-29 0 -29 29v544q0 7 -4 15z
M360 1536q-26 0 -32 27q-14 92 37.5 153.5t142.5 61.5q39 0 70.5 -10t85.5 -39q74 -40 94.5 -48t44.5 -8q31 0 46 20t13 52q-3 31 25 31h78q26 0 32 -27q15 -97 -37 -157t-143 -60q-35 0 -67.5 11.5t-85.5 39.5q-103 55 -140 55q-32 0 -47.5 -20t-13.5 -51q3 -31 -25 -31
h-78z" />
    <glyph glyph-name="uni1EF9" unicode="&#x1ef9;" horiz-adv-x="1044" 
d="M225 -395q-59 0 -133 18q-24 6 -24 31v82q0 30 32 24q55 -10 88 -10q74 0 116 35t79 127l33 84q5 10 2 16l-369 1012q-5 14 1.5 23.5t21.5 9.5h123q25 0 32 -23l148 -446q117 -359 123 -383q5 -18 14.5 -18t15.5 18q20 59 64 181.5t70 197.5l157 450q10 23 33 23h121
q15 0 21.5 -9.5t0.5 -23.5l-411 -1061q-72 -185 -154.5 -271.5t-204.5 -86.5zM221 1182q-27 0 -33 26q-13 92 38.5 153.5t142.5 61.5q39 0 70 -10t85 -39q73 -39 94 -47t46 -8q31 0 46 20t13 52q-3 30 25 30h77q27 0 33 -26q15 -96 -37.5 -156.5t-142.5 -60.5q-58 0 -154 51
q-103 55 -139 55q-32 0 -47.5 -20.5t-13.5 -51.5q3 -30 -25 -30h-78z" />
    <glyph glyph-name="endash" unicode="&#x2013;" horiz-adv-x="1087" 
d="M133 504q-29 0 -29 28v91q0 28 29 28h821q29 0 29 -28v-91q0 -28 -29 -28h-821z" />
    <glyph glyph-name="emdash" unicode="&#x2014;" horiz-adv-x="1925" 
d="M133 504q-29 0 -29 28v91q0 28 29 28h1659q29 0 29 -28v-91q0 -28 -29 -28h-1659z" />
    <glyph glyph-name="quoteleft" unicode="&#x2018;" horiz-adv-x="542" 
d="M313 907q-5 -24 -32 -24h-134q-15 0 -22 9t-2 23l168 496q10 23 33 23h73q14 0 22 -9t5 -22z" />
    <glyph glyph-name="quoteright" unicode="&#x2019;" horiz-adv-x="542" 
d="M229 1411q6 25 33 25h133q15 0 22.5 -9.5t2.5 -23.5l-168 -496q-9 -22 -33 -22h-74q-14 0 -21.5 8.5t-4.5 21.5z" />
    <glyph glyph-name="quotesinglbase" unicode="&#x201a;" horiz-adv-x="542" 
d="M229 184q6 25 33 25h133q15 0 22.5 -9.5t2.5 -23.5l-168 -495q-10 -23 -33 -23h-74q-14 0 -21.5 9t-4.5 22z" />
    <glyph glyph-name="quotedblleft" unicode="&#x201c;" horiz-adv-x="890" 
d="M662 907q-5 -24 -33 -24h-133q-15 0 -22 9.5t-3 22.5l168 496q10 23 33 23h73q14 0 22 -9t5 -22zM147 883q-15 0 -22 9t-2 23l168 496q10 23 33 23h73q14 0 22 -9t5 -22l-111 -496q-5 -24 -32 -24h-134z" />
    <glyph glyph-name="quotedblright" unicode="&#x201d;" horiz-adv-x="890" 
d="M229 1411q6 25 33 25h133q15 0 22.5 -9.5t2.5 -23.5l-168 -496q-9 -22 -33 -22h-74q-14 0 -21.5 8.5t-4.5 21.5zM494 885q-14 0 -22 8.5t-5 21.5l111 496q6 25 32 25h133q15 0 22.5 -9.5t2.5 -23.5l-168 -496q-9 -22 -33 -22h-73z" />
    <glyph glyph-name="quotedblbase" unicode="&#x201e;" horiz-adv-x="890" 
d="M229 184q6 25 33 25h133q15 0 22.5 -9.5t2.5 -23.5l-168 -495q-10 -23 -33 -23h-74q-14 0 -21.5 9t-4.5 22zM494 -342q-14 0 -22 9t-5 22l111 495q6 25 32 25h133q15 0 22.5 -9.5t2.5 -23.5l-168 -495q-10 -23 -33 -23h-73z" />
    <glyph glyph-name="dagger" unicode="&#x2020;" horiz-adv-x="1226" 
d="M1128 1032q29 0 29 -28v-99q0 -28 -29 -28h-413q-13 0 -13 -13v-1159q0 -29 -28 -29h-121q-29 0 -29 29v1159q0 13 -12 13h-414q-28 0 -28 28v99q0 28 28 28h414q12 0 12 12v361q0 29 29 29h121q28 0 28 -29v-361q0 -12 13 -12h413z" />
    <glyph glyph-name="daggerdbl" unicode="&#x2021;" horiz-adv-x="1226" 
d="M1157 905q0 -28 -29 -28h-413q-13 0 -13 -13v-618q0 -13 13 -13h413q29 0 29 -28v-99q0 -28 -29 -28h-413q-13 0 -13 -12v-361q0 -29 -28 -29h-121q-29 0 -29 29v361q0 12 -12 12h-414q-28 0 -28 28v99q0 28 28 28h414q12 0 12 13v618q0 13 -12 13h-414q-28 0 -28 28v99
q0 28 28 28h414q12 0 12 12v361q0 29 29 29h121q28 0 28 -29v-361q0 -12 13 -12h413q29 0 29 -28v-99z" />
    <glyph glyph-name="bullet" unicode="&#x2022;" horiz-adv-x="688" 
d="M330 393q-77 0 -131 55.5t-54 139.5q0 79 54 133.5t131 54.5q86 0 143 -54t57 -134q0 -85 -57 -140t-143 -55z" />
    <glyph glyph-name="ellipsis" unicode="&#x2026;" horiz-adv-x="1347" 
d="M227 -31q-48 0 -81 34.5t-33 86.5q0 49 33.5 83t80.5 34q54 0 89.5 -33.5t35.5 -83.5q0 -53 -36 -87t-89 -34zM584 90q0 49 33.5 83t80.5 34q54 0 89.5 -33.5t35.5 -83.5q0 -53 -36 -87t-89 -34q-48 0 -81 34.5t-33 86.5zM1032 90q0 49 33.5 83t81.5 34q54 0 89.5 -33.5
t35.5 -83.5q0 -53 -36 -87t-89 -34q-48 0 -81.5 34.5t-33.5 86.5z" />
    <glyph glyph-name="perthousand" unicode="&#x2030;" horiz-adv-x="2648" 
d="M510 0q-17 0 -23 11t2 24l738 1378q9 21 33 21h96q17 0 22.5 -11t-2.5 -24l-737 -1379q-9 -20 -33 -20h-96zM70 1028q0 198 85.5 315t258.5 117q174 0 259 -116.5t85 -315.5q0 -95 -20.5 -172t-61.5 -135.5t-107.5 -90.5t-154.5 -32q-169 0 -256.5 118t-87.5 312z
M227 1028q0 -301 187 -301q186 0 186 301q0 303 -186 303q-187 0 -187 -303zM1120 406q0 198 85.5 315t258.5 117q174 0 259 -116.5t85 -315.5q0 -128 -35 -222.5t-114 -151.5t-195 -57q-169 0 -256.5 118.5t-87.5 312.5zM1278 406q0 -302 186 -302q187 0 187 302
q0 303 -187 303q-186 0 -186 -303zM1890 422q0 198 85.5 315t258.5 117q174 0 259 -116.5t85 -315.5q0 -95 -20.5 -172t-61.5 -135.5t-107.5 -90.5t-154.5 -32q-169 0 -256.5 118t-87.5 312zM2048 422q0 -301 186 -301q187 0 187 301q0 303 -187 303q-186 0 -186 -303z" />
    <glyph glyph-name="guilsinglleft" unicode="&#x2039;" horiz-adv-x="675" 
d="M260 539q-14 -11 0 -21l246 -168q18 -12 18 -35v-122q0 -17 -11 -23t-24 4l-321 246q-16 11 -16 35v145q0 24 16 35l321 246q13 10 24 4t11 -23v-123q0 -22 -18 -34z" />
    <glyph glyph-name="guilsinglright" unicode="&#x203a;" horiz-adv-x="638" 
d="M416 539l-246 166q-18 12 -18 34v123q0 17 10 23t24 -4l322 -246q16 -11 16 -35v-145q0 -24 -16 -35l-322 -246q-14 -10 -24 -4t-10 23v122q0 23 18 35l246 168q16 10 0 21z" />
    <glyph glyph-name="uni203D" unicode="&#x203d;" horiz-adv-x="1052" 
d="M469 375q-29 0 -29 28q-6 252 -6 265v430q0 28 29 28h104q29 0 29 -28l-2 -363q0 -12 4 -12q4 4 6 10q19 39 39 66t68 80q43 48 64.5 96t21.5 110q0 112 -69 171t-189 59q-138 0 -209.5 -70t-83.5 -229q-3 -29 -31 -29h-111q-28 0 -28 29q10 230 131.5 341t327.5 111
q194 0 314 -100t120 -281q0 -103 -48.5 -186.5t-152.5 -175.5q-104 -90 -133 -147.5t-35 -174.5q-3 -28 -31 -28h-100zM416 88q0 49 33.5 83t80.5 34q54 0 89.5 -33.5t35.5 -83.5q0 -53 -36 -87t-89 -34q-48 0 -81 34.5t-33 86.5z" />
    <glyph glyph-name="fraction" unicode="&#x2044;" horiz-adv-x="653" 
d="M-94 0q-17 0 -23 11t2 24l738 1378q9 21 32 21h93q17 0 22.5 -11t-2.5 -24l-737 -1379q-9 -20 -33 -20h-92z" />
    <glyph glyph-name="uni2070" unicode="&#x2070;" horiz-adv-x="827" 
d="M414 1065q-158 0 -251 111t-93 329q0 220 93 331.5t251 111.5q160 0 252 -111.5t92 -331.5q0 -219 -92 -329.5t-252 -110.5zM227 1505q0 -71 9 -124.5t29.5 -96.5t57.5 -65.5t91 -22.5q103 0 144.5 80.5t41.5 228.5q0 71 -8.5 124.5t-29 97.5t-58 67t-90.5 23
q-103 0 -145 -82.5t-42 -229.5z" />
    <glyph glyph-name="uni2074" unicode="&#x2074;" horiz-adv-x="813" 
d="M514 1090q-29 0 -29 28v170q0 12 -12 12h-385q-29 0 -29 29v94q0 19 13 35l395 461q16 16 35 16h110q29 0 29 -28v-465q0 -12 12 -12h72q29 0 29 -29v-72q0 -29 -29 -29h-72q-12 0 -12 -12v-170q0 -28 -29 -28h-98zM215 1444q-4 -6 -2 -10t10 -4h256q13 0 13 12v327
q0 13 -3 13q-5 0 -8 -8q-41 -71 -166 -215z" />
    <glyph glyph-name="uni2075" unicode="&#x2075;" horiz-adv-x="778" 
d="M190 1319q22 0 31 -25q33 -104 172 -104q76 0 123 47.5t47 126.5q0 72 -46 122t-122 50q-103 0 -153 -78q-14 -24 -37 -18l-90 18q-12 3 -18.5 13t-4.5 22l72 412q3 26 31 26h428q28 0 28 -28v-72q0 -29 -28 -29h-328q-11 0 -14 -10l-37 -227q-4 -11 2 -11q4 3 10 11
q30 42 79 66t107 24q107 0 187 -76.5t80 -214.5q0 -130 -87.5 -213.5t-228.5 -83.5q-120 0 -211 58.5t-108 162.5q-3 15 4.5 23t21.5 8h90z" />
    <glyph glyph-name="uni2076" unicode="&#x2076;" horiz-adv-x="806" 
d="M227 1505q2 0 9 11q54 137 215 137q118 0 202 -81.5t84 -205.5q0 -144 -89 -223.5t-224 -79.5q-174 0 -259 115.5t-85 322.5q0 201 90 324t256 123q102 0 183 -53t110 -142q4 -15 -3 -24t-22 -9h-92q-24 0 -33 25q-31 80 -143 80q-99 0 -149 -71t-54 -236q0 -13 4 -13z
M250 1346q0 -66 47.5 -113t126.5 -47q80 0 124 48t44 112q0 81 -48 130.5t-120 49.5q-75 0 -124.5 -49t-49.5 -131z" />
    <glyph glyph-name="uni2077" unicode="&#x2077;" horiz-adv-x="710" 
d="M545 1804q0 2 -13 2h-444q-29 0 -29 29v72q0 28 29 28h535q28 0 28 -28v-82q0 -21 -14 -35q-64 -64 -109 -122.5t-84.5 -138.5t-61.5 -182t-26 -229q0 -28 -28 -28h-105q-28 0 -28 30q5 106 28.5 201.5t57.5 165.5t79.5 132t88 102t88.5 73q8 5 8 10z" />
    <glyph glyph-name="uni2078" unicode="&#x2078;" horiz-adv-x="798" 
d="M399 1067q-152 0 -240.5 68t-88.5 182q0 77 42 131t113 78q11 7 11 8q0 2 -11 6q-53 14 -84.5 62.5t-31.5 117.5q0 106 78.5 169t211.5 63t211 -61.5t78 -166.5q0 -70 -33 -120t-86 -64q-10 -3 -10 -6q0 -1 10 -8q73 -24 116.5 -78t43.5 -131q0 -113 -90 -181.5
t-240 -68.5zM219 1335q0 -70 50.5 -108.5t129.5 -38.5q85 0 135.5 40.5t47.5 106.5q-3 70 -52 107t-131 37q-85 0 -132.5 -38t-47.5 -106zM246 1714q0 -61 43 -97t110 -36q66 0 110 35.5t44 97.5q0 60 -43 92.5t-111 32.5t-110.5 -32.5t-42.5 -92.5z" />
    <glyph glyph-name="uni2079" unicode="&#x2079;" horiz-adv-x="806" 
d="M580 1507q-2 0 -9 -10q-54 -137 -215 -137q-118 0 -202 80.5t-84 204.5q0 144 89 223.5t224 79.5q174 0 259 -115.5t85 -321.5q0 -202 -90 -325t-256 -123q-102 0 -183 52.5t-110 141.5q-4 15 3 24t22 9h92q24 0 33 -24q31 -80 143 -80q98 0 148.5 71.5t54.5 237.5
q0 12 -4 12zM215 1665q0 -81 48 -129.5t120 -48.5q75 0 124.5 48.5t49.5 129.5q0 66 -47.5 113t-126.5 47q-80 0 -124 -48t-44 -112z" />
    <glyph glyph-name="uni2080" unicode="&#x2080;" horiz-adv-x="827" 
d="M414 -422q-158 0 -251 111t-93 329q0 220 93 331.5t251 111.5q160 0 252 -111.5t92 -331.5q0 -219 -92 -329.5t-252 -110.5zM227 18q0 -71 9 -124.5t29.5 -96.5t57.5 -65.5t91 -22.5q103 0 144.5 80.5t41.5 228.5q0 71 -8.5 124.5t-29 97.5t-58 67t-90.5 23
q-103 0 -145 -82.5t-42 -229.5z" />
    <glyph glyph-name="uni2081" unicode="&#x2081;" horiz-adv-x="505" 
d="M268 248q-5 0 -10 -8q-60 -69 -170 -78q-29 0 -29 28v91q0 27 29 30q61 6 112 34t79 71q11 20 32 20h86q29 0 29 -28v-789q0 -29 -29 -29h-98q-29 0 -29 29v614q0 15 -2 15z" />
    <glyph glyph-name="uni2082" unicode="&#x2082;" horiz-adv-x="739" 
d="M49 -299q0 21 19 37q259 196 325 254q105 93 123 164q6 22 6 45q0 60 -41 92.5t-116 32.5q-59 0 -98 -24.5t-52 -70.5q-9 -24 -33 -24h-90q-14 0 -21.5 9t-4.5 22q20 103 99 161t200 58q141 0 223 -71t82 -193q0 -60 -24 -113t-82.5 -111t-124 -108.5t-181.5 -130.5
q-6 -4 -6 -11q4 -2 12 -2q72 4 197 4h190q29 0 29 -28v-74q0 -29 -29 -29h-573q-29 0 -29 29v82z" />
    <glyph glyph-name="uni2083" unicode="&#x2083;" horiz-adv-x="768" 
d="M381 -422q-131 0 -223 65t-109 179q-1 15 7 23t22 8h90q25 0 31 -27q22 -123 186 -123q70 0 118 36.5t48 104.5q0 138 -172 138h-35q-29 0 -29 28v58q0 28 29 28h29q162 0 162 125q0 57 -39.5 88t-114.5 31q-133 0 -152 -102q-7 -27 -30 -27h-95q-14 0 -21.5 8t-4.5 23
q18 112 99 166.5t202 54.5q83 0 148.5 -21t110 -74.5t44.5 -134.5q0 -71 -43.5 -118.5t-118.5 -65.5q-10 -3 -10 -4q0 -3 12 -6q88 -10 134 -64t46 -141q0 -115 -93.5 -185.5t-227.5 -70.5z" />
    <glyph glyph-name="uni2084" unicode="&#x2084;" horiz-adv-x="813" 
d="M514 -410q-29 0 -29 29v170q0 12 -12 12h-385q-29 0 -29 29v94q0 19 13 35l395 461q16 16 35 16h110q29 0 29 -28v-465q0 -13 12 -13h72q29 0 29 -28v-72q0 -29 -29 -29h-72q-12 0 -12 -12v-170q0 -29 -29 -29h-98zM215 -55q-4 -6 -2 -10.5t10 -4.5h256q13 0 13 13v327
q0 13 -3 13q-5 0 -8 -9q-41 -71 -166 -215z" />
    <glyph glyph-name="uni2085" unicode="&#x2085;" horiz-adv-x="778" 
d="M190 -172q22 0 31 -25q33 -104 172 -104q76 0 123 47.5t47 126.5q0 72 -46 122t-122 50q-103 0 -153 -78q-14 -24 -37 -18l-90 18q-12 3 -18.5 13t-4.5 22l72 412q3 26 31 26h428q28 0 28 -28v-72q0 -29 -28 -29h-328q-11 0 -14 -10l-37 -227q-4 -11 2 -11q4 3 10 11
q30 42 79 66t107 24q107 0 187 -76.5t80 -214.5q0 -130 -87.5 -213.5t-228.5 -83.5q-120 0 -211 58.5t-108 162.5q-3 15 4.5 23t21.5 8h90z" />
    <glyph glyph-name="uni2086" unicode="&#x2086;" horiz-adv-x="806" 
d="M227 16q2 0 9 11q54 137 215 137q118 0 202 -81.5t84 -205.5q0 -144 -89 -223.5t-224 -79.5q-174 0 -259 115.5t-85 322.5q0 201 90 324t256 123q102 0 183 -53t110 -142q4 -15 -3 -24t-22 -9h-92q-24 0 -33 25q-31 80 -143 80q-99 0 -149 -71t-54 -236q0 -13 4 -13z
M250 -143q0 -66 47.5 -113t126.5 -47q80 0 124 48t44 112q0 81 -48 130.5t-120 49.5q-75 0 -124.5 -49t-49.5 -131z" />
    <glyph glyph-name="uni2087" unicode="&#x2087;" horiz-adv-x="710" 
d="M545 305q0 2 -13 2h-444q-29 0 -29 29v72q0 28 29 28h535q28 0 28 -28v-82q0 -21 -14 -35q-64 -64 -109 -122.5t-84.5 -138.5t-61.5 -182t-26 -229q0 -29 -28 -29h-105q-28 0 -28 31q5 106 28.5 201.5t57.5 165.5t79.5 132t88 102t88.5 73q8 5 8 10z" />
    <glyph glyph-name="uni2088" unicode="&#x2088;" horiz-adv-x="798" 
d="M399 -422q-152 0 -240.5 68t-88.5 182q0 77 42 131t113 78q11 7 11 8q0 2 -11 6q-53 14 -84.5 62.5t-31.5 117.5q0 106 78.5 169t211.5 63t211 -61.5t78 -165.5q0 -70 -33 -120.5t-86 -64.5q-10 -3 -10 -6q0 -1 10 -8q73 -24 116.5 -78t43.5 -131q0 -113 -90 -181.5
t-240 -68.5zM219 -154q0 -70 50.5 -108.5t129.5 -38.5q85 0 135.5 40.5t47.5 106.5q-3 70 -52 107t-131 37q-85 0 -132.5 -38t-47.5 -106zM246 225q0 -61 43 -97t110 -36q66 0 110 35.5t44 97.5q0 60 -43 92.5t-111 32.5t-110.5 -32.5t-42.5 -92.5z" />
    <glyph glyph-name="uni2089" unicode="&#x2089;" horiz-adv-x="806" 
d="M580 23q-2 0 -9 -11q-54 -137 -215 -137q-118 0 -202 80.5t-84 204.5q0 144 89 223.5t224 79.5q174 0 259 -115t85 -321q0 -203 -90 -326t-256 -123q-102 0 -183 53t-110 142q-4 15 3 23.5t22 8.5h92q24 0 33 -24q31 -80 143 -80q98 0 148.5 71.5t54.5 237.5q0 13 -4 13z
M215 180q0 -81 48 -129.5t120 -48.5q75 0 124.5 48.5t49.5 129.5q0 66 -47.5 113t-126.5 47q-80 0 -124 -48t-44 -112z" />
    <glyph glyph-name="uni208D" unicode="&#x208d;" horiz-adv-x="362" 
d="M223 -553q-24 0 -33 23q-108 276 -108 559q0 289 106 542q9 23 35 23h78q15 0 21 -9t0 -24q-103 -267 -103 -536q0 -275 103 -545q6 -15 0 -24t-21 -9h-78z" />
    <glyph glyph-name="uni208E" unicode="&#x208e;" horiz-adv-x="362" 
d="M63 -553q-15 0 -21.5 9t-0.5 24q104 264 104 540q0 280 -104 541q-6 15 0.5 24t21.5 9h76q23 0 35 -23q107 -253 107 -538q0 -287 -109 -563q-9 -23 -33 -23h-76z" />
    <glyph glyph-name="franc" unicode="&#x20a3;" horiz-adv-x="1050" 
d="M45 270q-29 0 -29 29v66q0 28 29 28h123q12 0 12 13v999q0 29 29 29h745q29 0 29 -29v-98q0 -29 -29 -29h-589q-13 0 -13 -12v-435q0 -12 13 -12h512q28 0 28 -28v-99q0 -28 -28 -28h-512q-13 0 -13 -13v-245q0 -13 13 -13h235q29 0 29 -28v-66q0 -29 -29 -29h-235
q-13 0 -13 -12v-229q0 -29 -28 -29h-115q-29 0 -29 29v229q0 12 -12 12h-123z" />
    <glyph glyph-name="uni20A6" unicode="&#x20a6;" horiz-adv-x="1755" 
d="M182 655q-28 0 -28 29v66q0 28 28 28h135q13 0 13 13v614q0 29 28 29h154q24 0 35 -19l395 -629q8 -8 14 -8h308q12 0 12 13v614q0 29 29 29h114q29 0 29 -29v-614q0 -13 12 -13h113q29 0 29 -28v-66q0 -29 -29 -29h-113q-12 0 -12 -12v-614q0 -29 -29 -29h-155
q-25 0 -35 18l-395 629q-8 8 -15 8h-305q-12 0 -12 -12v-614q0 -29 -29 -29h-115q-28 0 -28 29v614q0 12 -13 12h-135zM502 791q0 -13 12 -13h221q6 0 8.5 4.5t-0.5 10.5q-185 310 -225 389q-3 7 -9.5 6t-6.5 -12v-385zM1040 655q-7 0 -10 -3.5t0 -8.5q23 -37 118.5 -195.5
t119.5 -195.5q3 -5 8.5 -4.5t5.5 10.5q0 28 -6 385q0 12 -12 12h-224z" />
    <glyph glyph-name="peseta" unicode="&#x20a7;" horiz-adv-x="1417" 
d="M45 934q-29 0 -29 29v65q0 29 29 29h137q13 0 13 12v336q0 29 28 29h506q435 0 473 -365q3 -12 15 -12h102q29 0 29 -29v-65q0 -29 -29 -29h-105q-11 0 -14 -12q-15 -120 -82.5 -204t-167 -122.5t-223.5 -38.5h-346q-12 0 -12 -12v-516q0 -29 -29 -29h-117q-28 0 -28 29
v893q0 12 -13 12h-137zM369 725q0 -12 12 -12h315q286 0 330 207q3 14 -12 14h-633q-12 0 -12 -12v-197zM369 1069q0 -12 12 -12h633q15 0 12 14q-42 207 -330 207h-315q-12 0 -12 -12v-197z" />
    <glyph glyph-name="uni20A8" unicode="&#x20a8;" horiz-adv-x="2326" 
d="M182 0q-28 0 -28 29v1376q0 29 28 29h580q197 0 313.5 -100t116.5 -271q0 -118 -53.5 -213t-143.5 -133q-7 -3 -9.5 -7t0 -8t9.5 -6q51 -17 83.5 -66t49.5 -138l89 -461q3 -13 -5 -22t-22 -9h-119q-12 0 -21 7.5t-10 19.5l-61 356q-20 115 -75.5 156t-176.5 41h-387
q-12 0 -12 -13v-538q0 -29 -29 -29h-117zM328 748q0 -13 12 -13h385q131 0 212 79t81 210q0 122 -75 188t-212 66h-391q-12 0 -12 -12v-518zM1380 266q-3 14 5 22.5t22 8.5h113q24 0 30 -27q38 -159 283 -159q115 0 186.5 46.5t71.5 125.5q0 61 -54 104.5t-163 63.5l-123 22
q-42 8 -71.5 15t-69.5 19.5t-67 27t-56.5 37.5t-47 50.5t-29 66.5t-11.5 85q0 147 108 231.5t297 84.5q176 0 287.5 -75t136.5 -231q3 -13 -4.5 -21.5t-21.5 -8.5h-113q-25 0 -31 26q-35 166 -258 166q-111 0 -174 -43t-63 -119q0 -59 54 -100.5t175 -65.5l113 -22
q45 -9 71 -15.5t68.5 -19.5t68 -27t56.5 -37.5t48.5 -51.5t29.5 -68t12 -88q0 -147 -117.5 -234.5t-310.5 -87.5q-201 0 -316 75.5t-135 223.5z" />
    <glyph glyph-name="uni20A9" unicode="&#x20a9;" horiz-adv-x="1947" 
d="M74 655q-29 0 -29 29v66q0 28 29 28h157q14 0 11 15l-170 608q-5 14 2 23.5t22 9.5h127q25 0 31 -25l166 -621q2 -10 12 -10h275q9 0 12 10l164 621q6 25 30 25h142q24 0 30 -25l166 -621q3 -10 13 -10h276q10 0 12 10l164 621q6 25 31 25h127q15 0 22 -9.5t2 -23.5
l-169 -608q-3 -15 10 -15h135q29 0 29 -28v-66q0 -29 -29 -29h-172q-10 0 -12 -10l-174 -620q-6 -25 -31 -25h-158q-25 0 -31 25l-166 620q-2 10 -12 10h-266q-10 0 -12 -10l-164 -620q-6 -25 -31 -25h-158q-24 0 -30 25l-174 620q-3 10 -13 10h-196zM469 655q-13 0 -10 -14
l2 -10q16 -62 51 -203.5t45 -177.5q5 -15 13 -15t12 15q9 33 45 179t51 202l2 10q3 14 -10 14h-201zM879 793q-3 -15 10 -15h192q14 0 11 15l-15 51q-11 42 -41 158.5t-39 150.5q-3 11 -7.5 15t-9 0t-7.5 -15q-9 -31 -82 -311zM1298 655q-13 0 -10 -14l2 -6q11 -40 35 -134
t42.5 -164.5t23.5 -86.5q3 -9 7 -13t8 -1t7 14q20 75 54.5 210t43.5 171l2 10q3 14 -10 14h-205z" />
    <glyph glyph-name="Euro" unicode="&#x20ac;" horiz-adv-x="1316" 
d="M764 -29q-162 0 -288 73.5t-199.5 197.5t-100.5 288q-3 13 -14 13h-117q-29 0 -29 28v66q0 29 29 29h107q13 0 10 12v41q0 30 4 84q0 12 -12 12h-109q-29 0 -29 29v65q0 29 29 29h127q9 0 12 10q48 237 195.5 374.5t386.5 137.5q193 0 318 -94t176 -262q4 -15 -3 -24
t-22 -9h-129q-24 0 -33 25q-74 209 -307 209q-163 0 -262 -93t-139 -260q0 -14 12 -14h393q29 0 29 -29v-65q0 -29 -29 -29h-412q-12 0 -12 -12q-4 -54 -4 -84l2 -41q0 -4 4 -8t8 -4h414q29 0 29 -29v-66q0 -28 -29 -28h-401q-16 0 -13 -15q33 -185 135.5 -293t280.5 -108
q138 0 223 68t111 202q3 27 31 27h112q14 0 21 -9t4 -24q-40 -199 -174.5 -309.5t-335.5 -110.5z" />
    <glyph glyph-name="uni20AD" unicode="&#x20ad;" horiz-adv-x="1390" 
d="M45 631q-29 0 -29 28v66q0 29 29 29h150q12 0 12 12v639q0 29 29 29h114q29 0 29 -29l-6 -639q0 -12 12 -12h88q8 0 14 6q51 60 146 158l477 501q12 15 35 15h158q19 0 23 -11t-9 -24l-541 -533q-8 -8 -2 -18l60 -86q8 -8 16 -8h414q28 0 28 -29v-66q0 -28 -28 -28h-322
q-8 0 -10 -4.5t2 -10.5l393 -581q9 -15 4 -25t-22 -10h-144q-25 0 -35 18l-403 605q-8 8 -16 8h-170q-9 0 -15 -6l-141 -140q-6 -6 -6 -14v-442q0 -29 -29 -29h-114q-29 0 -29 29v589q0 13 -12 13h-150z" />
    <glyph glyph-name="uni20AE" unicode="&#x20ae;" horiz-adv-x="1236" 
d="M293 612q-13 -7 -24 -0.5t-11 21.5v67q0 21 21 33l247 119q9 6 9 14v400q0 12 -13 12h-426q-28 0 -28 29v98q0 29 28 29h1045q28 0 28 -29v-98q0 -29 -28 -29h-422q-12 0 -12 -12v-310q0 -6 4 -9.5t10 -0.5l199 96q14 6 24 0.5t10 -20.5v-68q0 -21 -20 -32l-219 -105
q-8 -5 -8 -14v-144q0 -6 4 -9.5t10 -0.5l199 96q14 6 24 0.5t10 -20.5v-68q0 -21 -20 -32l-219 -105q-8 -5 -8 -14v-477q0 -29 -29 -29h-115q-28 0 -28 29v387q0 6 -4.5 9.5t-10.5 0.5l-227 -111q-13 -7 -24 -0.5t-11 21.5v67q0 21 21 33l247 119q9 6 9 14v144q0 6 -4.5 9.5
t-10.5 0.5z" />
    <glyph glyph-name="uni20B1" unicode="&#x20b1;" horiz-adv-x="1437" 
d="M45 823q-29 0 -29 29v66q0 28 29 28h137q13 0 13 12v74q0 12 -13 12h-137q-29 0 -29 29v66q0 28 29 28h137q13 0 13 13v225q0 29 28 29h506q363 0 451 -256q7 -11 14 -11h111q28 0 28 -28v-66q0 -29 -28 -29h-88q-14 0 -11 -12v-37v-37q-3 -12 11 -12h88q28 0 28 -28v-66
q0 -29 -28 -29h-117q-12 0 -14 -10q-51 -126 -170 -191t-277 -65h-346q-12 0 -12 -12v-516q0 -29 -29 -29h-117q-28 0 -28 29v782q0 12 -13 12h-137zM369 725q0 -12 12 -12h315q196 0 277 96q11 14 -6 14h-586q-12 0 -12 -12v-86zM369 958q0 -12 12 -12h637q11 0 14 12v37
v37q-3 12 -14 12h-637q-12 0 -12 -12v-74zM369 1180q0 -13 12 -13h588q8 0 10 4.5t-4 10.5q-79 96 -279 96h-315q-12 0 -12 -12v-86z" />
    <glyph glyph-name="uni20B2" unicode="&#x20b2;" horiz-adv-x="1513" 
d="M96 725q0 316 156 511t426 224q12 3 12 15v178q0 28 29 28h69q29 0 29 -28v-176q0 -13 12 -13q198 -13 328.5 -110.5t171.5 -251.5q3 -13 -4.5 -22t-21.5 -9h-132q-26 0 -32 25q-26 83 -106 139t-204 68q-12 3 -12 -11v-1145q0 -6 3 -9.5t9 -2.5q163 28 267.5 146.5
t113.5 287.5q0 13 -12 13h-221q-29 0 -29 28v99q0 28 29 28h375q28 0 28 -28v-680q0 -29 -28 -29h-107q-28 0 -31 29l-12 213q0 10 -7.5 11.5t-10.5 -5.5q-66 -104 -150 -175t-207 -96q-10 -3 -10 -12v-188q0 -29 -29 -29h-69q-29 0 -29 29v178q0 12 -12 12
q-137 7 -248.5 68.5t-183.5 164t-111 237t-39 288.5zM272 725q0 -153 43.5 -279t137 -212t225.5 -103q12 -3 12 10v1147q0 13 -10 10q-191 -29 -299.5 -180t-108.5 -393z" />
    <glyph glyph-name="uni20B3" unicode="&#x20b3;" horiz-adv-x="1437" 
d="M246 23q-10 -23 -33 -23h-121q-15 0 -21.5 9.5t-0.5 23.5l116 301q4 14 -8 14h-74q-28 0 -28 29v65q0 29 28 29h125q13 0 15 10l45 119q3 14 -8 14h-177q-28 0 -28 29v66q0 28 28 28h228q11 0 14 11l256 663q10 23 33 23h156q22 0 32 -23l262 -663q3 -11 15 -11h239
q29 0 29 -28v-66q0 -29 -29 -29h-186q-11 0 -8 -14l45 -119q2 -10 14 -10h135q29 0 29 -29v-65q0 -29 -29 -29h-82q-14 0 -8 -14l119 -301q6 -13 -0.5 -23t-21.5 -10h-121q-23 0 -33 23l-123 315q-3 10 -14 10h-676q-11 0 -14 -10zM422 485q-4 -14 8 -14h574q12 0 8 14
l-45 119q-3 10 -15 10h-471q-11 0 -14 -10zM522 752q-4 -15 8 -15h369q12 0 8 15l-57 151q-94 250 -125 348q-4 11 -10 11t-10 -11q-31 -95 -123 -342z" />
    <glyph glyph-name="uni20B4" unicode="&#x20b4;" horiz-adv-x="1363" 
d="M45 766q-29 0 -29 29v65q0 29 29 29h858q11 0 17 4q61 30 91.5 71.5t30.5 108.5q0 62 -29 109t-79 74t-110 40t-130 13q-157 0 -257.5 -57t-119.5 -158q-6 -27 -30 -27h-123q-30 0 -27 29q7 70 45.5 135t105.5 118t172.5 84.5t233.5 30.5q151 -1 269 -44t189 -131.5
t71 -209.5q0 -101 -60 -176q-4 -6 -2 -10t10 -4h148q29 0 29 -29v-65q0 -29 -29 -29h-1274zM45 565q-29 0 -29 29v65q0 29 29 29h1274q29 0 29 -29v-65q0 -29 -29 -29h-807q-10 0 -16 -2q-95 -32 -142 -78.5t-47 -128.5t49.5 -136.5t125.5 -76.5t175 -22q154 0 257 57.5
t126 159.5q6 27 31 27h121q14 0 22 -8.5t5 -22.5q-14 -70 -56 -135t-110.5 -118.5t-171 -85t-224.5 -30.5q-237 2 -382.5 102t-145.5 283q0 117 78 201q6 6 5 10t-9 4h-158z" />
    <glyph glyph-name="uni20B5" unicode="&#x20b5;" horiz-adv-x="1437" 
d="M653 1653q0 28 29 28h70q28 0 28 -28v-174q0 -13 13 -13q203 -9 339 -108t177 -256q3 -13 -5 -22t-22 -9h-133q-25 0 -31 25q-27 87 -111.5 144.5t-213.5 66.5q-13 0 -13 -13v-1155q0 -12 13 -12q136 9 226 82t120 190q6 25 32 25h127q14 0 22 -9t5 -22
q-41 -185 -180 -301t-352 -125q-13 0 -13 -12v-178q0 -29 -28 -29h-70q-29 0 -29 29v184q0 11 -12 14q-250 40 -397.5 239t-147.5 509q0 311 146 504.5t399 230.5q12 3 12 15v180zM274 723q0 -231 98.5 -384.5t266.5 -195.5q14 -3 14 11v1128q0 6 -3 9.5t-7 2.5
q-173 -39 -271 -188t-98 -383z" />
    <glyph glyph-name="uni20B8" unicode="&#x20b8;" horiz-adv-x="1224" 
d="M553 0q-29 0 -29 29v893q0 12 -12 12h-428q-29 0 -29 29v98q0 29 29 29h1057q28 0 28 -29v-98q0 -29 -28 -29h-426q-13 0 -13 -12v-893q0 -29 -28 -29h-121zM84 1278q-29 0 -29 29v98q0 29 29 29h1057q28 0 28 -29v-98q0 -29 -28 -29h-1057z" />
    <glyph glyph-name="uni20B9" unicode="&#x20b9;" horiz-adv-x="1259" 
d="M829 383q-20 118 -70.5 157.5t-178.5 39.5h-408q-29 0 -29 28v99q0 28 29 28h406q116 0 188 59t94 152q3 15 -12 15h-676q-29 0 -29 28v66q0 28 29 28h676q15 0 12 15q-20 94 -90 137t-192 43h-408q-29 0 -29 29v98q0 29 29 29h979q29 0 29 -29v-66q0 -28 -29 -28h-217
q-12 0 -12 -6q-3 -6 8 -13q96 -67 110 -196q3 -13 15 -13h96q29 0 29 -28v-66q0 -28 -29 -28h-113q-8 0 -12 -11q-29 -92 -97.5 -158t-160.5 -79q-12 -3 -12 -8q0 -6 12 -9q98 -10 148 -71.5t77 -194.5l76 -399q3 -13 -5 -22t-22 -9h-118q-12 0 -21 7.5t-10 19.5z" />
    <glyph glyph-name="uni20BA" unicode="&#x20ba;" horiz-adv-x="1148" 
d="M1047 762q28 0 28 -29q-9 -338 -209 -535.5t-532 -197.5h-144q-28 0 -28 29v581q0 6 -4.5 10t-10.5 1l-96 -48q-14 -6 -24.5 0t-10.5 21v76q0 20 21 32l117 56q8 5 8 14v135q0 6 -4.5 10t-10.5 1l-96 -48q-14 -6 -24.5 0t-10.5 21v76q0 20 21 32l117 56q8 5 8 14v336
q0 29 28 29h115q29 0 29 -29v-246q0 -6 4 -9.5t10 -0.5l330 160q14 7 24.5 0.5t10.5 -21.5v-76q0 -20 -21 -32l-350 -168q-8 -5 -8 -15v-135q0 -6 4 -9.5t10 -0.5l330 160q14 7 24.5 0.5t10.5 -21.5v-76q0 -20 -21 -32l-350 -168q-8 -5 -8 -15v-530q0 -12 12 -12
q250 4 395.5 159.5t153.5 415.5q0 29 29 29h123z" />
    <glyph glyph-name="uni20BC" unicode="&#x20bc;" horiz-adv-x="1409" 
d="M784 129q0 -29 -28 -29h-111q-29 0 -29 29v799q0 12 -12 12q-159 -4 -235 -87t-76 -247v-577q0 -29 -29 -29h-112q-29 0 -29 29v563q0 252 118 371t363 124q12 0 12 13v305q0 29 29 29h111q28 0 28 -29v-305q0 -13 13 -13q251 -6 370 -125.5t119 -369.5v-563
q0 -29 -29 -29h-112q-29 0 -29 29v577q0 169 -78.5 248.5t-240.5 85.5q-13 0 -13 -12v-799z" />
    <glyph glyph-name="uni20BF" unicode="&#x20bf;" horiz-adv-x="1288" 
d="M702 -252q-28 0 -28 29v211q0 12 -12 12h-148q-12 0 -12 -12v-211q0 -29 -29 -29h-70q-28 0 -28 29v211q0 12 -13 12h-180q-28 0 -28 29v1376q0 29 28 29h180q13 0 13 12v207q0 28 28 28h70q29 0 29 -28v-207q0 -12 12 -12h148q12 0 12 12v207q0 28 28 28h70q29 0 29 -28
v-207q0 -12 12 -12q165 -9 264 -93.5t99 -230.5q0 -116 -59.5 -211t-153.5 -121q-7 -2 -9.5 -5t0 -6t9.5 -5q112 -33 180.5 -132t68.5 -235q0 -169 -107.5 -276t-291.5 -119q-12 0 -12 -12v-211q0 -29 -29 -29h-70zM328 168q0 -12 12 -12h405q291 0 291 252q0 243 -291 243
h-405q-12 0 -12 -12v-471zM328 819q0 -12 12 -12h387q122 0 196 72t74 182q0 98 -64.5 157.5t-170.5 59.5h-422q-12 0 -12 -12v-447z" />
    <glyph glyph-name="uni2116" unicode="&#x2116;" horiz-adv-x="2344" 
d="M1888 709q-159 0 -254.5 105t-95.5 271q0 167 95.5 272t254.5 105q157 0 251.5 -106t94.5 -271t-94.5 -270.5t-251.5 -105.5zM182 0q-28 0 -28 29v1376q0 29 28 29h154q24 0 35 -19l483 -772q23 -37 118.5 -195.5t119.5 -195.5q3 -5 8.5 -4.5t5.5 10.5q0 62 -3 224.5
t-3 222.5v700q0 29 28 29h115q29 0 29 -29v-1376q0 -29 -29 -29h-156q-24 0 -34 18l-416 662q-64 102 -162.5 268.5t-132.5 233.5q-3 7 -9.5 6t-6.5 -12v-1147q0 -29 -29 -29h-115zM1567 506q-29 0 -29 29v57q0 29 29 29h639q28 0 28 -29v-57q0 -29 -28 -29h-639zM1688 1085
q0 -105 51.5 -170t148.5 -65q96 0 146.5 66.5t50.5 168.5q0 106 -51.5 172t-145.5 66t-147 -66t-53 -172z" />
    <glyph glyph-name="trademark" unicode="&#x2122;" horiz-adv-x="1161" 
d="M594 911q-29 0 -29 29v465q0 29 29 29h49q24 0 33 -23l92 -227q6 -16 23.5 -60t25.5 -67l8 -23q12 36 60 162l84 215q10 23 32 23h52q28 0 28 -29v-465q0 -29 -28 -29h-31q-29 0 -29 29v145q0 30 4 170l-2 13h-2q-16 -52 -51 -142l-76 -192q-10 -23 -32 -23h-19
q-24 0 -33 23l-65 164q-6 15 -27 66.5t-33 90.5l-6 11h-2q4 -66 4 -185v-141q0 -29 -28 -29h-31zM109 1352q-29 0 -29 28v25q0 29 29 29h364q29 0 29 -29v-25q0 -28 -29 -28h-125q-12 0 -12 -13v-399q0 -29 -29 -29h-33q-28 0 -28 29v399q0 13 -13 13h-124z" />
    <glyph glyph-name="estimated" unicode="&#x212e;" horiz-adv-x="1902" 
d="M356 1260q219 213 596 213q376 0 596 -224q212 -212 221 -520q0 -29 -28 -29h-1278q-29 0 -29 -26v-357q0 -68 33 -94q194 -194 485 -194q152 0 287 63q124 57 209 152q13 16 35 16h82q18 0 23.5 -11t-5.5 -24q-86 -102 -233 -170q-171 -82 -398 -82q-370 0 -594 211
q-227 208 -227 537q0 327 225 539zM434 772q0 -27 29 -27h973q28 0 28 27v356q0 63 -32 91q-202 196 -480 196q-289 0 -485 -196q-33 -29 -33 -91v-356z" />
    <glyph glyph-name="uni2150" unicode="&#x2150;" horiz-adv-x="1767" 
d="M268 1245q-5 0 -10 -8q-60 -69 -170 -78q-29 0 -29 29v90q0 28 29 31q62 6 112.5 33.5t78.5 70.5q12 21 32 21h86q29 0 29 -29v-789q0 -28 -29 -28h-98q-29 0 -29 28v615q0 14 -2 14zM350 0q-17 0 -22.5 11t2.5 24l737 1378q9 21 33 21h92q17 0 22.5 -11t-2.5 -24
l-737 -1379q-9 -20 -33 -20h-92zM1145 717q-29 0 -29 28v72q0 29 29 29h534q29 0 29 -29v-82q0 -21 -14 -35q-64 -64 -109 -122.5t-84.5 -138t-61.5 -181.5t-26 -229q0 -29 -29 -29h-104q-29 0 -29 31q5 106 28.5 201.5t57.5 165.5t79.5 132t88 102t88.5 73q9 6 9 10
q-7 2 -15 2h-442z" />
    <glyph glyph-name="uni2151" unicode="&#x2151;" horiz-adv-x="1761" 
d="M268 1245q-5 0 -10 -8q-60 -69 -170 -78q-29 0 -29 29v90q0 28 29 31q62 6 112.5 33.5t78.5 70.5q12 21 32 21h86q29 0 29 -29v-789q0 -28 -29 -28h-98q-29 0 -29 28v615q0 14 -2 14zM350 0q-17 0 -22.5 11t2.5 24l737 1378q9 21 33 21h92q17 0 22.5 -11t-2.5 -24
l-737 -1379q-9 -20 -33 -20h-92zM1024 547q0 144 89 223.5t224 79.5q174 0 259 -115t85 -321q0 -203 -90 -326t-256 -123q-102 0 -183 53t-110 142q-4 15 3 24t22 9h92q24 0 33 -25q31 -80 143 -80q98 0 148.5 71.5t54.5 237.5q0 13 -4 13q-1 0 -8 -11q-54 -137 -215 -137
q-118 0 -202.5 81t-84.5 204zM1169 567q0 -81 48 -129.5t120 -48.5q75 0 124.5 48.5t49.5 129.5q0 66 -47.5 113t-126.5 47q-80 0 -124 -48t-44 -112z" />
    <glyph glyph-name="uni2152" unicode="&#x2152;" horiz-adv-x="2328" 
d="M268 1245q-5 0 -10 -8q-60 -69 -170 -78q-29 0 -29 29v90q0 28 29 31q62 6 112.5 33.5t78.5 70.5q12 21 32 21h86q29 0 29 -29v-789q0 -28 -29 -28h-98q-29 0 -29 28v615q0 14 -2 14zM350 0q-17 0 -22.5 11t2.5 24l737 1378q9 21 33 21h92q17 0 22.5 -11t-2.5 -24
l-737 -1379q-9 -20 -33 -20h-92zM1083 571q-28 0 -28 29v90q0 28 28 31q62 6 112.5 33.5t78.5 70.5q12 21 33 21h86q28 0 28 -29v-788q0 -29 -28 -29h-99q-28 0 -28 29v616q0 12 -2 12q-6 0 -9 -6q-59 -71 -172 -80zM1571 410q0 220 93 331t251 111q160 0 252 -111t92 -331
q0 -219 -92.5 -330t-251.5 -111q-158 0 -251 111t-93 330zM1729 410q0 -148 41.5 -229t144.5 -81t144.5 81t41.5 229q0 71 -8.5 124.5t-29 97t-58 66.5t-90.5 23t-90.5 -23t-58 -66.5t-29 -97t-8.5 -124.5z" />
    <glyph glyph-name="uni2153" unicode="&#x2153;" horiz-adv-x="1732" 
d="M268 1245q-5 0 -10 -8q-60 -69 -170 -78q-29 0 -29 29v90q0 28 29 31q62 6 112.5 33.5t78.5 70.5q12 21 32 21h86q29 0 29 -29v-789q0 -28 -29 -28h-98q-29 0 -29 28v615q0 14 -2 14zM350 0q-17 0 -22.5 11t2.5 24l737 1378q9 21 33 21h92q17 0 22.5 -11t-2.5 -24
l-737 -1379q-9 -20 -33 -20h-92zM1014 209q-3 31 28 31h91q24 0 30 -27q22 -123 187 -123q70 0 118 36.5t48 104.5q0 138 -173 138h-34q-29 0 -29 28v58q0 28 29 28h28q162 0 162 125q0 57 -39 88t-114 31q-133 0 -152 -102q-7 -27 -31 -27h-94q-14 0 -22 8.5t-5 22.5
q18 112 99 166.5t202 54.5q61 0 113.5 -12.5t96.5 -38t69 -71.5t25 -107q0 -71 -43.5 -119t-118.5 -66q-10 -3 -10 -4q0 -3 12 -6q88 -10 134 -64t46 -141q0 -115 -93.5 -185.5t-227.5 -70.5q-131 0 -223 65t-109 179z" />
    <glyph glyph-name="uni2154" unicode="&#x2154;" horiz-adv-x="1986" 
d="M49 698q0 21 19 37q259 196 325 254q105 93 123 164q6 22 6 45q0 60 -41 92.5t-116 32.5q-122 0 -150 -94q-9 -25 -33 -25h-90q-14 0 -21.5 9t-4.5 22q20 103 99 161t200 58q141 0 223 -71t82 -193q0 -60 -24 -113t-82.5 -111t-124 -108.5t-181.5 -130.5q-6 -4 -6 -8
t12 -4q72 4 197 4h190q29 0 29 -29v-74q0 -28 -29 -28h-573q-29 0 -29 28v82zM604 0q-17 0 -22.5 11t2.5 24l737 1378q9 21 33 21h92q17 0 22.5 -11t-2.5 -24l-737 -1379q-9 -20 -33 -20h-92zM1268 209q-3 31 28 31h90q25 0 31 -27q22 -123 187 -123q69 0 117 36.5t48 104.5
q0 138 -172 138h-34q-29 0 -29 28v58q0 28 29 28h28q162 0 162 125q0 57 -39.5 88t-114.5 31q-62 0 -101 -22t-50 -80q-7 -27 -31 -27h-94q-14 0 -22 8.5t-5 22.5q18 112 99 166.5t202 54.5q61 0 113.5 -12.5t96.5 -38t69 -71.5t25 -107q0 -71 -43.5 -119t-118.5 -66
q-10 -3 -10 -4q0 -3 12 -6q88 -10 134 -64t46 -141q0 -115 -94 -185.5t-228 -70.5q-131 0 -222.5 65t-108.5 179z" />
    <glyph glyph-name="uni2155" unicode="&#x2155;" horiz-adv-x="1732" 
d="M268 1245q-5 0 -10 -8q-60 -69 -170 -78q-29 0 -29 29v90q0 28 29 31q62 6 112.5 33.5t78.5 70.5q12 21 32 21h86q29 0 29 -29v-789q0 -28 -29 -28h-98q-29 0 -29 28v615q0 14 -2 14zM350 0q-17 0 -22.5 11t2.5 24l737 1378q9 21 33 21h92q17 0 22.5 -11t-2.5 -24
l-737 -1379q-9 -20 -33 -20h-92zM1028 190q-3 14 5 22.5t22 8.5h90q22 0 31 -24q33 -105 172 -105q76 0 123 47.5t47 126.5q0 72 -46 122t-122 50q-104 0 -154 -78q-14 -24 -37 -18l-90 18q-12 3 -18 13t-4 22l71 412q1 12 10 19.5t21 7.5h428q29 0 29 -29v-72
q0 -28 -29 -28h-328q-10 0 -14 -11l-37 -227q-3 -10 2 -10q4 2 10 10q30 42 79.5 66t107.5 24q67 0 126 -30.5t99.5 -98.5t40.5 -162q0 -130 -87 -213.5t-228 -83.5q-121 0 -212 58.5t-108 162.5z" />
    <glyph glyph-name="uni2156" unicode="&#x2156;" horiz-adv-x="1986" 
d="M49 698q0 21 19 37q259 196 325 254q105 93 123 164q6 22 6 45q0 60 -41 92.5t-116 32.5q-122 0 -150 -94q-9 -25 -33 -25h-90q-14 0 -21.5 9t-4.5 22q20 103 99 161t200 58q141 0 223 -71t82 -193q0 -60 -24 -113t-82.5 -111t-124 -108.5t-181.5 -130.5q-6 -4 -6 -8
t12 -4q72 4 197 4h190q29 0 29 -29v-74q0 -28 -29 -28h-573q-29 0 -29 28v82zM604 0q-17 0 -22.5 11t2.5 24l737 1378q9 21 33 21h92q17 0 22.5 -11t-2.5 -24l-737 -1379q-9 -20 -33 -20h-92zM1282 190q-3 14 5 22.5t22 8.5h90q22 0 31 -24q33 -105 172 -105q76 0 123 47.5
t47 126.5q0 72 -46 122t-122 50q-104 0 -154 -78q-14 -24 -37 -18l-90 18q-12 3 -18.5 13t-4.5 22l72 412q1 12 10 19.5t21 7.5h428q29 0 29 -29v-72q0 -28 -29 -28h-328q-10 0 -14 -11l-37 -227q-3 -10 2 -10q4 2 10 10q30 42 79.5 66t107.5 24q67 0 126 -30.5t99.5 -98.5
t40.5 -162q0 -130 -87 -213.5t-228 -83.5q-121 0 -212 58.5t-108 162.5z" />
    <glyph glyph-name="uni2157" unicode="&#x2157;" horiz-adv-x="1933" 
d="M381 571q-131 0 -223 65t-109 179q-1 15 7 23t22 8h90q25 0 31 -27q22 -123 186 -123q69 0 117.5 37t48.5 105q0 137 -172 137h-35q-29 0 -29 29v57q0 29 29 29h29q162 0 162 124q0 57 -39.5 88t-114.5 31q-133 0 -152 -102q-7 -27 -30 -27h-95q-14 0 -21.5 8t-4.5 23
q18 112 99 166.5t202 54.5q61 0 113.5 -12.5t96 -38t68.5 -71.5t25 -107q0 -71 -43.5 -119t-118.5 -66q-10 -3 -10 -4q0 -3 12 -6q88 -10 134 -64t46 -141q0 -115 -93.5 -185.5t-227.5 -70.5zM551 0q-17 0 -23 11t2 24l738 1378q9 21 32 21h93q17 0 22.5 -11t-2.5 -24
l-737 -1379q-9 -20 -33 -20h-92zM1229 190q-3 15 4.5 23t21.5 8h91q21 0 30 -24q33 -105 172 -105q76 0 123 47.5t47 126.5q0 72 -46 122t-122 50q-103 0 -153 -78q-14 -24 -37 -18l-90 18q-12 3 -18.5 13t-4.5 22l72 412q1 12 10 19.5t21 7.5h428q28 0 28 -29v-72
q0 -28 -28 -28h-328q-10 0 -14 -11l-37 -227q-3 -10 2 -10q4 2 10 10q30 42 79 66t107 24q107 0 187 -76.5t80 -214.5q0 -130 -87.5 -213.5t-228.5 -83.5q-120 0 -211 58.5t-108 162.5z" />
    <glyph glyph-name="uni2158" unicode="&#x2158;" horiz-adv-x="1968" 
d="M514 588q-29 0 -29 28v170q0 13 -12 13h-385q-29 0 -29 28v95q0 18 13 34l395 461q17 17 35 17h110q29 0 29 -29v-465q0 -12 12 -12h72q29 0 29 -29v-72q0 -28 -29 -28h-72q-12 0 -12 -13v-170q0 -28 -29 -28h-98zM215 942q-4 -6 -2 -10t10 -4h256q13 0 13 12v328
q0 12 -3 12q-5 0 -8 -8q-41 -71 -166 -215zM586 0q-17 0 -23 11t2 24l738 1378q9 21 32 21h92q17 0 23 -11t-2 -24l-737 -1379q-9 -20 -33 -20h-92zM1264 190q-3 15 4.5 23t21.5 8h90q22 0 31 -24q33 -105 172 -105q76 0 123 47.5t47 126.5q0 72 -46 122t-122 50
q-103 0 -153 -78q-14 -24 -37 -18l-90 18q-12 3 -18.5 13t-4.5 22l72 412q2 12 10 19.5t20 7.5h428q29 0 29 -29v-72q0 -28 -29 -28h-327q-11 0 -15 -11l-36 -227q-3 -10 2 -10q4 2 10 10q30 42 79 66t107 24q67 0 126 -30.5t99.5 -98.5t40.5 -162q0 -130 -87 -213.5
t-228 -83.5q-120 0 -211 58.5t-108 162.5z" />
    <glyph glyph-name="uni2159" unicode="&#x2159;" horiz-adv-x="1730" 
d="M268 1245q-5 0 -10 -8q-60 -69 -170 -78q-29 0 -29 29v90q0 28 29 31q62 6 112.5 33.5t78.5 70.5q12 21 32 21h86q29 0 29 -29v-789q0 -28 -29 -28h-98q-29 0 -29 28v615q0 14 -2 14zM350 0q-17 0 -22.5 11t2.5 24l737 1378q9 21 33 21h92q17 0 22.5 -11t-2.5 -24
l-737 -1379q-9 -20 -33 -20h-92zM1004 399q0 201 90 324t256 123q101 0 182 -53t110 -142q4 -15 -2.5 -24t-21.5 -9h-92q-24 0 -33 25q-31 80 -143 80q-99 0 -149 -71t-54 -236q0 -13 4 -13q1 0 8 11q54 137 215 137q118 0 202.5 -81.5t84.5 -205.5q0 -144 -89 -223.5
t-224 -79.5q-174 0 -259 115.5t-85 322.5zM1174 244q0 -66 47.5 -113t126.5 -47q80 0 124 48t44 112q0 81 -48 130.5t-120 49.5q-75 0 -124.5 -49t-49.5 -131z" />
    <glyph glyph-name="uni215A" unicode="&#x215a;" horiz-adv-x="1931" 
d="M190 821q22 0 31 -24q33 -105 172 -105q76 0 123 47.5t47 126.5q0 72 -46 122t-122 50q-104 0 -153 -77q-14 -25 -37 -19l-90 19q-26 7 -23 34l72 412q1 12 10 19.5t21 7.5h428q28 0 28 -29v-72q0 -28 -28 -28h-328q-10 0 -14 -11l-37 -227q-3 -10 2 -10q4 2 10 10
q30 42 79 66t107 24q107 0 187 -76.5t80 -214.5q0 -130 -87.5 -213.5t-228.5 -83.5q-120 0 -211 59t-108 163q-6 30 26 30h90zM551 0q-17 0 -23 11t2 24l738 1378q9 21 32 21h93q17 0 22.5 -11t-2.5 -24l-737 -1379q-9 -20 -33 -20h-92zM1204 399q0 201 90 324t256 123
q102 0 183 -53t110 -142q4 -15 -2.5 -24t-21.5 -9h-93q-23 0 -32 25q-31 80 -144 80q-98 0 -148 -71t-54 -236q0 -13 4 -13q1 0 8 11q54 137 215 137q118 0 202.5 -81.5t84.5 -205.5q0 -144 -89.5 -223.5t-224.5 -79.5q-174 0 -259 115.5t-85 322.5zM1374 244
q0 -66 47.5 -113t126.5 -47q80 0 124 48t44 112q0 81 -48 130.5t-120 49.5q-75 0 -124.5 -49t-49.5 -131z" />
    <glyph glyph-name="oneeighth" unicode="&#x215b;" horiz-adv-x="1685" 
d="M268 1245q-5 0 -10 -8q-60 -69 -170 -78q-29 0 -29 29v90q0 28 29 31q62 6 112.5 33.5t78.5 70.5q12 21 32 21h86q29 0 29 -29v-789q0 -28 -29 -28h-98q-29 0 -29 28v615q0 14 -2 14zM317 0q-17 0 -22.5 11t2.5 24l737 1378q9 21 33 21h92q17 0 23 -11t-2 -24l-738 -1379
q-9 -20 -32 -20h-93zM946 217q0 77 42 131t114 78q10 7 10 8q0 3 -10 6q-53 14 -85 63t-32 118q0 106 79 168.5t212 62.5t211 -61.5t78 -165.5q0 -70 -33 -120.5t-86 -64.5q-10 -3 -10 -6q0 -1 10 -8q73 -24 116.5 -78t43.5 -131q0 -113 -90 -181.5t-240 -68.5
q-152 0 -241 68.5t-89 181.5zM1096 236q0 -70 50.5 -109t129.5 -39q85 0 135 41t47 107q-3 70 -51.5 106.5t-130.5 36.5q-85 0 -132.5 -38t-47.5 -105zM1122 614q0 -60 43.5 -96.5t110.5 -36.5q66 0 110 35.5t44 97.5q0 60 -43 92.5t-111 32.5t-111 -32.5t-43 -92.5z" />
    <glyph glyph-name="threeeighths" unicode="&#x215c;" horiz-adv-x="1832" 
d="M381 571q-131 0 -223 65t-109 179q-1 15 7 23t22 8h90q25 0 31 -27q22 -123 186 -123q69 0 117.5 37t48.5 105q0 137 -172 137h-35q-29 0 -29 29v57q0 29 29 29h29q162 0 162 124q0 57 -39.5 88t-114.5 31q-133 0 -152 -102q-7 -27 -30 -27h-95q-14 0 -21.5 8t-4.5 23
q18 112 99 166.5t202 54.5q61 0 113.5 -12.5t96 -38t68.5 -71.5t25 -107q0 -71 -43.5 -119t-118.5 -66q-10 -3 -10 -4q0 -3 12 -6q88 -10 134 -64t46 -141q0 -115 -93.5 -185.5t-227.5 -70.5zM502 0q-17 0 -23 11t2 24l738 1378q9 21 32 21h92q17 0 23 -11t-2 -24
l-737 -1379q-9 -20 -33 -20h-92zM1108 217q0 77 42 131t114 78q10 7 10 8q0 3 -10 6q-53 14 -85 63t-32 118q0 106 79 168.5t212 62.5t210.5 -61.5t77.5 -165.5q0 -70 -32.5 -120.5t-85.5 -64.5q-11 -4 -11 -6q0 -1 11 -8q73 -24 116 -78t43 -131q0 -113 -89.5 -181.5
t-239.5 -68.5q-152 0 -241 68.5t-89 181.5zM1257 236q0 -70 51 -109t130 -39q85 0 135 41t47 107q-3 70 -51.5 106.5t-130.5 36.5q-85 0 -133 -38t-48 -105zM1284 614q0 -60 43.5 -96.5t110.5 -36.5q66 0 109.5 35.5t43.5 97.5q0 60 -42.5 92.5t-110.5 32.5t-111 -32.5
t-43 -92.5z" />
    <glyph glyph-name="fiveeighths" unicode="&#x215d;" horiz-adv-x="1824" 
d="M190 821q22 0 31 -24q33 -105 172 -105q76 0 123 47.5t47 126.5q0 72 -46 122t-122 50q-104 0 -153 -77q-14 -25 -37 -19l-90 19q-26 7 -23 34l72 412q1 12 10 19.5t21 7.5h428q28 0 28 -29v-72q0 -28 -28 -28h-328q-10 0 -14 -11l-37 -227q-3 -10 2 -10q4 2 10 10
q30 42 79 66t107 24q107 0 187 -76.5t80 -214.5q0 -130 -87.5 -213.5t-228.5 -83.5q-120 0 -211 59t-108 163q-6 30 26 30h90zM504 0q-17 0 -23 11t2 24l738 1378q9 21 32 21h93q17 0 22.5 -11t-2.5 -24l-737 -1379q-9 -20 -33 -20h-92zM1096 217q0 77 42 131t113 78
q11 7 11 8q0 2 -11 6q-53 14 -84.5 63t-31.5 118q0 106 78.5 168.5t211.5 62.5t211 -61.5t78 -165.5q0 -70 -33 -120.5t-86 -64.5q-10 -3 -10 -6q0 -1 10 -8q73 -24 116.5 -78t43.5 -131q0 -113 -90 -181.5t-240 -68.5q-152 0 -240.5 68t-88.5 182zM1245 236
q0 -70 50.5 -109t129.5 -39q85 0 135.5 41t47.5 107q-3 70 -52 106.5t-131 36.5q-85 0 -132.5 -38t-47.5 -105zM1272 614q0 -61 43 -97t110 -36q66 0 110 35.5t44 97.5q0 60 -43 92.5t-111 32.5t-110.5 -32.5t-42.5 -92.5z" />
    <glyph glyph-name="seveneighths" unicode="&#x215e;" horiz-adv-x="1652" 
d="M545 1303q0 2 -13 2h-444q-29 0 -29 28v72q0 29 29 29h535q28 0 28 -29v-82q0 -21 -14 -35q-64 -64 -109 -122.5t-84.5 -138.5t-61.5 -182t-26 -229q0 -28 -28 -28h-105q-28 0 -28 30q5 106 28.5 201.5t57.5 165.5t79.5 132t88 102t88.5 73q8 5 8 11zM313 0
q-17 0 -22.5 11t2.5 24l737 1378q9 21 33 21h92q17 0 23 -11t-2 -24l-738 -1379q-9 -20 -32 -20h-93zM934 217q0 77 42 131t114 78q10 7 10 8q0 3 -10 6q-53 14 -85 63t-32 118q0 106 79 168.5t212 62.5t210.5 -61.5t77.5 -165.5q0 -70 -32.5 -120.5t-85.5 -64.5
q-11 -4 -11 -6q0 -1 11 -8q73 -24 116 -78t43 -131q0 -113 -89.5 -181.5t-239.5 -68.5q-152 0 -241 68.5t-89 181.5zM1083 236q0 -70 51 -109t130 -39q85 0 135 41t47 107q-3 70 -51.5 106.5t-130.5 36.5q-85 0 -133 -38t-48 -105zM1110 614q0 -60 43.5 -96.5t110.5 -36.5
q66 0 109.5 35.5t43.5 97.5q0 60 -42.5 92.5t-110.5 32.5t-111 -32.5t-43 -92.5z" />
    <glyph glyph-name="uni2189" unicode="&#x2189;" horiz-adv-x="1951" 
d="M414 571q-158 0 -251 111t-93 330q0 220 93 331t251 111q160 0 252 -111t92 -331q0 -219 -92.5 -330t-251.5 -111zM227 1012q0 -148 42 -229t145 -81t144.5 81t41.5 229q0 71 -8.5 124.5t-29 97t-58 66.5t-90.5 23q-103 0 -145 -82t-42 -229zM569 0q-17 0 -22.5 11
t2.5 24l737 1378q9 21 33 21h92q17 0 23 -11t-2 -24l-738 -1379q-9 -20 -32 -20h-93zM1233 209q-1 15 7 23t22 8h90q24 0 30 -27q22 -123 187 -123q70 0 118 36.5t48 104.5q0 138 -172 138h-35q-29 0 -29 28v58q0 28 29 28h28q162 0 162 125q0 57 -39 88t-114 31
q-133 0 -152 -102q-7 -27 -31 -27h-94q-14 0 -21.5 8t-4.5 23q18 112 99 166.5t202 54.5q61 0 113.5 -12.5t96 -38t68.5 -71.5t25 -107q0 -71 -43.5 -119t-118.5 -66q-10 -3 -10 -4q0 -3 12 -6q88 -10 134 -64t46 -141q0 -115 -93.5 -185.5t-227.5 -70.5q-131 0 -223 65
t-109 179z" />
    <glyph glyph-name="arrowleft" unicode="&#x2190;" horiz-adv-x="1714" 
d="M844 23q10 -15 5 -25t-22 -10h-141q-24 0 -35 16l-524 692q-17 20 0 41l524 693q11 16 35 16h141q17 0 22 -10t-5 -25l-228 -301q-149 -198 -254 -291q-6 -4 -6 -10t13 -6h1196q28 0 28 -29v-115q0 -28 -28 -28h-1198q-11 0 -11 -4q-3 -7 6 -13q64 -57 118.5 -120.5
t135.5 -169.5z" />
    <glyph glyph-name="arrowup" unicode="&#x2191;" horiz-adv-x="1695" 
d="M154 743q-14 -11 -24.5 -5.5t-10.5 22.5v141q0 22 16 35l692 524q21 17 41 0l693 -524q16 -11 16 -35v-141q0 -17 -10.5 -22.5t-24.5 5.5l-301 228q-198 149 -291 254q-5 8 -10 8q-6 -3 -6 -12v-1192q0 -29 -29 -29h-114q-29 0 -29 29v1192q0 12 -4 12q-7 0 -13 -6
q-58 -67 -123.5 -123t-166.5 -133z" />
    <glyph glyph-name="arrowright" unicode="&#x2192;" horiz-adv-x="1714" 
d="M870 1413q-10 15 -5 25t22 10h141q24 0 35 -16l524 -693q17 -20 0 -41l-524 -692q-11 -16 -35 -16h-141q-17 0 -22 10t5 25l228 301q76 101 132.5 166.5t121.5 123.5q8 5 8 13q-2 4 -12 4h-1198q-29 0 -29 29v114q0 29 29 29h1198q12 0 12 6q0 4 -6 10q-66 58 -122 123
t-134 168z" />
    <glyph glyph-name="arrowdown" unicode="&#x2193;" horiz-adv-x="1695" 
d="M1542 696q14 11 24.5 6t10.5 -22v-141q0 -22 -16 -35l-693 -524q-20 -17 -41 0l-692 524q-16 11 -16 35v141q0 17 10.5 22t24.5 -6l301 -227q101 -76 166.5 -132.5t123.5 -121.5q4 -6 13 -6q4 0 4 12v1196q0 29 29 29h114q29 0 29 -29v-1198q0 -10 6 -10q3 -3 12 6
q56 64 118.5 117.5t170.5 136.5z" />
    </font>
</defs>
</svg>
