<?xml version="1.0" standalone="no"?>
<!DOCTYPE svg PUBLIC "-//W3C//DTD SVG 1.1//EN" "http://www.w3.org/Graphics/SVG/1.1/DTD/svg11.dtd" >
<svg xmlns="http://www.w3.org/2000/svg" xmlns:xlink="http://www.w3.org/1999/xlink" version="1.1">
<metadata>
Created by FontForge 20170731 at Fri Oct 29 22:32:08 2021
 By Aleksey,,,
Copyright (c) 2020 Andrea Biggio &#38; The Designers Foundry. All rights reserved.
</metadata>
<defs>
<font id="TelenorEvolutionUI-ExtraBoldSlanted" horiz-adv-x="0" >
  <font-face 
    font-family="Telenor Evolution UI ExtraBold"
    font-weight="800"
    font-style="oblique"
    font-stretch="normal"
    units-per-em="2048"
    panose-1="0 0 0 0 0 0 0 0 0 0"
    ascent="1638"
    descent="-410"
    x-height="1057"
    cap-height="1434"
    bbox="-223 -621 5278.63 1975.35"
    underline-thickness="102"
    underline-position="-644"
    slope="-12"
    unicode-range="U+0020-F8FF"
  />
<missing-glyph horiz-adv-x="1241" 
 />
    <glyph glyph-name="f_f" unicode="ff" horiz-adv-x="1648" 
d="M147 0q-44 0 -34 45l168 799q3 14 -13 14h-86q-21 0 -30.5 12t-4.5 33l23 117q6 37 45 37h98q10 0 13 10l6 25q38 191 164 284.5t307 93.5q86 0 190 -22q40 -10 31 -49l-33 -156q-10 -40 -49 -31q-56 9 -100 9q-84 0 -129 -37t-60 -111v-4q0 -12 11 -12h370q10 0 13 10
l6 25q37 189 162.5 283.5t310.5 94.5q84 0 188 -22q40 -10 31 -49l-33 -156q-10 -40 -49 -31q-56 9 -100 9q-81 0 -126 -37t-63 -111v-4q0 -12 10 -12h244q21 0 30.5 -12t4.5 -33l-23 -117q-6 -37 -45 -37h-245q-10 0 -13 -10l-170 -811q-6 -37 -45 -37h-254q-44 0 -34 45
l167 799q3 14 -12 14h-360q-10 0 -13 -10l-170 -811q-6 -37 -45 -37h-254z" />
    <glyph glyph-name="f_f_i" unicode="ffi" horiz-adv-x="2113" 
d="M147 0q-44 0 -34 45l168 799q3 14 -13 14h-86q-21 0 -30.5 12t-4.5 33l23 117q6 37 45 37h98q10 0 13 10l6 25q38 191 164 284.5t307 93.5q86 0 190 -22q40 -10 31 -49l-33 -156q-10 -40 -49 -31q-56 9 -100 9q-84 0 -129 -37t-60 -111v-4q0 -12 11 -12h370q10 0 13 10
l6 25q37 190 163.5 284t309.5 94q84 0 188 -22q40 -10 31 -49l-33 -156q-10 -40 -49 -31q-56 9 -100 9q-159 0 -189 -148v-4q0 -12 10 -12h674q21 0 30.5 -12t4.5 -33l-207 -975q-6 -37 -45 -37h-256q-21 0 -30.5 12t-4.5 33l170 799q3 14 -12 14h-358q-10 0 -13 -10
l-170 -811q-6 -37 -45 -37h-254q-44 0 -34 45l167 799q3 14 -12 14h-360q-10 0 -13 -10l-170 -811q-6 -37 -45 -37h-254z" />
    <glyph glyph-name="f_f_l" unicode="ffl" horiz-adv-x="2111" 
d="M147 0q-44 0 -34 45l168 799q3 14 -13 14h-86q-21 0 -30.5 12t-4.5 33l23 117q6 37 45 37h98q10 0 13 10l6 25q38 191 164 284.5t307 93.5q86 0 190 -22q40 -10 31 -49l-33 -156q-10 -40 -49 -31q-56 9 -100 9q-84 0 -129 -37t-60 -111v-4q0 -12 11 -12h372q10 0 13 10
l4 23q44 213 191.5 304t406.5 91q178 0 481 -45q44 -6 35 -47l-287 -1356q-6 -37 -45 -37h-254q-21 0 -30.5 12t-4.5 33l250 1172q3 11 -10 14q-128 10 -144 10q-118 0 -182 -40.5t-84 -131.5q-1 -4 3 -8t10 -4h241q21 0 30.5 -12t4.5 -33l-23 -117q-6 -37 -45 -37h-247
q-10 0 -13 -10l-168 -811q-6 -37 -45 -37h-254q-44 0 -34 45l165 799q3 14 -12 14h-360q-10 0 -13 -10l-170 -811q-6 -37 -45 -37h-254z" />
    <glyph glyph-name="f_i" unicode="fi" horiz-adv-x="1390" 
d="M1335 1057q21 0 30.5 -12t4.5 -33l-207 -975q-6 -37 -45 -37h-254q-21 0 -30.5 12t-4.5 33l170 799q3 14 -12 14h-358q-10 0 -13 -10l-170 -811q-6 -37 -45 -37h-254q-44 0 -34 45l168 799q3 14 -13 14h-86q-21 0 -30.5 12t-4.5 33l23 117q6 37 45 37h98q10 0 13 10l6 25
q38 191 164 284.5t307 93.5q86 0 190 -22q40 -10 31 -49l-33 -156q-10 -40 -49 -31q-56 9 -100 9q-84 0 -129 -37t-60 -111v-4q0 -12 11 -12h671z" />
    <glyph glyph-name="f_l" unicode="fl" horiz-adv-x="1388" 
d="M332 1090q43 212 190.5 303.5t405.5 91.5q176 0 483 -45q44 -6 35 -47l-289 -1356q-6 -37 -45 -37h-256q-21 0 -30.5 12t-4.5 33l250 1172q3 11 -10 14q-112 10 -141 10q-119 0 -183 -40.5t-84 -131.5q-1 -4 3 -8t10 -4h241q21 0 30.5 -12t4.5 -33l-22 -117
q-6 -37 -46 -37h-247q-10 0 -13 -10l-168 -811q-6 -37 -45 -37h-254q-44 0 -34 45l168 799q3 14 -13 14h-86q-21 0 -30.5 12t-4.5 33l23 117q6 37 45 37h100q10 0 13 10z" />
    <glyph glyph-name="t_t" unicode="tt" horiz-adv-x="1626" 
d="M145 0q-44 0 -34 45l170 799q3 14 -13 14h-86q-21 0 -30.5 12t-4.5 33l23 117q6 37 45 37h100q10 0 13 10l49 229q6 37 45 37h235q20 0 30 -12.5t7 -32.5l-39 -219q-1 -6 3 -9t10 -3h348q9 0 12 10l47 229q6 37 45 37h246q21 0 30.5 -12t4.5 -33l-45 -217q-3 -14 12 -14
h238q44 0 34 -45l-22 -117q-6 -37 -45 -37h-242q-9 0 -12 -10l-96 -455q-18 -87 5.5 -121t98.5 -34q47 0 105 12q23 4 34.5 -7.5t6.5 -33.5l-33 -150q-7 -34 -37 -43q-121 -34 -225 -34q-192 0 -263.5 98.5t-29.5 300.5l98 463q3 14 -12 14h-340q-10 0 -13 -10l-174 -811
q-6 -37 -45 -37h-254z" />
    <glyph glyph-name=".notdef" horiz-adv-x="1241" 
 />
    <glyph glyph-name=".null" 
 />
    <glyph glyph-name="nonmarkingreturn" horiz-adv-x="682" 
 />
    <glyph glyph-name="space" unicode=" " horiz-adv-x="503" 
 />
    <glyph glyph-name="space" unicode="&#xa0;" horiz-adv-x="503" 
 />
    <glyph glyph-name="exclam" unicode="!" horiz-adv-x="608" 
d="M305 1397q5 37 43 37h279q21 0 29.5 -13.5t2.5 -34.5l-249 -856q-8 -34 -48 -34h-159q-20 0 -30 12.5t-7 32.5zM20 174q0 86 60.5 146.5t148.5 60.5t148.5 -60.5t60.5 -146.5t-62 -146.5t-149 -60.5q-86 0 -146.5 61t-60.5 146z" />
    <glyph glyph-name="quotedbl" unicode="&#x22;" horiz-adv-x="1077" 
d="M272 723q-42 0 -36 43l75 629q3 39 43 39h283q21 0 30 -13.5t3 -34.5l-185 -628q-8 -35 -47 -35h-166zM723 723q-43 0 -37 43l76 629q3 39 43 39h282q21 0 30 -13.5t3 -34.5l-184 -628q-8 -35 -47 -35h-166z" />
    <glyph glyph-name="numbersign" unicode="#" horiz-adv-x="1546" 
d="M88 315q-21 0 -30.5 12t-4.5 33l37 183q6 37 45 37h172q13 0 15 10l106 272q4 15 -8 15h-113q-22 0 -32 12.5t-5 32.5l37 180q6 37 45 37h180q12 0 15 10l100 252q13 33 47 33h205q22 0 31 -13t2 -35l-84 -233q-4 -14 10 -14h256q12 0 14 10l97 252q13 33 47 33h205
q22 0 30.5 -13t1.5 -35l-84 -233q-3 -14 11 -14h104q21 0 30.5 -12t4.5 -33l-37 -181q-6 -36 -45 -36h-172q-11 0 -14 -11l-109 -272q-6 -14 8 -14h117q21 0 30.5 -12t4.5 -33l-37 -183q-6 -37 -45 -37h-180q-12 0 -15 -10l-108 -272q-13 -33 -47 -33h-203q-22 0 -31 12.5
t-2 34.5l92 254q4 14 -10 14h-256q-12 0 -14 -10l-109 -272q-13 -33 -47 -33h-201q-22 0 -30.5 12.5t-1.5 34.5l92 254q3 14 -10 14h-107zM623 594q-6 -14 8 -14h254q11 0 14 10l109 272q6 15 -9 15h-254q-11 0 -14 -11z" />
    <glyph glyph-name="dollar" unicode="$" horiz-adv-x="1372" 
d="M362 424q35 0 44 -37q24 -83 120 -121q12 -3 15 8l71 308q4 12 -8 16h-2q-49 12 -82.5 21t-78.5 26t-75.5 35.5t-63.5 48t-52.5 64t-32 83.5t-12.5 107q0 134 79 244t215.5 172.5t303.5 66.5q9 0 12 11l41 172q9 34 45 34h90q22 0 32 -12.5t5 -32.5l-43 -174
q-4 -11 10 -14q180 -37 278.5 -145t94.5 -269q0 -39 -41 -39h-266q-35 0 -41 39q-16 92 -92 129q-14 7 -17 -6l-71 -305q-3 -10 10 -14l33 -9q152 -36 220 -70q179 -88 179 -286q0 -219 -173.5 -358t-455.5 -148q-9 0 -12 -10l-41 -174q-9 -35 -45 -35h-90q-22 0 -32 12.5
t-5 32.5l41 172q3 12 -10 15q-193 32 -300.5 139t-103.5 264q0 39 41 39h266zM559 1020q0 -83 103 -127q13 -3 16 8l63 273q1 7 -3 10.5t-13 1.5q-77 -15 -121.5 -59.5t-44.5 -106.5zM713 266q-3 -15 12 -12q86 15 136 59.5t50 108.5q0 49 -30.5 78.5t-87.5 50.5
q-12 3 -15 -8z" />
    <glyph glyph-name="percent" unicode="%" horiz-adv-x="1935" 
d="M418 0q-25 0 -32.5 13.5t7.5 35.5l1016 1360q17 25 49 25h125q25 0 32.5 -14t-7.5 -36l-1016 -1359q-17 -25 -49 -25h-125zM188 1069q90 391 424 391q199 0 269 -124t24 -341q-83 -397 -420 -397q-195 0 -271.5 122.5t-25.5 348.5zM422 1049q-16 -80 -17 -138t25.5 -90.5
t83.5 -32.5q113 0 160 224q31 123 14 190.5t-100 67.5q-66 0 -105 -54.5t-61 -166.5zM1112 455q41 186 146 288.5t278 102.5q198 0 268.5 -124.5t22.5 -340.5q-83 -397 -420 -397q-195 0 -271.5 122.5t-23.5 348.5zM1343 434q-16 -80 -16.5 -137.5t26 -90t83.5 -32.5
q59 0 98 57t63 166q16 82 18 139.5t-23.5 88t-82.5 30.5q-66 0 -105 -54.5t-61 -166.5z" />
    <glyph glyph-name="ampersand" unicode="&#x26;" horiz-adv-x="1476" 
d="M915 70q-11 17 -30 8q-196 -111 -402 -111q-195 0 -321.5 106.5t-126.5 264.5q0 146 97.5 254t277.5 153q27 7 10 31q-84 117 -84 260q0 196 138 315t353 119q188 0 304 -91t116 -234q0 -138 -105 -257.5t-276 -162.5q-20 -5 -21.5 -8.5t9.5 -20.5l127 -180q15 -20 31 0
q33 38 78 168q11 35 45 35h211q22 0 31.5 -13t2.5 -34q-77 -241 -219 -383q-12 -16 -2 -31l144 -209q14 -22 7 -35.5t-32 -13.5h-283q-29 0 -49 27zM342 426q0 -78 62.5 -133t164.5 -55q46 0 97 11t75 25q25 14 11 31l-224 316q-12 17 -34 8q-60 -24 -106 -79.5t-46 -123.5z
M666 1059q0 -87 82 -211q12 -18 32 -6q47 25 111.5 103t64.5 151q0 54 -38 88.5t-97 34.5q-68 0 -111.5 -45t-43.5 -115z" />
    <glyph glyph-name="quotesingle" unicode="'" horiz-adv-x="626" 
d="M272 723q-42 0 -36 43l75 629q3 39 43 39h283q21 0 30 -13.5t3 -34.5l-185 -628q-8 -35 -47 -35h-166z" />
    <glyph glyph-name="parenleft" unicode="(" horiz-adv-x="638" 
d="M158 -381q-37 0 -43 37q-41 220 -41 446q0 765 442 1454q18 27 51 27h217q25 0 33 -13.5t-4 -35.5q-199 -351 -304.5 -745.5t-105.5 -802.5q0 -165 21 -324q3 -20 -7.5 -31.5t-31.5 -11.5h-227z" />
    <glyph glyph-name="parenright" unicode=")" horiz-adv-x="636" 
d="M-127 -381q-25 0 -33 13.5t4 35.5q200 349 307 746.5t107 802.5q0 169 -22 323q-3 20 7.5 31.5t30.5 11.5h228q37 0 43 -37q39 -212 39 -446q0 -766 -441 -1454q-18 -27 -51 -27h-219z" />
    <glyph glyph-name="asterisk" unicode="*" horiz-adv-x="888" 
d="M418 770q-37 -75 -105 -56q-53 14 -87 70q-41 65 -9 118q16 27 51 44l207 98q7 3 10 7t0.5 7.5t-10.5 4.5l-211 18q-76 6 -84 73q-7 60 37 123q45 63 97 59q34 -2 61 -38l131 -176q6 -10 14.5 -7.5t5.5 15.5l-41 222q-15 81 54 107q59 23 129 -5q68 -27 79 -78
q9 -37 -18 -76l-127 -186q-7 -8 -2 -14t16 0l191 104q70 38 112 -25q36 -53 27 -128q-9 -76 -59 -94q-29 -10 -66 4l-194 71q-12 5 -16 -0.5t5 -15.5l150 -176q55 -65 10 -130q-34 -50 -97 -65q-71 -16 -104 32q-16 24 -18 62l-12 242q0 13 -7.5 14.5t-13.5 -10.5z" />
    <glyph glyph-name="plus" unicode="+" horiz-adv-x="1181" 
d="M481 1182q0 41 41 41h223q41 0 41 -41v-299q0 -13 13 -13h297q41 0 41 -41v-198q0 -41 -41 -41h-297q-13 0 -13 -12v-302q0 -40 -41 -40h-223q-41 0 -41 40v302q0 12 -12 12h-297q-41 0 -41 41v198q0 41 41 41h297q12 0 12 13v299z" />
    <glyph glyph-name="comma" unicode="," horiz-adv-x="651" 
d="M182 336q13 33 47 33h242q23 0 31.5 -14t-2.5 -36l-342 -632q-16 -29 -49 -29h-150q-23 0 -32 12.5t-1 34.5z" />
    <glyph glyph-name="hyphen" unicode="-" horiz-adv-x="778" 
d="M106 436q-44 0 -34 45l41 195q6 37 45 37h532q21 0 30.5 -12t4.5 -33l-41 -195q-6 -37 -45 -37h-533z" />
    <glyph glyph-name="period" unicode="." horiz-adv-x="608" 
d="M227 -31q-86 0 -146.5 61t-60.5 146q0 86 60.5 146.5t148.5 60.5t148.5 -60.5t60.5 -146.5t-62 -146.5t-149 -60.5z" />
    <glyph glyph-name="slash" unicode="/" horiz-adv-x="860" 
d="M-33 0q-23 0 -31 13.5t3 35.5l743 1356q14 29 49 29h242q23 0 31 -14t-3 -36l-743 -1355q-14 -29 -49 -29h-242z" />
    <glyph glyph-name="zero" unicode="0" horiz-adv-x="1433" 
d="M639 -31q-251 0 -383.5 132.5t-132.5 381.5q0 149 34.5 294t100.5 268.5t155.5 218t208 148.5t248.5 54q258 0 390.5 -127t132.5 -370q0 -196 -54 -376.5t-150 -319t-239.5 -221.5t-310.5 -83zM498 477q0 -122 42 -180.5t132 -58.5q64 0 120.5 47.5t97 124.5t70 171.5
t44 190.5t14.5 180q0 127 -42.5 186.5t-131.5 59.5q-80 0 -147.5 -70.5t-109.5 -180t-65.5 -233t-23.5 -237.5z" />
    <glyph glyph-name="one" unicode="1" horiz-adv-x="935" 
d="M475 1032q-56 -56 -120.5 -83t-161.5 -31q-22 -1 -32 11t-5 32l47 239q6 37 47 37q148 5 233 42.5t154 129.5q19 25 49 25h213q21 0 30.5 -12t4.5 -33l-281 -1352q-6 -37 -45 -37h-282q-21 0 -30.5 12t-4.5 33l203 977q3 13 -4 15.5t-15 -5.5z" />
    <glyph glyph-name="two" unicode="2" horiz-adv-x="1333" 
d="M51 274q5 26 33 45q50 30 143.5 85.5t152.5 90.5t144 88.5t139 93.5t115.5 92.5t97 96.5t59 94t23.5 97q0 66 -41.5 102.5t-117.5 36.5q-74 0 -126.5 -41t-78.5 -119q-12 -35 -47 -35h-264q-22 0 -32 13t-5 33q57 212 199.5 314.5t379.5 102.5q238 0 365 -95.5
t127 -276.5q0 -78 -28 -152t-67 -132.5t-112.5 -122.5t-131 -106t-158 -100t-159 -88t-166.5 -84l-12 -6q-11 -6 -8 -15t14 -7q129 18 297 18h314q21 0 30.5 -12t4.5 -33l-43 -215q-6 -37 -45 -37h-1006q-22 0 -32 12.5t-5 32.5z" />
    <glyph glyph-name="three" unicode="3" horiz-adv-x="1353" 
d="M629 -33q-259 0 -408 123.5t-131 351.5q3 39 43 39h264q38 0 41 -43q3 -188 199 -188q102 0 161.5 61t59.5 166q0 141 -178 141h-51q-21 0 -30.5 12.5t-4.5 33.5l33 165q6 37 45 37h78q101 0 160 52t59 143q0 59 -41.5 93t-114.5 34q-82 0 -134 -37.5t-83 -116.5
q-14 -33 -47 -33h-262q-22 0 -31.5 13t-3.5 35q65 214 210.5 313.5t385.5 101.5q213 1 342 -96t129 -248q0 -139 -87 -237t-220 -113q-13 -1 -13 -13t11 -14q97 -14 154 -86.5t57 -187.5q0 -227 -162 -364.5t-430 -137.5z" />
    <glyph glyph-name="four" unicode="4" horiz-adv-x="1413" 
d="M684 0q-22 0 -32 12.5t-5 32.5l49 231q3 15 -12 15h-590q-22 0 -32 12.5t-5 32.5l56 268q7 30 24 47l742 762q18 21 51 21h323q21 0 30.5 -12t4.5 -33l-170 -816q-3 -14 12 -14h119q21 0 30.5 -12t4.5 -33l-37 -186q-6 -37 -45 -37h-131q-9 0 -12 -10l-51 -244
q-6 -37 -45 -37h-279zM389 573q-11 -14 6 -14h361q9 0 12 10l113 547q2 9 -7.5 12.5t-15.5 -6.5q-38 -67 -99 -140.5t-167 -188.5z" />
    <glyph glyph-name="five" unicode="5" horiz-adv-x="1318" 
d="M389 418q38 0 41 -41q18 -154 184 -154q119 0 189.5 85.5t70.5 215.5q0 94 -54 145.5t-142 51.5q-129 0 -195 -109q-21 -34 -55 -22l-215 80q-37 15 -25 53l256 678q13 33 48 33h792q21 0 30.5 -12t4.5 -33l-37 -187q-6 -37 -45 -37h-547q-12 0 -14 -10l-113 -285
q-5 -12 4 -16t19 6q96 96 270 96q152 0 249 -104t97 -283q0 -273 -164.5 -437.5t-427.5 -164.5q-147 0 -261.5 44.5t-185 138.5t-75.5 227q-3 41 41 41h260z" />
    <glyph glyph-name="six" unicode="6" horiz-adv-x="1345" 
d="M518 788q136 160 350 160q166 0 265.5 -104.5t99.5 -284.5q0 -270 -165.5 -431t-434.5 -161q-199 0 -326 99t-164 276t11 422q68 321 257.5 511.5t442.5 190.5q209 0 328.5 -92.5t142.5 -267.5q3 -20 -7.5 -31.5t-31.5 -11.5h-244q-36 0 -45 39q-23 108 -172 108
q-118 0 -204.5 -105t-131.5 -308q-3 -12 8.5 -15t20.5 6zM459 424q0 -88 50.5 -139.5t141.5 -51.5q109 0 177.5 77.5t68.5 203.5q0 84 -50.5 133t-135.5 49q-112 0 -182 -76t-70 -196z" />
    <glyph glyph-name="seven" unicode="7" horiz-adv-x="1153" 
d="M938 1165h-684q-21 0 -30.5 12t-4.5 33l37 187q6 37 45 37h924q21 0 30.5 -12t4.5 -33l-39 -193q-5 -23 -27 -45q-273 -257 -408 -503.5t-217 -610.5q-9 -37 -45 -37h-293q-45 0 -36 45q86 343 282 624t465 468q8 5 11.5 11.5t-0.5 11.5t-15 5z" />
    <glyph glyph-name="eight" unicode="8" horiz-adv-x="1329" 
d="M598 -33q-248 0 -392.5 107t-144.5 291q0 146 91.5 259.5t253.5 137.5q11 2 11.5 12.5t-9.5 13.5q-65 20 -106.5 83.5t-41.5 144.5q0 208 150 329t403 121q230 0 364 -90.5t134 -259.5q0 -123 -75 -225.5t-189 -134.5q-10 -3 -9.5 -13.5t9.5 -13.5q82 -27 132 -94
t50 -158q0 -235 -170 -372.5t-461 -137.5zM420 412q0 -85 58.5 -128.5t152.5 -43.5q114 0 182 62t68 167q0 84 -57.5 126t-151.5 42q-117 0 -184.5 -61t-67.5 -164zM573 1014q0 -72 50.5 -111t134.5 -39q92 0 159.5 55.5t67.5 149.5q0 72 -50 110t-136 38q-103 0 -164.5 -55
t-61.5 -148z" />
    <glyph glyph-name="nine" unicode="9" horiz-adv-x="1421" 
d="M944 641q-122 -156 -326 -156q-168 0 -276.5 105t-108.5 284q0 269 166 430.5t437 161.5q198 0 324 -98.5t163 -274.5t-10 -419q-67 -320 -255.5 -513.5t-445.5 -193.5q-206 0 -327.5 92.5t-143.5 268.5q-3 20 7.5 31.5t31.5 11.5h244q36 0 45 -39q26 -109 172 -109
q118 0 204 105t130 305q3 17 -8.5 19.5t-22.5 -11.5zM571 920q0 -84 49.5 -133.5t133.5 -49.5q111 0 181.5 76.5t70.5 198.5q0 87 -51 137.5t-140 50.5q-110 0 -177 -77t-67 -203z" />
    <glyph glyph-name="colon" unicode=":" horiz-adv-x="610" 
d="M362 604q-86 0 -146 61t-60 146q0 86 60.5 146.5t148.5 60.5q87 0 147.5 -60t60.5 -147q0 -86 -62 -146.5t-149 -60.5zM23 176q0 86 60.5 146.5t147.5 60.5q88 0 148.5 -60.5t60.5 -146.5t-62 -146.5t-149 -60.5q-86 0 -146 61t-60 146z" />
    <glyph glyph-name="semicolon" unicode=";" horiz-adv-x="651" 
d="M401 604q-86 0 -146 61t-60 146q0 87 60.5 147t147.5 60q88 0 148.5 -60.5t60.5 -146.5t-62 -146.5t-149 -60.5zM-41 -342q-23 0 -32 12.5t-1 34.5l256 631q13 33 47 33h242q23 0 31.5 -14t-2.5 -36l-342 -632q-16 -29 -49 -29h-150z" />
    <glyph glyph-name="less" unicode="&#x3c;" horiz-adv-x="1140" 
d="M381 713q0 -5 10 -8q33 -10 137.5 -39.5t161.5 -47.5l326 -102q35 -12 35 -45v-240q0 -48 -47 -32l-885 338q-33 13 -33 47v256q0 34 33 47l885 338q22 8 34.5 -1t12.5 -32v-238q0 -33 -35 -45l-326 -104q-102 -31 -299 -84q-10 -3 -10 -8z" />
    <glyph glyph-name="equal" unicode="=" horiz-adv-x="1181" 
d="M1053 1065q41 0 41 -41v-180q0 -41 -41 -41h-924q-41 0 -41 41v180q0 41 41 41h924zM129 393q-41 0 -41 41v180q0 41 41 41h924q41 0 41 -41v-180q0 -41 -41 -41h-924z" />
    <glyph glyph-name="greater" unicode="&#x3e;" horiz-adv-x="1140" 
d="M834 713q0 4 -11 8q-197 53 -299 84l-325 104q-35 12 -35 45v238q0 23 12.5 32t34.5 1l885 -338q32 -13 32 -47v-256q0 -34 -32 -47l-885 -338q-47 -16 -47 32v240q0 33 35 45l325 102q57 18 161.5 47.5t137.5 39.5q11 4 11 8z" />
    <glyph glyph-name="question" unicode="?" horiz-adv-x="1138" 
d="M424 477q-44 0 -35 45q30 135 84 208t184 147q83 47 120 82t50 88q17 72 -15 109.5t-110 37.5q-82 0 -130 -45t-72 -139q-9 -37 -45 -37h-256q-47 0 -35 45q55 237 195.5 344.5t390.5 107.5q241 0 360.5 -109t77.5 -314q-38 -176 -221 -289q-152 -93 -194 -133t-62 -113
q-9 -35 -45 -35h-242zM307 174q0 86 60.5 146.5t148.5 60.5t148.5 -60.5t60.5 -146.5t-62 -146.5t-149 -60.5q-86 0 -146.5 61t-60.5 146z" />
    <glyph glyph-name="at" unicode="@" horiz-adv-x="1964" 
d="M848 -244q-357 0 -556.5 195t-199.5 524q0 209 83 394.5t226 319t343 211t425 77.5q123 0 233.5 -23t206.5 -73t166 -124t110 -181.5t40 -239.5q0 -127 -37 -247.5t-104 -217t-172 -155t-230 -58.5q-109 0 -195 41.5t-112 107.5q-12 29 -31 2q-89 -123 -251 -123
q-128 0 -198.5 97t-70.5 243q0 148 56.5 274t152.5 199.5t209 73.5q153 0 215 -121q4 -8 9 -11.5t9.5 -1t6.5 10.5l14 70q6 37 45 37h234q44 0 34 -45l-112 -535q-22 -108 61 -108q64 0 116.5 68.5t79.5 168.5t27 203q0 227 -141.5 339t-390.5 112q-190 0 -347 -64
t-258 -171.5t-155.5 -245.5t-54.5 -290q0 -251 147 -389.5t420 -138.5q199 0 367 57q23 7 34.5 -3t6.5 -33l-25 -121q-7 -35 -37 -43q-186 -62 -399 -62zM827 535q0 -66 29 -103t86 -37q126 0 164 191l16 84q39 194 -86 194q-54 0 -96.5 -35t-65.5 -88.5t-35 -106.5t-12 -99
z" />
    <glyph glyph-name="A" unicode="A" horiz-adv-x="1529" 
d="M330 29q-14 -29 -47 -29h-297q-23 0 -31.5 14.5t2.5 34.5l748 1356q15 29 49 29h379q40 0 45 -37l192 -1354q3 -20 -7.5 -31.5t-31.5 -11.5h-289q-40 0 -43 39l-26 260q0 4 -5 8t-10 4h-471q-11 0 -14 -8zM627 596q-6 -14 8 -14h295q10 0 10 12l-18 192q-19 200 -19 340
q0 12 -9.5 13.5t-14.5 -9.5q-113 -264 -158 -350z" />
    <glyph glyph-name="B" unicode="B" horiz-adv-x="1427" 
d="M80 0q-21 0 -30.5 12t-4.5 33l281 1352q6 37 45 37h704q172 0 262 -68t90 -201q0 -136 -98.5 -240t-232.5 -122q-9 -1 -12 -6.5t0.5 -10.5t11.5 -6q103 -14 169 -92.5t66 -200.5q0 -119 -46.5 -212.5t-129 -153t-192.5 -90.5t-240 -31h-643zM461 293q-3 -14 12 -14h238
q118 0 185 51t67 141q0 63 -41.5 94t-130.5 31h-256q-10 0 -13 -10zM578 854q-3 -14 12 -14h233q94 0 152.5 59t58.5 135q0 121 -141 121h-240q-9 0 -12 -10z" />
    <glyph glyph-name="C" unicode="C" horiz-adv-x="1556" 
d="M1397 469q22 0 32 -13t1 -34q-89 -224 -264.5 -339.5t-422.5 -115.5q-299 0 -463.5 150.5t-164.5 445.5q0 183 64.5 349t176.5 288t273 194t344 72q243 0 392.5 -113.5t172.5 -312.5q6 -43 -39 -43h-295q-34 0 -43 37q-20 69 -77.5 111.5t-147.5 42.5
q-103 0 -189.5 -59.5t-139.5 -153t-82 -201t-29 -211.5q0 -161 70.5 -239t195.5 -78q106 0 182 50.5t119 141.5q15 31 49 31h285z" />
    <glyph glyph-name="D" unicode="D" horiz-adv-x="1536" 
d="M674 283q127 0 229 75t157.5 189t63.5 244q7 103 -18.5 183.5t-90.5 130.5t-163 50h-197q-9 0 -12 -10l-182 -848q-3 -14 12 -14h201zM80 0q-21 0 -30.5 12t-4.5 33l285 1352q6 37 45 37h586q139 0 245 -45t170 -126.5t93.5 -191t23.5 -242.5q-6 -135 -41.5 -256.5
t-103.5 -227t-163 -182t-228 -120t-291 -43.5h-586z" />
    <glyph glyph-name="E" unicode="E" horiz-adv-x="1316" 
d="M78 0q-21 0 -30.5 12t-4.5 33l287 1352q6 37 45 37h993q21 0 30.5 -12t4.5 -33l-39 -197q-6 -37 -45 -37h-668q-9 0 -12 -10l-53 -258q-3 -15 12 -15h578q22 0 31.5 -12t4.5 -33l-38 -188q-6 -37 -46 -37h-591q-10 0 -13 -10l-65 -299q-3 -14 12 -14h657q21 0 30.5 -12.5
t4.5 -33.5l-39 -196q-6 -37 -45 -37h-1001z" />
    <glyph glyph-name="F" unicode="F" horiz-adv-x="1243" 
d="M78 0q-21 0 -30.5 12t-4.5 33l287 1352q6 37 45 37h946q21 0 30.5 -12t4.5 -33l-39 -197q-6 -37 -45 -37h-619q-9 0 -12 -10l-68 -316q-3 -14 13 -14h557q22 0 32 -12.5t5 -32.5l-39 -188q-6 -37 -45 -37h-572q-9 0 -12 -10l-106 -498q-6 -37 -46 -37h-282z" />
    <glyph glyph-name="G" unicode="G" horiz-adv-x="1601" 
d="M627 -33q-77 0 -149.5 20.5t-140 66.5t-117 113t-79.5 167t-30 221q0 250 110 458t309.5 330.5t448.5 122.5q241 0 389.5 -113.5t171.5 -312.5q6 -43 -39 -43h-295q-34 0 -43 37q-20 69 -77.5 111.5t-147.5 42.5q-124 0 -226 -82t-159 -219t-57 -297q0 -75 13.5 -135
t43.5 -108.5t82.5 -75.5t124.5 -27q125 0 225.5 74t142.5 194q4 14 -10 14h-284q-21 0 -30.5 12t-4.5 33l32 162q6 37 46 37h604q21 0 30.5 -12t4.5 -33l-148 -688q-6 -37 -45 -37h-217q-20 0 -30 12.5t-7 32.5l25 131q2 9 -5.5 12t-13.5 -4q-88 -110 -196.5 -163.5
t-251.5 -53.5z" />
    <glyph glyph-name="H" unicode="H" horiz-adv-x="1519" 
d="M80 0q-21 0 -30.5 12t-4.5 33l285 1352q6 37 45 37h280q21 0 30.5 -12t4.5 -33l-106 -519q-3 -14 12 -14h471q9 0 12 10l115 531q6 37 45 37h281q44 0 34 -45l-284 -1352q-6 -37 -45 -37h-283q-21 0 -30.5 12t-4.5 33l111 520q3 15 -12 15h-476q-8 0 -12 -11l-110 -532
q-6 -37 -46 -37h-282z" />
    <glyph glyph-name="I" unicode="I" horiz-adv-x="655" 
d="M330 1397q6 37 45 37h280q21 0 30.5 -12t4.5 -33l-284 -1352q-6 -37 -46 -37h-282q-21 0 -30.5 12t-4.5 33z" />
    <glyph glyph-name="J" unicode="J" horiz-adv-x="1259" 
d="M78 494l10 43q9 34 45 34h266q22 0 32 -12.5t5 -32.5l-8 -37q-23 -128 7 -185.5t122 -57.5q74 0 125.5 55t73.5 156l198 940q6 37 45 37h279q21 0 30.5 -12t4.5 -33l-197 -953q-26 -125 -82 -216.5t-135 -146t-174 -80.5t-209 -26q-117 0 -209.5 33t-154.5 98.5
t-82 164.5t8 231z" />
    <glyph glyph-name="K" unicode="K" horiz-adv-x="1529" 
d="M82 0q-21 0 -30.5 12t-4.5 33l283 1352q6 37 45 37h282q22 0 32 -12.5t5 -32.5l-127 -574q-2 -10 5 -14t16 6q147 174 291 315l295 291q21 21 49 21h354q28 0 34 -16t-16 -36l-331 -303q-73 -65 -267 -235q-9 -7 -7 -14.5t14 -10.5q89 -23 135 -76.5t71 -158.5l125 -539
q5 -20 -5 -32.5t-32 -12.5h-286q-35 0 -45 37l-84 375q-22 97 -56 126t-129 29q-8 0 -14 -6l-201 -192q-1 -1 -8 -15l-65 -317q-6 -37 -45 -37h-283z" />
    <glyph glyph-name="L" unicode="L" horiz-adv-x="1224" 
d="M78 0q-21 0 -30.5 12t-4.5 33l287 1352q6 37 45 37h282q21 0 30.5 -12t4.5 -33l-233 -1096q-3 -14 12 -14h588q21 0 30.5 -12.5t4.5 -33.5l-39 -196q-6 -37 -45 -37h-932z" />
    <glyph glyph-name="M" unicode="M" horiz-adv-x="1861" 
d="M80 0q-21 0 -30.5 12t-4.5 33l285 1352q6 37 45 37h438q38 0 41 -39l35 -492q26 -361 26 -401q0 -7 5 -10t11 -1.5t9 7.5q41 82 96 215.5t78 185.5l223 504q12 31 49 31h478q44 0 34 -45l-286 -1352q-6 -37 -45 -37h-258q-22 0 -32 12.5t-5 32.5l133 582q13 59 51 207.5
t60 242.5q3 13 -7.5 15.5t-15.5 -7.5q-29 -56 -111.5 -233.5t-107.5 -230.5l-283 -590q-13 -31 -47 -31h-211q-38 0 -41 39l-45 600q-5 61 -11.5 163t-11.5 176t-8 101q-1 8 -6 11t-10 0.5t-6 -9.5q-34 -220 -74 -417l-123 -627q-6 -37 -45 -37h-272z" />
    <glyph glyph-name="N" unicode="N" horiz-adv-x="1527" 
d="M565 965q-29 -205 -71 -412l-105 -516q-6 -37 -45 -37h-266q-21 0 -30.5 12t-4.5 33l287 1352q6 37 45 37h323q36 0 45 -33l168 -522q25 -77 63.5 -203t51.5 -166q3 -9 12 -8t11 10q0 4 10.5 68.5t29 168t35.5 185.5l95 463q6 37 45 37h266q21 0 30.5 -12t4.5 -33
l-287 -1352q-6 -37 -45 -37h-309q-36 0 -47 33l-172 508q-16 46 -29 87.5t-27 93.5t-19.5 73t-23 90.5t-20.5 81.5t-11 10.5t-10 -12.5z" />
    <glyph glyph-name="O" unicode="O" horiz-adv-x="1613" 
d="M719 -31q-276 0 -442 160t-166 428q0 186 66.5 354t180.5 290t274 193.5t339 71.5q288 0 453.5 -157t160.5 -422t-116.5 -474.5t-307.5 -326.5t-442 -117zM487 573q0 -150 72.5 -237.5t200.5 -87.5q96 0 180 55t140 144t88 200.5t32 226.5q0 156 -72 235t-188 79
q-98 0 -184 -54.5t-144 -142t-91.5 -197t-33.5 -221.5z" />
    <glyph glyph-name="P" unicode="P" horiz-adv-x="1406" 
d="M84 0q-21 0 -30.5 12t-4.5 33l281 1352q6 37 45 37h618q143 0 247.5 -59.5t150.5 -164.5t22 -235q-43 -237 -215.5 -370.5t-437.5 -133.5h-248q-9 0 -12 -10l-88 -424q-6 -37 -45 -37h-283zM553 731q-3 -14 12 -14h203q105 0 180 62.5t92 162.5q19 103 -30 158t-154 55
h-201q-9 0 -12 -10z" />
    <glyph glyph-name="Q" unicode="Q" horiz-adv-x="1615" 
d="M649 -106q-125 46 -221 106t-168 141t-109.5 186.5t-37.5 233.5q-1 185 65.5 352t181 288.5t277.5 193t348 71.5q277 0 437.5 -158t160.5 -427q0 -228 -87.5 -414.5t-249 -304t-372.5 -144.5q-8 -1 -10.5 -7t0.5 -11.5t10 -5.5l488 -23q41 -3 35 -45l-45 -243
q-3 -20 -17.5 -28t-34.5 -1zM487 573q0 -150 72.5 -237.5t200.5 -87.5q96 0 180 55t140 144t88 200.5t32 226.5q0 156 -72 235t-188 79q-98 0 -184 -54.5t-144 -142t-91.5 -197t-33.5 -221.5z" />
    <glyph glyph-name="R" unicode="R" horiz-adv-x="1435" 
d="M80 0q-21 0 -30.5 12t-4.5 33l285 1352q6 37 45 37h702q177 0 272 -89.5t95 -234.5q0 -142 -88 -251.5t-234 -141.5q-9 -2 -11.5 -6t0.5 -8t11 -5q70 -12 107.5 -69t34.5 -150l-15 -438q0 -19 -12 -30t-31 -11h-286q-44 0 -41 43l16 283q6 100 -30.5 133t-139.5 33h-211
q-8 0 -12 -11l-94 -444q-6 -37 -46 -37h-282zM557 752q-3 -15 12 -15h219q67 0 120.5 22.5t85.5 59.5t48.5 81t16.5 89q0 77 -43.5 121.5t-132.5 44.5h-230q-9 0 -12 -10z" />
    <glyph glyph-name="S" unicode="S" horiz-adv-x="1372" 
d="M362 424q35 0 44 -37q20 -66 81 -101.5t152 -37.5q122 -2 197 46.5t75 127.5q0 35 -16.5 61t-50.5 43.5t-65 27.5t-81 21l-96 23q-49 12 -82.5 21t-78.5 26t-75.5 35.5t-63.5 48t-52.5 64t-32 83.5t-12.5 107q0 137 82.5 248t224 173t311.5 62q255 0 402 -116t143 -314
q0 -39 -41 -39h-266q-35 0 -41 39q-11 74 -68.5 115t-150.5 41q-109 0 -175.5 -48t-66.5 -124q0 -62 53 -99.5t168 -64.5l103 -25q152 -36 220 -70q179 -88 179 -286q0 -226 -184 -366t-480 -140q-263 0 -415.5 113t-147.5 303q0 39 41 39h266z" />
    <glyph glyph-name="T" unicode="T" horiz-adv-x="1333" 
d="M250 1155q-22 0 -32 12.5t-5 32.5l39 197q6 37 43 37h1112q22 0 32 -12.5t5 -32.5l-39 -197q-6 -37 -45 -37h-367q-9 0 -12 -10l-236 -1108q-6 -37 -45 -37h-282q-21 0 -30.5 12t-4.5 33l233 1096q3 14 -12 14h-354z" />
    <glyph glyph-name="U" unicode="U" horiz-adv-x="1480" 
d="M152 649l159 748q6 37 45 37h283q21 0 30.5 -12t4.5 -33l-168 -791q-34 -160 9 -253t171 -93q117 0 198 75.5t111 221.5l176 848q6 37 46 37h284q21 0 30.5 -12t4.5 -33l-182 -883q-23 -108 -73.5 -198.5t-117 -152.5t-147.5 -105t-164.5 -63t-167.5 -20q-92 0 -171 16
t-149.5 50t-119.5 88t-80.5 130t-33.5 175t22 223z" />
    <glyph glyph-name="V" unicode="V" horiz-adv-x="1472" 
d="M459 0q-37 0 -43 39l-176 1352q-6 43 36 43h297q40 0 43 -39l39 -500q6 -75 15 -284.5t14 -260.5q2 -16 13.5 -19t19.5 15q103 250 248 541l258 516q15 31 47 31h297q23 0 31 -14t-3 -36l-721 -1355q-16 -29 -49 -29h-366z" />
    <glyph glyph-name="W" unicode="W" horiz-adv-x="2027" 
d="M332 0q-40 0 -43 39l-66 1354q-3 41 41 41h297q41 0 41 -41v-523q0 -92 -4 -243t-4 -203q0 -14 11 -14.5t16 12.5q16 48 43.5 121.5t67.5 173t61 155.5l200 529q13 33 47 33h297q41 0 41 -41l-4 -539q0 -82 -3 -245t-3 -185q0 -14 11 -14.5t16 12.5q11 33 41.5 111.5
t73.5 188t61 157.5l203 522q13 33 47 33h293q23 0 31 -14t-1 -36l-631 -1353q-13 -31 -47 -31h-338q-38 0 -38 41l14 614q0 14 7 154t7 170q0 13 -10 14t-14 -10q-26 -73 -129 -326l-252 -624q-13 -33 -47 -33h-334z" />
    <glyph glyph-name="X" unicode="X" horiz-adv-x="1452" 
d="M2 0q-26 0 -32.5 15.5t10.5 35.5l583 684q6 6 2 17l-260 634q-9 22 -0.5 35t31.5 13h323q37 0 48 -33l16 -47q17 -49 55 -168t51 -152q4 -12 11.5 -12.5t13.5 8.5q142 208 242 332l39 47q19 25 49 25h317q27 0 34.5 -15t-9.5 -37l-525 -626q-6 -6 -2 -17l285 -692
q9 -22 0.5 -34.5t-31.5 -12.5h-319q-34 0 -47 33l-17 39q-42 104 -137 385q-6 12 -12 11.5t-12 -7.5q-13 -17 -128.5 -173.5t-168.5 -224.5l-31 -38q-19 -25 -49 -25h-330z" />
    <glyph glyph-name="Y" unicode="Y" horiz-adv-x="1447" 
d="M250 1386q-7 21 3 34.5t32 13.5h315q34 0 45 -33l68 -203q21 -63 49.5 -164.5t32.5 -132.5q2 -9 8.5 -10t11.5 8q37 73 209 309l147 201q17 25 50 25h313q26 0 33 -15t-8 -35l-637 -813l-7 -14l-108 -520q-6 -37 -45 -37h-285q-21 0 -30.5 12t-4.5 33l109 514q4 8 0 16z
" />
    <glyph glyph-name="Z" unicode="Z" horiz-adv-x="1359" 
d="M25 0q-21 0 -30.5 12t-4.5 33l47 219q5 24 26 45l834 813q9 7 6 15t-12 6q-94 -15 -449 -15h-143q-21 0 -30.5 12.5t-4.5 33.5l45 223q6 37 45 37h1039q44 0 34 -45l-43 -211q-5 -24 -26 -45l-846 -822q-7 -7 -4 -15.5t12 -6.5q91 16 402 16h245q21 0 30.5 -12t4.5 -33
l-47 -223q-6 -37 -45 -37h-1085z" />
    <glyph glyph-name="bracketleft" unicode="[" horiz-adv-x="784" 
d="M-20 -385q-21 0 -30.5 12t-4.5 33l397 1911q6 37 45 37h531q44 0 34 -45l-41 -193q-6 -37 -45 -37h-245q-10 0 -13 -10l-297 -1419q-3 -15 13 -15h233q21 0 30.5 -12t4.5 -33l-39 -192q-6 -37 -45 -37h-528z" />
    <glyph glyph-name="backslash" unicode="\" horiz-adv-x="1427" 
d="M1264 49q10 -22 2 -35.5t-31 -13.5h-229q-36 0 -50 29l-712 1355q-11 22 -3 36t31 14h230q34 0 49 -29z" />
    <glyph glyph-name="bracketright" unicode="]" horiz-adv-x="784" 
d="M477 -348q-6 -37 -45 -37h-528q-22 0 -32 12.5t-5 32.5l39 193q6 36 45 36h246q8 0 12 11l299 1419q3 14 -12 14h-234q-21 0 -30.5 12t-4.5 33l39 193q6 37 45 37h531q21 0 30.5 -12t4.5 -33z" />
    <glyph glyph-name="asciicircum" unicode="^" horiz-adv-x="921" 
d="M504 1186q-5 0 -8 -10q-15 -44 -95 -230l-30 -67q-13 -31 -47 -31h-203q-23 0 -31.5 13.5t0.5 35.5l244 506q13 31 47 31h244q34 0 47 -31l243 -506q10 -22 1.5 -35.5t-31.5 -13.5h-203q-34 0 -47 31l-31 63q-75 176 -92 234q-3 10 -8 10z" />
    <glyph glyph-name="underscore" unicode="_" horiz-adv-x="1046" 
d="M-113 -356q-44 0 -34 45l32 159q6 37 45 37h910q44 0 34 -45l-32 -159q-6 -37 -45 -37h-910z" />
    <glyph glyph-name="grave" unicode="`" horiz-adv-x="692" 
d="M766 1219q-15 -36 -53 -21l-455 191q-37 15 -22 53l55 121q15 37 53 20l449 -199q35 -15 20 -53z" />
    <glyph glyph-name="a" unicode="a" horiz-adv-x="1282" 
d="M201 725q-22 0 -32 13t-1 34q134 318 573 318q251 0 364.5 -101.5t76.5 -283.5l-138 -668q-6 -37 -45 -37h-239q-20 0 -30 12.5t-7 32.5l10 68q1 10 -4.5 14t-11.5 -2q-155 -158 -367 -158q-142 0 -228.5 68.5t-86.5 195.5q0 137 102 224t283 106l141 14q85 9 144 24
t90 36t45 42.5t18 49.5q9 59 -31 88t-129 29q-149 0 -202 -88q-19 -31 -47 -31h-248zM377 268q0 -45 29.5 -70t85.5 -24q97 2 190.5 70.5t114.5 173.5l8 41q2 10 -5.5 13t-17.5 -5q-49 -39 -200 -61l-72 -11q-66 -9 -99.5 -43.5t-33.5 -83.5z" />
    <glyph glyph-name="b" unicode="b" horiz-adv-x="1347" 
d="M57 0q-44 0 -34 45l290 1385q6 36 45 36h254q21 0 30.5 -12t4.5 -33l-102 -477q-3 -13 7 -17t19 5q158 158 353 158q165 0 258.5 -118.5t93.5 -303.5q0 -97 -26.5 -197t-77.5 -190t-119 -161t-158.5 -113t-189.5 -42t-173.5 45.5t-119.5 110.5q-7 10 -15 13t-14 -1.5
t-8 -15.5l-19 -80q-10 -37 -45 -37h-254zM449 475q-31 -137 16.5 -211t144.5 -74q73 0 135.5 41.5t102 107.5t62 144.5t22.5 155.5q0 112 -47 170.5t-127 58.5q-94 0 -174 -72t-107 -192z" />
    <glyph glyph-name="c" unicode="c" horiz-adv-x="1208" 
d="M1047 360q22 0 30.5 -12.5t1.5 -34.5q-69 -177 -208.5 -261.5t-323.5 -84.5q-225 0 -348 120.5t-123 344.5q0 183 80 333t226 237.5t331 87.5q192 0 309 -90.5t133 -233.5q3 -41 -41 -41h-252q-32 0 -47 35q-31 82 -131 82q-83 0 -147 -68t-93.5 -161t-29.5 -189
q0 -209 164 -209q60 0 107 29.5t73 83.5q14 32 47 32h242z" />
    <glyph glyph-name="d" unicode="d" horiz-adv-x="1345" 
d="M1372 1466q21 0 30.5 -12t4.5 -33l-289 -1384q-6 -37 -45 -37h-250q-22 0 -32 12.5t-5 32.5l15 68q3 13 -7.5 17t-19.5 -5q-158 -158 -350 -158q-111 0 -193 61.5t-121.5 160t-39.5 219.5q0 95 25.5 192t75.5 185t116.5 157t156.5 109.5t189 40.5q193 0 301 -156
q7 -10 15 -13t14 1.5t8 15.5l102 490q6 36 45 36h254zM414 418q0 -113 47 -171.5t127 -58.5q92 0 172.5 72t107.5 193l29 129q31 136 -17.5 210t-146.5 74q-72 0 -134 -41.5t-101.5 -107.5t-61.5 -144t-22 -155z" />
    <glyph glyph-name="e" unicode="e" horiz-adv-x="1245" 
d="M1038 324q22 0 32 -13.5t1 -34.5q-64 -152 -205.5 -230.5t-326.5 -78.5q-208 0 -336.5 118t-128.5 337q0 185 79 337.5t222.5 241.5t322.5 89q213 0 338 -117t125 -311q0 -90 -22 -168q-8 -35 -45 -35h-699q-12 0 -12 -13q-6 -109 41 -170t139 -61q128 0 187 82
q18 27 49 27h239zM430 647q-4 -14 10 -14h391q12 0 15 12q6 91 -38 144t-132 53q-86 0 -152.5 -51.5t-93.5 -143.5z" />
    <glyph glyph-name="f" unicode="f" horiz-adv-x="925" 
d="M145 0q-44 0 -34 45l168 799q3 14 -13 14h-84q-21 0 -30.5 12t-4.5 33l23 117q6 37 45 37h96q10 0 13 10l6 25q26 127 93.5 213t162 125.5t213.5 39.5q88 0 192 -22q40 -10 31 -49l-33 -156q-9 -39 -49 -33q-51 11 -100 11q-86 0 -129 -38.5t-58 -109.5v-2q-3 -14 11 -14
h241q21 0 30.5 -12t4.5 -33l-22 -117q-6 -37 -46 -37h-245q-10 0 -13 -10l-170 -811q-6 -37 -45 -37h-254z" />
    <glyph glyph-name="g" unicode="g" horiz-adv-x="1247" 
d="M553 389q-103 0 -170 19q-21 6 -39 -2q-31 -12 -54.5 -37t-23.5 -54q0 -28 23 -43.5t65 -15.5h414q303 0 303 -254q0 -102 -48.5 -179t-137.5 -124.5t-207 -70.5t-264 -23q-238 0 -362 58t-124 163q0 66 48 117.5t130 76.5q8 2 10.5 6.5t-0.5 9.5t-10 9
q-41 24 -64.5 66.5t-23.5 95.5q0 81 55 145.5t156 96.5q13 4 14.5 12t-7.5 14q-55 40 -77 85t-22 110q0 95 38 169.5t108.5 124t152.5 81.5t187 53l661 135q22 5 34 -7t7 -34l-31 -145q-9 -41 -47 -35l-235 30q-11 2 -14.5 -7t6.5 -15q131 -69 131 -225q0 -172 -160.5 -289
t-421.5 -117zM164 -72q0 -94 274 -94q332 0 332 121q0 63 -98 63h-348q-80 0 -120 -27t-40 -63zM446 721q0 -52 41.5 -81.5t118.5 -29.5q98 0 159.5 44.5t61.5 109.5q0 49 -41 77.5t-120 28.5q-97 0 -158.5 -41.5t-61.5 -107.5z" />
    <glyph glyph-name="h" unicode="h" horiz-adv-x="1351" 
d="M55 0q-21 0 -30.5 12t-4.5 33l293 1385q6 36 45 36h252q21 0 30.5 -12t4.5 -33l-104 -499q-3 -14 5.5 -17.5t18.5 8.5q83 94 168 135.5t185 41.5q84 0 153 -26.5t117 -78.5t64.5 -129.5t-3.5 -179.5l-135 -639q-6 -37 -45 -37h-254q-21 0 -30.5 12t-4.5 33l111 530
q27 127 -17 193t-141 66t-169.5 -70t-98.5 -195l-111 -532q-6 -37 -45 -37h-254z" />
    <glyph glyph-name="i" unicode="i" horiz-adv-x="593" 
d="M236 1020q6 37 45 37h254q44 0 34 -45l-207 -975q-6 -37 -45 -37h-254q-44 0 -34 45zM264 1374q0 76 59 134.5t134 58.5q77 0 133.5 -56t56.5 -137q0 -77 -56.5 -131.5t-135.5 -54.5q-76 0 -133.5 54.5t-57.5 131.5z" />
    <glyph glyph-name="j" unicode="j" horiz-adv-x="688" 
d="M27 -391q-84 0 -174 20q-41 7 -31 47l35 160q9 37 49 31q38 -6 69 -6q60 0 94.5 32.5t49.5 106.5l213 1020q6 37 45 37h254q21 0 30.5 -12t4.5 -33l-222 -1049q-38 -182 -149 -268t-268 -86zM358 1374q0 76 58 134.5t133 58.5q77 0 132.5 -56t55.5 -137q0 -78 -55 -132
t-133 -54q-76 0 -133.5 55t-57.5 131z" />
    <glyph glyph-name="k" unicode="k" horiz-adv-x="1255" 
d="M61 0q-44 0 -34 45l290 1385q6 36 45 36h244q21 0 30.5 -12t4.5 -33l-98 -471q-12 -61 -39 -169.5t-39 -143.5q-3 -9 4 -13t16 5q174 174 246 241l180 166q21 21 50 21h266q28 0 34.5 -15.5t-14.5 -35.5l-223 -203q-94 -86 -209 -178q-9 -8 -8 -13.5t12 -7.5
q88 -12 139.5 -62.5t69.5 -148.5l64 -348q6 -45 -37 -45h-244q-40 0 -45 37l-33 221q-11 71 -40 101t-87 30h-61q-15 0 -27 -10l-108 -94q-6 -6 -9 -15l-49 -233q-6 -37 -45 -37h-246z" />
    <glyph glyph-name="l" unicode="l" horiz-adv-x="585" 
d="M313 1430q6 36 45 36h254q21 0 30.5 -12t4.5 -33l-293 -1384q-6 -37 -45 -37h-254q-21 0 -30.5 12t-4.5 33z" />
    <glyph glyph-name="m" unicode="m" horiz-adv-x="1996" 
d="M59 0q-44 0 -34 45l202 975q6 37 45 37h246q22 0 32 -12.5t5 -32.5l-18 -94q-1 -7 3 -10.5t9 -1.5t8 7q57 83 152 130t206 47q117 0 189 -49t100 -123q4 -12 12.5 -14t14.5 7q119 179 340 179q175 0 267.5 -109t57.5 -279l-137 -665q-6 -37 -45 -37h-256q-21 0 -30.5 12
t-4.5 33l113 547q24 113 -7 176t-118 63q-83 0 -146 -63.5t-91 -196.5l-111 -534q-6 -37 -45 -37h-256q-21 0 -30.5 12t-4.5 33l113 547q24 112 -8 175.5t-117 63.5q-92 0 -156.5 -74t-91.5 -202l-109 -518q-6 -37 -45 -37h-254z" />
    <glyph glyph-name="n" unicode="n" horiz-adv-x="1355" 
d="M59 0q-44 0 -34 45l202 975q6 37 45 37h246q43 0 37 -45l-16 -90q-3 -14 5.5 -17.5t18.5 8.5q155 177 359 177q84 0 153 -26.5t117 -78.5t64.5 -129.5t-3.5 -179.5l-135 -639q-6 -37 -45 -37h-254q-21 0 -30.5 12t-4.5 33l111 530q27 127 -17 193t-141 66t-169.5 -70
t-98.5 -195l-111 -532q-6 -37 -45 -37h-254z" />
    <glyph glyph-name="o" unicode="o" horiz-adv-x="1284" 
d="M555 -33q-230 0 -355.5 116.5t-125.5 328.5q0 146 49 272t135 215.5t207.5 140t261.5 50.5q229 0 354 -118t125 -319q0 -198 -83 -354.5t-232 -244t-336 -87.5zM418 436q-2 -103 39 -162t127 -59q85 0 150 61.5t96.5 153t33.5 195.5q3 217 -170 217q-84 0 -148 -59.5
t-95.5 -150.5t-32.5 -196z" />
    <glyph glyph-name="p" unicode="p" horiz-adv-x="1347" 
d="M-27 -410q-44 0 -34 45l288 1385q6 37 45 37h250q22 0 32 -12.5t5 -32.5l-14 -68q-3 -13 7 -17t19 5q158 158 351 158q168 0 261 -118t93 -302q0 -95 -25.5 -194t-75.5 -190t-116.5 -163t-156.5 -115t-189 -43q-193 0 -301 156q-7 10 -15 13t-14 -1.5t-8 -15.5l-103 -490
q-6 -37 -45 -37h-254zM449 475q-31 -136 17 -210.5t146 -74.5q72 0 134 41.5t101.5 107.5t62 144.5t22.5 155.5q0 112 -47 170.5t-127 58.5q-92 0 -173 -71.5t-108 -192.5z" />
    <glyph glyph-name="q" unicode="q" horiz-adv-x="1347" 
d="M1288 1057q21 0 30.5 -12t4.5 -33l-291 -1385q-6 -37 -45 -37h-254q-21 0 -30.5 12t-4.5 33l103 478q3 13 -7.5 17t-19.5 -5q-158 -158 -348 -158q-112 0 -194 61.5t-122 161t-40 220.5q0 98 27 196.5t78.5 185t120.5 153.5t158.5 106t186.5 39q100 0 175.5 -45
t117.5 -109q7 -10 15 -13t14 1.5t8 15.5l18 80q10 37 45 37h254zM414 418q0 -113 47 -171.5t127 -58.5q95 0 174 72.5t106 192.5l29 129q31 136 -17.5 210t-144.5 74q-73 0 -135.5 -41.5t-102 -107.5t-61.5 -144t-22 -155z" />
    <glyph glyph-name="r" unicode="r" horiz-adv-x="972" 
d="M59 0q-44 0 -34 45l202 975q6 37 45 37h244q20 0 30 -12.5t7 -32.5l-33 -191q-1 -12 6 -13.5t13 9.5q60 97 109.5 147.5t121.5 78.5t182 32q22 0 32 -12.5t5 -32.5l-41 -201q-5 -33 -45 -36q-111 -10 -180.5 -28.5t-128.5 -59.5q-112 -79 -154 -277l-82 -391
q-6 -37 -45 -37h-254z" />
    <glyph glyph-name="s" unicode="s" horiz-adv-x="1159" 
d="M319 324q18 0 27.5 -8.5t15.5 -28.5q27 -99 175 -99q80 0 128 30.5t48 78.5q0 37 -35 62t-113 42l-100 23q-29 7 -42.5 10t-46 12.5t-50.5 17t-47 22t-46.5 29t-39 36.5t-33 46t-19.5 56t-8 68q0 163 140 266t370 103q88 0 163.5 -17t140 -53t105 -101t46.5 -153
q0 -41 -41 -41h-226q-36 0 -45 39q-22 104 -153 104q-76 0 -122 -31t-46 -81q0 -38 36.5 -63t121.5 -44l102 -22q53 -12 93 -24t86.5 -35.5t76.5 -53.5t50 -76.5t20 -105.5q0 -166 -144 -267.5t-395 -101.5q-101 0 -184 18t-149.5 55t-106 100t-45.5 147q-3 41 41 41h251z
" />
    <glyph glyph-name="t" unicode="t" horiz-adv-x="923" 
d="M182 858q-21 0 -30.5 12t-4.5 33l23 117q6 37 45 37h100q10 0 13 10l45 229q6 37 45 37h246q44 0 34 -45l-45 -217q-3 -14 13 -14h237q21 0 30.5 -12t4.5 -33l-23 -117q-6 -37 -45 -37h-239q-10 0 -13 -10l-96 -455q-18 -86 6 -120.5t95 -34.5q24 0 106 12
q23 4 34.5 -7.5t6.5 -33.5l-33 -150q-7 -35 -39 -43q-120 -34 -223 -34q-194 0 -264.5 98.5t-28.5 300.5l99 463q3 14 -13 14h-86z" />
    <glyph glyph-name="u" unicode="u" horiz-adv-x="1355" 
d="M1286 1057q21 0 30.5 -12t4.5 -33l-203 -975q-6 -37 -45 -37h-246q-42 0 -36 45l16 90q3 14 -6 17t-19 -9q-154 -176 -358 -176q-84 0 -153 26.5t-117 78.5t-65 129.5t3 179.5l135 639q6 37 45 37h254q21 0 30.5 -12t4.5 -33l-110 -531q-27 -127 16.5 -192.5t140.5 -65.5
t170 69.5t99 194.5l110 533q6 37 45 37h254z" />
    <glyph glyph-name="v" unicode="v" horiz-adv-x="1200" 
d="M328 0q-40 0 -43 39l-115 975q-6 43 37 43h268q38 0 41 -39l10 -197q13 -234 13 -481q0 -18 13.5 -20.5t22.5 16.5q120 266 226 485l100 205q15 31 47 31h266q23 0 31 -13.5t-2 -35.5l-532 -979q-15 -29 -49 -29h-334z" />
    <glyph glyph-name="w" unicode="w" horiz-adv-x="1794" 
d="M295 0q-40 0 -43 39l-92 975q-3 43 39 43h268q38 0 41 -39l10 -156q4 -52 5.5 -103.5t1.5 -86t-0.5 -123t-0.5 -150.5q0 -19 11 -20t18 16q27 59 101.5 235t99.5 232l73 164q13 31 50 31h229q19 0 31 -11t12 -30l4 -154q8 -294 8 -463q0 -19 10.5 -21t18.5 15
q9 20 87.5 203t125.5 283l70 147q13 31 47 31h280q23 0 32 -13.5t-1 -35.5l-514 -979q-15 -29 -47 -29h-281q-19 0 -31 11t-12 30l-20 598q0 11 -5 15.5t-11.5 1.5t-10.5 -13l-272 -612q-12 -31 -49 -31h-283z" />
    <glyph glyph-name="x" unicode="x" horiz-adv-x="1191" 
d="M2 0q-26 0 -32.5 15.5t10.5 35.5l423 481q6 9 3 19l-207 459q-9 22 -1 34.5t31 12.5h285q36 0 47 -33l14 -41q8 -22 25 -78.5t31 -97.5q5 -14 15.5 -15.5t19.5 11.5q99 144 147 201l25 30q20 23 51 23h278q26 0 33 -15.5t-10 -35.5l-402 -453q-5 -8 -2 -18l224 -488
q9 -22 0.5 -34.5t-31.5 -12.5h-283q-34 0 -47 33l-12 30q-46 122 -72 220q-3 11 -9 14.5t-12.5 0.5t-11.5 -11q-94 -147 -163 -226l-33 -38q-20 -23 -51 -23h-283z" />
    <glyph glyph-name="y" unicode="y" horiz-adv-x="1202" 
d="M141 -397q-84 0 -194 22q-41 7 -31 47l33 160q9 37 49 31q49 -8 86 -8q71 0 115.5 26.5t76.5 87.5l15 27q2 6 2 16l-127 1002q-6 43 37 43h278q38 0 41 -39l15 -238q10 -187 10 -483q0 -15 11 -16.5t17 12.5q39 87 106.5 248.5t106.5 242.5l117 242q13 31 47 31h258
q23 0 31 -13.5t-2 -35.5l-569 -1051q-100 -184 -227 -269t-302 -85z" />
    <glyph glyph-name="z" unicode="z" horiz-adv-x="1144" 
d="M39 0q-22 0 -32 12.5t-5 32.5l21 102q7 31 24 48l600 608q7 6 3 14.5t-15 7.5q-121 -16 -299 -16h-111q-21 0 -30.5 12t-4.5 33l33 166q6 37 45 37h819q22 0 32 -12.5t5 -32.5l-26 -129q-6 -28 -25 -47l-567 -580q-5 -6 -0.5 -16t14.5 -9q120 17 277 17h149
q21 0 30.5 -12t4.5 -33l-35 -166q-6 -37 -45 -37h-862z" />
    <glyph glyph-name="braceleft" unicode="{" horiz-adv-x="817" 
d="M102 705q6 33 45 36q130 17 152 127l74 365q38 191 147 276.5t283 85.5q69 0 129 -8q44 -6 35 -47l-33 -154q-4 -20 -15 -27t-32 -5q-20 2 -49 2q-75 0 -112 -35t-56 -125l-82 -401q-19 -87 -77.5 -129.5t-168.5 -51.5q-11 -1 -14.5 -7t1 -12t13.5 -7q103 -9 143.5 -49.5
t22.5 -128.5l-82 -398q-20 -93 5.5 -127.5t103.5 -34.5h32q22 2 31.5 -9.5t5.5 -33.5l-31 -149q-6 -36 -41 -39q-65 -8 -133 -8q-186 0 -256.5 88t-31.5 276l75 359q12 59 -11.5 88t-78.5 37q-43 6 -35 47z" />
    <glyph glyph-name="bar" unicode="|" horiz-adv-x="552" 
d="M221 -414q-41 0 -41 41v1964q0 41 41 41h193q41 0 41 -41v-1964q0 -41 -41 -41h-193z" />
    <glyph glyph-name="braceright" unicode="}" horiz-adv-x="817" 
d="M70 -391q-72 0 -146 12q-20 3 -29 16.5t-4 32.5l33 154q9 37 49 31q50 -5 58 -5q72 0 104.5 37.5t48.5 122.5l80 398q18 87 76.5 128t171.5 52q15 2 15 13t-15 13q-99 8 -143 49.5t-25 129.5l88 403q19 85 -1.5 120.5t-92.5 35.5q-31 0 -47 -2q-24 -2 -33.5 8t-5.5 33
l31 151q5 33 41 39q81 16 157 16q342 0 264 -366l-77 -363q-12 -58 10 -87.5t78 -37.5q45 -6 37 -47l-41 -198q-5 -34 -45 -37q-130 -15 -152 -127l-72 -359q-36 -182 -136 -274t-277 -92z" />
    <glyph glyph-name="asciitilde" unicode="~" horiz-adv-x="1140" 
d="M799 543q-58 0 -128 27.5t-128.5 55t-89.5 27.5q-40 0 -61 -17t-30 -54q-12 -37 -45 -37h-147q-42 0 -39 43q9 152 82.5 241t208.5 89q55 0 128.5 -28t134.5 -55.5t85 -27.5q69 0 90 72q12 36 45 36h148q42 0 39 -47q-11 -149 -85.5 -237t-207.5 -88z" />
    <glyph glyph-name="exclamdown" unicode="&#xa1;" horiz-adv-x="606" 
d="M-10 -248q-21 0 -30 13t-3 34l250 856q8 35 47 35h160q20 0 30 -12.5t7 -32.5l-140 -856q-5 -37 -43 -37h-278zM197 1012q0 86 62 146.5t149 60.5q86 0 146 -61t60 -146q0 -86 -60 -146.5t-148 -60.5t-148.5 60.5t-60.5 146.5z" />
    <glyph glyph-name="cent" unicode="&#xa2;" horiz-adv-x="1208" 
d="M426 -238q-21 0 -30.5 12t-4.5 33l33 158q4 12 -10 15q-163 34 -250.5 149.5t-87.5 302.5q0 262 159.5 446t413.5 209q10 0 13 11l30 151q6 37 45 37h58q44 0 34 -45l-30 -143q-3 -12 10 -15q151 -24 241.5 -109.5t104.5 -207.5q3 -41 -41 -41h-252q-32 0 -47 35
q-15 47 -59 65q-12 6 -15 -8l-120 -584q-3 -15 10 -12q86 21 127 107q14 32 47 32h242q22 0 30.5 -12.5t1.5 -34.5q-66 -171 -198 -255.5t-308 -90.5q-9 0 -12 -10l-33 -158q-6 -37 -45 -37h-57zM414 424q0 -120 55 -172q5 -4 9.5 -2t6.5 8l115 547q1 7 -2.5 10t-9.5 0
q-82 -47 -128 -160t-46 -231z" />
    <glyph glyph-name="sterling" unicode="&#xa3;" horiz-adv-x="1189" 
d="M-25 0q-44 0 -34 45l39 195q6 36 45 36h55q8 0 12 11l62 284q3 15 -13 15h-43q-22 0 -32 12.5t-5 32.5l25 121q6 36 45 36h55q9 0 13 11l53 252q43 205 187.5 311t379.5 106q218 0 331.5 -116t90.5 -316q-6 -39 -45 -39h-254q-40 0 -37 45q3 73 -27 111.5t-90 38.5
q-73 0 -117.5 -49t-66.5 -150l-41 -190q-3 -15 12 -15h394q21 0 30.5 -12t4.5 -33l-25 -120q-6 -37 -45 -37h-406q-8 0 -12 -11l-59 -284q-3 -15 12 -15h573q21 0 30.5 -12t4.5 -33l-39 -194q-6 -37 -45 -37h-1018z" />
    <glyph glyph-name="currency" unicode="&#xa4;" horiz-adv-x="1183" 
d="M633 236q-134 0 -254 71q-11 6 -19 -2l-114 -117q-28 -28 -58 2l-63 68q-26 28 0 57l108 115q7 10 3 16q-80 127 -80 277q0 159 86 289q6 8 -2 16l-107 113q-27 30 -2 57l68 70q29 28 57 0l113 -117q7 -7 18 -2q122 72 254 72q133 0 250 -68q11 -5 18 2l111 113
q27 30 57 0l66 -70q27 -30 0 -57l-105 -109q-8 -8 -2 -16q84 -127 84 -285q0 -157 -90 -291q-6 -8 2 -16l103 -109q27 -30 0 -57l-68 -68q-29 -32 -57 0l-109 113q-8 8 -16 2q-113 -69 -252 -69zM426 723q0 -99 59 -161t148 -62q95 0 156 65t61 166q0 100 -57.5 161.5
t-151.5 61.5t-154.5 -65t-60.5 -166z" />
    <glyph glyph-name="yen" unicode="&#xa5;" horiz-adv-x="1447" 
d="M1155 678q21 0 30.5 -12t4.5 -33l-14 -74q-6 -37 -46 -37h-210q-10 0 -13 -10l-22 -98q-3 -15 12 -15h201q21 0 30.5 -12t4.5 -33l-15 -73q-6 -37 -45 -37h-213q-8 0 -12 -11l-41 -196q-6 -37 -45 -37h-285q-21 0 -30.5 12t-4.5 33l39 184q3 15 -12 15h-211
q-21 0 -30.5 12t-4.5 33l15 73q6 37 45 37h225q8 0 12 11l21 98q3 14 -13 14h-213q-44 0 -34 45l14 74q6 37 45 37h158q12 0 8 14l-256 694q-7 21 3 34.5t32 13.5h315q34 0 45 -33l68 -203q21 -63 49.5 -164.5t32.5 -132.5q2 -9 8.5 -10t11.5 8q37 73 209 309l147 201
q17 25 50 25h313q26 0 33 -15t-8 -35l-541 -692q-10 -14 6 -14h131z" />
    <glyph glyph-name="brokenbar" unicode="&#xa6;" horiz-adv-x="552" 
d="M221 815q-41 0 -41 41v735q0 41 41 41h193q41 0 41 -41v-735q0 -41 -41 -41h-193zM221 -418q-41 0 -41 41v735q0 41 41 41h193q41 0 41 -41v-735q0 -41 -41 -41h-193z" />
    <glyph glyph-name="section" unicode="&#xa7;" horiz-adv-x="1253" 
d="M459 -397q-182 0 -296 83t-118 222q-1 20 10.5 30.5t30.5 10.5h219q34 0 43 -39q12 -42 46.5 -67t80.5 -25q68 0 105.5 32.5t37.5 90.5q0 66 -63 108l-246 168q-111 76 -175 155t-64 171q0 126 89.5 212.5t223.5 100.5q8 0 14 6q0 6 -6 10q-36 31 -63 88t-27 130
q0 123 65.5 209t175 125.5t255.5 39.5q197 0 300 -77t109 -207q3 -41 -41 -41h-225q-34 0 -43 39q-20 71 -123 71q-66 0 -102.5 -32t-36.5 -89q0 -35 28 -68.5t97 -80.5l184 -129q57 -40 93.5 -70t74 -71t55.5 -87t17 -98q0 -127 -92 -214t-224 -101q-8 0 -12 -4
q-3 -6 6 -12q90 -74 90 -201q0 -186 -134 -287.5t-359 -101.5zM401 602q0 -42 20.5 -76.5t80.5 -74.5l127 -86q10 -6 21 -14.5t22.5 -18.5t17.5 -15q10 -7 17 -2q58 21 98 63.5t45 84.5q10 82 -53 125l-193 129q-9 6 -23.5 17.5t-19.5 15.5q-8 5 -18 2q-62 -24 -102 -62.5
t-40 -87.5z" />
    <glyph glyph-name="dieresis" unicode="&#xa8;" horiz-adv-x="751" 
d="M348 1208q-63 0 -108 45.5t-45 108.5q0 64 46 111t109 47t107.5 -46t44.5 -112q0 -64 -45.5 -109t-108.5 -45zM600 1364q0 63 45.5 110.5t106.5 47.5q64 0 108.5 -46t44.5 -112q0 -64 -45 -109t-108 -45t-107.5 45.5t-44.5 108.5z" />
    <glyph glyph-name="copyright" unicode="&#xa9;" horiz-adv-x="1689" 
d="M883 -33q-223 0 -398.5 95.5t-273.5 267.5t-98 389t98 388.5t273.5 267t398.5 95.5t398.5 -95.5t273.5 -267t98 -388.5t-98 -389t-273.5 -267.5t-398.5 -95.5zM260 719q0 -270 175 -443.5t448 -173.5t447.5 173.5t174.5 443.5q0 271 -174 443.5t-448 172.5t-448.5 -172.5
t-174.5 -443.5zM489 725q0 187 114 293t292 106q150 0 249.5 -67.5t125.5 -186.5q4 -20 -7 -31.5t-32 -11.5h-150q-33 0 -45 35q-15 42 -50.5 65t-86.5 23q-80 0 -125 -59t-45 -164q0 -119 48.5 -178.5t127.5 -59.5q107 0 131 91q12 36 45 36h152q21 0 31 -11.5t6 -31.5
q-24 -121 -128 -190.5t-243 -69.5q-83 0 -155 24t-130 72t-91.5 129.5t-33.5 186.5z" />
    <glyph glyph-name="ordfeminine" unicode="&#xaa;" horiz-adv-x="1204" 
d="M180 891q0 105 37 209.5t100.5 187.5t156.5 135t196 52q86 0 151.5 -38.5t102.5 -93.5q11 -15 19 -13.5t11 16.5l17 65q9 35 45 35h203q44 0 34 -45l-172 -826q-6 -36 -45 -36h-200q-22 0 -32 12.5t-5 32.5l10 51q3 12 -6 15.5t-17 -5.5q-138 -135 -299 -135
q-143 0 -225 109.5t-82 271.5zM477 897q0 -96 40.5 -146.5t109.5 -50.5q80 0 148 62.5t91 165.5l25 110q26 117 -15 180.5t-124 63.5q-82 0 -147 -61t-96.5 -148t-31.5 -176z" />
    <glyph glyph-name="guillemotleft" unicode="&#xab;" horiz-adv-x="1185" 
d="M291 551q-23 -12 -2 -25l200 -112q29 -17 23 -52l-45 -217q-4 -25 -19 -30t-34 10l-293 231q-27 21 -21 54l58 266q5 28 32 43l396 235q23 14 37 4.5t8 -36.5l-45 -211q-5 -28 -35 -43zM627 356q-27 21 -21 54l58 266q5 28 32 43l396 235q23 14 37 4.5t8 -36.5l-45 -211
q-5 -28 -35 -43l-260 -117q-23 -12 -2 -25l200 -112q29 -17 23 -52l-45 -217q-4 -25 -19 -30t-34 10z" />
    <glyph glyph-name="logicalnot" unicode="&#xac;" horiz-adv-x="1161" 
d="M129 891q0 41 41 41h903q41 0 41 -41v-533q0 -41 -41 -41h-223q-41 0 -41 41v285q0 12 -12 12h-627q-41 0 -41 41v195z" />
    <glyph glyph-name="uni00AD" unicode="&#xad;" horiz-adv-x="778" 
d="M106 436q-44 0 -34 45l41 195q6 37 45 37h532q21 0 30.5 -12t4.5 -33l-41 -195q-6 -37 -45 -37h-533z" />
    <glyph glyph-name="registered" unicode="&#xae;" horiz-adv-x="1208" 
d="M692 424q-148 0 -271.5 68t-196 188t-72.5 266q0 148 72.5 269t196 188t271.5 67q232 0 386.5 -151t154.5 -373q0 -144 -71.5 -264t-196 -189t-273.5 -69zM281 946q0 -172 118 -287.5t293 -115.5t293.5 114t118.5 289q0 178 -119 292t-293 114q-176 0 -293.5 -115
t-117.5 -291zM520 686q-41 0 -41 41v449q0 41 41 41h230q83 0 128.5 -35.5t45.5 -100.5q0 -51 -26.5 -86.5t-57.5 -42.5q-7 -1 -7 -5.5t5 -6.5q33 -11 50.5 -35t24.5 -74l17 -102q3 -20 -7.5 -31.5t-31.5 -11.5h-64q-40 0 -45 37l-10 76q-6 35 -21.5 46t-54.5 11h-59
q-12 0 -12 -12v-117q0 -41 -41 -41h-64zM625 977q0 -12 12 -12h63q76 0 76 67q0 64 -76 64h-63q-12 0 -12 -13v-106z" />
    <glyph glyph-name="macron" unicode="&#xaf;" horiz-adv-x="745" 
d="M209 1223q-21 0 -30.5 12t-4.5 33l27 133q6 37 45 37h626q21 0 30.5 -12t4.5 -33l-26 -133q-6 -37 -45 -37h-627z" />
    <glyph glyph-name="degree" unicode="&#xb0;" horiz-adv-x="788" 
d="M485 823q-146 0 -237.5 90t-91.5 232q0 141 91.5 231t237.5 90t239 -90t93 -231t-93 -231.5t-239 -90.5zM354 1145q0 -58 37 -95.5t94 -37.5t94 37.5t37 95.5t-37 95.5t-94 37.5t-94 -37.5t-37 -95.5z" />
    <glyph glyph-name="plusminus" unicode="&#xb1;" horiz-adv-x="1327" 
d="M543 403q-41 0 -41 41v218q0 12 -13 12h-299q-40 0 -40 41v196q0 41 40 41h299q13 0 13 13v217q0 41 41 41h223q41 0 41 -41v-217q0 -13 12 -13h297q41 0 41 -41v-196q0 -41 -41 -41h-297q-12 0 -12 -12v-218q0 -41 -41 -41h-223zM190 0q-40 0 -40 41v199q0 41 40 41h926
q41 0 41 -41v-199q0 -41 -41 -41h-926z" />
    <glyph glyph-name="uni00B2" unicode="&#xb2;" horiz-adv-x="866" 
d="M236 1247q5 30 32 45q20 11 61 33q64 34 97.5 52.5t92 52.5t91 56t74 54t63 57.5t37 55t15.5 57.5q0 80 -103 80q-88 0 -123 -72q-14 -32 -47 -32h-133q-22 0 -31.5 12.5t-3.5 34.5q37 114 124 169.5t229 55.5q150 0 228.5 -60t78.5 -167q0 -52 -18.5 -98.5t-54.5 -86
t-78.5 -73.5t-100.5 -67t-110.5 -59t-117.5 -57q-6 -2 -9 -3.5l-8 -4l-9 -4.5q-8 -3 -8 -8q0 -7 12 -4q71 8 184 8h179q44 0 34 -45l-20 -103q-6 -36 -45 -36h-600q-21 0 -30.5 12t-4.5 33z" />
    <glyph glyph-name="uni00B3" unicode="&#xb3;" horiz-adv-x="831" 
d="M569 1065q-154 0 -246 67.5t-92 194.5q0 41 41 41h134q34 0 40 -39q17 -92 127 -92q68 0 104 33t36 94q0 84 -117 84h-12q-21 0 -30.5 12t-4.5 33l14 70q6 36 45 36h31q67 0 104 28t37 81q0 34 -28 54t-80 20q-84 0 -125 -74q-19 -31 -49 -31h-129q-22 0 -32 13t-3 34
q43 116 132 170t230 56q129 1 211 -57.5t82 -151.5q0 -84 -50 -142t-134 -67q-12 0 -12 -4q0 -3 12 -6q61 -7 95 -51t34 -111q0 -136 -100 -215.5t-265 -79.5z" />
    <glyph glyph-name="acute" unicode="&#xb4;" horiz-adv-x="675" 
d="M328 1198q-39 -16 -54 21l-47 112q-15 37 21 53l452 199q40 16 54 -20l53 -121q15 -38 -23 -53z" />
    <glyph glyph-name="uni00B5" unicode="&#xb5;" horiz-adv-x="1640" 
d="M256 -377q-41 0 -41 41l14 1352q0 41 41 41h252q41 0 41 -41l-6 -533q-1 -121 62 -191.5t169 -70.5q105 0 167 70.5t63 193.5l6 531q0 41 41 41h254q41 0 41 -41l-10 -684q0 -48 18 -72t66 -24h14q43 3 43 -37v-158q0 -36 -37 -45q-82 -14 -137 -14q-123 0 -205.5 50.5
t-91.5 135.5l-2 16q0 13 -6 13q-4 0 -8 -11q-23 -96 -94.5 -156.5t-182.5 -60.5q-91 0 -152 64q-9 9 -14 6q-6 -6 -6 -14l-23 -363q-3 -39 -40 -39h-236z" />
    <glyph glyph-name="paragraph" unicode="&#xb6;" horiz-adv-x="1292" 
d="M520 707q1 6 -2.5 10t-9.5 4q-196 3 -292 108.5t-54 290.5q66 316 510 316h588q44 0 34 -45l-288 -1354q-6 -37 -45 -37h-168q-21 0 -30.5 12t-4.5 33l246 1143q3 14 -13 14h-104q-10 0 -13 -10l-247 -1155q-6 -37 -45 -37h-168q-21 0 -30.5 12t-4.5 33z" />
    <glyph glyph-name="periodcentered" unicode="&#xb7;" horiz-adv-x="606" 
d="M344 524q-86 0 -146.5 61t-60.5 146q0 86 60.5 146.5t148.5 60.5t148.5 -60.5t60.5 -146.5t-62 -146.5t-149 -60.5z" />
    <glyph glyph-name="cedilla" unicode="&#xb8;" horiz-adv-x="808" 
d="M186 -442q-67 0 -139 20q-33 9 -27 49l9 43q6 41 49 31q40 -12 86 -12q106 0 106 71q0 55 -94 58q-23 0 -33.5 10t-7.5 29l2 10q5 27 35 43q63 31 74 90v2q3 39 43 39h57q45 0 39 -41q-13 -58 -86 -86q-10 -2 -10 -8t12 -6l25 -2q71 -2 116 -39t45 -99
q0 -66 -45.5 -113.5t-112 -68t-143.5 -20.5z" />
    <glyph glyph-name="uni00B9" unicode="&#xb9;" horiz-adv-x="591" 
d="M487 1694q-4 0 -10 -6q-61 -58 -160 -66q-22 -1 -31.5 10t-4.5 33l22 119q6 37 47 37q80 3 129 23t88 67q21 24 49 24h103q21 0 30.5 -12t4.5 -33l-158 -764q-6 -36 -45 -36h-141q-21 0 -30.5 12t-4.5 33l110 542q2 8 2.5 11.5t-0.5 5.5z" />
    <glyph glyph-name="ordmasculine" unicode="&#xba;" horiz-adv-x="1126" 
d="M586 510q-198 0 -306 100t-108 283q0 168 72 301.5t200 208t289 74.5q197 0 305.5 -102.5t108.5 -274.5q0 -170 -72 -304.5t-200 -210t-289 -75.5zM467 913q0 -190 143 -190q73 0 129 53t83.5 131.5t29.5 167.5q3 187 -145 187q-108 0 -173 -104t-67 -245z" />
    <glyph glyph-name="guillemotright" unicode="&#xbb;" horiz-adv-x="1187" 
d="M600 127q-23 -14 -37 -4t-8 37l45 209q5 28 35 43l258 118q23 11 2 23l-199 113q-28 17 -22 53l47 217q4 25 19 30t34 -10l293 -231q26 -20 20 -53l-59 -266q-5 -28 -33 -44zM94 127q-23 -14 -37 -4t-8 37l45 209q5 28 35 43l258 118q23 11 2 23l-199 113q-28 17 -22 53
l47 217q4 25 19 30t34 -10l293 -231q27 -21 21 -53l-60 -266q-5 -28 -33 -44z" />
    <glyph glyph-name="onequarter" unicode="&#xbc;" horiz-adv-x="1730" 
d="M381 1192q-4 0 -10 -6q-61 -58 -160 -66q-22 -2 -31.5 9.5t-5.5 33.5l23 119q6 37 47 37q80 3 129 23t88 67q22 25 49 25h102q21 0 30.5 -12t4.5 -33l-158 -764q-6 -37 -45 -37h-141q-21 0 -30.5 12t-4.5 33l111 543q2 8 2.5 11t-0.5 5zM293 0q-25 0 -32.5 13.5t7.5 35.5
l1012 1360q17 25 49 25h107q25 0 32 -14t-8 -36l-1011 -1359q-17 -25 -50 -25h-106zM901 174q-21 0 -30.5 12t-4.5 33l27 137q5 23 27 45l442 426q21 21 49 21h172q21 0 30.5 -12t4.5 -33l-94 -449q-3 -14 12 -14h51q21 0 30.5 -12t4.5 -33l-16 -84q-6 -37 -45 -37h-64
q-9 0 -12 -10l-27 -125q-6 -37 -45 -37h-141q-21 0 -30.5 12t-4.5 33l25 113q3 14 -13 14h-348zM1077 354q-6 -4 -4 -9t10 -5h213q10 0 13 10l61 295q1 3 1 6t-1 5.5t-2 2.5q-5 0 -8 -8q-39 -59 -172 -188z" />
    <glyph glyph-name="onehalf" unicode="&#xbd;" horiz-adv-x="1835" 
d="M381 1192q-4 0 -10 -6q-61 -58 -160 -66q-22 -2 -31.5 9.5t-5.5 33.5l23 119q6 37 47 37q80 3 129 23t88 67q22 25 49 25h102q21 0 30.5 -12t4.5 -33l-158 -764q-6 -37 -45 -37h-141q-21 0 -30.5 12t-4.5 33l111 543q2 8 2.5 11t-0.5 5zM293 0q-25 0 -32.5 13.5t7.5 35.5
l1012 1360q17 25 49 25h107q25 0 32 -14t-8 -36l-1011 -1359q-17 -25 -50 -25h-106zM985 0q-21 0 -30.5 12t-4.5 33l23 113q5 30 33 45q232 126 292 163q212 130 235 229q3 13 3 26q0 79 -102 79q-88 0 -123 -71q-14 -33 -47 -33h-134q-22 0 -31 12.5t-3 34.5
q37 114 123.5 169.5t228.5 55.5q150 0 228.5 -60t78.5 -167q0 -52 -18.5 -98.5t-54.5 -86t-78.5 -73.5t-100.5 -67t-110.5 -59t-117.5 -57q-17 -8 -26 -12q-8 -3 -8 -8q0 -7 12 -4q71 8 185 8h178q21 0 30.5 -12t4.5 -33l-21 -102q-6 -37 -45 -37h-600z" />
    <glyph glyph-name="threequarters" unicode="&#xbe;" horiz-adv-x="1916" 
d="M465 571q-154 0 -246 68t-92 195q0 40 41 40h133q35 0 41 -38q17 -93 127 -93q67 0 103 32.5t36 94.5q0 84 -116 84h-13q-21 0 -30.5 12t-4.5 33l15 70q6 37 45 37h31q67 0 104 27.5t37 80.5q0 34 -28.5 54t-80.5 20q-84 0 -125 -74q-18 -30 -49 -30h-129q-22 0 -32 13
t-3 34q43 116 132.5 169.5t230.5 55.5q129 1 211 -57.5t82 -151.5q0 -84 -50.5 -142t-134.5 -67q-12 0 -12 -4q0 -3 12 -6q61 -7 95 -51t34 -111q0 -136 -99.5 -215.5t-264.5 -79.5zM479 0q-25 0 -32 13.5t8 35.5l1011 1360q17 25 50 25h106q25 0 32.5 -14t-7.5 -36
l-1012 -1359q-17 -25 -49 -25h-107zM1087 174q-44 0 -34 45l26 137q5 23 27 45l442 426q21 21 49 21h172q21 0 30.5 -12t4.5 -33l-94 -449q-3 -14 12 -14h52q44 0 34 -45l-16 -84q-6 -37 -45 -37h-64q-9 0 -12 -10l-26 -125q-6 -37 -46 -37h-141q-21 0 -30.5 12t-4.5 33
l25 113q3 14 -12 14h-349zM1264 354q-6 -4 -4 -9t10 -5h213q9 0 12 10l61 295q1 3 1 6t-1 5.5t-2 2.5q-5 0 -8 -8q-39 -59 -172 -188z" />
    <glyph glyph-name="questiondown" unicode="&#xbf;" horiz-adv-x="1134" 
d="M793 702q43 0 34 -45q-30 -134 -84 -207t-184 -147q-83 -47 -120 -82t-50 -88q-17 -72 15 -109.5t110 -37.5q82 0 130.5 45t72.5 139q9 37 45 37h256q47 0 35 -45q-55 -237 -195.5 -345t-390.5 -108q-241 0 -360.5 109.5t-77.5 314.5q38 176 221 289q152 93 194 133
t62 113q9 34 45 34h242zM492 1006q0 86 61.5 146t148.5 60q86 0 146.5 -60.5t60.5 -145.5q0 -86 -60.5 -146.5t-148.5 -60.5t-148 60.5t-60 146.5z" />
    <glyph glyph-name="Agrave" unicode="&#xc0;" horiz-adv-x="1529" 
d="M330 29q-14 -29 -47 -29h-297q-23 0 -31.5 14.5t2.5 34.5l748 1356q15 29 49 29h379q40 0 45 -37l192 -1354q3 -20 -7.5 -31.5t-31.5 -11.5h-289q-40 0 -43 39l-26 260q0 4 -5 8t-10 4h-471q-11 0 -14 -8zM627 596q-6 -14 8 -14h295q10 0 10 12l-18 192q-19 200 -19 340
q0 12 -9.5 13.5t-14.5 -9.5q-113 -264 -158 -350zM686 1743q-37 15 -22 53l55 121q15 37 53 20l449 -198q35 -15 20 -53l-47 -113q-15 -36 -53 -21z" />
    <glyph glyph-name="Aacute" unicode="&#xc1;" horiz-adv-x="1529" 
d="M330 29q-14 -29 -47 -29h-297q-23 0 -31.5 14.5t2.5 34.5l748 1356q15 29 49 29h379q40 0 45 -37l192 -1354q3 -20 -7.5 -31.5t-31.5 -11.5h-289q-40 0 -43 39l-26 260q0 4 -5 8t-10 4h-471q-11 0 -14 -8zM627 596q-6 -14 8 -14h295q10 0 10 12l-18 192q-19 200 -19 340
q0 12 -9.5 13.5t-14.5 -9.5q-113 -264 -158 -350zM741 1686q-15 37 21 53l448 198q39 17 54 -20l55 -121q15 -38 -23 -53l-454 -191q-39 -16 -54 21z" />
    <glyph glyph-name="Acircumflex" unicode="&#xc2;" horiz-adv-x="1529" 
d="M330 29q-14 -29 -47 -29h-297q-23 0 -31.5 14.5t2.5 34.5l748 1356q15 29 49 29h379q40 0 45 -37l192 -1354q3 -20 -7.5 -31.5t-31.5 -11.5h-289q-40 0 -43 39l-26 260q0 4 -5 8t-10 4h-471q-11 0 -14 -8zM666 1536q-27 0 -34 15.5t11 35.5l211 221q23 23 51 23h248
q35 0 49 -29l115 -217q10 -22 1 -35.5t-32 -13.5h-166q-33 0 -49 29l-61 102q-8 11 -17 2l-119 -113q-20 -20 -49 -20h-159zM627 596q-6 -14 8 -14h295q10 0 10 12l-18 192q-19 200 -19 340q0 12 -9.5 13.5t-14.5 -9.5q-113 -264 -158 -350z" />
    <glyph glyph-name="Atilde" unicode="&#xc3;" horiz-adv-x="1529" 
d="M330 29q-14 -29 -47 -29h-297q-23 0 -31.5 14.5t2.5 34.5l748 1356q15 29 49 29h379q40 0 45 -37l192 -1354q3 -20 -7.5 -31.5t-31.5 -11.5h-289q-40 0 -43 39l-26 260q0 4 -5 8t-10 4h-471q-11 0 -14 -8zM643 1536q-21 0 -31 11.5t-6 31.5q20 109 95.5 174.5t179.5 65.5
q66 0 155 -39q72 -33 107 -33q46 0 61 37q8 20 17.5 28.5t27.5 8.5h117q21 0 31 -12t6 -33q-22 -112 -94 -175t-176 -63q-61 0 -158 39q-86 33 -113 33q-42 0 -57 -37q-8 -20 -17.5 -28.5t-27.5 -8.5h-117zM627 596q-6 -14 8 -14h295q10 0 10 12l-18 192q-19 200 -19 340
q0 12 -9.5 13.5t-14.5 -9.5q-113 -264 -158 -350z" />
    <glyph glyph-name="Adieresis" unicode="&#xc4;" horiz-adv-x="1529" 
d="M330 29q-14 -29 -47 -29h-297q-23 0 -31.5 14.5t2.5 34.5l748 1356q15 29 49 29h379q40 0 45 -37l192 -1354q3 -20 -7.5 -31.5t-31.5 -11.5h-289q-40 0 -43 39l-26 260q0 4 -5 8t-10 4h-471q-11 0 -14 -8zM627 596q-6 -14 8 -14h295q10 0 10 12l-18 192q-19 200 -19 340
q0 12 -9.5 13.5t-14.5 -9.5q-113 -264 -158 -350zM618 1692q0 63 45.5 109t108.5 46q64 0 108 -45t44 -110q0 -66 -44.5 -111t-109.5 -45q-63 0 -107.5 45.5t-44.5 110.5zM1022 1692q0 63 46 110t108 47q64 0 107.5 -45.5t43.5 -111.5q0 -64 -44 -109t-107 -45t-108.5 45.5
t-45.5 108.5z" />
    <glyph glyph-name="Aring" unicode="&#xc5;" horiz-adv-x="1529" 
d="M330 29q-14 -29 -47 -29h-297q-23 0 -31.5 14.5t2.5 34.5l727 1317q3 8 0 16q-39 64 -39 148q0 127 86.5 204.5t226.5 77.5q138 0 223 -76.5t85 -201.5q0 -118 -74 -195q-4 -4 -4 -16l182 -1280q3 -20 -7.5 -31.5t-31.5 -11.5h-289q-40 0 -43 39l-26 260q0 4 -5 8t-10 4
h-471q-11 0 -14 -8zM627 596q-6 -14 8 -14h295q10 0 10 12l-18 192q-19 200 -19 340q0 12 -9.5 13.5t-14.5 -9.5q-113 -264 -158 -350zM846 1530q0 -43 29.5 -69.5t80.5 -26.5t83 28t32 72q0 41 -31.5 67.5t-81.5 26.5q-51 0 -81.5 -27t-30.5 -71z" />
    <glyph glyph-name="AE" unicode="&#xc6;" horiz-adv-x="2084" 
d="M1042 0q-40 0 -43 39l-26 260q0 4 -5 8t-10 4h-471q-11 0 -14 -8l-143 -274q-14 -29 -47 -29h-297q-23 0 -31.5 14.5t2.5 34.5l748 1356q15 29 49 29h1101q21 0 30.5 -12t4.5 -33l-39 -197q-6 -37 -45 -37h-583q-14 0 -11 -12l37 -258q0 -4 5 -8.5t10 -4.5h606
q22 0 32 -12.5t5 -32.5l-39 -188q-6 -37 -45 -37h-520q-14 0 -11 -12l43 -299q0 -4 5 -8t10 -4h587q21 0 30.5 -12.5t4.5 -33.5l-39 -196q-6 -37 -45 -37h-846zM627 596q-6 -14 8 -14h295q10 0 10 12l-18 192q-19 200 -19 340q0 12 -9.5 13.5t-14.5 -9.5
q-113 -264 -158 -350z" />
    <glyph glyph-name="Ccedilla" unicode="&#xc7;" horiz-adv-x="1556" 
d="M1397 469q22 0 32 -13t1 -34q-84 -214 -250 -329t-398 -126q-11 0 -16 -8q-20 -25 -68 -43q-8 -5 -8 -10q0 -6 12 -6l25 -2q71 -2 116.5 -39t45.5 -99q0 -66 -45.5 -113.5t-112 -68t-143.5 -20.5q-67 0 -139 20q-33 9 -27 49l8 43q6 41 49 31q41 -12 86 -12q107 0 107 71
q0 55 -94 58q-23 0 -33.5 10t-7.5 29l2 10q5 27 34 43q40 21 58 47q7 13 -8 16q-244 30 -376 178t-132 412q0 183 64.5 349t176.5 288t273 194t344 72q243 0 392.5 -113.5t172.5 -312.5q6 -43 -39 -43h-295q-34 0 -43 37q-20 69 -77.5 111.5t-147.5 42.5
q-103 0 -189.5 -59.5t-139.5 -153t-82 -201t-29 -211.5q0 -161 70.5 -239t195.5 -78q106 0 182 50.5t119 141.5q15 31 49 31h285z" />
    <glyph glyph-name="Egrave" unicode="&#xc8;" horiz-adv-x="1316" 
d="M78 0q-21 0 -30.5 12t-4.5 33l287 1352q6 37 45 37h993q21 0 30.5 -12t4.5 -33l-39 -197q-6 -37 -45 -37h-668q-9 0 -12 -10l-53 -258q-3 -15 12 -15h578q22 0 31.5 -12t4.5 -33l-38 -188q-6 -37 -46 -37h-591q-10 0 -13 -10l-65 -299q-3 -14 12 -14h657q21 0 30.5 -12.5
t4.5 -33.5l-39 -196q-6 -37 -45 -37h-1001zM606 1743q-37 15 -22 53l55 121q15 37 53 20l449 -198q35 -15 20 -53l-47 -113q-15 -36 -53 -21z" />
    <glyph glyph-name="Eacute" unicode="&#xc9;" horiz-adv-x="1316" 
d="M78 0q-21 0 -30.5 12t-4.5 33l287 1352q6 37 45 37h993q21 0 30.5 -12t4.5 -33l-39 -197q-6 -37 -45 -37h-668q-9 0 -12 -10l-53 -258q-3 -15 12 -15h578q22 0 31.5 -12t4.5 -33l-38 -188q-6 -37 -46 -37h-591q-10 0 -13 -10l-65 -299q-3 -14 12 -14h657q21 0 30.5 -12.5
t4.5 -33.5l-39 -196q-6 -37 -45 -37h-1001zM662 1686q-15 38 20 53l448 198q39 17 54 -20l55 -121q15 -38 -22 -53l-455 -191q-38 -15 -53 21z" />
    <glyph glyph-name="Ecircumflex" unicode="&#xca;" horiz-adv-x="1316" 
d="M78 0q-21 0 -30.5 12t-4.5 33l287 1352q6 37 45 37h993q21 0 30.5 -12t4.5 -33l-39 -197q-6 -37 -45 -37h-668q-9 0 -12 -10l-53 -258q-3 -15 12 -15h578q22 0 31.5 -12t4.5 -33l-38 -188q-6 -37 -46 -37h-591q-10 0 -13 -10l-65 -299q-3 -14 12 -14h657q21 0 30.5 -12.5
t4.5 -33.5l-39 -196q-6 -37 -45 -37h-1001zM586 1536q-27 0 -34 15.5t11 35.5l211 221q23 23 51 23h248q35 0 49 -29l115 -217q10 -22 1 -35.5t-32 -13.5h-166q-33 0 -49 29l-61 102q-8 11 -17 2l-118 -113q-20 -20 -50 -20h-159z" />
    <glyph glyph-name="Edieresis" unicode="&#xcb;" horiz-adv-x="1316" 
d="M78 0q-21 0 -30.5 12t-4.5 33l287 1352q6 37 45 37h993q21 0 30.5 -12t4.5 -33l-39 -197q-6 -37 -45 -37h-668q-9 0 -12 -10l-53 -258q-3 -15 12 -15h578q22 0 31.5 -12t4.5 -33l-38 -188q-6 -37 -46 -37h-591q-10 0 -13 -10l-65 -299q-3 -14 12 -14h657q21 0 30.5 -12.5
t4.5 -33.5l-39 -196q-6 -37 -45 -37h-1001zM539 1692q0 63 45 109t108 46q64 0 108 -45t44 -110q0 -66 -44.5 -111t-109.5 -45q-63 0 -107 45.5t-44 110.5zM942 1692q0 63 46 110t108 47q64 0 107.5 -45.5t43.5 -111.5q0 -64 -44 -109t-107 -45t-108.5 45.5t-45.5 108.5z
" />
    <glyph glyph-name="Igrave" unicode="&#xcc;" horiz-adv-x="655" 
d="M330 1397q6 37 45 37h280q21 0 30.5 -12t4.5 -33l-284 -1352q-6 -37 -46 -37h-282q-21 0 -30.5 12t-4.5 33zM250 1743q-38 15 -23 53l56 121q15 37 53 20l448 -198q36 -16 21 -53l-47 -113q-15 -36 -53 -21z" />
    <glyph glyph-name="Iacute" unicode="&#xcd;" horiz-adv-x="655" 
d="M330 1397q6 37 45 37h280q21 0 30.5 -12t4.5 -33l-284 -1352q-6 -37 -46 -37h-282q-21 0 -30.5 12t-4.5 33zM305 1686q-15 37 21 53l448 198q38 17 53 -20l56 -121q15 -38 -23 -53l-454 -191q-39 -16 -54 21z" />
    <glyph glyph-name="Icircumflex" unicode="&#xce;" horiz-adv-x="655" 
d="M330 1397q6 37 45 37h280q21 0 30.5 -12t4.5 -33l-284 -1352q-6 -37 -46 -37h-282q-21 0 -30.5 12t-4.5 33zM229 1536q-27 0 -33.5 15.5t11.5 35.5l211 221q23 23 51 23h248q35 0 49 -29l115 -217q10 -22 1 -35.5t-32 -13.5h-166q-33 0 -49 29l-62 102q-7 11 -16 2
l-119 -113q-20 -20 -49 -20h-160z" />
    <glyph glyph-name="Idieresis" unicode="&#xcf;" horiz-adv-x="655" 
d="M330 1397q6 37 45 37h280q21 0 30.5 -12t4.5 -33l-284 -1352q-6 -37 -46 -37h-282q-21 0 -30.5 12t-4.5 33zM182 1692q0 63 45.5 109t108.5 46q64 0 107.5 -45t43.5 -110q0 -66 -44 -111t-109 -45q-63 0 -107.5 45.5t-44.5 110.5zM586 1692q0 63 46 110t107 47
q64 0 108 -45.5t44 -111.5q0 -64 -44.5 -109t-107.5 -45t-108 45.5t-45 108.5z" />
    <glyph glyph-name="Eth" unicode="&#xd0;" horiz-adv-x="1574" 
d="M90 799q6 37 45 37h105q9 0 12 10l117 551q6 37 45 37h585q139 0 245 -45t170 -126.5t94 -191t24 -242.5q-6 -135 -41.5 -256.5t-103.5 -227t-163 -182t-228 -120t-291 -43.5h-586q-21 0 -30.5 12t-4.5 33l129 604q3 15 -12 15h-92q-22 0 -32 12.5t-5 32.5zM500 297
q-3 -14 12 -14h201q127 0 229 75t157.5 189t63.5 244q7 103 -18.5 183.5t-90.5 130.5t-163 50h-197q-9 0 -12 -10l-64 -295q-3 -14 13 -14h239q22 0 32 -12.5t5 -32.5l-18 -91q-6 -36 -45 -36h-254q-8 0 -12 -11z" />
    <glyph glyph-name="Ntilde" unicode="&#xd1;" horiz-adv-x="1527" 
d="M565 965q-29 -205 -71 -412l-105 -516q-6 -37 -45 -37h-266q-21 0 -30.5 12t-4.5 33l287 1352q6 37 45 37h323q36 0 45 -33l168 -522q25 -77 63.5 -203t51.5 -166q3 -9 12 -8t11 10q0 4 10.5 68.5t29 168t35.5 185.5l95 463q6 37 45 37h266q21 0 30.5 -12t4.5 -33
l-287 -1352q-6 -37 -45 -37h-309q-36 0 -47 33l-172 508q-16 46 -29 87.5t-27 93.5t-19.5 73t-23 90.5t-20.5 81.5t-11 10.5t-10 -12.5zM643 1536q-21 0 -31 11.5t-6 31.5q20 109 95.5 174.5t179.5 65.5q66 0 155 -39q72 -33 107 -33q46 0 61 37q8 20 17.5 28.5t27.5 8.5
h117q21 0 31 -12t6 -33q-22 -112 -94 -175t-176 -63q-61 0 -158 39q-86 33 -113 33q-42 0 -57 -37q-8 -20 -17.5 -28.5t-27.5 -8.5h-117z" />
    <glyph glyph-name="Ograve" unicode="&#xd2;" horiz-adv-x="1613" 
d="M719 -31q-276 0 -442 160t-166 428q0 186 66.5 354t180.5 290t274 193.5t339 71.5q288 0 453.5 -157t160.5 -422t-116.5 -474.5t-307.5 -326.5t-442 -117zM487 573q0 -150 72.5 -237.5t200.5 -87.5q96 0 180 55t140 144t88 200.5t32 226.5q0 156 -72 235t-188 79
q-98 0 -184 -54.5t-144 -142t-91.5 -197t-33.5 -221.5zM727 1743q-37 15 -22 53l55 121q15 37 53 20l449 -198q35 -15 20 -53l-47 -113q-15 -36 -53 -21z" />
    <glyph glyph-name="Oacute" unicode="&#xd3;" horiz-adv-x="1613" 
d="M719 -31q-276 0 -442 160t-166 428q0 186 66.5 354t180.5 290t274 193.5t339 71.5q288 0 453.5 -157t160.5 -422t-116.5 -474.5t-307.5 -326.5t-442 -117zM487 573q0 -150 72.5 -237.5t200.5 -87.5q96 0 180 55t140 144t88 200.5t32 226.5q0 156 -72 235t-188 79
q-98 0 -184 -54.5t-144 -142t-91.5 -197t-33.5 -221.5zM782 1686q-15 37 21 53l448 198q39 17 54 -20l55 -121q15 -38 -23 -53l-454 -191q-39 -16 -54 21z" />
    <glyph glyph-name="Ocircumflex" unicode="&#xd4;" horiz-adv-x="1613" 
d="M719 -31q-276 0 -442 160t-166 428q0 186 66.5 354t180.5 290t274 193.5t339 71.5q288 0 453.5 -157t160.5 -422t-116.5 -474.5t-307.5 -326.5t-442 -117zM487 573q0 -150 72.5 -237.5t200.5 -87.5q96 0 180 55t140 144t88 200.5t32 226.5q0 156 -72 235t-188 79
q-98 0 -184 -54.5t-144 -142t-91.5 -197t-33.5 -221.5zM707 1536q-27 0 -34 15.5t11 35.5l211 221q23 23 51 23h248q34 0 49 -29l115 -217q10 -22 1 -35.5t-32 -13.5h-166q-33 0 -49 29l-61 102q-8 11 -17 2l-119 -113q-20 -20 -49 -20h-159z" />
    <glyph glyph-name="Odieresis" unicode="&#xd6;" horiz-adv-x="1613" 
d="M719 -31q-276 0 -442 160t-166 428q0 186 66.5 354t180.5 290t274 193.5t339 71.5q288 0 453.5 -157t160.5 -422t-116.5 -474.5t-307.5 -326.5t-442 -117zM487 573q0 -150 72.5 -237.5t200.5 -87.5q96 0 180 55t140 144t88 200.5t32 226.5q0 156 -72 235t-188 79
q-98 0 -184 -54.5t-144 -142t-91.5 -197t-33.5 -221.5zM659 1692q0 63 45.5 109t108.5 46q64 0 108 -45t44 -110q0 -66 -44.5 -111t-109.5 -45q-63 0 -107.5 45.5t-44.5 110.5zM1063 1692q0 63 46 110t108 47q64 0 107.5 -45.5t43.5 -111.5q0 -64 -44 -109t-107 -45
t-108.5 45.5t-45.5 108.5z" />
    <glyph glyph-name="multiply" unicode="&#xd7;" horiz-adv-x="1140" 
d="M1049 1026q29 -28 0 -57l-230 -228q-8 -8 0 -16l230 -229q29 -29 0 -58l-142 -141q-29 -29 -57 0l-229 229q-9 8 -17 0l-231 -229q-29 -29 -58 0l-141 141q-29 29 0 58l229 229q8 8 0 16l-229 228q-28 29 0 57l141 139q29 29 58 0l231 -229q8 -8 17 0l229 229q28 29 57 0
z" />
    <glyph glyph-name="Oslash" unicode="&#xd8;" horiz-adv-x="1613" 
d="M100 35q-28 29 0 57l105 105q7 7 2 18q-96 145 -96 342q0 186 66.5 354t180.5 290t274 193.5t339 71.5q232 0 391 -106q8 -6 16 2l95 92q29 28 57 0l65 -61q29 -29 0 -58l-96 -96q-7 -7 -2 -18q91 -139 88 -334q-5 -265 -116.5 -474.5t-307.5 -326.5t-442 -117
q-224 0 -377 107q-8 6 -16 -2l-103 -103q-29 -29 -57 0zM487 573q0 -13 5 -71q4 -18 16 -6l610 606q10 10 0 16q-70 70 -178 70q-98 0 -184 -54.5t-144 -142t-91.5 -197t-33.5 -221.5zM582 328q-4 -3 -4 -8.5t4 -8.5q72 -63 178 -63q96 0 180 55t140 144t88 200.5t32 226.5
q0 32 -2 46q-1 7 -6.5 8t-9.5 -4z" />
    <glyph glyph-name="Ugrave" unicode="&#xd9;" horiz-adv-x="1480" 
d="M152 649l159 748q6 37 45 37h283q21 0 30.5 -12t4.5 -33l-168 -791q-34 -160 9 -253t171 -93q117 0 198 75.5t111 221.5l176 848q6 37 46 37h284q21 0 30.5 -12t4.5 -33l-182 -883q-23 -108 -73.5 -198.5t-117 -152.5t-147.5 -105t-164.5 -63t-167.5 -20q-92 0 -171 16
t-149.5 50t-119.5 88t-80.5 130t-33.5 175t22 223zM662 1743q-38 15 -23 53l55 121q15 37 54 20l448 -198q36 -16 21 -53l-48 -113q-15 -36 -53 -21z" />
    <glyph glyph-name="Uacute" unicode="&#xda;" horiz-adv-x="1480" 
d="M152 649l159 748q6 37 45 37h283q21 0 30.5 -12t4.5 -33l-168 -791q-34 -160 9 -253t171 -93q117 0 198 75.5t111 221.5l176 848q6 37 46 37h284q21 0 30.5 -12t4.5 -33l-182 -883q-23 -108 -73.5 -198.5t-117 -152.5t-147.5 -105t-164.5 -63t-167.5 -20q-92 0 -171 16
t-149.5 50t-119.5 88t-80.5 130t-33.5 175t22 223zM717 1686q-15 38 20 53l449 198q38 17 53 -20l55 -121q15 -38 -22 -53l-455 -191q-38 -15 -53 21z" />
    <glyph glyph-name="Ucircumflex" unicode="&#xdb;" horiz-adv-x="1480" 
d="M152 649l159 748q6 37 45 37h283q21 0 30.5 -12t4.5 -33l-168 -791q-34 -160 9 -253t171 -93q117 0 198 75.5t111 221.5l176 848q6 37 46 37h284q21 0 30.5 -12t4.5 -33l-182 -883q-23 -108 -73.5 -198.5t-117 -152.5t-147.5 -105t-164.5 -63t-167.5 -20q-92 0 -171 16
t-149.5 50t-119.5 88t-80.5 130t-33.5 175t22 223zM641 1536q-27 0 -34 15.5t11 35.5l211 221q23 23 52 23h247q36 0 50 -29l114 -217q10 -22 1.5 -35.5t-31.5 -13.5h-166q-33 0 -49 29l-62 102q-7 11 -16 2l-119 -113q-20 -20 -49 -20h-160z" />
    <glyph glyph-name="Udieresis" unicode="&#xdc;" horiz-adv-x="1480" 
d="M152 649l159 748q6 37 45 37h283q21 0 30.5 -12t4.5 -33l-168 -791q-34 -160 9 -253t171 -93q117 0 198 75.5t111 221.5l176 848q6 37 46 37h284q21 0 30.5 -12t4.5 -33l-182 -883q-23 -108 -73.5 -198.5t-117 -152.5t-147.5 -105t-164.5 -63t-167.5 -20q-92 0 -171 16
t-149.5 50t-119.5 88t-80.5 130t-33.5 175t22 223zM594 1692q0 63 45.5 109t108.5 46q64 0 107.5 -45t43.5 -110q0 -66 -44.5 -111t-109.5 -45q-63 0 -107 45.5t-44 110.5zM997 1692q0 63 46 110t108 47q64 0 108 -45.5t44 -111.5q0 -64 -44.5 -109t-107.5 -45t-108.5 45.5
t-45.5 108.5z" />
    <glyph glyph-name="Yacute" unicode="&#xdd;" horiz-adv-x="1447" 
d="M250 1386q-7 21 3 34.5t32 13.5h315q34 0 45 -33l68 -203q21 -63 49.5 -164.5t32.5 -132.5q2 -9 8.5 -10t11.5 8q37 73 209 309l147 201q17 25 50 25h313q26 0 33 -15t-8 -35l-637 -813l-7 -14l-108 -520q-6 -37 -45 -37h-285q-21 0 -30.5 12t-4.5 33l109 514q4 8 0 16z
M692 1686q-15 37 21 53l448 198q38 17 53 -20l56 -121q15 -38 -23 -53l-454 -191q-39 -16 -54 21z" />
    <glyph glyph-name="Thorn" unicode="&#xde;" horiz-adv-x="1404" 
d="M80 0q-21 0 -30.5 12t-4.5 33l285 1352q6 37 45 37h280q21 0 30.5 -12t4.5 -33l-41 -193q-3 -14 13 -14h251q105 0 193.5 -29.5t155 -90t90.5 -153.5t0 -221q-43 -205 -217 -321.5t-408 -114.5l-264 2q-9 0 -12 -10l-45 -207q-6 -37 -46 -37h-280zM508 526q-3 -14 12 -14
h250q228 0 268 188q24 114 -21.5 168t-160.5 54h-254q-8 0 -12 -11z" />
    <glyph glyph-name="germandbls" unicode="&#xdf;" horiz-adv-x="1267" 
d="M954 795q90 0 159 -89.5t69 -218.5q0 -228 -143 -366.5t-377 -138.5q-70 0 -150 12q-42 6 -33 47l35 172q6 36 47 33q14 -2 43 -2q102 0 168 65.5t66 169.5q0 69 -41 106.5t-115 37.5h-37q-21 0 -30.5 12t-4.5 33l27 127q6 36 45 36h8q92 0 155.5 69.5t63.5 166.5
q0 60 -36.5 93.5t-102.5 33.5q-81 0 -137 -50.5t-76 -146.5l-199 -960q-6 -37 -45 -37h-254q-44 0 -34 45l208 1004q43 205 188.5 314.5t373.5 109.5q201 0 319.5 -83.5t118.5 -224.5q0 -130 -80 -230t-199 -122q-9 -1 -9 -9.5t9 -8.5z" />
    <glyph glyph-name="agrave" unicode="&#xe0;" horiz-adv-x="1282" 
d="M201 725q-22 0 -32 13t-1 34q134 318 573 318q251 0 364.5 -101.5t76.5 -283.5l-138 -668q-6 -37 -45 -37h-239q-20 0 -30 12.5t-7 32.5l10 68q1 10 -4.5 14t-11.5 -2q-155 -158 -367 -158q-142 0 -228.5 68.5t-86.5 195.5q0 137 102 224t283 106l141 14q85 9 144 24
t90 36t45 42.5t18 49.5q9 59 -31 88t-129 29q-149 0 -202 -88q-19 -31 -47 -31h-248zM377 268q0 -45 29.5 -70t85.5 -24q97 2 190.5 70.5t114.5 173.5l8 41q2 10 -5.5 13t-17.5 -5q-49 -39 -200 -61l-72 -11q-66 -9 -99.5 -43.5t-33.5 -83.5zM496 1389q-38 15 -23 53l55 121
q15 37 54 20l448 -199q36 -16 21 -53l-47 -112q-15 -37 -54 -21z" />
    <glyph glyph-name="aacute" unicode="&#xe1;" horiz-adv-x="1282" 
d="M201 725q-22 0 -32 13t-1 34q134 318 573 318q251 0 364.5 -101.5t76.5 -283.5l-138 -668q-6 -37 -45 -37h-239q-20 0 -30 12.5t-7 32.5l10 68q1 10 -4.5 14t-11.5 -2q-155 -158 -367 -158q-142 0 -228.5 68.5t-86.5 195.5q0 137 102 224t283 106l141 14q85 9 144 24
t90 36t45 42.5t18 49.5q9 59 -31 88t-129 29q-149 0 -202 -88q-19 -31 -47 -31h-248zM377 268q0 -45 29.5 -70t85.5 -24q97 2 190.5 70.5t114.5 173.5l8 41q2 10 -5.5 13t-17.5 -5q-49 -39 -200 -61l-72 -11q-66 -9 -99.5 -43.5t-33.5 -83.5zM492 1331q-15 38 20 53l453 199
q39 16 53 -20l53 -121q15 -38 -22 -53l-457 -191q-38 -15 -53 21z" />
    <glyph glyph-name="acircumflex" unicode="&#xe2;" horiz-adv-x="1282" 
d="M201 725q-22 0 -32 13t-1 34q134 318 573 318q251 0 364.5 -101.5t76.5 -283.5l-138 -668q-6 -37 -45 -37h-239q-20 0 -30 12.5t-7 32.5l10 68q1 10 -4.5 14t-11.5 -2q-155 -158 -367 -158q-142 0 -228.5 68.5t-86.5 195.5q0 137 102 224t283 106l141 14q85 9 144 24
t90 36t45 42.5t18 49.5q9 59 -31 88t-129 29q-149 0 -202 -88q-19 -31 -47 -31h-248zM377 268q0 -45 29.5 -70t85.5 -24q97 2 190.5 70.5t114.5 173.5l8 41q2 10 -5.5 13t-17.5 -5q-49 -39 -200 -61l-72 -11q-66 -9 -99.5 -43.5t-33.5 -83.5zM477 1182q-27 0 -33.5 15.5
t11.5 35.5l211 221q23 23 51 23h248q35 0 49 -29l114 -217q10 -22 1.5 -35.5t-31.5 -13.5h-166q-33 0 -49 28l-62 103q-7 11 -16 2l-119 -113q-20 -20 -49 -20h-160z" />
    <glyph glyph-name="atilde" unicode="&#xe3;" horiz-adv-x="1282" 
d="M201 725q-22 0 -32 13t-1 34q134 318 573 318q251 0 364.5 -101.5t76.5 -283.5l-138 -668q-6 -37 -45 -37h-239q-20 0 -30 12.5t-7 32.5l10 68q1 10 -4.5 14t-11.5 -2q-155 -158 -367 -158q-142 0 -228.5 68.5t-86.5 195.5q0 137 102 224t283 106l141 14q85 9 144 24
t90 36t45 42.5t18 49.5q9 59 -31 88t-129 29q-149 0 -202 -88q-19 -31 -47 -31h-248zM377 268q0 -45 29.5 -70t85.5 -24q97 2 190.5 70.5t114.5 173.5l8 41q2 10 -5.5 13t-17.5 -5q-49 -39 -200 -61l-72 -11q-66 -9 -99.5 -43.5t-33.5 -83.5zM451 1182q-21 0 -31 11.5
t-6 31.5q20 110 94.5 174.5t179.5 64.5q67 0 156 -39q70 -32 106 -32q47 0 62 37q8 20 17.5 28t27.5 8h117q21 0 30.5 -11.5t5.5 -31.5q-20 -113 -93 -176t-177 -63q-59 0 -156 39q-86 32 -112 32q-46 0 -60 -36q-6 -20 -15.5 -28.5t-27.5 -8.5h-118z" />
    <glyph glyph-name="adieresis" unicode="&#xe4;" horiz-adv-x="1282" 
d="M201 725q-22 0 -32 13t-1 34q134 318 573 318q251 0 364.5 -101.5t76.5 -283.5l-138 -668q-6 -37 -45 -37h-239q-20 0 -30 12.5t-7 32.5l10 68q1 10 -4.5 14t-11.5 -2q-155 -158 -367 -158q-142 0 -228.5 68.5t-86.5 195.5q0 137 102 224t283 106l141 14q85 9 144 24
t90 36t45 42.5t18 49.5q9 59 -31 88t-129 29q-149 0 -202 -88q-19 -31 -47 -31h-248zM377 268q0 -45 29.5 -70t85.5 -24q97 2 190.5 70.5t114.5 173.5l8 41q2 10 -5.5 13t-17.5 -5q-49 -39 -200 -61l-72 -11q-66 -9 -99.5 -43.5t-33.5 -83.5zM461 1362q0 64 46 111t109 47
t107.5 -46t44.5 -112q0 -64 -45.5 -109t-108.5 -45t-108 45.5t-45 108.5zM866 1364q0 63 45.5 110.5t106.5 47.5q64 0 108.5 -46t44.5 -112q0 -64 -45 -109t-108 -45t-107.5 45.5t-44.5 108.5z" />
    <glyph glyph-name="aring" unicode="&#xe5;" horiz-adv-x="1282" 
d="M201 725q-22 0 -32 13t-1 34q134 318 573 318q251 0 364.5 -101.5t76.5 -283.5l-138 -668q-6 -37 -45 -37h-239q-20 0 -30 12.5t-7 32.5l10 68q1 10 -4.5 14t-11.5 -2q-155 -158 -367 -158q-142 0 -228.5 68.5t-86.5 195.5q0 137 102 224t283 106l141 14q85 9 144 24
t90 36t45 42.5t18 49.5q9 59 -31 88t-129 29q-149 0 -202 -88q-19 -31 -47 -31h-248zM377 268q0 -45 29.5 -70t85.5 -24q97 2 190.5 70.5t114.5 173.5l8 41q2 10 -5.5 13t-17.5 -5q-49 -39 -200 -61l-72 -11q-66 -9 -99.5 -43.5t-33.5 -83.5zM532 1462q0 127 87 205t227 78
q139 0 224 -77t85 -202q0 -128 -86 -206t-227 -78q-139 0 -224.5 76.5t-85.5 203.5zM733 1462q0 -43 30 -69.5t81 -26.5q52 0 83 27.5t31 72.5q0 42 -31 68.5t-81 26.5q-51 0 -82 -27.5t-31 -71.5z" />
    <glyph glyph-name="ae" unicode="&#xe6;" horiz-adv-x="1982" 
d="M350 -33q-142 0 -228.5 68.5t-86.5 195.5q0 137 102 224t283 106l141 14q85 9 144 24t90 36t45 42.5t18 49.5q9 59 -31 88t-129 29q-149 0 -202 -88q-19 -31 -47 -31h-248q-22 0 -32 13t-1 34q134 318 573 318q123 0 209 -35.5t125 -100.5q9 -15 15 -15.5t16 11.5
q59 68 150.5 104t189.5 36q211 0 331.5 -117t120.5 -309q0 -94 -22 -170q-8 -35 -45 -35h-698q-13 0 -13 -13q-7 -113 41 -172t139 -59q128 0 187 82q18 27 49 27h240q22 0 31.5 -13.5t0.5 -34.5q-64 -152 -206.5 -230.5t-329.5 -78.5q-168 0 -289 65.5t-156 164.5
q-14 40 -39 4q-72 -105 -193 -169.5t-245 -64.5zM377 268q0 -45 29.5 -70t85.5 -24q97 2 190.5 70.5t114.5 173.5l8 41q2 10 -5.5 13t-17.5 -5q-49 -39 -200 -61l-72 -11q-66 -9 -99.5 -43.5t-33.5 -83.5zM1165 643q-3 -14 11 -14h393q11 0 14 12q6 93 -36 148t-130 55
t-156.5 -53.5t-95.5 -147.5z" />
    <glyph glyph-name="ccedilla" unicode="&#xe7;" horiz-adv-x="1208" 
d="M1047 360q22 0 30.5 -12.5t1.5 -34.5q-64 -161 -185 -245.5t-282 -98.5q-11 0 -16 -8q-18 -26 -70 -45q-8 -5 -8 -10q0 -6 12 -6l25 -2q71 -2 116.5 -39t45.5 -99q0 -66 -45.5 -113.5t-112 -68t-143.5 -20.5q-68 0 -140 20q-32 8 -26 49l8 43q6 41 49 31q41 -12 86 -12
q107 0 107 71q0 55 -94 58q-23 0 -33.5 10t-7.5 29l2 10q5 27 34 43q36 17 56 47q9 13 -8 16q-179 25 -276 143.5t-97 315.5q0 183 80 333t226 237.5t331 87.5q192 0 309 -90.5t133 -233.5q3 -41 -41 -41h-252q-32 0 -47 35q-31 82 -131 82q-83 0 -147 -68t-93.5 -161
t-29.5 -189q0 -209 164 -209q60 0 107 29.5t73 83.5q14 32 47 32h242z" />
    <glyph glyph-name="egrave" unicode="&#xe8;" horiz-adv-x="1245" 
d="M1038 324q22 0 32 -13.5t1 -34.5q-64 -152 -205.5 -230.5t-326.5 -78.5q-208 0 -336.5 118t-128.5 337q0 185 79 337.5t222.5 241.5t322.5 89q213 0 338 -117t125 -311q0 -90 -22 -168q-8 -35 -45 -35h-699q-12 0 -12 -13q-6 -109 41 -170t139 -61q128 0 187 82
q18 27 49 27h239zM430 647q-4 -14 10 -14h391q12 0 15 12q6 91 -38 144t-132 53q-86 0 -152.5 -51.5t-93.5 -143.5zM473 1389q-37 15 -22 53l55 121q15 37 53 20l449 -199q35 -15 20 -53l-47 -112q-15 -36 -53 -21z" />
    <glyph glyph-name="eacute" unicode="&#xe9;" horiz-adv-x="1245" 
d="M1038 324q22 0 32 -13.5t1 -34.5q-64 -152 -205.5 -230.5t-326.5 -78.5q-208 0 -336.5 118t-128.5 337q0 185 79 337.5t222.5 241.5t322.5 89q213 0 338 -117t125 -311q0 -90 -22 -168q-8 -35 -45 -35h-699q-12 0 -12 -13q-6 -109 41 -170t139 -61q128 0 187 82
q18 27 49 27h239zM430 647q-4 -14 10 -14h391q12 0 15 12q6 91 -38 144t-132 53q-86 0 -152.5 -51.5t-93.5 -143.5zM469 1331q-15 38 20 53l453 199q39 16 53 -20l54 -121q15 -38 -23 -53l-457 -191q-38 -15 -53 21z" />
    <glyph glyph-name="ecircumflex" unicode="&#xea;" horiz-adv-x="1245" 
d="M1038 324q22 0 32 -13.5t1 -34.5q-64 -152 -205.5 -230.5t-326.5 -78.5q-208 0 -336.5 118t-128.5 337q0 185 79 337.5t222.5 241.5t322.5 89q213 0 338 -117t125 -311q0 -90 -22 -168q-8 -35 -45 -35h-699q-12 0 -12 -13q-6 -109 41 -170t139 -61q128 0 187 82
q18 27 49 27h239zM455 1182q-27 0 -34 15.5t11 35.5l211 221q23 23 51 23h248q34 0 49 -29l115 -217q10 -22 1 -35.5t-32 -13.5h-166q-33 0 -49 28l-61 103q-8 11 -17 2l-118 -113q-20 -20 -50 -20h-159zM430 647q-4 -14 10 -14h391q12 0 15 12q6 91 -38 144t-132 53
q-86 0 -152.5 -51.5t-93.5 -143.5z" />
    <glyph glyph-name="edieresis" unicode="&#xeb;" horiz-adv-x="1245" 
d="M1038 324q22 0 32 -13.5t1 -34.5q-64 -152 -205.5 -230.5t-326.5 -78.5q-208 0 -336.5 118t-128.5 337q0 185 79 337.5t222.5 241.5t322.5 89q213 0 338 -117t125 -311q0 -90 -22 -168q-8 -35 -45 -35h-699q-12 0 -12 -13q-6 -109 41 -170t139 -61q128 0 187 82
q18 27 49 27h239zM430 647q-4 -14 10 -14h391q12 0 15 12q6 91 -38 144t-132 53q-86 0 -152.5 -51.5t-93.5 -143.5zM438 1362q0 64 46.5 111t109.5 47t107 -46t44 -112q0 -64 -45 -109t-108 -45t-108.5 45.5t-45.5 108.5zM844 1364q0 63 45 110.5t106 47.5q64 0 109 -46
t45 -112q0 -64 -45.5 -109t-108.5 -45t-107 45.5t-44 108.5z" />
    <glyph glyph-name="igrave" unicode="&#xec;" horiz-adv-x="581" 
d="M227 1020q6 37 45 37h254q21 0 30.5 -12t4.5 -33l-207 -975q-6 -37 -45 -37h-254q-21 0 -30.5 12t-4.5 33zM135 1389q-37 15 -22 53l55 121q15 37 53 20l449 -199q35 -15 20 -53l-47 -112q-15 -36 -53 -21z" />
    <glyph glyph-name="iacute" unicode="&#xed;" horiz-adv-x="581" 
d="M227 1020q6 37 45 37h254q21 0 30.5 -12t4.5 -33l-207 -975q-6 -37 -45 -37h-254q-21 0 -30.5 12t-4.5 33zM131 1331q-15 37 21 53l452 199q39 16 53 -20l54 -121q15 -38 -23 -53l-457 -191q-38 -15 -53 21z" />
    <glyph glyph-name="icircumflex" unicode="&#xee;" horiz-adv-x="581" 
d="M227 1020q6 37 45 37h254q21 0 30.5 -12t4.5 -33l-207 -975q-6 -37 -45 -37h-254q-21 0 -30.5 12t-4.5 33zM117 1182q-27 0 -34 15.5t11 35.5l211 221q23 23 51 23h248q34 0 49 -29l115 -217q10 -22 1 -35.5t-32 -13.5h-166q-33 0 -49 28l-61 103q-8 11 -17 2l-118 -113
q-20 -20 -50 -20h-159z" />
    <glyph glyph-name="idieresis" unicode="&#xef;" horiz-adv-x="634" 
d="M250 1020q6 37 45 37h254q21 0 30.5 -12t4.5 -33l-207 -975q-6 -37 -45 -37h-254q-21 0 -30.5 12t-4.5 33zM117 1362q0 64 46 111t109 47t107.5 -46t44.5 -112q0 -64 -45.5 -109t-108.5 -45t-108 45.5t-45 108.5zM522 1364q0 63 45.5 110.5t106.5 47.5q64 0 108.5 -46
t44.5 -112q0 -64 -45 -109t-108 -45t-107.5 45.5t-44.5 108.5z" />
    <glyph glyph-name="eth" unicode="&#xf0;" horiz-adv-x="1290" 
d="M555 -33q-127 0 -223 37t-153.5 103.5t-83.5 155t-19 194.5q7 112 49 214t110.5 179t166.5 122.5t210 45.5q181 0 260 -146q8 -14 16.5 -11t8.5 20q0 51 -86 188q-19 32 -53 78q-6 10 -17 6l-286 -80q-24 -6 -35.5 4.5t-7.5 34.5l16 74q5 31 39 41l172 47q13 3 4 16
q-55 63 -82 92q-18 20 -11 36t34 16h311q31 0 51 -23q12 -18 29 -35q6 -9 16 -6l234 64q23 6 34 -4t7 -35l-17 -74q-5 -31 -39 -41l-125 -35l-12 -4v-2q90 -140 128 -283t20 -313q-22 -318 -201 -497t-465 -179zM408 453q-3 -118 43 -178t137 -60q126 0 208 106t85 269
q3 233 -174 233q-124 0 -209.5 -105t-89.5 -265z" />
    <glyph glyph-name="ntilde" unicode="&#xf1;" horiz-adv-x="1355" 
d="M59 0q-44 0 -34 45l202 975q6 37 45 37h246q43 0 37 -45l-16 -90q-3 -14 5.5 -17.5t18.5 8.5q155 177 359 177q84 0 153 -26.5t117 -78.5t64.5 -129.5t-3.5 -179.5l-135 -639q-6 -37 -45 -37h-254q-21 0 -30.5 12t-4.5 33l111 530q27 127 -17 193t-141 66t-169.5 -70
t-98.5 -195l-111 -532q-6 -37 -45 -37h-254zM481 1182q-21 0 -31 11.5t-6 31.5q20 110 95 174.5t180 64.5q66 0 155 -39q70 -32 107 -32q46 0 61 37q8 20 17.5 28t27.5 8h117q21 0 31 -11.5t6 -31.5q-20 -113 -93 -176t-177 -63q-59 0 -156 39q-86 32 -113 32q-45 0 -59 -36
q-6 -20 -15.5 -28.5t-27.5 -8.5h-119z" />
    <glyph glyph-name="ograve" unicode="&#xf2;" horiz-adv-x="1284" 
d="M555 -33q-230 0 -355.5 116.5t-125.5 328.5q0 146 49 272t135 215.5t207.5 140t261.5 50.5q229 0 354 -118t125 -319q0 -198 -83 -354.5t-232 -244t-336 -87.5zM418 436q-2 -103 39 -162t127 -59q85 0 150 61.5t96.5 153t33.5 195.5q3 217 -170 217q-84 0 -148 -59.5
t-95.5 -150.5t-32.5 -196zM492 1389q-38 15 -23 53l55 121q15 37 54 20l448 -199q36 -16 21 -53l-48 -112q-15 -36 -53 -21z" />
    <glyph glyph-name="oacute" unicode="&#xf3;" horiz-adv-x="1284" 
d="M555 -33q-230 0 -355.5 116.5t-125.5 328.5q0 146 49 272t135 215.5t207.5 140t261.5 50.5q229 0 354 -118t125 -319q0 -198 -83 -354.5t-232 -244t-336 -87.5zM418 436q-2 -103 39 -162t127 -59q85 0 150 61.5t96.5 153t33.5 195.5q3 217 -170 217q-84 0 -148 -59.5
t-95.5 -150.5t-32.5 -196zM487 1331q-15 37 21 53l453 199q39 16 53 -20l53 -121q15 -38 -23 -53l-456 -191q-38 -15 -53 21z" />
    <glyph glyph-name="ocircumflex" unicode="&#xf4;" horiz-adv-x="1284" 
d="M555 -33q-230 0 -355.5 116.5t-125.5 328.5q0 146 49 272t135 215.5t207.5 140t261.5 50.5q229 0 354 -118t125 -319q0 -198 -83 -354.5t-232 -244t-336 -87.5zM473 1182q-27 0 -33.5 15.5t11.5 35.5l211 221q23 23 51 23h248q35 0 49 -29l114 -217q10 -22 1.5 -35.5
t-31.5 -13.5h-166q-33 0 -49 28l-62 103q-7 11 -16 2l-119 -113q-20 -20 -49 -20h-160zM418 436q-2 -103 39 -162t127 -59q85 0 150 61.5t96.5 153t33.5 195.5q3 217 -170 217q-84 0 -148 -59.5t-95.5 -150.5t-32.5 -196z" />
    <glyph glyph-name="otilde" unicode="&#xf5;" horiz-adv-x="1284" 
d="M555 -33q-230 0 -355.5 116.5t-125.5 328.5q0 146 49 272t135 215.5t207.5 140t261.5 50.5q229 0 354 -118t125 -319q0 -198 -83 -354.5t-232 -244t-336 -87.5zM446 1182q-21 0 -30.5 11.5t-5.5 31.5q20 110 94.5 174.5t179.5 64.5q67 0 156 -39q70 -32 106 -32
q47 0 62 37q8 20 17.5 28t27.5 8h116q21 0 31 -11.5t6 -31.5q-20 -113 -93 -176t-177 -63q-59 0 -156 39q-86 32 -112 32q-46 0 -60 -36q-6 -20 -15.5 -28.5t-27.5 -8.5h-119zM418 436q-2 -103 39 -162t127 -59q85 0 150 61.5t96.5 153t33.5 195.5q3 217 -170 217
q-84 0 -148 -59.5t-95.5 -150.5t-32.5 -196z" />
    <glyph glyph-name="odieresis" unicode="&#xf6;" horiz-adv-x="1284" 
d="M555 -33q-230 0 -355.5 116.5t-125.5 328.5q0 146 49 272t135 215.5t207.5 140t261.5 50.5q229 0 354 -118t125 -319q0 -198 -83 -354.5t-232 -244t-336 -87.5zM418 436q-2 -103 39 -162t127 -59q85 0 150 61.5t96.5 153t33.5 195.5q3 217 -170 217q-84 0 -148 -59.5
t-95.5 -150.5t-32.5 -196zM457 1362q0 64 46 111t109 47t107.5 -46t44.5 -112q0 -64 -45.5 -109t-108.5 -45t-108 45.5t-45 108.5zM862 1364q0 63 45.5 110.5t106.5 47.5q64 0 108.5 -46t44.5 -112q0 -64 -45 -109t-108 -45t-107.5 45.5t-44.5 108.5z" />
    <glyph glyph-name="divide" unicode="&#xf7;" horiz-adv-x="1179" 
d="M631 987q-67 0 -112.5 42t-45.5 104q0 64 45 103.5t113 39.5q70 0 116 -39.5t46 -103.5q0 -62 -46 -104t-116 -42zM170 594q-41 0 -41 41v192q0 41 41 41h924q41 0 41 -41v-192q0 -41 -41 -41h-924zM473 328q0 64 45 104.5t113 40.5q70 0 116 -40.5t46 -104.5
q0 -62 -46 -104t-116 -42q-67 0 -112.5 42t-45.5 104z" />
    <glyph glyph-name="oslash" unicode="&#xf8;" horiz-adv-x="1284" 
d="M72 16q-27 31 0 58l65 63q8 8 2 19q-65 103 -65 256q0 146 49 272t135 215.5t207.5 140t261.5 50.5q173 0 295 -72q8 -6 16 2l64 61q28 29 57 0l47 -41q30 -27 0 -57l-63 -63q-8 -8 -2 -19q65 -103 65 -248q0 -198 -83 -354.5t-232 -244t-336 -87.5q-180 0 -299 72
q-8 6 -16 -2l-68 -66q-30 -30 -57 0zM418 436v-4q0 -16 14 -6l373 365q10 10 -2 16q-41 35 -109 35q-84 0 -148 -59.5t-95.5 -150.5t-32.5 -196zM477 268q-5 -3 -5 -8t5 -8q40 -37 107 -37q85 0 150 61.5t96.5 153t33.5 195.5v2q0 17 -14 6z" />
    <glyph glyph-name="ugrave" unicode="&#xf9;" horiz-adv-x="1355" 
d="M1286 1057q21 0 30.5 -12t4.5 -33l-203 -975q-6 -37 -45 -37h-246q-42 0 -36 45l16 90q3 14 -6 17t-19 -9q-154 -176 -358 -176q-84 0 -153 26.5t-117 78.5t-65 129.5t3 179.5l135 639q6 37 45 37h254q21 0 30.5 -12t4.5 -33l-110 -531q-27 -127 16.5 -192.5t140.5 -65.5
t170 69.5t99 194.5l110 533q6 37 45 37h254zM518 1389q-37 15 -22 53l55 121q15 37 53 20l449 -199q35 -15 20 -53l-47 -112q-15 -36 -53 -21z" />
    <glyph glyph-name="uacute" unicode="&#xfa;" horiz-adv-x="1355" 
d="M1286 1057q21 0 30.5 -12t4.5 -33l-203 -975q-6 -37 -45 -37h-246q-42 0 -36 45l16 90q3 14 -6 17t-19 -9q-154 -176 -358 -176q-84 0 -153 26.5t-117 78.5t-65 129.5t3 179.5l135 639q6 37 45 37h254q21 0 30.5 -12t4.5 -33l-110 -531q-27 -127 16.5 -192.5t140.5 -65.5
t170 69.5t99 194.5l110 533q6 37 45 37h254zM514 1331q-15 37 21 53l452 199q39 16 53 -20l54 -121q15 -38 -23 -53l-457 -191q-38 -15 -53 21z" />
    <glyph glyph-name="ucircumflex" unicode="&#xfb;" horiz-adv-x="1355" 
d="M1286 1057q21 0 30.5 -12t4.5 -33l-203 -975q-6 -37 -45 -37h-246q-42 0 -36 45l16 90q3 14 -6 17t-19 -9q-154 -176 -358 -176q-84 0 -153 26.5t-117 78.5t-65 129.5t3 179.5l135 639q6 37 45 37h254q21 0 30.5 -12t4.5 -33l-110 -531q-27 -127 16.5 -192.5t140.5 -65.5
t170 69.5t99 194.5l110 533q6 37 45 37h254zM500 1182q-27 0 -34 15.5t11 35.5l211 221q23 23 51 23h248q35 0 49 -29l115 -217q10 -22 1 -35.5t-32 -13.5h-166q-33 0 -49 28l-61 103q-8 11 -17 2l-118 -113q-20 -20 -50 -20h-159z" />
    <glyph glyph-name="udieresis" unicode="&#xfc;" horiz-adv-x="1355" 
d="M1286 1057q21 0 30.5 -12t4.5 -33l-203 -975q-6 -37 -45 -37h-246q-42 0 -36 45l16 90q3 14 -6 17t-19 -9q-154 -176 -358 -176q-84 0 -153 26.5t-117 78.5t-65 129.5t3 179.5l135 639q6 37 45 37h254q21 0 30.5 -12t4.5 -33l-110 -531q-27 -127 16.5 -192.5t140.5 -65.5
t170 69.5t99 194.5l110 533q6 37 45 37h254zM483 1362q0 64 46.5 111t109.5 47t107.5 -46t44.5 -112q0 -64 -45.5 -109t-108.5 -45t-108.5 45.5t-45.5 108.5zM889 1364q0 63 45 110.5t106 47.5q64 0 109 -46t45 -112q0 -64 -45.5 -109t-108.5 -45t-107 45.5t-44 108.5z" />
    <glyph glyph-name="yacute" unicode="&#xfd;" horiz-adv-x="1202" 
d="M141 -397q-84 0 -194 22q-41 7 -31 47l33 160q9 37 49 31q49 -8 86 -8q71 0 115.5 26.5t76.5 87.5l15 27q2 6 2 16l-127 1002q-6 43 37 43h278q38 0 41 -39l15 -238q10 -187 10 -483q0 -15 11 -16.5t17 12.5q39 87 106.5 248.5t106.5 242.5l117 242q13 31 47 31h258
q23 0 31 -13.5t-2 -35.5l-569 -1051q-100 -184 -227 -269t-302 -85zM449 1331q-15 38 20 53l453 199q39 16 53 -20l53 -121q15 -38 -22 -53l-457 -191q-38 -15 -53 21z" />
    <glyph glyph-name="thorn" unicode="&#xfe;" horiz-adv-x="1347" 
d="M-27 -410q-44 0 -34 45l374 1795q6 36 45 36h254q22 0 32 -12.5t5 -32.5l-104 -477q-3 -13 7 -17t19 5q158 158 351 158q168 0 261 -118t93 -302q0 -95 -25.5 -194t-75.5 -190t-116.5 -163t-156.5 -115t-189 -43q-193 0 -301 156q-7 10 -15 13t-14 -1.5t-8 -15.5
l-103 -490q-6 -37 -45 -37h-254zM449 475q-31 -136 17 -210.5t146 -74.5q72 0 134 41.5t101.5 107.5t62 144.5t22.5 155.5q0 112 -47 170.5t-127 58.5q-92 0 -173 -71.5t-108 -192.5z" />
    <glyph glyph-name="ydieresis" unicode="&#xff;" horiz-adv-x="1202" 
d="M141 -397q-84 0 -194 22q-41 7 -31 47l33 160q9 37 49 31q49 -8 86 -8q71 0 115.5 26.5t76.5 87.5l15 27q2 6 2 16l-127 1002q-6 43 37 43h278q38 0 41 -39l15 -238q10 -187 10 -483q0 -15 11 -16.5t17 12.5q39 87 106.5 248.5t106.5 242.5l117 242q13 31 47 31h258
q23 0 31 -13.5t-2 -35.5l-569 -1051q-100 -184 -227 -269t-302 -85zM418 1362q0 64 46 111t109 47t107.5 -46t44.5 -112q0 -64 -45.5 -109t-108.5 -45t-108 45.5t-45 108.5zM823 1364q0 63 45.5 110.5t106.5 47.5q64 0 108.5 -46t44.5 -112q0 -64 -45 -109t-108 -45
t-107.5 45.5t-44.5 108.5z" />
    <glyph glyph-name="Amacron" unicode="&#x100;" horiz-adv-x="1529" 
d="M330 29q-14 -29 -47 -29h-297q-23 0 -31.5 14.5t2.5 34.5l748 1356q15 29 49 29h379q40 0 45 -37l192 -1354q3 -20 -7.5 -31.5t-31.5 -11.5h-289q-40 0 -43 39l-26 260q0 4 -5 8t-10 4h-471q-11 0 -14 -8zM627 596q-6 -14 8 -14h295q10 0 10 12l-18 192q-19 200 -19 340
q0 12 -9.5 13.5t-14.5 -9.5q-113 -264 -158 -350zM680 1577q-21 0 -30.5 12t-4.5 33l27 133q6 37 45 37h626q21 0 30.5 -12t4.5 -33l-26 -133q-6 -37 -45 -37h-627z" />
    <glyph glyph-name="amacron" unicode="&#x101;" horiz-adv-x="1282" 
d="M201 725q-22 0 -32 13t-1 34q134 318 573 318q251 0 364.5 -101.5t76.5 -283.5l-138 -668q-6 -37 -45 -37h-239q-20 0 -30 12.5t-7 32.5l10 68q1 10 -4.5 14t-11.5 -2q-155 -158 -367 -158q-142 0 -228.5 68.5t-86.5 195.5q0 137 102 224t283 106l141 14q85 9 144 24
t90 36t45 42.5t18 49.5q9 59 -31 88t-129 29q-149 0 -202 -88q-19 -31 -47 -31h-248zM377 268q0 -45 29.5 -70t85.5 -24q97 2 190.5 70.5t114.5 173.5l8 41q2 10 -5.5 13t-17.5 -5q-49 -39 -200 -61l-72 -11q-66 -9 -99.5 -43.5t-33.5 -83.5zM479 1223q-21 0 -30.5 12
t-4.5 33l27 133q6 37 45 37h627q21 0 30.5 -12t4.5 -33l-27 -133q-6 -37 -45 -37h-627z" />
    <glyph glyph-name="Abreve" unicode="&#x102;" horiz-adv-x="1529" 
d="M330 29q-14 -29 -47 -29h-297q-23 0 -31.5 14.5t2.5 34.5l748 1356q15 29 49 29h379q40 0 45 -37l192 -1354q3 -20 -7.5 -31.5t-31.5 -11.5h-289q-40 0 -43 39l-26 260q0 4 -5 8t-10 4h-471q-11 0 -14 -8zM627 596q-6 -14 8 -14h295q10 0 10 12l-18 192q-19 200 -19 340
q0 12 -9.5 13.5t-14.5 -9.5q-113 -264 -158 -350zM680 1819q3 39 43 39h160q32 0 41 -41q6 -38 32 -59t64 -21q84 0 127 88q14 33 47 33h154q22 0 31.5 -13.5t2.5 -34.5q-46 -131 -146 -202.5t-239 -71.5q-151 0 -236.5 77t-80.5 206z" />
    <glyph glyph-name="abreve" unicode="&#x103;" horiz-adv-x="1282" 
d="M201 725q-22 0 -32 13t-1 34q134 318 573 318q251 0 364.5 -101.5t76.5 -283.5l-138 -668q-6 -37 -45 -37h-239q-20 0 -30 12.5t-7 32.5l10 68q1 10 -4.5 14t-11.5 -2q-155 -158 -367 -158q-142 0 -228.5 68.5t-86.5 195.5q0 137 102 224t283 106l141 14q85 9 144 24
t90 36t45 42.5t18 49.5q9 59 -31 88t-129 29q-149 0 -202 -88q-19 -31 -47 -31h-248zM377 268q0 -45 29.5 -70t85.5 -24q97 2 190.5 70.5t114.5 173.5l8 41q2 10 -5.5 13t-17.5 -5q-49 -39 -200 -61l-72 -11q-66 -9 -99.5 -43.5t-33.5 -83.5zM483 1446q-3 41 41 41h158
q33 0 45 -39q18 -72 96 -72q83 0 123 78q14 33 47 33h156q22 0 31.5 -12.5t3.5 -32.5q-40 -120 -142.5 -190t-238.5 -70q-141 0 -227.5 69.5t-92.5 194.5z" />
    <glyph glyph-name="Aogonek" unicode="&#x104;" horiz-adv-x="1529" 
d="M330 29q-14 -29 -47 -29h-297q-23 0 -31.5 14.5t2.5 34.5l748 1356q15 29 49 29h379q40 0 45 -37l194 -1362q6 -33 -29 -51q-145 -71 -145 -146q0 -59 66 -59q14 0 20 2q24 3 34.5 -5.5t6.5 -31.5l-16 -80q-7 -33 -37 -41q-53 -18 -109 -18q-88 0 -144 46.5t-56 121.5
q0 79 71.5 133.5t186.5 66.5q9 1 12.5 7.5t0 13t-12.5 6.5h-179q-40 0 -43 39l-26 260q0 4 -5 8t-10 4h-471q-11 0 -14 -8zM627 596q-6 -14 8 -14h295q10 0 10 12l-18 192q-19 200 -19 340q0 12 -9.5 13.5t-14.5 -9.5q-113 -264 -158 -350z" />
    <glyph glyph-name="aogonek" unicode="&#x105;" horiz-adv-x="1263" 
d="M1032 31q-6 -32 -37 -43q-161 -74 -161 -148q0 -61 73 -61q19 0 27 2q24 5 34.5 -4.5t6.5 -32.5l-19 -80q-7 -33 -36 -41q-52 -18 -113 -18q-93 0 -152 47t-59 123q0 81 75 138t199 71q8 0 8 8t-8 8h-120q-20 0 -30 12.5t-7 32.5l10 68q1 10 -4.5 14t-11.5 -2
q-155 -158 -367 -158q-142 0 -228.5 68.5t-86.5 195.5q0 137 102 224t283 106l141 14q85 9 144 24t90 36t45 42.5t18 49.5q9 59 -31 88t-129 29q-150 0 -203 -88q-19 -31 -47 -31h-248q-22 0 -31.5 13t-0.5 34q134 318 573 318q251 0 364 -101.5t76 -283.5zM367 268
q0 -45 29 -70t85 -24q97 2 190.5 70.5t114.5 173.5l9 41q2 10 -5.5 13t-17.5 -5q-49 -39 -201 -61l-71 -11q-66 -9 -99.5 -43.5t-33.5 -83.5z" />
    <glyph glyph-name="Cacute" unicode="&#x106;" horiz-adv-x="1556" 
d="M1397 469q22 0 32 -13t1 -34q-89 -224 -264.5 -339.5t-422.5 -115.5q-299 0 -463.5 150.5t-164.5 445.5q0 183 64.5 349t176.5 288t273 194t344 72q243 0 392.5 -113.5t172.5 -312.5q6 -43 -39 -43h-295q-34 0 -43 37q-20 69 -77.5 111.5t-147.5 42.5
q-103 0 -189.5 -59.5t-139.5 -153t-82 -201t-29 -211.5q0 -161 70.5 -239t195.5 -78q106 0 182 50.5t119 141.5q15 31 49 31h285zM745 1686q-15 37 21 53l448 198q39 17 54 -20l55 -121q15 -38 -23 -53l-454 -191q-38 -15 -53 21z" />
    <glyph glyph-name="cacute" unicode="&#x107;" horiz-adv-x="1208" 
d="M1047 360q22 0 30.5 -12.5t1.5 -34.5q-69 -177 -208.5 -261.5t-323.5 -84.5q-225 0 -348 120.5t-123 344.5q0 183 80 333t226 237.5t331 87.5q192 0 309 -90.5t133 -233.5q3 -41 -41 -41h-252q-32 0 -47 35q-31 82 -131 82q-83 0 -147 -68t-93.5 -161t-29.5 -189
q0 -209 164 -209q60 0 107 29.5t73 83.5q14 32 47 32h242zM451 1331q-15 38 20 53l453 199q39 16 53 -20l53 -121q15 -38 -22 -53l-457 -191q-38 -15 -53 21z" />
    <glyph glyph-name="Cdotaccent" unicode="&#x10a;" horiz-adv-x="1556" 
d="M1397 469q22 0 32 -13t1 -34q-89 -224 -264.5 -339.5t-422.5 -115.5q-299 0 -463.5 150.5t-164.5 445.5q0 183 64.5 349t176.5 288t273 194t344 72q243 0 392.5 -113.5t172.5 -312.5q6 -43 -39 -43h-295q-34 0 -43 37q-20 69 -77.5 111.5t-147.5 42.5
q-103 0 -189.5 -59.5t-139.5 -153t-82 -201t-29 -211.5q0 -161 70.5 -239t195.5 -78q106 0 182 50.5t119 141.5q15 31 49 31h285zM834 1724q0 77 56 134t132 57q78 0 134 -56t56 -135t-56.5 -133.5t-133.5 -54.5q-76 0 -132 56t-56 132z" />
    <glyph glyph-name="cdotaccent" unicode="&#x10b;" horiz-adv-x="1208" 
d="M1047 360q22 0 30.5 -12.5t1.5 -34.5q-69 -177 -208.5 -261.5t-323.5 -84.5q-225 0 -348 120.5t-123 344.5q0 183 80 333t226 237.5t331 87.5q192 0 309 -90.5t133 -233.5q3 -41 -41 -41h-252q-32 0 -47 35q-31 82 -131 82q-83 0 -147 -68t-93.5 -161t-29.5 -189
q0 -209 164 -209q60 0 107 29.5t73 83.5q14 32 47 32h242zM582 1374q0 77 56 134t132 57q80 0 135.5 -55t55.5 -136q0 -78 -56.5 -132t-134.5 -54q-77 0 -132.5 55t-55.5 131z" />
    <glyph glyph-name="Ccaron" unicode="&#x10c;" horiz-adv-x="1556" 
d="M1397 469q22 0 32 -13t1 -34q-89 -224 -264.5 -339.5t-422.5 -115.5q-299 0 -463.5 150.5t-164.5 445.5q0 183 64.5 349t176.5 288t273 194t344 72q243 0 392.5 -113.5t172.5 -312.5q6 -43 -39 -43h-295q-34 0 -43 37q-20 69 -77.5 111.5t-147.5 42.5
q-103 0 -189.5 -59.5t-139.5 -153t-82 -201t-29 -211.5q0 -161 70.5 -239t195.5 -78q106 0 182 50.5t119 141.5q15 31 49 31h285zM690 1782q-10 22 -2 35.5t31 13.5h166q33 0 49 -29l61 -102q3 -5 8.5 -5.5t10.5 3.5l116 112q21 21 50 21h159q27 0 34 -15.5t-11 -35.5
l-211 -221q-23 -23 -51 -23h-248q-34 0 -49 29z" />
    <glyph glyph-name="ccaron" unicode="&#x10d;" horiz-adv-x="1208" 
d="M1047 360q22 0 30.5 -12.5t1.5 -34.5q-69 -177 -208.5 -261.5t-323.5 -84.5q-225 0 -348 120.5t-123 344.5q0 183 80 333t226 237.5t331 87.5q192 0 309 -90.5t133 -233.5q3 -41 -41 -41h-252q-32 0 -47 35q-31 82 -131 82q-83 0 -147 -68t-93.5 -161t-29.5 -189
q0 -209 164 -209q60 0 107 29.5t73 83.5q14 32 47 32h242zM453 1427q-11 22 -3 36t31 14h166q33 0 49 -29l62 -102q8 -13 18 -3l117 113q21 21 49 21h160q26 0 33.5 -16t-11.5 -36l-211 -221q-22 -22 -51 -22h-248q-35 0 -49 28z" />
    <glyph glyph-name="Dcaron" unicode="&#x10e;" horiz-adv-x="1536" 
d="M674 283q127 0 229 75t157.5 189t63.5 244q7 103 -18.5 183.5t-90.5 130.5t-163 50h-197q-9 0 -12 -10l-182 -848q-3 -14 12 -14h201zM80 0q-21 0 -30.5 12t-4.5 33l285 1352q6 37 45 37h586q139 0 245 -45t170 -126.5t93.5 -191t23.5 -242.5q-6 -135 -41.5 -256.5
t-103.5 -227t-163 -182t-228 -120t-291 -43.5h-586zM690 1782q-10 22 -2 35.5t31 13.5h166q33 0 49 -29l61 -102q3 -5 8.5 -5.5t10.5 3.5l116 112q21 21 50 21h159q27 0 34 -15.5t-11 -35.5l-211 -221q-23 -23 -51 -23h-248q-34 0 -49 29z" />
    <glyph glyph-name="dcaron" unicode="&#x10f;" horiz-adv-x="1726" 
d="M1372 1466q21 0 30.5 -12t4.5 -33l-289 -1384q-6 -37 -45 -37h-250q-22 0 -32 12.5t-5 32.5l15 68q3 13 -7.5 17t-19.5 -5q-158 -158 -350 -158q-111 0 -193 61.5t-121.5 160t-39.5 219.5q0 95 25.5 192t75.5 185t116.5 157t156.5 109.5t189 40.5q193 0 301 -156
q7 -10 15 -13t14 1.5t8 15.5l102 490q6 36 45 36h254zM414 418q0 -113 47 -171.5t127 -58.5q92 0 172.5 72t107.5 193l29 129q31 136 -17.5 210t-146.5 74q-72 0 -134 -41.5t-101.5 -107.5t-61.5 -144t-22 -155zM1493 868q-22 0 -31.5 12.5t-3.5 34.5l154 484q9 35 45 35
h190q23 0 31.5 -14t-2.5 -36l-242 -485q-16 -31 -47 -31h-94z" />
    <glyph glyph-name="Dcroat" unicode="&#x110;" horiz-adv-x="1574" 
d="M90 799q6 37 45 37h105q9 0 12 10l117 551q6 37 45 37h585q139 0 245 -45t170 -126.5t94 -191t24 -242.5q-6 -135 -41.5 -256.5t-103.5 -227t-163 -182t-228 -120t-291 -43.5h-586q-21 0 -30.5 12t-4.5 33l129 604q3 15 -12 15h-92q-22 0 -32 12.5t-5 32.5zM500 297
q-3 -14 12 -14h201q127 0 229 75t157.5 189t63.5 244q7 103 -18.5 183.5t-90.5 130.5t-163 50h-197q-9 0 -12 -10l-64 -295q-3 -14 13 -14h239q22 0 32 -12.5t5 -32.5l-18 -91q-6 -36 -45 -36h-254q-8 0 -12 -11z" />
    <glyph glyph-name="dcroat" unicode="&#x111;" horiz-adv-x="1429" 
d="M772 1274q6 37 45 37h221q10 0 13 10l22 109q6 36 45 36h254q21 0 30.5 -12t4.5 -33l-21 -96q-3 -14 13 -14h129q21 0 30.5 -12t4.5 -33l-13 -62q-6 -37 -45 -37h-141q-9 0 -12 -10l-234 -1120q-6 -37 -45 -37h-250q-22 0 -32 12.5t-5 32.5l15 68q3 13 -7.5 17t-19.5 -5
q-158 -158 -350 -158q-111 0 -193 61.5t-121.5 160t-39.5 219.5q0 95 25.5 192t75.5 185t116.5 157t156.5 109.5t189 40.5q193 0 301 -156q7 -10 15 -13t14 1.5t8 15.5l45 213q3 14 -12 14h-209q-21 0 -30.5 12t-4.5 33zM414 418q0 -113 47 -171.5t127 -58.5q92 0 172.5 72
t107.5 193l29 129q31 136 -17.5 210t-146.5 74q-72 0 -134 -41.5t-101.5 -107.5t-61.5 -144t-22 -155z" />
    <glyph glyph-name="Emacron" unicode="&#x112;" horiz-adv-x="1316" 
d="M78 0q-21 0 -30.5 12t-4.5 33l287 1352q6 37 45 37h993q21 0 30.5 -12t4.5 -33l-39 -197q-6 -37 -45 -37h-668q-9 0 -12 -10l-53 -258q-3 -15 12 -15h578q22 0 31.5 -12t4.5 -33l-38 -188q-6 -37 -46 -37h-591q-10 0 -13 -10l-65 -299q-3 -14 12 -14h657q21 0 30.5 -12.5
t4.5 -33.5l-39 -196q-6 -37 -45 -37h-1001zM600 1577q-21 0 -30.5 12t-4.5 33l27 133q6 37 45 37h627q44 0 34 -45l-26 -133q-6 -37 -45 -37h-627z" />
    <glyph glyph-name="emacron" unicode="&#x113;" horiz-adv-x="1245" 
d="M1038 324q22 0 32 -13.5t1 -34.5q-64 -152 -205.5 -230.5t-326.5 -78.5q-208 0 -336.5 118t-128.5 337q0 185 79 337.5t222.5 241.5t322.5 89q213 0 338 -117t125 -311q0 -90 -22 -168q-8 -35 -45 -35h-699q-12 0 -12 -13q-6 -109 41 -170t139 -61q128 0 187 82
q18 27 49 27h239zM457 1223q-21 0 -30.5 12t-4.5 33l27 133q6 37 45 37h626q21 0 30.5 -12t4.5 -33l-27 -133q-6 -37 -45 -37h-626zM430 647q-4 -14 10 -14h391q12 0 15 12q6 91 -38 144t-132 53q-86 0 -152.5 -51.5t-93.5 -143.5z" />
    <glyph glyph-name="Ebreve" unicode="&#x114;" horiz-adv-x="1316" 
d="M78 0q-21 0 -30.5 12t-4.5 33l287 1352q6 37 45 37h993q21 0 30.5 -12t4.5 -33l-39 -197q-6 -37 -45 -37h-668q-9 0 -12 -10l-53 -258q-3 -15 12 -15h578q22 0 31.5 -12t4.5 -33l-38 -188q-6 -37 -46 -37h-591q-10 0 -13 -10l-65 -299q-3 -14 12 -14h657q21 0 30.5 -12.5
t4.5 -33.5l-39 -196q-6 -37 -45 -37h-1001zM600 1819q3 39 43 39h160q32 0 41 -41q6 -38 32 -59t64 -21q84 0 127 88q14 33 47 33h154q22 0 32 -13.5t3 -34.5q-46 -131 -146 -202.5t-239 -71.5q-151 0 -237 77.5t-81 205.5z" />
    <glyph glyph-name="ebreve" unicode="&#x115;" horiz-adv-x="1245" 
d="M1038 324q22 0 32 -13.5t1 -34.5q-64 -152 -205.5 -230.5t-326.5 -78.5q-208 0 -336.5 118t-128.5 337q0 185 79 337.5t222.5 241.5t322.5 89q213 0 338 -117t125 -311q0 -90 -22 -168q-8 -35 -45 -35h-699q-12 0 -12 -13q-6 -109 41 -170t139 -61q128 0 187 82
q18 27 49 27h239zM430 647q-4 -14 10 -14h391q12 0 15 12q6 91 -38 144t-132 53q-86 0 -152.5 -51.5t-93.5 -143.5zM461 1446q-3 41 41 41h157q34 0 46 -39q18 -72 96 -72q83 0 123 78q14 33 47 33h155q22 0 31.5 -12.5t3.5 -32.5q-40 -120 -142.5 -190t-238.5 -70
q-140 0 -226.5 69.5t-92.5 194.5z" />
    <glyph glyph-name="Edotaccent" unicode="&#x116;" horiz-adv-x="1316" 
d="M78 0q-21 0 -30.5 12t-4.5 33l287 1352q6 37 45 37h993q21 0 30.5 -12t4.5 -33l-39 -197q-6 -37 -45 -37h-668q-9 0 -12 -10l-53 -258q-3 -15 12 -15h578q22 0 31.5 -12t4.5 -33l-38 -188q-6 -37 -46 -37h-591q-10 0 -13 -10l-65 -299q-3 -14 12 -14h657q21 0 30.5 -12.5
t4.5 -33.5l-39 -196q-6 -37 -45 -37h-1001zM750 1724q0 77 56 134t132 57q78 0 134 -56t56 -135t-56.5 -133.5t-133.5 -54.5q-76 0 -132 56t-56 132z" />
    <glyph glyph-name="edotaccent" unicode="&#x117;" horiz-adv-x="1245" 
d="M1038 324q22 0 32 -13.5t1 -34.5q-64 -152 -205.5 -230.5t-326.5 -78.5q-208 0 -336.5 118t-128.5 337q0 185 79 337.5t222.5 241.5t322.5 89q213 0 338 -117t125 -311q0 -90 -22 -168q-8 -35 -45 -35h-699q-12 0 -12 -13q-6 -109 41 -170t139 -61q128 0 187 82
q18 27 49 27h239zM430 647q-4 -14 10 -14h391q12 0 15 12q6 91 -38 144t-132 53q-86 0 -152.5 -51.5t-93.5 -143.5zM600 1374q0 77 56 134t132 57q80 0 135.5 -55t55.5 -136q0 -78 -56.5 -132t-134.5 -54q-77 0 -132.5 55t-55.5 131z" />
    <glyph glyph-name="Eogonek" unicode="&#x118;" horiz-adv-x="1316" 
d="M78 0q-21 0 -30.5 12t-4.5 33l287 1352q6 37 45 37h993q21 0 30.5 -12t4.5 -33l-39 -197q-6 -37 -45 -37h-668q-9 0 -12 -10l-53 -258q-3 -15 12 -15h578q22 0 31.5 -12t4.5 -33l-38 -188q-6 -37 -46 -37h-591q-10 0 -13 -10l-65 -299q-3 -14 12 -14h657q21 0 30.5 -12.5
t4.5 -33.5l-41 -202q-6 -31 -35 -45q-151 -71 -151 -148q0 -29 18.5 -44t49.5 -15q14 0 20 2q24 3 34.5 -5.5t6.5 -31.5l-16 -80q-7 -33 -37 -41q-53 -18 -109 -18q-88 0 -144.5 46.5t-56.5 121.5q0 79 70.5 133.5t185.5 66.5q9 1 12 7.5t0 13t-12 6.5h-880z" />
    <glyph glyph-name="eogonek" unicode="&#x119;" horiz-adv-x="1245" 
d="M535 -33q-208 0 -334.5 118t-126.5 337q0 185 79 337.5t222.5 241.5t322.5 89q213 0 338 -117t125 -311q0 -90 -22 -168q-8 -35 -45 -35h-699q-12 0 -12 -13q-6 -109 41.5 -170t138.5 -61q128 0 187 82q18 27 49 27h239q23 0 32 -14t-1 -34q-46 -103 -124.5 -169.5
t-201.5 -106.5q-180 -79 -180 -168q0 -26 19.5 -39.5t50.5 -13.5q12 0 18 2q24 3 34.5 -5.5t6.5 -31.5l-16 -78q-7 -34 -37 -43q-64 -18 -127 -18q-82 0 -134 36t-52 105q0 75 57 123.5t158 71.5q13 3 12.5 14.5t-14.5 11.5h-4zM428 643q-4 -14 10 -14h391q12 0 15 12
q8 92 -35 146.5t-133 54.5q-87 0 -154 -52t-94 -147z" />
    <glyph glyph-name="Ecaron" unicode="&#x11a;" horiz-adv-x="1316" 
d="M78 0q-21 0 -30.5 12t-4.5 33l287 1352q6 37 45 37h993q21 0 30.5 -12t4.5 -33l-39 -197q-6 -37 -45 -37h-668q-9 0 -12 -10l-53 -258q-3 -15 12 -15h578q22 0 31.5 -12t4.5 -33l-38 -188q-6 -37 -46 -37h-591q-10 0 -13 -10l-65 -299q-3 -14 12 -14h657q21 0 30.5 -12.5
t4.5 -33.5l-39 -196q-6 -37 -45 -37h-1001zM606 1782q-10 22 -2 35.5t31 13.5h166q33 0 49 -29l61 -102q3 -5 8.5 -5.5t10.5 3.5l117 112q21 21 49 21h159q27 0 34 -15.5t-11 -35.5l-211 -221q-23 -23 -51 -23h-248q-34 0 -49 29z" />
    <glyph glyph-name="ecaron" unicode="&#x11b;" horiz-adv-x="1245" 
d="M1038 324q22 0 32 -13.5t1 -34.5q-64 -152 -205.5 -230.5t-326.5 -78.5q-208 0 -336.5 118t-128.5 337q0 185 79 337.5t222.5 241.5t322.5 89q213 0 338 -117t125 -311q0 -90 -22 -168q-8 -35 -45 -35h-699q-12 0 -12 -13q-6 -109 41 -170t139 -61q128 0 187 82
q18 27 49 27h239zM430 647q-4 -14 10 -14h391q12 0 15 12q6 91 -38 144t-132 53q-86 0 -152.5 -51.5t-93.5 -143.5zM471 1427q-11 22 -2.5 36t31.5 14h166q33 0 49 -29l61 -102q9 -13 19 -3l116 113q21 21 50 21h159q27 0 34 -16t-11 -36l-211 -221q-22 -22 -51 -22h-248
q-35 0 -49 28z" />
    <glyph glyph-name="Gbreve" unicode="&#x11e;" horiz-adv-x="1601" 
d="M627 -33q-77 0 -149.5 20.5t-140 66.5t-117 113t-79.5 167t-30 221q0 250 110 458t309.5 330.5t448.5 122.5q241 0 389.5 -113.5t171.5 -312.5q6 -43 -39 -43h-295q-34 0 -43 37q-20 69 -77.5 111.5t-147.5 42.5q-124 0 -226 -82t-159 -219t-57 -297q0 -75 13.5 -135
t43.5 -108.5t82.5 -75.5t124.5 -27q125 0 225.5 74t142.5 194q4 14 -10 14h-284q-21 0 -30.5 12t-4.5 33l32 162q6 37 46 37h604q21 0 30.5 -12t4.5 -33l-148 -688q-6 -37 -45 -37h-217q-20 0 -30 12.5t-7 32.5l25 131q2 9 -5.5 12t-13.5 -4q-88 -110 -196.5 -163.5
t-251.5 -53.5zM719 1819q3 39 43 39h160q32 0 41 -41q6 -38 32 -59t64 -21q84 0 127 88q14 33 47 33h153q22 0 32 -13.5t3 -34.5q-46 -131 -146 -202.5t-239 -71.5q-151 0 -236.5 77t-80.5 206z" />
    <glyph glyph-name="gbreve" unicode="&#x11f;" horiz-adv-x="1247" 
d="M553 389q-103 0 -170 19q-21 6 -39 -2q-31 -12 -54.5 -37t-23.5 -54q0 -28 23 -43.5t65 -15.5h414q303 0 303 -254q0 -102 -48.5 -179t-137.5 -124.5t-207 -70.5t-264 -23q-238 0 -362 58t-124 163q0 66 48 117.5t130 76.5q8 2 10.5 6.5t-0.5 9.5t-10 9
q-41 24 -64.5 66.5t-23.5 95.5q0 81 55 145.5t156 96.5q13 4 14.5 12t-7.5 14q-55 40 -77 85t-22 110q0 95 38 169.5t108.5 124t152.5 81.5t187 53l661 135q22 5 34 -7t7 -34l-31 -145q-9 -41 -47 -35l-235 30q-11 2 -14.5 -7t6.5 -15q131 -69 131 -225q0 -172 -160.5 -289
t-421.5 -117zM164 -72q0 -94 274 -94q332 0 332 121q0 63 -98 63h-348q-80 0 -120 -27t-40 -63zM446 721q0 -52 41.5 -81.5t118.5 -29.5q98 0 159.5 44.5t61.5 109.5q0 49 -41 77.5t-120 28.5q-97 0 -158.5 -41.5t-61.5 -107.5zM449 1446q-3 41 40 41h158q33 0 45 -39
q18 -72 96 -72q83 0 123 78q14 33 47 33h156q22 0 31.5 -12.5t3.5 -32.5q-40 -120 -142.5 -190t-238.5 -70q-140 0 -226.5 69.5t-92.5 194.5z" />
    <glyph glyph-name="Gdotaccent" unicode="&#x120;" horiz-adv-x="1601" 
d="M627 -33q-77 0 -149.5 20.5t-140 66.5t-117 113t-79.5 167t-30 221q0 250 110 458t309.5 330.5t448.5 122.5q241 0 389.5 -113.5t171.5 -312.5q6 -43 -39 -43h-295q-34 0 -43 37q-20 69 -77.5 111.5t-147.5 42.5q-124 0 -226 -82t-159 -219t-57 -297q0 -75 13.5 -135
t43.5 -108.5t82.5 -75.5t124.5 -27q125 0 225.5 74t142.5 194q4 14 -10 14h-284q-21 0 -30.5 12t-4.5 33l32 162q6 37 46 37h604q21 0 30.5 -12t4.5 -33l-148 -688q-6 -37 -45 -37h-217q-20 0 -30 12.5t-7 32.5l25 131q2 9 -5.5 12t-13.5 -4q-88 -110 -196.5 -163.5
t-251.5 -53.5zM868 1724q0 77 56.5 134t132.5 57q78 0 134 -56t56 -135t-56.5 -133.5t-133.5 -54.5t-133 56t-56 132z" />
    <glyph glyph-name="gdotaccent" unicode="&#x121;" horiz-adv-x="1247" 
d="M553 389q-103 0 -170 19q-21 6 -39 -2q-31 -12 -54.5 -37t-23.5 -54q0 -28 23 -43.5t65 -15.5h414q303 0 303 -254q0 -102 -48.5 -179t-137.5 -124.5t-207 -70.5t-264 -23q-238 0 -362 58t-124 163q0 66 48 117.5t130 76.5q8 2 10.5 6.5t-0.5 9.5t-10 9
q-41 24 -64.5 66.5t-23.5 95.5q0 81 55 145.5t156 96.5q13 4 14.5 12t-7.5 14q-55 40 -77 85t-22 110q0 95 38 169.5t108.5 124t152.5 81.5t187 53l661 135q22 5 34 -7t7 -34l-31 -145q-9 -41 -47 -35l-235 30q-11 2 -14.5 -7t6.5 -15q131 -69 131 -225q0 -172 -160.5 -289
t-421.5 -117zM164 -72q0 -94 274 -94q332 0 332 121q0 63 -98 63h-348q-80 0 -120 -27t-40 -63zM446 721q0 -52 41.5 -81.5t118.5 -29.5q98 0 159.5 44.5t61.5 109.5q0 49 -41 77.5t-120 28.5q-97 0 -158.5 -41.5t-61.5 -107.5zM588 1374q0 77 56 134t132 57q80 0 135.5 -55
t55.5 -136q0 -78 -56.5 -132t-134.5 -54q-77 0 -132.5 55t-55.5 131z" />
    <glyph glyph-name="uni0122" unicode="&#x122;" horiz-adv-x="1669" 
d="M606 -33q-77 0 -149.5 20.5t-140 66.5t-117 113t-79.5 167t-30 221q0 250 110 458t309.5 330.5t448.5 122.5q241 0 390 -113.5t172 -312.5q6 -43 -39 -43h-295q-34 0 -43 37q-20 69 -77.5 111.5t-147.5 42.5q-124 0 -226.5 -82t-159.5 -219t-57 -297q0 -75 13.5 -135
t43.5 -108.5t82.5 -75.5t124.5 -27q125 0 226 74.5t143 193.5q4 14 -10 14h-285q-21 0 -30.5 12t-4.5 33l33 162q6 37 45 37h604q21 0 30.5 -12t4.5 -33l-147 -688q-6 -37 -45 -37h-218q-20 0 -29.5 12t-6.5 33l24 131q2 9 -5 12t-13 -4q-88 -109 -196.5 -163t-252.5 -54z
M467 -516q-23 0 -31.5 12.5t0.5 34.5l135 313q12 31 50 31h217q24 0 31 -14.5t-5 -34.5l-198 -315q-16 -27 -50 -27h-149z" />
    <glyph glyph-name="uni0123" unicode="&#x123;" horiz-adv-x="1247" 
d="M553 389q-103 0 -170 19q-21 6 -39 -2q-31 -12 -54.5 -37t-23.5 -54q0 -28 23 -43.5t65 -15.5h414q303 0 303 -254q0 -102 -48.5 -179t-137.5 -124.5t-207 -70.5t-264 -23q-238 0 -362 58t-124 163q0 66 48 117.5t130 76.5q8 2 10.5 6.5t-0.5 9.5t-10 9
q-41 24 -64.5 66.5t-23.5 95.5q0 81 55 145.5t156 96.5q13 4 14.5 12t-7.5 14q-55 40 -77 85t-22 110q0 95 38 169.5t108.5 124t152.5 81.5t187 53l661 135q22 5 34 -7t7 -34l-31 -145q-9 -41 -47 -35l-235 30q-11 2 -14.5 -7t6.5 -15q131 -69 131 -225q0 -172 -160.5 -289
t-421.5 -117zM164 -72q0 -94 274 -94q332 0 332 121q0 63 -98 63h-348q-80 0 -120 -27t-40 -63zM446 721q0 -52 41.5 -81.5t118.5 -29.5q98 0 159.5 44.5t61.5 109.5q0 49 -41 77.5t-120 28.5q-97 0 -158.5 -41.5t-61.5 -107.5zM569 1178q-23 0 -31 12.5t1 34.5l135 313
q12 31 49 31h217q24 0 31.5 -14.5t-4.5 -34.5l-199 -316q-16 -26 -49 -26h-150z" />
    <glyph glyph-name="Hbar" unicode="&#x126;" horiz-adv-x="1607" 
d="M180 1231q6 37 45 37h123q9 0 12 10l25 119q6 37 45 37h281q44 0 34 -45l-22 -107q-3 -14 12 -14h475q10 0 13 10l26 119q10 37 45 37h281q21 0 30.5 -12t4.5 -33l-23 -107q-3 -14 12 -14h89q22 0 31.5 -12t4.5 -33l-18 -90q-6 -37 -45 -37h-102q-9 0 -13 -11l-221 -1048
q-6 -37 -45 -37h-283q-44 0 -34 45l110 520q3 15 -12 15h-475q-9 0 -13 -11l-110 -532q-6 -37 -45 -37h-283q-21 0 -30.5 12t-4.5 33l219 1036q3 15 -12 15h-108q-22 0 -32 12.5t-5 32.5zM639 870q-3 -14 12 -14h471q10 0 13 10l47 215q3 15 -13 15h-473q-8 0 -12 -11z" />
    <glyph glyph-name="hbar" unicode="&#x127;" horiz-adv-x="1390" 
d="M190 1167q-44 0 -34 45l12 62q6 37 45 37h104q10 0 13 10l22 109q6 36 45 36h252q21 0 30.5 -12t4.5 -33l-20 -96q-3 -14 12 -14h248q44 0 34 -45l-12 -62q-6 -37 -45 -37h-260q-9 0 -12 -10l-49 -235q-3 -14 5.5 -17.5t18.5 8.5q83 94 167.5 135.5t184.5 41.5
q84 0 153 -26.5t117 -78.5t65 -129.5t-3 -179.5l-135 -639q-6 -37 -45 -37h-254q-21 0 -30.5 12t-4.5 33l111 530q27 127 -17 193t-141 66t-169.5 -70t-98.5 -195l-111 -532q-6 -37 -45 -37h-254q-21 0 -30.5 12t-4.5 33l236 1108q3 14 -12 14h-93z" />
    <glyph glyph-name="Itilde" unicode="&#x128;" horiz-adv-x="655" 
d="M330 1397q6 37 45 37h280q21 0 30.5 -12t4.5 -33l-284 -1352q-6 -37 -46 -37h-282q-21 0 -30.5 12t-4.5 33zM207 1536q-21 0 -31 11.5t-6 31.5q20 110 95.5 175t178.5 65q67 0 156 -39q72 -33 107 -33q46 0 61 37q8 20 17.5 28.5t27.5 8.5h117q21 0 31 -12t6 -33
q-22 -112 -94.5 -175t-176.5 -63q-60 0 -157 39q-86 33 -113 33q-42 0 -57 -37q-8 -20 -17.5 -28.5t-27.5 -8.5h-117z" />
    <glyph glyph-name="itilde" unicode="&#x129;" horiz-adv-x="581" 
d="M227 1020q6 37 45 37h254q21 0 30.5 -12t4.5 -33l-207 -975q-6 -37 -45 -37h-254q-21 0 -30.5 12t-4.5 33zM90 1182q-21 0 -31 11.5t-6 31.5q20 110 95 174.5t180 64.5q66 0 155 -39q70 -32 107 -32q46 0 61 37q8 20 17.5 28t27.5 8h117q21 0 31 -11.5t6 -31.5
q-20 -113 -93 -176t-177 -63q-59 0 -156 39q-86 32 -113 32q-45 0 -59 -36q-6 -20 -15.5 -28.5t-27.5 -8.5h-119z" />
    <glyph glyph-name="Imacron" unicode="&#x12a;" horiz-adv-x="655" 
d="M330 1397q6 37 45 37h280q21 0 30.5 -12t4.5 -33l-284 -1352q-6 -37 -46 -37h-282q-21 0 -30.5 12t-4.5 33zM244 1577q-21 0 -30.5 12t-4.5 33l27 133q6 37 45 37h626q21 0 30.5 -12t4.5 -33l-27 -133q-6 -37 -45 -37h-626z" />
    <glyph glyph-name="imacron" unicode="&#x12b;" horiz-adv-x="581" 
d="M227 1020q6 37 45 37h254q21 0 30.5 -12t4.5 -33l-207 -975q-6 -37 -45 -37h-254q-21 0 -30.5 12t-4.5 33zM119 1223q-21 0 -30.5 12t-4.5 33l27 133q6 37 45 37h626q21 0 30.5 -12t4.5 -33l-26 -133q-6 -37 -46 -37h-626z" />
    <glyph glyph-name="Iogonek" unicode="&#x12e;" horiz-adv-x="657" 
d="M332 1397q6 37 45 37h280q21 0 30.5 -12t4.5 -33l-286 -1358q-5 -30 -35 -45q-69 -35 -107.5 -75t-38.5 -77q0 -59 68 -59q12 0 16 2q25 2 35 -7t6 -32l-16 -78q-7 -33 -37 -41q-46 -14 -104 -14q-87 0 -143 45t-56 117q0 81 70.5 139t181.5 69q9 1 12.5 7t0 12t-12.5 6
h-166q-21 0 -30.5 12t-4.5 33z" />
    <glyph glyph-name="iogonek" unicode="&#x12f;" horiz-adv-x="581" 
d="M227 1020q6 37 45 37h254q21 0 30.5 -12t4.5 -33l-209 -981q-5 -30 -35 -45q-69 -35 -107 -75t-38 -77q0 -59 68 -59q12 0 16 2q25 2 35 -7t6 -32l-16 -78q-7 -33 -37 -41q-46 -14 -105 -14q-87 0 -142.5 45t-55.5 117q0 81 70.5 138t181.5 68q9 1 12.5 7.5t0 13
t-12.5 6.5h-138q-21 0 -30.5 12t-4.5 33zM262 1374q0 76 57 133.5t134 57.5q79 0 134.5 -55t55.5 -136q0 -77 -56.5 -131.5t-133.5 -54.5t-134 55t-57 131z" />
    <glyph glyph-name="Idotaccent" unicode="&#x130;" horiz-adv-x="655" 
d="M330 1397q6 37 45 37h280q21 0 30.5 -12t4.5 -33l-284 -1352q-6 -37 -46 -37h-282q-21 0 -30.5 12t-4.5 33zM344 1724q0 77 56 134t132 57q78 0 134.5 -56t56.5 -135t-57 -133.5t-134 -54.5q-76 0 -132 56t-56 132z" />
    <glyph glyph-name="dotlessi" unicode="&#x131;" horiz-adv-x="581" 
d="M227 1020q6 37 45 37h254q21 0 30.5 -12t4.5 -33l-207 -975q-6 -37 -45 -37h-254q-21 0 -30.5 12t-4.5 33z" />
    <glyph glyph-name="IJ" unicode="&#x132;" horiz-adv-x="1914" 
d="M330 1397q6 37 45 37h280q21 0 30.5 -12t4.5 -33l-284 -1352q-6 -37 -46 -37h-282q-21 0 -30.5 12t-4.5 33zM733 494l10 43q9 34 45 34h267q22 0 32 -12.5t5 -32.5l-9 -37q-23 -128 7 -185.5t122 -57.5q74 0 125.5 55t73.5 156l199 940q6 37 45 37h278q21 0 30.5 -12
t4.5 -33l-196 -953q-26 -125 -82 -216.5t-135.5 -146t-174.5 -80.5t-209 -26q-117 0 -209.5 33t-154.5 98.5t-82 164.5t8 231z" />
    <glyph glyph-name="ij" unicode="&#x133;" horiz-adv-x="1212" 
d="M236 1020q6 37 45 37h254q44 0 34 -45l-207 -975q-6 -37 -45 -37h-254q-44 0 -34 45zM264 1374q0 76 59 134.5t134 58.5q77 0 133.5 -56t56.5 -137q0 -77 -56.5 -131.5t-135.5 -54.5q-76 0 -133.5 54.5t-57.5 131.5zM377 -371q-41 7 -31 47l35 160q9 37 49 31
q38 -6 70 -6q59 0 93.5 32.5t49.5 106.5l213 1020q6 37 45 37h254q21 0 30.5 -12t4.5 -33l-221 -1049q-38 -182 -149.5 -268t-268.5 -86q-84 0 -174 20zM883 1374q0 76 57.5 134.5t132.5 58.5q77 0 133 -56t56 -137q0 -78 -55.5 -132t-133.5 -54q-76 0 -133 55t-57 131z" />
    <glyph glyph-name="uni0136" unicode="&#x136;" horiz-adv-x="1529" 
d="M82 0q-21 0 -30.5 12t-4.5 33l283 1352q6 37 45 37h282q22 0 32 -12.5t5 -32.5l-127 -574q-2 -10 5 -14t16 6q147 174 291 315l295 291q21 21 49 21h354q28 0 34 -16t-16 -36l-331 -303q-73 -65 -267 -235q-9 -7 -7 -14.5t14 -10.5q89 -23 135 -76.5t71 -158.5l125 -539
q5 -20 -5 -32.5t-32 -12.5h-286q-35 0 -45 37l-84 375q-22 97 -56 126t-129 29q-8 0 -14 -6l-201 -192q-1 -1 -8 -15l-65 -317q-6 -37 -45 -37h-283zM412 -516q-23 0 -31.5 12.5t0.5 34.5l135 313q12 31 49 31h217q24 0 31.5 -14.5t-4.5 -34.5l-199 -315q-16 -27 -49 -27
h-149z" />
    <glyph glyph-name="uni0137" unicode="&#x137;" horiz-adv-x="1255" 
d="M61 0q-44 0 -34 45l290 1385q6 36 45 36h244q21 0 30.5 -12t4.5 -33l-98 -471q-12 -61 -39 -169.5t-39 -143.5q-3 -9 4 -13t16 5q174 174 246 241l180 166q21 21 50 21h266q28 0 34.5 -15.5t-14.5 -35.5l-223 -203q-94 -86 -209 -178q-9 -8 -8 -13.5t12 -7.5
q88 -12 139.5 -62.5t69.5 -148.5l64 -348q6 -45 -37 -45h-244q-40 0 -45 37l-33 221q-11 71 -40 101t-87 30h-61q-15 0 -27 -10l-108 -94q-6 -6 -9 -15l-49 -233q-6 -37 -45 -37h-246zM262 -516q-23 0 -31.5 12.5t0.5 34.5l136 313q12 31 49 31h217q24 0 31 -14.5t-5 -34.5
l-198 -315q-16 -27 -49 -27h-150z" />
    <glyph glyph-name="Lacute" unicode="&#x139;" horiz-adv-x="1224" 
d="M78 0q-21 0 -30.5 12t-4.5 33l287 1352q6 37 45 37h282q21 0 30.5 -12t4.5 -33l-233 -1096q-3 -14 12 -14h588q21 0 30.5 -12.5t4.5 -33.5l-39 -196q-6 -37 -45 -37h-932zM365 1686q-15 38 20 53l449 198q38 17 53 -20l55 -121q15 -38 -22 -53l-455 -191q-38 -15 -53 21z
" />
    <glyph glyph-name="lacute" unicode="&#x13a;" horiz-adv-x="585" 
d="M313 1430q6 36 45 36h254q21 0 30.5 -12t4.5 -33l-293 -1384q-6 -37 -45 -37h-254q-21 0 -30.5 12t-4.5 33zM268 1718q-15 38 21 54l448 198q39 17 54 -20l55 -121q15 -38 -23 -53l-454 -191q-39 -16 -54 21z" />
    <glyph glyph-name="uni013B" unicode="&#x13b;" horiz-adv-x="1224" 
d="M78 0q-21 0 -30.5 12t-4.5 33l287 1352q6 37 45 37h282q21 0 30.5 -12t4.5 -33l-233 -1096q-3 -14 12 -14h588q21 0 30.5 -12.5t4.5 -33.5l-39 -196q-6 -37 -45 -37h-932zM242 -516q-23 0 -31.5 12.5t0.5 34.5l135 313q12 31 49 31h217q24 0 31.5 -14.5t-4.5 -34.5
l-199 -315q-16 -27 -49 -27h-149z" />
    <glyph glyph-name="uni013C" unicode="&#x13c;" horiz-adv-x="585" 
d="M313 1430q6 36 45 36h254q21 0 30.5 -12t4.5 -33l-293 -1384q-6 -37 -45 -37h-254q-21 0 -30.5 12t-4.5 33zM-113 -516q-23 0 -31 12.5t1 34.5l135 313q12 31 49 31h217q24 0 31.5 -14.5t-4.5 -34.5l-199 -315q-16 -27 -49 -27h-150z" />
    <glyph glyph-name="Lcaron" unicode="&#x13d;" horiz-adv-x="1224" 
d="M78 0q-21 0 -30.5 12t-4.5 33l287 1352q6 37 45 37h282q21 0 30.5 -12t4.5 -33l-233 -1096q-3 -14 12 -14h588q21 0 30.5 -12.5t4.5 -33.5l-39 -196q-6 -37 -45 -37h-932zM745 868q-22 0 -31 12.5t-3 34.5l153 484q9 35 45 35h191q23 0 31 -14t-3 -36l-241 -485
q-15 -31 -47 -31h-95z" />
    <glyph glyph-name="lcaron" unicode="&#x13e;" horiz-adv-x="905" 
d="M313 1430q6 36 45 36h254q21 0 30.5 -12t4.5 -33l-293 -1384q-6 -37 -45 -37h-254q-21 0 -30.5 12t-4.5 33zM676 868q-22 0 -31.5 12.5t-3.5 34.5l154 484q9 35 45 35h190q23 0 31.5 -14t-2.5 -36l-242 -485q-15 -31 -47 -31h-94z" />
    <glyph glyph-name="Ldot" unicode="&#x13f;" horiz-adv-x="1251" 
d="M78 0q-21 0 -30.5 12t-4.5 33l287 1352q6 37 45 37h282q21 0 30.5 -12t4.5 -33l-233 -1096q-3 -14 12 -14h588q21 0 30.5 -12.5t4.5 -33.5l-39 -196q-6 -37 -45 -37h-932zM707 721q0 77 56 133.5t132 56.5q78 0 134 -55.5t56 -134.5t-56.5 -134t-133.5 -55q-76 0 -132 56
t-56 133z" />
    <glyph glyph-name="ldot" unicode="&#x140;" horiz-adv-x="1075" 
d="M313 1430q6 36 45 36h254q21 0 30.5 -12t4.5 -33l-293 -1384q-6 -37 -45 -37h-254q-21 0 -30.5 12t-4.5 33zM618 778q0 77 56.5 134t132.5 57q78 0 134 -56t56 -135t-56.5 -133.5t-133.5 -54.5t-133 56t-56 132z" />
    <glyph glyph-name="Lslash" unicode="&#x141;" horiz-adv-x="1187" 
d="M27 557q-23 -9 -35 0.5t-8 34.5l22 113q6 31 37 43l115 43q7 2 10 14l125 592q6 37 45 37h283q44 0 34 -45l-88 -422q-2 -6 2.5 -10t10.5 -1l260 103q23 9 35.5 -1.5t7.5 -35.5l-23 -113q-6 -31 -37 -43l-295 -114q-7 -2 -10 -15l-96 -444q-3 -14 12 -14h588
q21 0 30.5 -12.5t4.5 -33.5l-39 -196q-6 -37 -45 -37h-932q-21 0 -30.5 12t-4.5 33l113 533q2 6 -2.5 9.5t-10.5 0.5z" />
    <glyph glyph-name="lslash" unicode="&#x142;" horiz-adv-x="704" 
d="M74 494q-23 -10 -35.5 -0.5t-7.5 34.5l18 84q5 28 35 43l143 64q9 3 11 12l147 699q6 36 45 36h254q21 0 30.5 -12t4.5 -33l-109 -514q-1 -7 3 -10t10 0l86 39q23 10 36.5 0t8.5 -35l-19 -84q-5 -28 -35 -43l-122 -55q-9 -3 -11 -12l-141 -670q-6 -37 -45 -37h-254
q-21 0 -30.5 12t-4.5 33l103 485q1 7 -3 10.5t-10 0.5z" />
    <glyph glyph-name="Nacute" unicode="&#x143;" horiz-adv-x="1527" 
d="M565 965q-29 -205 -71 -412l-105 -516q-6 -37 -45 -37h-266q-21 0 -30.5 12t-4.5 33l287 1352q6 37 45 37h323q36 0 45 -33l168 -522q25 -77 63.5 -203t51.5 -166q3 -9 12 -8t11 10q0 4 10.5 68.5t29 168t35.5 185.5l95 463q6 37 45 37h266q21 0 30.5 -12t4.5 -33
l-287 -1352q-6 -37 -45 -37h-309q-36 0 -47 33l-172 508q-16 46 -29 87.5t-27 93.5t-19.5 73t-23 90.5t-20.5 81.5t-11 10.5t-10 -12.5zM741 1686q-15 37 21 53l448 198q39 17 54 -20l55 -121q15 -38 -23 -53l-454 -191q-39 -16 -54 21z" />
    <glyph glyph-name="nacute" unicode="&#x144;" horiz-adv-x="1355" 
d="M59 0q-44 0 -34 45l202 975q6 37 45 37h246q43 0 37 -45l-16 -90q-3 -14 5.5 -17.5t18.5 8.5q155 177 359 177q84 0 153 -26.5t117 -78.5t64.5 -129.5t-3.5 -179.5l-135 -639q-6 -37 -45 -37h-254q-21 0 -30.5 12t-4.5 33l111 530q27 127 -17 193t-141 66t-169.5 -70
t-98.5 -195l-111 -532q-6 -37 -45 -37h-254zM522 1331q-15 37 21 53l452 199q40 16 54 -20l53 -121q15 -38 -23 -53l-456 -191q-39 -16 -54 21z" />
    <glyph glyph-name="uni0145" unicode="&#x145;" horiz-adv-x="1527" 
d="M565 965q-29 -205 -71 -412l-105 -516q-6 -37 -45 -37h-266q-21 0 -30.5 12t-4.5 33l287 1352q6 37 45 37h323q36 0 45 -33l168 -522q25 -77 63.5 -203t51.5 -166q3 -9 12 -8t11 10q0 4 10.5 68.5t29 168t35.5 185.5l95 463q6 37 45 37h266q21 0 30.5 -12t4.5 -33
l-287 -1352q-6 -37 -45 -37h-309q-36 0 -47 33l-172 508q-16 46 -29 87.5t-27 93.5t-19.5 73t-23 90.5t-20.5 81.5t-11 10.5t-10 -12.5zM395 -516q-23 0 -31 12.5t1 34.5l135 313q12 31 49 31h217q24 0 31.5 -14.5t-4.5 -34.5l-199 -315q-16 -27 -49 -27h-150z" />
    <glyph glyph-name="uni0146" unicode="&#x146;" horiz-adv-x="1355" 
d="M59 0q-44 0 -34 45l202 975q6 37 45 37h246q43 0 37 -45l-16 -90q-3 -14 5.5 -17.5t18.5 8.5q155 177 359 177q84 0 153 -26.5t117 -78.5t64.5 -129.5t-3.5 -179.5l-135 -639q-6 -37 -45 -37h-254q-21 0 -30.5 12t-4.5 33l111 530q27 127 -17 193t-141 66t-169.5 -70
t-98.5 -195l-111 -532q-6 -37 -45 -37h-254zM307 -516q-23 0 -31.5 12.5t0.5 34.5l136 313q12 31 49 31h217q24 0 31.5 -14.5t-4.5 -34.5l-199 -315q-16 -27 -49 -27h-150z" />
    <glyph glyph-name="Ncaron" unicode="&#x147;" horiz-adv-x="1527" 
d="M565 965q-29 -205 -71 -412l-105 -516q-6 -37 -45 -37h-266q-21 0 -30.5 12t-4.5 33l287 1352q6 37 45 37h323q36 0 45 -33l168 -522q25 -77 63.5 -203t51.5 -166q3 -9 12 -8t11 10q0 4 10.5 68.5t29 168t35.5 185.5l95 463q6 37 45 37h266q21 0 30.5 -12t4.5 -33
l-287 -1352q-6 -37 -45 -37h-309q-36 0 -47 33l-172 508q-16 46 -29 87.5t-27 93.5t-19.5 73t-23 90.5t-20.5 81.5t-11 10.5t-10 -12.5zM686 1782q-10 22 -2 35.5t31 13.5h166q33 0 49 -29l61 -102q3 -5 8.5 -5.5t10.5 3.5l116 112q21 21 50 21h159q27 0 34 -15.5t-11 -35.5
l-211 -221q-23 -23 -51 -23h-248q-34 0 -49 29z" />
    <glyph glyph-name="ncaron" unicode="&#x148;" horiz-adv-x="1355" 
d="M59 0q-44 0 -34 45l202 975q6 37 45 37h246q43 0 37 -45l-16 -90q-3 -14 5.5 -17.5t18.5 8.5q155 177 359 177q84 0 153 -26.5t117 -78.5t64.5 -129.5t-3.5 -179.5l-135 -639q-6 -37 -45 -37h-254q-21 0 -30.5 12t-4.5 33l111 530q27 127 -17 193t-141 66t-169.5 -70
t-98.5 -195l-111 -532q-6 -37 -45 -37h-254zM524 1427q-11 22 -2.5 36t31.5 14h166q33 0 49 -29l61 -102q9 -13 19 -3l117 113q21 21 49 21h160q26 0 33.5 -16t-11.5 -36l-211 -221q-22 -22 -51 -22h-248q-35 0 -49 28z" />
    <glyph glyph-name="Eng" unicode="&#x14a;" horiz-adv-x="1527" 
d="M1270 0q-81 -391 -469 -391q-101 0 -215 24q-38 6 -31 48l31 155q6 40 49 31q78 -12 106 -12q65 0 96.5 31.5t49.5 105.5q3 10 0 16l-182 533q-16 46 -29 87.5t-27 93.5t-19.5 73t-23 90.5t-20.5 81.5t-11 10.5t-10 -12.5q-29 -205 -71 -412l-105 -516q-6 -37 -45 -37
h-266q-21 0 -30.5 12t-4.5 33l287 1352q6 37 45 37h323q36 0 45 -33l168 -522q25 -77 63.5 -203t51.5 -166q3 -9 12 -8t11 10q0 4 10.5 68.5t29 168t35.5 185.5l95 463q6 37 45 37h266q21 0 30.5 -12t4.5 -33z" />
    <glyph glyph-name="eng" unicode="&#x14b;" horiz-adv-x="1357" 
d="M659 -391q-100 0 -188 16q-20 3 -29 16.5t-4 32.5l33 154q9 37 47 31q49 -6 94 -6q76 0 109 25t47 93l127 604q27 127 -14.5 193t-141.5 66q-98 0 -172 -75.5t-100 -203.5l-109 -518q-6 -37 -45 -37h-254q-44 0 -34 45l202 975q6 37 45 37h246q20 0 30 -12.5t7 -32.5
l-33 -187q-3 -15 6 -17.5t17 11.5q73 130 181.5 200.5t240.5 70.5q70 0 130 -26.5t103 -78.5t58 -129.5t-5 -179.5l-147 -707q-37 -177 -155.5 -268.5t-291.5 -91.5z" />
    <glyph glyph-name="Omacron" unicode="&#x14c;" horiz-adv-x="1613" 
d="M719 -31q-276 0 -442 160t-166 428q0 186 66.5 354t180.5 290t274 193.5t339 71.5q288 0 453.5 -157t160.5 -422t-116.5 -474.5t-307.5 -326.5t-442 -117zM487 573q0 -150 72.5 -237.5t200.5 -87.5q96 0 180 55t140 144t88 200.5t32 226.5q0 156 -72 235t-188 79
q-98 0 -184 -54.5t-144 -142t-91.5 -197t-33.5 -221.5zM721 1577q-21 0 -30.5 12t-4.5 33l27 133q6 37 45 37h626q21 0 30.5 -12t4.5 -33l-26 -133q-6 -37 -45 -37h-627z" />
    <glyph glyph-name="omacron" unicode="&#x14d;" horiz-adv-x="1284" 
d="M555 -33q-230 0 -355.5 116.5t-125.5 328.5q0 146 49 272t135 215.5t207.5 140t261.5 50.5q229 0 354 -118t125 -319q0 -198 -83 -354.5t-232 -244t-336 -87.5zM418 436q-2 -103 39 -162t127 -59q85 0 150 61.5t96.5 153t33.5 195.5q3 217 -170 217q-84 0 -148 -59.5
t-95.5 -150.5t-32.5 -196zM475 1223q-21 0 -30.5 12t-4.5 33l27 133q6 37 45 37h627q21 0 30.5 -12t4.5 -33l-27 -133q-6 -37 -45 -37h-627z" />
    <glyph glyph-name="Ohungarumlaut" unicode="&#x150;" horiz-adv-x="1613" 
d="M719 -31q-276 0 -442 160t-166 428q0 186 66.5 354t180.5 290t274 193.5t339 71.5q288 0 453.5 -157t160.5 -422t-116.5 -474.5t-307.5 -326.5t-442 -117zM487 573q0 -150 72.5 -237.5t200.5 -87.5q96 0 180 55t140 144t88 200.5t32 226.5q0 156 -72 235t-188 79
q-98 0 -184 -54.5t-144 -142t-91.5 -197t-33.5 -221.5zM711 1616q-31 25 -9 57l216 277q23 33 57 6l117 -94q35 -27 4 -58l-254 -243q-28 -25 -58 -2zM1112 1616q-31 24 -8 57l217 277q23 33 57 6l115 -94q34 -28 4 -58l-254 -243q-28 -25 -57 -2z" />
    <glyph glyph-name="ohungarumlaut" unicode="&#x151;" horiz-adv-x="1284" 
d="M555 -33q-230 0 -355.5 116.5t-125.5 328.5q0 146 49 272t135 215.5t207.5 140t261.5 50.5q229 0 354 -118t125 -319q0 -198 -83 -354.5t-232 -244t-336 -87.5zM418 436q-2 -103 39 -162t127 -59q85 0 150 61.5t96.5 153t33.5 195.5q3 217 -170 217q-84 0 -148 -59.5
t-95.5 -150.5t-32.5 -196zM459 1264q-31 24 -8 57l215 276q24 34 57 7l117 -95q34 -27 4 -57l-254 -244q-28 -25 -58 -2zM860 1264q-31 24 -8 57l217 276q24 34 57 7l115 -95q34 -27 4 -57l-254 -244q-28 -25 -57 -2z" />
    <glyph glyph-name="OE" unicode="&#x152;" horiz-adv-x="2336" 
d="M698 -31q-209 0 -355.5 100t-203 278t-10.5 401q45 218 164 382t286.5 250t360.5 86q171 0 285 -71q49 -30 84 -84q2 -6 12 -6q5 0 8 10l19 82q10 37 45 37h995q21 0 30.5 -12t4.5 -33l-39 -197q-6 -37 -45 -37h-666q-9 0 -12 -10l-57 -258q-3 -15 12 -15h582
q22 0 31.5 -12t4.5 -33l-39 -188q-6 -37 -45 -37h-596q-9 0 -12 -10l-63 -299q-3 -14 12 -14h657q21 0 30.5 -12.5t4.5 -33.5l-39 -196q-6 -37 -45 -37h-1003q-44 0 -35 45l6 33q3 9 -6 14q-7 4 -14 -6q-36 -36 -109 -66q-62 -27 -114.5 -39t-125.5 -12zM502 715
q-44 -226 29 -346.5t227 -120.5q163 0 273.5 116.5t152.5 340.5q94 483 -248 483q-67 0 -130.5 -25t-124 -78t-108 -148t-71.5 -222z" />
    <glyph glyph-name="oe" unicode="&#x153;" horiz-adv-x="2021" 
d="M555 -33q-234 0 -357.5 118.5t-123.5 324.5q0 196 83.5 351.5t232.5 242t337 86.5q228 0 344 -150q9 -12 14 -12.5t15 10.5q152 152 375 152q214 0 338 -117t124 -309q0 -92 -22 -170q-8 -35 -45 -35h-703q-12 0 -12 -13q-5 -110 42.5 -170.5t141.5 -60.5q128 0 187 82
q18 27 49 27h240q22 0 31.5 -13.5t0.5 -34.5q-64 -152 -207 -230.5t-331 -78.5q-235 0 -330 152q-7 12 -14 12.5t-17 -10.5q-154 -154 -393 -154zM418 436q-3 -221 168 -221q84 0 148 58.5t96 149t34 195.5q7 224 -168 224q-65 0 -118.5 -34t-87 -91.5t-52 -129.5
t-20.5 -151zM1200 643q-4 -14 10 -14h396q11 0 14 12q8 93 -36 147t-132 54q-84 0 -152.5 -51.5t-99.5 -147.5z" />
    <glyph glyph-name="Racute" unicode="&#x154;" horiz-adv-x="1435" 
d="M80 0q-21 0 -30.5 12t-4.5 33l285 1352q6 37 45 37h702q177 0 272 -89.5t95 -234.5q0 -142 -88 -251.5t-234 -141.5q-9 -2 -11.5 -6t0.5 -8t11 -5q70 -12 107.5 -69t34.5 -150l-15 -438q0 -19 -12 -30t-31 -11h-286q-44 0 -41 43l16 283q6 100 -30.5 133t-139.5 33h-211
q-8 0 -12 -11l-94 -444q-6 -37 -46 -37h-282zM557 752q-3 -15 12 -15h219q67 0 120.5 22.5t85.5 59.5t48.5 81t16.5 89q0 77 -43.5 121.5t-132.5 44.5h-230q-9 0 -12 -10zM688 1686q-15 37 21 53l448 198q38 17 53 -20l56 -121q15 -38 -23 -53l-455 -191q-38 -15 -53 21z
" />
    <glyph glyph-name="racute" unicode="&#x155;" horiz-adv-x="972" 
d="M59 0q-44 0 -34 45l202 975q6 37 45 37h244q20 0 30 -12.5t7 -32.5l-33 -191q-1 -12 6 -13.5t13 9.5q60 97 109.5 147.5t121.5 78.5t182 32q22 0 32 -12.5t5 -32.5l-41 -201q-5 -33 -45 -36q-111 -10 -180.5 -28.5t-128.5 -59.5q-112 -79 -154 -277l-82 -391
q-6 -37 -45 -37h-254zM342 1331q-15 38 20 53l453 199q39 16 53 -20l54 -121q15 -38 -23 -53l-457 -191q-38 -15 -53 21z" />
    <glyph glyph-name="uni0156" unicode="&#x156;" horiz-adv-x="1435" 
d="M80 0q-21 0 -30.5 12t-4.5 33l285 1352q6 37 45 37h702q177 0 272 -89.5t95 -234.5q0 -142 -88 -251.5t-234 -141.5q-9 -2 -11.5 -6t0.5 -8t11 -5q70 -12 107.5 -69t34.5 -150l-15 -438q0 -19 -12 -30t-31 -11h-286q-44 0 -41 43l16 283q6 100 -30.5 133t-139.5 33h-211
q-8 0 -12 -11l-94 -444q-6 -37 -46 -37h-282zM348 -516q-23 0 -31.5 12.5t0.5 34.5l136 313q12 31 49 31h217q24 0 31 -14.5t-5 -34.5l-198 -315q-16 -27 -49 -27h-150zM557 752q-3 -15 12 -15h219q67 0 120.5 22.5t85.5 59.5t48.5 81t16.5 89q0 77 -43.5 121.5t-132.5 44.5
h-230q-9 0 -12 -10z" />
    <glyph glyph-name="uni0157" unicode="&#x157;" horiz-adv-x="972" 
d="M59 0q-44 0 -34 45l202 975q6 37 45 37h244q20 0 30 -12.5t7 -32.5l-33 -191q-1 -12 6 -13.5t13 9.5q60 97 109.5 147.5t121.5 78.5t182 32q22 0 32 -12.5t5 -32.5l-41 -201q-5 -33 -45 -36q-111 -10 -180.5 -28.5t-128.5 -59.5q-112 -79 -154 -277l-82 -391
q-6 -37 -45 -37h-254zM-111 -516q-23 0 -31 12.5t1 34.5l135 313q12 31 49 31h217q24 0 31.5 -14.5t-4.5 -34.5l-199 -315q-16 -27 -49 -27h-150z" />
    <glyph glyph-name="Rcaron" unicode="&#x158;" horiz-adv-x="1435" 
d="M80 0q-21 0 -30.5 12t-4.5 33l285 1352q6 37 45 37h702q177 0 272 -89.5t95 -234.5q0 -142 -88 -251.5t-234 -141.5q-9 -2 -11.5 -6t0.5 -8t11 -5q70 -12 107.5 -69t34.5 -150l-15 -438q0 -19 -12 -30t-31 -11h-286q-44 0 -41 43l16 283q6 100 -30.5 133t-139.5 33h-211
q-8 0 -12 -11l-94 -444q-6 -37 -46 -37h-282zM557 752q-3 -15 12 -15h219q67 0 120.5 22.5t85.5 59.5t48.5 81t16.5 89q0 77 -43.5 121.5t-132.5 44.5h-230q-9 0 -12 -10zM633 1782q-10 22 -2 35.5t31 13.5h165q34 0 50 -29l61 -102q8 -12 18 -2l117 112q21 21 49 21h160
q27 0 34 -15.5t-11 -35.5l-211 -221q-23 -23 -52 -23h-247q-35 0 -50 29z" />
    <glyph glyph-name="rcaron" unicode="&#x159;" horiz-adv-x="972" 
d="M59 0q-44 0 -34 45l202 975q6 37 45 37h244q20 0 30 -12.5t7 -32.5l-33 -191q-1 -12 6 -13.5t13 9.5q60 97 109.5 147.5t121.5 78.5t182 32q22 0 32 -12.5t5 -32.5l-41 -201q-5 -33 -45 -36q-111 -10 -180.5 -28.5t-128.5 -59.5q-112 -79 -154 -277l-82 -391
q-6 -37 -45 -37h-254zM344 1427q-11 22 -2.5 36t31.5 14h166q33 0 49 -29l61 -102q9 -13 19 -3l116 113q21 21 50 21h159q27 0 34 -16t-11 -36l-211 -221q-22 -22 -51 -22h-248q-35 0 -49 28z" />
    <glyph glyph-name="Sacute" unicode="&#x15a;" horiz-adv-x="1372" 
d="M362 424q35 0 44 -37q20 -66 81 -101.5t152 -37.5q122 -2 197 46.5t75 127.5q0 35 -16.5 61t-50.5 43.5t-65 27.5t-81 21l-96 23q-49 12 -82.5 21t-78.5 26t-75.5 35.5t-63.5 48t-52.5 64t-32 83.5t-12.5 107q0 137 82.5 248t224 173t311.5 62q255 0 402 -116t143 -314
q0 -39 -41 -39h-266q-35 0 -41 39q-11 74 -68.5 115t-150.5 41q-109 0 -175.5 -48t-66.5 -124q0 -62 53 -99.5t168 -64.5l103 -25q152 -36 220 -70q179 -88 179 -286q0 -226 -184 -366t-480 -140q-263 0 -415.5 113t-147.5 303q0 39 41 39h266zM666 1686q-15 38 20 53
l449 198q38 17 53 -20l55 -121q15 -38 -22 -53l-455 -191q-38 -15 -53 21z" />
    <glyph glyph-name="sacute" unicode="&#x15b;" horiz-adv-x="1159" 
d="M319 324q18 0 27.5 -8.5t15.5 -28.5q27 -99 175 -99q80 0 128 30.5t48 78.5q0 37 -35 62t-113 42l-100 23q-29 7 -42.5 10t-46 12.5t-50.5 17t-47 22t-46.5 29t-39 36.5t-33 46t-19.5 56t-8 68q0 163 140 266t370 103q88 0 163.5 -17t140 -53t105 -101t46.5 -153
q0 -41 -41 -41h-226q-36 0 -45 39q-22 104 -153 104q-76 0 -122 -31t-46 -81q0 -38 36.5 -63t121.5 -44l102 -22q53 -12 93 -24t86.5 -35.5t76.5 -53.5t50 -76.5t20 -105.5q0 -166 -144 -267.5t-395 -101.5q-101 0 -184 18t-149.5 55t-106 100t-45.5 147q-3 41 41 41h251z
M422 1331q-15 38 20 53l453 199q39 16 53 -20l53 -121q15 -38 -22 -53l-457 -191q-38 -15 -53 21z" />
    <glyph glyph-name="Scedilla" unicode="&#x15e;" horiz-adv-x="1372" 
d="M362 424q35 0 44 -37q20 -66 81 -101.5t152 -37.5q122 -2 197 46.5t75 127.5q0 35 -16.5 61t-50.5 43.5t-65 27.5t-81 21l-96 23q-49 12 -82.5 21t-78.5 26t-75.5 35.5t-63.5 48t-52.5 64t-32 83.5t-12.5 107q0 137 82.5 248t224 173t311.5 62q255 0 402 -116t143 -314
q0 -39 -41 -39h-266q-35 0 -41 39q-11 74 -68.5 115t-150.5 41q-109 0 -175.5 -48t-66.5 -124q0 -62 53 -99.5t168 -64.5l103 -25q152 -36 220 -70q179 -88 179 -286q0 -210 -160 -347t-424 -157q-11 0 -16 -8q-21 -32 -70 -47q-10 -5 -10 -10q0 -6 12 -6l25 -2
q71 -2 116.5 -39t45.5 -99q0 -66 -45.5 -113.5t-112 -68t-143.5 -20.5q-68 0 -140 20q-32 8 -26 49l8 43q6 41 49 31q41 -12 86 -12q107 0 107 71q0 55 -95 58q-23 0 -33 10t-7 29l2 10q5 27 34 43q40 21 56 47q9 12 -9 16q-226 17 -354 128t-123 284q0 39 41 39h266z" />
    <glyph glyph-name="scedilla" unicode="&#x15f;" horiz-adv-x="1159" 
d="M319 324q18 0 27.5 -8.5t15.5 -28.5q27 -99 175 -99q80 0 128 30.5t48 78.5q0 37 -35 62t-113 42l-100 23q-29 7 -42.5 10t-46 12.5t-50.5 17t-47 22t-46.5 29t-39 36.5t-33 46t-19.5 56t-8 68q0 163 140 266t370 103q88 0 163.5 -17t140 -53t105 -101t46.5 -153
q0 -41 -41 -41h-226q-36 0 -45 39q-22 104 -153 104q-76 0 -122 -31t-46 -81q0 -38 36.5 -63t121.5 -44l102 -22q53 -12 93 -24t86.5 -35.5t76.5 -53.5t50 -76.5t20 -105.5q0 -154 -124.5 -254t-344.5 -113q-12 0 -17 -8q-24 -27 -65 -43q-11 -3 -11 -8q0 -6 13 -6l24 -2
q71 -2 116.5 -39t45.5 -99q0 -66 -45.5 -113.5t-112 -68t-143.5 -20.5q-67 0 -139 20q-33 9 -27 49l8 43q6 41 50 31q41 -12 86 -12q106 0 106 71q0 55 -94 58q-23 0 -33.5 10t-7.5 29l2 10q5 27 35 43q35 18 51 41q9 13 -8 16q-170 14 -274.5 92.5t-114.5 223.5
q-3 41 41 41h251z" />
    <glyph glyph-name="Scaron" unicode="&#x160;" horiz-adv-x="1372" 
d="M362 424q35 0 44 -37q20 -66 81 -101.5t152 -37.5q122 -2 197 46.5t75 127.5q0 35 -16.5 61t-50.5 43.5t-65 27.5t-81 21l-96 23q-49 12 -82.5 21t-78.5 26t-75.5 35.5t-63.5 48t-52.5 64t-32 83.5t-12.5 107q0 137 82.5 248t224 173t311.5 62q255 0 402 -116t143 -314
q0 -39 -41 -39h-266q-35 0 -41 39q-11 74 -68.5 115t-150.5 41q-109 0 -175.5 -48t-66.5 -124q0 -62 53 -99.5t168 -64.5l103 -25q152 -36 220 -70q179 -88 179 -286q0 -226 -184 -366t-480 -140q-263 0 -415.5 113t-147.5 303q0 39 41 39h266zM610 1782q-10 22 -2 35.5
t31 13.5h166q33 0 49 -29l61 -102q3 -5 8.5 -5.5t10.5 3.5l117 112q21 21 49 21h160q27 0 33.5 -15.5t-11.5 -35.5l-211 -221q-23 -23 -51 -23h-248q-34 0 -49 29z" />
    <glyph glyph-name="scaron" unicode="&#x161;" horiz-adv-x="1159" 
d="M319 324q18 0 27.5 -8.5t15.5 -28.5q27 -99 175 -99q80 0 128 30.5t48 78.5q0 37 -35 62t-113 42l-100 23q-29 7 -42.5 10t-46 12.5t-50.5 17t-47 22t-46.5 29t-39 36.5t-33 46t-19.5 56t-8 68q0 163 140 266t370 103q88 0 163.5 -17t140 -53t105 -101t46.5 -153
q0 -41 -41 -41h-226q-36 0 -45 39q-22 104 -153 104q-76 0 -122 -31t-46 -81q0 -38 36.5 -63t121.5 -44l102 -22q53 -12 93 -24t86.5 -35.5t76.5 -53.5t50 -76.5t20 -105.5q0 -166 -144 -267.5t-395 -101.5q-101 0 -184 18t-149.5 55t-106 100t-45.5 147q-3 41 41 41h251z
M424 1427q-11 22 -2.5 36t31.5 14h165q34 0 50 -29l61 -102q9 -13 19 -3l116 113q21 21 49 21h160q27 0 34 -16t-11 -36l-211 -221q-22 -22 -51 -22h-248q-35 0 -49 28z" />
    <glyph glyph-name="uni0162" unicode="&#x162;" horiz-adv-x="1333" 
d="M250 1155q-22 0 -32 12.5t-5 32.5l39 197q6 37 43 37h1112q22 0 32 -12.5t5 -32.5l-39 -197q-6 -37 -45 -37h-367q-9 0 -12 -10l-236 -1108q-6 -37 -45 -37h-51q-9 0 -12 -10q-16 -51 -84 -74q-10 -5 -10 -10q0 -6 12 -6l25 -2q71 -2 116 -39t45 -99q0 -66 -45.5 -113.5
t-112 -68t-143.5 -20.5q-67 0 -139 20q-33 9 -27 49l9 43q6 41 49 31q41 -12 86 -12q106 0 106 71q0 55 -94 58q-23 0 -33.5 10t-7.5 29l2 10q5 27 35 43q56 27 70 76q3 6 -1 10t-10 4h-67q-21 0 -30.5 12t-4.5 33l233 1096q3 14 -12 14h-354z" />
    <glyph glyph-name="uni0163" unicode="&#x163;" horiz-adv-x="923" 
d="M182 858q-21 0 -30.5 12t-4.5 33l23 117q6 37 45 37h100q10 0 13 10l45 229q6 37 45 37h246q44 0 34 -45l-45 -217q-3 -14 13 -14h237q21 0 30.5 -12t4.5 -33l-23 -117q-6 -37 -45 -37h-239q-10 0 -13 -10l-96 -455q-18 -86 6 -120.5t95 -34.5q24 0 106 12
q23 4 34.5 -7.5t6.5 -33.5l-33 -150q-7 -34 -37 -43q-62 -16 -145 -28q-8 -2 -14 -11q-17 -39 -78 -63q-10 -2 -10 -8t12 -6l24 -2q71 -2 116.5 -39t45.5 -99q0 -66 -45.5 -113.5t-112 -68t-143.5 -20.5q-67 0 -139 20q-33 9 -27 49l9 43q6 41 49 31q40 -12 86 -12
q106 0 106 71q0 55 -94 58q-23 0 -33.5 10t-7.5 29l2 10q5 27 35 43q49 23 65 63q4 12 -10 15q-145 20 -195 117t-14 276l99 463q3 14 -13 14h-86z" />
    <glyph glyph-name="Tcaron" unicode="&#x164;" horiz-adv-x="1333" 
d="M250 1155q-22 0 -32 12.5t-5 32.5l39 197q6 37 43 37h1112q22 0 32 -12.5t5 -32.5l-39 -197q-6 -37 -45 -37h-367q-9 0 -12 -10l-236 -1108q-6 -37 -45 -37h-282q-21 0 -30.5 12t-4.5 33l233 1096q3 14 -12 14h-354zM592 1782q-10 22 -2 35.5t31 13.5h165q34 0 50 -29
l61 -102q8 -12 18 -2l117 112q21 21 49 21h160q27 0 34 -15.5t-11 -35.5l-211 -221q-23 -23 -52 -23h-247q-34 0 -49 29z" />
    <glyph glyph-name="tcaron" unicode="&#x165;" horiz-adv-x="923" 
d="M182 858q-21 0 -30.5 12t-4.5 33l23 117q6 37 45 37h100q10 0 13 10l45 229q6 37 45 37h246q44 0 34 -45l-45 -217q-3 -14 13 -14h237q21 0 30.5 -12t4.5 -33l-23 -117q-6 -37 -45 -37h-239q-10 0 -13 -10l-96 -455q-18 -86 6 -120.5t95 -34.5q24 0 106 12
q23 4 34.5 -7.5t6.5 -33.5l-33 -150q-7 -35 -39 -43q-120 -34 -223 -34q-194 0 -264.5 98.5t-28.5 300.5l99 463q3 14 -13 14h-86zM788 1135q-22 0 -30.5 12.5t-1.5 34.5l121 342q11 32 47 32h188q23 0 32 -14.5t-3 -34.5l-193 -344q-14 -28 -49 -28h-111z" />
    <glyph glyph-name="Tbar" unicode="&#x166;" horiz-adv-x="1333" 
d="M309 641q-22 0 -32 12.5t-5 32.5l19 90q6 37 43 37h201q9 0 12 10l69 318q3 14 -12 14h-354q-22 0 -32 12.5t-5 32.5l39 197q6 37 43 37h1112q22 0 32 -12.5t5 -32.5l-39 -197q-6 -37 -45 -37h-367q-9 0 -12 -10l-70 -318q-3 -14 13 -14h176q22 0 32 -12.5t5 -32.5
l-19 -90q-6 -37 -43 -37h-190q-10 0 -13 -10l-127 -594q-6 -37 -45 -37h-282q-21 0 -30.5 12t-4.5 33l125 582q3 14 -12 14h-187z" />
    <glyph glyph-name="tbar" unicode="&#x167;" horiz-adv-x="923" 
d="M106 492q-44 0 -34 45l12 61q6 37 45 37h96q10 0 13 10l43 199q3 14 -13 14h-86q-21 0 -30.5 12t-4.5 33l23 117q6 37 45 37h100q10 0 13 10l45 229q6 37 45 37h246q44 0 34 -45l-45 -217q-3 -14 13 -14h237q21 0 30.5 -12t4.5 -33l-23 -117q-6 -37 -45 -37h-239
q-10 0 -13 -10l-43 -199q-3 -14 13 -14h227q21 0 30.5 -12t4.5 -33l-12 -62q-6 -36 -45 -36h-240q-8 0 -12 -11l-19 -88q-18 -86 6 -120.5t95 -34.5q24 0 106 12q23 4 34.5 -7.5t6.5 -33.5l-33 -150q-7 -35 -39 -43q-120 -34 -223 -34q-194 0 -264.5 98.5t-28.5 300.5l21 96
q3 15 -13 15h-84z" />
    <glyph glyph-name="utilde" unicode="&#x169;" horiz-adv-x="1355" 
d="M1286 1057q21 0 30.5 -12t4.5 -33l-203 -975q-6 -37 -45 -37h-246q-42 0 -36 45l16 90q3 14 -6 17t-19 -9q-154 -176 -358 -176q-84 0 -153 26.5t-117 78.5t-65 129.5t3 179.5l135 639q6 37 45 37h254q21 0 30.5 -12t4.5 -33l-110 -531q-27 -127 16.5 -192.5t140.5 -65.5
t170 69.5t99 194.5l110 533q6 37 45 37h254zM473 1182q-21 0 -31 11.5t-6 31.5q20 110 95 174.5t180 64.5q66 0 155 -39q70 -32 107 -32q46 0 61 37q8 20 17.5 28t27.5 8h117q21 0 31 -11.5t6 -31.5q-20 -113 -93 -176t-177 -63q-59 0 -156 39q-86 32 -113 32q-45 0 -59 -36
q-6 -20 -15.5 -28.5t-27.5 -8.5h-119z" />
    <glyph glyph-name="Umacron" unicode="&#x16a;" horiz-adv-x="1480" 
d="M152 649l159 748q6 37 45 37h283q21 0 30.5 -12t4.5 -33l-168 -791q-34 -160 9 -253t171 -93q117 0 198 75.5t111 221.5l176 848q6 37 46 37h284q21 0 30.5 -12t4.5 -33l-182 -883q-23 -108 -73.5 -198.5t-117 -152.5t-147.5 -105t-164.5 -63t-167.5 -20q-92 0 -171 16
t-149.5 50t-119.5 88t-80.5 130t-33.5 175t22 223zM655 1577q-44 0 -34 45l26 133q6 37 45 37h627q21 0 30.5 -12t4.5 -33l-27 -133q-6 -37 -45 -37h-627z" />
    <glyph glyph-name="umacron" unicode="&#x16b;" horiz-adv-x="1355" 
d="M1286 1057q21 0 30.5 -12t4.5 -33l-203 -975q-6 -37 -45 -37h-246q-42 0 -36 45l16 90q3 14 -6 17t-19 -9q-154 -176 -358 -176q-84 0 -153 26.5t-117 78.5t-65 129.5t3 179.5l135 639q6 37 45 37h254q21 0 30.5 -12t4.5 -33l-110 -531q-27 -127 16.5 -192.5t140.5 -65.5
t170 69.5t99 194.5l110 533q6 37 45 37h254zM502 1223q-21 0 -30.5 12t-4.5 33l27 133q6 37 45 37h626q21 0 30.5 -12t4.5 -33l-26 -133q-6 -37 -46 -37h-626z" />
    <glyph glyph-name="Uring" unicode="&#x16e;" horiz-adv-x="1480" 
d="M152 649l159 748q6 37 45 37h265q13 0 10 14q-10 42 -10 82q0 127 86.5 204.5t226.5 77.5q138 0 222.5 -76.5t84.5 -201.5q0 -46 -12 -86q-3 -14 10 -14h262q21 0 30.5 -12t4.5 -33l-182 -883q-23 -108 -73.5 -198.5t-117 -152.5t-147.5 -105t-164.5 -63t-167.5 -20
q-92 0 -171 16t-149.5 50t-119.5 88t-80.5 130t-33.5 175t22 223zM506 598q-34 -160 9 -253t171 -93q117 0 198 75.5t111 221.5l160 758q2 8 -2.5 11t-11.5 -3q-81 -66 -211 -66q-165 0 -248 103q-13 13 -16 -4zM821 1530q0 -43 30 -69.5t81 -26.5t83 28t32 72
q0 41 -31.5 67.5t-81.5 26.5q-51 0 -82 -27t-31 -71z" />
    <glyph glyph-name="uring" unicode="&#x16f;" horiz-adv-x="1355" 
d="M1286 1057q21 0 30.5 -12t4.5 -33l-203 -975q-6 -37 -45 -37h-246q-42 0 -36 45l16 90q3 14 -6 17t-19 -9q-154 -176 -358 -176q-84 0 -153 26.5t-117 78.5t-65 129.5t3 179.5l135 639q6 37 45 37h254q21 0 30.5 -12t4.5 -33l-110 -531q-27 -127 16.5 -192.5t140.5 -65.5
t170 69.5t99 194.5l110 533q6 37 45 37h254zM555 1462q0 127 86.5 205t226.5 78q139 0 224.5 -77t85.5 -202q0 -128 -86.5 -206t-227.5 -78q-139 0 -224 76.5t-85 203.5zM756 1462q0 -43 29.5 -69.5t80.5 -26.5q52 0 83.5 27.5t31.5 72.5q0 42 -31 68.5t-82 26.5
t-81.5 -27.5t-30.5 -71.5z" />
    <glyph glyph-name="Uhungarumlaut" unicode="&#x170;" horiz-adv-x="1480" 
d="M152 649l159 748q6 37 45 37h283q21 0 30.5 -12t4.5 -33l-168 -791q-34 -160 9 -253t171 -93q117 0 198 75.5t111 221.5l176 848q6 37 46 37h284q21 0 30.5 -12t4.5 -33l-182 -883q-23 -108 -73.5 -198.5t-117 -152.5t-147.5 -105t-164.5 -63t-167.5 -20q-92 0 -171 16
t-149.5 50t-119.5 88t-80.5 130t-33.5 175t22 223zM645 1616q-31 24 -8 57l215 277q23 33 57 6l117 -94q35 -27 4 -58l-254 -243q-28 -25 -57 -2zM1047 1616q-31 25 -9 57l217 277q23 34 58 6l114 -94q35 -28 5 -58l-254 -243q-28 -25 -58 -2z" />
    <glyph glyph-name="uhungarumlaut" unicode="&#x171;" horiz-adv-x="1355" 
d="M1286 1057q21 0 30.5 -12t4.5 -33l-203 -975q-6 -37 -45 -37h-246q-42 0 -36 45l16 90q3 14 -6 17t-19 -9q-154 -176 -358 -176q-84 0 -153 26.5t-117 78.5t-65 129.5t3 179.5l135 639q6 37 45 37h254q21 0 30.5 -12t4.5 -33l-110 -531q-27 -127 16.5 -192.5t140.5 -65.5
t170 69.5t99 194.5l110 533q6 37 45 37h254zM485 1264q-31 24 -8 57l215 276q24 34 58 7l116 -95q34 -27 4 -57l-254 -244q-28 -25 -57 -2zM887 1264q-31 24 -8 57l217 276q24 34 57 7l115 -95q34 -27 4 -57l-254 -244q-28 -25 -57 -2z" />
    <glyph glyph-name="Uogonek" unicode="&#x172;" horiz-adv-x="1480" 
d="M152 649l159 748q6 37 45 37h283q21 0 30.5 -12t4.5 -33l-168 -791q-34 -160 9 -253t171 -93q117 0 198 75.5t111 221.5l176 848q6 37 46 37h284q21 0 30.5 -12t4.5 -33l-182 -883q-40 -192 -161.5 -321.5t-293.5 -184.5q-178 -80 -178 -168q0 -53 67 -53q13 0 19 2
q24 3 34.5 -5.5t6.5 -31.5l-17 -78q-7 -34 -36 -43q-64 -18 -127 -18q-82 0 -133.5 36t-51.5 105q0 144 213 197q8 2 11 8t-0.5 11t-12.5 5h-10q-92 0 -171 16t-149.5 50t-119.5 88t-80.5 130t-33.5 175t22 223z" />
    <glyph glyph-name="uogonek" unicode="&#x173;" horiz-adv-x="1355" 
d="M899 -395q-88 0 -144.5 46.5t-56.5 121.5q0 79 71.5 133.5t186.5 66.5q9 1 12.5 7.5t0 13t-12.5 6.5h-129q-42 0 -36 45l16 90q3 14 -6 17t-19 -9q-154 -176 -358 -176q-84 0 -153 26.5t-117 78.5t-65 129.5t3 179.5l135 639q6 37 45 37h254q21 0 30.5 -12t4.5 -33
l-110 -531q-27 -127 16.5 -192.5t140.5 -65.5t170 69.5t99 194.5l110 533q6 37 45 37h254q21 0 30.5 -12t4.5 -33l-211 -1012q-7 -4 -27 -14q-149 -71 -149 -148q0 -59 65 -59q15 0 21 2q24 3 34.5 -5.5t6.5 -31.5l-17 -80q-7 -33 -36 -41q-52 -18 -109 -18z" />
    <glyph glyph-name="Wcircumflex" unicode="&#x174;" horiz-adv-x="2027" 
d="M332 0q-40 0 -43 39l-66 1354q-3 41 41 41h297q41 0 41 -41v-523q0 -92 -4 -243t-4 -203q0 -14 11 -14.5t16 12.5q16 48 43.5 121.5t67.5 173t61 155.5l200 529q13 33 47 33h297q41 0 41 -41l-4 -539q0 -82 -3 -245t-3 -185q0 -14 11 -14.5t16 12.5q11 33 41.5 111.5
t73.5 188t61 157.5l203 522q13 33 47 33h293q23 0 31 -14t-1 -36l-631 -1353q-13 -31 -47 -31h-338q-38 0 -38 41l14 614q0 14 7 154t7 170q0 13 -10 14t-14 -10q-26 -73 -129 -326l-252 -624q-13 -33 -47 -33h-334zM911 1536q-27 0 -33.5 15.5t11.5 35.5l211 221
q23 23 51 23h248q35 0 49 -29l115 -217q10 -22 1 -35.5t-32 -13.5h-166q-33 0 -49 29l-62 102q-7 11 -16 2l-119 -113q-20 -20 -49 -20h-160z" />
    <glyph glyph-name="wcircumflex" unicode="&#x175;" horiz-adv-x="1794" 
d="M295 0q-40 0 -43 39l-92 975q-3 43 39 43h268q38 0 41 -39l10 -156q4 -52 5.5 -103.5t1.5 -86t-0.5 -123t-0.5 -150.5q0 -19 11 -20t18 16q27 59 101.5 235t99.5 232l73 164q13 31 50 31h229q19 0 31 -11t12 -30l4 -154q8 -294 8 -463q0 -19 10.5 -21t18.5 15
q9 20 87.5 203t125.5 283l70 147q13 31 47 31h280q23 0 32 -13.5t-1 -35.5l-514 -979q-15 -29 -47 -29h-281q-19 0 -31 11t-12 30l-20 598q0 11 -5 15.5t-11.5 1.5t-10.5 -13l-272 -612q-12 -31 -49 -31h-283zM727 1182q-27 0 -33.5 15.5t11.5 35.5l210 221q23 23 52 23h247
q36 0 50 -29l114 -217q10 -22 1.5 -35.5t-31.5 -13.5h-166q-33 0 -49 28l-62 103q-7 11 -16 2l-119 -113q-20 -20 -49 -20h-160z" />
    <glyph glyph-name="Ycircumflex" unicode="&#x176;" horiz-adv-x="1447" 
d="M250 1386q-7 21 3 34.5t32 13.5h315q34 0 45 -33l68 -203q21 -63 49.5 -164.5t32.5 -132.5q2 -9 8.5 -10t11.5 8q37 73 209 309l147 201q17 25 50 25h313q26 0 33 -15t-8 -35l-637 -813l-7 -14l-108 -520q-6 -37 -45 -37h-285q-21 0 -30.5 12t-4.5 33l109 514q4 8 0 16z
M616 1536q-27 0 -33.5 15.5t11.5 35.5l211 221q23 23 51 23h248q34 0 49 -29l115 -217q10 -22 1 -35.5t-32 -13.5h-166q-33 0 -49 29l-61 102q-8 11 -17 2l-119 -113q-20 -20 -49 -20h-160z" />
    <glyph glyph-name="ycircumflex" unicode="&#x177;" horiz-adv-x="1202" 
d="M141 -397q-84 0 -194 22q-41 7 -31 47l33 160q9 37 49 31q49 -8 86 -8q71 0 115.5 26.5t76.5 87.5l15 27q2 6 2 16l-127 1002q-6 43 37 43h278q38 0 41 -39l15 -238q10 -187 10 -483q0 -15 11 -16.5t17 12.5q39 87 106.5 248.5t106.5 242.5l117 242q13 31 47 31h258
q23 0 31 -13.5t-2 -35.5l-569 -1051q-100 -184 -227 -269t-302 -85zM434 1182q-27 0 -33.5 15.5t11.5 35.5l211 221q23 23 51 23h248q34 0 49 -29l114 -217q10 -22 1.5 -35.5t-31.5 -13.5h-166q-33 0 -49 28l-62 103q-7 11 -16 2l-119 -113q-20 -20 -49 -20h-160z" />
    <glyph glyph-name="Ydieresis" unicode="&#x178;" horiz-adv-x="1447" 
d="M250 1386q-7 21 3 34.5t32 13.5h315q34 0 45 -33l68 -203q21 -63 49.5 -164.5t32.5 -132.5q2 -9 8.5 -10t11.5 8q37 73 209 309l147 201q17 25 50 25h313q26 0 33 -15t-8 -35l-637 -813l-7 -14l-108 -520q-6 -37 -45 -37h-285q-21 0 -30.5 12t-4.5 33l109 514q4 8 0 16z
M569 1692q0 63 45.5 109t108.5 46q64 0 107.5 -45t43.5 -110q0 -66 -44 -111t-109 -45q-63 0 -107.5 45.5t-44.5 110.5zM973 1692q0 63 46 110t107 47q64 0 108 -45.5t44 -111.5q0 -64 -44.5 -109t-107.5 -45t-108 45.5t-45 108.5z" />
    <glyph glyph-name="Zacute" unicode="&#x179;" horiz-adv-x="1359" 
d="M25 0q-21 0 -30.5 12t-4.5 33l47 219q5 24 26 45l834 813q9 7 6 15t-12 6q-94 -15 -449 -15h-143q-21 0 -30.5 12.5t-4.5 33.5l45 223q6 37 45 37h1039q44 0 34 -45l-43 -211q-5 -24 -26 -45l-846 -822q-7 -7 -4 -15.5t12 -6.5q91 16 402 16h245q21 0 30.5 -12t4.5 -33
l-47 -223q-6 -37 -45 -37h-1085zM692 1686q-15 37 21 53l448 198q38 17 53 -20l56 -121q15 -38 -23 -53l-454 -191q-39 -16 -54 21z" />
    <glyph glyph-name="zacute" unicode="&#x17a;" horiz-adv-x="1144" 
d="M39 0q-22 0 -32 12.5t-5 32.5l21 102q7 31 24 48l600 608q7 6 3 14.5t-15 7.5q-121 -16 -299 -16h-111q-21 0 -30.5 12t-4.5 33l33 166q6 37 45 37h819q22 0 32 -12.5t5 -32.5l-26 -129q-6 -28 -25 -47l-567 -580q-5 -6 -0.5 -16t14.5 -9q120 17 277 17h149
q21 0 30.5 -12t4.5 -33l-35 -166q-6 -37 -45 -37h-862zM416 1331q-15 38 20 53l453 199q39 16 53 -20l53 -121q15 -38 -22 -53l-457 -191q-38 -15 -53 21z" />
    <glyph glyph-name="Zdotaccent" unicode="&#x17b;" horiz-adv-x="1359" 
d="M25 0q-21 0 -30.5 12t-4.5 33l47 219q5 24 26 45l834 813q9 7 6 15t-12 6q-94 -15 -449 -15h-143q-21 0 -30.5 12.5t-4.5 33.5l45 223q6 37 45 37h1039q44 0 34 -45l-43 -211q-5 -24 -26 -45l-846 -822q-7 -7 -4 -15.5t12 -6.5q91 16 402 16h245q21 0 30.5 -12t4.5 -33
l-47 -223q-6 -37 -45 -37h-1085zM780 1724q0 77 56.5 134t132.5 57q78 0 134 -56t56 -135t-56.5 -133.5t-133.5 -54.5t-133 56t-56 132z" />
    <glyph glyph-name="zdotaccent" unicode="&#x17c;" horiz-adv-x="1144" 
d="M39 0q-22 0 -32 12.5t-5 32.5l21 102q7 31 24 48l600 608q7 6 3 14.5t-15 7.5q-121 -16 -299 -16h-111q-21 0 -30.5 12t-4.5 33l33 166q6 37 45 37h819q22 0 32 -12.5t5 -32.5l-26 -129q-6 -28 -25 -47l-567 -580q-5 -6 -0.5 -16t14.5 -9q120 17 277 17h149
q21 0 30.5 -12t4.5 -33l-35 -166q-6 -37 -45 -37h-862zM547 1374q0 77 56 134t132 57q80 0 135.5 -55t55.5 -136q0 -78 -56.5 -132t-134.5 -54q-77 0 -132.5 55t-55.5 131z" />
    <glyph glyph-name="Zcaron" unicode="&#x17d;" horiz-adv-x="1359" 
d="M25 0q-21 0 -30.5 12t-4.5 33l47 219q5 24 26 45l834 813q9 7 6 15t-12 6q-94 -15 -449 -15h-143q-21 0 -30.5 12.5t-4.5 33.5l45 223q6 37 45 37h1039q44 0 34 -45l-43 -211q-5 -24 -26 -45l-846 -822q-7 -7 -4 -15.5t12 -6.5q91 16 402 16h245q21 0 30.5 -12t4.5 -33
l-47 -223q-6 -37 -45 -37h-1085zM637 1782q-10 22 -2 35.5t31 13.5h165q34 0 50 -29l61 -102q3 -5 8.5 -5.5t10.5 3.5l116 112q21 21 49 21h160q27 0 34 -15.5t-11 -35.5l-211 -221q-23 -23 -51 -23h-248q-35 0 -49 29z" />
    <glyph glyph-name="zcaron" unicode="&#x17e;" horiz-adv-x="1144" 
d="M39 0q-22 0 -32 12.5t-5 32.5l21 102q7 31 24 48l600 608q7 6 3 14.5t-15 7.5q-121 -16 -299 -16h-111q-21 0 -30.5 12t-4.5 33l33 166q6 37 45 37h819q22 0 32 -12.5t5 -32.5l-26 -129q-6 -28 -25 -47l-567 -580q-5 -6 -0.5 -16t14.5 -9q120 17 277 17h149
q21 0 30.5 -12t4.5 -33l-35 -166q-6 -37 -45 -37h-862zM418 1427q-11 22 -3 36t31 14h166q34 0 50 -29l61 -102q8 -13 18 -3l117 113q21 21 49 21h160q27 0 34 -16t-11 -36l-211 -221q-22 -22 -52 -22h-247q-36 0 -50 28z" />
    <glyph glyph-name="florin" unicode="&#x192;" horiz-adv-x="1267" 
d="M-74 -172q9 39 49 33q44 -8 91 -8q84 0 135 38.5t80 124.5l213 615q1 6 -2 10t-9 4h-174q-21 0 -30.5 12t-4.5 33l23 117q6 37 45 37h213q11 0 14 10l78 221q67 199 199 296t336 97q82 0 164 -18q39 -9 30 -49l-33 -154q-9 -39 -49 -33q-50 9 -90 9q-83 0 -134.5 -39
t-80.5 -125l-74 -201q-3 -14 11 -14h227q21 0 30.5 -12t4.5 -33l-25 -117q-6 -37 -45 -37h-264q-12 0 -14 -10l-217 -635q-72 -211 -196 -302t-339 -91q-82 0 -164 18q-39 9 -30 49z" />
    <glyph glyph-name="uni01CD" unicode="&#x1cd;" horiz-adv-x="1529" 
d="M330 29q-14 -29 -47 -29h-297q-23 0 -31.5 14.5t2.5 34.5l748 1356q15 29 49 29h379q40 0 45 -37l192 -1354q3 -20 -7.5 -31.5t-31.5 -11.5h-289q-40 0 -43 39l-26 260q0 4 -5 8t-10 4h-471q-11 0 -14 -8zM627 596q-6 -14 8 -14h295q10 0 10 12l-18 192q-19 200 -19 340
q0 12 -9.5 13.5t-14.5 -9.5q-113 -264 -158 -350zM686 1782q-10 22 -2 35.5t31 13.5h166q33 0 49 -29l61 -102q3 -5 8.5 -5.5t10.5 3.5l116 112q21 21 50 21h159q27 0 34 -15.5t-11 -35.5l-211 -221q-23 -23 -51 -23h-248q-34 0 -49 29z" />
    <glyph glyph-name="uni01CE" unicode="&#x1ce;" horiz-adv-x="1282" 
d="M201 725q-22 0 -32 13t-1 34q134 318 573 318q251 0 364.5 -101.5t76.5 -283.5l-138 -668q-6 -37 -45 -37h-239q-20 0 -30 12.5t-7 32.5l10 68q1 10 -4.5 14t-11.5 -2q-155 -158 -367 -158q-142 0 -228.5 68.5t-86.5 195.5q0 137 102 224t283 106l141 14q85 9 144 24
t90 36t45 42.5t18 49.5q9 59 -31 88t-129 29q-149 0 -202 -88q-19 -31 -47 -31h-248zM377 268q0 -45 29.5 -70t85.5 -24q97 2 190.5 70.5t114.5 173.5l8 41q2 10 -5.5 13t-17.5 -5q-49 -39 -200 -61l-72 -11q-66 -9 -99.5 -43.5t-33.5 -83.5zM489 1405q-10 22 -2 35.5
t31 13.5h166q33 0 49 -29l62 -102q8 -12 18 -2l117 113q20 20 49 20h160q27 0 33.5 -15.5t-11.5 -35.5l-211 -221q-23 -23 -51 -23h-248q-35 0 -49 29z" />
    <glyph glyph-name="uni01E2" unicode="&#x1e2;" horiz-adv-x="2084" 
d="M1042 0q-40 0 -43 39l-26 260q0 4 -5 8t-10 4h-471q-11 0 -14 -8l-143 -274q-14 -29 -47 -29h-297q-23 0 -31.5 14.5t2.5 34.5l748 1356q15 29 49 29h1101q21 0 30.5 -12t4.5 -33l-39 -197q-6 -37 -45 -37h-583q-14 0 -11 -12l37 -258q0 -4 5 -8.5t10 -4.5h606
q22 0 32 -12.5t5 -32.5l-39 -188q-6 -37 -45 -37h-520q-14 0 -11 -12l43 -299q0 -4 5 -8t10 -4h587q21 0 30.5 -12.5t4.5 -33.5l-39 -196q-6 -37 -45 -37h-846zM627 596q-6 -14 8 -14h295q10 0 10 12l-18 192q-19 200 -19 340q0 12 -9.5 13.5t-14.5 -9.5
q-113 -264 -158 -350zM899 1577q-21 0 -30.5 12t-4.5 33l27 133q6 37 45 37h627q44 0 34 -45l-26 -133q-6 -37 -45 -37h-627z" />
    <glyph glyph-name="uni01E3" unicode="&#x1e3;" horiz-adv-x="1982" 
d="M350 -33q-142 0 -228.5 68.5t-86.5 195.5q0 137 102 224t283 106l141 14q85 9 144 24t90 36t45 42.5t18 49.5q9 59 -31 88t-129 29q-149 0 -202 -88q-19 -31 -47 -31h-248q-22 0 -32 13t-1 34q134 318 573 318q123 0 209 -35.5t125 -100.5q9 -15 15 -15.5t16 11.5
q59 68 150.5 104t189.5 36q211 0 331.5 -117t120.5 -309q0 -94 -22 -170q-8 -35 -45 -35h-698q-13 0 -13 -13q-7 -113 41 -172t139 -59q128 0 187 82q18 27 49 27h240q22 0 31.5 -13.5t0.5 -34.5q-64 -152 -206.5 -230.5t-329.5 -78.5q-168 0 -289 65.5t-156 164.5
q-14 40 -39 4q-72 -105 -193 -169.5t-245 -64.5zM377 268q0 -45 29.5 -70t85.5 -24q97 2 190.5 70.5t114.5 173.5l8 41q2 10 -5.5 13t-17.5 -5q-49 -39 -200 -61l-72 -11q-66 -9 -99.5 -43.5t-33.5 -83.5zM846 1223q-21 0 -30.5 12t-4.5 33l27 133q6 37 45 37h626
q21 0 30.5 -12t4.5 -33l-26 -133q-6 -37 -45 -37h-627zM1165 643q-3 -14 11 -14h393q11 0 14 12q6 93 -36 148t-130 55t-156.5 -53.5t-95.5 -147.5z" />
    <glyph glyph-name="AEacute" unicode="&#x1fc;" horiz-adv-x="2084" 
d="M1042 0q-40 0 -43 39l-26 260q0 4 -5 8t-10 4h-471q-11 0 -14 -8l-143 -274q-14 -29 -47 -29h-297q-23 0 -31.5 14.5t2.5 34.5l748 1356q15 29 49 29h1101q21 0 30.5 -12t4.5 -33l-39 -197q-6 -37 -45 -37h-583q-14 0 -11 -12l37 -258q0 -4 5 -8.5t10 -4.5h606
q22 0 32 -12.5t5 -32.5l-39 -188q-6 -37 -45 -37h-520q-14 0 -11 -12l43 -299q0 -4 5 -8t10 -4h587q21 0 30.5 -12.5t4.5 -33.5l-39 -196q-6 -37 -45 -37h-846zM627 596q-6 -14 8 -14h295q10 0 10 12l-18 192q-19 200 -19 340q0 12 -9.5 13.5t-14.5 -9.5
q-113 -264 -158 -350zM961 1686q-15 38 20 53l449 198q38 17 53 -20l55 -121q15 -38 -22 -53l-455 -191q-38 -15 -53 21z" />
    <glyph glyph-name="aeacute" unicode="&#x1fd;" horiz-adv-x="1982" 
d="M350 -33q-142 0 -228.5 68.5t-86.5 195.5q0 137 102 224t283 106l141 14q85 9 144 24t90 36t45 42.5t18 49.5q9 59 -31 88t-129 29q-149 0 -202 -88q-19 -31 -47 -31h-248q-22 0 -32 13t-1 34q134 318 573 318q123 0 209 -35.5t125 -100.5q9 -15 15 -15.5t16 11.5
q59 68 150.5 104t189.5 36q211 0 331.5 -117t120.5 -309q0 -94 -22 -170q-8 -35 -45 -35h-698q-13 0 -13 -13q-7 -113 41 -172t139 -59q128 0 187 82q18 27 49 27h240q22 0 31.5 -13.5t0.5 -34.5q-64 -152 -206.5 -230.5t-329.5 -78.5q-168 0 -289 65.5t-156 164.5
q-14 40 -39 4q-72 -105 -193 -169.5t-245 -64.5zM377 268q0 -45 29.5 -70t85.5 -24q97 2 190.5 70.5t114.5 173.5l8 41q2 10 -5.5 13t-17.5 -5q-49 -39 -200 -61l-72 -11q-66 -9 -99.5 -43.5t-33.5 -83.5zM858 1331q-15 37 21 53l452 199q39 16 53 -20l54 -121
q15 -38 -23 -53l-457 -191q-38 -15 -53 21zM1165 643q-3 -14 11 -14h393q11 0 14 12q6 93 -36 148t-130 55t-156.5 -53.5t-95.5 -147.5z" />
    <glyph glyph-name="uni0218" unicode="&#x218;" horiz-adv-x="1437" 
d="M387 424q34 0 43 -37q20 -66 81.5 -101.5t152.5 -37.5q122 -2 197 46.5t75 127.5q0 35 -16.5 61t-50.5 43.5t-65 27.5t-81 21l-96 23q-49 12 -82.5 21t-79 26t-75.5 35.5t-63.5 48t-52.5 64t-32 83.5t-13 107q0 137 82.5 248t224.5 173t312 62q255 0 402 -116t143 -314
q0 -39 -41 -39h-267q-35 0 -41 39q-11 74 -68.5 115t-150.5 41q-109 0 -175 -48t-66 -124q0 -62 53 -99.5t168 -64.5l102 -25q152 -36 219 -69q181 -89 181 -287q0 -226 -184 -366t-480 -140q-263 0 -415.5 113t-147.5 303q0 39 41 39h266zM330 -516q-23 0 -31.5 12.5
t0.5 34.5l135 313q12 31 49 31h217q24 0 31.5 -14.5t-4.5 -34.5l-199 -315q-16 -27 -49 -27h-149z" />
    <glyph glyph-name="uni0219" unicode="&#x219;" horiz-adv-x="1159" 
d="M319 324q18 0 27.5 -8.5t15.5 -28.5q27 -99 175 -99q80 0 128 30.5t48 78.5q0 37 -35 62t-113 42l-100 23q-29 7 -42.5 10t-46 12.5t-50.5 17t-47 22t-46.5 29t-39 36.5t-33 46t-19.5 56t-8 68q0 163 140 266t370 103q88 0 163.5 -17t140 -53t105 -101t46.5 -153
q0 -41 -41 -41h-226q-36 0 -45 39q-22 104 -153 104q-76 0 -122 -31t-46 -81q0 -38 36.5 -63t121.5 -44l102 -22q53 -12 93 -24t86.5 -35.5t76.5 -53.5t50 -76.5t20 -105.5q0 -166 -144 -267.5t-395 -101.5q-101 0 -184 18t-149.5 55t-106 100t-45.5 147q-3 41 41 41h251z
M207 -516q-23 0 -31.5 12.5t0.5 34.5l135 313q12 31 49 31h218q24 0 31 -14.5t-5 -34.5l-198 -315q-16 -27 -50 -27h-149z" />
    <glyph glyph-name="uni021A" unicode="&#x21a;" horiz-adv-x="1333" 
d="M250 1155q-22 0 -32 12.5t-5 32.5l39 197q6 37 43 37h1112q22 0 32 -12.5t5 -32.5l-39 -197q-6 -37 -45 -37h-367q-9 0 -12 -10l-236 -1108q-6 -37 -45 -37h-282q-21 0 -30.5 12t-4.5 33l233 1096q3 14 -12 14h-354zM260 -516q-23 0 -31.5 12.5t0.5 34.5l136 313
q12 31 49 31h217q24 0 31 -14.5t-5 -34.5l-198 -315q-16 -27 -49 -27h-150z" />
    <glyph glyph-name="uni021B" unicode="&#x21b;" horiz-adv-x="923" 
d="M182 858q-21 0 -30.5 12t-4.5 33l23 117q6 37 45 37h100q10 0 13 10l45 229q6 37 45 37h246q44 0 34 -45l-45 -217q-3 -14 13 -14h237q21 0 30.5 -12t4.5 -33l-23 -117q-6 -37 -45 -37h-239q-10 0 -13 -10l-96 -455q-18 -86 6 -120.5t95 -34.5q24 0 106 12
q23 4 34.5 -7.5t6.5 -33.5l-33 -150q-7 -35 -39 -43q-120 -34 -223 -34q-194 0 -264.5 98.5t-28.5 300.5l99 463q3 14 -13 14h-86zM170 -516q-23 0 -31.5 12.5t0.5 34.5l135 313q12 31 50 31h217q24 0 31 -14.5t-5 -34.5l-198 -315q-16 -27 -50 -27h-149z" />
    <glyph glyph-name="circumflex" unicode="&#x2c6;" horiz-adv-x="729" 
d="M201 1182q-27 0 -34 15.5t11 35.5l211 221q23 23 51 23h248q34 0 49 -29l115 -217q10 -22 1 -35.5t-32 -13.5h-166q-33 0 -49 28l-61 103q-8 11 -17 2l-118 -113q-20 -20 -50 -20h-159z" />
    <glyph glyph-name="caron" unicode="&#x2c7;" horiz-adv-x="729" 
d="M381 1182q-35 0 -49 28l-115 217q-10 22 -1 36t32 14h166q33 0 49 -29l61 -102q9 -13 19 -3l116 113q21 21 50 21h159q27 0 34 -16t-11 -36l-211 -221q-22 -22 -51 -22h-248z" />
    <glyph glyph-name="breve" unicode="&#x2d8;" horiz-adv-x="747" 
d="M539 1182q-141 0 -227.5 69.5t-92.5 194.5q-3 41 41 41h158q33 0 45 -39q18 -72 96 -72q83 0 123 78q14 33 47 33h156q22 0 32 -12t3 -33q-40 -120 -142.5 -190t-238.5 -70z" />
    <glyph glyph-name="dotaccent" unicode="&#x2d9;" horiz-adv-x="423" 
d="M387 1188q-77 0 -132.5 55t-55.5 131q0 77 56 134t132 57q80 0 135.5 -55t55.5 -136q0 -78 -56.5 -132t-134.5 -54z" />
    <glyph glyph-name="ring" unicode="&#x2da;" horiz-adv-x="712" 
d="M549 1182q-139 0 -224 76.5t-85 203.5t86.5 205t226.5 78q139 0 224 -77t85 -202q0 -128 -86 -206t-227 -78zM440 1462q0 -43 30 -69.5t81 -26.5q52 0 83.5 27.5t31.5 72.5q0 42 -31 68.5t-82 26.5t-82 -27.5t-31 -71.5z" />
    <glyph glyph-name="ogonek" unicode="&#x2db;" horiz-adv-x="466" 
d="M88 -395q-88 0 -144.5 46.5t-56.5 121.5q0 82 73.5 141.5t189.5 73.5q3 0 7.5 2.5t6.5 3.5q9 6 33 6h16q29 0 31.5 -13t-23.5 -28q-98 -61 -98 -121q0 -59 65 -59q15 0 21 2q24 3 34.5 -5.5t6.5 -31.5l-17 -80q-7 -33 -36 -41q-53 -18 -109 -18z" />
    <glyph glyph-name="tilde" unicode="&#x2dc;" horiz-adv-x="792" 
d="M201 1182q-21 0 -31 11.5t-6 31.5q20 110 94.5 174.5t179.5 64.5q67 0 156 -39q70 -32 106 -32q47 0 62 37q8 20 17.5 28t27.5 8h117q21 0 31 -11.5t6 -31.5q-20 -112 -93.5 -175.5t-177.5 -63.5q-58 0 -155 39q-86 32 -113 32q-46 0 -60 -36q-6 -20 -15.5 -28.5
t-27.5 -8.5h-118z" />
    <glyph glyph-name="hungarumlaut" unicode="&#x2dd;" horiz-adv-x="843" 
d="M340 1208q-29 -26 -57 -4l-74 60q-31 24 -8 57l215 276q24 34 57 7l117 -95q34 -27 4 -57zM610 1264q-31 24 -8 57l217 276q24 34 58 7l114 -95q34 -27 4 -57l-254 -244q-28 -25 -57 -2z" />
    <glyph glyph-name="uni02F3" unicode="&#x2f3;" horiz-adv-x="800" 
d="M211 -621q-139 0 -224 77t-85 204t86.5 205t226.5 78q139 0 224 -77t85 -202q0 -128 -86 -206.5t-227 -78.5zM102 -340q0 -43 30 -69.5t81 -26.5q52 0 83.5 27.5t31.5 72.5q0 42 -31 68t-82 26t-82 -27t-31 -71z" />
    <glyph glyph-name="gravecomb" unicode="&#x300;" 
d="M842 1573q-15 -37 -54 -21l-454 191q-38 15 -23 53l56 121q15 37 53 20l448 -198q36 -16 21 -53z" />
    <glyph glyph-name="acutecomb" unicode="&#x301;" 
d="M485 1552q-38 -15 -53 21l-47 113q-15 37 21 53l448 198q38 17 53 -20l56 -121q15 -38 -23 -53z" />
    <glyph glyph-name="uni0302" unicode="&#x302;" 
d="M299 1536q-27 0 -34 15.5t11 35.5l211 221q23 23 52 23h247q36 0 50 -29l114 -217q10 -22 1.5 -35.5t-31.5 -13.5h-166q-33 0 -49 29l-62 102q-7 11 -16 2l-119 -113q-20 -20 -49 -20h-160z" />
    <glyph glyph-name="tildecomb" unicode="&#x303;" 
d="M276 1536q-21 0 -30.5 11.5t-5.5 31.5q20 110 95.5 175t178.5 65q67 0 156 -39q72 -33 106 -33q47 0 62 37q8 20 17.5 28.5t27.5 8.5h116q21 0 31 -12t6 -33q-22 -112 -94 -175t-176 -63q-61 0 -158 39q-86 33 -112 33q-43 0 -58 -37q-8 -20 -17.5 -28.5t-27.5 -8.5h-117
z" />
    <glyph glyph-name="uni0304" unicode="&#x304;" 
d="M283 1577q-21 0 -30.5 12t-4.5 33l26 133q6 37 45 37h627q21 0 30.5 -12t4.5 -33l-27 -133q-6 -37 -45 -37h-626z" />
    <glyph glyph-name="uni0306" unicode="&#x306;" 
d="M610 1536q-151 0 -236.5 77t-80.5 206q3 39 43 39h160q32 0 41 -41q6 -38 32 -59t64 -21q84 0 127 88q14 33 47 33h154q22 0 31.5 -13.5t2.5 -36.5q-48 -130 -147.5 -201t-237.5 -71z" />
    <glyph glyph-name="uni0307" unicode="&#x307;" 
d="M461 1536q-77 0 -133 56t-56 132q0 77 56.5 134t132.5 57q78 0 134 -56t56 -135t-56.5 -133.5t-133.5 -54.5z" />
    <glyph glyph-name="uni0308" unicode="&#x308;" 
d="M416 1536q-63 0 -107.5 45.5t-44.5 110.5q0 63 45.5 109t108.5 46q64 0 107.5 -45t43.5 -110q0 -66 -44 -111t-109 -45zM668 1692q0 63 46 110t107 47q64 0 108 -45.5t44 -111.5q0 -64 -44.5 -109t-107.5 -45t-108 45.5t-45 108.5z" />
    <glyph glyph-name="hookabovecomb" unicode="&#x309;" 
d="M377 1583q3 30 39 43q63 25 63 82q0 33 -32 49.5t-80 16.5q-15 0 -23 -2q-23 -2 -33 8t-6 32l17 76q6 35 38 41q68 19 129 19q98 0 160 -40.5t62 -119.5q0 -102 -86.5 -172.5t-208.5 -79.5q-42 -3 -39 43v4z" />
    <glyph glyph-name="uni030A" unicode="&#x30a;" 
d="M543 1249q-139 0 -224.5 77t-85.5 204t87 204.5t227 77.5q138 0 222.5 -76.5t84.5 -201.5q0 -128 -86 -206.5t-225 -78.5zM434 1530q0 -43 30 -69.5t81 -26.5t82.5 28t31.5 72q0 41 -31.5 67.5t-80.5 26.5q-51 0 -82 -27t-31 -71z" />
    <glyph glyph-name="uni030B" unicode="&#x30b;" 
d="M414 1561q-30 -27 -58 -5l-73 60q-31 25 -9 57l215 277q23 34 58 6l117 -94q35 -27 4 -58zM684 1616q-31 24 -8 57l217 277q23 33 57 6l115 -94q34 -28 4 -58l-254 -243q-28 -25 -57 -2z" />
    <glyph glyph-name="uni030C" unicode="&#x30c;" 
d="M479 1536q-35 0 -49 29l-115 217q-10 22 -1 35.5t32 13.5h166q33 0 49 -29l62 -102q8 -12 18 -2l117 112q21 21 49 21h160q27 0 33.5 -15.5t-11.5 -35.5l-211 -221q-23 -23 -51 -23h-248z" />
    <glyph glyph-name="uni0312" unicode="&#x312;" 
d="M309 1554q-23 0 -31 13t1 35l135 313q12 31 49 31h217q24 0 31.5 -15t-4.5 -35l-199 -315q-16 -27 -49 -27h-150z" />
    <glyph glyph-name="dotbelowcomb" unicode="&#x323;" 
d="M37 -502q-77 0 -133 55.5t-56 131.5q0 77 56.5 133.5t132.5 56.5q80 0 135 -54.5t55 -135.5q0 -78 -56 -132.5t-134 -54.5z" />
    <glyph glyph-name="uni0326" unicode="&#x326;" 
d="M-125 -516q-23 0 -31.5 12.5t0.5 34.5l136 313q12 31 49 31h217q24 0 31 -14.5t-5 -34.5l-198 -315q-16 -27 -49 -27h-150z" />
    <glyph glyph-name="uni0327" unicode="&#x327;" 
d="M-12 -442q-68 0 -140 20q-32 8 -26 49l8 43q6 41 49 31q41 -12 86 -12q107 0 107 71q0 55 -95 58q-23 0 -33 10t-7 29l2 10q5 27 34 43q63 31 74 90v2q3 39 43 39h57q45 0 39 -41q-13 -58 -86 -86q-10 -2 -10 -8t12 -6l25 -2q71 -2 116.5 -39t45.5 -99
q0 -66 -45.5 -113.5t-112 -68t-143.5 -20.5z" />
    <glyph glyph-name="uni0328" unicode="&#x328;" 
d="M88 -395q-88 0 -144.5 46.5t-56.5 121.5q0 82 73.5 141.5t189.5 73.5q3 0 7.5 2.5t6.5 3.5q9 6 33 6h16q29 0 31.5 -13t-23.5 -28q-98 -61 -98 -121q0 -59 65 -59q15 0 21 2q24 3 34.5 -5.5t6.5 -31.5l-17 -80q-7 -33 -36 -41q-53 -18 -109 -18z" />
    <glyph glyph-name="uni0394" unicode="&#x394;" horiz-adv-x="1431" 
d="M45 0q-41 0 -41 41v233q0 31 8 52l385 1075q11 33 47 33h400q36 0 47 -33l369 -1075q8 -21 8 -52v-233q0 -41 -41 -41h-1182zM360 303q-3 -8 0 -14t15 -6h508q11 0 14 6t0 14q-41 101 -98 287l-72 248q-37 123 -76 309q-3 10 -10 10t-10 -10q-41 -175 -88 -320l-78 -249
q-45 -139 -105 -275z" />
    <glyph glyph-name="uni03A9" unicode="&#x3a9;" horiz-adv-x="1611" 
d="M94 0q-41 0 -41 41v199q0 41 41 41h295q8 0 12 8t-8 12q-83 35 -146 94.5t-100 131t-55 147.5t-18 155q0 296 195.5 471t521.5 175q329 0 523.5 -170.5t194.5 -458.5q0 -81 -19 -159.5t-57 -152.5t-103.5 -135.5t-151.5 -97.5q-13 -4 -9 -12t13 -8h291q40 0 40 -41v-199
q0 -41 -40 -41h-572q-41 0 -41 41v174q0 30 29 49q120 72 187 215t67 312q0 190 -89.5 296.5t-252.5 106.5q-167 0 -263 -113.5t-96 -312.5q0 -157 63 -295t179 -209q29 -19 29 -49l-2 -174q0 -41 -41 -41h-576z" />
    <glyph glyph-name="uni03BC" unicode="&#x3bc;" horiz-adv-x="1640" 
d="M256 -377q-41 0 -41 41l14 1352q0 41 41 41h252q41 0 41 -41l-6 -533q-1 -121 62 -191.5t169 -70.5q105 0 167 70.5t63 193.5l6 531q0 41 41 41h254q41 0 41 -41l-10 -684q0 -48 18 -72t66 -24h14q43 3 43 -37v-158q0 -36 -37 -45q-82 -14 -137 -14q-123 0 -205.5 50.5
t-91.5 135.5l-2 16q0 13 -6 13q-4 0 -8 -11q-23 -96 -94.5 -156.5t-182.5 -60.5q-91 0 -152 64q-9 9 -14 6q-6 -6 -6 -14l-23 -363q-3 -39 -40 -39h-236z" />
    <glyph glyph-name="pi" unicode="&#x3c0;" horiz-adv-x="1570" 
d="M1395 856q0 -41 -41 -41h-92q-5 0 -9 -4t-4 -8l-8 -467q-3 -100 84 -100h16q43 3 43 -37v-158q0 -39 -36 -45q-82 -14 -140 -14q-139 0 -220.5 70t-80.5 220l8 531q0 12 -12 12h-246q-5 0 -8.5 -3.5t-3.5 -8.5l-10 -762q0 -41 -41 -41h-252q-41 0 -41 41l10 762
q0 12 -12 12h-90q-41 0 -41 41v160q0 41 41 41h1145q41 0 41 -41v-160z" />
    <glyph glyph-name="Wgrave" unicode="&#x1e80;" horiz-adv-x="2027" 
d="M332 0q-40 0 -43 39l-66 1354q-3 41 41 41h297q41 0 41 -41v-523q0 -92 -4 -243t-4 -203q0 -14 11 -14.5t16 12.5q16 48 43.5 121.5t67.5 173t61 155.5l200 529q13 33 47 33h297q41 0 41 -41l-4 -539q0 -82 -3 -245t-3 -185q0 -14 11 -14.5t16 12.5q11 33 41.5 111.5
t73.5 188t61 157.5l203 522q13 33 47 33h293q23 0 31 -14t-1 -36l-631 -1353q-13 -31 -47 -31h-338q-38 0 -38 41l14 614q0 14 7 154t7 170q0 13 -10 14t-14 -10q-26 -73 -129 -326l-252 -624q-13 -33 -47 -33h-334zM932 1743q-38 15 -23 53l56 121q15 37 53 20l448 -198
q36 -16 21 -53l-47 -113q-15 -37 -54 -21z" />
    <glyph glyph-name="wgrave" unicode="&#x1e81;" horiz-adv-x="1794" 
d="M295 0q-40 0 -43 39l-92 975q-3 43 39 43h268q38 0 41 -39l10 -156q4 -52 5.5 -103.5t1.5 -86t-0.5 -123t-0.5 -150.5q0 -19 11 -20t18 16q27 59 101.5 235t99.5 232l73 164q13 31 50 31h229q19 0 31 -11t12 -30l4 -154q8 -294 8 -463q0 -19 10.5 -21t18.5 15
q9 20 87.5 203t125.5 283l70 147q13 31 47 31h280q23 0 32 -13.5t-1 -35.5l-514 -979q-15 -29 -47 -29h-281q-19 0 -31 11t-12 30l-20 598q0 11 -5 15.5t-11.5 1.5t-10.5 -13l-272 -612q-12 -31 -49 -31h-283zM745 1389q-37 15 -22 53l55 121q15 37 53 20l449 -199
q35 -15 20 -53l-47 -112q-15 -36 -53 -21z" />
    <glyph glyph-name="Wacute" unicode="&#x1e82;" horiz-adv-x="2027" 
d="M332 0q-40 0 -43 39l-66 1354q-3 41 41 41h297q41 0 41 -41v-523q0 -92 -4 -243t-4 -203q0 -14 11 -14.5t16 12.5q16 48 43.5 121.5t67.5 173t61 155.5l200 529q13 33 47 33h297q41 0 41 -41l-4 -539q0 -82 -3 -245t-3 -185q0 -14 11 -14.5t16 12.5q11 33 41.5 111.5
t73.5 188t61 157.5l203 522q13 33 47 33h293q23 0 31 -14t-1 -36l-631 -1353q-13 -31 -47 -31h-338q-38 0 -38 41l14 614q0 14 7 154t7 170q0 13 -10 14t-14 -10q-26 -73 -129 -326l-252 -624q-13 -33 -47 -33h-334zM987 1686q-15 37 21 53l448 198q38 17 53 -20l56 -121
q15 -38 -23 -53l-455 -191q-38 -15 -53 21z" />
    <glyph glyph-name="wacute" unicode="&#x1e83;" horiz-adv-x="1794" 
d="M295 0q-40 0 -43 39l-92 975q-3 43 39 43h268q38 0 41 -39l10 -156q4 -52 5.5 -103.5t1.5 -86t-0.5 -123t-0.5 -150.5q0 -19 11 -20t18 16q27 59 101.5 235t99.5 232l73 164q13 31 50 31h229q19 0 31 -11t12 -30l4 -154q8 -294 8 -463q0 -19 10.5 -21t18.5 15
q9 20 87.5 203t125.5 283l70 147q13 31 47 31h280q23 0 32 -13.5t-1 -35.5l-514 -979q-15 -29 -47 -29h-281q-19 0 -31 11t-12 30l-20 598q0 11 -5 15.5t-11.5 1.5t-10.5 -13l-272 -612q-12 -31 -49 -31h-283zM741 1331q-15 37 21 53l452 199q40 16 54 -20l53 -121
q15 -38 -23 -53l-456 -191q-39 -16 -54 21z" />
    <glyph glyph-name="Wdieresis" unicode="&#x1e84;" horiz-adv-x="2027" 
d="M332 0q-40 0 -43 39l-66 1354q-3 41 41 41h297q41 0 41 -41v-523q0 -92 -4 -243t-4 -203q0 -14 11 -14.5t16 12.5q16 48 43.5 121.5t67.5 173t61 155.5l200 529q13 33 47 33h297q41 0 41 -41l-4 -539q0 -82 -3 -245t-3 -185q0 -14 11 -14.5t16 12.5q11 33 41.5 111.5
t73.5 188t61 157.5l203 522q13 33 47 33h293q23 0 31 -14t-1 -36l-631 -1353q-13 -31 -47 -31h-338q-38 0 -38 41l14 614q0 14 7 154t7 170q0 13 -10 14t-14 -10q-26 -73 -129 -326l-252 -624q-13 -33 -47 -33h-334zM864 1692q0 63 45.5 109t108.5 46q64 0 107.5 -45
t43.5 -110q0 -66 -44 -111t-109 -45q-63 0 -107.5 45.5t-44.5 110.5zM1268 1692q0 63 46 110t107 47q64 0 108 -45.5t44 -111.5q0 -64 -44.5 -109t-107.5 -45t-108 45.5t-45 108.5z" />
    <glyph glyph-name="wdieresis" unicode="&#x1e85;" horiz-adv-x="1794" 
d="M295 0q-40 0 -43 39l-92 975q-3 43 39 43h268q38 0 41 -39l10 -156q4 -52 5.5 -103.5t1.5 -86t-0.5 -123t-0.5 -150.5q0 -19 11 -20t18 16q27 59 101.5 235t99.5 232l73 164q13 31 50 31h229q19 0 31 -11t12 -30l4 -154q8 -294 8 -463q0 -19 10.5 -21t18.5 15
q9 20 87.5 203t125.5 283l70 147q13 31 47 31h280q23 0 32 -13.5t-1 -35.5l-514 -979q-15 -29 -47 -29h-281q-19 0 -31 11t-12 30l-20 598q0 11 -5 15.5t-11.5 1.5t-10.5 -13l-272 -612q-12 -31 -49 -31h-283zM711 1362q0 64 46 111t109 47t107.5 -46t44.5 -112
q0 -64 -45.5 -109t-108.5 -45t-108 45.5t-45 108.5zM1116 1364q0 63 45.5 110.5t106.5 47.5q64 0 108.5 -46t44.5 -112q0 -64 -45 -109t-108 -45t-107.5 45.5t-44.5 108.5z" />
    <glyph glyph-name="uni1E9E" unicode="&#x1e9e;" horiz-adv-x="1429" 
d="M741 -27q-83 0 -180 19q-41 7 -31 47l41 199q9 38 50 32q58 -10 102 -10q104 0 169.5 58.5t65.5 160.5q0 57 -37.5 87t-105.5 30h-121q-22 0 -32 12.5t-5 32.5l33 162q6 37 45 37h99q70 0 127 48.5t69 121.5q12 67 -20.5 106t-98.5 39h-262q-9 0 -12 -10l-231 -1108
q-6 -37 -46 -37h-282q-21 0 -30.5 12t-4.5 33l283 1352q6 37 45 37h735q153 0 236 -70t83 -197q1 -131 -90 -233.5t-223 -130.5q-4 -1 -10 -2t-9.5 -1.5t-7 -1.5t-5 -2t-1.5 -3q0 -4 1.5 -7t4.5 -2q111 -18 178.5 -98t67.5 -211q0 -147 -81 -263t-215 -177.5t-294 -61.5z
" />
    <glyph glyph-name="uni1EBC" unicode="&#x1ebc;" horiz-adv-x="1316" 
d="M78 0q-21 0 -30.5 12t-4.5 33l287 1352q6 37 45 37h993q21 0 30.5 -12t4.5 -33l-39 -197q-6 -37 -45 -37h-668q-9 0 -12 -10l-53 -258q-3 -15 12 -15h578q22 0 31.5 -12t4.5 -33l-38 -188q-6 -37 -46 -37h-591q-10 0 -13 -10l-65 -299q-3 -14 12 -14h657q21 0 30.5 -12.5
t4.5 -33.5l-39 -196q-6 -37 -45 -37h-1001zM563 1536q-21 0 -31 11.5t-6 31.5q20 109 95.5 174.5t179.5 65.5q66 0 155 -39q72 -33 107 -33q46 0 61 37q8 20 17.5 28.5t27.5 8.5h117q21 0 31 -12t6 -33q-22 -112 -94 -175t-176 -63q-61 0 -158 39q-86 33 -113 33
q-42 0 -57 -37q-8 -20 -17.5 -28.5t-27.5 -8.5h-117z" />
    <glyph glyph-name="uni1EBD" unicode="&#x1ebd;" horiz-adv-x="1245" 
d="M1038 324q22 0 32 -13.5t1 -34.5q-64 -152 -205.5 -230.5t-326.5 -78.5q-208 0 -336.5 118t-128.5 337q0 185 79 337.5t222.5 241.5t322.5 89q213 0 338 -117t125 -311q0 -90 -22 -168q-8 -35 -45 -35h-699q-12 0 -12 -13q-6 -109 41 -170t139 -61q128 0 187 82
q18 27 49 27h239zM428 1182q-21 0 -31 11.5t-6 31.5q20 110 95 174.5t180 64.5q66 0 155 -39q70 -32 107 -32q46 0 61 37q8 20 17.5 28t27.5 8h117q21 0 31 -11.5t6 -31.5q-20 -113 -93 -176t-177 -63q-59 0 -156 39q-86 32 -113 32q-45 0 -59 -36q-6 -20 -15.5 -28.5
t-27.5 -8.5h-119zM430 647q-4 -14 10 -14h391q12 0 15 12q6 91 -38 144t-132 53q-86 0 -152.5 -51.5t-93.5 -143.5z" />
    <glyph glyph-name="Ygrave" unicode="&#x1ef2;" horiz-adv-x="1447" 
d="M250 1386q-7 21 3 34.5t32 13.5h315q34 0 45 -33l68 -203q21 -63 49.5 -164.5t32.5 -132.5q2 -9 8.5 -10t11.5 8q37 73 209 309l147 201q17 25 50 25h313q26 0 33 -15t-8 -35l-637 -813l-7 -14l-108 -520q-6 -37 -45 -37h-285q-21 0 -30.5 12t-4.5 33l109 514q4 8 0 16z
M637 1743q-38 15 -23 53l56 121q15 37 53 20l448 -198q36 -16 21 -53l-47 -113q-15 -36 -53 -21z" />
    <glyph glyph-name="ygrave" unicode="&#x1ef3;" horiz-adv-x="1202" 
d="M141 -397q-84 0 -194 22q-41 7 -31 47l33 160q9 37 49 31q49 -8 86 -8q71 0 115.5 26.5t76.5 87.5l15 27q2 6 2 16l-127 1002q-6 43 37 43h278q38 0 41 -39l15 -238q10 -187 10 -483q0 -15 11 -16.5t17 12.5q39 87 106.5 248.5t106.5 242.5l117 242q13 31 47 31h258
q23 0 31 -13.5t-2 -35.5l-569 -1051q-100 -184 -227 -269t-302 -85zM453 1389q-38 15 -23 53l55 121q15 37 54 20l448 -199q36 -16 21 -53l-47 -112q-15 -37 -54 -21z" />
    <glyph glyph-name="uni1EF8" unicode="&#x1ef8;" horiz-adv-x="1447" 
d="M250 1386q-7 21 3 34.5t32 13.5h315q34 0 45 -33l68 -203q21 -63 49.5 -164.5t32.5 -132.5q2 -9 8.5 -10t11.5 8q37 73 209 309l147 201q17 25 50 25h313q26 0 33 -15t-8 -35l-637 -813l-7 -14l-108 -520q-6 -37 -45 -37h-285q-21 0 -30.5 12t-4.5 33l109 514q4 8 0 16z
M594 1536q-21 0 -31 11.5t-6 31.5q20 110 95.5 175t178.5 65q67 0 156 -39q72 -33 107 -33q46 0 61 37q8 20 17.5 28.5t27.5 8.5h117q21 0 31 -12t6 -33q-22 -112 -94.5 -175t-176.5 -63q-60 0 -157 39q-86 33 -113 33q-42 0 -57 -37q-8 -20 -17.5 -28.5t-27.5 -8.5h-117z
" />
    <glyph glyph-name="uni1EF9" unicode="&#x1ef9;" horiz-adv-x="1202" 
d="M141 -397q-84 0 -194 22q-41 7 -31 47l33 160q9 37 49 31q49 -8 86 -8q71 0 115.5 26.5t76.5 87.5l15 27q2 6 2 16l-127 1002q-6 43 37 43h278q38 0 41 -39l15 -238q10 -187 10 -483q0 -15 11 -16.5t17 12.5q39 87 106.5 248.5t106.5 242.5l117 242q13 31 47 31h258
q23 0 31 -13.5t-2 -35.5l-569 -1051q-100 -184 -227 -269t-302 -85zM408 1182q-21 0 -31 11.5t-6 31.5q20 110 94.5 174.5t179.5 64.5q67 0 156 -39q70 -32 106 -32q47 0 62 37q8 20 17.5 28t27.5 8h116q21 0 31 -11.5t6 -31.5q-20 -113 -93 -176t-177 -63q-59 0 -156 39
q-86 32 -112 32q-46 0 -60 -36q-6 -20 -15.5 -28.5t-27.5 -8.5h-118z" />
    <glyph glyph-name="endash" unicode="&#x2013;" horiz-adv-x="1103" 
d="M106 436q-44 0 -34 45l41 195q6 37 45 37h858q21 0 30.5 -12t4.5 -33l-41 -195q-6 -37 -45 -37h-859z" />
    <glyph glyph-name="emdash" unicode="&#x2014;" horiz-adv-x="1945" 
d="M106 436q-44 0 -34 45l41 195q6 37 45 37h1697q21 0 30.5 -12t4.5 -33l-39 -195q-6 -37 -45 -37h-1700z" />
    <glyph glyph-name="quoteleft" unicode="&#x2018;" horiz-adv-x="649" 
d="M477 756q-13 -33 -47 -33h-242q-23 0 -31 13.5t3 35.5l342 633q16 29 49 29h149q23 0 32 -13t1 -35z" />
    <glyph glyph-name="quoteright" unicode="&#x2019;" horiz-adv-x="649" 
d="M408 1403q13 33 47 33h241q23 0 31.5 -14t-2.5 -36l-342 -632q-16 -29 -49 -29h-150q-48 0 -32 47z" />
    <glyph glyph-name="quotesinglbase" unicode="&#x201a;" horiz-adv-x="651" 
d="M182 336q13 33 47 33h242q23 0 31.5 -14t-2.5 -36l-342 -632q-16 -29 -49 -29h-150q-23 0 -32 12.5t-1 34.5z" />
    <glyph glyph-name="quotedblleft" unicode="&#x201c;" horiz-adv-x="1095" 
d="M924 756q-13 -33 -47 -33h-242q-23 0 -31 13.5t2 35.5l342 633q16 29 49 29h150q23 0 32 -13t1 -35zM188 723q-23 0 -31 13.5t3 35.5l342 633q16 29 49 29h149q23 0 32 -13t1 -35l-256 -630q-13 -33 -47 -33h-242z" />
    <glyph glyph-name="quotedblright" unicode="&#x201d;" horiz-adv-x="1095" 
d="M408 1403q13 33 47 33h241q23 0 31.5 -14t-2.5 -36l-342 -632q-16 -29 -49 -29h-150q-48 0 -32 47zM631 725q-23 0 -32 12.5t-1 34.5l256 631q13 33 47 33h242q23 0 31 -14t-3 -36l-342 -632q-16 -29 -49 -29h-149z" />
    <glyph glyph-name="quotedblbase" unicode="&#x201e;" horiz-adv-x="1097" 
d="M182 336q13 33 47 33h242q23 0 31.5 -14t-2.5 -36l-342 -632q-16 -29 -49 -29h-150q-23 0 -32 12.5t-1 34.5zM406 -342q-23 0 -32 12.5t-1 34.5l256 631q13 33 47 33h242q23 0 31 -14t-3 -36l-342 -632q-16 -29 -49 -29h-149z" />
    <glyph glyph-name="dagger" unicode="&#x2020;" horiz-adv-x="1310" 
d="M1313 1016q21 0 30.5 -12t4.5 -33l-39 -195q-6 -37 -45 -37h-373q-9 0 -12 -10l-211 -1016q-6 -37 -45 -37h-283q-21 0 -30.5 12t-4.5 33l211 1004q3 14 -12 14h-361q-44 0 -34 45l41 195q6 37 45 37h372q10 0 13 10l75 371q6 37 45 37h283q21 0 30.5 -12t4.5 -33
l-76 -359q-3 -14 12 -14h359z" />
    <glyph glyph-name="daggerdbl" unicode="&#x2021;" horiz-adv-x="1312" 
d="M1309 776q-6 -37 -45 -37h-373q-9 0 -12 -10l-74 -346q-3 -14 12 -14h361q44 0 34 -45l-38 -197q-6 -37 -46 -37h-372q-10 0 -13 -10l-75 -367q-6 -37 -45 -37h-283q-21 0 -30.5 12t-4.5 33l76 355q3 14 -12 14h-361q-21 0 -30.5 12t-4.5 33l39 197q6 37 45 37h373
q9 0 12 10l74 346q3 14 -12 14h-361q-44 0 -34 45l41 195q6 37 45 37h372q10 0 13 10l75 371q6 37 45 37h283q21 0 30.5 -12t4.5 -33l-76 -359q-3 -14 12 -14h359q22 0 32 -12.5t5 -32.5z" />
    <glyph glyph-name="bullet" unicode="&#x2022;" horiz-adv-x="948" 
d="M477 248q-138 0 -236 98.5t-98 235.5q0 138 98.5 235.5t239.5 97.5q139 0 237.5 -97.5t98.5 -235.5q0 -139 -100.5 -236.5t-239.5 -97.5z" />
    <glyph glyph-name="ellipsis" unicode="&#x2026;" horiz-adv-x="1671" 
d="M227 -31q-86 0 -146.5 61t-60.5 146q0 86 60.5 146.5t148.5 60.5t148.5 -60.5t60.5 -146.5t-62 -146.5t-149 -60.5zM571 176q0 86 60.5 146.5t148.5 60.5t148.5 -60.5t60.5 -146.5t-62 -146.5t-149 -60.5q-86 0 -146.5 61t-60.5 146zM1122 176q0 86 60.5 146.5
t148.5 60.5t148.5 -60.5t60.5 -146.5t-62 -146.5t-149 -60.5q-86 0 -146.5 61t-60.5 146z" />
    <glyph glyph-name="perthousand" unicode="&#x2030;" horiz-adv-x="2754" 
d="M420 0q-25 0 -32.5 13.5t7.5 35.5l1016 1360q17 25 49 25h125q25 0 32.5 -14t-7.5 -36l-1016 -1359q-17 -25 -49 -25h-125zM188 1069q90 391 424 391q199 0 269 -124t24 -341q-83 -397 -420 -397q-195 0 -271.5 122.5t-25.5 348.5zM422 1049q-16 -80 -17 -138t25.5 -90.5
t83.5 -32.5q113 0 160 224q31 123 14 190.5t-100 67.5q-66 0 -105 -54.5t-61 -166.5zM1114 455q41 186 146 288.5t278 102.5q199 0 269 -124t22 -341q-83 -397 -418 -397q-196 0 -273 122.5t-24 348.5zM1346 434q-29 -118 -9.5 -189t101.5 -71q59 0 98 57t63 166
q31 123 13 190.5t-101 67.5q-64 0 -102.5 -54t-62.5 -167zM1931 455q41 186 146 288.5t278 102.5q198 0 268.5 -124.5t22.5 -340.5q-83 -397 -420 -397q-195 0 -271.5 122.5t-23.5 348.5zM2163 434q-16 -80 -17 -137.5t25.5 -90t83.5 -32.5q112 0 162 223q16 82 18 139.5
t-23.5 88t-82.5 30.5q-66 0 -105 -54.5t-61 -166.5z" />
    <glyph glyph-name="guilsinglleft" unicode="&#x2039;" horiz-adv-x="679" 
d="M291 551q-23 -12 -2 -25l200 -112q29 -17 23 -52l-45 -217q-4 -25 -19 -30t-34 10l-293 231q-27 21 -21 54l58 266q5 28 32 43l396 235q23 14 37 4.5t8 -36.5l-45 -211q-5 -28 -35 -43z" />
    <glyph glyph-name="guilsinglright" unicode="&#x203a;" horiz-adv-x="681" 
d="M94 127q-23 -14 -37 -4t-8 37l45 209q5 28 35 43l258 118q23 11 2 23l-199 113q-28 17 -22 53l47 217q4 25 19 30t34 -10l293 -231q27 -21 21 -53l-60 -266q-5 -28 -33 -44z" />
    <glyph glyph-name="uni203D" unicode="&#x203d;" horiz-adv-x="1138" 
d="M426 477q-22 0 -32.5 12t-4.5 33q23 91 76 215l131 328q13 33 47 33h57q42 0 39 -43l-14 -156q0 -9 6 -12t12 6q2 3 41 55q30 41 43 99q15 71 -16.5 109t-108.5 38q-83 0 -130.5 -45.5t-71.5 -138.5q-9 -37 -45 -37h-256q-47 0 -35 45q54 237 195 344.5t391 107.5
q237 0 358.5 -108.5t81.5 -306.5q-38 -182 -221 -295q-150 -92 -194 -133.5t-64 -114.5q-9 -35 -45 -35h-240zM307 174q0 86 60.5 146.5t148.5 60.5t148.5 -60.5t60.5 -146.5t-62 -146.5t-149 -60.5q-86 0 -146.5 61t-60.5 146z" />
    <glyph glyph-name="fraction" unicode="&#x2044;" horiz-adv-x="692" 
d="M-188 0q-25 0 -32.5 13.5t7.5 35.5l1012 1360q17 25 49 25h106q25 0 32.5 -14t-7.5 -36l-1012 -1359q-17 -25 -49 -25h-106z" />
    <glyph glyph-name="uni2070" unicode="&#x2070;" horiz-adv-x="909" 
d="M596 1063q-105 0 -178 36t-106 97.5t-41.5 142.5t14.5 172q46 205 155.5 319t284.5 114q88 0 152.5 -23.5t101.5 -64t55 -98.5t17.5 -122.5t-15.5 -140.5q-42 -202 -150.5 -317t-289.5 -115zM520 1526q-34 -149 -11.5 -224t107.5 -75q68 0 116 66.5t73 195.5
q31 149 7.5 220t-103.5 71q-138 0 -189 -254z" />
    <glyph glyph-name="uni2074" unicode="&#x2074;" horiz-adv-x="880" 
d="M653 1090q-21 0 -30.5 12t-4.5 33l25 112q3 15 -12 15h-348q-21 0 -30.5 12t-4.5 33l26 137q5 23 27 45l442 426q20 20 50 20h172q44 0 34 -45l-94 -448q-3 -15 13 -15h51q21 0 30.5 -12t4.5 -33l-17 -84q-6 -36 -45 -36h-63q-9 0 -13 -11l-26 -125q-6 -36 -45 -36h-142z
M459 1442q-6 -4 -4 -9.5t10 -5.5h213q8 0 12 11l62 295q1 3 1 6t-1 5.5t-2 2.5q-6 0 -9 -8q-41 -61 -172 -189z" />
    <glyph glyph-name="uni2075" unicode="&#x2075;" horiz-adv-x="804" 
d="M406 1331q34 0 43 -39q20 -71 116 -71q77 0 119.5 49t40.5 123q0 53 -32.5 82.5t-90.5 29.5q-74 0 -117 -51q-25 -28 -55 -18l-104 39q-39 16 -25 53l148 366q13 33 47 33h458q21 0 30.5 -12t4.5 -33l-16 -84q-6 -37 -45 -37h-324q-12 0 -14 -10l-78 -184q-3 -10 0 -13
t10 7q68 90 187 90q99 0 159 -64.5t60 -169.5q0 -159 -101 -255.5t-264 -96.5q-134 0 -223.5 57.5t-101.5 167.5q-6 41 38 41h130z" />
    <glyph glyph-name="uni2076" unicode="&#x2076;" horiz-adv-x="835" 
d="M481 1518q1 -2 4 1t4 7q31 58 90 89.5t136 31.5q108 0 170.5 -63.5t62.5 -172.5q0 -160 -99.5 -254t-266.5 -94q-183 0 -265 117.5t-45 318.5q31 203 150 327t289 124q120 0 195 -49.5t95 -145.5q4 -20 -5.5 -31.5t-30.5 -11.5h-123q-29 0 -47 35q-23 47 -103 47
q-165 0 -215 -262q-3 -11 4 -14zM467 1337q0 -52 33 -82t90 -30q70 0 110.5 42.5t40.5 116.5q0 48 -31.5 77.5t-84.5 29.5q-74 0 -116 -41.5t-42 -112.5z" />
    <glyph glyph-name="uni2077" unicode="&#x2077;" horiz-adv-x="755" 
d="M807 1765q0 4 -14 4h-433q-21 0 -30 12.5t-4 33.5l16 83q6 37 45 37h543q22 0 32 -12.5t5 -32.5l-19 -94q-6 -27 -26 -47q-162 -144 -241.5 -278.5t-129.5 -344.5q-9 -36 -45 -36h-150q-46 0 -37 45q54 201 179 364t299 258q3 1 10 8z" />
    <glyph glyph-name="uni2078" unicode="&#x2078;" horiz-adv-x="847" 
d="M557 1065q-153 0 -243.5 64t-90.5 171q0 89 57.5 152t153.5 82q10 3 10 6q0 1 -10 8q-39 14 -64.5 52.5t-25.5 85.5q0 123 91 193.5t247 70.5q144 0 227.5 -55t83.5 -156q0 -73 -45 -131.5t-114 -77.5q-11 -4 -11 -6q0 -1 11 -8q53 -17 82.5 -56.5t29.5 -93.5
q0 -141 -103.5 -221t-285.5 -80zM442 1329q0 -49 37.5 -73.5t98.5 -24.5q73 0 114 34.5t41 96.5q0 48 -36 72t-97 24q-73 0 -115.5 -34t-42.5 -95zM537 1681q0 -42 30.5 -65t83.5 -23q59 0 100.5 31.5t41.5 87.5q0 86 -119 86q-64 0 -100.5 -31.5t-36.5 -85.5z" />
    <glyph glyph-name="uni2079" unicode="&#x2079;" horiz-adv-x="837" 
d="M772 1491q-4 4 -12 -8q-31 -59 -90 -91t-135 -32q-107 0 -169.5 64t-62.5 173q0 157 100.5 252t264.5 95q183 0 264.5 -117t44.5 -318q-31 -203 -148 -326.5t-286 -123.5q-122 0 -197.5 48.5t-93.5 145.5q-4 20 6 31.5t31 11.5h121q18 0 27.5 -8t17.5 -26q23 -48 104 -48
q165 0 215 265q2 7 -2 12zM508 1622q0 -48 32 -77t87 -29q73 0 116 41t43 112q0 52 -34 81.5t-93 31.5q-69 2 -110 -41.5t-41 -118.5z" />
    <glyph glyph-name="uni2080" unicode="&#x2080;" horiz-adv-x="909" 
d="M281 -426q-84 0 -148.5 23.5t-101.5 65t-58 98t-19.5 123t15.5 139.5q46 205 156 318.5t285 113.5q88 0 152.5 -23.5t101.5 -64t55 -98.5t17.5 -122.5t-15.5 -140.5q-42 -202 -150.5 -317t-289.5 -115zM205 37q-34 -149 -11.5 -224t107.5 -75q68 0 115.5 66.5t72.5 195.5
q31 149 7.5 220t-103.5 71q-137 0 -188 -254z" />
    <glyph glyph-name="uni2081" unicode="&#x2081;" horiz-adv-x="591" 
d="M170 195q-3 0 -10 -7q-60 -57 -160 -65q-22 -2 -31.5 9.5t-5.5 33.5l23 119q6 37 47 37q80 3 129 23t88 67q21 24 49 24h102q21 0 30.5 -12t4.5 -33l-157 -764q-6 -37 -46 -37h-141q-21 0 -30.5 12t-4.5 33l111 543q2 8 2.5 11.5t-0.5 5.5z" />
    <glyph glyph-name="uni2082" unicode="&#x2082;" horiz-adv-x="866" 
d="M-84 -252q5 30 33 45q232 126 292 163q212 130 235 229q3 13 3 26q0 80 -102 80q-88 0 -123 -72q-14 -33 -47 -33h-133q-22 0 -31.5 12.5t-3.5 34.5q73 226 352 226q150 0 228.5 -60t78.5 -168q0 -61 -30.5 -118t-66.5 -95t-115 -86.5t-122.5 -70.5t-143.5 -69
q-18 -9 -27 -13q-9 -3 -9 -10q0 -5 13 -2q71 8 184 8h178q21 0 30.5 -12t4.5 -33l-21 -103q-6 -37 -45 -37h-600q-44 0 -34 45z" />
    <glyph glyph-name="uni2083" unicode="&#x2083;" horiz-adv-x="831" 
d="M252 -426q-154 0 -246 67.5t-92 194.5q0 41 41 41h133q35 0 41 -39q17 -92 127 -92q67 0 103 32.5t36 94.5q0 84 -116 84h-13q-21 0 -30.5 12t-4.5 33l15 70q6 37 45 37h31q67 0 104 27.5t37 80.5q0 34 -28.5 54t-80.5 20q-84 0 -125 -74q-19 -31 -49 -31h-129
q-22 0 -32 13t-3 34q43 116 132.5 170t230.5 56q129 1 211 -57.5t82 -151.5q0 -84 -50.5 -142t-134.5 -67q-12 0 -12 -4q0 -3 12 -6q61 -7 95 -51t34 -111q0 -136 -99.5 -215.5t-264.5 -79.5z" />
    <glyph glyph-name="uni2084" unicode="&#x2084;" horiz-adv-x="878" 
d="M334 -408q-21 0 -30.5 12.5t-4.5 33.5l25 112q3 14 -13 14h-348q-21 0 -30.5 12.5t-4.5 33.5l27 137q5 23 27 45l442 426q20 20 49 20h172q21 0 30.5 -12t4.5 -33l-94 -448q-3 -15 12 -15h51q21 0 30.5 -12t4.5 -33l-16 -84q-6 -37 -45 -37h-64q-9 0 -12 -10l-27 -125
q-6 -37 -45 -37h-141zM139 -55q-6 -5 -4 -10t10 -5h213q9 0 13 11l61 295q1 3 1 6t-1 5.5t-2 2.5q-5 0 -8 -8q-41 -61 -172 -189z" />
    <glyph glyph-name="uni2085" unicode="&#x2085;" horiz-adv-x="806" 
d="M92 -147q34 0 43 -39q21 -72 117 -72q77 0 119.5 49t40.5 123q0 54 -33 83.5t-90 29.5q-73 0 -117 -52q-25 -28 -55 -18l-105 39q-38 15 -24 53l147 367q13 33 47 33h459q21 0 30.5 -12.5t4.5 -33.5l-17 -84q-6 -36 -45 -36h-323q-12 0 -15 -11l-77 -184q-2 -10 0 -12
q4 -4 10 6q68 90 186 90q99 0 159 -64t60 -169q0 -159 -100.5 -256t-263.5 -97q-134 0 -224 58t-102 168q-6 41 39 41h129z" />
    <glyph glyph-name="uni2086" unicode="&#x2086;" horiz-adv-x="835" 
d="M164 25q2 -1 4 1t4 7q31 58 89.5 89.5t135.5 31.5q109 0 171.5 -63.5t62.5 -172.5q0 -159 -99.5 -253.5t-267.5 -94.5q-183 0 -264.5 117.5t-44.5 318.5q31 203 149.5 327t288.5 124q120 0 195.5 -49.5t95.5 -145.5q4 -20 -6 -31.5t-31 -11.5h-123q-29 0 -47 35
q-23 47 -102 47q-165 0 -215 -262q-3 -11 4 -14zM150 -156q0 -52 32.5 -82t89.5 -30q70 0 111 42.5t41 116.5q0 48 -32 77.5t-85 29.5q-74 0 -115.5 -41.5t-41.5 -112.5z" />
    <glyph glyph-name="uni2087" unicode="&#x2087;" horiz-adv-x="753" 
d="M487 266q0 4 -14 4h-432q-21 0 -30.5 12t-4.5 33l17 84q6 37 45 37h542q22 0 32 -12.5t5 -32.5l-18 -94q-6 -26 -27 -47q-162 -144 -241.5 -278.5t-129.5 -344.5q-9 -37 -45 -37h-149q-46 0 -37 45q54 201 179 364.5t298 258.5q3 1 10 8z" />
    <glyph glyph-name="uni2088" unicode="&#x2088;" horiz-adv-x="845" 
d="M240 -426q-153 0 -243.5 64t-90.5 172q0 89 57.5 151.5t153.5 81.5q10 3 10 6q0 1 -10 8q-39 14 -64.5 52.5t-25.5 85.5q0 123 91 193.5t247 70.5q144 0 227.5 -55t83.5 -156q0 -73 -45.5 -131.5t-114.5 -77.5q-10 -3 -10 -6q0 -1 10 -8q53 -17 83 -56.5t30 -93.5
q0 -141 -103.5 -221t-285.5 -80zM125 -162q0 -49 37.5 -73.5t97.5 -24.5q73 0 114.5 34.5t41.5 96.5q0 48 -36 72t-97 24q-73 0 -115.5 -34t-42.5 -95zM219 190q0 -42 31 -65t84 -23q59 0 100 31.5t41 87.5q0 86 -119 86q-64 0 -100.5 -31.5t-36.5 -85.5z" />
    <glyph glyph-name="uni2089" unicode="&#x2089;" horiz-adv-x="837" 
d="M457 10q-5 5 -13 -8q-31 -59 -90 -91t-135 -32q-107 0 -169 64.5t-62 173.5q0 157 100 251.5t264 94.5q183 0 265 -116.5t45 -317.5q-31 -203 -148.5 -327t-286.5 -124q-122 0 -197 49t-93 146q-4 20 5.5 31.5t30.5 11.5h121q30 0 45 -35q23 -47 105 -47q165 0 215 264
q3 7 -2 12zM193 141q0 -48 31.5 -77t86.5 -29q74 0 117 41.5t43 111.5q0 52 -34 81.5t-93 31.5q-69 2 -110 -41.5t-41 -118.5z" />
    <glyph glyph-name="uni208D" unicode="&#x208d;" horiz-adv-x="419" 
d="M-4 -555q-39 0 -45 37q-17 116 -17 225q0 441 252 860q14 29 50 29h120q23 0 31 -13.5t-2 -35.5q-119 -221 -175 -429.5t-56 -428.5q0 -99 10 -201q3 -43 -39 -43h-129z" />
    <glyph glyph-name="uni208E" unicode="&#x208e;" horiz-adv-x="419" 
d="M-150 -555q-23 0 -31 13.5t3 35.5q231 437 231 850q0 103 -14 209q-3 20 7.5 31.5t31.5 11.5h129q37 0 43 -37q18 -114 18 -231q0 -216 -63.5 -435t-184.5 -421q-15 -27 -49 -27h-121z" />
    <glyph glyph-name="franc" unicode="&#x20a3;" horiz-adv-x="1126" 
d="M0 217q-22 0 -32 12.5t-5 32.5l19 90q6 37 45 37h77q10 0 13 10l213 998q6 37 45 37h829q21 0 30.5 -12t4.5 -33l-39 -195q-6 -37 -45 -37h-504q-9 0 -12 -10l-57 -260q-3 -15 12 -15h440q22 0 32 -12.5t5 -32.5l-39 -188q-6 -37 -45 -37h-455q-9 0 -12 -10l-41 -189
q-3 -14 13 -14h178q22 0 32 -12.5t5 -32.5l-19 -90q-6 -37 -45 -37h-194q-10 0 -13 -10l-35 -170q-6 -37 -45 -37h-280q-21 0 -30.5 12t-4.5 33l33 158q3 14 -13 14h-61z" />
    <glyph glyph-name="uni20A6" unicode="&#x20a6;" horiz-adv-x="1808" 
d="M221 651q-22 0 -32 12.5t-5 32.5l19 90q6 37 43 37h102q8 0 12 11l119 563q6 37 45 37h324q36 0 45 -33l182 -567q3 -11 15 -11h151q8 0 12 11l21 100l94 463q6 37 45 37h266q21 0 30.5 -12t4.5 -33l-117 -551q-3 -15 13 -15h69q22 0 32 -12.5t5 -32.5l-18 -90
q-6 -37 -45 -37h-84q-10 0 -13 -10l-129 -604q-6 -37 -45 -37h-309q-36 0 -47 33l-172 508q-13 37 -33 100q-3 10 -14 10h-133q-9 0 -12 -10l-19 -88l-104 -516q-6 -37 -45 -37h-267q-44 0 -34 45l126 592q3 14 -12 14h-86zM696 836q-3 -13 11 -13h49q13 0 10 15l-31 129
q-3 12 -10.5 10.5t-9.5 -12.5zM1147 651q-13 0 -10 -14q18 -66 39 -127q3 -9 11.5 -8t10.5 10l21 127q1 6 -3 9t-10 3h-59z" />
    <glyph glyph-name="peseta" unicode="&#x20a7;" horiz-adv-x="1509" 
d="M137 858q-22 0 -32 12.5t-5 32.5l15 74q6 37 45 37h94q9 0 12 10l78 373q6 37 45 37h619q202 0 321 -114.5t107 -293.5q-3 -12 10 -12h43q22 0 32 -12.5t5 -32.5l-15 -74q-6 -37 -45 -37h-59q-11 0 -14 -10q-71 -179 -232 -278t-387 -99h-248q-9 0 -12 -10l-88 -424
q-6 -37 -45 -37h-283q-21 0 -30.5 12t-4.5 33l166 799q3 14 -12 14h-80zM567 731q-3 -14 13 -14h202q76 0 138 34t98 93q7 14 -8 14h-404q-9 0 -12 -10zM631 1028q-3 -14 12 -14h404q13 0 10 12q-9 62 -58 95.5t-129 33.5h-200q-10 0 -13 -10z" />
    <glyph glyph-name="uni20A8" unicode="&#x20a8;" horiz-adv-x="2594" 
d="M80 0q-21 0 -30.5 12t-4.5 33l285 1352q6 37 45 37h702q177 0 272 -89.5t95 -234.5q0 -142 -88 -251.5t-234 -141.5q-9 -2 -11.5 -6t0.5 -8t11 -5q70 -12 107.5 -69t34.5 -150l-15 -438q0 -19 -12 -30t-31 -11h-286q-44 0 -41 43l16 283q6 100 -30.5 133t-139.5 33h-211
q-8 0 -12 -11l-94 -444q-6 -37 -46 -37h-282zM557 752q-3 -15 12 -15h219q67 0 120.5 22.5t85.5 59.5t48.5 81t16.5 89q0 77 -43.5 121.5t-132.5 44.5h-230q-9 0 -12 -10zM1462 283q-3 41 41 41h252q18 0 27.5 -8.5t15.5 -28.5q27 -99 174 -99q80 0 128 30.5t48 78.5
q0 37 -35 62t-112 42l-100 23q-29 7 -42.5 10t-46 12.5t-50.5 17t-47 22t-46.5 29t-39 36.5t-33 46t-19.5 56t-8 68q0 163 140 266t370 103q88 0 163 -17t140 -53t104.5 -101t46.5 -153q0 -41 -41 -41h-225q-36 0 -45 39q-22 104 -154 104q-76 0 -121.5 -31t-45.5 -81
q0 -38 36.5 -63t120.5 -44l103 -22q53 -11 93 -23.5t86 -36t76 -53.5t50 -76.5t20 -105.5q0 -166 -143.5 -267.5t-394.5 -101.5q-101 0 -184 18t-150 55t-106.5 100t-45.5 147z" />
    <glyph glyph-name="uni20A9" unicode="&#x20a9;" horiz-adv-x="2033" 
d="M109 616q-22 0 -32 13t-5 33l18 90q6 36 45 36h111q12 0 12 13l-29 592q-3 41 39 41h299q41 0 41 -41v-523v-69q0 -13 13 -13h135q11 0 14 11l29 73l200 529q13 33 48 33h296q41 0 41 -41l-4 -539v-53q0 -13 13 -13h139q11 0 14 11l234 602q13 33 47 33h293q23 0 31 -14
t-1 -36l-272 -581q-6 -15 10 -15h88q22 0 32 -12.5t5 -32.5l-18 -90q-6 -37 -45 -37h-148q-11 0 -14 -8l-268 -577q-13 -31 -47 -31h-338q-39 0 -39 41l14 563q0 12 -12 12h-133q-13 0 -15 -10l-231 -573q-13 -33 -47 -33h-334q-40 0 -43 39l-29 565q0 4 -4 8t-8 4h-145z
M600 424q0 -14 11 -14.5t16 12.5q19 65 65 180q7 14 -8 14h-68q-12 0 -12 -14q-4 -136 -4 -178zM1030 803q-4 -15 8 -15h66q12 0 12 13q8 144 8 178q0 13 -10 14t-14 -10zM1374 424q0 -14 11 -14.5t16 12.5q49 134 67 180q7 14 -8 14h-69q-13 0 -13 -26q-4 -148 -4 -166z
" />
    <glyph glyph-name="Euro" unicode="&#x20ac;" horiz-adv-x="1517" 
d="M782 -29q-263 0 -414.5 141t-162.5 390q0 12 -12 12h-125q-22 0 -32 12.5t-5 32.5l14 74q6 37 45 37h111q11 0 14 12q9 74 14 92q0 14 -12 14h-92q-22 0 -32 13t-5 33l14 73q6 37 45 37h121q12 0 15 10q95 233 279.5 370.5t426.5 137.5q241 0 376 -111t159 -311
q3 -20 -7.5 -31.5t-31.5 -11.5h-268q-34 0 -46 37q-20 66 -72.5 109t-142.5 43q-100 0 -178 -60t-129 -168q-3 -6 0.5 -10t9.5 -4h271q22 0 32 -12.5t5 -32.5l-15 -74q-6 -37 -45 -37h-307q-9 0 -12 -10q-11 -44 -17 -96q-3 -12 11 -12h290q22 0 32 -12.5t5 -32.5l-14 -74
q-6 -37 -45 -37h-279q-12 0 -12 -6q0 -130 65.5 -195t184.5 -65q207 0 287 211q14 33 47 33h266q22 0 31 -15t2 -41q-81 -230 -255.5 -347.5t-404.5 -117.5z" />
    <glyph glyph-name="uni20AD" unicode="&#x20ad;" horiz-adv-x="1533" 
d="M82 627q-22 0 -32 12.5t-5 32.5l18 90q6 37 46 37h86q9 0 12 10l125 588q6 37 45 37h282q22 0 32 -12.5t5 -32.5l-125 -566q-3 -11 4 -15t17 7q159 183 385 397l213 201q21 21 49 21h346q28 0 35 -16t-14 -36l-582 -526q-7 -7 -4 -16l14 -31q3 -10 15 -10h399
q22 0 32 -12.5t5 -32.5l-19 -90q-6 -37 -45 -37h-295q-16 0 -10 -15l242 -565q9 -22 0.5 -34.5t-31.5 -12.5h-326q-34 0 -47 33l-225 573q-1 6 -7.5 7.5t-10.5 -3.5l-213 -174q-6 -6 -9 -14l-79 -385q-6 -37 -45 -37h-283q-21 0 -30.5 12t-4.5 33l121 567q3 15 -12 15h-74z
" />
    <glyph glyph-name="uni20AE" unicode="&#x20ae;" horiz-adv-x="1333" 
d="M295 506q-23 -9 -35.5 1.5t-7.5 35.5l16 78q6 32 35 43l221 88q8 3 11 14l81 375q3 14 -12 14h-354q-22 0 -32 12.5t-5 32.5l39 197q6 37 43 37h1112q22 0 32 -12.5t5 -32.5l-39 -197q-6 -37 -45 -37h-367q-9 0 -12 -10l-45 -211q-2 -6 2 -10.5t10 -1.5l176 71
q23 9 35.5 -1.5t7.5 -35.5l-18 -79q-6 -32 -35 -43l-209 -82q-7 -2 -10 -15l-27 -119q-2 -6 2.5 -10.5t10.5 -1.5l178 72q23 9 35.5 -1.5t7.5 -35.5l-19 -78q-6 -32 -34 -43l-211 -84q-8 -3 -11 -14l-82 -385q-6 -37 -45 -37h-282q-21 0 -30.5 12t-4.5 33l43 209
q2 6 -2 10.5t-10 1.5l-185 -76q-23 -9 -35.5 1.5t-7.5 35.5l17 78q6 32 35 43l221 88q7 2 10 15l25 118q2 6 -2.5 11t-10.5 2z" />
    <glyph glyph-name="uni20B1" unicode="&#x20b1;" horiz-adv-x="1470" 
d="M129 799q-22 0 -32 12.5t-5 32.5l4 24q6 37 45 37h99q9 0 12 10l8 37q3 15 -12 15h-84q-21 0 -30.5 12t-4.5 33l4 24q6 37 45 37h96q10 0 13 10l65 314q6 37 45 37h619q185 0 301 -96t127 -253q0 -12 12 -12h53q21 0 30.5 -12t4.5 -33l-4 -24q-6 -37 -45 -37h-51
q-8 0 -12 -11q-1 -8 -4.5 -20.5t-4.5 -15.5q-2 -6 1.5 -10.5t9.5 -4.5h39q21 0 31 -12.5t5 -32.5l-4 -24q-6 -37 -45 -37h-71q-12 0 -15 -8q-78 -154 -230.5 -237t-361.5 -83h-247q-10 0 -13 -10l-88 -424q-6 -37 -45 -37h-283q-44 0 -34 45l153 739q3 15 -12 15h-84z
M575 731q-3 -14 13 -14h203q111 0 184 67q6 4 4 9.5t-10 5.5h-367q-8 0 -12 -11zM616 920q-3 -15 13 -15h415q13 0 13 10q2 5 4 15.5t2 11.5l2 12q3 13 -12 13h-416q-8 0 -12 -11zM651 1087q-3 -14 13 -14h370q15 0 8 14q-47 68 -163 68h-201q-9 0 -12 -10z" />
    <glyph glyph-name="uni20B2" unicode="&#x20b2;" horiz-adv-x="1601" 
d="M111 555q0 234 97.5 432.5t275 325t401.5 149.5q9 0 12 11l37 174q6 36 45 36h94q21 0 30.5 -12t4.5 -33l-35 -163q-3 -12 10 -15q196 -23 316.5 -134t140.5 -286q6 -43 -39 -43h-295q-34 0 -43 37q-12 48 -45.5 85t-85.5 55q-11 3 -14 -9l-187 -901q-1 -7 2 -10.5
t9 -1.5q98 22 174.5 91.5t111.5 168.5q4 14 -10 14h-102q-21 0 -30.5 12t-4.5 33l33 162q6 37 45 37h422q21 0 30.5 -12t4.5 -33l-148 -688q-6 -37 -45 -37h-217q-22 0 -32 12.5t-5 32.5l35 182q2 9 -5.5 12.5t-11.5 -3.5q-49 -82 -132 -145.5t-181 -96.5q-10 -2 -12 -12
l-41 -195q-6 -37 -45 -37h-94q-21 0 -30.5 12t-4.5 33l35 160q3 12 -7 12q-93 5 -174 42t-147.5 106t-104.5 182t-38 258zM496 590q0 -252 145 -322q11 -6 14 8l185 881q1 6 -1.5 10t-7.5 2q-148 -47 -241.5 -209.5t-93.5 -369.5z" />
    <glyph glyph-name="uni20B3" unicode="&#x20b3;" horiz-adv-x="1531" 
d="M326 29q-14 -29 -47 -29h-293q-23 0 -31.5 14.5t2.5 34.5l111 201q6 14 -9 14h-12q-22 0 -32 12.5t-5 32.5l15 74q6 37 45 37h82q11 0 14 8l61 111q7 14 -8 14h-113q-44 0 -34 45l14 74q6 37 45 37h180q12 0 15 8l381 688q15 29 49 29h377q40 0 45 -37l96 -676
q0 -4 4.5 -8t9.5 -4h185q44 0 34 -45l-14 -74q-6 -37 -45 -37h-137q-14 0 -11 -12l15 -109q0 -4 4.5 -8t9.5 -4h82q22 0 32 -12.5t5 -32.5l-14 -74q-6 -37 -45 -37h-37q-14 0 -11 -12l31 -209q3 -20 -7.5 -31.5t-31.5 -11.5h-289q-40 0 -43 39l-20 213q0 4 -4.5 8t-9.5 4
h-508q-12 0 -15 -8zM539 434q-6 -14 8 -14h403q11 0 11 12l-11 109q0 4 -4.5 8t-9.5 4h-326q-11 0 -14 -8zM688 723q-6 -14 8 -14h224q10 0 10 12l-6 72q-17 211 -19 333q0 15 -8 15q-9 0 -12 -11q-65 -154 -162 -339z" />
    <glyph glyph-name="uni20B4" unicode="&#x20b4;" horiz-adv-x="1454" 
d="M113 758q-21 0 -30.5 12t-4.5 33l12 57q6 37 43 37h791q10 0 16 2q131 52 131 158q0 61 -55 93t-144 32q-106 0 -179 -38t-99 -112q-12 -35 -47 -35h-260q-22 0 -31.5 12.5t-3.5 34.5q67 208 240 314t415 106q241 0 390 -91t149 -247q0 -126 -74 -215q-6 -6 -4 -10t10 -4
h101q22 0 32 -12.5t5 -32.5l-13 -57q-6 -37 -45 -37h-1345zM68 543q-22 0 -32 12.5t-5 32.5l12 57q6 37 45 37h1346q44 0 34 -45l-12 -57q-6 -37 -43 -37h-797q-10 0 -16 -2q-141 -52 -141 -162q0 -62 55 -93.5t143 -31.5q223 0 295 156q14 32 47 32h263q22 0 31 -12.5
t3 -32.5q-64 -214 -239.5 -321t-433.5 -107q-242 0 -389.5 91.5t-147.5 248.5q0 132 76 219q6 6 4 10.5t-10 4.5h-88z" />
    <glyph glyph-name="uni20B5" unicode="&#x20b5;" horiz-adv-x="1556" 
d="M938 1647q6 36 45 36h96q21 0 30.5 -12t4.5 -33l-35 -165q-3 -12 11 -15q193 -25 310.5 -135t137.5 -283q6 -43 -39 -43h-295q-34 0 -43 37q-12 48 -45.5 85t-85.5 55q-11 3 -14 -9l-189 -901q-1 -7 2 -10.5t9 -1.5q152 33 225 186q15 31 49 31h285q22 0 32 -13t1 -34
q-86 -216 -253.5 -331.5t-402.5 -123.5q-9 0 -12 -10l-35 -170q-6 -37 -45 -37l-96 2q-22 0 -32 12.5t-5 32.5l37 170q4 11 -11 15q-222 39 -341 184.5t-119 396.5q0 173 57.5 330.5t158.5 277.5t245.5 198t312.5 95q9 0 12 11zM496 563q0 -229 141 -291q10 -5 14 9l185 876
q2 6 -2 9.5t-11 0.5q-77 -28 -141 -94.5t-103.5 -151.5t-61 -177.5t-21.5 -180.5z" />
    <glyph glyph-name="uni20B8" unicode="&#x20b8;" horiz-adv-x="1273" 
d="M393 0q-21 0 -30.5 12t-4.5 33l134 623q3 14 -13 14h-360q-21 0 -30.5 12t-4.5 33l39 195q6 36 45 36h1112q21 0 30.5 -12t4.5 -33l-39 -194q-6 -37 -45 -37h-363q-9 0 -12 -10l-137 -635q-6 -37 -45 -37h-281zM219 1157q-21 0 -30.5 12t-4.5 33l39 195q6 37 45 37h1112
q21 0 30.5 -12t4.5 -33l-39 -195q-6 -37 -45 -37h-1112z" />
    <glyph glyph-name="uni20B9" unicode="&#x20b9;" horiz-adv-x="1273" 
d="M602 326q6 104 -27.5 136t-150.5 32h-285q-21 0 -30.5 12t-4.5 33l33 161q6 37 45 37h320q76 0 134 32t89 89q4 6 1 10t-9 4h-496q-22 0 -32 13t-5 33l15 73q6 37 45 37h501q16 0 13 14q-12 53 -55 84t-109 31h-315q-21 0 -30.5 12t-4.5 33l39 195q6 37 45 37h1011
q22 0 32 -12.5t5 -32.5l-14 -74q-6 -37 -45 -37h-207q-8 0 -12 -8q-3 -9 2 -17q37 -45 37 -127q0 -44 -9 -84q-3 -14 11 -14h116q22 0 32 -12.5t5 -32.5l-14 -74q-6 -37 -45 -37h-184q-9 0 -15 -6q-117 -136 -286 -151q-13 0 -13 -6q0 -9 13 -9q114 -5 165.5 -66.5
t47.5 -197.5l-11 -395q0 -19 -12 -30t-31 -11h-280q-44 0 -41 43z" />
    <glyph glyph-name="uni20BA" unicode="&#x20ba;" horiz-adv-x="1341" 
d="M1296 762q46 0 37 -45q-89 -356 -315 -536.5t-578 -180.5h-317q-21 0 -30.5 12t-4.5 33l109 506q2 6 -2.5 10.5t-10.5 1.5l-102 -41q-23 -9 -35 0.5t-8 34.5l18 88q6 32 35 43l137 53q8 3 11 15l24 110q2 6 -2 11t-10 2l-102 -41q-24 -9 -36 0.5t-8 33.5l19 89
q6 32 35 43l137 53q7 2 10 14l70 326q6 37 45 37h280q21 0 30.5 -12t4.5 -33l-30 -150q-2 -6 2 -10.5t10 -1.5l262 106q23 9 35.5 -1.5t7.5 -35.5l-20 -86q-6 -32 -35 -43l-295 -116q-7 -2 -10 -15l-25 -112q-2 -6 2 -11t10 -2l262 107q24 9 36.5 -1t6.5 -36l-20 -86
q-6 -32 -35 -43l-295 -117q-7 -2 -10 -14l-90 -422q-3 -14 12 -14q157 5 274.5 118.5t172.5 321.5q9 37 45 37h286z" />
    <glyph glyph-name="uni20BC" unicode="&#x20bc;" horiz-adv-x="1589" 
d="M887 139q-6 -37 -45 -37h-256q-21 0 -30.5 12t-4.5 33l137 641q1 7 -1.5 11t-8.5 2q-95 -12 -145 -61.5t-74 -166.5l-113 -534q-6 -37 -45 -37h-272q-21 0 -30.5 12t-4.5 33l104 500q28 135 72 230.5t97 154t130 92.5t155.5 47t190.5 16q9 0 13 11l65 301q6 37 45 37h254
q21 0 30.5 -12t4.5 -33l-63 -293q-3 -12 12 -15q140 -13 232 -56.5t137.5 -115t53 -171t-21.5 -224.5l-106 -477q-10 -37 -45 -37h-273q-44 0 -34 45l108 504q47 193 -115 240q-9 5 -14 -9z" />
    <glyph glyph-name="uni20BF" unicode="&#x20bf;" horiz-adv-x="1427" 
d="M614 -240q-22 0 -31.5 12t-4.5 33l38 181q3 14 -12 14h-127q-9 0 -12 -10l-39 -193q-6 -37 -45 -37h-94q-22 0 -32 12.5t-5 32.5l39 181q3 14 -13 14h-196q-21 0 -30.5 12t-4.5 33l281 1352q6 37 45 37h211q9 0 12 10l43 203q6 36 45 36h94q21 0 30.5 -12t4.5 -33
l-41 -190q-3 -14 12 -14h125q10 0 13 10l43 203q6 36 45 36h94q21 0 30.5 -12t4.5 -33l-41 -192q-3 -12 12 -12q157 -8 238 -75.5t81 -193.5q0 -136 -98.5 -240t-232.5 -122q-9 -1 -12 -6.5t0.5 -10.5t11.5 -6q103 -14 169 -92.5t66 -200.5q0 -215 -143.5 -339.5
t-380.5 -145.5q-9 0 -12 -10l-41 -195q-6 -37 -45 -37h-95zM461 293q-3 -14 12 -14h238q118 0 185 51t67 141q0 63 -41.5 94t-130.5 31h-256q-10 0 -13 -10zM578 854q-3 -14 12 -14h233q94 0 152.5 59t58.5 135q0 121 -141 121h-240q-9 0 -12 -10z" />
    <glyph glyph-name="uni2116" unicode="&#x2116;" horiz-adv-x="2471" 
d="M1997 588q-176 0 -278.5 91t-102.5 253q0 225 143.5 376.5t362.5 151.5q178 0 278.5 -91t100.5 -255q0 -146 -63 -265.5t-179 -190t-262 -70.5zM78 0q-21 0 -30.5 12t-4.5 33l287 1352q6 37 45 37h323q36 0 45 -33l168 -522q25 -77 63.5 -203t51.5 -166q3 -9 12 -8t11 10
q0 4 10.5 68.5t29 168t35.5 185.5l95 463q6 37 45 37h266q21 0 30.5 -12t4.5 -33l-287 -1352q-6 -37 -45 -37h-309q-36 0 -47 33l-172 508q-16 46 -29 87.5t-27 93.5t-19.5 73t-23 90.5t-20.5 81.5t-11 10.5t-10 -12.5q-29 -205 -71 -412l-105 -516q-6 -37 -45 -37h-266z
M1526 338q-21 0 -30.5 12t-4.5 33l18 90q6 37 45 37h785q21 0 30.5 -12t4.5 -33l-19 -90q-6 -37 -45 -37h-784zM1898 977q0 -77 35 -116.5t97 -39.5q87 0 137.5 70.5t50.5 179.5q0 81 -31.5 118.5t-95.5 37.5q-90 0 -141.5 -70.5t-51.5 -179.5z" />
    <glyph glyph-name="trademark" unicode="&#x2122;" horiz-adv-x="1478" 
d="M827 907q-41 0 -41 41v445q0 41 41 41h125q36 0 45 -35l50 -154q40 -129 43 -139l4 -10h2q4 17 45 153l47 150q9 35 45 35h125q41 0 41 -41v-445q0 -41 -41 -41h-53q-41 0 -41 41v174q0 101 2 160l-2 12h-2l-48 -164l-55 -188q-8 -35 -45 -35h-39q-37 0 -45 35l-53 178
q-27 89 -49 164q-3 10 -4 10q-4 0 -4 -12q2 -61 2 -170v-164q0 -41 -41 -41h-54zM305 1327q-41 0 -41 41v25q0 41 41 41h377q41 0 41 -41v-25q0 -41 -41 -41h-107q-12 0 -12 -12v-367q0 -41 -41 -41h-57q-41 0 -41 41v367q0 12 -12 12h-107z" />
    <glyph glyph-name="estimated" unicode="&#x212e;" horiz-adv-x="1921" 
d="M358 1257q222 216 603 216q376 0 602 -226q209 -209 223 -499q0 -41 -41 -41h-1280q-29 0 -29 -27v-358q0 -68 33 -97q199 -196 492 -196q149 0 288 65q125 60 205 148q19 22 51 22h54q27 0 34.5 -15.5t-10.5 -35.5q-83 -92 -221 -158q-174 -82 -401 -82q-371 0 -601 213
q-229 210 -229 541q0 163 56 291.5t171 238.5zM436 780q0 -26 29 -26h983q29 0 29 26v344q0 61 -33 90q-213 201 -483 201q-275 0 -492 -201q-33 -29 -33 -90v-344z" />
    <glyph glyph-name="uni2150" unicode="&#x2150;" horiz-adv-x="1828" 
d="M381 1192q-4 0 -10 -6q-61 -58 -160 -66q-22 -2 -31.5 9.5t-5.5 33.5l23 119q6 37 47 37q80 3 129 23t88 67q22 25 49 25h102q21 0 30.5 -12t4.5 -33l-158 -764q-6 -37 -45 -37h-141q-21 0 -30.5 12t-4.5 33l111 543q2 8 2.5 11t-0.5 5zM293 0q-25 0 -32.5 13.5t7.5 35.5
l1012 1360q17 25 49 25h107q25 0 32 -14t-8 -36l-1011 -1359q-17 -25 -50 -25h-106zM1200 0q-46 0 -37 45q54 200 178.5 363.5t298.5 259.5q11 4 11 8t-13 4h-434q-21 0 -30.5 12t-4.5 33l17 84q6 37 45 37h543q21 0 31 -12t5 -33l-18 -94q-6 -27 -27 -48
q-162 -144 -241 -277.5t-129 -344.5q-9 -37 -45 -37h-150z" />
    <glyph glyph-name="uni2151" unicode="&#x2151;" horiz-adv-x="1832" 
d="M381 1192q-4 0 -10 -6q-61 -58 -160 -66q-22 -2 -31.5 9.5t-5.5 33.5l23 119q6 37 47 37q80 3 129 23t88 67q22 25 49 25h102q21 0 30.5 -12t4.5 -33l-158 -764q-6 -37 -45 -37h-141q-21 0 -30.5 12t-4.5 33l111 543q2 8 2.5 11t-0.5 5zM293 0q-25 0 -32.5 13.5t7.5 35.5
l1012 1360q17 25 49 25h107q25 0 32 -14t-8 -36l-1011 -1359q-17 -25 -50 -25h-106zM1018 172q-4 20 6 31.5t31 11.5h121q30 0 45 -35q23 -47 104 -47q162 0 215 262q3 10 -2 15q-6 3 -10 -9q-32 -58 -91.5 -90t-136.5 -32q-107 0 -169 64t-62 173q0 156 100 251t265 95
q183 0 264.5 -116.5t44.5 -317.5q-31 -203 -148.5 -327t-285.5 -124q-122 0 -197.5 49t-93.5 146zM1274 541q0 -48 32 -77.5t87 -29.5q73 0 116 41.5t43 112.5q0 52 -34 81t-93 31q-69 2 -110 -41t-41 -118z" />
    <glyph glyph-name="uni2152" unicode="&#x2152;" horiz-adv-x="2504" 
d="M381 1192q-4 0 -10 -6q-61 -58 -160 -66q-22 -2 -31.5 9.5t-5.5 33.5l23 119q6 37 47 37q80 3 129 23t88 67q22 25 49 25h102q21 0 30.5 -12t4.5 -33l-158 -764q-6 -37 -45 -37h-141q-21 0 -30.5 12t-4.5 33l111 543q2 8 2.5 11t-0.5 5zM293 0q-25 0 -32.5 13.5t7.5 35.5
l1012 1360q17 25 49 25h107q25 0 32 -14t-8 -36l-1011 -1359q-17 -25 -50 -25h-106zM1092 532q-22 -2 -31.5 9.5t-5.5 33.5l22 119q6 37 47 37q80 3 129 23t88 67q22 25 50 25h102q21 0 30.5 -12t4.5 -33l-158 -764q-6 -37 -45 -37h-141q-21 0 -30.5 12t-4.5 33l113 545
q3 14 0 14q-5 0 -9 -4q-34 -32 -70 -48t-91 -20zM1651 426q46 205 155.5 318.5t284.5 113.5q88 0 152.5 -23.5t101.5 -63.5t55 -98t17.5 -122.5t-15.5 -140.5q-42 -202 -150.5 -317.5t-289.5 -115.5q-84 0 -148 23.5t-101.5 65t-58 98t-19 123t15.5 139.5zM1886 440
q-34 -149 -11.5 -224t107.5 -75q68 0 116 66.5t73 195.5q31 149 7.5 220t-103.5 71q-138 0 -189 -254z" />
    </font>
</defs>
</svg>
